<svg width="76" height="76" viewBox="0 0 76 76" fill="none" xmlns="http://www.w3.org/2000/svg">
<circle cx="38" cy="38" r="38" fill="#00ADAC"/>
<path d="M33.4118 23.4V43H28.8758V27.04H24.9558V23.4H33.4118ZM51.4606 39.304V43H36.6486V40.06L44.2086 32.92C45.0113 32.1547 45.5526 31.5013 45.8326 30.96C46.1126 30.4 46.2526 29.8493 46.2526 29.308C46.2526 28.524 45.9819 27.9267 45.4406 27.516C44.9179 27.0867 44.1433 26.872 43.1166 26.872C42.2579 26.872 41.4833 27.04 40.7926 27.376C40.1019 27.6933 39.5233 28.1787 39.0566 28.832L35.7526 26.704C36.5179 25.5653 37.5726 24.6787 38.9166 24.044C40.2606 23.3907 41.8006 23.064 43.5366 23.064C44.9926 23.064 46.2619 23.3067 47.3446 23.792C48.4459 24.2587 49.2953 24.9307 49.8926 25.808C50.5086 26.6667 50.8166 27.684 50.8166 28.86C50.8166 29.924 50.5926 30.9227 50.1446 31.856C49.6966 32.7893 48.8286 33.8533 47.5406 35.048L43.0326 39.304H51.4606Z" fill="white"/>
<path d="M29.3352 49.64L26.2512 56.636C25.9792 57.284 25.6592 57.74 25.2912 58.004C24.9312 58.268 24.4952 58.4 23.9832 58.4C23.6712 58.4 23.3672 58.348 23.0712 58.244C22.7832 58.148 22.5432 58.004 22.3512 57.812L22.8432 56.948C23.1712 57.26 23.5512 57.416 23.9832 57.416C24.2632 57.416 24.4952 57.34 24.6792 57.188C24.8712 57.044 25.0432 56.792 25.1952 56.432L25.3992 55.988L22.5912 49.64H23.7912L26.0112 54.728L28.2072 49.64H29.3352ZM35.9826 52.856C35.9826 52.944 35.9746 53.06 35.9586 53.204H30.7986C30.8706 53.764 31.1146 54.216 31.5306 54.56C31.9546 54.896 32.4786 55.064 33.1026 55.064C33.8626 55.064 34.4746 54.808 34.9386 54.296L35.5746 55.04C35.2866 55.376 34.9266 55.632 34.4946 55.808C34.0706 55.984 33.5946 56.072 33.0666 56.072C32.3946 56.072 31.7986 55.936 31.2786 55.664C30.7586 55.384 30.3546 54.996 30.0666 54.5C29.7866 54.004 29.6466 53.444 29.6466 52.82C29.6466 52.204 29.7826 51.648 30.0546 51.152C30.3346 50.656 30.7146 50.272 31.1946 50C31.6826 49.72 32.2306 49.58 32.8386 49.58C33.4466 49.58 33.9866 49.72 34.4586 50C34.9386 50.272 35.3106 50.656 35.5746 51.152C35.8466 51.648 35.9826 52.216 35.9826 52.856ZM32.8386 50.552C32.2866 50.552 31.8226 50.72 31.4466 51.056C31.0786 51.392 30.8626 51.832 30.7986 52.376H34.8786C34.8146 51.84 34.5946 51.404 34.2186 51.068C33.8506 50.724 33.3906 50.552 32.8386 50.552ZM39.7225 49.58C40.6025 49.58 41.2745 49.796 41.7385 50.228C42.2105 50.66 42.4465 51.304 42.4465 52.16V56H41.3545V55.16C41.1625 55.456 40.8865 55.684 40.5265 55.844C40.1745 55.996 39.7545 56.072 39.2665 56.072C38.5545 56.072 37.9825 55.9 37.5505 55.556C37.1265 55.212 36.9145 54.76 36.9145 54.2C36.9145 53.64 37.1185 53.192 37.5265 52.856C37.9345 52.512 38.5825 52.34 39.4705 52.34H41.2945V52.112C41.2945 51.616 41.1505 51.236 40.8625 50.972C40.5745 50.708 40.1505 50.576 39.5905 50.576C39.2145 50.576 38.8465 50.64 38.4865 50.768C38.1265 50.888 37.8225 51.052 37.5745 51.26L37.0945 50.396C37.4225 50.132 37.8145 49.932 38.2705 49.796C38.7265 49.652 39.2105 49.58 39.7225 49.58ZM39.4585 55.184C39.8985 55.184 40.2785 55.088 40.5985 54.896C40.9185 54.696 41.1505 54.416 41.2945 54.056V53.168H39.5185C38.5425 53.168 38.0545 53.496 38.0545 54.152C38.0545 54.472 38.1785 54.724 38.4265 54.908C38.6745 55.092 39.0185 55.184 39.4585 55.184ZM45.6823 50.708C45.8823 50.34 46.1783 50.06 46.5703 49.868C46.9623 49.676 47.4383 49.58 47.9983 49.58V50.696C47.9343 50.688 47.8463 50.684 47.7343 50.684C47.1103 50.684 46.6183 50.872 46.2583 51.248C45.9063 51.616 45.7303 52.144 45.7303 52.832V56H44.5783V49.64H45.6823V50.708ZM51.289 56.072C50.769 56.072 50.269 56.004 49.789 55.868C49.309 55.724 48.933 55.544 48.661 55.328L49.141 54.416C49.421 54.616 49.761 54.776 50.161 54.896C50.561 55.016 50.965 55.076 51.373 55.076C52.381 55.076 52.885 54.788 52.885 54.212C52.885 54.02 52.817 53.868 52.681 53.756C52.545 53.644 52.373 53.564 52.165 53.516C51.965 53.46 51.677 53.4 51.301 53.336C50.789 53.256 50.369 53.164 50.041 53.06C49.721 52.956 49.445 52.78 49.213 52.532C48.981 52.284 48.865 51.936 48.865 51.488C48.865 50.912 49.105 50.452 49.585 50.108C50.065 49.756 50.709 49.58 51.517 49.58C51.941 49.58 52.365 49.632 52.789 49.736C53.213 49.84 53.561 49.98 53.833 50.156L53.341 51.068C52.821 50.732 52.209 50.564 51.505 50.564C51.017 50.564 50.645 50.644 50.389 50.804C50.133 50.964 50.005 51.176 50.005 51.44C50.005 51.648 50.077 51.812 50.221 51.932C50.365 52.052 50.541 52.14 50.749 52.196C50.965 52.252 51.265 52.316 51.649 52.388C52.161 52.476 52.573 52.572 52.885 52.676C53.205 52.772 53.477 52.94 53.701 53.18C53.925 53.42 54.037 53.756 54.037 54.188C54.037 54.764 53.789 55.224 53.293 55.568C52.805 55.904 52.137 56.072 51.289 56.072Z" fill="white"/>
</svg>
