<svg width="76" height="76" viewBox="0 0 76 76" fill="none" xmlns="http://www.w3.org/2000/svg">
<circle cx="38" cy="38" r="38" fill="#00ADAC"/>
<path d="M29.2398 23.064C31.9838 23.064 34.1304 23.904 35.6798 25.584C37.2291 27.2453 38.0038 29.644 38.0038 32.78C38.0038 35.0013 37.5838 36.9053 36.7438 38.492C35.9224 40.0787 34.7558 41.2827 33.2438 42.104C31.7318 42.9253 29.9864 43.336 28.0078 43.336C26.9624 43.336 25.9638 43.224 25.0118 43C24.0598 42.7573 23.2478 42.4213 22.5758 41.992L24.2558 38.66C25.2078 39.3133 26.4304 39.64 27.9238 39.64C29.5851 39.64 30.9011 39.1547 31.8718 38.184C32.8424 37.1947 33.3651 35.776 33.4398 33.928C32.2638 35.104 30.6398 35.692 28.5678 35.692C27.3171 35.692 26.1784 35.44 25.1518 34.936C24.1251 34.432 23.3131 33.7227 22.7158 32.808C22.1184 31.8747 21.8198 30.8013 21.8198 29.588C21.8198 28.2813 22.1464 27.1333 22.7998 26.144C23.4531 25.1547 24.3398 24.3987 25.4598 23.876C26.5984 23.3347 27.8584 23.064 29.2398 23.064ZM29.5758 32.304C30.5651 32.304 31.3678 32.0333 31.9838 31.492C32.6184 30.932 32.9358 30.2227 32.9358 29.364C32.9358 28.5053 32.6278 27.8053 32.0118 27.264C31.4144 26.7227 30.5838 26.452 29.5198 26.452C28.5491 26.452 27.7558 26.7133 27.1398 27.236C26.5424 27.7587 26.2438 28.468 26.2438 29.364C26.2438 30.26 26.5424 30.9787 27.1398 31.52C27.7558 32.0427 28.5678 32.304 29.5758 32.304ZM46.8999 30.764C49.6626 30.764 51.6972 31.3147 53.0039 32.416C54.3292 33.5173 54.9919 34.992 54.9919 36.84C54.9919 38.0347 54.6932 39.1267 54.0959 40.116C53.4986 41.0867 52.5839 41.8707 51.3519 42.468C50.1386 43.0467 48.6359 43.336 46.8439 43.336C45.4626 43.336 44.0999 43.1587 42.7559 42.804C41.4306 42.4307 40.3012 41.908 39.3679 41.236L41.1599 37.764C41.9066 38.324 42.7652 38.7627 43.7359 39.08C44.7066 39.3787 45.7052 39.528 46.7319 39.528C47.8706 39.528 48.7666 39.304 49.4199 38.856C50.0732 38.408 50.3999 37.7827 50.3999 36.98C50.3999 36.14 50.0546 35.5053 49.3639 35.076C48.6919 34.6467 47.5159 34.432 45.8359 34.432H40.8239L41.8319 23.4H53.7879V27.04H45.6119L45.3039 30.764H46.8999Z" fill="white"/>
<path d="M35.6503 52.136C35.0343 52.136 34.5303 51.928 34.1383 51.512C33.7543 51.088 33.5623 50.524 33.5623 49.82C33.5623 49.116 33.7543 48.556 34.1383 48.14C34.5303 47.716 35.0343 47.504 35.6503 47.504C36.2663 47.504 36.7663 47.716 37.1503 48.14C37.5343 48.556 37.7263 49.116 37.7263 49.82C37.7263 50.524 37.5343 51.088 37.1503 51.512C36.7663 51.928 36.2663 52.136 35.6503 52.136ZM40.6543 47.6H42.0823L36.3463 56H34.9183L40.6543 47.6ZM35.6503 51.152C35.9223 51.152 36.1343 51.04 36.2863 50.816C36.4463 50.592 36.5263 50.26 36.5263 49.82C36.5263 49.38 36.4463 49.048 36.2863 48.824C36.1343 48.6 35.9223 48.488 35.6503 48.488C35.3863 48.488 35.1743 48.604 35.0143 48.836C34.8543 49.06 34.7743 49.388 34.7743 49.82C34.7743 50.252 34.8543 50.584 35.0143 50.816C35.1743 51.04 35.3863 51.152 35.6503 51.152ZM41.3503 56.096C40.9503 56.096 40.5903 56.004 40.2703 55.82C39.9583 55.628 39.7143 55.356 39.5383 55.004C39.3623 54.652 39.2743 54.244 39.2743 53.78C39.2743 53.316 39.3623 52.908 39.5383 52.556C39.7143 52.204 39.9583 51.936 40.2703 51.752C40.5903 51.56 40.9503 51.464 41.3503 51.464C41.9663 51.464 42.4663 51.676 42.8503 52.1C43.2423 52.516 43.4383 53.076 43.4383 53.78C43.4383 54.484 43.2423 55.048 42.8503 55.472C42.4663 55.888 41.9663 56.096 41.3503 56.096ZM41.3503 55.112C41.6223 55.112 41.8343 55 41.9863 54.776C42.1463 54.544 42.2263 54.212 42.2263 53.78C42.2263 53.348 42.1463 53.02 41.9863 52.796C41.8343 52.564 41.6223 52.448 41.3503 52.448C41.0863 52.448 40.8743 52.56 40.7143 52.784C40.5543 53.008 40.4743 53.34 40.4743 53.78C40.4743 54.22 40.5543 54.552 40.7143 54.776C40.8743 55 41.0863 55.112 41.3503 55.112Z" fill="white"/>
</svg>
