<svg width="76" height="76" viewBox="0 0 76 76" fill="none" xmlns="http://www.w3.org/2000/svg">
<circle cx="38" cy="38" r="38" fill="#00ADAC"/>
<path d="M43.0133 43.8H33.9133L32.1773 48H27.5292L36.2653 28.4H40.7453L49.5093 48H44.7493L43.0133 43.8ZM41.5853 40.356L38.4773 32.852L35.3693 40.356H41.5853ZM35.6773 26.664C35.1173 26.664 34.6506 26.4867 34.2773 26.132C33.9039 25.7587 33.7173 25.292 33.7173 24.732C33.7173 24.172 33.9039 23.7147 34.2773 23.36C34.6506 22.9867 35.1173 22.8 35.6773 22.8C36.2373 22.8 36.6946 22.9867 37.0493 23.36C37.4226 23.7147 37.6093 24.172 37.6093 24.732C37.6093 25.292 37.4226 25.7587 37.0493 26.132C36.6946 26.4867 36.2373 26.664 35.6773 26.664ZM41.3333 26.664C40.7733 26.664 40.3066 26.4867 39.9333 26.132C39.5786 25.7587 39.4013 25.292 39.4013 24.732C39.4013 24.172 39.5786 23.7147 39.9333 23.36C40.3066 22.9867 40.7733 22.8 41.3333 22.8C41.8933 22.8 42.3599 22.9867 42.7333 23.36C43.1066 23.7147 43.2933 24.172 43.2933 24.732C43.2933 25.292 43.1066 25.7587 42.7333 26.132C42.3599 26.4867 41.8933 26.664 41.3333 26.664Z" fill="white"/>
</svg>
