<svg width="77" height="76" viewBox="0 0 77 76" fill="none" xmlns="http://www.w3.org/2000/svg">
<circle cx="38.5" cy="38" r="38" fill="#00ADAC"/>
<g clip-path="url(#clip0)">
<path fill-rule="evenodd" clip-rule="evenodd" d="M40.6667 48.1111C36.7622 48.1111 33.3867 45.9022 31.7067 42.6667H40.6667V39.5556H30.68C30.6022 39.0422 30.5556 38.5289 30.5556 38C30.5556 37.4711 30.6022 36.9578 30.68 36.4444H40.6667V33.3333H31.7067C33.3867 30.0978 36.7778 27.8889 40.6667 27.8889C43.1711 27.8889 45.4733 28.8067 47.2467 30.3311L50 27.5778C47.5267 25.3533 44.2444 24 40.6667 24C34.5689 24 29.4044 27.9044 27.4756 33.3333H22V36.4444H26.76C26.6978 36.9578 26.6667 37.4711 26.6667 38C26.6667 38.5289 26.6978 39.0422 26.76 39.5556H22V42.6667H27.4756C29.4044 48.0956 34.5689 52 40.6667 52C44.26 52 47.5267 50.6467 50 48.4222L47.2311 45.6689C45.4733 47.1933 43.1867 48.1111 40.6667 48.1111Z" fill="white"/>
</g>
<defs>
<clipPath id="clip0">
<rect width="28" height="28" fill="white" transform="translate(22 24)"/>
</clipPath>
</defs>
</svg>
