<svg width="40" height="40" viewBox="0 0 40 40" fill="none" xmlns="http://www.w3.org/2000/svg">
<path fill-rule="evenodd" clip-rule="evenodd" d="M20 0C8.95667 0 0 8.95333 0 20C0 31.045 8.95667 40 20 40C31.045 40 40 31.045 40 20C40 8.95333 31.045 0 20 0ZM20 9.16667C13.5567 9.16667 8.33333 14.0033 8.33333 19.9683C8.33333 23.3683 10.03 26.4017 12.6817 28.3817V32.5L16.6533 30.32C17.7133 30.6133 18.8367 30.7717 20 30.7717C26.4433 30.7717 31.6667 25.935 31.6667 19.9683C31.6667 14.0033 26.4433 9.16667 20 9.16667ZM21.16 23.7133L18.1883 20.545L12.3917 23.7133L18.7683 16.945L21.8117 20.1133L27.5367 16.945L21.16 23.7133Z" fill="#00ADAC"/>
</svg>
