<svg width="77" height="76" viewBox="0 0 77 76" fill="none" xmlns="http://www.w3.org/2000/svg">
<circle cx="38.5" cy="38" r="38" fill="#00ADAC"/>
<path d="M48.4532 29.4762C48.2372 29.26 47.9916 29.1518 47.7177 29.1513C47.6594 29.1513 47.5736 29.1659 47.4577 29.1946L38.8906 31.3148L42.5897 21.298C42.6618 21.1538 42.6982 21.0242 42.6982 20.9086C42.6982 20.6636 42.6041 20.4509 42.4168 20.2706C42.2294 20.09 41.9985 20 41.7247 20H34.6286C34.3979 20 34.1961 20.0648 34.0229 20.1946C33.8498 20.3245 33.7343 20.4905 33.6767 20.6922L29.3283 38.5409C29.256 38.8868 29.3498 39.1681 29.6095 39.3847C29.7969 39.5437 30.0202 39.6226 30.2799 39.6226C30.3954 39.6226 30.4819 39.6158 30.5396 39.6013L39.3231 37.416L35.0612 54.8969C35.0036 55.1276 35.0359 55.3439 35.1587 55.5457C35.2814 55.7479 35.4654 55.8848 35.7104 55.9569C35.8546 55.9855 35.9559 55.9999 36.0134 55.9999C36.4317 55.9999 36.7344 55.82 36.9221 55.4592L48.6046 30.428C48.7634 30.0819 48.7133 29.7645 48.4532 29.4762Z" fill="white"/>
</svg>
