<svg width="77" height="76" viewBox="0 0 77 76" fill="none" xmlns="http://www.w3.org/2000/svg">
<circle cx="38.5" cy="38" r="38" fill="#00ADAC"/>
<path d="M30.1297 30.2672C29.8727 30.3273 30.0367 30.3164 29.8234 30.3438C28.9102 30.5406 29.5883 30.7156 30.1297 30.2672ZM46.1914 30.6336C46.257 30.5898 46.4867 30.3656 45.7703 30.1469C45.8141 30.3711 45.6227 30.3492 45.6227 30.475C46.1531 30.9563 46.3719 31.793 47.05 31.968C47.1813 31.3664 46.4484 31.0711 46.1914 30.6336ZM29.643 30.0922C29.725 30.5789 30.0914 29.5781 30.0969 29.2227C29.9547 29.3047 29.8125 29.3867 29.6648 29.4523C30.0094 29.6273 29.7086 29.8133 29.3367 30.0922C28.582 31.0328 30.0422 29.3594 29.643 30.0922ZM39 24C31.2672 24 25 30.2672 25 38C25 45.7273 31.2672 52 39 52C46.7328 52 53 45.7273 53 38C53 30.2672 46.7328 24 39 24ZM39.3719 28.6922L39.4375 28.7141C39.175 29.0531 40.8047 30.043 39.6344 30.125C38.5406 30.4367 40.0938 29.8406 39.2461 29.9445C39.6945 29.3211 38.8906 29.3102 39.3719 28.6922ZM32.7328 29.5891C32.3391 29.2609 31.1031 30.0375 31.5352 29.8516C32.607 29.4305 31.6063 29.8953 31.8578 30.3984C31.6281 30.8742 31.7812 29.9281 31.2125 30.4914C30.8023 30.5844 29.7961 31.5141 29.9219 31.2297C29.8891 31.6727 28.7242 32.1977 28.5656 32.9359C28.1828 33.9586 28.4727 32.8977 28.4016 32.4984C27.8547 31.8039 26.8594 33.6742 27.1547 34.4125C27.6523 33.5375 27.6141 34.3195 27.2531 34.7078C27.6195 35.3805 26.9195 36.2555 27.6141 36.7531C27.9203 36.8242 28.5328 35.725 28.2648 36.868C28.4508 35.8781 28.7789 37.1031 29.3094 36.8297C29.3422 37.3492 29.6648 37.1086 29.7359 37.7375C30.6219 37.6719 31.4313 39.1703 30.3758 39.4547C30.5344 39.4109 30.8461 39.6898 31.207 39.4766C31.8195 39.9633 33.4328 40.0234 33.4766 41.2266C32.3664 41.757 33.2031 43.2117 32.2406 43.7312C31.1359 43.5672 31.8633 45.093 31.3984 44.918C31.5844 46.0172 30.2828 44.7758 30.7859 45.3828C31.7102 45.9516 30.3812 45.8367 30.7969 46.2523C30.332 46.1539 31.0867 47.1164 31.2125 47.4719C31.8797 48.5547 30.6383 47.2313 30.2719 46.8703C29.9219 46.1703 29.0961 44.8305 28.8664 43.7312C28.7352 42.1344 27.4992 41.0625 27.2148 39.5039C26.9305 38.6344 27.9969 37.2398 27.4227 36.7531C26.925 36.3648 27.1273 35.0359 26.832 34.3359C27.5703 31.1367 29.9164 28.4406 32.7328 26.8438C32.443 27.057 34.3898 26.2914 34.1656 26.4773C34.1055 26.6141 35.3031 25.9578 36.025 25.8594C35.9484 25.8703 34.1492 26.5156 34.6469 26.4281C33.8758 26.8055 34.5703 26.5922 34.9531 26.4008C34.1875 26.9641 33.5969 26.8055 32.7273 27.3031C31.8523 27.5328 32.0328 28.4406 31.4094 28.8945C31.7758 28.9602 32.6945 27.9484 33.2305 27.593C34.4609 26.9969 32.607 28.6758 33.7773 27.9539C33.3836 28.3203 33.4656 28.9055 33.225 29.0695C33.1047 29.0367 33.7008 29.3539 32.7328 29.5891ZM34.6469 27.0734C34.5211 27.243 34.3461 27.6094 34.2422 27.3852C34.1 27.4563 34.0453 27.7625 33.7773 27.5164C33.9359 27.4016 34.1 27.1281 33.7883 27.2977C33.9305 27.1445 35.1992 26.7125 35.1281 26.5484C35.3523 26.4062 35.3305 26.3352 35.0734 26.4227C34.9422 26.3789 35.3852 26.007 35.9758 25.9578C36.0578 25.9578 36.0906 26.0125 35.943 25.9961C35.0516 26.2695 35.4344 26.193 36.0359 25.9961C35.8063 26.1273 35.6477 26.1656 35.6094 26.2258C36.2109 26.007 35.5766 26.3844 35.7133 26.357C35.5437 26.4445 35.7406 26.4719 35.4125 26.5977C35.4727 26.5484 34.8766 26.9531 35.232 26.8328C34.8875 27.1609 34.7344 27.1664 34.6469 27.0734ZM35.1719 27.8555C35.1828 27.3305 35.9375 26.9969 35.8445 26.9695C36.7742 26.532 35.5219 26.9859 36.2547 26.5922C36.5281 26.5648 37.1078 25.6898 37.9117 25.6352C38.7977 25.3672 38.3875 25.6516 39.0437 25.4L38.9125 25.5094C38.7977 25.5258 38.9398 25.7281 38.5242 26.0344C38.4805 26.5102 37.7313 26.2914 38.1031 26.8C37.8625 26.4555 37.5016 26.7891 37.9555 26.8219C37.4688 27.1937 36.3367 27.2594 35.7953 27.8773C35.4453 28.3805 35.1227 28.2219 35.1719 27.8555ZM39.0602 29.6055C38.6883 30.5023 38.3273 29.4742 38.9836 29.3102C39.1477 29.3977 39.2133 29.425 39.0602 29.6055ZM37.6602 27.8117C37.5508 27.407 37.6383 27.6203 38.2891 27.4289C38.7375 27.7516 37.8898 27.9648 37.6602 27.8117ZM47.843 43.8625C47.3289 42.9766 48.4664 42.1562 48.8492 41.4125C48.8 42.282 48.6906 43.1406 47.843 43.8625ZM49.7789 33.7398C49.2211 33.7836 48.718 33.9148 48.2148 33.5977C47.0555 32.3289 48.4281 35.0305 48.8109 33.9258C50.1891 34.4508 48.7891 36.7148 47.9195 36.4797C47.4328 35.4297 46.8312 34.2758 45.7703 33.7617C46.5852 34.6641 46.9898 35.7742 47.8648 36.5891C47.925 37.7266 49.0789 36.1734 49.0078 37.0539C49.1172 38.5687 47.2961 39.4766 47.6133 40.9969C48.2914 42.3805 46.3063 42.632 46.5305 43.8734C45.732 44.7648 44.8789 45.968 43.4461 45.7766C43.4461 45.0219 43.0633 44.382 42.9758 43.6055C42.1992 42.6211 43.7961 41.5656 42.8062 40.5375C41.6633 40.2805 43.0414 38.7055 41.8656 38.8531C41.1602 38.1477 40.1266 38.8312 39.1148 38.8367C37.8461 38.957 36.5391 37.2781 37.1023 36.0914C36.6539 34.8555 38.5242 34.4945 38.5734 33.4062C39.4703 32.657 40.7445 32.75 41.9586 32.575C41.8711 33.4445 42.7898 33.45 43.4844 33.7398C43.8727 32.7992 45.0812 33.893 45.907 33.2969C46.1914 31.9078 45.1031 32.7445 44.4797 32.3016C43.725 31.1969 46.093 31.7328 45.8469 31.1531C44.9281 31.1477 45.4477 30.0211 44.7969 30.65C45.382 30.7539 44.693 31.2133 44.7094 30.6883C43.8234 30.4313 44.6766 31.6945 44.2281 31.8148C43.5445 31.5305 43.8672 32.1375 43.9383 32.2305C43.643 32.8703 43.282 31.2898 42.4453 31.3336C41.6141 30.5734 42.1172 31.6781 42.8391 31.8586C42.6859 31.9023 42.9266 32.5312 42.7352 32.2633C42.1391 31.443 41.007 30.8961 40.3344 31.9023C40.2633 32.843 38.3492 33.1109 38.6555 32.0117C38.207 30.8742 40.0445 31.9789 39.875 31.0711C38.6938 30.2891 40.1977 30.5406 40.5969 29.8078C41.5047 29.8352 40.6352 29.0641 41.0617 28.8398C41.018 29.6766 41.7563 29.518 42.3414 29.3594C42.1992 28.8781 42.6914 28.8945 42.3906 28.4953C43.7469 27.9539 41.357 28.7469 41.8383 27.5602C41.2531 27.1555 41.5922 28.4516 41.8383 28.5883C41.8547 28.9875 41.5156 29.4797 41.0508 28.643C40.3727 29.0859 40.4438 28.1945 40.4 28.2875C40.3234 27.943 40.9141 27.9266 40.9195 27.325C40.8703 26.9422 40.8812 26.7398 41.1547 26.718C41.1766 26.7727 42.2758 26.7891 42.6641 27.243C41.6031 27.0297 42.5055 27.418 42.9812 27.6367C42.4727 27.2375 43.1836 27.6367 42.768 27.1828C42.932 27.2156 42.3141 26.5594 42.9484 27.1336C42.6039 26.7234 43.6211 26.8438 43.0195 26.5375C43.9 26.7836 43.3805 26.5594 42.8609 26.3352C41.4281 25.482 45.393 27.4891 43.7742 26.5977C44.8078 26.8219 41.5648 25.7992 43.0414 26.2477C42.4781 26.0016 43.025 26.1383 43.5336 26.2969C42.6203 26.0125 41.2531 25.482 41.3078 25.4602C41.625 25.482 41.9367 25.5531 42.2375 25.6406C43.1727 25.9195 41.9695 25.575 42.2266 25.5805C45.4422 26.4062 48.2586 28.5609 49.9703 31.3773C50.3695 31.7984 51.4578 34.582 50.8891 33.3461C51.1461 34.3305 51.1844 35.3914 51.3211 36.3977C51.0367 36.0805 50.7195 34.9102 50.4461 34.2594C50.3312 34.5109 50.2 33.9039 49.7789 33.7398Z" fill="white"/>
</svg>
