<svg width="126" height="100" viewBox="0 0 126 100" fill="none" xmlns="http://www.w3.org/2000/svg">
<path d="M36.7328 0.199985C42.5995 0.199985 47.3995 2.19998 51.1328 6.19998C55.1328 10.2 57.1328 15.1333 57.1328 21C57.1328 24.4666 56.5995 27.6667 55.5328 30.6C54.4662 33.5333 52.5995 37.4 49.9328 42.2L19.5328 99.8H0.332816L25.5328 41.4C22.0662 39.8 19.2662 37.4 17.1328 34.2C15.2662 30.7333 14.3328 27 14.3328 23C14.3328 16.6 16.4662 11.2667 20.7328 6.99999C25.2661 2.46665 30.5995 0.199985 36.7328 0.199985ZM104.733 0.199985C110.599 0.199985 115.399 2.19998 119.133 6.19998C123.133 10.2 125.133 15.1333 125.133 21C125.133 24.4666 124.599 27.6667 123.533 30.6C122.466 33.5333 120.599 37.4 117.933 42.2L87.5328 99.8H68.3328L93.5328 41.4C90.0662 39.8 87.2662 37.4 85.1328 34.2C83.2662 30.7333 82.3328 27 82.3328 23C82.3328 16.6 84.4662 11.2667 88.7328 6.99999C93.2662 2.46665 98.5995 0.199985 104.733 0.199985Z" fill="#004A4A"/>
</svg>
