<svg width="126" height="100" viewBox="0 0 126 100" fill="none" xmlns="http://www.w3.org/2000/svg">
<path d="M32.3328 58.6C35.7995 60.2 38.4661 62.7333 40.3328 66.2C42.4661 69.4 43.5328 73 43.5328 77C43.5328 83.4 41.2661 88.8667 36.7328 93.4C32.4662 97.6667 27.2662 99.8 21.1328 99.8C15.2662 99.8 10.3328 97.9333 6.33281 94.2C2.59948 90.2 0.732814 85.2667 0.732814 79.4C0.732814 75.9333 1.26615 72.7333 2.33281 69.8C3.39948 66.8666 5.26615 63 7.93281 58.2L38.7328 0.199983H57.9328L32.3328 58.6ZM100.333 58.6C103.799 60.2 106.466 62.7333 108.333 66.2C110.466 69.4 111.533 73 111.533 77C111.533 83.4 109.266 88.8667 104.733 93.4C100.466 97.6667 95.2662 99.8 89.1328 99.8C83.2662 99.8 78.3328 97.9333 74.3328 94.2C70.5995 90.2 68.7328 85.2667 68.7328 79.4C68.7328 75.9333 69.2662 72.7333 70.3328 69.8C71.3995 66.8666 73.2661 63 75.9328 58.2L106.733 0.199983H125.933L100.333 58.6Z" fill="#004A4A"/>
</svg>
