<svg width="77" height="76" viewBox="0 0 77 76" fill="none" xmlns="http://www.w3.org/2000/svg">
<circle cx="38.5" cy="38" r="38" fill="#00ADAC"/>
<path d="M57.9924 47.3093C57.9114 44.7219 57.1933 41.6048 55.9714 38.5324C54.7495 35.4572 53.1621 32.775 51.5014 30.9802C49.7157 29.0497 48.0075 28.3428 46.6853 28.9828C46.6746 28.9876 46.6634 28.9895 46.6527 28.9948L45.1018 29.7729V25.6867C45.1018 25.6809 45.1026 25.6751 45.1026 25.6693C45.1026 22.4372 40.1369 20 33.5517 20C26.9802 20 22.0223 22.4276 22.0017 25.6496C22.0017 25.6564 22 25.6626 22 25.6698V32.9742C22 33.0127 22.0047 33.0503 22.0103 33.0868C22.0047 33.1239 22 33.1609 22 33.1994C22 33.2654 22.0051 33.3298 22.0094 33.3948C22.0047 33.4294 22 33.4636 22 33.4997V40.8041C22 40.8431 22.0047 40.8806 22.0103 40.9177C22.0047 40.9547 22 40.9923 22 41.0312C22 41.1135 22.0056 41.1948 22.0116 41.2757C22.0043 41.318 22 41.3618 22 41.4066V48.711C22 48.7495 22.0047 48.787 22.0103 48.8236C22.0047 48.8606 22 48.8977 22 48.9362C22 52.1678 26.9665 54.6046 33.5526 54.6046C37.7364 54.6046 41.5491 53.5325 43.5559 51.8377C45.352 54.4564 47.2843 56 48.9025 56C49.2714 56 49.6249 55.9201 49.9556 55.7541L56.0545 52.6942C56.0605 52.6914 56.067 52.6894 56.073 52.6865C57.399 52.022 58.0806 50.1122 57.9924 47.3093ZM40.7166 31.9729L40.5315 32.0643C39.2578 32.7038 38.6142 34.4669 38.5928 36.882C37.0547 37.2597 35.3306 37.4681 33.553 37.4681C27.4785 37.4681 23.2455 35.2185 23.2455 33.199C23.2455 33.1605 23.2408 33.1229 23.2352 33.0864C23.2408 33.0493 23.2455 33.0123 23.2455 32.9738V28.3096C25.1169 30.1396 28.9352 31.3387 33.5522 31.3387C38.1678 31.3387 41.9848 30.1405 43.8571 28.3111V30.3975L40.7166 31.9729ZM23.2352 40.9177C23.2408 40.8806 23.2455 40.8431 23.2455 40.8041V35.8392C25.1178 37.6682 28.9361 38.8669 33.553 38.8669C35.3345 38.8669 37.0787 38.6749 38.6472 38.3101C38.7908 40.0862 39.2145 42.1163 39.9201 44.2614C38.0316 44.9481 35.8949 45.2998 33.553 45.2998C27.4785 45.2998 23.2455 43.0503 23.2455 41.0317C23.2455 40.9923 23.2408 40.9547 23.2352 40.9177ZM33.5522 21.3983C39.6202 21.3983 43.8498 23.645 43.8576 25.6641C43.8576 25.666 43.8571 25.6674 43.8571 25.6693V25.6823C43.8391 27.699 39.6125 29.9404 33.5522 29.9404C27.4785 29.9404 23.2463 27.6894 23.2463 25.6693C23.2463 23.6493 27.4785 21.3983 33.5522 21.3983ZM33.553 53.2067C27.4785 53.2067 23.2455 50.9562 23.2455 48.9367C23.2455 48.8982 23.2408 48.8606 23.2352 48.8241C23.2408 48.787 23.2455 48.75 23.2455 48.7115V43.671C25.1178 45.5 28.9361 46.6982 33.553 46.6982C36.056 46.6982 38.3465 46.3137 40.3777 45.5635C40.4596 45.7825 40.544 46.0024 40.6318 46.2228C41.2976 47.8963 42.0461 49.4 42.8331 50.7055C41.0782 52.215 37.4519 53.2067 33.553 53.2067ZM49.6184 54.3899L49.4423 54.4809C47.7975 55.3008 44.2453 51.8786 41.7685 45.6521C39.2942 39.4236 39.3987 34.1647 41.0371 33.3424L45.0221 31.344C44.7967 32.1798 44.696 33.1966 44.7333 34.3731C44.8143 36.9599 45.5323 40.078 46.7547 43.1533C47.9766 46.2271 49.564 48.9078 51.2247 50.7026C51.9817 51.5202 52.7229 52.1101 53.4286 52.4796L49.6184 54.3899ZM55.5678 51.4085C55.567 51.409 55.5657 51.409 55.5648 51.4095L55.5605 51.4114C54.7405 51.8185 53.474 51.1934 52.088 49.695C50.54 48.0219 49.0494 45.4962 47.8918 42.5831C46.7333 39.6685 46.0533 36.7357 45.9775 34.324C45.9098 32.1596 46.3417 30.6833 47.1626 30.2724C47.3284 30.1896 47.5113 30.1487 47.7101 30.1487C48.4985 30.1487 49.5293 30.7892 50.6381 31.9873C52.1861 33.6604 53.6762 36.1871 54.8343 39.1022C55.9928 42.0143 56.6723 44.9467 56.7482 47.3584C56.8163 49.5199 56.3857 50.9957 55.5678 51.4085Z" fill="white"/>
</svg>
