<svg width="77" height="76" viewBox="0 0 77 76" fill="none" xmlns="http://www.w3.org/2000/svg">
<circle cx="38.5" cy="38" r="38" fill="#00ADAC"/>
<path d="M29.9941 24.5C29.1761 24.5 28.5 25.1878 28.5 26.0059V49.9795C28.5 50.7975 29.1761 51.4736 29.9941 51.4736H48.8525C49.6706 51.4736 50.3584 50.7975 50.3584 49.9795V26.0059C50.3584 25.1878 49.6706 24.5 48.8525 24.5H29.9941ZM32.7422 27.9307H46.1074C46.5229 27.9307 46.8574 28.2652 46.8574 28.6807V31.9971C46.8574 32.4126 46.5229 32.7471 46.1074 32.7471H32.7422C32.3267 32.7471 31.9922 32.4126 31.9922 31.9971V28.6807C31.9922 28.2652 32.3267 27.9307 32.7422 27.9307ZM32.9824 35.167H32.9854C33.1909 35.1534 33.3973 35.1903 33.5859 35.2725C34.231 35.5528 34.5333 36.3212 34.2598 36.9658C33.9842 37.6115 33.2085 37.9261 32.5605 37.6455C31.9155 37.3652 31.6132 36.5967 31.8867 35.9521C32.0745 35.5077 32.4991 35.201 32.9824 35.167ZM37.1602 35.167H37.1631C37.3686 35.1534 37.575 35.1903 37.7637 35.2725C38.4088 35.5528 38.711 36.3212 38.4375 36.9658C38.1619 37.6115 37.3863 37.9261 36.7383 37.6455C36.0932 37.3652 35.7909 36.5967 36.0645 35.9521C36.2522 35.5077 36.6768 35.201 37.1602 35.167ZM41.1152 35.167H41.1182C41.32 35.1545 41.5216 35.1925 41.707 35.2725C42.3542 35.5511 42.661 36.3195 42.3867 36.9658C42.1116 37.6115 41.3378 37.9239 40.6904 37.6455H40.6875C40.0411 37.3665 39.7366 36.5981 40.0107 35.9521C40.1998 35.5055 40.6289 35.201 41.1152 35.167ZM45.2373 35.167H45.2402C45.4431 35.1545 45.6459 35.1914 45.832 35.2725C46.4771 35.5528 46.7794 36.3212 46.5059 36.9658C46.2303 37.6115 45.4546 37.9261 44.8066 37.6455C44.1616 37.3652 43.8593 36.5967 44.1328 35.9521C44.3219 35.5055 44.751 35.201 45.2373 35.167ZM33.2168 36.1338C33.042 36.0584 32.8148 36.1506 32.7422 36.3213C32.6716 36.4908 32.7563 36.7088 32.9297 36.7842C32.982 36.8069 33.0396 36.8173 33.0967 36.8135H33.0996C33.2342 36.8038 33.3534 36.7174 33.4043 36.5967C33.4749 36.4272 33.3902 36.2092 33.2168 36.1338ZM37.3945 36.1338C37.2197 36.0584 36.9926 36.1506 36.9199 36.3213C36.8493 36.4908 36.934 36.7088 37.1074 36.7842C37.1597 36.8069 37.2174 36.8173 37.2744 36.8135H37.2773C37.4119 36.8038 37.5311 36.7174 37.582 36.5967C37.6526 36.4272 37.568 36.2092 37.3945 36.1338ZM41.3408 36.1338C41.1664 36.0607 40.9414 36.1518 40.8691 36.3213C40.7973 36.4902 40.8812 36.7076 41.0537 36.7842H41.0566C41.1075 36.8069 41.1625 36.8168 41.2178 36.8135H41.2207C41.3561 36.805 41.4771 36.718 41.5283 36.5967C41.6002 36.4277 41.5162 36.2103 41.3438 36.1338H41.3408ZM45.4629 36.1338C45.288 36.0584 45.0609 36.1506 44.9883 36.3213C44.9177 36.4908 45.0024 36.7088 45.1758 36.7842C45.2274 36.8069 45.2835 36.8169 45.3398 36.8135H45.3428C45.4782 36.805 45.5991 36.718 45.6504 36.5967C45.721 36.4272 45.6363 36.2092 45.4629 36.1338ZM32.9824 38.6182H32.9854C33.1909 38.6046 33.3973 38.6414 33.5859 38.7236C34.231 39.0039 34.5333 39.7724 34.2598 40.417C33.9842 41.0627 33.2085 41.3767 32.5605 41.0967C31.9155 40.8164 31.6132 40.0479 31.8867 39.4033C32.0745 38.9589 32.4991 38.6522 32.9824 38.6182ZM37.1602 38.6182H37.1631C37.3686 38.6046 37.575 38.6414 37.7637 38.7236C38.4088 39.0039 38.711 39.7724 38.4375 40.417C38.1619 41.0627 37.3863 41.3767 36.7383 41.0967C36.0932 40.8164 35.7909 40.0479 36.0645 39.4033C36.2522 38.9589 36.6768 38.6522 37.1602 38.6182ZM41.1152 38.6182H41.1182C41.32 38.6057 41.5216 38.6431 41.707 38.7236C42.3542 39.0023 42.661 39.7706 42.3867 40.417C42.1116 41.0627 41.3378 41.375 40.6904 41.0967H40.6875C40.0411 40.8176 39.7366 40.0493 40.0107 39.4033C40.1998 38.9566 40.6289 38.6522 41.1152 38.6182ZM45.2373 38.6182H45.2402C45.4431 38.6057 45.6459 38.6426 45.832 38.7236C46.4771 39.0039 46.7794 39.7724 46.5059 40.417C46.2303 41.0627 45.4546 41.3767 44.8066 41.0967C44.1616 40.8164 43.8593 40.0479 44.1328 39.4033C44.3219 38.9566 44.751 38.6522 45.2373 38.6182ZM33.2168 39.585C33.042 39.5096 32.8148 39.6018 32.7422 39.7725C32.6716 39.942 32.7563 40.1599 32.9297 40.2354C32.982 40.258 33.0396 40.2684 33.0967 40.2646H33.0996C33.2342 40.255 33.3534 40.168 33.4043 40.0479C33.4749 39.8778 33.3902 39.6604 33.2168 39.585ZM37.3945 39.585C37.2197 39.5096 36.9926 39.6018 36.9199 39.7725C36.8493 39.942 36.934 40.1599 37.1074 40.2354C37.1597 40.258 37.2174 40.2684 37.2744 40.2646H37.2773C37.4119 40.255 37.5311 40.168 37.582 40.0479C37.6526 39.8778 37.568 39.6604 37.3945 39.585ZM41.3408 39.585C41.1664 39.5118 40.9414 39.6029 40.8691 39.7725C40.7973 39.9414 40.8812 40.1588 41.0537 40.2354H41.0566C41.1075 40.258 41.1625 40.268 41.2178 40.2646H41.2207C41.3561 40.2561 41.4771 40.1692 41.5283 40.0479C41.6002 39.8783 41.5162 39.6615 41.3438 39.585H41.3408ZM45.4629 39.585C45.288 39.5096 45.0609 39.6018 44.9883 39.7725C44.9177 39.942 45.0024 40.1599 45.1758 40.2354C45.2274 40.258 45.2835 40.2681 45.3398 40.2646H45.3428C45.4782 40.2561 45.5991 40.1692 45.6504 40.0479C45.721 39.8778 45.6363 39.6604 45.4629 39.585ZM32.9824 42.1865H32.9854C33.1909 42.1729 33.3973 42.2098 33.5859 42.292C34.231 42.5723 34.5333 43.3408 34.2598 43.9854C33.9842 44.631 33.2085 44.9451 32.5605 44.665C31.9155 44.3847 31.6132 43.6163 31.8867 42.9717C32.0745 42.5273 32.4991 42.2205 32.9824 42.1865ZM37.1602 42.1865H37.1631C37.3686 42.1729 37.575 42.2098 37.7637 42.292C38.4088 42.5723 38.711 43.3408 38.4375 43.9854C38.1619 44.631 37.3863 44.9451 36.7383 44.665C36.0932 44.3847 35.7909 43.6163 36.0645 42.9717C36.2522 42.5273 36.6768 42.2205 37.1602 42.1865ZM41.1152 42.1865H41.1182C41.32 42.1741 41.5216 42.2121 41.707 42.292C42.3542 42.5706 42.661 43.339 42.3867 43.9854C42.1116 44.631 41.3378 44.9434 40.6904 44.665H40.6875C40.0411 44.386 39.7366 43.6176 40.0107 42.9717C40.1998 42.525 40.6289 42.2205 41.1152 42.1865ZM45.2373 42.1865H45.2402C45.4431 42.1741 45.6459 42.2109 45.832 42.292C46.4771 42.5723 46.7794 43.3408 46.5059 43.9854C46.2303 44.631 45.4546 44.9451 44.8066 44.665C44.1616 44.3847 43.8593 43.6163 44.1328 42.9717C44.3219 42.525 44.751 42.2205 45.2373 42.1865ZM33.2168 43.1533C33.042 43.0779 32.8148 43.1702 32.7422 43.3408C32.6716 43.5109 32.7563 43.7283 32.9297 43.8037C32.982 43.8264 33.0396 43.8368 33.0967 43.833H33.0996C33.2342 43.8234 33.3534 43.737 33.4043 43.6162C33.4749 43.4461 33.3902 43.2287 33.2168 43.1533ZM37.3945 43.1533C37.2197 43.0779 36.9926 43.1702 36.9199 43.3408C36.8493 43.5109 36.934 43.7283 37.1074 43.8037C37.1597 43.8264 37.2174 43.8368 37.2744 43.833H37.2773C37.4119 43.8234 37.5311 43.737 37.582 43.6162C37.6526 43.4461 37.568 43.2287 37.3945 43.1533ZM41.3408 43.1533C41.1664 43.0802 40.9414 43.1713 40.8691 43.3408C40.7973 43.5103 40.8812 43.7272 41.0537 43.8037H41.0566C41.1075 43.8264 41.1625 43.8364 41.2178 43.833H41.2207C41.3561 43.8245 41.4771 43.7375 41.5283 43.6162C41.6002 43.4467 41.5162 43.2299 41.3438 43.1533H41.3408ZM45.4629 43.1533C45.288 43.0779 45.0609 43.1702 44.9883 43.3408C44.9177 43.5109 45.0024 43.7283 45.1758 43.8037C45.2274 43.8264 45.2835 43.8364 45.3398 43.833H45.3428C45.4782 43.8245 45.5991 43.7375 45.6504 43.6162C45.721 43.4461 45.6363 43.2287 45.4629 43.1533ZM32.9824 45.9834H32.9854C33.1909 45.9698 33.3973 46.0067 33.5859 46.0889C34.231 46.3691 34.5333 47.1376 34.2598 47.7822C33.9842 48.4279 33.2085 48.742 32.5605 48.4619C31.9155 48.1816 31.6132 47.4132 31.8867 46.7686C32.0745 46.3241 32.4991 46.0174 32.9824 45.9834ZM37.1602 45.9834H37.1631H37.1689C37.3708 45.9709 37.5724 46.0084 37.7578 46.0889C38.405 46.3675 38.7118 47.1359 38.4375 47.7822C38.1619 48.4279 37.3863 48.742 36.7383 48.4619C36.0932 48.1816 35.7909 47.4132 36.0645 46.7686C36.2522 46.3241 36.6768 46.0174 37.1602 45.9834ZM41.1152 45.9834H41.1182C41.32 45.9709 41.5216 46.0084 41.707 46.0889C42.3542 46.3675 42.661 47.1359 42.3867 47.7822C42.1116 48.4279 41.3378 48.7403 40.6904 48.4619H40.6875C40.0411 48.1829 39.7366 47.4145 40.0107 46.7686C40.1998 46.3218 40.6289 46.0174 41.1152 45.9834ZM45.2373 45.9834H45.2402C45.4431 45.9709 45.6459 46.0078 45.832 46.0889C46.4771 46.3691 46.7794 47.1376 46.5059 47.7822C46.2303 48.4279 45.4546 48.742 44.8066 48.4619C44.1616 48.1816 43.8593 47.4132 44.1328 46.7686C44.3219 46.3218 44.751 46.0174 45.2373 45.9834ZM33.2168 46.9502C33.042 46.8748 32.8148 46.967 32.7422 47.1377C32.6716 47.3072 32.7563 47.5252 32.9297 47.6006C32.982 47.6233 33.0396 47.6337 33.0967 47.6299H33.0996C33.2342 47.6202 33.3534 47.5338 33.4043 47.4131C33.4749 47.2436 33.3902 47.0256 33.2168 46.9502ZM37.3945 46.9502C37.2197 46.8748 36.9926 46.967 36.9199 47.1377C36.848 47.3066 36.932 47.524 37.1045 47.6006H37.1074C37.1583 47.6233 37.2133 47.6333 37.2686 47.6299H37.2773C37.4119 47.6202 37.5311 47.5338 37.582 47.4131C37.6526 47.2436 37.568 47.0256 37.3945 46.9502ZM41.3408 46.9502C41.1664 46.8771 40.9414 46.9682 40.8691 47.1377C40.7973 47.3066 40.8812 47.524 41.0537 47.6006H41.0566C41.1075 47.6233 41.1625 47.6333 41.2178 47.6299H41.2207C41.3561 47.6214 41.4771 47.5344 41.5283 47.4131C41.6002 47.2441 41.5162 47.0267 41.3438 46.9502H41.3408ZM45.4629 46.9502C45.288 46.8748 45.0609 46.967 44.9883 47.1377C44.9177 47.3072 45.0024 47.5252 45.1758 47.6006C45.2274 47.6233 45.2835 47.6333 45.3398 47.6299H45.3428C45.4782 47.6214 45.5991 47.5344 45.6504 47.4131C45.721 47.2436 45.6363 47.0256 45.4629 46.9502Z" fill="white"/>
</svg>
