<svg width="53" height="54" viewBox="0 0 53 54" fill="none" xmlns="http://www.w3.org/2000/svg">
<path d="M43.8485 35.5366C43.7567 35.3392 43.665 35.1409 43.5766 34.9418L42.0124 35.6496C42.1058 35.8582 42.201 36.0642 42.2971 36.2711C42.4154 36.5237 42.5192 36.7824 42.6307 37.0384L41.2208 37.8014C35.3385 40.9842 30.5625 46.0602 27.6886 52.1191H25.3114C22.4375 46.0602 17.6615 40.9842 11.7792 37.8005L10.3693 37.0375C10.4808 36.7815 10.5846 36.5229 10.7029 36.2703C10.799 36.0634 10.895 35.8565 10.9876 35.6478L9.42337 34.9409C9.33418 35.1409 9.24327 35.3392 9.15065 35.5366C7.0358 40.0549 5.91748 45.0826 5.91748 50.0768V53.8433H47.0825V50.0768C47.0825 45.0826 45.9642 40.0549 43.8485 35.5366ZM7.63269 50.0768C7.63269 46.1913 8.35651 42.2886 9.71924 38.6436L10.9662 39.3186C16.2859 42.1981 20.6417 46.7189 23.3912 52.1191H7.63269V50.0768ZM45.3673 52.1191H29.6088C32.3583 46.7189 36.7141 42.1981 42.0329 39.3186L43.2799 38.6436C44.6426 42.2886 45.3673 46.1913 45.3673 50.0768V52.1191Z" fill="#6D4B4F"/>
<path d="M3.93407 19.1459L3.0874 17.671C4.55562 16.7649 6.27791 15.9541 8.20629 15.2617L8.74756 16.8833C6.92595 17.538 5.30628 18.2999 3.93407 19.1459Z" fill="#6D4B4F"/>
<path d="M49.27 19.4033C47.5883 18.3632 45.5542 17.4487 43.2233 16.6874L43.7518 15.002C46.2128 15.8057 48.3719 16.7768 50.1699 17.8896L49.27 19.4033Z" fill="#6D4B4F"/>
<path d="M5.69147 37.7882C3.53243 36.7955 1.7036 35.6593 0.257263 34.4111L1.40736 33.1279C2.73084 34.2693 4.42114 35.3167 6.43207 36.241L5.69147 37.7882Z" fill="#6D4B4F"/>
<path d="M47.3087 37.7882L46.5679 36.2408C48.5794 35.3154 50.2693 34.2686 51.5923 33.1279L52.7427 34.4113C51.2977 35.6597 49.4684 36.7953 47.3087 37.7882Z" fill="#6D4B4F"/>
<path d="M26.5 27.9492C26.0732 27.9492 25.7281 27.5722 25.7281 27.1077V25.4246C25.7281 24.96 26.0732 24.583 26.5 24.583C26.9268 24.583 27.2719 24.96 27.2719 25.4246V27.1077C27.2719 27.5722 26.9268 27.9492 26.5 27.9492Z" fill="#6D4B4F"/>
<path d="M39.5448 17.3725L39.3739 17.333C39.3422 17.975 39.3226 18.6188 39.3226 19.2634C39.3226 20.3231 39.367 21.3794 39.4517 22.4314C45.6544 23.8401 47.871 25.8376 47.871 27.1337C47.871 28.6377 45.4176 30.2321 41.2468 31.4018C41.2494 31.4104 41.252 31.4199 41.2554 31.4293H41.1502C37.4385 32.4573 32.3864 33.15 26.5 33.15C20.6179 33.15 15.5692 32.4581 11.8583 31.431H11.7446C11.748 31.4216 11.7506 31.4113 11.7532 31.4018C7.58242 30.2321 5.12903 28.6377 5.12903 27.1337C5.12903 25.8376 7.34563 23.8401 13.5483 22.4314C13.6338 21.3794 13.6774 20.3223 13.6774 19.2634C13.6774 18.6188 13.6578 17.975 13.6261 17.333L13.4552 17.3725C5.03073 19.339 0 22.9884 0 27.1337C0 33.3993 11.6403 38.3069 26.5 38.3069C41.3597 38.3069 53 33.3993 53 27.1337C53 22.9884 47.9693 19.339 39.5448 17.3725Z" fill="#A857A2"/>
<path d="M45.0243 0.501953H7.97571L9.32423 3.46556C11.5967 8.4541 12.7484 13.7627 12.7484 19.2437C12.7484 23.285 12.1089 27.2808 10.8489 31.1187C11.1162 31.2011 11.3895 31.2826 11.6732 31.3615C11.6697 31.371 11.6672 31.3813 11.6646 31.3907H11.7789C12.0109 31.4542 12.2645 31.5126 12.5069 31.5743C12.5266 31.5134 12.543 31.4516 12.5627 31.3907H40.4381C40.4579 31.4516 40.4742 31.5134 40.494 31.5743C40.7398 31.5126 40.9951 31.4534 41.2306 31.389H41.3363C41.3337 31.3804 41.3311 31.371 41.3277 31.3615C41.6105 31.2826 41.8846 31.202 42.1519 31.1187C40.8911 27.2791 40.2516 23.2841 40.2516 19.2437C40.2516 13.7627 41.4033 8.4541 43.6749 3.4647L45.0243 0.501953ZM42.1107 2.75426C39.7359 7.96846 38.5327 13.5156 38.5327 19.2437C38.5327 22.777 39.0071 26.2752 39.9319 29.6747H13.0681C13.9929 26.2761 14.4673 22.7779 14.4673 19.2437C14.4673 13.5164 13.2641 7.96846 10.8893 2.75512L10.6452 2.218H42.3556L42.1107 2.75426Z" fill="#6D4B4F"/>
</svg>
