<svg width="62" height="53" viewBox="0 0 62 53" fill="none" xmlns="http://www.w3.org/2000/svg">
<path d="M24.5507 37.7246H39.7729V39.7101H24.5507V37.7246Z" fill="#A857A2"/>
<path d="M8.66664 4.63297V2.64746C5.92962 2.64746 3.70287 4.87421 3.70287 7.61123V11.7232C1.99533 12.167 0.724609 13.7087 0.724609 15.5533C0.724609 17.3978 1.99533 18.9395 3.70287 19.3833V23.4953C3.70287 26.2323 5.92962 28.4591 8.66664 28.4591V26.4735C7.02462 26.4735 5.68838 25.1373 5.68838 23.4953V7.61123C5.68838 5.96921 7.02462 4.63297 8.66664 4.63297ZM2.71012 15.5533C2.71012 14.8216 3.11218 14.1882 3.70287 13.8437V17.2628C3.11218 16.9183 2.71012 16.2849 2.71012 15.5533Z" fill="#6D4B4F"/>
<path d="M61.6135 15.5533C61.6135 13.7087 60.3428 12.167 58.6352 11.7232V7.61123C58.6352 4.87421 56.4085 2.64746 53.6715 2.64746V4.63297C55.3135 4.63297 56.6497 5.96921 56.6497 7.61123V23.4953C56.6497 25.1373 55.3135 26.4735 53.6715 26.4735V28.4591C56.4085 28.4591 58.6352 26.2323 58.6352 23.4953V19.3833C60.3428 18.9395 61.6135 17.3978 61.6135 15.5533ZM58.6352 17.2628V13.8437C59.2259 14.1882 59.628 14.8216 59.628 15.5533C59.628 16.2849 59.2259 16.9183 58.6352 17.2628Z" fill="#6D4B4F"/>
<path d="M43.8218 12.5101H47.715V10.5376H43.8218V9.55132C43.8218 7.92003 42.5118 6.59252 40.9019 6.59252C40.5175 6.59252 40.1525 6.67241 39.8157 6.8095C39.48 5.55201 38.3548 4.61999 37.0088 4.61999C36.6243 4.61999 36.2594 4.69988 35.9226 4.83697C35.5868 3.57948 34.4617 2.64746 33.1156 2.64746C32.3652 2.64746 31.6868 2.94433 31.1691 3.41675C30.6513 2.94334 29.9729 2.64746 29.2225 2.64746C27.6127 2.64746 26.3026 3.97497 26.3026 5.60626V6.59252H25.4471C23.8558 6.59252 22.3598 7.22077 21.2347 8.36089C20.6167 8.98717 20.1573 9.72983 19.8624 10.5376H14.6232V12.5101H19.4954C19.4945 12.5505 19.4896 12.589 19.4896 12.6294V18.4277H14.6232V20.4002H19.4896V23.3077C19.4896 24.2003 19.7923 25.0751 20.3422 25.7724L23.3828 29.6228V52.947H40.9019V29.5094L42.4368 26.3977C42.7064 25.8523 42.8485 25.2428 42.8485 24.6333V20.4002H47.715V18.4277H43.6427C43.7517 18.118 43.8218 17.7886 43.8218 17.4414V12.5101ZM40.9019 8.56505C41.4382 8.56505 41.8752 9.00788 41.8752 9.55132V17.4414C41.8752 17.9849 41.4382 18.4277 40.9019 18.4277C40.3657 18.4277 39.9286 17.9849 39.9286 17.4414V9.55132C39.9286 9.00788 40.3657 8.56505 40.9019 8.56505ZM37.0088 6.59252C37.5451 6.59252 37.9821 7.03535 37.9821 7.57879V9.55132V17.4414C37.9821 17.9849 37.5451 18.4277 37.0088 18.4277C36.4725 18.4277 36.0355 17.9849 36.0355 17.4414V7.57879C36.0355 7.03535 36.4725 6.59252 37.0088 6.59252ZM33.1156 4.61999C33.6519 4.61999 34.0889 5.06282 34.0889 5.60626V7.57879V17.4414C34.0889 17.9849 33.6519 18.4277 33.1156 18.4277C32.5794 18.4277 32.1423 17.9849 32.1423 17.4414V11.7408C32.7351 11.1994 33.1156 10.4222 33.1156 9.55132C33.1156 8.68044 32.7351 7.90425 32.1423 7.36181V5.60626C32.1423 5.06282 32.5794 4.61999 33.1156 4.61999ZM29.7072 18.2778C29.1475 16.1563 28.1178 14.1887 26.6627 12.5101H30.1958V17.4414C30.1958 17.8024 29.9933 18.1052 29.7072 18.2778ZM28.2492 5.60626C28.2492 5.06282 28.6862 4.61999 29.2225 4.61999C29.7588 4.61999 30.1958 5.06282 30.1958 5.60626V6.59252H28.2492V5.60626ZM25.3293 36.1805H28.2745C27.6565 37.007 27.2759 38.0248 27.2759 39.1393C27.2759 40.2537 27.6565 41.2716 28.2745 42.0981H25.3293V36.1805ZM29.2225 39.1393C29.2225 37.508 30.5325 36.1805 32.1423 36.1805H35.0622H38.9554V42.0981H35.0622H32.1423C30.5325 42.0981 29.2225 40.7705 29.2225 39.1393ZM25.3293 50.9744V44.0706H32.1423H35.0622H38.9554V50.9744H25.3293ZM40.9019 24.6333C40.9019 24.938 40.8309 25.2428 40.6966 25.515L38.9554 29.0439V34.2079H35.0622H32.1423H25.3293V28.9304L21.8625 24.5396C21.588 24.1914 21.4362 23.7535 21.4362 23.3077V12.6294C21.4362 11.5436 21.8537 10.5228 22.6109 9.75547C23.3682 8.98816 24.3765 8.56505 25.4471 8.56505H30.1958C30.732 8.56505 31.1691 9.00788 31.1691 9.55132C31.1691 10.0947 30.732 10.5376 30.1958 10.5376H24.356V12.9184L24.6412 13.2074C26.9683 15.5656 28.2492 18.6999 28.2492 22.0345V23.359H30.1958V22.0345C30.1958 21.4338 30.1471 20.8431 30.0761 20.2562C30.4868 20.128 30.8576 19.915 31.1691 19.6309C31.6868 20.1044 32.3652 20.4002 33.1156 20.4002C33.866 20.4002 34.5444 20.1034 35.0622 19.6309C35.58 20.1044 36.2584 20.4002 37.0088 20.4002C37.7592 20.4002 38.4376 20.1034 38.9554 19.6309C39.4731 20.1044 40.1515 20.4002 40.9019 20.4002V24.6333Z" fill="#6D4B4F"/>
<path d="M11.6051 31.3028C9.44721 31.3028 7.69232 29.5479 7.69232 27.39V3.91328C7.69232 1.75537 9.44721 0.000488281 11.6051 0.000488281C13.763 0.000488281 15.5179 1.75537 15.5179 3.91328V27.39C15.5179 29.5479 13.763 31.3028 11.6051 31.3028Z" fill="#A857A2"/>
<path d="M50.733 31.3023C48.5751 31.3023 46.8203 29.5474 46.8203 27.3895V3.91279C46.8203 1.75489 48.5751 0 50.733 0C52.8909 0 54.6458 1.75489 54.6458 3.91279V27.3895C54.6458 29.5474 52.8909 31.3023 50.733 31.3023Z" fill="#A857A2"/>
</svg>
