<svg width="62" height="62" viewBox="0 0 62 62" fill="none" xmlns="http://www.w3.org/2000/svg">
<path d="M13.4917 8.58105H48.8465V53.7567H13.4917V8.58105Z" fill="#A857A2"/>
<path d="M49.8286 5.635C49.8286 2.92741 47.6258 0.724609 44.9182 0.724609H17.42C14.7124 0.724609 12.5096 2.92741 12.5096 5.635V37.0615H4.65295V39.0257H12.5096V56.7031C12.5096 59.4107 14.7124 61.6135 17.42 61.6135H44.9182C47.6258 61.6135 49.8286 59.4107 49.8286 56.7031V35.0974H57.6852V33.1332H49.8286V5.635ZM14.4737 5.635C14.4737 4.01065 15.7956 2.68877 17.42 2.68877H44.9182C46.5425 2.68877 47.8644 4.01065 47.8644 5.635V33.1332H40.3829L37.0046 39.8919L32.9771 32.8445L29.2894 42.0642L24.3495 27.2447L20.6677 37.0615H14.4737V5.635ZM47.8644 56.7031C47.8644 58.3275 46.5425 59.6493 44.9182 59.6493H17.42C15.7956 59.6493 14.4737 58.3275 14.4737 56.7031V39.0257H22.0289L24.2395 33.1293L29.1205 47.7721L33.2894 37.3503L37.1185 44.052L41.5968 35.0974H47.8644V56.7031Z" fill="#6D4B4F"/>
<path d="M26.2587 55.7212H36.0795V57.6853H26.2587V55.7212Z" fill="#6D4B4F"/>
<path d="M0.724636 37.0615H2.68879V39.0257H0.724636V37.0615Z" fill="#6D4B4F"/>
<path d="M59.6494 33.1333H61.6135V35.0975H59.6494V33.1333Z" fill="#6D4B4F"/>
<path d="M31.1691 31.5754L40.2602 22.4843C41.364 21.3804 41.9719 19.9132 41.9719 18.3526C41.9719 15.1304 39.3508 12.5093 36.1286 12.5093C34.568 12.5093 33.1008 13.1172 31.997 14.221L31.1691 15.0489L30.3412 14.221C29.2373 13.1172 27.7701 12.5093 26.2096 12.5093C22.9874 12.5093 20.3662 15.1304 20.3662 18.3526C20.3662 19.9132 20.9741 21.3804 22.078 22.4843L31.1691 31.5754ZM26.2096 14.4734C27.2457 14.4734 28.2199 14.8771 28.9525 15.6097L31.1691 17.8263L33.3856 15.6097C34.1183 14.8771 35.0925 14.4734 36.1286 14.4734C38.2675 14.4734 40.0078 16.2137 40.0078 18.3526C40.0078 19.3887 39.6041 20.363 38.8715 21.0956L31.1691 28.798L23.4666 21.0956C22.734 20.363 22.3304 19.3887 22.3304 18.3526C22.3304 16.2137 24.0706 14.4734 26.2096 14.4734Z" fill="#6D4B4F"/>
<path d="M43.9361 12.5093H45.9002V14.4734H43.9361V12.5093Z" fill="#6D4B4F"/>
<path d="M43.9361 16.438H45.9002V18.4021H43.9361V16.438Z" fill="#6D4B4F"/>
<path d="M43.9361 20.3662H45.9002V22.3304H43.9361V20.3662Z" fill="#6D4B4F"/>
<path d="M16.4379 12.5093H18.4021V14.4734H16.4379V12.5093Z" fill="#6D4B4F"/>
<path d="M16.4379 16.438H18.4021V18.4021H16.4379V16.438Z" fill="#6D4B4F"/>
<path d="M16.4379 20.3662H18.4021V22.3304H16.4379V20.3662Z" fill="#6D4B4F"/>
</svg>
