<svg width="20" height="16" viewBox="0 0 20 16" fill="none" xmlns="http://www.w3.org/2000/svg">
<path d="M1.75813 0.382812H18.2425C18.5132 0.382812 18.7666 0.449414 18.9959 0.559141L11.969 7.58559L9.96126 9.51519L1.00505 0.558984C1.23423 0.449336 1.48755 0.382812 1.75813 0.382812Z" fill="#E0E0E0"/>
<path d="M13.2113 8.00007L19.8239 1.38781C19.9334 1.61691 19.9998 1.87019 19.9998 2.14062V13.8594C19.9998 14.13 19.9333 14.3833 19.8236 14.6125L13.2113 8.00007Z" fill="#E0E0E0"/>
<path d="M0.176172 1.38754C0.0665234 1.61672 0 1.87004 0 2.14063V13.8594C0 14.1298 0.0664453 14.3832 0.176016 14.6123L6.78863 8L0.176172 1.38754Z" fill="#E0E0E0"/>
<path d="M10.375 10.758L12.3827 8.82863L18.9951 15.441C18.7659 15.5507 18.5126 15.6172 18.242 15.6172H1.75759C1.48693 15.6172 1.23345 15.5506 1.00423 15.4409L7.61697 8.82855L9.5465 10.758C9.66091 10.8725 9.81087 10.9297 9.96076 10.9297C10.1106 10.9297 10.2606 10.8725 10.375 10.758Z" fill="#E0E0E0"/>
</svg>
