<svg width="6" height="6" viewBox="0 0 6 6" fill="none" xmlns="http://www.w3.org/2000/svg">
<path d="M0.527439 0.714844H5.47275C5.55395 0.714844 5.62999 0.734824 5.69876 0.767742L3.59071 2.87568L2.98838 3.45456L0.301514 0.767695C0.370268 0.734801 0.446264 0.714844 0.527439 0.714844Z" fill="#333333"/>
<path d="M3.96338 3.00002L5.94716 1.01634C5.98003 1.08507 5.99994 1.16106 5.99994 1.24219V4.75781C5.99994 4.83899 5.97999 4.91498 5.94709 4.98374L3.96338 3.00002Z" fill="#333333"/>
<path d="M0.0528516 1.01626C0.019957 1.08502 0 1.16101 0 1.24219V4.75781C0 4.83894 0.0199336 4.91495 0.0528047 4.98368L2.03659 3L0.0528516 1.01626Z" fill="#333333"/>
<path d="M3.1125 3.82741L3.7148 3.24859L5.69852 5.2323C5.62976 5.2652 5.55377 5.28516 5.47259 5.28516H0.527277C0.446078 5.28516 0.370035 5.26517 0.30127 5.23226L2.28509 3.24857L2.86395 3.82741C2.89827 3.86175 2.94326 3.87892 2.98823 3.87892C3.03319 3.87892 3.07817 3.86175 3.1125 3.82741Z" fill="#333333"/>
</svg>
