<svg width="6" height="6" viewBox="0 0 6 6" fill="none" xmlns="http://www.w3.org/2000/svg">
<g clip-path="url(#clip0)">
<path d="M5.99869 6V5.99975H6.00019V3.79925C6.00019 2.72275 5.76844 1.8935 4.50994 1.8935C3.90494 1.8935 3.49894 2.2255 3.33319 2.54025H3.31569V1.994H2.12244V5.99975H3.36494V4.01625C3.36494 3.494 3.46394 2.989 4.11069 2.989C4.74794 2.989 4.75744 3.585 4.75744 4.04975V6H5.99869Z" fill="#333333"/>
<path d="M0.0986328 1.99425H1.34263V6H0.0986328V1.99425Z" fill="#333333"/>
<path d="M0.7205 0C0.32275 0 0 0.32275 0 0.7205C0 1.11825 0.32275 1.44775 0.7205 1.44775C1.11825 1.44775 1.441 1.11825 1.441 0.7205C1.44075 0.32275 1.118 0 0.7205 0V0Z" fill="#333333"/>
</g>
<defs>
<clipPath id="clip0">
<rect width="6" height="6" fill="white"/>
</clipPath>
</defs>
</svg>
