<svg width="6" height="6" viewBox="0 0 6 6" fill="none" xmlns="http://www.w3.org/2000/svg">
<path d="M5.52632 3.95053C5.16075 3.95124 4.79742 3.89345 4.4501 3.77937C4.28772 3.72258 4.10723 3.7608 3.98179 3.87853L3.30032 4.39264C2.56847 4.02519 1.97464 3.43149 1.60706 2.69969L2.10759 2.03464C2.23396 1.90818 2.27915 1.72177 2.22475 1.55148C2.11024 1.20369 2.05213 0.839828 2.05264 0.473685C2.05264 0.212077 1.84056 0 1.57895 0H0.473685C0.212077 0 0 0.212077 0 0.473685C0.00347862 3.52435 2.47565 5.99652 5.52632 6C5.78792 6 6 5.78792 6 5.52632V4.42421C6 4.16261 5.78792 3.95053 5.52632 3.95053Z" fill="#333333"/>
<path d="M5.84207 2.52632C5.75487 2.52632 5.68417 2.45563 5.68417 2.36842C5.68278 1.23535 4.7646 0.317176 3.63153 0.315785C3.54433 0.315785 3.47363 0.245087 3.47363 0.157885C3.47363 0.0706826 3.54433 0 3.63153 0C4.939 0.00139145 5.99856 1.06095 5.99995 2.36842C5.99995 2.45563 5.92927 2.52632 5.84207 2.52632Z" fill="#333333"/>
<path d="M4.421 2.36842C4.421 2.45563 4.4917 2.52632 4.5789 2.52632C4.6661 2.52632 4.7368 2.45563 4.7368 2.36842C4.7368 1.75801 4.24196 1.26315 3.63153 1.26315C3.54433 1.26315 3.47363 1.33385 3.47363 1.42105C3.47363 1.50826 3.54433 1.57895 3.63153 1.57895C4.06754 1.57895 4.421 1.93241 4.421 2.36842Z" fill="#333333"/>
</svg>
