<svg width="20" height="20" viewBox="0 0 20 20" fill="none" xmlns="http://www.w3.org/2000/svg">
<path d="M18.4211 13.1684C17.2025 13.1708 15.9914 12.9782 14.8337 12.5979C14.2924 12.4086 13.6908 12.536 13.2726 12.9284L11.0011 14.6421C8.56155 13.4173 6.58214 11.4383 5.35688 8.99897L7.02528 6.78213C7.44652 6.3606 7.59716 5.73923 7.41583 5.1716C7.03412 4.01231 6.84045 2.79943 6.84213 1.57895C6.84213 0.706925 6.1352 0 5.26318 0H1.57895C0.706925 0 0 0.706925 0 1.57895C0.0115954 11.7478 8.25218 19.9884 18.4211 20C19.2931 20 20 19.2931 20 18.4211V14.7474C20 13.8754 19.2931 13.1684 18.4211 13.1684Z" fill="#E0E0E0"/>
<path d="M19.4736 8.42108C19.1829 8.42108 18.9472 8.18542 18.9472 7.89474C18.9426 4.11785 15.882 1.05725 12.1051 1.05262C11.8144 1.05262 11.5788 0.816958 11.5788 0.526283C11.5788 0.235609 11.8144 0 12.1051 0C16.4633 0.00463816 19.9952 3.5365 19.9998 7.89474C19.9998 8.18542 19.7642 8.42108 19.4736 8.42108Z" fill="#E0E0E0"/>
<path d="M14.7367 7.89475C14.7367 8.18542 14.9723 8.42108 15.263 8.42108C15.5537 8.42108 15.7893 8.18542 15.7893 7.89475C15.7893 5.86002 14.1399 4.21052 12.1051 4.21052C11.8144 4.21052 11.5788 4.44617 11.5788 4.73685C11.5788 5.02752 11.8144 5.26318 12.1051 5.26318C13.5585 5.26318 14.7367 6.44137 14.7367 7.89475Z" fill="#E0E0E0"/>
</svg>
