<?xml version="1.0" standalone="no"?>
<!DOCTYPE svg PUBLIC "-//W3C//DTD SVG 20010904//EN"
 "http://www.w3.org/TR/2001/REC-SVG-20010904/DTD/svg10.dtd">
<svg version="1.0" xmlns="http://www.w3.org/2000/svg"
 width="70.000000pt" height="70.000000pt" viewBox="0 0 70.000000 70.000000"
 preserveAspectRatio="xMidYMid meet">
<metadata>
Created by potrace 1.11, written by Peter Selinger 2001-2013
</metadata>
<g transform="translate(0.000000,70.000000) scale(0.100000,-0.100000)"
fill="#000000" stroke="none">
<path d="M296 689 c2 -4 -4 -10 -15 -14 -22 -7 -54 -51 -46 -65 3 -5 1 -11 -4
-15 -24 -14 15 -101 54 -119 41 -20 83 -27 91 -15 3 5 10 7 15 3 15 -9 77 62
81 94 10 80 -53 145 -137 141 -24 -2 -42 -6 -39 -10z m88 -68 c9 -7 13 -17 10
-22 -3 -5 0 -9 5 -9 18 0 12 -29 -9 -50 -11 -11 -29 -20 -40 -20 -23 0 -60 33
-60 54 0 22 41 63 61 61 9 -1 24 -7 33 -14z"/>
<path d="M64 478 c-10 -15 -12 -108 -3 -108 4 0 9 -17 12 -39 10 -74 52 -143
125 -203 27 -22 85 -53 95 -50 6 2 11 -22 8 -42 -4 -20 20 -31 57 -28 35 3 40
7 40 30 0 27 1 29 85 81 30 18 61 44 68 57 6 13 15 21 19 19 3 -2 12 12 19 31
7 18 16 34 21 34 4 0 7 8 5 18 -1 9 1 22 6 28 5 6 11 28 14 50 19 127 14 139
-50 123 -22 -5 -49 -12 -59 -14 -11 -3 -23 -10 -28 -17 -4 -7 -8 -9 -8 -5 0
19 -81 -48 -117 -96 l-22 -29 -18 22 c-74 89 -122 121 -208 135 -11 2 -27 6
-36 10 -10 3 -21 1 -25 -7z m162 -147 c53 -53 61 -63 68 -97 19 -87 16 -90
-40 -46 -43 33 -70 75 -88 136 -13 43 -13 46 4 46 10 0 35 -17 56 -39z m309 0
c-7 -22 -11 -41 -9 -44 2 -2 -2 -10 -11 -17 -8 -7 -15 -17 -15 -22 0 -19 -87
-91 -101 -83 -9 6 -3 47 16 91 17 42 90 114 115 114 18 0 18 -2 5 -39z"/>
</g>
</svg>
