<svg width="103" height="45" viewBox="0 0 103 45" fill="none" xmlns="http://www.w3.org/2000/svg">
<path d="M83.3489 21.9084L79.5534 19.995C79.3771 19.9062 79.2288 19.7697 79.1252 19.6007C79.0216 19.4317 78.9667 19.237 78.9667 19.0383C78.9667 18.8396 79.0216 18.6449 79.1252 18.4759C79.2288 18.3069 79.3771 18.1704 79.5534 18.0816C79.9045 17.9058 80.2913 17.8142 80.6834 17.8142C81.0755 17.8142 81.4622 17.9058 81.8134 18.0816L83.3489 18.8557C83.5506 18.9574 83.7701 19.018 83.995 19.0341C84.2199 19.0502 84.4457 19.0215 84.6596 18.9496C84.8735 18.8777 85.0712 18.7641 85.2416 18.6152C85.4119 18.4662 85.5514 18.2849 85.6523 18.0816C85.7531 17.8783 85.8132 17.657 85.8292 17.4302C85.8452 17.2035 85.8167 16.9758 85.7454 16.7602C85.6741 16.5445 85.5614 16.3452 85.4137 16.1734C85.266 16.0017 85.0861 15.861 84.8845 15.7594L83.3489 14.9853C83.0431 14.8429 82.7256 14.7275 82.4 14.6402V12.1152H78.9667V14.6402C78.6412 14.7275 78.3237 14.8429 78.0178 14.9853C77.2712 15.3616 76.6434 15.9401 76.2045 16.656C75.7657 17.3718 75.5333 18.1968 75.5333 19.0383C75.5333 19.8799 75.7657 20.7048 76.2045 21.4206C76.6434 22.1365 77.2712 22.715 78.0178 23.0913L81.8134 25.0047C81.9897 25.0935 82.1379 25.23 82.2415 25.399C82.3452 25.568 82.4001 25.7627 82.4001 25.9614C82.4001 26.1601 82.3452 26.3548 82.2415 26.5238C82.1379 26.6928 81.9897 26.8293 81.8134 26.9181C81.4622 27.0939 81.0755 27.1855 80.6834 27.1855C80.2913 27.1855 79.9045 27.0939 79.5534 26.9181L78.0178 26.144C77.6106 25.9387 77.1391 25.9049 76.7071 26.0501C76.2752 26.1952 75.9181 26.5075 75.7145 26.9181C75.5109 27.3287 75.4773 27.804 75.6213 28.2395C75.7653 28.675 76.075 29.035 76.4823 29.2403L78.0178 30.0144C78.3237 30.1567 78.6411 30.272 78.9667 30.3591V32.8845H82.4V30.3591C82.7256 30.272 83.0431 30.1567 83.3489 30.0144C84.0955 29.6381 84.7234 29.0596 85.1622 28.3437C85.6011 27.6279 85.8335 26.8029 85.8335 25.9614C85.8335 25.1198 85.6011 24.2949 85.1622 23.5791C84.7234 22.8632 84.0955 22.2847 83.3489 21.9084Z" fill="white"/>
<path d="M80.6833 6.92285C77.6276 6.92285 74.6405 7.83642 72.0998 9.54804C69.559 11.2597 67.5788 13.6924 66.4094 16.5387C65.24 19.3851 64.9341 22.5171 65.5302 25.5387C66.1264 28.5603 67.5978 31.3358 69.7585 33.5143C71.9193 35.6928 74.6722 37.1764 77.6692 37.7774C80.6662 38.3784 83.7727 38.07 86.5958 36.891C89.4189 35.712 91.8319 33.7155 93.5296 31.1539C95.2272 28.5922 96.1333 25.5806 96.1333 22.4998C96.1287 18.3699 94.4995 14.4106 91.6031 11.4903C88.7066 8.57011 84.7795 6.92749 80.6833 6.92285ZM80.6833 34.6152C78.3067 34.6152 75.9834 33.9046 74.0072 32.5733C72.0311 31.2421 70.4909 29.3499 69.5814 27.1361C68.6719 24.9223 68.4339 22.4863 68.8976 20.1362C69.3612 17.786 70.5057 15.6273 72.1863 13.9329C73.8668 12.2385 76.008 11.0847 78.339 10.6172C80.67 10.1497 83.0862 10.3896 85.2819 11.3066C87.4777 12.2236 89.3544 13.7765 90.6748 15.7688C91.9952 17.7612 92.7 20.1036 92.7 22.4998C92.6963 25.7118 91.4291 28.7913 89.1763 31.0625C86.9236 33.3338 83.8692 34.6114 80.6833 34.6152Z" fill="white"/>
<path d="M22.3167 6.05859C19.0912 6.05859 15.9382 7.02292 13.2563 8.82962C10.5744 10.6363 8.48411 13.2043 7.24977 16.2087C6.01543 19.2131 5.69247 22.5191 6.32173 25.7086C6.95099 28.8981 8.50421 31.8279 10.785 34.1274C13.0657 36.4269 15.9716 37.9928 19.1351 38.6273C22.2986 39.2617 25.5777 38.9361 28.5576 37.6916C31.5376 36.4471 34.0846 34.3397 35.8766 31.6358C37.6686 28.9318 38.625 25.7529 38.625 22.5009C38.6201 18.1417 36.9003 13.9624 33.843 10.8799C30.7856 7.79749 26.6404 6.06358 22.3167 6.05859ZM22.3167 35.4817C19.7703 35.4817 17.281 34.7204 15.1637 33.294C13.0465 31.8677 11.3962 29.8404 10.4218 27.4684C9.44728 25.0965 9.19231 22.4865 9.68909 19.9685C10.1859 17.4505 11.4121 15.1375 13.2127 13.3221C15.0133 11.5067 17.3074 10.2704 19.8049 9.76955C22.3024 9.26869 24.8911 9.52575 27.2437 10.5082C29.5963 11.4907 31.6071 13.1545 33.0219 15.2892C34.4366 17.4239 35.1917 19.9335 35.1917 22.5009C35.188 25.9425 33.8303 29.242 31.4166 31.6755C29.0028 34.1091 25.7302 35.4779 22.3167 35.4817Z" fill="white"/>
<path d="M80.6833 0H60.0833V3.46154H68.8448C65.639 5.47728 62.9949 8.28271 61.1618 11.6135C59.3286 14.9443 58.3668 18.6908 58.3668 22.5C58.3668 26.3092 59.3286 30.0557 61.1618 33.3865C62.9949 36.7173 65.639 39.5227 68.8448 41.5385H34.1552C37.361 39.5227 40.0051 36.7173 41.8382 33.3865C43.6714 30.0557 44.6332 26.3092 44.6332 22.5C44.6332 18.6908 43.6714 14.9443 41.8382 11.6135C40.0051 8.28271 37.361 5.47728 34.1552 3.46154H49.7833V0H22.3167C16.3979 0 10.7216 2.37053 6.5364 6.5901C2.35121 10.8097 0 16.5326 0 22.5C0 28.4674 2.35121 34.1903 6.5364 38.4099C10.7216 42.6295 16.3979 45 22.3167 45H80.6833C86.6021 45 92.2784 42.6295 96.4636 38.4099C100.649 34.1903 103 28.4674 103 22.5C103 16.5326 100.649 10.8097 96.4636 6.5901C92.2784 2.37053 86.6021 0 80.6833 0ZM3.43333 22.5C3.43333 18.7345 4.54082 15.0537 6.61575 11.9228C8.69068 8.79194 11.6399 6.35173 15.0903 4.91076C18.5408 3.46978 22.3376 3.09276 26.0006 3.82736C29.6636 4.56196 33.0283 6.3752 35.6692 9.03777C38.3101 11.7004 40.1085 15.0927 40.8372 18.7858C41.5658 22.4789 41.1918 26.3069 39.7626 29.7857C38.3334 33.2645 35.913 36.2379 32.8077 38.3299C29.7023 40.4219 26.0514 41.5385 22.3167 41.5385C17.3102 41.5327 12.5105 39.5251 8.97041 35.9559C5.43033 32.3867 3.43901 27.5476 3.43333 22.5ZM80.6833 41.5385C76.9486 41.5385 73.2977 40.4219 70.1923 38.3299C67.087 36.2379 64.6666 33.2645 63.2374 29.7857C61.8082 26.3069 61.4342 22.4789 62.1628 18.7858C62.8915 15.0927 64.6899 11.7004 67.3308 9.03777C69.9717 6.3752 73.3364 4.56196 76.9994 3.82736C80.6624 3.09276 84.4592 3.46978 87.9097 4.91076C91.3602 6.35173 94.3093 8.79194 96.3842 11.9228C98.4592 15.0537 99.5667 18.7345 99.5667 22.5C99.561 27.5476 97.5697 32.3867 94.0296 35.9559C90.4895 39.5251 85.6898 41.5327 80.6833 41.5385Z" fill="white"/>
<path d="M53.2167 0H56.65V3.46154H53.2167V0Z" fill="white"/>
<path d="M25.7285 22.7132C25.733 22.6411 25.7499 22.573 25.7499 22.4999C25.7486 21.8947 25.5892 21.3006 25.2879 20.7772C24.9865 20.2538 24.5538 19.8197 24.0333 19.5184V13.846C24.0333 13.387 23.8524 12.9467 23.5305 12.6222C23.2085 12.2976 22.7719 12.1152 22.3166 12.1152C21.8613 12.1152 21.4247 12.2976 21.1027 12.6222C20.7808 12.9467 20.5999 13.387 20.5999 13.846V19.5184C19.8254 19.9631 19.2537 20.6952 19.0067 21.5586C18.7597 22.4221 18.8568 23.3486 19.2775 24.1409C19.6982 24.9332 20.4091 25.5285 21.2587 25.8001C22.1084 26.0716 23.0296 25.9979 23.8262 25.5947L26.5143 27.4014C26.8931 27.6531 27.3554 27.7434 27.8 27.6525C28.2447 27.5617 28.6356 27.297 28.8873 26.9164C29.139 26.5358 29.231 26.0703 29.1432 25.6215C29.0555 25.1727 28.7951 24.7772 28.4189 24.5214L25.7285 22.7132Z" fill="white"/>
</svg>
