<svg xmlns="http://www.w3.org/2000/svg" width="9.226" height="9.226" viewBox="0 0 9.226 9.226">
  <path id="close_3_" data-name="close (3)" d="M6.136,4.613,8.99,1.759a.807.807,0,0,0,0-1.141l-.38-.38a.807.807,0,0,0-1.142,0L4.614,3.091,1.759.236a.807.807,0,0,0-1.141,0L.237.617a.807.807,0,0,0,0,1.142L3.092,4.613.238,7.467a.807.807,0,0,0,0,1.142l.38.38a.807.807,0,0,0,1.141,0L4.614,6.135,7.468,8.989a.807.807,0,0,0,1.142,0l.38-.38a.807.807,0,0,0,0-1.142Zm0,0" transform="translate(0 0)" fill="#5c6b7d"/>
</svg>
