<svg xmlns="http://www.w3.org/2000/svg" width="14.998" height="12.582" viewBox="0 0 14.998 12.582">
  <g id="direct-download" transform="translate(0.25 -1.75)">
    <path id="Контур_14" data-name="Контур 14" d="M9.624,10.457a.452.452,0,0,1-.327-.14L6.125,6.995a.453.453,0,0,1,.327-.766H8.114V2.755A.756.756,0,0,1,8.869,2h1.51a.756.756,0,0,1,.755.755V6.229H12.8a.453.453,0,0,1,.327.766L9.952,10.317A.452.452,0,0,1,9.624,10.457Z" transform="translate(-2.375)" fill="#5c6b7d" stroke="#fff" stroke-width="0.5"/>
    <path id="Контур_15" data-name="Контур 15" d="M13.441,20.416H1.057A1.058,1.058,0,0,1,0,19.359v-.3A1.058,1.058,0,0,1,1.057,18H13.441A1.058,1.058,0,0,1,14.5,19.057v.3A1.058,1.058,0,0,1,13.441,20.416Z" transform="translate(0 -6.334)" fill="#5c6b7d" stroke="#fff" stroke-width="0.5"/>
  </g>
</svg>
