<?xml version="1.0" standalone="no"?>
<!DOCTYPE svg PUBLIC "-//W3C//DTD SVG 20010904//EN"
 "http://www.w3.org/TR/2001/REC-SVG-20010904/DTD/svg10.dtd">
<svg version="1.0" xmlns="http://www.w3.org/2000/svg"
 width="700.000000pt" height="700.000000pt" viewBox="0 0 700.000000 700.000000"
 preserveAspectRatio="xMidYMid meet">
<metadata>
Created by potrace 1.11, written by Peter Selinger 2001-2013
</metadata>
<g transform="translate(0.000000,700.000000) scale(0.100000,-0.100000)"
fill="#000000" stroke="none">
<path d="M3215 6989 c-759 -69 -1437 -353 -1995 -835 -681 -587 -1102 -1390
-1202 -2289 -17 -154 -17 -585 0 -730 108 -914 522 -1703 1203 -2289 946 -813
2250 -1060 3434 -649 882 306 1632 988 2022 1838 421 916 429 1964 22 2883
-182 412 -424 757 -761 1088 -552 542 -1240 871 -2028 970 -141 18 -559 26
-695 13z m1298 -1727 l957 -957 -256 -255 -256 -255 -704 710 -704 710 -497
-497 -498 -498 830 -830 830 -830 120 120 120 120 -710 710 -710 710 255 255
255 255 963 -963 963 -963 -1007 -1007 c-553 -554 -1009 -1007 -1013 -1007 -3
0 -438 432 -966 960 l-960 960 255 255 255 255 710 -710 710 -710 125 126 125
125 -1088 1082 -1088 1082 1003 1003 c552 551 1008 1002 1013 1002 6 0 441
-431 968 -958z"/>
</g>
</svg>
