<svg width="104" height="99" viewBox="0 0 104 99" fill="none" xmlns="http://www.w3.org/2000/svg">
<path d="M87.7387 80.0123C79.7371 87.7009 69.829 93.2839 58.9584 96.2294C47.2809 99.5657 33.4093 100.784 25.0682 94.7789C16.7272 88.7736 14.022 75.5011 12.7445 63.6211C11.4671 51.7411 11.6624 41.1811 16.5318 33.8993C21.4012 26.6176 31.1249 22.5996 41.1942 15.956C51.2636 9.31253 61.7989 0 72.1387 0C82.4786 0 92.6382 9.12396 98.3041 19.684C103.666 29.8783 105.313 41.519 102.978 52.7275C100.761 63.0614 95.4647 72.5449 87.7387 80.0123Z" fill="#EFEFEF"/>
<path d="M44.215 58.4862H44.0647C43.9963 58.4554 43.9386 58.4061 43.8986 58.3443C43.8586 58.2825 43.838 58.2109 43.8393 58.1381V48.1438H41.4798C40.1405 48.1438 38.8561 47.6303 37.9091 46.7163C36.9621 45.8022 36.4301 44.5625 36.4301 43.2699V22.1209C36.4301 20.8283 36.9621 19.5886 37.9091 18.6746C38.8561 17.7606 40.1405 17.2471 41.4798 17.2471H88.5052C89.8419 17.2509 91.1224 17.7661 92.0662 18.6797C93.0099 19.5933 93.5399 20.8308 93.5399 22.1209V43.2699C93.5399 44.56 93.0099 45.7975 92.0662 46.7111C91.1224 47.6247 89.8419 48.1399 88.5052 48.1438H55.0809L44.4705 58.3847C44.4375 58.4176 44.3977 58.4437 44.3537 58.4611C44.3098 58.4786 44.2626 58.4871 44.215 58.4862Z" fill="#FF7799"/>
<path d="M88.5052 17.6096C89.7448 17.6096 90.9336 18.0848 91.8102 18.9309C92.6867 19.7769 93.1792 20.9243 93.1792 22.1208V43.2698C93.1811 43.8615 93.0621 44.4478 92.8288 44.995C92.5956 45.5423 92.2527 46.0397 91.8199 46.4588C91.3871 46.8779 90.8728 47.2104 90.3066 47.4373C89.7404 47.6642 89.1333 47.781 88.5202 47.781H54.9306L44.215 58.1234V47.781H41.4797C40.2401 47.781 39.0513 47.3057 38.1747 46.4597C37.2982 45.6137 36.8058 44.4662 36.8058 43.2698V22.1208C36.8058 20.9243 37.2982 19.7769 38.1747 18.9309C39.0513 18.0848 40.2401 17.6096 41.4797 17.6096H88.5052ZM88.5052 16.8843H41.4797C40.0434 16.8881 38.6673 17.4415 37.6531 18.4231C36.6389 19.4047 36.0693 20.7345 36.0693 22.1208V43.2698C36.0693 44.6586 36.6409 45.9905 37.6584 46.9725C38.6759 47.9546 40.0559 48.5063 41.4948 48.5063H43.4786V58.1234C43.4771 58.267 43.5189 58.4079 43.5989 58.529C43.679 58.6501 43.7938 58.746 43.9295 58.8052H44.215C44.4157 58.807 44.6094 58.7343 44.756 58.6021L55.2763 48.4482H88.5052C89.9415 48.4444 91.3176 47.891 92.3318 46.9094C93.346 45.9278 93.9156 44.598 93.9156 43.2118V22.1208C93.9156 20.7345 93.346 19.4047 92.3318 18.4231C91.3176 17.4415 89.9415 16.8881 88.5052 16.8843Z" fill="#4E4E4E"/>
<path d="M53.8335 29.0835C53.8406 28.6021 53.7332 28.1256 53.5196 27.6906C53.3059 27.2555 52.9917 26.8736 52.6012 26.5741C51.8021 25.9889 50.8238 25.6775 49.8208 25.6893C49.3531 25.6455 48.8811 25.6922 48.4324 25.8267C47.9836 25.9612 47.5672 26.1808 47.2075 26.4726C46.8478 26.7644 46.5521 27.1225 46.3376 27.526C46.1231 27.9295 45.9942 28.3703 45.9584 28.8224C45.9584 29.7943 46.4092 29.9249 46.9052 29.9249C47.7168 29.9249 48.0775 29.5332 48.0775 29.2431C48.0675 28.7891 48.2448 28.35 48.5703 28.0222C48.8958 27.6944 49.343 27.5048 49.8133 27.4952C50.2836 27.4856 50.7387 27.6567 51.0783 27.9709C51.4179 28.2851 51.6143 28.7166 51.6243 29.1706C51.6243 30.4471 50.2416 31.4334 48.7688 32.4778C47.2959 33.5222 45.763 34.6246 45.763 35.9446V37.7143C45.763 37.9754 46.289 38.2365 46.6798 38.2365H53.3526C53.563 38.2365 53.8786 37.8594 53.8786 37.3372C53.8786 36.815 53.563 36.4668 53.3526 36.4668H48.0925V35.9591C48.0925 35.1323 49.0844 34.5086 50.2266 33.7108C51.8046 32.6229 53.8335 31.2884 53.8335 29.0835Z" fill="#4E4E4E"/>
<path d="M62.8809 33.5221H61.7237V31.912C61.7237 31.6654 61.378 31.4043 60.6116 31.4043C59.8451 31.4043 59.5145 31.6654 59.5145 31.912V33.5221H56.9595L60.5364 26.603C60.5471 26.5406 60.5471 26.4769 60.5364 26.4144C60.5364 26.1823 60.296 26.0083 60.1607 25.9212C59.9424 25.7903 59.6953 25.7108 59.4393 25.6892C59.2511 25.6836 59.0653 25.7315 58.905 25.8269C58.7447 25.9223 58.6169 26.061 58.5376 26.2259L54.2093 34.4215C54.1393 34.5409 54.103 34.6759 54.1041 34.8131C54.0955 34.8953 54.1051 34.9783 54.1324 35.0565C54.1597 35.1348 54.204 35.2065 54.2624 35.2669C54.3207 35.3274 54.3917 35.3751 54.4707 35.4069C54.5496 35.4387 54.6347 35.4538 54.7202 35.4514H59.5145V37.7142C59.5145 37.9608 59.9052 38.2364 60.6116 38.2364C61.3179 38.2364 61.7237 37.9608 61.7237 37.7142V35.4369H62.8809C63.0613 35.4369 63.422 35.0017 63.422 34.4795C63.422 33.9573 63.1214 33.5221 62.8809 33.5221Z" fill="#4E4E4E"/>
<path d="M72.6347 24.9493C72.5408 24.9435 72.4472 24.9637 72.3647 25.0073C72.2822 25.051 72.2142 25.1164 72.1688 25.1959L65.5861 38.2509C65.5719 38.313 65.5719 38.3773 65.5861 38.4394C65.6012 38.6062 65.6807 38.7613 65.8087 38.8742C65.9368 38.987 66.1041 39.0493 66.2775 39.0487C66.3795 39.0528 66.4809 39.0325 66.5727 38.9894C66.6645 38.9464 66.7438 38.882 66.8035 38.8021L73.4012 25.7471C73.4184 25.6854 73.4184 25.6203 73.4012 25.5586C73.3822 25.3801 73.291 25.2161 73.1476 25.102C73.0041 24.988 72.8198 24.9331 72.6347 24.9493Z" fill="#4E4E4E"/>
<path d="M83.3353 25.6891H76.6474C76.1665 25.6891 75.7307 26.0083 75.7307 26.2113V29.0109C75.7307 29.2575 76.2116 29.5331 76.8127 29.5331C77.4139 29.5331 77.9399 29.2285 77.9399 29.0109V27.4588H82.0127V29.156V29.243L77.3989 36.9454C77.3438 37.0378 77.3177 37.1436 77.3237 37.25C77.3237 37.8593 78.1052 38.3234 78.8266 38.3234C79.2324 38.3234 79.3075 38.1929 79.3376 38.1349L83.726 30.0263C84.0149 29.5491 84.2038 29.0217 84.2821 28.4742V26.2113C84.1944 26.0445 84.058 25.9062 83.8897 25.8134C83.7214 25.7206 83.5287 25.6774 83.3353 25.6891Z" fill="#4E4E4E"/>
<path d="M50.8578 90.4997C39.9618 90.4997 26.8116 84.1318 16.5168 73.8619C0.33063 57.7172 -4.50868 36.7858 5.83121 27.1687C6.03403 26.9925 6.27183 26.8579 6.53019 26.7731C6.78854 26.6884 7.06204 26.6551 7.3341 26.6755C9.45318 26.6755 13 28.7933 16.1711 31.9555C19.6127 35.4078 25.3387 43.0377 23.5202 44.7493C21.5446 46.6167 20.4102 49.1597 20.3624 51.8282C20.3146 54.4967 21.3572 57.0761 23.2647 59.0082L32.1618 67.8856C34.0986 69.7904 36.7345 70.8827 39.4992 70.9261C42.264 70.9696 44.9353 69.9607 46.9353 68.1177C47.0654 68.0052 47.2175 67.919 47.3827 67.8642C47.5479 67.8093 47.7228 67.787 47.8971 67.7986C50.4971 67.7986 56.674 72.3533 59.9202 75.6315C64.1734 79.8526 66.1572 84.1898 64.5341 85.6983C60.8161 88.9679 55.9137 90.6928 50.8879 90.4997H50.8578Z" fill="#CCCCCC"/>
<path d="M7.27312 27.0383C9.24191 27.0383 12.6535 29.0401 15.8396 32.2023C19.8072 36.1623 24.6014 43.1684 23.1887 44.4884C21.1362 46.4223 19.9578 49.0602 19.91 51.8282C19.8621 54.5963 20.9487 57.2707 22.9332 59.2695L31.8304 68.1759C33.83 70.1639 36.5644 71.3061 39.4348 71.3523C42.3052 71.3986 45.0775 70.345 47.1448 68.4225C47.3369 68.2654 47.5851 68.1873 47.8361 68.2049C50.1356 68.2049 56.102 72.4115 59.6188 75.9218C63.5864 79.8818 65.6304 84.161 64.2477 85.481C60.6015 88.6805 55.7956 90.364 50.872 90.1662C40.3517 90.1662 27.4569 84.2625 16.8014 73.63C0.72052 57.5869 -4.05867 36.9166 6.08584 27.43C6.41372 27.1553 6.83963 27.0148 7.27312 27.0383ZM7.27312 26.313C6.64309 26.2853 6.02723 26.4991 5.55983 26.9078C0.465028 31.6801 -1.20318 39.2519 0.870808 48.2308C2.9448 57.2097 8.38526 66.2757 16.2454 74.1087C26.6003 84.4511 39.8708 90.8625 50.8119 90.8625C55.9342 91.0606 60.9303 89.2985 64.7136 85.9596C65.3749 85.3359 65.8858 84.0449 64.5934 81.3469C63.4347 79.1577 61.923 77.16 60.1148 75.4286C56.7934 72.1214 50.4963 67.4941 47.791 67.4941C47.3437 67.4739 46.9061 67.6251 46.5737 67.9148C44.6514 69.7055 42.0715 70.6868 39.4003 70.6433C36.729 70.5998 34.1849 69.535 32.3263 67.6827L23.4292 58.8199C22.503 57.8935 21.7754 56.7997 21.2883 55.6013C20.8011 54.4028 20.564 53.1233 20.5906 51.8362C20.6171 50.5491 20.9067 49.2797 21.4429 48.101C21.979 46.9222 22.7511 45.8572 23.7147 44.9671C24.3309 44.4014 24.8419 43.1394 22.2119 38.9183C20.5528 36.3072 18.608 33.8756 16.4107 31.6656C13.1344 28.3873 9.55752 26.2695 7.31821 26.2695L7.27312 26.313Z" fill="#4E4E4E"/>
<path d="M21.0405 73.3108C5.27517 57.6158 0.390778 37.4677 9.76881 27.749C8.11563 26.9802 6.76303 26.8062 6.08673 27.4299C-4.05778 36.9165 0.721414 57.5868 16.7873 73.6009C28.8104 85.655 43.8393 91.6312 54.9156 89.818C44.4706 89.76 31.5607 83.8998 21.0405 73.3108Z" fill="#AAAAAA"/>
<path d="M50.2566 68.93C48.7537 68.2047 47.6266 67.9291 47.1457 68.3788C45.8356 69.5795 44.2333 70.4425 42.4867 70.8882C45.2413 71.2261 48.0248 70.5246 50.2566 68.93Z" fill="#AAAAAA"/>
<path d="M47.2959 55.1208V47.781H44.5607C43.3211 47.781 42.1322 47.3058 41.2557 46.4597C40.3791 45.6137 39.8867 44.4663 39.8867 43.2698V22.1208C39.8867 20.9244 40.3791 19.7769 41.2557 18.9309C42.1322 18.0849 43.3211 17.6096 44.5607 17.6096H41.5549C40.3153 17.6096 39.1264 18.0849 38.2499 18.9309C37.3734 19.7769 36.8809 20.9244 36.8809 22.1208V43.2698C36.8809 44.4663 37.3734 45.6137 38.2499 46.4597C39.1264 47.3058 40.3153 47.781 41.5549 47.781H44.2902V58.1235L47.2959 55.1208Z" fill="#EF608F"/>
</svg>
