<svg width="112" height="139" viewBox="0 0 112 139" fill="none" xmlns="http://www.w3.org/2000/svg">
<path d="M86.5702 119.905C78.0025 127.24 67.3794 132.562 55.7213 135.36C43.1895 138.538 28.2651 139.699 19.3811 133.964C10.497 128.23 7.61415 115.617 6.18251 104.299C4.75087 92.9818 5.00582 82.9254 10.2617 75.9969C15.5176 69.0684 25.9509 65.2342 36.6785 58.8775C47.406 52.5208 58.7611 43.7424 69.8416 43.7424C80.9221 43.7424 91.8261 52.4535 97.8861 62.4426C103.646 72.152 105.415 83.2445 102.907 93.9235C100.538 103.767 94.8587 112.799 86.5702 119.905Z" fill="#EFEFEF"/>
<path opacity="0.3" d="M60.1143 55.625L64.2861 20.75H104.177V33.0312H77.1299L75.583 46.5781C76.708 45.9219 78.1768 45.3438 79.9893 44.8438C81.833 44.3438 83.6299 44.0938 85.3799 44.0938C92.1611 44.0938 97.3643 46.1094 100.989 50.1406C104.646 54.1406 106.474 59.7656 106.474 67.0156C106.474 71.3906 105.489 75.3594 103.521 78.9219C101.583 82.4531 98.8486 85.1719 95.3174 87.0781C91.7861 88.9844 87.6143 89.9375 82.8018 89.9375C78.5205 89.9375 74.5049 89.0625 70.7549 87.3125C67.0049 85.5312 64.0674 83.1094 61.9424 80.0469C59.8174 76.9531 58.7705 73.4688 58.8018 69.5938H74.6455C74.8018 72.0938 75.5986 74.0781 77.0361 75.5469C78.4736 77.0156 80.3643 77.75 82.708 77.75C88.0205 77.75 90.6768 73.8125 90.6768 65.9375C90.6768 58.6562 87.4268 55.0156 80.9268 55.0156C77.2393 55.0156 74.4893 56.2031 72.6768 58.5781L60.1143 55.625Z" fill="#FF7799"/>
<path d="M0.985451 124.345C0.845382 124.344 0.711398 124.296 0.612832 124.21C0.527906 124.114 0.486152 123.995 0.495162 123.874L8.0456 61.4671C8.06333 61.3642 8.12168 61.2697 8.21092 61.1993C8.30016 61.1289 8.41488 61.0869 8.53589 61.0803H19.989C20.1191 61.0803 20.2438 61.1246 20.3357 61.2035C20.4277 61.2823 20.4793 61.3892 20.4793 61.5007V67.5884C20.4793 67.9809 20.6611 68.3573 20.9848 68.6348C21.3085 68.9123 21.7474 69.0683 22.2051 69.0683C22.6628 69.0683 23.1018 68.9123 23.4255 68.6348C23.7491 68.3573 23.931 67.9809 23.931 67.5884V61.5007C23.931 61.3892 23.9826 61.2823 24.0746 61.2035C24.1665 61.1246 24.2912 61.0803 24.4212 61.0803H51.9951C52.1251 61.0803 52.2498 61.1246 52.3418 61.2035C52.4337 61.2823 52.4854 61.3892 52.4854 61.5007V67.5884C52.4854 67.9809 52.6672 68.3573 52.9908 68.6348C53.3145 68.9123 53.7535 69.0683 54.2112 69.0683C54.6689 69.0683 55.1078 68.9123 55.4315 68.6348C55.7552 68.3573 55.937 67.9809 55.937 67.5884V61.5007C55.937 61.3892 55.9886 61.2823 56.0806 61.2035C56.1725 61.1246 56.2972 61.0803 56.4273 61.0803H67.8804C68.0039 61.08 68.123 61.1196 68.2139 61.1913C68.3048 61.2631 68.3608 61.3615 68.3707 61.4671L70.6652 81.6472C70.6711 81.7044 70.6637 81.7621 70.6435 81.817C70.6233 81.8718 70.5907 81.9227 70.5476 81.9667C70.449 82.052 70.315 82.1004 70.175 82.1012H43.8171L38.6004 123.975C38.5859 124.077 38.528 124.172 38.4375 124.24C38.3471 124.308 38.2305 124.346 38.1101 124.345H0.985451Z" fill="#CCCCCC"/>
<path d="M67.8804 61.5008L70.175 81.6808H43.3856L38.1101 123.924H0.985471L8.53591 61.5008H19.9891V67.5884C19.9891 68.0924 20.2225 68.5757 20.6381 68.9321C21.0537 69.2885 21.6174 69.4887 22.2052 69.4887C22.7929 69.4887 23.3566 69.2885 23.7722 68.9321C24.1878 68.5757 24.4213 68.0924 24.4213 67.5884V61.5008H51.9951V67.5884C51.9951 68.0924 52.2286 68.5757 52.6442 68.9321C53.0598 69.2885 53.6234 69.4887 54.2112 69.4887C54.7989 69.4887 55.3626 69.2885 55.7782 68.9321C56.1938 68.5757 56.4273 68.0924 56.4273 67.5884V61.5008H67.8804ZM67.8804 60.6599H56.4273C56.1672 60.6599 55.9178 60.7485 55.7339 60.9062C55.55 61.0639 55.4467 61.2777 55.4467 61.5008V67.5884C55.4467 67.8716 55.3155 68.1432 55.082 68.3435C54.8484 68.5438 54.5317 68.6563 54.2014 68.6563C53.8711 68.6563 53.5543 68.5438 53.3208 68.3435C53.0873 68.1432 52.9561 67.8716 52.9561 67.5884V61.5008C52.9561 61.2777 52.8527 61.0639 52.6688 60.9062C52.485 60.7485 52.2355 60.6599 51.9755 60.6599H24.4213C24.1612 60.6599 23.9118 60.7485 23.7279 60.9062C23.544 61.0639 23.4407 61.2777 23.4407 61.5008V67.5884C23.4407 67.8694 23.3105 68.1389 23.0788 68.3375C22.8471 68.5362 22.5328 68.6479 22.2052 68.6479C21.8775 68.6479 21.5632 68.5362 21.3315 68.3375C21.0998 68.1389 20.9696 67.8694 20.9696 67.5884V61.5008C20.9696 61.2777 20.8663 61.0639 20.6824 60.9062C20.4985 60.7485 20.2491 60.6599 19.9891 60.6599H8.53591C8.29408 60.6592 8.06083 60.7367 7.88271 60.877C7.70458 61.0173 7.59469 61.21 7.57495 61.4167L0.00489375 123.84C-0.00895236 123.956 0.00666754 124.073 0.0506789 124.184C0.0946902 124.294 0.166048 124.395 0.259844 124.479C0.348963 124.57 0.460158 124.642 0.585553 124.692C0.710948 124.741 0.847477 124.766 0.985471 124.765H38.1101C38.3541 124.766 38.5897 124.689 38.771 124.549C38.9523 124.409 39.0663 124.217 39.0907 124.008L44.2681 82.5385H70.175C70.3109 82.5382 70.4454 82.5143 70.5701 82.468C70.6949 82.4218 70.8073 82.3542 70.9006 82.2694C70.9929 82.1807 71.063 82.0768 71.1069 81.964C71.1507 81.8512 71.1673 81.732 71.1556 81.6135L68.861 61.4335C68.8325 61.2268 68.7173 61.0361 68.5368 60.8968C68.3564 60.7576 68.1231 60.6794 67.8804 60.6767V60.6599Z" fill="#4E4E4E"/>
<path d="M38.0905 124.345C38.0215 124.346 37.9531 124.333 37.8902 124.309C37.8273 124.285 37.7714 124.249 37.7265 124.204C37.6816 124.159 37.6488 124.106 37.6303 124.049C37.6119 123.992 37.6083 123.932 37.6198 123.874L42.8757 81.6471C42.8902 81.5445 42.9481 81.4501 43.0386 81.3819C43.129 81.3137 43.2455 81.2764 43.366 81.2771H84.5502C84.6684 81.2829 84.7809 81.3225 84.8698 81.3896C84.9587 81.4566 85.0188 81.5473 85.0405 81.6471L90.2964 123.874C90.2981 123.996 90.2495 124.115 90.1591 124.21C90.1156 124.254 90.0613 124.288 90.0003 124.311C89.9392 124.335 89.8729 124.346 89.8061 124.345H38.0905Z" fill="white"/>
<path d="M84.6287 81.6975L89.8846 123.924H38.0905L43.366 81.6975H84.5502H84.6287ZM84.5502 80.8567H43.366C43.1221 80.8557 42.8864 80.9326 42.7051 81.0725C42.5238 81.2125 42.4098 81.4053 42.3854 81.6135L37.1295 123.84C37.1118 123.955 37.1236 124.072 37.1643 124.182C37.205 124.293 37.2734 124.394 37.3649 124.479C37.4557 124.568 37.5672 124.639 37.6922 124.688C37.8172 124.738 37.9529 124.764 38.0905 124.765H89.8846C90.0222 124.764 90.1579 124.738 90.2829 124.688C90.4079 124.639 90.5194 124.568 90.6102 124.479C90.7016 124.394 90.7701 124.293 90.8108 124.182C90.8514 124.072 90.8633 123.955 90.8455 123.84L85.5896 81.6135C85.5699 81.4068 85.46 81.2141 85.2819 81.0738C85.1038 80.9335 84.8705 80.856 84.6287 80.8567H84.5502Z" fill="#4E4E4E"/>
<path d="M54.2504 69.5055C53.9586 69.5056 53.6697 69.4557 53.4007 69.359C53.1316 69.2622 52.8877 69.1205 52.6832 68.942C52.4787 68.7635 52.3177 68.5519 52.2097 68.3195C52.1016 68.0871 52.0487 67.8386 52.0539 67.5884V55.0431C52.0539 51.9032 50.5993 48.892 48.01 46.6717C45.4208 44.4515 41.9091 43.2042 38.2474 43.2042C34.5856 43.2042 31.0739 44.4515 28.4847 46.6717C25.8954 48.892 24.4408 51.9032 24.4408 55.0431V67.5884C24.4408 68.0879 24.2094 68.567 23.7975 68.9202C23.3856 69.2734 22.8269 69.4719 22.2443 69.4719C21.6618 69.4719 21.1031 69.2734 20.6912 68.9202C20.2793 68.567 20.0479 68.0879 20.0479 67.5884V55.0431C20.053 50.9011 21.9742 46.93 25.3898 44.0011C28.8055 41.0723 33.4366 39.4249 38.267 39.4204C43.0922 39.4293 47.7162 41.0792 51.1245 44.0081C54.5328 46.9369 56.4469 50.9056 56.4469 55.0431V67.5884C56.4521 67.8386 56.3991 68.0871 56.2911 68.3195C56.183 68.5519 56.0221 68.7635 55.8176 68.942C55.6131 69.1205 55.3692 69.2622 55.1001 69.359C54.831 69.4557 54.5422 69.5056 54.2504 69.5055Z" fill="#F44C81"/>
<path d="M38.2866 39.8408C42.9583 39.8673 47.4298 41.4703 50.7333 44.303C54.0367 47.1357 55.9062 50.97 55.937 54.9759V67.5884C55.8917 67.9516 55.6914 68.2875 55.3746 68.5316C55.0578 68.7757 54.6469 68.9108 54.221 68.9108C53.7951 68.9108 53.3842 68.7757 53.0675 68.5316C52.7507 68.2875 52.5503 67.9516 52.505 67.5884V55.0431C52.505 51.7918 50.9987 48.6735 48.3176 46.3745C45.6364 44.0754 41.9999 42.7838 38.2082 42.7838C34.4164 42.7838 30.78 44.0754 28.0988 46.3745C25.4176 48.6735 23.9114 51.7918 23.9114 55.0431V67.5884C23.9114 67.9764 23.7316 68.3486 23.4116 68.623C23.0917 68.8973 22.6577 69.0515 22.2052 69.0515C21.7527 69.0515 21.3187 68.8973 20.9987 68.623C20.6787 68.3486 20.499 67.9764 20.499 67.5884V55.0431C20.499 51.0291 22.3586 47.1794 25.6687 44.3411C28.9787 41.5027 33.4682 39.9081 38.1494 39.9081L38.2866 39.8408ZM38.1494 39.0673C33.2331 39.1114 28.5342 40.8113 25.0669 43.8002C21.5996 46.7892 19.6419 50.8273 19.6165 55.0431V67.5884C19.6165 68.1994 19.8995 68.7855 20.4034 69.2175C20.9073 69.6496 21.5907 69.8923 22.3032 69.8923C23.0158 69.8923 23.6992 69.6496 24.2031 69.2175C24.7069 68.7855 24.99 68.1994 24.99 67.5884V55.0431C24.99 52.0148 26.393 49.1104 28.8903 46.969C31.3875 44.8276 34.7746 43.6246 38.3063 43.6246C41.8379 43.6246 45.225 44.8276 47.7223 46.969C50.2195 49.1104 51.6225 52.0148 51.6225 55.0431V67.5884C51.7672 68.0924 52.1046 68.5402 52.581 68.8603C53.0574 69.1805 53.6452 69.3544 54.2504 69.3544C54.8557 69.3544 55.4435 69.1805 55.9198 68.8603C56.3962 68.5402 56.7337 68.0924 56.8784 67.5884V55.0431C56.8785 50.8057 54.9235 46.7402 51.4402 43.7345C47.9569 40.7287 43.2283 39.0267 38.2866 39L38.1494 39.0673Z" fill="#4E4E4E"/>
<path d="M64.0169 107.696C60.8961 107.696 57.9032 106.633 55.6965 104.741C53.4897 102.849 52.25 100.282 52.25 97.6061V89.45C52.25 88.9505 52.4814 88.4714 52.8933 88.1182C53.3053 87.765 53.8639 87.5666 54.4465 87.5666C55.029 87.5666 55.5877 87.765 55.9996 88.1182C56.4116 88.4714 56.643 88.9505 56.643 89.45V97.6566C56.5915 98.511 56.7433 99.3655 57.0891 100.168C57.4349 100.971 57.9676 101.704 58.6547 102.325C59.3417 102.945 60.1688 103.439 61.0856 103.777C62.0024 104.114 62.9898 104.288 63.9875 104.288C64.9853 104.288 65.9726 104.114 66.8894 103.777C67.8062 103.439 68.6333 102.945 69.3203 102.325C70.0074 101.704 70.5401 100.971 70.8859 100.168C71.2317 99.3655 71.3835 98.511 71.332 97.6566V89.45C71.3372 88.949 71.573 88.4699 71.988 88.1172C72.403 87.7644 72.9638 87.5665 73.5481 87.5666C73.8398 87.5633 74.1292 87.6108 74.3989 87.7062C74.6686 87.8016 74.9129 87.9429 75.1171 88.1215C75.3284 88.292 75.4966 88.4979 75.6113 88.7264C75.726 88.9549 75.7847 89.2012 75.7838 89.45V97.6566C75.7683 100.324 74.5217 102.877 72.3167 104.759C70.1116 106.64 67.1275 107.696 64.0169 107.696Z" fill="#FF7799"/>
<path d="M73.5874 87.9366C74.0346 87.9385 74.4635 88.0892 74.7837 88.357C75.1026 88.636 75.285 89.009 75.2936 89.3996V97.6062C75.2936 100.171 74.1055 102.63 71.9907 104.444C69.8759 106.257 67.0077 107.276 64.0169 107.276C61.0262 107.276 58.1579 106.257 56.0432 104.444C53.9284 102.63 52.7403 100.171 52.7403 97.6062V89.4501C52.7403 89.062 52.9201 88.6899 53.24 88.4155C53.56 88.1412 53.994 87.987 54.4465 87.987C54.899 87.987 55.333 88.1412 55.653 88.4155C55.973 88.6899 56.1527 89.062 56.1527 89.4501V97.6566C56.1527 98.54 56.3556 99.4147 56.7498 100.231C57.1441 101.047 57.7219 101.788 58.4503 102.413C59.1788 103.038 60.0436 103.533 60.9953 103.871C61.9471 104.209 62.9672 104.383 63.9973 104.383C65.0275 104.383 66.0476 104.209 66.9993 103.871C67.9511 103.533 68.8159 103.038 69.5443 102.413C70.2728 101.788 70.8506 101.047 71.2448 100.231C71.639 99.4147 71.8419 98.54 71.8419 97.6566V89.4501C71.8471 89.0605 72.0312 88.6884 72.3543 88.4145C72.6774 88.1406 73.1134 87.987 73.5678 87.987L73.5874 87.9366ZM73.5678 87.1462C73.2123 87.144 72.8599 87.2018 72.5306 87.3164C72.2012 87.431 71.9014 87.6001 71.6483 87.814C71.3952 88.0279 71.1936 88.2825 71.0553 88.5632C70.9169 88.844 70.8443 89.1453 70.8418 89.4501V97.6566C70.8418 99.2177 70.1186 100.715 68.8313 101.819C67.5441 102.922 65.7982 103.542 63.9777 103.542C62.1573 103.542 60.4114 102.922 59.1241 101.819C57.8369 100.715 57.1137 99.2177 57.1137 97.6566V89.4501C57.1137 88.839 56.8306 88.253 56.3267 87.821C55.8229 87.3889 55.1395 87.1462 54.4269 87.1462C53.7143 87.1462 53.0309 87.3889 52.5271 87.821C52.0232 88.253 51.7401 88.839 51.7401 89.4501V97.6566C51.7401 100.444 53.0315 103.118 55.3302 105.089C57.6288 107.06 60.7465 108.167 63.9973 108.167C67.2481 108.167 70.3658 107.06 72.6645 105.089C74.9632 103.118 76.2545 100.444 76.2545 97.6566V89.4501C76.2617 89.1375 76.194 88.827 76.0557 88.5378C75.9174 88.2486 75.7114 87.9867 75.4505 87.7684C75.1949 87.5469 74.8889 87.3728 74.5515 87.2571C74.2141 87.1414 73.8525 87.0864 73.4893 87.0957L73.5678 87.1462Z" fill="#4E4E4E"/>
<path d="M8.53592 61.5007L0.985474 123.924H5.04506L12.6151 61.5007H8.53592Z" fill="#AAAAAA"/>
<path d="M43.366 81.6975L38.0905 123.924H42.1697L47.4256 81.6975H43.366Z" fill="#E0E0E0"/>
</svg>
