<svg width="111" height="100" viewBox="0 0 111 100" fill="none" xmlns="http://www.w3.org/2000/svg">
<path d="M82.1924 0.185364C94.6232 -1.6708 107.945 10.699 110.476 24.4817C113.008 38.2644 104.947 53.4046 96.094 65.442C87.2411 77.4793 77.9074 86.3862 65.5897 92.4395C53.2721 98.4928 38.1119 101.679 27.8307 96.1656C17.5495 90.6525 12.3735 76.4266 9.31887 63.1149C6.2642 49.8031 5.3874 37.4056 11.9776 32.779C18.5677 28.1525 32.6248 31.1999 45.4092 24.6756C58.1935 18.1514 69.7616 2.05538 82.1924 0.185364Z" fill="#EFEFEF"/>
<path d="M62.2187 64.1817L63.9048 63.2914L74.0541 57.8189L75.2727 57.1607C76.5263 56.4834 77.9926 56.3153 79.3671 56.691C80.7415 57.0668 81.9183 57.9576 82.653 59.1785L58.7348 75.6011C55.5106 77.1977 51.8578 77.7136 48.3175 77.0724L34.4919 74.5252C33.2198 74.2063 31.8741 74.3852 30.7295 75.0254L23.2427 79.7588L18.0108 62.6005L18.0555 62.5867C19.6692 62.289 21.1703 61.5542 22.3953 60.4624L24.6864 58.4239C26.9339 56.7328 29.6039 55.6934 32.4033 55.42C35.2027 55.1465 38.0233 55.6494 40.5556 56.8736L41.5044 57.3325C42.9887 58.0507 44.6163 58.4239 46.2653 58.4239H55.4658C57.092 58.4246 58.6648 59.0044 59.9023 60.0596C61.1398 61.1147 61.961 62.5761 62.2187 64.1817Z" fill="#FFD9C7"/>
<path d="M74.9375 38.4658V45.1586H56.6311V37.5118C56.6334 35.9968 56.1834 34.5156 55.3386 33.2579C56.483 32.3313 57.9021 31.8097 59.3742 31.7747C59.8959 32.4799 60.5716 33.0567 61.35 33.4612C62.1284 33.8657 62.9888 34.0871 63.8657 34.1087C64.7426 34.1302 65.6129 33.9513 66.4102 33.5855C67.2075 33.2198 67.9108 32.6768 68.4664 31.9981C68.5221 31.9208 68.9299 31.0645 69 31C70.7006 31.1051 72.3328 32.2587 73.5 33.5C74.6672 34.7413 74.9372 36.7619 74.9375 38.4658Z" fill="#CCCCCC"/>
<path d="M74.0455 57.8035L74.0541 57.8189L63.9048 63.2914L62.2188 64.1817C61.9692 62.6121 61.1788 61.1791 59.9844 60.1307L66.507 56.6158L68.1673 55.7203C70.2178 54.6805 72.9094 55.8046 74.0455 57.8035Z" fill="#FFD9C7"/>
<path d="M70.5 20.5V23.5C70.5 25.0777 69.2147 26.6841 68.0991 27.7997C66.9835 28.9153 65.4705 29.542 63.8928 29.542C62.3151 29.542 60.1156 29.1156 59 28C57.8844 26.8844 57.9442 25.1711 57.9442 23.5934V20.6183C57.9442 19.0406 58.3844 17.1156 59.5 16C60.6156 14.8844 62.4223 14 64 14C65.5777 14 67.3844 15.2964 68.5 16.412C69.6156 17.5276 70.5 18.9223 70.5 20.5Z" fill="#CCCCCC"/>
<path d="M66.4263 56.4645L66.5071 56.6158L59.9844 60.1306C58.7378 59.028 57.1301 58.4207 55.4658 58.4239H53.4256L58.85 55.4745C60.0454 54.7814 61.4363 54.5027 62.8064 54.6818C64.1766 54.8608 65.4491 55.4875 66.4263 56.4645Z" fill="#FFD9C7"/>
<path d="M55.5 33C56.3448 34.2576 56.6334 35.9969 56.6311 37.5119V48.5566H31.3964V37.5119C31.3958 35.517 32.1751 33.6009 33.5678 32.1725C34.9605 30.7442 36.8563 29.9168 38.8506 29.8669C39.4465 30.6728 40.2186 31.3319 41.1078 31.7941C41.9971 32.2563 42.9802 32.5095 43.9821 32.5342C44.984 32.5589 45.9784 32.3545 46.8893 31.9367C47.8003 31.5188 48.6039 30.8985 49.2388 30.123C49.3029 30.0354 49.3748 29.9537 49.4536 29.879C50.6284 29.9514 51.7706 30.294 52.7914 30.8801C53.8121 31.4662 54.8452 32.0219 55.5 33Z" fill="#FF7799"/>
<path d="M51.5 17V20.398C51.5 22.2004 50.7745 24.2255 49.5 25.5C48.2255 26.7745 45.8024 28 44 28C42.1976 28 39.7745 26.7745 38.5 25.5C37.2255 24.2255 36.5 22.3024 36.5 20.5V17.102C36.5 15.2996 37.7255 13.2745 39 12C40.2745 10.7255 42.1976 9.5 44 9.5C45.8024 9.5 48.2255 10.7255 49.5 12C50.7745 13.2745 51.5 15.1976 51.5 17Z" fill="#FF7799"/>
<path d="M32.3967 33.0534L32.6648 33.2923C31.8355 34.5431 31.3942 36.0111 31.3964 37.5118V45.1586H13.0625V38.4658C13.0625 36.7198 13.7447 35.0431 14.9636 33.793C16.1825 32.543 17.8415 31.8187 19.5869 31.7747C20.1087 32.4799 20.7846 33.0567 21.5631 33.4612C22.3416 33.8657 23.2022 34.0872 24.0792 34.1087C24.9563 34.1302 25.8267 33.9513 26.6241 33.5856C27.4215 33.2198 28.125 32.6769 28.6808 31.9981C28.7362 31.9212 28.7989 31.8498 28.8681 31.785C30.1416 31.8607 31.3665 32.301 32.3967 33.0534Z" fill="white"/>
<path d="M30.0558 20.6183V23.5934C30.0558 25.1711 29.4291 26.6841 28.3135 27.7997C27.1979 28.9153 25.6849 29.542 24.1072 29.542C22.5295 29.542 21.0165 28.9153 19.9009 27.7997C18.7853 26.6841 18.1586 25.1711 18.1586 23.5934V20.6183C18.1586 19.0406 18.7853 17.5276 19.9009 16.412C21.0165 15.2964 22.5295 14.6697 24.1072 14.6697C25.6849 14.6697 27.1979 15.2964 28.3135 16.412C29.4291 17.5276 30.0558 19.0406 30.0558 20.6183Z" fill="white"/>
<path d="M23.2427 79.7587L25.6558 87.6735H9.03891L5.34704 57.396H16.4244L18.0108 62.6004L23.2427 79.7587ZM18.6914 82.3763C18.6914 81.9381 18.5615 81.5098 18.318 81.1455C18.0746 80.7811 17.7286 80.4972 17.3238 80.3295C16.9189 80.1618 16.4735 80.1179 16.0437 80.2034C15.614 80.2889 15.2192 80.4999 14.9094 80.8097C14.5995 81.1196 14.3885 81.5143 14.303 81.9441C14.2176 82.3739 14.2614 82.8193 14.4291 83.2241C14.5968 83.629 14.8808 83.975 15.2451 84.2184C15.6094 84.4618 16.0378 84.5918 16.4759 84.5918C16.7669 84.5918 17.055 84.5345 17.3238 84.4232C17.5926 84.3119 17.8368 84.1487 18.0426 83.9429C18.2483 83.7372 18.4115 83.493 18.5228 83.2242C18.6341 82.9554 18.6914 82.6673 18.6914 82.3763Z" fill="#FF7799"/>
<path d="M16.4759 84.5918C17.6995 84.5918 18.6914 83.5999 18.6914 82.3764C18.6914 81.1528 17.6995 80.1609 16.4759 80.1609C15.2524 80.1609 14.2605 81.1528 14.2605 82.3764C14.2605 83.5999 15.2524 84.5918 16.4759 84.5918Z" fill="white"/>
<path d="M74.7828 56.253L74.3753 56.4729C72.7291 54.4729 69.8753 53.6979 67.701 54.8002L67.6782 54.8122L66 56C64.8522 55.028 63.998 54.6353 62.5 54.5C61.002 54.3647 59.8034 54.7493 58.5 55.4999L54.1115 58.5H46.36C44.8669 58.498 42.8449 58.0412 41.5 57.3926L40.5507 56.9333C37.8495 55.6198 35.4894 55.2079 32.5 55.5C29.5106 55.7921 26.9612 56.6348 24.5653 58.4463C24.543 58.4635 24.521 58.4807 24.5 58.5L22 60.5C21.135 61.2692 20.109 62.1681 19 62.5L17.4109 57.0952C17.3465 56.8839 17.2158 56.6988 17.0382 56.5673C16.8607 56.4358 16.6455 56.3648 16.4245 56.3648H5.34703C5.20107 56.3648 5.05677 56.3957 4.92368 56.4557C4.79058 56.5156 4.67172 56.6031 4.57496 56.7123C4.47819 56.8216 4.40573 56.9502 4.36235 57.0895C4.31898 57.2289 4.30568 57.3759 4.32334 57.5208L8.01522 87.7983C8.0457 88.0483 8.16664 88.2786 8.35523 88.4456C8.54382 88.6126 8.78701 88.7048 9.0389 88.7048H25.6558C25.8169 88.7048 25.9758 88.667 26.1198 88.5945C26.2637 88.522 26.3886 88.4167 26.4845 88.2872C26.5804 88.1577 26.6446 88.0075 26.672 87.8487C26.6994 87.6899 26.6892 87.5269 26.6422 87.3727L24.4594 80.21L31.257 75.9131C32.1671 75.4101 33.2344 75.2719 34.2427 75.5264C34.2636 75.5316 34.2846 75.5362 34.3059 75.54L48.1346 78.0879C51.8931 78.7599 55.7681 78.2126 59.1934 76.5259C59.2372 76.5043 59.2794 76.4796 59.3196 76.452L83.2375 60.0293C83.4542 59.8805 83.6059 59.6546 83.6616 59.3978C83.7173 59.1409 83.6728 58.8724 83.5373 58.6473C82.6677 57.197 81.2718 56.1384 79.6408 55.6923C78.0097 55.2463 76.2694 55.4471 74.7828 56.253ZM69 54.8122C70.5 54.5 73.5 55.5 74 57L63.4226 62.3794L62.892 62.6595C62.6055 61.8442 61.5341 60.1794 61 59.5L69 54.8122ZM59 56C59.0081 55.9955 59.0172 55.9909 59.0244 55.9861C59.8368 55.5164 61.0617 54.9912 62 55C62.9383 55.0088 65.2689 55.4349 65 56.5L60 59C57 58.5 57 59 55.5 58.5L59 56ZM9.0389 87.5L5.5 57.5H16.5L25.5 87.5H9.0389ZM58.5 75.5C55.4883 76.966 51.432 77.4554 48.1346 76.8664L34.3059 74.3127C32.7883 73.9389 31.91 74.2067 30.5471 74.9718C30.5313 74.9807 30.5155 74.99 30.5 75L24 79L19.3141 63.3401C20.7079 62.9203 21.9932 62.2011 23.0801 61.2328L25.339 59.2229C27.4314 57.6504 29.9171 56.6856 32.5225 56.4349C35.1279 56.1842 37.752 56.6572 40.1058 57.8018L41.0546 58.2609C42.6798 59.0445 44.4604 59.4526 46.2646 59.4551H57.2946C58.6472 59.4558 59.4584 59.6372 60.5 60.5C61.5416 61.3628 62.2475 64.1713 62.5 65.5L54.2142 65.2653C51.7899 65.1565 49.8519 64.6493 47.4481 64.9813C47.3132 64.999 47.1832 65.0433 47.0655 65.1115C46.9478 65.1797 46.8447 65.2705 46.7623 65.3787C46.6798 65.4869 46.6196 65.6104 46.5851 65.7419C46.5505 65.8735 46.5423 66.0106 46.36 65.3787C46.3787 65.5135 46.4239 65.6432 46.4929 65.7604C46.5619 65.8776 46.6535 65.98 46.7623 66.0617C46.871 66.1434 46.9949 66.2027 47.1267 66.2364C47.2585 66.27 47.3957 66.2772 47.5303 66.2575C49.8095 65.9423 52.1126 65.836 54.4112 65.9397L62.2574 66.2955C62.2729 66.2955 62.2884 66.2966 62.304 66.2966C62.5775 66.2966 62.8398 66.1879 63.0332 65.9945C63.2266 65.8011 63.3352 65.5388 63.3352 65.2653C63.3352 65.0991 62.9025 63.7723 62.892 63.607L64 63L76 56.5C76.8727 56.0267 78.3091 56.096 79.2894 56.253C80.2697 56.4101 82.5006 57.3745 83.2375 59.2723L58.5 75.5Z" fill="#4E4E4E"/>
<path d="M13.2292 82.3764C13.2292 83.0185 13.4196 83.6462 13.7764 84.1801C14.1332 84.7141 14.6402 85.1302 15.2335 85.3759C15.8267 85.6217 16.4795 85.686 17.1093 85.5607C17.7391 85.4354 18.3177 85.1262 18.7717 84.6721C19.2258 84.2181 19.535 83.6396 19.6603 83.0098C19.7856 82.38 19.7213 81.7272 19.4755 81.1339C19.2298 80.5406 18.8136 80.0336 18.2797 79.6768C17.7458 79.3201 17.1181 79.1296 16.4759 79.1296C15.6152 79.1306 14.7899 79.473 14.1812 80.0816C13.5726 80.6903 13.2302 81.5156 13.2292 82.3764ZM16.4759 81.1921C16.7102 81.1921 16.9391 81.2616 17.1339 81.3917C17.3286 81.5218 17.4804 81.7068 17.57 81.9232C17.6597 82.1396 17.6831 82.3777 17.6374 82.6074C17.5917 82.8371 17.4789 83.0481 17.3133 83.2137C17.1477 83.3793 16.9367 83.4921 16.707 83.5378C16.4773 83.5835 16.2392 83.5601 16.0228 83.4704C15.8064 83.3808 15.6214 83.229 15.4913 83.0343C15.3612 82.8395 15.2917 82.6106 15.2917 82.3764C15.2922 82.0624 15.4171 81.7615 15.6391 81.5395C15.8611 81.3175 16.162 81.1926 16.4759 81.1921Z" fill="#4E4E4E"/>
<path d="M51.8409 20.5203V17.1224C51.8409 15.0465 51.0163 13.0556 49.5484 11.5877C48.0805 10.1198 46.0896 9.29517 44.0137 9.29517C41.9378 9.29517 39.947 10.1198 38.4791 11.5877C37.0112 13.0556 36.1866 15.0465 36.1866 17.1224V20.5203C36.1866 22.5962 37.0112 24.5871 38.4791 26.055C39.947 27.5229 41.9378 28.3475 44.0137 28.3475C46.0896 28.3475 48.0805 27.5229 49.5484 26.055C51.0163 24.5871 51.8409 22.5962 51.8409 20.5203ZM37 20.5203V17C37.5 13.5 38.7484 12.2516 39 12C39.2516 11.7484 41.4862 10 44 10C46.5137 10 47.9189 10.9189 49 12C50.0811 13.0811 51 15.4711 51 17V20.5C51 22.0289 50.2518 24.2482 49.5 25C48.4189 26.0811 45.5426 27.5 44.0137 27.5C42.4849 27.5 41.5 27.5 39 25.5C37.9189 24.4189 37 22.0492 37 20.5203Z" fill="#4E4E4E"/>
<path d="M31.4277 49.4999H56.6623C56.9358 49.4999 57.1982 49.3912 57.3915 49.1978C57.5849 49.0044 57.6936 48.7421 57.6936 48.4686V46.1019H74.9688C75.2423 46.1019 75.5046 45.9932 75.698 45.7998C75.8914 45.6065 76 45.3441 76 45.0706V38.3778C75.998 36.4118 75.2472 34.5202 73.9003 33.088C72.5534 31.6557 70.7115 30.7903 68.7493 30.6677C68.7285 30.6665 68.7075 30.6658 68.6867 30.6658C68.179 30.6658 67.9227 30.9819 67.7005 31.2558C67.2444 31.8134 66.667 32.2594 66.0123 32.5599C65.3576 32.8604 64.643 33.0075 63.9229 32.9899C63.2028 32.9723 62.4962 32.7905 61.8569 32.4584C61.2177 32.1263 60.6628 31.6526 60.2344 31.0735C60.1361 30.9402 60.0071 30.8327 59.8584 30.76C59.7096 30.6873 59.5455 30.6515 59.38 30.6558C58.0408 30.6855 56.7328 31.0667 55.5873 31.7612C54.8296 30.886 53.9056 30.1702 52.8689 29.6552C51.8322 29.1403 50.7035 28.8365 49.5484 28.7616C49.5275 28.7604 49.5067 28.7597 49.4855 28.7597C48.978 28.7597 48.7198 29.0775 48.4734 29.381C47.938 30.0352 47.2603 30.5584 46.4921 30.911C45.7238 31.2635 44.8852 31.436 44.0402 31.4152C43.1951 31.3945 42.366 31.1812 41.6159 30.7914C40.8659 30.4016 40.2147 29.8458 39.712 29.1662C39.6141 29.0323 39.4851 28.9242 39.336 28.8513C39.187 28.7785 39.0224 28.743 38.8566 28.748C37.6436 28.7799 36.4507 29.0654 35.3546 29.5861C34.2585 30.1067 33.2835 30.851 32.4924 31.7711C31.423 31.1213 30.2111 30.7426 28.9619 30.6677C28.9413 30.6665 28.9207 30.6658 28.9001 30.6658C28.3934 30.6658 28.1371 30.9822 27.9156 31.2557C27.4593 31.8132 26.8817 32.2593 26.2269 32.5598C25.5721 32.8603 24.8574 33.0074 24.1371 32.9898C23.4169 32.9722 22.7102 32.7905 22.0708 32.4584C21.4314 32.1263 20.8763 31.6526 20.4478 31.0735C20.3495 30.9403 20.2205 30.8327 20.0717 30.76C19.923 30.6873 19.7589 30.6516 19.5934 30.6558C17.5789 30.7065 15.664 31.5422 14.2571 32.9848C12.8501 34.4275 12.0626 36.3627 12.0625 38.3778V45.0706C12.0625 45.3441 12.1711 45.6065 12.3645 45.7998C12.5579 45.9932 12.8202 46.1019 13.0938 46.1019H30.3964V48.4686C30.3964 48.7421 30.5051 49.0044 30.6985 49.1978C30.8918 49.3912 31.1542 49.4999 31.4277 49.4999ZM64.2486 34.0181C65.2074 34.0191 66.1555 33.8168 67.0303 33.4244C67.9051 33.0319 69.0743 31.1811 69.5 31.5C70.8412 31.702 73.0299 32.5599 74.5 35.5C75.068 36.636 74.9674 37.1437 74.9688 38.5V45.0706H57.6936V37.4239C57.6952 36.0508 56.6261 33.722 56 32.5C56.6734 32.1078 57.7254 31.5853 58.5 31.5C59.3456 31.1917 60.5689 33.0247 61.4486 33.4221C62.3283 33.8195 63.2833 34.0228 64.2486 34.0181ZM38.8566 29.9121C39.5695 30.7376 40.04 31.306 41.0312 31.7612C42.0225 32.2163 43.1 32.4533 44.1907 32.4559C45.2815 32.4586 46.3601 32.227 47.3536 31.7767C48.3471 31.3264 48.8315 30.7341 49.5484 29.9121C50.4727 30.0422 52.0773 30.4165 52.8689 30.911C53.6606 31.4054 54.6533 31.9774 55.1758 32.7508C55.1779 32.7543 55.1801 32.7577 55.1825 32.761C55.9106 33.8476 56.7452 36.1159 56.7433 37.4239L56.6623 48.4686H31.5V37.5C31.5 34.4624 32.9002 33.2164 34 32C35.0998 30.7836 37.225 30.0763 38.8566 29.9121ZM13.0938 45L13 38C13 35.5 13.9096 35.0082 15.144 33.6268C16.3784 32.2454 18.0934 31.7711 19.5934 31.7711C20.2293 32.4926 20.4731 32.9972 21.3491 33.3941C22.2251 33.791 23.1754 33.9976 24.1371 34C25.0989 34.0024 26.0502 33.8007 26.9282 33.4082C27.8062 33.0157 28.3605 32.2183 29 31.5C29.7102 31.6058 31.3805 32.137 32 32.5C31.3785 33.7192 30.3959 36.0555 30.3973 37.4239V45H13.0938Z" fill="#4E4E4E"/>
<path d="M70.8727 23.5934V20.6183C70.8727 18.7671 70.1373 16.9918 68.8283 15.6828C67.5193 14.3738 65.744 13.6384 63.8928 13.6384C62.0416 13.6384 60.2663 14.3738 58.9573 15.6828C57.6483 16.9918 57 18.6488 57 20.5V24C57 25.8512 57.6483 27.2199 58.9573 28.5289C60.2663 29.8379 62.0416 30.5733 63.8928 30.5733C65.744 30.5733 67.5193 29.8379 68.8283 28.5289C70.1373 27.2199 70.8727 25.4446 70.8727 23.5934ZM58 24V20.6183C58 19.3141 58.0843 17.5597 60 16C60.9222 15.0778 62.5886 14.5 63.8928 14.5C65.197 14.5 67.5778 15.5778 68.5 16.5C69.4222 17.4222 70 19.3141 70 20.6183V24C70 25.3042 68.9222 27.0778 68 28C67.0778 28.9222 65.197 29.5 63.8928 29.5C62.5886 29.5 60.4222 28.9222 59.5 28C58.5778 27.0778 58 25.3042 58 24Z" fill="#4E4E4E"/>
<path d="M31.087 23.5934V20.6183C31.087 18.7671 30.3517 16.9918 29.0427 15.6828C27.7337 14.3738 25.9584 13.6384 24.1072 13.6384C22.256 13.6384 20.4807 14.3738 19.1717 15.6828C17.8627 16.9918 17.1273 18.7671 17.1273 20.6183V23.5934C17.1273 25.4446 17.8627 27.2199 19.1717 28.5289C20.4807 29.8379 22.256 30.5733 24.1072 30.5733C25.9584 30.5733 27.7337 29.8379 29.0427 28.5289C30.3517 27.2199 31.087 25.4446 31.087 23.5934ZM18 23.5V20C18 18.6958 19.0778 16.9222 20 16C20.9222 15.0778 22.803 14.5 24.1072 14.5C25.4114 14.5 27.0778 15.0778 28 16C28.9222 16.9222 30 18 30 20.6183V23.5C30 26 28.9222 27.0778 28 28C27.0778 28.9222 25.4114 29.5 24.1072 29.5C22.803 29.5 20.9222 28.9222 20 28C19.0778 27.0778 18 25.5 18 23.5Z" fill="#4E4E4E"/>
</svg>
