<svg width="104" height="99" viewBox="0 0 104 99" fill="none" xmlns="http://www.w3.org/2000/svg">
<path d="M82.2259 80.0123C73.7922 87.713 63.3435 93.2971 51.8814 96.2294C39.5949 99.5657 24.9998 100.784 16.2238 94.7789C7.44776 88.7736 4.60148 75.5011 3.2574 63.6211C1.91332 51.7411 2.11889 41.1811 7.27382 33.8993C12.4288 26.6176 22.5963 22.5996 33.2066 15.956C43.8169 9.31253 54.8542 0 65.7491 0C76.6441 0 87.3176 9.12396 93.2948 19.684C98.9381 29.8779 100.665 41.5208 98.1967 52.7275C95.8806 63.0542 90.3302 72.5366 82.2259 80.0123Z" fill="#EFEFEF"/>
<path d="M72.0584 78.8808C71.9536 78.8808 71.853 78.8426 71.7789 78.7746C71.7047 78.7066 71.6631 78.6144 71.6631 78.5182V39.8465C71.6631 39.7503 71.7047 39.6581 71.7789 39.5901C71.853 39.5221 71.9536 39.4839 72.0584 39.4839H90.4011C91.8612 39.4867 93.291 39.8663 94.527 40.5794C95.763 41.2926 96.7552 42.3103 97.3903 43.5164L102.814 53.6703C103.341 54.6489 103.611 55.7266 103.605 56.818V75.0224C103.596 76.0458 103.148 77.025 102.358 77.7474C101.568 78.4698 100.498 78.877 99.3827 78.8808H72.0584Z" fill="#FF7799"/>
<path d="M90.4011 39.8466C91.7835 39.8522 93.137 40.2107 94.3099 40.8819C95.4829 41.5531 96.429 42.5106 97.0424 43.6471L102.466 53.6703C102.963 54.6 103.218 55.623 103.209 56.6585V75.0224C103.205 75.9509 102.8 76.8401 102.083 77.4952C101.366 78.1504 100.395 78.5183 99.3827 78.5183H72.0584V39.8466H90.4011ZM90.4011 39.1213H72.0584C71.8487 39.1213 71.6476 39.1978 71.4993 39.3338C71.3511 39.4698 71.2678 39.6543 71.2678 39.8466V78.5183C71.2678 78.7106 71.3511 78.8951 71.4993 79.0311C71.6476 79.1671 71.8487 79.2435 72.0584 79.2435H99.3827C100.601 79.2398 101.768 78.7963 102.632 78.009C103.496 77.2218 103.988 76.1541 104 75.0369V56.702C104.005 55.5502 103.718 54.4131 103.162 53.3802L97.754 43.3134C97.071 42.0625 96.0208 41.0114 94.7217 40.2785C93.4226 39.5455 91.9262 39.1598 90.4011 39.1649V39.1213Z" fill="#4E4E4E"/>
<path d="M79.6485 61.1696C79.3676 61.1754 79.0882 61.1299 78.8267 61.0357C78.5652 60.9415 78.3267 60.8006 78.1251 60.621C77.9235 60.4415 77.7628 60.227 77.6524 59.99C77.5421 59.7529 77.4842 59.4982 77.4821 59.2404V46.7802C77.48 46.5263 77.533 46.2746 77.6379 46.0396C77.7429 45.8047 77.8977 45.5913 78.0934 45.4117C78.2891 45.2322 78.5218 45.0902 78.7779 44.9939C79.034 44.8976 79.3085 44.849 79.5852 44.851H90.3537C90.7137 44.8469 91.0675 44.9376 91.373 45.1125C91.6785 45.2873 91.923 45.5389 92.0773 45.8373L97.2638 55.498C97.5425 56.0119 97.6886 56.5777 97.6908 57.1516V59.5595C97.6908 59.9866 97.5058 60.3961 97.1767 60.6981C96.8475 61 96.4011 61.1696 95.9355 61.1696H79.6485Z" fill="white"/>
<path d="M90.4011 45.2136C90.6865 45.2073 90.9677 45.2782 91.2095 45.4175C91.4513 45.5568 91.6431 45.7583 91.761 45.9969L96.9634 55.6575C97.1994 56.1113 97.3287 56.6055 97.3429 57.1081V59.516C97.345 59.6803 97.3112 59.8434 97.2437 59.9957C97.1761 60.1479 97.076 60.2862 96.9493 60.4024C96.8226 60.5186 96.6718 60.6105 96.5059 60.6725C96.3399 60.7345 96.1621 60.7654 95.983 60.7635H79.6485C79.1941 60.7635 78.758 60.5989 78.4353 60.3055C78.1125 60.0121 77.929 59.6137 77.9249 59.1969V46.7802C77.9249 46.3647 78.1048 45.9662 78.4251 45.6724C78.7453 45.3786 79.1797 45.2136 79.6327 45.2136H90.4011ZM90.4011 44.4883H79.6327C78.97 44.4883 78.3346 44.7298 77.866 45.1596C77.3975 45.5894 77.1342 46.1723 77.1342 46.7802V59.2404C77.1384 59.8495 77.4052 60.4325 77.8762 60.8619C78.3473 61.2913 78.9844 61.5323 79.6485 61.5322H95.983C96.5533 61.5322 97.1003 61.3244 97.5036 60.9544C97.9069 60.5845 98.1335 60.0827 98.1335 59.5595V57.1516C98.1286 56.5235 97.9719 55.9043 97.6749 55.3384L92.4725 45.6777C92.2847 45.3205 91.9905 45.0192 91.624 44.8088C91.2574 44.5983 90.8335 44.4872 90.4011 44.4883Z" fill="#4E4E4E"/>
<path d="M3.68436 78.8664C2.81206 78.8664 1.97548 78.5485 1.35866 77.9827C0.741847 77.4169 0.395325 76.6495 0.395325 75.8493V69.0172C0.395325 68.921 0.436974 68.8288 0.51111 68.7608C0.585247 68.6927 0.685797 68.6545 0.790642 68.6545H72.0584C72.1632 68.6545 72.2638 68.6927 72.3379 68.7608C72.4121 68.8288 72.4537 68.921 72.4537 69.0172V78.5038C72.4537 78.5999 72.4121 78.6922 72.3379 78.7602C72.2638 78.8282 72.1632 78.8664 72.0584 78.8664H3.68436Z" fill="#CCCCCC"/>
<path d="M72.0584 69.0173V78.5039H3.68436C3.30376 78.5058 2.92653 78.4384 2.5745 78.3057C2.22247 78.173 1.90264 77.9775 1.63351 77.7307C1.36438 77.4838 1.15131 77.1904 1.00663 76.8675C0.861954 76.5445 0.788537 76.1985 0.790634 75.8494V69.0173H72.0584ZM72.0584 68.292H0.790634C0.580945 68.292 0.379844 68.3684 0.231571 68.5044C0.0832987 68.6404 0 68.8249 0 69.0173L0 75.8494C0 76.7457 0.388172 77.6054 1.07912 78.2392C1.77007 78.873 2.7072 79.2291 3.68436 79.2291H72.0584C72.2681 79.2291 72.4692 79.1527 72.6175 79.0167C72.7657 78.8807 72.849 78.6962 72.849 78.5039V69.0173C72.849 68.8249 72.7657 68.6404 72.6175 68.5044C72.4692 68.3684 72.2681 68.292 72.0584 68.292Z" fill="#4E4E4E"/>
<path d="M86.1 88.3674C92.0298 88.3674 96.8369 83.9578 96.8369 78.5182C96.8369 73.0786 92.0298 68.6689 86.1 68.6689C80.1703 68.6689 75.3632 73.0786 75.3632 78.5182C75.3632 83.9578 80.1703 88.3674 86.1 88.3674Z" fill="white"/>
<path d="M86.1001 69.0317C88.1499 69.0288 90.1546 69.584 91.8602 70.6268C93.5659 71.6697 94.8959 73.1535 95.6817 74.8901C96.4676 76.6268 96.6741 78.5384 96.2749 80.3828C95.8758 82.2272 94.889 83.9214 93.4396 85.251C91.9901 86.5807 90.1432 87.4859 88.1326 87.852C86.122 88.2181 84.0382 88.0288 82.145 87.3079C80.2518 86.5869 78.6344 85.3669 77.4975 83.8022C76.3606 82.2376 75.7555 80.3986 75.7586 78.5183C75.7586 76.0023 76.8481 73.5893 78.7875 71.8102C80.7269 70.0311 83.3573 69.0317 86.1001 69.0317ZM86.1001 68.3064C83.9109 68.3064 81.7708 68.9019 79.9505 70.0176C78.1303 71.1333 76.7115 72.7192 75.8738 74.5745C75.036 76.4299 74.8168 78.4715 75.2439 80.4412C75.671 82.4108 76.7252 84.2201 78.2732 85.6401C79.8212 87.0601 81.7935 88.0272 83.9406 88.419C86.0878 88.8108 88.3134 88.6097 90.3359 87.8412C92.3585 87.0726 94.0872 85.7712 95.3035 84.1014C96.5198 82.4316 97.1689 80.4685 97.1689 78.4602C97.1482 75.7731 95.9754 73.2015 93.9041 71.3014C91.8327 69.4013 89.0293 68.3254 86.1001 68.3064Z" fill="#4E4E4E"/>
<path d="M86.1 82.7829C85.1812 82.78 84.284 82.5275 83.5216 82.0571C82.7591 81.5868 82.1657 80.9197 81.8163 80.1402C81.4668 79.3607 81.377 78.5037 81.5582 77.6774C81.7393 76.8511 82.1834 76.0926 82.8341 75.4976C83.4849 74.9027 84.3133 74.4979 85.2147 74.3346C86.1161 74.1712 87.05 74.2565 87.8985 74.5797C88.7471 74.9029 89.4722 75.4495 89.9824 76.1505C90.4925 76.8515 90.7648 77.6754 90.7648 78.5183C90.7648 79.0795 90.644 79.6353 90.4094 80.1536C90.1748 80.672 89.8309 81.1427 89.3976 81.5389C88.9642 81.9351 88.4498 82.249 87.884 82.4624C87.3181 82.6759 86.7119 82.7848 86.1 82.7829Z" fill="#CCCCCC"/>
<path d="M86.1 74.6162C86.9413 74.6162 87.7637 74.845 88.4632 75.2738C89.1627 75.7025 89.7079 76.3119 90.0299 77.0249C90.3518 77.7379 90.436 78.5225 90.2719 79.2794C90.1078 80.0363 89.7027 80.7316 89.1078 81.2773C88.5129 81.823 87.755 82.1946 86.9299 82.3452C86.1047 82.4957 85.2495 82.4184 84.4722 82.1231C83.695 81.8278 83.0307 81.3277 82.5633 80.686C82.0959 80.0443 81.8464 79.2899 81.8464 78.5182C81.8506 77.4845 82.3001 76.4942 83.0969 75.7633C83.8937 75.0323 84.9732 74.62 86.1 74.6162ZM86.1 73.8909C85.1031 73.8938 84.1294 74.1676 83.3019 74.6778C82.4745 75.188 81.8304 75.9116 81.451 76.7574C81.0717 77.6032 80.974 78.5331 81.1705 79.4297C81.3669 80.3264 81.8485 81.1495 82.5546 81.7952C83.2607 82.4409 84.1595 82.8802 85.1376 83.0575C86.1156 83.2349 87.129 83.1424 88.0498 82.7918C88.9706 82.4411 89.7575 81.848 90.3111 81.0874C90.8646 80.3268 91.1601 79.4327 91.1601 78.5182C91.1601 77.9093 91.0291 77.3064 90.7746 76.744C90.5201 76.1817 90.1472 75.6709 89.6771 75.241C89.207 74.8112 88.6491 74.4706 88.0352 74.2389C87.4214 74.0073 86.7638 73.889 86.1 73.8909Z" fill="#4E4E4E"/>
<path d="M3.95317 75.8492V69.0171H0.790632V75.8492C0.788535 76.1983 0.861952 76.5444 1.00663 76.8673C1.15131 77.1902 1.36438 77.4836 1.63351 77.7305C1.90263 77.9774 2.22247 78.1728 2.5745 78.3055C2.92653 78.4383 3.30376 78.5056 3.68435 78.5037H6.84689C6.46629 78.5056 6.08906 78.4383 5.73703 78.3055C5.385 78.1728 5.06517 77.9774 4.79604 77.7305C4.52692 77.4836 4.31385 77.1902 4.16917 76.8673C4.02449 76.5444 3.95107 76.1983 3.95317 75.8492Z" fill="#AAAAAA"/>
<path d="M0.790642 69.3797C0.685797 69.3797 0.585247 69.3415 0.51111 69.2735C0.436974 69.2055 0.395325 69.1133 0.395325 69.0171V19.6984C0.395318 18.4968 0.914597 17.3442 1.83937 16.4931C2.76414 15.6421 4.01897 15.162 5.32888 15.1582H67.536C68.8459 15.162 70.1007 15.6421 71.0255 16.4931C71.9502 17.3442 72.4695 18.4968 72.4695 19.6984V69.0171C72.4695 69.1133 72.4279 69.2055 72.3537 69.2735C72.2796 69.3415 72.1791 69.3797 72.0742 69.3797H0.790642Z" fill="white"/>
<path d="M67.536 15.4919C68.7396 15.4919 69.8939 15.9305 70.745 16.7112C71.5961 17.4919 72.0742 18.5508 72.0742 19.655V68.9736H0.790634V19.655C0.790634 18.5508 1.26877 17.4919 2.11985 16.7112C2.97094 15.9305 4.12526 15.4919 5.32887 15.4919H67.536ZM67.536 14.7666H5.32887C4.62908 14.7666 3.93613 14.893 3.2896 15.1387C2.64307 15.3844 2.05562 15.7444 1.56079 16.1984C1.06596 16.6523 0.673437 17.1912 0.405636 17.7843C0.137835 18.3773 0 19.013 0 19.655L0 68.9736C0 69.166 0.0832987 69.3505 0.231571 69.4865C0.379844 69.6225 0.580945 69.6989 0.790634 69.6989H72.0584C72.2683 69.6953 72.4689 69.6182 72.6188 69.4834C72.7688 69.3485 72.8568 69.1661 72.8648 68.9736V19.655C72.8648 18.3585 72.3034 17.1151 71.304 16.1984C70.3047 15.2816 68.9493 14.7666 67.536 14.7666Z" fill="#4E4E4E"/>
<path d="M43.2477 39.2954C42.9729 39.2949 42.7021 39.2353 42.457 39.1213L35.3571 35.7416C35.227 35.674 35.0797 35.639 34.9302 35.64C34.7803 35.636 34.6322 35.6712 34.5033 35.7416L27.3875 39.1649C27.1431 39.2804 26.8719 39.3401 26.5969 39.3389C26.156 39.3356 25.7327 39.1803 25.411 38.9038C25.2406 38.7567 25.1049 38.5791 25.0124 38.382C24.9199 38.1849 24.8726 37.9724 24.8733 37.7578V15.4774C24.8733 15.3812 24.915 15.289 24.9891 15.221C25.0633 15.153 25.1638 15.1147 25.2686 15.1147H44.5759C44.6808 15.1147 44.7813 15.153 44.8555 15.221C44.9296 15.289 44.9712 15.3812 44.9712 15.4774V37.7143C44.9712 38.1336 44.7897 38.5358 44.4664 38.8323C44.1432 39.1288 43.7048 39.2954 43.2477 39.2954Z" fill="#FF7799"/>
<path d="M44.5759 15.4919V37.7143C44.5759 38.0375 44.436 38.3474 44.1869 38.5759C43.9378 38.8044 43.6 38.9328 43.2477 38.9328C43.039 38.9326 42.8333 38.8879 42.6468 38.8022L35.5311 35.4224C35.3484 35.3259 35.141 35.2759 34.9302 35.2774C34.7142 35.274 34.5011 35.3241 34.3135 35.4224L27.2136 38.8022C27.021 38.8867 26.8104 38.9313 26.5969 38.9328C26.2501 38.9252 25.9204 38.7935 25.6781 38.5658C25.4358 38.3381 25.3002 38.0325 25.3003 37.7143V15.4919H44.5759ZM44.5759 14.7666H25.3003C25.0906 14.7666 24.8895 14.843 24.7412 14.979C24.5929 15.115 24.5096 15.2995 24.5096 15.4919V37.7143C24.5096 38.2298 24.7329 38.7242 25.1303 39.0887C25.5276 39.4532 26.0666 39.658 26.6285 39.658C26.9648 39.6601 27.2963 39.5854 27.5931 39.4405L34.7088 36.0607C34.7915 36.0389 34.8792 36.0389 34.9618 36.0607C35.0394 36.0409 35.1214 36.0409 35.199 36.0607L42.3147 39.4405C42.6123 39.5837 42.9433 39.6583 43.2793 39.658C43.8358 39.6504 44.3666 39.4423 44.7572 39.0786C45.1477 38.7149 45.3666 38.2248 45.3666 37.7143V15.4919C45.3666 15.2995 45.2833 15.115 45.135 14.979C44.9867 14.843 44.7856 14.7666 44.5759 14.7666Z" fill="#4E4E4E"/>
<path d="M22.0271 55.5996H5.89814C5.65071 55.5996 5.41341 55.6898 5.23845 55.8503C5.06349 56.0108 4.9652 56.2285 4.9652 56.4554C4.96305 56.5684 4.98572 56.6805 5.03185 56.7853C5.07798 56.89 5.14662 56.9851 5.23368 57.065C5.32074 57.1448 5.42444 57.2078 5.5386 57.2501C5.65276 57.2924 5.77504 57.3132 5.89814 57.3113H22.0271C22.2745 57.3113 22.5118 57.2211 22.6868 57.0606C22.8617 56.9001 22.96 56.6824 22.96 56.4554C22.96 56.2285 22.8617 56.0108 22.6868 55.8503C22.5118 55.6898 22.2745 55.5996 22.0271 55.5996Z" fill="#4E4E4E"/>
<path d="M22.0271 60.923H5.89813C5.66959 60.9503 5.45967 61.0529 5.30757 61.2117C5.15548 61.3705 5.07159 61.5747 5.07159 61.7861C5.07159 61.9975 5.15548 62.2017 5.30757 62.3605C5.45967 62.5193 5.66959 62.6219 5.89813 62.6492H22.0271C22.1609 62.6651 22.2968 62.6547 22.4259 62.6186C22.5549 62.5826 22.6741 62.5216 22.7755 62.44C22.8768 62.3583 22.958 62.2577 23.0137 62.145C23.0693 62.0322 23.0981 61.9099 23.0981 61.7861C23.0981 61.6623 23.0693 61.54 23.0137 61.4273C22.958 61.3145 22.8768 61.2139 22.7755 61.1322C22.6741 61.0506 22.5549 60.9897 22.4259 60.9536C22.2968 60.9175 22.1609 60.9071 22.0271 60.923Z" fill="#4E4E4E"/>
<path d="M8.49139 15.4919H5.32886C4.12524 15.4919 2.97092 15.9306 2.11984 16.7113C1.26875 17.492 0.790619 18.5509 0.790619 19.655V68.9737H3.95316V19.655C3.95316 18.5509 4.43129 17.492 5.28237 16.7113C6.13346 15.9306 7.28778 15.4919 8.49139 15.4919Z" fill="#E0E0E0"/>
<path d="M16.2554 88.3674C22.1852 88.3674 26.9922 83.9578 26.9922 78.5182C26.9922 73.0786 22.1852 68.6689 16.2554 68.6689C10.3256 68.6689 5.51862 73.0786 5.51862 78.5182C5.51862 83.9578 10.3256 88.3674 16.2554 88.3674Z" fill="white"/>
<path d="M16.2554 69.0317C18.3046 69.0317 20.3077 69.5893 22.0113 70.6339C23.7149 71.6785 25.0424 73.1633 25.8258 74.9002C26.6093 76.6372 26.8135 78.5483 26.4126 80.3917C26.0116 82.2351 25.0236 83.928 23.5735 85.2562C22.1235 86.5844 20.2765 87.4881 18.2663 87.8531C16.2562 88.218 14.1732 88.0278 12.2809 87.3065C10.3886 86.5851 8.77213 85.3651 7.63596 83.8007C6.49979 82.2364 5.895 80.398 5.89813 78.5183C5.89813 77.2712 6.16614 76.0365 6.68684 74.8845C7.20754 73.7326 7.9707 72.6862 8.93267 71.8051C9.89464 70.924 11.0365 70.2255 12.2931 69.7496C13.5496 69.2737 14.896 69.0298 16.2554 69.0317ZM16.2554 68.3064C14.0662 68.3064 11.9262 68.9019 10.1059 70.0176C8.28563 71.1333 6.8669 72.7192 6.02913 74.5745C5.19135 76.4299 4.97215 78.4715 5.39924 80.4412C5.82634 82.4108 6.88055 84.2201 8.42856 85.6401C9.97657 87.0601 11.9489 88.0272 14.096 88.419C16.2432 88.8108 18.4687 88.6097 20.4913 87.8412C22.5139 87.0726 24.2426 85.7712 25.4589 84.1014C26.6751 82.4316 27.3243 80.4685 27.3243 78.4602C27.3036 75.7731 26.1308 73.2015 24.0594 71.3014C21.9881 69.4013 19.1847 68.3254 16.2554 68.3064Z" fill="#4E4E4E"/>
<path d="M16.2554 82.7829C15.336 82.7829 14.4371 82.5328 13.6726 82.0642C12.9081 81.5956 12.3123 80.9295 11.9604 80.1503C11.6085 79.371 11.5165 78.5136 11.6958 77.6863C11.8752 76.859 12.318 76.0992 12.9681 75.5027C13.6183 74.9063 14.4467 74.5002 15.3485 74.3356C16.2503 74.1711 17.185 74.2555 18.0345 74.5783C18.884 74.9011 19.61 75.4477 20.1209 76.149C20.6317 76.8503 20.9044 77.6748 20.9044 78.5183C20.9002 79.6482 20.4091 80.7307 19.5381 81.5296C18.6672 82.3285 17.4871 82.7791 16.2554 82.7829Z" fill="#CCCCCC"/>
<path d="M16.2554 74.6161C17.096 74.619 17.9169 74.8503 18.6143 75.2808C19.3117 75.7113 19.8544 76.3217 20.174 77.0349C20.4935 77.7482 20.5755 78.5323 20.4096 79.2882C20.2437 80.0442 19.8373 80.7381 19.2418 81.2823C18.6463 81.8266 17.8883 82.1968 17.0637 82.3461C16.239 82.4955 15.3845 82.4174 14.6082 82.1217C13.8319 81.8259 13.1685 81.3258 12.7018 80.6844C12.2351 80.0431 11.986 79.2892 11.986 78.5181C11.9902 77.4819 12.4418 76.4895 13.2421 75.7581C14.0423 75.0268 15.1258 74.6161 16.2554 74.6161ZM16.2554 73.8909C15.2578 73.8909 14.2825 74.1623 13.453 74.6707C12.6235 75.1792 11.9769 75.9018 11.5952 76.7473C11.2134 77.5929 11.1135 78.5233 11.3081 79.4209C11.5027 80.3185 11.9832 81.1429 12.6886 81.7901C13.3941 82.4372 14.2929 82.8779 15.2713 83.0565C16.2498 83.235 17.2641 83.1434 18.1858 82.7931C19.1075 82.4429 19.8953 81.8498 20.4496 81.0889C21.0038 80.3279 21.2997 79.4333 21.2997 78.5181C21.2955 77.2921 20.7627 76.1173 19.8176 75.2504C18.8726 74.3834 17.592 73.8947 16.2554 73.8909Z" fill="#4E4E4E"/>
<path d="M28.4628 37.7144V15.4919H25.3003V37.7144C25.3031 37.9232 25.3636 38.128 25.4763 38.3096C25.589 38.4911 25.7501 38.6434 25.9445 38.7521C26.139 38.8609 26.3603 38.9225 26.5878 38.9313C26.8154 38.9401 27.0416 38.8957 27.2453 38.8023L28.5735 38.164C28.5016 38.0233 28.4638 37.8698 28.4628 37.7144Z" fill="#EF608F"/>
<path d="M81.0874 59.2404V46.7802C81.0874 46.3647 81.2674 45.9663 81.5876 45.6725C81.9079 45.3787 82.3423 45.2136 82.7952 45.2136H79.6327C79.1797 45.2136 78.7454 45.3787 78.4251 45.6725C78.1048 45.9663 77.9249 46.3647 77.9249 46.7802V59.2404C77.9291 59.6573 78.1125 60.0557 78.4353 60.3491C78.7581 60.6425 79.1941 60.807 79.6485 60.807H82.811C82.3566 60.807 81.9206 60.6425 81.5978 60.3491C81.275 60.0557 81.0916 59.6573 81.0874 59.2404Z" fill="#E0E0E0"/>
</svg>
