<?xml version="1.0" standalone="no"?>
<!DOCTYPE svg PUBLIC "-//W3C//DTD SVG 20010904//EN"
 "http://www.w3.org/TR/2001/REC-SVG-20010904/DTD/svg10.dtd">
<svg version="1.0" xmlns="http://www.w3.org/2000/svg"
 width="213.000000pt" height="213.000000pt" viewBox="0 0 213.000000 213.000000"
 preserveAspectRatio="xMidYMid meet">
<metadata>
Created by potrace 1.11, written by Peter Selinger 2001-2013
</metadata>
<g transform="translate(0.000000,213.000000) scale(0.100000,-0.100000)"
fill="#000000" stroke="none">
<path d="M39 1592 c-25 -3 -26 -5 -19 -39 10 -44 6 -451 -5 -476 -7 -16 -1
-18 76 -15 83 3 84 3 82 28 -12 177 -11 186 19 181 74 -10 72 -11 101 40 31
57 31 57 -63 61 l-64 3 1 53 c0 28 1 57 2 62 1 9 47 7 113 -5 11 -3 22 11 37
45 12 27 21 51 21 54 0 2 -59 4 -130 5 -72 0 -134 2 -138 3 -4 2 -19 2 -33 0z"/>
<path d="M534 1592 c-6 -4 -9 -23 -7 -42 6 -55 6 -432 0 -462 l-6 -28 132 0
c73 0 141 3 152 6 22 6 69 103 56 117 -4 4 -21 3 -37 -4 -43 -16 -134 -27
-141 -17 -3 6 -6 33 -7 63 l-1 53 52 -5 52 -5 25 51 c14 27 26 53 26 56 0 3
-35 5 -77 5 l-78 0 2 47 c0 27 2 54 2 61 1 13 46 11 93 -4 12 -3 22 5 35 28 9
18 16 36 15 41 -1 4 3 7 8 7 6 0 10 6 10 14 0 12 -26 15 -141 15 -78 1 -144 3
-148 5 -4 3 -12 2 -17 -2z"/>
<path d="M1720 1590 c-15 -4 -27 -21 -40 -57 l-18 -51 27 3 c14 2 26 4 26 5 0
1 24 2 54 3 l54 2 -1 -120 c0 -66 -4 -164 -7 -218 l-7 -98 84 3 c60 2 82 6 80
16 -11 55 -17 342 -8 397 3 20 20 22 97 9 23 -3 27 0 37 44 6 26 7 51 2 56 -9
9 -344 14 -380 6z"/>
<path d="M1191 1514 c-17 -42 -28 -80 -25 -85 3 -5 2 -9 -3 -9 -4 0 -13 -12
-19 -27 -6 -16 -39 -93 -72 -173 -34 -80 -62 -148 -62 -152 0 -5 32 -8 70 -8
55 0 70 3 71 15 2 24 3 28 22 76 l18 46 77 -1 c42 -1 82 -5 88 -8 6 -4 21 -35
33 -68 l22 -60 74 0 c73 0 74 0 66 23 -10 26 -55 134 -83 197 -10 25 -23 54
-28 65 -4 11 -17 40 -27 65 -11 25 -32 75 -48 111 l-28 66 -57 2 -58 1 -31
-76z m122 -202 c2 -27 2 -27 -73 -23 -19 1 -19 3 -6 35 8 19 12 37 8 40 -3 3
0 6 6 6 7 0 12 8 12 18 0 10 3 22 8 26 9 10 43 -66 45 -102z"/>
<path d="M793 1000 c-80 -18 -161 -89 -189 -167 -40 -114 10 -218 132 -269 45
-19 193 -23 235 -6 24 10 26 14 19 50 -7 38 -4 136 4 159 5 12 -48 20 -103 15
l-33 -3 7 -76 7 -76 -41 7 c-54 8 -78 24 -95 61 -23 48 -22 105 3 153 35 68
92 83 180 46 18 -8 37 -14 41 -14 5 0 7 74 1 101 -3 16 -122 29 -168 19z"/>
<path d="M161 912 c-19 -48 -61 -142 -92 -209 -32 -68 -55 -123 -52 -123 3 0
0 -7 -7 -15 -11 -13 -4 -15 49 -15 58 0 62 2 72 28 38 94 29 87 107 87 l71 1
16 -54 c10 -29 23 -56 30 -58 7 -3 37 -4 68 -2 l55 3 -52 115 c-29 63 -72 163
-96 223 l-44 107 -46 0 -45 0 -34 -88z m101 -116 c18 -53 13 -60 -39 -54 l-30
3 15 53 c8 29 20 51 26 49 6 -2 18 -25 28 -51z"/>
<path d="M1163 989 c-6 -6 -7 -27 -2 -52 4 -23 7 -120 6 -214 l-2 -173 68 0
c45 0 66 4 62 11 -4 5 -9 41 -11 79 -4 85 6 85 61 -1 21 -33 47 -65 58 -71 23
-12 127 -21 127 -10 0 4 -14 22 -31 40 -39 42 -99 130 -99 146 0 7 10 18 23
25 31 16 57 62 57 98 0 39 -33 89 -71 108 -36 19 -230 30 -246 14z m189 -100
c20 -23 13 -54 -15 -74 -41 -29 -54 -20 -54 38 -1 28 1 56 4 60 7 12 46 -2 65
-24z"/>
<path d="M1825 991 c-146 -36 -214 -174 -156 -316 59 -146 286 -175 405 -51
61 63 71 188 21 264 -40 62 -50 71 -96 92 -45 20 -117 25 -174 11z m104 -100
c45 -23 73 -77 73 -140 -1 -102 -52 -147 -131 -114 -77 31 -113 109 -91 194
19 73 33 88 77 82 21 -2 53 -12 72 -22z"/>
</g>
</svg>
