<svg width="270" height="66" viewBox="0 0 270 66" fill="none" xmlns="http://www.w3.org/2000/svg">
<rect width="270" height="66" rx="10" fill="white"/>
<path d="M242 32.8449C242 32.723 242 32.5845 241.994 32.4238C241.989 31.9751 241.978 31.4709 241.967 30.9335C241.922 29.3878 241.844 27.8476 241.721 26.3961C241.554 24.3961 241.308 22.7285 240.973 21.4765C240.62 20.1698 239.927 18.9781 238.965 18.0205C238.002 17.0628 236.803 16.3728 235.488 16.0194C233.908 15.5983 230.817 15.3379 226.464 15.1773C224.394 15.0997 222.179 15.0499 219.963 15.0222C219.187 15.0111 218.468 15.0055 217.82 15H216.18C215.532 15.0055 214.812 15.0111 214.037 15.0222C211.821 15.0499 209.606 15.0997 207.536 15.1773C203.183 15.3435 200.086 15.6039 198.512 16.0194C197.196 16.372 195.997 17.0617 195.034 18.0195C194.072 18.9772 193.379 20.1694 193.027 21.4765C192.686 22.7285 192.446 24.3961 192.279 26.3961C192.156 27.8476 192.078 29.3878 192.033 30.9335C192.017 31.4709 192.011 31.9751 192.006 32.4238C192.006 32.5845 192 32.723 192 32.8449V33.1551C192 33.277 192 33.4155 192.006 33.5762C192.011 34.0249 192.022 34.5291 192.033 35.0665C192.078 36.6122 192.156 38.1524 192.279 39.6039C192.446 41.6039 192.692 43.2715 193.027 44.5235C193.741 47.1773 195.839 49.2715 198.512 49.9806C200.086 50.4017 203.183 50.662 207.536 50.8227C209.606 50.9003 211.821 50.9501 214.037 50.9778C214.812 50.9889 215.532 50.9945 216.18 51H217.82C218.468 50.9945 219.187 50.9889 219.963 50.9778C222.179 50.9501 224.394 50.9003 226.464 50.8227C230.817 50.6565 233.914 50.3961 235.488 49.9806C238.161 49.2715 240.259 47.1828 240.973 44.5235C241.314 43.2715 241.554 41.6039 241.721 39.6039C241.844 38.1524 241.922 36.6122 241.967 35.0665C241.983 34.5291 241.989 34.0249 241.994 33.5762C241.994 33.4155 242 33.277 242 33.1551V32.8449ZM237.982 33.133C237.982 33.2493 237.982 33.3767 237.977 33.5263C237.971 33.9584 237.96 34.4349 237.949 34.9501C237.91 36.4238 237.831 37.8975 237.714 39.2659C237.564 41.0499 237.352 42.5125 237.089 43.4931C236.743 44.7729 235.728 45.7867 234.444 46.1247C233.272 46.4349 230.32 46.6842 226.308 46.8338C224.277 46.9114 222.089 46.9612 219.907 46.9889C219.143 47 218.434 47.0055 217.798 47.0055H216.202L214.093 46.9889C211.911 46.9612 209.729 46.9114 207.692 46.8338C203.68 46.6787 200.722 46.4349 199.556 46.1247C198.272 45.7812 197.257 44.7729 196.911 43.4931C196.648 42.5125 196.436 41.0499 196.286 39.2659C196.169 37.8975 196.096 36.4238 196.051 34.9501C196.035 34.4349 196.029 33.9529 196.023 33.5263C196.023 33.3767 196.018 33.2438 196.018 33.133V32.867C196.018 32.7507 196.018 32.6233 196.023 32.4737C196.029 32.0415 196.04 31.5651 196.051 31.0499C196.09 29.5762 196.169 28.1025 196.286 26.7341C196.436 24.9501 196.648 23.4875 196.911 22.5069C197.257 21.2271 198.272 20.2133 199.556 19.8753C200.728 19.5651 203.68 19.3158 207.692 19.1662C209.723 19.0886 211.911 19.0388 214.093 19.0111C214.857 19 215.566 18.9945 216.202 18.9945H217.798L219.907 19.0111C222.089 19.0388 224.271 19.0886 226.308 19.1662C230.32 19.3213 233.278 19.5651 234.444 19.8753C235.728 20.2188 236.743 21.2271 237.089 22.5069C237.352 23.4875 237.564 24.9501 237.714 26.7341C237.831 28.1025 237.904 29.5762 237.949 31.0499C237.965 31.5651 237.971 32.0471 237.977 32.4737C237.977 32.6233 237.982 32.7562 237.982 32.867V33.133ZM212.033 40.4238L224.98 32.9446L212.033 25.5762V40.4238Z" fill="#E12025"/>
</svg>
