<svg xmlns="http://www.w3.org/2000/svg" xmlns:xlink="http://www.w3.org/1999/xlink" width="63.574" height="17.668" viewBox="0 0 63.574 17.668">
  <defs>
    <linearGradient id="linear-gradient" x1="0.081" y1="-0.295" x2="1.017" y2="1.26" gradientUnits="objectBoundingBox">
      <stop offset="0" stop-color="#ef8715"/>
      <stop offset="1" stop-color="#d40d99"/>
    </linearGradient>
  </defs>
  <path id="Контур_20" data-name="Контур 20" d="M.56-4.13A4.2,4.2,0,0,0,4.774.084,4.2,4.2,0,0,0,9-4.13,4.206,4.206,0,0,0,4.774-8.358,4.2,4.2,0,0,0,.56-4.13Zm1.6,0A2.626,2.626,0,0,1,4.774-6.762,2.629,2.629,0,0,1,7.406-4.13,2.626,2.626,0,0,1,4.774-1.512,2.623,2.623,0,0,1,2.156-4.13ZM19,0V-12.348h-1.68v5.5a4.163,4.163,0,0,0-3.234-1.6A4.115,4.115,0,0,0,10.122-4.2,4.119,4.119,0,0,0,14.084.056a4.12,4.12,0,0,0,3.234-1.6V0ZM16.982-4.2a2.6,2.6,0,0,1-2.59,2.6,2.6,2.6,0,0,1-2.6-2.6,2.6,2.6,0,0,1,2.6-2.59A2.593,2.593,0,0,1,16.982-4.2Zm6.4,7.728A4.314,4.314,0,0,0,27.692-.784V-8.33h-1.68v4.746a1.969,1.969,0,0,1-1.96,1.974,1.972,1.972,0,0,1-1.974-1.974V-8.33H20.4v4.746A3.657,3.657,0,0,0,24.052.07,3.714,3.714,0,0,0,26-.49,2.627,2.627,0,0,1,23.38,1.848Zm5.712-4.69A3.1,3.1,0,0,0,31.85.182a2.681,2.681,0,0,0,2.688-2.73c0-1.456-.994-2.184-2.436-2.646-.658-.2-1.33-.406-1.33-.9,0-.364.322-.644.868-.644a.688.688,0,0,1,.588.35l1.4-.868A2.3,2.3,0,0,0,31.64-8.386a2.278,2.278,0,0,0-2.52,2.3C29.12-4.4,30.38-4,31.626-3.626h-.014c.756.238,1.274.56,1.274,1.078A1.044,1.044,0,0,1,31.85-1.47a1.532,1.532,0,0,1-1.358-.588Zm6.566,0A3.1,3.1,0,0,0,38.416.182,2.681,2.681,0,0,0,41.1-2.548c0-1.456-.994-2.184-2.436-2.646-.658-.2-1.33-.406-1.33-.9,0-.364.322-.644.868-.644a.688.688,0,0,1,.588.35l1.4-.868a2.3,2.3,0,0,0-1.988-1.134,2.278,2.278,0,0,0-2.52,2.3c0,1.694,1.26,2.086,2.506,2.464h-.014c.756.238,1.274.56,1.274,1.078A1.044,1.044,0,0,1,38.416-1.47a1.532,1.532,0,0,1-1.358-.588Zm7.084-7.182v8.33h1.68v-8.33Zm-.238-2.24A1.034,1.034,0,0,0,43.54-9.548a1.046,1.046,0,0,0,1.05-1.036,1.058,1.058,0,0,0-1.05-1.05A1.046,1.046,0,0,0,42.5-10.584ZM54.628-4.256a4.264,4.264,0,0,0-1.19-2.968,2.016,2.016,0,0,1,2-1.876v-1.708A3.763,3.763,0,0,0,51.912-8.26a4.319,4.319,0,0,0-1.6-.308A4.314,4.314,0,0,0,46-4.256,4.314,4.314,0,0,0,50.316.056,4.314,4.314,0,0,0,54.628-4.256Zm-1.68,0a2.629,2.629,0,0,1-2.632,2.632,2.629,2.629,0,0,1-2.632-2.632,2.629,2.629,0,0,1,2.632-2.632A2.629,2.629,0,0,1,52.948-4.256Zm-.014,5.264a2.632,2.632,0,1,1-5.264,0H45.99a4.312,4.312,0,1,0,8.624,0ZM64.134,0V-4.676A3.657,3.657,0,0,0,60.48-8.33a3.614,3.614,0,0,0-1.96.574v-.588H56.84V0h1.68V-4.76a1.943,1.943,0,0,1,1.96-1.89,1.972,1.972,0,0,1,1.974,1.974V0Z" transform="translate(-0.56 12.348)" fill="url(#linear-gradient)"/>
</svg>
