<svg width="79" height="123" viewBox="0 0 79 123" fill="none" xmlns="http://www.w3.org/2000/svg">
<path d="M47.3273 41H43.2118C43.2118 42.0874 42.7783 43.1302 42.0065 43.8991C41.2347 44.668 40.1879 45.1 39.0964 45.1C38.005 45.1 36.9582 44.668 36.1864 43.8991C35.4146 43.1302 34.981 42.0874 34.981 41H30.8656C30.8656 43.1748 31.7328 45.2605 33.2764 46.7983C34.8199 48.3361 36.9135 49.2 39.0964 49.2C41.2794 49.2 43.3729 48.3361 44.9165 46.7983C46.4601 45.2605 47.3273 43.1748 47.3273 41Z" fill="url(#paint0_linear)"/>
<path d="M67.6142 65.2515L49.385 59.9625V54.6325C52.51 52.835 55.1056 50.2505 56.9114 47.1381C58.7173 44.0257 59.6698 40.4949 59.6735 36.9V32.8C60.2192 32.8 60.7426 32.584 61.1285 32.1996C61.5144 31.8151 61.7312 31.2937 61.7312 30.75V22.55C61.7312 16.5694 59.3465 10.8337 55.1016 6.60474C50.8568 2.3758 45.0995 0 39.0964 0C33.0933 0 27.3361 2.3758 23.0912 6.60474C18.8464 10.8337 16.4617 16.5694 16.4617 22.55V30.75C16.4617 31.2937 16.6784 31.8151 17.0643 32.1996C17.4502 32.584 17.9736 32.8 18.5194 32.8V36.9C18.5241 40.4939 19.4772 44.0234 21.283 47.1346C23.0888 50.2458 25.6838 52.8294 28.8079 54.6263V59.9563L10.6054 65.2372C7.56251 66.0766 4.87883 67.8848 2.96394 70.3858C1.04905 72.8869 0.00811709 75.9434 0 79.089V120.95C0 121.494 0.216794 122.015 0.602689 122.4C0.988584 122.784 1.51197 123 2.05771 123H76.1352C76.6809 123 77.2043 122.784 77.5902 122.4C77.9761 122.015 78.1929 121.494 78.1929 120.95V79.089C78.1849 75.9489 77.1471 72.8975 75.2373 70.3994C73.3276 67.9014 70.6506 66.0936 67.6142 65.2515ZM38.8907 71.75H39.3022L43.1069 105.848L39.0964 109.851L35.0777 105.848L38.8907 71.75ZM39.8907 67.65H38.3186L36.2609 63.55H41.9484L39.8907 67.65ZM20.5771 22.55C20.5771 17.6568 22.5282 12.9639 26.0013 9.50388C29.4743 6.04383 34.1848 4.1 39.0964 4.1C44.0081 4.1 48.7185 6.04383 52.1916 9.50388C55.6646 12.9639 57.6158 17.6568 57.6158 22.55V28.7H56.5293C55.3822 28.704 54.257 28.3877 53.2811 27.7869C52.3053 27.1861 51.518 26.325 51.0085 25.3011L49.1792 21.6336C49.0333 21.3429 48.82 21.0909 48.557 20.8984C48.2941 20.7059 47.9889 20.5785 47.6668 20.5266C47.5546 20.5081 47.441 20.4992 47.3273 20.5C46.7816 20.5001 46.2583 20.7162 45.8725 21.1007L44.8745 22.0949C42.7774 24.1957 40.2828 25.8612 37.5352 26.995C34.7876 28.1287 31.8415 28.7083 28.8676 28.7H20.5771V22.55ZM22.6348 36.9V32.8H28.8676C35.4718 32.8192 41.8463 30.3861 46.747 25.9755L47.3273 27.1338C48.1048 28.6898 49.2696 30.0214 50.7104 31.0015C52.1514 31.9816 53.8203 32.5775 55.5581 32.7323V36.9C55.5581 41.2495 53.8237 45.421 50.7366 48.4966C47.6494 51.5721 43.4623 53.3 39.0964 53.3C34.7305 53.3 30.5434 51.5721 27.4563 48.4966C24.3691 45.421 22.6348 41.2495 22.6348 36.9ZM39.0964 57.4C41.1905 57.4002 43.2722 57.0815 45.2696 56.4549V59.45H32.9233V56.4549C34.9207 57.0815 37.0024 57.4002 39.0964 57.4ZM74.0774 118.9H63.7889V79.95H59.6735V118.9H18.5194V79.95H14.4039V118.9H4.11541V79.089C4.12519 76.8368 4.87472 74.6496 6.24951 72.8617C7.6243 71.0738 9.54876 69.7833 11.7289 69.1875L31.1578 63.55H31.6516L34.9255 70.0751L30.878 106.374C30.8441 106.68 30.8796 106.989 30.9818 107.279C31.084 107.569 31.2504 107.832 31.4685 108.049L37.6416 114.199C38.0275 114.584 38.5508 114.8 39.0964 114.8C39.6421 114.8 40.1654 114.584 40.5512 114.199L46.7243 108.049C46.9425 107.832 47.1088 107.569 47.211 107.279C47.3133 106.989 47.3488 106.68 47.3149 106.374L43.2674 70.0751L46.5412 63.55H47.0351L66.4927 69.1957C68.6671 69.7949 70.5851 71.086 71.9544 72.8721C73.3238 74.6583 74.0693 76.8415 74.0774 79.089V118.9Z" fill="url(#paint1_linear)"/>
<defs>
<linearGradient id="paint0_linear" x1="47.3273" y1="45.1562" x2="30.8656" y2="45.1562" gradientUnits="userSpaceOnUse">
<stop stop-color="#FF9334"/>
<stop offset="1" stop-color="#FF5856"/>
</linearGradient>
<linearGradient id="paint1_linear" x1="78.1929" y1="62.3424" x2="-1.37956e-07" y2="62.3424" gradientUnits="userSpaceOnUse">
<stop stop-color="#FF9334"/>
<stop offset="1" stop-color="#FF5856"/>
</linearGradient>
</defs>
</svg>
