<svg width="137" height="123" viewBox="0 0 137 123" fill="none" xmlns="http://www.w3.org/2000/svg">
<path d="M68.5 59.0689C67.2889 59.0689 66.1273 58.59 65.2709 57.7375C64.4145 56.8851 63.9334 55.729 63.9334 54.5234H59.3667C59.3667 56.9345 60.329 59.2468 62.0418 60.9517C63.7546 62.6565 66.0777 63.6143 68.5 63.6143C70.9223 63.6143 73.2454 62.6565 74.9583 60.9517C76.6711 59.2468 77.6334 56.9345 77.6334 54.5234H73.0667C73.0667 55.729 72.5856 56.8851 71.7292 57.7375C70.8727 58.59 69.7112 59.0689 68.5 59.0689Z" fill="url(#paint0_linear)"/>
<path d="M43.3834 36.3408H38.8167C38.8167 37.5463 38.3356 38.7025 37.4792 39.5549C36.6227 40.4074 35.4612 40.8863 34.25 40.8863C33.0389 40.8863 31.8773 40.4074 31.0209 39.5549C30.1645 38.7025 29.6834 37.5463 29.6834 36.3408H25.1167C25.1167 38.7519 26.079 41.0642 27.7918 42.769C29.5046 44.4739 31.8277 45.4317 34.25 45.4317C36.6723 45.4317 38.9954 44.4739 40.7083 42.769C42.4211 41.0642 43.3834 38.7519 43.3834 36.3408Z" fill="url(#paint1_linear)"/>
<path d="M102.75 40.8863C101.539 40.8863 100.377 40.4074 99.5209 39.5549C98.6645 38.7025 98.1834 37.5463 98.1834 36.3408H93.6167C93.6167 38.7519 94.579 41.0642 96.2918 42.769C98.0046 44.4739 100.328 45.4317 102.75 45.4317C105.172 45.4317 107.495 44.4739 109.208 42.769C110.921 41.0642 111.883 38.7519 111.883 36.3408H107.317C107.317 37.5463 106.836 38.7025 105.979 39.5549C105.123 40.4074 103.961 40.8863 102.75 40.8863Z" fill="url(#paint2_linear)"/>
<path d="M125.225 60.9432L111.883 57.3318V52.3636C115.307 50.6727 118.19 48.0647 120.207 44.8327C122.224 41.6007 123.295 37.8729 123.3 34.0682V31.7955C123.906 31.7955 124.486 31.5561 124.915 31.1299C125.343 30.7036 125.583 30.1256 125.583 29.5228V22.7046C125.581 16.8058 123.273 11.1392 119.148 6.9039C115.023 2.66855 109.404 0.196665 103.481 0.0112366C97.5576 -0.174192 91.794 1.94139 87.4097 5.91036C83.0255 9.87933 80.3645 15.3903 79.9897 21.2774C76.5081 19.2359 72.5409 18.1593 68.5 18.1593C64.4591 18.1593 60.4919 19.2359 57.0103 21.2774C56.6355 15.3903 53.9745 9.87933 49.5903 5.91036C45.206 1.94139 39.4424 -0.174192 33.519 0.0112366C27.5955 0.196665 21.9769 2.66855 17.8519 6.9039C13.7268 11.1392 11.419 16.8058 11.4167 22.7046V29.5228C11.4167 30.1256 11.6572 30.7036 12.0854 31.1299C12.5136 31.5561 13.0944 31.7955 13.7 31.7955V34.0682C13.6961 36.7568 14.2256 39.4196 15.2581 41.904C16.2906 44.3883 17.8057 46.6453 19.7166 48.5455C21.2984 50.1035 23.1217 51.398 25.1167 52.3796V57.3318L11.7683 60.9454C8.39305 61.8761 5.41615 63.8798 3.29146 66.6511C1.16678 69.4225 0.0108774 72.8093 0 76.2954V102.25C0 102.853 0.240565 103.431 0.668773 103.857C1.09698 104.283 1.67776 104.523 2.28333 104.523H31.9667V120.432C31.9667 121.034 32.2072 121.612 32.6354 122.039C33.0636 122.465 33.6444 122.704 34.25 122.704H102.75C103.356 122.704 103.936 122.465 104.365 122.039C104.793 121.612 105.033 121.034 105.033 120.432V104.523H134.717C135.322 104.523 135.903 104.283 136.331 103.857C136.759 103.431 137 102.853 137 102.25V76.2954C136.989 72.8082 135.832 69.4203 133.706 66.6484C131.58 63.8766 128.602 61.873 125.225 60.9432ZM104.926 87.7794L103.234 89.4635C102.57 88.2063 101.742 87.0424 100.77 86.0022L102.522 70.4318H103.001L104.926 87.7794ZM70.676 105.961L68.5 108.127L66.324 105.961L68.2717 88.6135H68.7512L70.676 105.961ZM47.2855 49.8432C47.4989 49.9213 47.7229 49.9665 47.95 49.9773V52.25C47.9538 54.5054 48.335 56.7443 49.078 58.875L43.3833 57.3318V52.3636C44.7762 51.6741 46.0855 50.8285 47.2855 49.8432ZM103.622 65.8863H101.878L99.5944 61.3409H105.906L103.622 65.8863ZM89.05 52.25V49.9773C89.2628 49.9662 89.4728 49.9241 89.6733 49.8523C90.8872 50.8408 92.2102 51.6887 93.6167 52.3796V57.3318L87.922 58.875C88.665 56.7443 89.0462 54.5054 89.05 52.25ZM84.4833 52.25C84.4833 56.4693 82.7994 60.5159 79.8019 63.4994C76.8045 66.4829 72.739 68.159 68.5 68.159C64.261 68.159 60.1955 66.4829 57.1981 63.4994C54.2006 60.5159 52.5167 56.4693 52.5167 52.25V49.9773H58.652C61.3514 49.9846 64.0255 49.4589 66.5194 48.4305C69.0133 47.4022 71.2774 45.8917 73.1808 43.9864L74.7792 42.3955C76.95 45.9398 80.4366 48.4899 84.4833 49.4932V52.25ZM35.1222 65.8863H33.3778L31.0944 61.3409H37.4056L35.1222 65.8863ZM34.0217 70.4318H34.5012L36.2433 86.0272C35.2742 87.0613 34.4466 88.2182 33.7819 89.4681L32.0854 87.7794L34.0217 70.4318ZM40.4721 82.7545L38.8875 68.5772L42.3125 61.7591L51.9961 64.3841C53.9311 66.987 56.4566 69.0981 59.3667 70.5454V75.659L43.735 81.3931C42.596 81.7242 41.4978 82.1808 40.4607 82.7545H40.4721ZM69.3722 84.0681H67.6278L65.3444 79.5227H71.6556L69.3722 84.0681ZM73.0667 74.9772H63.9333V72.1772C66.9368 72.8802 70.0632 72.8802 73.0667 72.1772V74.9772ZM77.6333 70.5454C80.5469 69.0964 83.0749 66.982 85.0108 64.375L94.6944 61.75L98.1194 68.5681L96.5393 82.7204C95.557 82.1839 94.5178 81.7578 93.4408 81.4499L77.6333 75.659V70.5454ZM107.317 56.7954H98.1833V53.9977C101.187 54.6992 104.313 54.6992 107.317 53.9977V56.7954ZM102.75 49.9773C100.651 49.9805 98.5717 49.5717 96.6315 48.7742C94.6913 47.9767 92.9281 46.8061 91.4429 45.3296C91.4041 45.2909 91.3721 45.2478 91.3333 45.2091V40.8864C91.3336 37.7563 90.6796 34.6605 89.413 31.7955H92.9088C95.6056 31.8031 98.2772 31.278 100.769 30.2509C103.26 29.2237 105.522 27.7148 107.424 25.8114L109.022 24.2205C111.197 27.7628 114.686 30.3096 118.733 31.3092V34.0682C118.729 38.2861 117.043 42.3298 114.047 45.3123C111.05 48.2948 106.988 49.9725 102.75 49.9773ZM84.4833 22.7046C84.4833 17.8825 86.4079 13.2579 89.8335 9.84819C93.2592 6.43844 97.9054 4.52287 102.75 4.52287C107.595 4.52287 112.241 6.43844 115.666 9.84819C119.092 13.2579 121.017 17.8825 121.017 22.7046V27.1364C119.187 26.8816 117.447 26.186 115.948 25.1098C114.45 24.0337 113.238 22.6097 112.418 20.9615L111.644 19.416C111.482 19.0945 111.245 18.8159 110.954 18.603C110.663 18.39 110.325 18.2489 109.969 18.1913C109.612 18.1336 109.247 18.161 108.903 18.2711C108.559 18.3813 108.246 18.5712 107.99 18.8251L104.2 22.5978C102.72 24.0778 100.961 25.2511 99.0225 26.0497C97.0844 26.8482 95.0064 27.2562 92.9088 27.2501H86.7233C86.0417 26.3406 85.293 25.4829 84.4833 24.6842V22.7046ZM86.7667 40.8864V45.3205C84.9377 45.066 83.1988 44.3709 81.701 43.2956C80.2033 42.2202 78.9919 40.7972 78.1722 39.15L77.3936 37.5978C77.2317 37.2763 76.9954 36.9976 76.7042 36.7847C76.413 36.5718 76.0753 36.4307 75.7186 36.373C75.362 36.3153 74.9967 36.3427 74.6528 36.4529C74.3089 36.5631 73.9961 36.753 73.7402 37.0069L69.9522 40.7728C68.4716 42.2544 66.7106 43.4291 64.7709 44.2288C62.8312 45.0285 60.7515 45.4374 58.652 45.4318H50.2333V40.8864C50.2333 36.0643 52.1578 31.4397 55.5835 28.03C59.0092 24.6202 63.6554 22.7046 68.5 22.7046C73.3446 22.7046 77.9908 24.6202 81.4165 28.03C84.8421 31.4397 86.7667 36.0643 86.7667 40.8864ZM15.9833 22.7046C15.9833 17.8825 17.9079 13.2579 21.3335 9.84819C24.7592 6.43844 29.4054 4.52287 34.25 4.52287C39.0946 4.52287 43.7408 6.43844 47.1665 9.84819C50.5921 13.2579 52.5167 17.8825 52.5167 22.7046V24.6842C51.8676 25.323 51.2576 26 50.69 26.7114C49.2303 26.2586 47.8783 25.5155 46.7157 24.5271C45.5532 23.5387 44.6043 22.3257 43.9268 20.9615L43.1527 19.416C42.9908 19.0945 42.7545 18.8159 42.4634 18.603C42.1722 18.39 41.8344 18.2489 41.4778 18.1913C41.1211 18.1336 40.7558 18.161 40.4119 18.2711C40.068 18.3813 39.7552 18.5712 39.4994 18.8251L35.709 22.5978C34.2285 24.0789 32.4672 25.2528 30.5275 26.0514C28.5877 26.85 26.508 27.2574 24.4088 27.2501H15.9833V22.7046ZM18.2667 34.0682V31.7955H24.4088C27.1056 31.8031 29.7771 31.278 32.2687 30.2509C34.7602 29.2237 37.0223 27.7148 38.924 25.8114L40.5223 24.2205C42.3198 27.1062 44.9932 29.3476 48.1555 30.6205C46.5213 33.7982 45.6683 37.3166 45.6667 40.8864V45.1682C43.4515 47.436 40.6066 48.9939 37.4964 49.6423C34.3862 50.2907 31.1523 50.0002 28.209 48.8078C25.2658 47.6155 22.7472 45.5757 20.9758 42.9497C19.2045 40.3237 18.2612 37.2312 18.2667 34.0682ZM34.25 54.5227C35.7871 54.5199 37.319 54.3445 38.8167 54V56.7954H29.6833V53.9977C31.1812 54.3412 32.7129 54.5173 34.25 54.5227ZM15.9833 99.9771V79.5227H11.4167V99.9771H4.56667V76.2954C4.575 73.8048 5.40126 71.3852 6.91951 69.4054C8.43776 67.4257 10.5647 65.9943 12.9762 65.3295L26.1944 61.75L29.6194 68.5681L27.4091 88.3544C27.3716 88.693 27.411 89.0357 27.5244 89.3571C27.6378 89.6785 27.8224 89.9704 28.0645 90.2113L32.1744 94.3022C32.0417 95.1115 31.9722 95.9299 31.9667 96.7499V99.9771H15.9833ZM100.467 118.159H93.6167V97.7044H89.05V118.159H47.95V97.7044H43.3833V118.159H36.5333V96.7499C36.5525 94.2279 37.4045 91.7823 38.958 89.7899C40.5116 87.7976 42.6804 86.3692 45.1301 85.7249L60.522 80.084L63.874 86.759L61.6637 106.545C61.6261 106.884 61.6655 107.227 61.779 107.548C61.8924 107.869 62.077 108.161 62.319 108.402L66.8857 112.948C67.3139 113.374 67.8945 113.613 68.5 113.613C69.1055 113.613 69.6861 113.374 70.1143 112.948L74.681 108.402C74.923 108.161 75.1076 107.869 75.221 107.548C75.3345 107.227 75.3739 106.884 75.3363 106.545L73.126 86.759L76.4802 80.084L92.0503 85.7817C94.463 86.446 96.5914 87.8774 98.1109 89.8576C99.6303 91.8378 100.458 94.2582 100.467 96.7499V118.159ZM132.433 99.9771H125.583V79.5227H121.017V99.9771H105.033V96.7499C105.028 95.9307 104.96 95.1131 104.828 94.3044L108.938 90.2135C109.18 89.9727 109.364 89.6808 109.478 89.3594C109.591 89.038 109.631 88.6953 109.593 88.3567L107.383 68.5704L110.808 61.7523L124.019 65.3295C126.431 65.9941 128.559 67.4253 130.078 69.405C131.597 71.3847 132.424 73.8044 132.433 76.2954V99.9771Z" fill="url(#paint3_linear)"/>
<defs>
<linearGradient id="paint0_linear" x1="77.6334" y1="59.1311" x2="59.3667" y2="59.1311" gradientUnits="userSpaceOnUse">
<stop stop-color="#FF9334"/>
<stop offset="1" stop-color="#FF5856"/>
</linearGradient>
<linearGradient id="paint1_linear" x1="43.3834" y1="40.9485" x2="25.1167" y2="40.9485" gradientUnits="userSpaceOnUse">
<stop stop-color="#FF9334"/>
<stop offset="1" stop-color="#FF5856"/>
</linearGradient>
<linearGradient id="paint2_linear" x1="111.883" y1="40.9485" x2="93.6167" y2="40.9485" gradientUnits="userSpaceOnUse">
<stop stop-color="#FF9334"/>
<stop offset="1" stop-color="#FF5856"/>
</linearGradient>
<linearGradient id="paint3_linear" x1="137" y1="62.1926" x2="-2.41709e-07" y2="62.1926" gradientUnits="userSpaceOnUse">
<stop stop-color="#FF9334"/>
<stop offset="1" stop-color="#FF5856"/>
</linearGradient>
</defs>
</svg>
