<svg width="63" height="63" viewBox="0 0 63 63" fill="none" xmlns="http://www.w3.org/2000/svg">
<path d="M44.0088 1.55H18.2317C9.04148 1.55 1.56721 9.02426 1.56721 18.2145V43.9921C1.56721 53.1819 9.0415 60.6561 18.2317 60.6561H44.0093C53.1991 60.6561 60.6733 53.1818 60.6733 43.9921V18.2145C60.6733 9.02426 53.1991 1.55 44.0088 1.55ZM31.1203 45.0215C23.4468 45.0215 17.2018 38.7766 17.2018 31.1031C17.2018 23.4296 23.4468 17.1846 31.1203 17.1846C38.7938 17.1846 45.0387 23.4296 45.0387 31.1031C45.0387 38.7766 38.7938 45.0215 31.1203 45.0215ZM46.8562 17.909C45.1527 17.909 43.765 16.5213 43.765 14.8178C43.765 13.1141 45.1529 11.7262 46.8562 11.7262C48.5597 11.7262 49.9478 13.1143 49.9478 14.8178C49.9478 16.5211 48.5599 17.909 46.8562 17.909Z" fill="#C1CB8F" stroke="#282D26" stroke-width="2.9"/>
<path d="M24.9059 31.1034C24.9059 27.678 27.6951 24.889 31.1204 24.889C34.5458 24.889 37.3348 27.678 37.3348 31.1034C37.3348 34.5287 34.5458 37.3179 31.1204 37.3179C27.6952 37.3179 24.9059 34.5287 24.9059 31.1034Z" fill="#C1CB8F" stroke="#282D26" stroke-width="2.9"/>
</svg>
