<svg width="46" height="39" viewBox="0 0 46 39" fill="none" xmlns="http://www.w3.org/2000/svg">
<path d="M13.4167 0C8.99359 0 5.16025 3.75903 5.16025 8.92771C5.16025 12.0602 6.78204 14.8795 9.28845 16.1325L0 39H7.07691L18.282 16.4458C20.0513 13 20.9359 10.9639 20.9359 8.14458C20.9359 3.44579 17.6923 0 13.4167 0ZM38.4808 0C34.0577 0 30.2244 3.75903 30.2244 8.92771C30.2244 12.0602 31.8461 14.8795 34.3526 16.1325L25.0641 39H32.141L43.3461 16.4458C45.1154 13 46 10.9639 46 8.14458C46 3.44579 42.7564 0 38.4808 0Z" fill="white"/>
</svg>
