<?xml version="1.0" encoding="utf-8"?>
<!-- Generator: Adobe Illustrator 23.1.0, SVG Export Plug-In . SVG Version: 6.00 Build 0)  -->
<svg version="1.1" id="Слой_1" xmlns="http://www.w3.org/2000/svg" xmlns:xlink="http://www.w3.org/1999/xlink" x="0px" y="0px"
	 viewBox="0 0 65 65" style="enable-background:new 0 0 65 65;" xml:space="preserve">
<style type="text/css">
	.st0{fill:#C1CB8F;stroke:#282D26;stroke-width:2.9;stroke-linecap:square;stroke-linejoin:round;}
</style>
<path class="st0" d="M24.2,45.3L22,33.8l0,0c-0.1-0.5,0.1-1,0.5-1.3c0,0,0,0,0,0l28-17.8L25.9,34.8l0,0
	C24.9,35.8,24.2,45.3,24.2,45.3z M34.4,46.2L34.4,46.2l13.4,9.7c0,0,0,0,0,0c1.8,1.3,4.3,0.3,4.7-1.8l9.8-46.9l0,0
	c0.5-2.4-1.8-4.3-4-3.4c0,0,0,0,0,0c0,0,0,0,0,0L3.5,24.7c0,0,0,0,0,0c-2.6,1-2.6,4.7,0,5.6l0,0L16.2,35l5,15.8c0,0,0,0,0,0
	c0.6,2,3.1,2.8,4.8,1.4c0,0,0,0,0,0l7.4-6C33.7,46,34.1,46,34.4,46.2z"/>
</svg>
