<svg width="74" height="75" viewBox="0 0 74 75" fill="none" xmlns="http://www.w3.org/2000/svg">
<path d="M40.3772 42.8748C35.8423 40.6749 33.7969 37.8958 31.6404 35.2057C34.2415 33.0047 34.0504 30.2652 32.507 27.1346C30.173 22.4002 26.7047 21.5999 23.4364 25.4013C18.3898 31.2709 23.4363 40.6739 33.1076 47.7451C42.3786 53.6141 47.7144 52.6137 50.9825 49.0787C53.7952 46.0365 53.4591 43.12 48.7815 40.6749C43.5585 37.9447 41.5782 39.8078 40.3772 42.8748Z" fill="#C1CB8F" stroke="#282D26" stroke-width="3" stroke-linejoin="round"/>
<mask id="path-2-inside-1" fill="white">
<path fill-rule="evenodd" clip-rule="evenodd" d="M36.9987 74.1954C57.2991 74.1954 73.7557 57.7388 73.7557 37.4384C73.7557 17.1381 57.2991 0.681396 36.9987 0.681396C16.6984 0.681396 0.241699 17.1381 0.241699 37.4384C0.241699 44.8394 2.42903 51.7295 6.1925 57.4975L2.44656 69.1757C1.99045 70.5977 3.19703 71.9998 4.67109 71.7608L18.9212 69.4502C24.2591 72.4711 30.4276 74.1954 36.9987 74.1954ZM36.9988 62.9477C51.0873 62.9477 62.5083 51.5267 62.5083 37.4382C62.5083 23.3496 51.0873 11.9286 36.9988 11.9286C22.9102 11.9286 11.4892 23.3496 11.4892 37.4382C11.4892 42.5745 13.0731 48.3003 16.9308 53.3861C18.3112 55.206 15.8332 60.0174 15.8332 60.0174L21.5569 58.6254C28.8687 62.0647 32.4384 62.9477 36.9988 62.9477Z"/>
</mask>
<path fill-rule="evenodd" clip-rule="evenodd" d="M36.9987 74.1954C57.2991 74.1954 73.7557 57.7388 73.7557 37.4384C73.7557 17.1381 57.2991 0.681396 36.9987 0.681396C16.6984 0.681396 0.241699 17.1381 0.241699 37.4384C0.241699 44.8394 2.42903 51.7295 6.1925 57.4975L2.44656 69.1757C1.99045 70.5977 3.19703 71.9998 4.67109 71.7608L18.9212 69.4502C24.2591 72.4711 30.4276 74.1954 36.9987 74.1954ZM36.9988 62.9477C51.0873 62.9477 62.5083 51.5267 62.5083 37.4382C62.5083 23.3496 51.0873 11.9286 36.9988 11.9286C22.9102 11.9286 11.4892 23.3496 11.4892 37.4382C11.4892 42.5745 13.0731 48.3003 16.9308 53.3861C18.3112 55.206 15.8332 60.0174 15.8332 60.0174L21.5569 58.6254C28.8687 62.0647 32.4384 62.9477 36.9988 62.9477Z" fill="#C1CB8F"/>
<path d="M6.1925 57.4975L9.04914 58.4138L9.48528 57.0541L8.70499 55.8582L6.1925 57.4975ZM2.44656 69.1757L-0.410078 68.2594L-0.410078 68.2594L2.44656 69.1757ZM4.67109 71.7608L4.19093 68.7995L4.19093 68.7995L4.67109 71.7608ZM18.9212 69.4502L20.3988 66.8393L19.4815 66.3202L18.4411 66.4889L18.9212 69.4502ZM16.9308 53.3861L14.5406 55.1991L14.5406 55.1991L16.9308 53.3861ZM15.8332 60.0174L13.1661 58.6437L10.1576 64.485L16.542 62.9324L15.8332 60.0174ZM21.5569 58.6254L22.8339 55.9107L21.8763 55.4603L20.8481 55.7104L21.5569 58.6254ZM70.7557 37.4384C70.7557 56.0819 55.6422 71.1954 36.9987 71.1954V77.1954C58.9559 77.1954 76.7557 59.3956 76.7557 37.4384H70.7557ZM36.9987 3.6814C55.6422 3.6814 70.7557 18.7949 70.7557 37.4384H76.7557C76.7557 15.4812 58.9559 -2.3186 36.9987 -2.3186V3.6814ZM3.2417 37.4384C3.2417 18.7949 18.3552 3.6814 36.9987 3.6814V-2.3186C15.0415 -2.3186 -2.7583 15.4812 -2.7583 37.4384H3.2417ZM8.70499 55.8582C5.24996 50.5629 3.2417 44.2397 3.2417 37.4384H-2.7583C-2.7583 45.439 -0.391898 52.8961 3.68001 59.1369L8.70499 55.8582ZM5.3032 70.092L9.04914 58.4138L3.33586 56.5812L-0.410078 68.2594L5.3032 70.092ZM4.19093 68.7995C4.92797 68.68 5.53126 69.3811 5.3032 70.092L-0.410078 68.2594C-1.55036 71.8143 1.46609 75.3197 5.15126 74.7221L4.19093 68.7995ZM18.4411 66.4889L4.19093 68.7995L5.15126 74.7221L19.4014 72.4116L18.4411 66.4889ZM36.9987 71.1954C30.9588 71.1954 25.2978 69.6118 20.3988 66.8393L17.4437 72.0611C23.2204 75.3304 29.8963 77.1954 36.9987 77.1954V71.1954ZM59.5083 37.4382C59.5083 49.8698 49.4304 59.9477 36.9988 59.9477V65.9477C52.7442 65.9477 65.5083 53.1835 65.5083 37.4382H59.5083ZM36.9988 14.9286C49.4304 14.9286 59.5083 25.0065 59.5083 37.4382H65.5083C65.5083 21.6928 52.7442 8.92863 36.9988 8.92863V14.9286ZM14.4892 37.4382C14.4892 25.0065 24.5671 14.9286 36.9988 14.9286V8.92863C21.2534 8.92863 8.48923 21.6928 8.48923 37.4382H14.4892ZM19.321 51.5731C15.8866 47.0453 14.4892 41.967 14.4892 37.4382H8.48923C8.48923 43.182 10.2597 49.5553 14.5406 55.1991L19.321 51.5731ZM15.8332 60.0174C18.5002 61.391 18.5005 61.3905 18.5007 61.39C18.5008 61.3898 18.5011 61.3892 18.5013 61.3888C18.5017 61.388 18.5022 61.3871 18.5027 61.3861C18.5037 61.3842 18.5048 61.382 18.5061 61.3795C18.5087 61.3744 18.5119 61.3682 18.5156 61.3608C18.5231 61.346 18.5329 61.3266 18.5448 61.3028C18.5686 61.2552 18.6008 61.1898 18.6399 61.1087C18.7179 60.9467 18.8241 60.7199 18.9452 60.4443C19.1846 59.8996 19.4963 59.1328 19.7631 58.279C20.0229 57.4476 20.2802 56.409 20.3373 55.3518C20.3906 54.3651 20.2983 52.8616 19.321 51.5731L14.5406 55.1991C14.2535 54.8206 14.3691 54.601 14.346 55.0282C14.3267 55.385 14.2233 55.8905 14.0362 56.4894C13.856 57.066 13.6345 57.6157 13.4524 58.03C13.3628 58.2339 13.2861 58.3972 13.234 58.5055C13.208 58.5594 13.1884 58.5992 13.1765 58.623C13.1706 58.6348 13.1666 58.6427 13.1648 58.6462C13.1639 58.648 13.1636 58.6487 13.1638 58.6483C13.1639 58.6481 13.1641 58.6476 13.1645 58.6468C13.1647 58.6464 13.1649 58.646 13.1652 58.6455C13.1653 58.6452 13.1656 58.6448 13.1656 58.6446C13.1659 58.6442 13.1661 58.6437 15.8332 60.0174ZM20.8481 55.7104L15.1243 57.1023L16.542 62.9324L22.2658 61.5405L20.8481 55.7104ZM36.9988 59.9477C33.0534 59.9477 29.9406 59.2536 22.8339 55.9107L20.28 61.3401C27.7968 64.8759 31.8233 65.9477 36.9988 65.9477V59.9477Z" fill="#282D26" mask="url(#path-2-inside-1)"/>
</svg>
