<svg width="63" height="63" viewBox="0 0 63 63" fill="none" xmlns="http://www.w3.org/2000/svg">
<path d="M18.4132 49.9767C18.0599 49.9756 17.708 50.0228 17.3673 50.1171C17.3661 50.1174 17.3648 50.1178 17.3635 50.1181L12.5593 51.4355L13.9931 48.277C13.9933 48.2765 13.9935 48.276 13.9937 48.2755C14.2815 47.645 14.3974 46.9497 14.3297 46.26C14.2618 45.5697 14.0125 44.9097 13.6069 44.347L13.6047 44.3439C10.8922 40.6012 9.43783 36.0948 9.45096 31.4735L9.45096 31.471C9.45783 25.6269 11.7828 20.0237 15.9164 15.8901C20.0496 11.7569 25.6538 9.43012 31.5006 9.41996C37.3492 9.42737 42.956 11.7529 47.0914 15.8864C51.2269 20.0199 53.5533 25.624 53.5606 31.4693C53.5533 37.3141 51.2267 42.9175 47.0912 47.0502C42.9553 51.1832 37.3479 53.5076 31.4993 53.5132C27.5964 53.512 23.7637 52.4762 20.3921 50.5114L20.39 50.5102C19.7894 50.1616 19.1076 49.9776 18.4132 49.9767ZM18.4132 49.9767C18.4142 49.9767 18.4152 49.9767 18.4162 49.9767L18.4106 51.4267L18.4122 49.9767C18.4126 49.9767 18.4129 49.9767 18.4132 49.9767ZM31.5019 1.55L31.4986 1.55C23.5634 1.55924 15.9558 4.71407 10.3446 10.3226C4.73355 15.9311 1.57702 23.5352 1.56761 31.467C1.5564 36.9547 3.06761 42.3325 5.92566 47.0057L1.91895 55.8245L1.91888 55.8247C1.60921 56.5065 1.50083 57.2625 1.60657 58.0039L3.04194 57.7992L1.60657 58.0039C1.71219 58.7444 2.02703 59.4394 2.514 60.0071C2.88249 60.4385 3.33979 60.7852 3.85461 61.0237C4.37012 61.2624 4.93114 61.3869 5.49924 61.3887L5.51034 61.3887C5.86297 61.3871 6.21374 61.3374 6.55295 61.2411L17.9183 58.128C22.1226 60.2682 26.776 61.3867 31.4996 61.3887H31.5019C39.4371 61.3794 47.0447 58.2246 52.6559 52.616C58.2671 47.0074 61.4236 39.4031 61.4329 31.471L61.4329 31.4676C61.4236 23.5356 58.2671 15.9312 52.6559 10.3226C47.0447 4.71407 39.4371 1.55924 31.5019 1.55ZM11.7798 53.1528L9.96107 53.6515L10.7406 51.9342L11.7798 53.1528Z" fill="#C1CB8F" stroke="#282D26" stroke-width="2.9" stroke-linecap="round" stroke-linejoin="round"/>
<path d="M34.2731 35.3431C34.2275 35.4146 34.186 35.4787 34.148 35.5362C31.3063 34.3712 28.9181 32.3507 27.3252 29.7704C27.5674 29.4944 27.8788 29.1376 28.1441 28.7617C28.4764 28.2909 28.8263 27.6722 28.9521 26.9227C29.0764 26.1817 28.9561 25.464 28.7935 24.8853C28.6289 24.2998 28.3917 23.7572 28.192 23.3347C28.15 23.2439 28.1034 23.1399 28.0526 23.0265C27.8614 22.5999 27.6103 22.0395 27.3197 21.538C26.9472 20.8951 26.3899 20.1216 25.5321 19.6439C23.9076 18.7351 21.9991 19.3164 20.8559 20.2477C20.8481 20.254 20.8404 20.2605 20.8327 20.267C19.9669 21.0027 19.2777 21.9213 18.8172 22.9564C18.3591 23.9861 18.1394 25.1043 18.175 26.2294C18.1824 26.8505 18.2609 27.4688 18.4092 28.0723C18.4123 28.085 18.4156 28.0977 18.4191 28.1103C18.7838 29.4391 19.3426 30.7082 20.0774 31.8779C20.5816 32.7095 21.1279 33.5157 21.7143 34.2933C23.6532 36.9107 26.0886 39.1325 28.8848 40.837C30.3063 41.7073 31.8238 42.4149 33.4078 42.9464L33.4221 42.9511C33.5535 42.9936 33.687 43.0378 33.8229 43.0826C35.2875 43.5664 37.0158 44.1373 39.047 43.7595C41.2441 43.3542 43.5728 41.9961 44.5639 39.6853C44.9185 38.8993 45.0255 38.0249 44.8696 37.1764C44.8662 37.1579 44.8625 37.1394 44.8583 37.1211C44.6049 35.9912 43.7659 35.2593 43.1408 34.8196C42.6745 34.4917 42.105 34.1845 41.7057 33.9692C41.58 33.9014 41.4712 33.8427 41.3878 33.7954C40.8611 33.4864 40.1527 33.099 39.374 32.8673C38.5854 32.6326 37.594 32.5188 36.5932 32.9269C35.699 33.2889 35.1162 34.0698 34.7762 34.5655C34.6315 34.7765 34.4893 35.0015 34.369 35.1917C34.3351 35.2453 34.303 35.2961 34.2731 35.3431Z" fill="#C1CB8F" stroke="#282D26" stroke-width="2.9" stroke-linecap="round" stroke-linejoin="round"/>
</svg>
