<svg width="21" height="14" viewBox="0 0 21 14" fill="none" xmlns="http://www.w3.org/2000/svg">
<path d="M20.7873 0.666667C20.7873 0.266667 20.4571 0 19.9619 0H1.80411C1.3089 0 0.97876 0.266667 0.97876 0.666667V2C0.97876 2.4 1.3089 2.66667 1.80411 2.66667H19.9619C20.4571 2.66667 20.7873 2.4 20.7873 2V0.666667Z" fill="white"/>
<path d="M20.7873 6.00001C20.7873 5.60001 20.4571 5.33334 19.9619 5.33334H1.80411C1.3089 5.33334 0.97876 5.60001 0.97876 6.00001V7.33334C0.97876 7.73334 1.3089 8.00001 1.80411 8.00001H19.9619C20.4571 8.00001 20.7873 7.73334 20.7873 7.33334V6.00001Z" fill="white"/>
<path d="M20.7873 11.3333C20.7873 10.9333 20.4571 10.6667 19.9619 10.6667H1.80411C1.3089 10.6667 0.97876 10.9333 0.97876 11.3333V12.6667C0.97876 13.0667 1.3089 13.3333 1.80411 13.3333H19.9619C20.4571 13.3333 20.7873 13.0667 20.7873 12.6667V11.3333Z" fill="white"/>
</svg>
