<svg width="29" height="25" viewBox="0 0 29 25" fill="none" xmlns="http://www.w3.org/2000/svg">
<path d="M27.7451 5.13944C27.3132 4.13925 26.6903 3.23289 25.9114 2.47109C25.132 1.70701 24.213 1.09982 23.2044 0.682512C22.1586 0.248075 21.0369 0.0257059 19.9044 0.0283124C18.3156 0.0283124 16.7655 0.463371 15.4185 1.28515C15.0962 1.48173 14.79 1.69765 14.5 1.9329C14.21 1.69765 13.9038 1.48173 13.5815 1.28515C12.2345 0.463371 10.6844 0.0283124 9.0956 0.0283124C7.95156 0.0283124 6.84297 0.247453 5.79561 0.682512C4.78369 1.10146 3.87168 1.70409 3.08857 2.47109C2.30868 3.23203 1.68568 4.13861 1.25488 5.13944C0.806934 6.18036 0.578125 7.28573 0.578125 8.42333C0.578125 9.49647 0.797266 10.6147 1.23232 11.7523C1.59648 12.703 2.11855 13.6891 2.78564 14.6849C3.84268 16.2608 5.29609 17.9044 7.10078 19.5705C10.0914 22.3323 13.053 24.2401 13.1787 24.3175L13.9425 24.8073C14.2809 25.0232 14.7159 25.0232 15.0543 24.8073L15.8181 24.3175C15.9438 24.2369 18.9021 22.3323 21.896 19.5705C23.7007 17.9044 25.1541 16.2608 26.2111 14.6849C26.8782 13.6891 27.4035 12.703 27.7645 11.7523C28.1995 10.6147 28.4187 9.49647 28.4187 8.42333C28.4219 7.28573 28.1931 6.18036 27.7451 5.13944ZM14.5 22.2582C14.5 22.2582 3.02734 14.9073 3.02734 8.42333C3.02734 5.13944 5.74404 2.47753 9.0956 2.47753C11.4514 2.47753 13.4945 3.79237 14.5 5.71308C15.5055 3.79237 17.5486 2.47753 19.9044 2.47753C23.256 2.47753 25.9727 5.13944 25.9727 8.42333C25.9727 14.9073 14.5 22.2582 14.5 22.2582Z" fill="#4E4E4E"/>
</svg>
