<svg width="16" height="16" viewBox="0 0 16 16" fill="none" xmlns="http://www.w3.org/2000/svg">
<path d="M11.2344 7.4375H4.76562C4.68828 7.4375 4.625 7.50078 4.625 7.57812V8.42188C4.625 8.49922 4.68828 8.5625 4.76562 8.5625H11.2344C11.3117 8.5625 11.375 8.49922 11.375 8.42188V7.57812C11.375 7.50078 11.3117 7.4375 11.2344 7.4375Z" fill="#4E4E4E"/>
<path d="M8 0.125C3.65117 0.125 0.125 3.65117 0.125 8C0.125 12.3488 3.65117 15.875 8 15.875C12.3488 15.875 15.875 12.3488 15.875 8C15.875 3.65117 12.3488 0.125 8 0.125ZM8 14.5391C4.38945 14.5391 1.46094 11.6105 1.46094 8C1.46094 4.38945 4.38945 1.46094 8 1.46094C11.6105 1.46094 14.5391 4.38945 14.5391 8C14.5391 11.6105 11.6105 14.5391 8 14.5391Z" fill="#4E4E4E"/>
</svg>
