<svg width="27" height="26" viewBox="0 0 27 26" fill="none" xmlns="http://www.w3.org/2000/svg">
<path fill-rule="evenodd" clip-rule="evenodd" d="M5.43 11.2522C7.59 15.34 11.07 18.6767 15.315 20.7711L18.615 17.5933C19.02 17.2033 19.62 17.0733 20.145 17.2467C21.825 17.7811 23.64 18.07 25.5 18.07C26.325 18.07 27 18.72 27 19.5144V24.5556C27 25.35 26.325 26 25.5 26C11.415 26 0 15.0078 0 1.44444C0 0.65 0.675 0 1.5 0H6.75C7.575 0 8.25 0.65 8.25 1.44444C8.25 3.25 8.55 4.98333 9.105 6.60111C9.27 7.10667 9.15 7.67 8.73 8.07444L5.43 11.2522Z" fill="#F44C81"/>
</svg>
