<svg width="18" height="18" viewBox="0 0 18 18" fill="none" xmlns="http://www.w3.org/2000/svg">
<path fill-rule="evenodd" clip-rule="evenodd" d="M9 3.9375C9.14918 3.9375 9.29226 3.99676 9.39775 4.10225C9.50324 4.20774 9.5625 4.35082 9.5625 4.5V9C9.5625 9.14918 9.50324 9.29226 9.39775 9.39775C9.29226 9.50324 9.14918 9.5625 9 9.5625H4.5C4.35082 9.5625 4.20774 9.50324 4.10225 9.39775C3.99676 9.29226 3.9375 9.14918 3.9375 9C3.9375 8.85082 3.99676 8.70774 4.10225 8.60225C4.20774 8.49676 4.35082 8.4375 4.5 8.4375H8.4375V4.5C8.4375 4.35082 8.49676 4.20774 8.60225 4.10225C8.70774 3.99676 8.85082 3.9375 9 3.9375Z" fill="#4E4E4E"/>
<path fill-rule="evenodd" clip-rule="evenodd" d="M8.4375 9C8.4375 8.85082 8.49676 8.70774 8.60225 8.60225C8.70774 8.49676 8.85082 8.4375 9 8.4375H13.5C13.6492 8.4375 13.7923 8.49676 13.8977 8.60225C14.0032 8.70774 14.0625 8.85082 14.0625 9C14.0625 9.14918 14.0032 9.29226 13.8977 9.39775C13.7923 9.50324 13.6492 9.5625 13.5 9.5625H9.5625V13.5C9.5625 13.6492 9.50324 13.7923 9.39775 13.8977C9.29226 14.0032 9.14918 14.0625 9 14.0625C8.85082 14.0625 8.70774 14.0032 8.60225 13.8977C8.49676 13.7923 8.4375 13.6492 8.4375 13.5V9Z" fill="#4E4E4E"/>
<path fill-rule="evenodd" clip-rule="evenodd" d="M9 16.875C11.0886 16.875 13.0916 16.0453 14.5685 14.5685C16.0453 13.0916 16.875 11.0886 16.875 9C16.875 6.91142 16.0453 4.90838 14.5685 3.43153C13.0916 1.95468 11.0886 1.125 9 1.125C6.91142 1.125 4.90838 1.95468 3.43153 3.43153C1.95468 4.90838 1.125 6.91142 1.125 9C1.125 11.0886 1.95468 13.0916 3.43153 14.5685C4.90838 16.0453 6.91142 16.875 9 16.875ZM9 18C11.3869 18 13.6761 17.0518 15.364 15.364C17.0518 13.6761 18 11.3869 18 9C18 6.61305 17.0518 4.32387 15.364 2.63604C13.6761 0.948212 11.3869 0 9 0C6.61305 0 4.32387 0.948212 2.63604 2.63604C0.948212 4.32387 0 6.61305 0 9C0 11.3869 0.948212 13.6761 2.63604 15.364C4.32387 17.0518 6.61305 18 9 18Z" fill="#4E4E4E"/>
</svg>
