<svg width="21" height="22" viewBox="0 0 21 22" fill="none" xmlns="http://www.w3.org/2000/svg">
<path d="M20.5 20.3359L14.8375 14.4062C16.1912 12.7048 16.8637 10.5256 16.7153 8.32126C16.5669 6.11689 15.6091 4.05677 14.0406 2.56882C12.4722 1.08086 10.4139 0.279438 8.29303 0.331001C6.17221 0.382565 4.15196 1.28315 2.65191 2.84571C1.15185 4.40827 0.287284 6.5127 0.237783 8.72188C0.188282 10.9311 0.957651 13.0752 2.38609 14.709C3.81452 16.3427 5.79223 17.3405 7.90844 17.4951C10.0246 17.6497 12.1167 16.9492 13.75 15.5391L19.4425 21.4375L20.5 20.3359ZM1.75002 8.9375C1.75002 7.54685 2.1459 6.18743 2.8876 5.03115C3.6293 3.87486 4.68351 2.97365 5.91691 2.44147C7.15031 1.90929 8.50751 1.77005 9.81688 2.04135C11.1263 2.31266 12.329 2.98232 13.273 3.96565C14.217 4.94899 14.8599 6.20184 15.1203 7.56577C15.3808 8.9297 15.2471 10.3434 14.7362 11.6282C14.2253 12.913 13.3602 14.0112 12.2501 14.7838C11.1401 15.5564 9.83504 15.9687 8.50002 15.9687C6.70981 15.9687 4.99292 15.228 3.72705 13.9093C2.46118 12.5907 1.75002 10.8023 1.75002 8.9375Z" fill="#F44C81"/>
</svg>
