<svg width="11" height="12" viewBox="0 0 11 12" fill="none" xmlns="http://www.w3.org/2000/svg">
<path d="M10.5286 4.4827L7.30528 4.01424L5.86436 1.09305C5.82501 1.01307 5.76026 0.94832 5.68028 0.908965C5.4797 0.809941 5.23595 0.892461 5.13565 1.09305L3.69474 4.01424L0.471395 4.4827C0.382528 4.49539 0.301278 4.53729 0.239071 4.60076C0.163866 4.67806 0.122425 4.78205 0.123853 4.88989C0.125281 4.99772 0.169462 5.10058 0.246688 5.17586L2.57882 7.44959L2.02784 10.6602C2.01492 10.7349 2.02319 10.8117 2.0517 10.882C2.08021 10.9522 2.12783 11.013 2.18916 11.0576C2.25049 11.1021 2.32307 11.1286 2.39867 11.134C2.47427 11.1394 2.54988 11.1235 2.6169 11.0881L5.50001 9.57225L8.38311 11.0881C8.46183 11.13 8.55323 11.1439 8.64083 11.1287C8.86173 11.0906 9.01026 10.8811 8.97218 10.6602L8.4212 7.44959L10.7533 5.17586C10.8168 5.11365 10.8587 5.0324 10.8714 4.94354C10.9057 4.72137 10.7508 4.5157 10.5286 4.4827Z" fill="#FFC700"/>
</svg>
