<svg width="31" height="56" viewBox="0 0 31 56" fill="none" xmlns="http://www.w3.org/2000/svg">
<path fill-rule="evenodd" clip-rule="evenodd" d="M29.9367 1.23224C30.913 2.20855 30.913 3.79146 29.9367 4.76777L6.70441 28L29.9366 51.2322C30.913 52.2086 30.913 53.7915 29.9366 54.7678C28.9603 55.7441 27.3774 55.7441 26.4011 54.7678L1.40111 29.7678C0.424802 28.7915 0.424802 27.2085 1.40111 26.2322L26.4011 1.23224C27.3774 0.255927 28.9603 0.255927 29.9367 1.23224Z" fill="#282D26"/>
<path fill-rule="evenodd" clip-rule="evenodd" d="M29.9367 11.0362C30.913 12.0125 30.913 13.5954 29.9367 14.5717L16.5084 28L29.9367 41.4283C30.913 42.4046 30.913 43.9875 29.9367 44.9639C28.9604 45.9402 27.3775 45.9402 26.4011 44.9639L11.2051 29.7678C10.2288 28.7915 10.2288 27.2085 11.2051 26.2322L26.4012 11.0362C27.3775 10.0598 28.9604 10.0599 29.9367 11.0362Z" fill="#282D26"/>
</svg>
