<svg width="31" height="56" viewBox="0 0 31 56" fill="none" xmlns="http://www.w3.org/2000/svg">
<path fill-rule="evenodd" clip-rule="evenodd" d="M1.40112 54.7678C0.424805 53.7915 0.424805 52.2085 1.40112 51.2322L24.6334 28L1.40112 4.76776C0.424809 3.79145 0.424809 2.20854 1.40112 1.23223C2.37743 0.255918 3.96034 0.255918 4.93665 1.23223L29.9367 26.2322C30.913 27.2085 30.913 28.7915 29.9367 29.7678L4.93665 54.7678C3.96034 55.7441 2.37743 55.7441 1.40112 54.7678Z" fill="#282D26"/>
<path fill-rule="evenodd" clip-rule="evenodd" d="M1.40114 44.9639C0.424833 43.9876 0.424834 42.4046 1.40114 41.4283L14.8295 28L1.40115 14.5717C0.424836 13.5954 0.424836 12.0125 1.40115 11.0362C2.37746 10.0599 3.96037 10.0599 4.93668 11.0362L20.1328 26.2323C21.1091 27.2086 21.1091 28.7915 20.1328 29.7678L4.93668 44.9639C3.96037 45.9402 2.37745 45.9402 1.40114 44.9639Z" fill="#282D26"/>
</svg>
