<svg width="68" height="68" viewBox="0 0 68 68" fill="none" xmlns="http://www.w3.org/2000/svg">
<path d="M67.0023 18.0978C65.2045 18.0978 63.742 16.6354 63.742 14.8376C63.742 14.2862 63.2952 13.8395 62.7439 13.8395C62.1926 13.8395 61.7458 14.2862 61.7458 14.8376C61.7458 16.6353 60.2834 18.0978 58.4855 18.0978C57.9342 18.0978 57.4874 18.5446 57.4874 19.0959C57.4874 19.6472 57.9342 20.094 58.4855 20.094C60.2833 20.094 61.7458 21.5565 61.7458 23.3543C61.7458 23.9056 62.1926 24.3524 62.7439 24.3524C63.2952 24.3524 63.742 23.9056 63.742 23.3543C63.742 21.5565 65.2044 20.094 67.0023 20.094C67.5536 20.094 68.0003 19.6472 68.0003 19.0959C68.0003 18.5446 67.5536 18.0978 67.0023 18.0978ZM62.744 20.2758C62.4157 19.8231 62.0167 19.4242 61.5641 19.0959C62.0169 18.7676 62.4158 18.3686 62.744 17.916C63.0723 18.3688 63.4713 18.7676 63.9239 19.0959C63.4712 19.4242 63.0723 19.8232 62.744 20.2758Z" fill="#B9B9B9"/>
<path d="M9.51482 18.0978C7.7172 18.0978 6.25454 16.6354 6.25454 14.8376C6.25454 14.2862 5.80762 13.8395 5.25645 13.8395C4.70528 13.8395 4.25837 14.2862 4.25837 14.8376C4.25837 16.6353 2.7957 18.0978 0.998086 18.0978C0.446914 18.0978 0 18.5446 0 19.0959C0 19.6472 0.446914 20.094 0.998086 20.094C2.7957 20.094 4.25837 21.5565 4.25837 23.3543C4.25837 23.9056 4.70528 24.3524 5.25645 24.3524C5.80762 24.3524 6.25454 23.9056 6.25454 23.3543C6.25454 21.5565 7.7172 20.094 9.51482 20.094C10.066 20.094 10.5129 19.6472 10.5129 19.0959C10.5129 18.5446 10.066 18.0978 9.51482 18.0978ZM5.25645 20.2758C4.92814 19.8231 4.5293 19.4242 4.07655 19.0959C4.52944 18.7676 4.92827 18.3686 5.25645 17.916C5.58477 18.3688 5.9836 18.7676 6.43636 19.0959C5.98373 19.4242 5.58477 19.8232 5.25645 20.2758Z" fill="#B9B9B9"/>
<path d="M39.3229 5.32286C36.9382 5.32286 34.998 3.38287 34.998 0.997953C34.9982 0.446781 34.5514 0 34.0001 0C33.4489 0 33.002 0.446781 33.002 0.998086C33.002 3.38287 31.0617 5.32299 28.6771 5.32299C28.1259 5.32299 27.679 5.76977 27.679 6.32108C27.679 6.87238 28.1259 7.31917 28.6771 7.31917C31.0617 7.31917 33.002 9.25929 33.002 11.6441C33.002 12.1954 33.4489 12.6422 34.0001 12.6422C34.5514 12.6422 34.9982 12.1954 34.9982 11.6441C34.9982 9.25929 36.9383 7.31917 39.3231 7.31917C39.8744 7.31917 40.3212 6.87238 40.3212 6.32108C40.3212 5.76977 39.8742 5.32286 39.3229 5.32286ZM34.0001 8.23796C33.5067 7.46977 32.8513 6.81434 32.0829 6.32095C32.8513 5.82755 33.5067 5.17212 34.0001 4.40393C34.4935 5.17212 35.1489 5.82755 35.9171 6.32095C35.1489 6.81434 34.4935 7.46977 34.0001 8.23796Z" fill="#B9B9B9"/>
<path d="M54.7794 33.6678L50.8971 22.6678C50.6066 21.8446 49.8249 21.2916 48.952 21.2916H18.7821C17.9091 21.2916 17.1275 21.8446 16.837 22.6676L12.9546 33.6678C12.7291 34.3068 13.2192 34.9981 13.8958 34.9981H53.8383C54.1621 34.9981 54.4659 34.8408 54.6529 34.5765C54.84 34.3121 54.8873 33.9733 54.7794 33.6678ZM15.3064 33.0019L18.7192 23.332C18.7283 23.3063 18.7547 23.2876 18.7819 23.2876H48.952C48.9792 23.2876 49.0057 23.3063 49.0148 23.3321L52.4277 33.0019H15.3064Z" fill="#B9B9B9"/>
<path d="M53.0296 46.8415C49.4851 46.8415 46.7086 48.6828 46.7086 51.0333C46.7086 53.3838 49.4851 55.2252 53.0296 55.2252C56.5741 55.2252 59.3505 53.3838 59.3505 51.0333C59.3505 48.6828 56.5741 46.8415 53.0296 46.8415ZM53.0296 53.229C50.5542 53.229 48.7047 52.0698 48.7047 51.0333C48.7047 49.9969 50.5541 48.8377 53.0296 48.8377C55.5049 48.8377 57.3545 49.9969 57.3545 51.0333C57.3545 52.0698 55.5049 53.229 53.0296 53.229Z" fill="#B9B9B9"/>
<path d="M14.7047 46.8415C11.1602 46.8415 8.38373 48.6828 8.38373 51.0333C8.38373 53.3838 11.1602 55.2252 14.7047 55.2252C18.2492 55.2252 21.0256 53.3838 21.0256 51.0333C21.0256 48.6828 18.2492 46.8415 14.7047 46.8415ZM14.7047 53.229C12.2295 53.229 10.3798 52.0698 10.3798 51.0333C10.3798 49.9969 12.2293 48.8377 14.7047 48.8377C17.18 48.8377 19.0296 49.9969 19.0296 51.0333C19.0296 52.0698 17.18 53.229 14.7047 53.229Z" fill="#B9B9B9"/>
<path d="M65.8044 31.9374H60.4816C60.0236 31.9374 59.6244 32.2491 59.5134 32.6934L58.8123 35.4977L53.9087 21.6047C53.1684 19.5072 51.1765 18.0978 48.952 18.0978H18.782C16.5576 18.0978 14.5656 19.5072 13.8253 21.6049L8.92191 35.4979L8.22079 32.6934C8.10963 32.249 7.71039 31.9374 7.25259 31.9374H1.9296C1.37843 31.9374 0.931512 32.3842 0.931512 32.9355V37.1939C0.931512 37.7452 1.37843 38.192 1.9296 38.192H7.44225L4.03972 42.9554C3.3993 43.852 3.06076 44.9087 3.06076 46.0106V58.4854C3.06076 60.214 3.89974 61.7501 5.19161 62.7086C5.19121 62.7203 5.18988 62.7319 5.18988 62.7437V65.9374C5.18988 67.0748 6.11518 68 7.25246 68H13.6399C14.7773 68 15.7025 67.0747 15.7025 65.9374V63.7418H52.0313V65.9374C52.0313 67.0748 52.9566 68 54.0938 68H60.4813C61.6187 68 62.5439 67.0747 62.5439 65.9374V62.7437C62.5439 62.7319 62.5426 62.7203 62.5422 62.7086C63.834 61.7501 64.673 60.214 64.673 58.4854V46.0106C64.673 44.9086 64.3343 43.8519 63.6939 42.9554L60.2914 38.192H65.8042C66.3555 38.192 66.8023 37.7452 66.8023 37.1939V32.9355C66.8024 32.3841 66.3558 31.9374 65.8044 31.9374ZM2.92768 36.1957V33.9335H6.47325L7.03876 36.1957H2.92768ZM13.7066 65.9374C13.7066 65.9741 13.6769 66.004 13.6401 66.004H7.25259C7.21593 66.004 7.18605 65.9741 7.18605 65.9374V63.7418H13.7066V65.9374ZM60.548 65.9374C60.548 65.9741 60.5181 66.004 60.4814 66.004H54.094C54.0573 66.004 54.0274 65.9741 54.0274 65.9374V63.7418H60.548V65.9374ZM59.417 61.7456H8.31708C6.86743 61.7456 5.63626 60.7944 5.21365 59.4834H62.5203C62.0976 60.7944 60.8666 61.7456 59.417 61.7456ZM42.4502 50.9668V53.229H25.2839V50.9668H42.4502ZM25.4407 48.9706C25.8633 47.6596 27.0944 46.7084 28.5442 46.7084H39.19C40.6397 46.7084 41.8708 47.6596 42.2934 48.9706H25.4407ZM42.4502 55.225V57.4872H25.2839V55.225H42.4502ZM62.07 44.1155C62.4673 44.6716 62.6772 45.3269 62.6772 46.0105V57.4874H44.4463V49.9687C44.4463 47.0703 42.0882 44.7124 39.19 44.7124H28.5442C25.6458 44.7124 23.2878 47.0705 23.2878 49.9687V57.4874H5.0568V46.0105C5.0568 45.3269 5.26678 44.6716 5.66402 44.1155L9.89529 38.1918H46.6419C47.1932 38.1918 47.6399 37.745 47.6399 37.1937C47.6399 36.6424 47.1932 36.1957 46.6419 36.1957H10.7923L15.7076 22.2691C16.1668 20.9682 17.4023 20.0939 18.782 20.0939H48.9521C50.3318 20.0939 51.5672 20.968 52.0266 22.2691L56.9417 36.1957H50.9002C50.3489 36.1957 49.9021 36.6424 49.9021 37.1937C49.9021 37.745 50.3489 38.1918 50.9002 38.1918H57.8387L62.07 44.1155ZM64.8064 36.1957H60.6951L61.2607 33.9335H64.8064V36.1957Z" fill="#B9B9B9"/>
<path d="M17.8985 43.6478H11.511C10.9599 43.6478 10.5129 44.0945 10.5129 44.6459C10.5129 45.1972 10.9599 45.6439 11.511 45.6439H17.8985C18.4497 45.6439 18.8966 45.1972 18.8966 44.6459C18.8966 44.0945 18.4497 43.6478 17.8985 43.6478Z" fill="#B9B9B9"/>
<path d="M56.2234 43.6478H49.8359C49.2846 43.6478 48.8378 44.0945 48.8378 44.6459C48.8378 45.1972 49.2846 45.6439 49.8359 45.6439H56.2234C56.7747 45.6439 57.2215 45.1972 57.2215 44.6459C57.2215 44.0945 56.7747 43.6478 56.2234 43.6478Z" fill="#B9B9B9"/>
</svg>
