<svg width="26" height="19" viewBox="0 0 26 19" fill="none" xmlns="http://www.w3.org/2000/svg">
<path d="M25.8506 5.74647C25.7235 5.58992 25.5337 5.49855 25.3347 5.49855H22.8043C22.1798 3.8363 21.3663 2.20765 20.4416 1.59287C17.2429 -0.530958 8.7583 -0.530958 5.55952 1.59287C4.63418 2.20832 3.824 3.83899 3.19623 5.49855H0.665832C0.464785 5.49855 0.275721 5.58992 0.149901 5.74647C0.0234144 5.90235 -0.0271802 6.10862 0.0140944 6.30682L0.388893 8.13973C0.452802 8.45216 0.725747 8.67522 1.04063 8.67522H1.79023C1.06659 9.51777 0.715761 10.5787 0.711101 11.6403C0.706441 12.9518 1.19974 14.137 2.10179 14.9755C2.11177 14.9842 2.12176 14.9903 2.13108 14.999V17.5636C2.13108 18.1192 2.57844 18.5714 3.12965 18.5714H5.46366C6.01487 18.5714 6.46224 18.1192 6.46224 17.5636V16.5329H19.5376V17.5636C19.5376 18.1192 19.985 18.5714 20.5362 18.5714H22.8702C23.4201 18.5714 23.8688 18.1192 23.8688 17.5636V15.0494C24.8261 14.1645 25.2834 12.9471 25.2894 11.7316C25.2934 10.6338 24.9266 9.53389 24.1603 8.67388H24.9599C25.2761 8.67388 25.549 8.45081 25.6116 8.13771L25.9871 6.30548C26.0257 6.10862 25.9771 5.90369 25.8506 5.74647ZM6.65596 3.27595C9.20566 1.58212 16.7942 1.58212 19.3425 3.27595C19.8378 3.60383 20.4749 4.92946 21.0588 6.55273H4.94107C5.52358 4.93013 6.16067 3.60517 6.65596 3.27595ZM3.66955 11.8929C3.66955 10.7977 4.54963 9.91082 5.63408 9.91082C6.71987 9.91082 7.59862 10.7977 7.59862 11.8929C7.59862 12.9881 6.71987 13.8756 5.63408 13.8756C4.54963 13.8756 3.66955 12.9881 3.66955 11.8929ZM20.3917 13.8756C19.3073 13.8756 18.4272 12.9881 18.4272 11.8929C18.4272 10.7977 19.3073 9.91082 20.3917 9.91082C21.4775 9.91082 22.3563 10.7977 22.3563 11.8929C22.3563 12.9881 21.4762 13.8756 20.3917 13.8756Z" fill="white"/>
</svg>
