<svg width="91" height="97" viewBox="0 0 91 97" fill="none" xmlns="http://www.w3.org/2000/svg">
<path fill-rule="evenodd" clip-rule="evenodd" d="M80.7768 85.6813H10.2971V1.66864H80.7768V85.6813ZM82.372 0.798047V85.6824H90.2024C90.6375 85.6824 91 86.0452 91 86.553C91 86.9883 90.6375 87.3511 90.2024 87.3511H0.87012C0.43506 87.3511 0 86.9883 0 86.553C0 86.0452 0.43506 85.6824 0.87012 85.6824H8.62941V70.1547H4.27832C3.77075 70.1547 3.4082 69.7919 3.4082 69.2841V56.5153C3.4082 56.0075 3.77075 55.6447 4.27832 55.6447H8.62941V28.0768H4.27832C3.77075 28.0768 3.4082 27.714 3.4082 27.2787V14.4374C3.4082 14.0021 3.77075 13.5668 4.27832 13.5668H8.62941V0.798047C8.62941 0.362749 8.99196 0 9.49953 0H81.5744C82.0095 0 82.372 0.362749 82.372 0.798047ZM8.62892 26.4081H5.07593V15.2355H8.62892V26.4081ZM5.07593 68.486H8.62892V57.3134H5.07593V68.486ZM51.4813 57.4583H39.5171V43.0934C39.5171 42.5856 39.1546 42.2228 38.7195 42.2228H24.29V30.2521H38.7195C39.1546 30.2521 39.5171 29.8894 39.5171 29.4541V15.0892H51.4813V29.4541C51.4813 29.8894 51.8438 30.2521 52.3514 30.2521H66.7084V42.2228H52.3514C51.8438 42.2228 51.4813 42.5856 51.4813 43.0934V57.4583ZM38.7195 59.1269H52.3514C52.7865 59.1269 53.149 58.7642 53.149 58.2563V43.8915H67.5785C68.0135 43.8915 68.3761 43.5287 68.3761 43.0934V29.4541C68.3761 29.0188 68.0135 28.5835 67.5785 28.5835H53.149V14.2186C53.149 13.7833 52.7865 13.4206 52.3514 13.4206H38.7195C38.2845 13.4206 37.8494 13.7833 37.8494 14.2186V28.5835H23.4924C23.0574 28.5835 22.6948 29.0188 22.6948 29.4541V43.0934C22.6948 43.5287 23.0574 43.8915 23.4924 43.8915H37.8494V58.2563C37.8494 58.7642 38.2845 59.1269 38.7195 59.1269ZM21.8975 97H69.174C69.609 97 69.9716 96.6373 69.9716 96.1294C69.9716 95.6941 69.609 95.3314 69.174 95.3314H21.8975C21.4624 95.3314 21.0273 95.6941 21.0273 96.1294C21.0273 96.6373 21.4624 97 21.8975 97ZM66.3473 67.7617H25.0891C24.6541 67.7617 24.2915 67.3989 24.2915 66.8911C24.2915 66.4558 24.6541 66.093 25.0891 66.093H66.3473C66.7823 66.093 67.2174 66.4558 67.2174 66.8911C67.2174 67.3989 66.7823 67.7617 66.3473 67.7617ZM25.0891 78.9353H66.3473C66.7823 78.9353 67.2174 78.5725 67.2174 78.1372C67.2174 77.6294 66.7823 77.2666 66.3473 77.2666H25.0891C24.6541 77.2666 24.2915 77.6294 24.2915 78.1372C24.2915 78.5725 24.6541 78.9353 25.0891 78.9353Z" fill="url(#paint0_linear)"/>
<defs>
<linearGradient id="paint0_linear" x1="21.9917" y1="-1.04311e-06" x2="72.0803" y2="84.5827" gradientUnits="userSpaceOnUse">
<stop stop-color="#54E2CB"/>
<stop offset="1" stop-color="#35CCB1"/>
</linearGradient>
</defs>
</svg>
