<svg width="103" height="69" viewBox="0 0 103 69" fill="none" xmlns="http://www.w3.org/2000/svg">
<path fill-rule="evenodd" clip-rule="evenodd" d="M95.7582 58.4035H94.2945V16.09C94.2945 12.7388 91.9953 9.92458 88.9115 9.07854C88.2958 8.90815 87.6469 8.81715 86.9765 8.81715H10.4766V7.27143C10.4766 4.25456 12.9418 1.77918 16.0233 1.77918H95.7582C98.8398 1.77918 101.305 4.25456 101.305 7.27143V52.9113C101.305 55.9282 98.8398 58.4035 95.7582 58.4035ZM8.78172 8.81715V7.27143C8.78172 3.24894 12.0173 0 16.0233 0H95.7582C99.7642 0 103 3.24894 103 7.27143V52.9113C103 56.9338 99.7642 60.1827 95.7582 60.1827H94.2181V61.7284C94.2181 65.7509 90.9825 68.9999 86.9765 68.9999H7.24162C3.23562 68.9999 0 65.7509 0 61.7284V16.0886C0 12.0661 3.23562 8.81715 7.24162 8.81715H8.78172ZM9.58121 10.5963H7.24162C4.23712 10.5963 1.77189 13.0717 1.77189 16.0886V61.7284C1.77189 64.7453 4.23712 67.2207 7.24162 67.2207H86.9765C90.0581 67.2207 92.5233 64.7453 92.5233 61.7284V59.3653C92.5228 59.3542 92.5226 59.343 92.5226 59.3318V16.09C92.5226 13.0731 90.0574 10.5977 86.9758 10.5977H9.62914C9.61307 10.5977 9.59709 10.5973 9.58121 10.5963ZM29.2741 50.5142H22.5717V43.1654C22.5717 42.7013 22.1865 42.3145 21.7243 42.3145H14.3286V35.5846H21.7243C22.1865 35.5846 22.5717 35.1978 22.5717 34.6563V27.3075H29.2741V34.6563C29.2741 35.1978 29.6593 35.5846 30.1215 35.5846H37.5172V42.3145H30.1215C29.6593 42.3145 29.2741 42.7013 29.2741 43.1654V50.5142ZM21.7243 52.2934H30.1215C30.6608 52.2934 31.0459 51.9066 31.0459 51.4425V44.0163H38.3646C38.9039 44.0163 39.2891 43.6296 39.2891 43.1654V34.6563C39.2891 34.1922 38.9039 33.8054 38.3646 33.8054H31.0459V26.3792C31.0459 25.9151 30.6608 25.5283 30.1215 25.5283H21.7243C21.185 25.5283 20.7998 25.9151 20.7998 26.3792V33.8054H13.4812C13.0189 33.8054 12.5567 34.1922 12.5567 34.6563V43.1654C12.5567 43.6296 13.0189 44.0163 13.4812 44.0163H20.7998V51.4425C20.7998 51.9066 21.185 52.2934 21.7243 52.2934ZM80.7357 27.2294H48.8417C48.3795 27.2294 47.9943 26.7652 47.9943 26.3011C47.9943 25.837 48.3795 25.4502 48.8417 25.4502H80.7357C81.2749 25.4502 81.6601 25.837 81.6601 26.3011C81.6601 26.7652 81.2749 27.2294 80.7357 27.2294ZM48.8417 39.8378H80.7357C81.2749 39.8378 81.6601 39.3736 81.6601 38.9095C81.6601 38.4454 81.2749 38.0586 80.7357 38.0586H48.8417C48.3795 38.0586 47.9943 38.4454 47.9943 38.9095C47.9943 39.3736 48.3795 39.8378 48.8417 39.8378ZM80.7357 52.3708H48.8417C48.3795 52.3708 47.9943 51.984 47.9943 51.5199C47.9943 51.0557 48.3795 50.6689 48.8417 50.6689H80.7357C81.2749 50.6689 81.6601 51.0557 81.6601 51.5199C81.6601 51.984 81.2749 52.3708 80.7357 52.3708Z" fill="url(#paint0_linear)"/>
<defs>
<linearGradient id="paint0_linear" x1="24.8916" y1="-7.42002e-07" x2="51.4569" y2="71.3798" gradientUnits="userSpaceOnUse">
<stop stop-color="#54E2CB"/>
<stop offset="1" stop-color="#35CCB1"/>
</linearGradient>
</defs>
</svg>
