<svg width="103" height="85" viewBox="0 0 103 85" fill="none" xmlns="http://www.w3.org/2000/svg">
<path fill-rule="evenodd" clip-rule="evenodd" d="M31.3306 21.7909H25.3267V1.77727H77.6735V21.7909H71.6684V7.34049C71.6684 6.79958 71.2835 6.41322 70.8216 6.41322H32.1774C31.7155 6.41322 31.3306 6.79958 31.3306 7.34049V21.7909ZM23.5561 21.7913V0.92727C23.5561 0.386363 23.941 0 24.4029 0H78.5972C79.0591 0 79.444 0.386363 79.444 0.92727V21.7913H97.7653C100.614 21.7913 103 24.1095 103 26.9685V79.7457C103 82.682 100.614 85.0002 97.7653 85.0002H5.23468C2.30942 85.0002 0 82.682 0 79.7457V66.2982V43.7346V26.9685C0 24.1095 2.30942 21.7913 5.23468 21.7913H23.5561ZM1.77055 79.7457V67.1482H39.2971C42.5444 70.031 46.8174 71.786 51.4989 71.786C56.145 71.786 60.3989 70.031 63.6359 67.1482H101.229V79.7457C101.229 81.6775 99.6898 83.223 97.7653 83.223H5.23468C3.31016 83.223 1.77055 81.6775 1.77055 79.7457ZM33.1006 53.3951C33.1006 50.2288 33.8943 47.2561 35.293 44.6619H1.77055V65.3709H37.5475C34.7759 62.1484 33.1006 57.9604 33.1006 53.3951ZM34.8722 53.3937C34.8722 55.5438 35.3003 57.6768 36.1079 59.6629C38.5951 65.7099 44.5614 70.0087 51.4989 70.0087C60.6596 70.0087 68.0498 62.5133 68.0498 53.3951C68.0498 44.1997 60.6596 36.7043 51.4989 36.7043C45.7569 36.7043 40.6803 39.6492 37.6909 44.1117C37.6772 44.1423 37.6614 44.1713 37.6435 44.1983C35.8729 46.9801 34.8722 50.1483 34.8722 53.3937ZM1.77055 42.8846H36.3862C39.7095 38.1128 45.239 35.0043 51.4989 35.0043C57.7114 35.0043 63.2228 38.1128 66.5391 42.8846H101.229V26.9685C101.229 25.114 99.6898 23.4913 97.7653 23.4913H5.23468C3.31016 23.4913 1.77055 25.114 1.77055 26.9685V42.8846ZM65.3804 65.3709H101.229V44.6619H67.6653C68.6969 46.6177 69.3871 48.7877 69.6725 51.0443C69.7065 51.3121 69.7347 51.5818 69.7571 51.8533C69.7993 52.3636 69.8208 52.8776 69.8208 53.3937C69.8208 53.6252 69.8163 53.8562 69.8075 54.0867C69.6476 58.3827 68.0048 62.3118 65.3804 65.3709ZM51.5009 63.9028C50.9621 63.9028 50.5771 63.5164 50.5771 62.9755V54.2474H41.8775C41.4157 54.2474 41.0308 53.8608 41.0308 53.397C41.0308 52.8559 41.4157 52.4693 41.8775 52.4693H50.5771V43.7346C50.5771 43.271 50.9621 42.8846 51.5009 42.8846C51.9628 42.8846 52.3477 43.271 52.3477 43.7346V52.4693H61.1227C61.5846 52.4693 61.9695 52.8559 61.9695 53.397C61.9695 53.8608 61.5846 54.2474 61.1227 54.2474H52.3477V62.9755C52.3477 63.5164 51.9628 63.9028 51.5009 63.9028ZM69.8978 21.7905H33.0241V8.19049H69.8978V21.7905Z" fill="url(#paint0_linear)"/>
<defs>
<linearGradient id="paint0_linear" x1="24.8917" y1="-9.14065e-07" x2="62.8178" y2="82.7234" gradientUnits="userSpaceOnUse">
<stop stop-color="#54E2CB"/>
<stop offset="1" stop-color="#35CCB1"/>
</linearGradient>
</defs>
</svg>
