<svg width="97" height="97" viewBox="0 0 97 97" fill="none" xmlns="http://www.w3.org/2000/svg">
<path fill-rule="evenodd" clip-rule="evenodd" d="M4.31274 1.66988C2.85079 1.66988 1.68124 2.83154 1.68124 4.21101V56.7041H95.3188V4.21101C95.3188 2.83154 94.1492 1.66988 92.6873 1.66988H4.31274ZM95.3188 58.374H1.68124V68.7556C1.68124 70.2077 2.85079 71.3694 4.31274 71.3694H38.7934L38.814 71.3691H58.1847L58.2053 71.3694H92.6873C94.1492 71.3694 95.3188 70.2077 95.3188 68.7556V58.374ZM97 4.21101V57.5027V68.7556C97 71.0789 95.0264 73.0392 92.6873 73.0392H59.2113L60.7973 83.0576H67.5425C68.0542 83.0576 68.4197 83.4206 68.4197 83.8563V89.0117H77.9937C78.4323 89.0117 78.7978 89.3747 78.7978 89.883C78.7978 90.3186 78.4323 90.6816 77.9937 90.6816H19.0043C18.5657 90.6816 18.2002 90.3186 18.2002 89.883C18.2002 89.3747 18.5657 89.0117 19.0043 89.0117H28.6548V83.8563C28.6548 83.4206 29.0203 83.0576 29.4589 83.0576H36.2164L37.8554 73.0392H4.31274C1.97362 73.0392 0 71.0789 0 68.7556V57.5027V4.21101C0 1.88769 1.97362 0 4.31274 0H92.6873C95.0264 0 97 1.88769 97 4.21101ZM36.8869 84.7275C36.8957 84.728 36.9046 84.7282 36.9134 84.7282H60.0853C60.0955 84.7282 60.1056 84.728 60.1157 84.7275H66.7384V89.0111H30.2629V84.7275H36.8869ZM59.0618 83.0576L57.5269 73.0392H39.5449L37.9369 83.0576H59.0618ZM45.9039 64.837C45.9039 63.3849 47.0734 62.2233 48.5354 62.2233C49.9242 62.2233 51.0938 63.3849 51.0938 64.837C51.0938 66.2891 49.9242 67.4507 48.5354 67.4507C47.0734 67.4507 45.9039 66.2891 45.9039 64.837ZM44.2227 64.837C44.2227 67.2329 46.1232 69.1206 48.5354 69.1206C50.8745 69.1206 52.775 67.2329 52.775 64.837C52.775 62.5137 50.8745 60.626 48.5354 60.626C46.1232 60.626 44.2227 62.5137 44.2227 64.837ZM61.1829 17.3545C57.8204 17.3545 55.0427 20.1134 55.0427 23.3806C55.0427 29.768 61.6181 36.3732 68.049 42.8333L68.054 42.8383C74.5597 36.3766 81.0653 29.7697 81.0653 23.3806C81.0653 20.1134 78.3607 17.3545 74.9983 17.3545C72.1475 17.3545 70.6124 18.5887 68.8581 22.0737C68.7119 22.3641 68.4195 22.5093 68.054 22.5093C67.7616 22.5093 67.4692 22.3641 67.323 22.0737C65.5687 18.5887 64.0337 17.3545 61.1829 17.3545ZM68.054 44.8712C67.8347 44.8712 67.6154 44.7986 67.4692 44.5808C60.525 37.7561 53.4346 30.6409 53.4346 23.3806C53.4346 19.1695 56.8701 15.6846 61.1829 15.6846C64.6184 15.6846 66.519 17.2819 68.054 19.9682C69.6622 17.2819 71.5627 15.6846 74.9983 15.6846C79.311 15.6846 82.7466 19.1695 82.7466 23.3806C82.7466 30.6409 75.583 37.7561 68.7119 44.5808H68.6388C68.4926 44.7986 68.2733 44.8712 68.054 44.8712ZM40.4227 19.3832H15.9351V14.8818H40.4227V19.3832ZM15.058 21.0531H41.2999C41.7385 21.0531 42.104 20.6901 42.104 20.2545V14.0106C42.104 13.5749 41.7385 13.2119 41.2999 13.2119H15.058C14.6194 13.2119 14.2539 13.5749 14.2539 14.0106V20.2545C14.2539 20.6901 14.6194 21.0531 15.058 21.0531ZM15.9351 32.5268H40.4227V28.0254H15.9351V32.5268ZM41.2999 34.1967H15.058C14.6194 34.1967 14.2539 33.8336 14.2539 33.398V27.1541C14.2539 26.7185 14.6194 26.3555 15.058 26.3555H41.2999C41.7385 26.3555 42.104 26.7185 42.104 27.1541V33.398C42.104 33.8336 41.7385 34.1967 41.2999 34.1967ZM40.4227 45.6654H15.9351V41.164H40.4227V45.6654ZM15.058 47.3353H41.2999C41.7385 47.3353 42.104 46.9723 42.104 46.5367V40.2928C42.104 39.8572 41.7385 39.4941 41.2999 39.4941H15.058C14.6194 39.4941 14.2539 39.8572 14.2539 40.2928V46.5367C14.2539 46.9723 14.6194 47.3353 15.058 47.3353ZM34.8666 96.9996H62.1318C62.5704 96.9996 63.009 96.6366 63.009 96.201C63.009 95.7654 62.5704 95.4023 62.1318 95.4023H34.8666C34.428 95.4023 34.0625 95.7654 34.0625 96.201C34.0625 96.6366 34.428 96.9996 34.8666 96.9996Z" fill="url(#paint0_linear)"/>
<defs>
<linearGradient id="paint0_linear" x1="23.4417" y1="-1.0431e-06" x2="71.9414" y2="87.2998" gradientUnits="userSpaceOnUse">
<stop stop-color="#54E2CB"/>
<stop offset="1" stop-color="#35CCB1"/>
</linearGradient>
</defs>
</svg>
