<svg width="91" height="97" viewBox="0 0 91 97" fill="none" xmlns="http://www.w3.org/2000/svg">
<path fill-rule="evenodd" clip-rule="evenodd" d="M50.0536 88.873H41.0192V80.5303C41.0192 80.095 40.6549 79.7322 40.2906 79.7322C37.6677 79.2969 35.1177 78.644 32.7134 77.7008C32.3491 77.5557 31.9119 77.7008 31.6934 78.0636L27.5404 85.246L19.6717 80.7479L23.8975 73.5655C24.1161 73.2027 23.9704 72.7674 23.6789 72.4772C21.6389 70.8811 19.7446 68.9949 18.1417 66.9635C17.8503 66.6733 17.4131 66.5282 17.0488 66.7458L9.83587 70.9537L5.31866 63.1909L12.5316 58.983C12.8959 58.7653 13.0416 58.33 12.8959 57.9673C11.9488 55.5731 11.293 53.0339 10.8559 50.4221C10.783 50.0594 10.4916 49.7692 10.0544 49.7692H1.67574V40.773H10.0544C10.4916 40.773 10.8559 40.4828 10.8559 40.0475C11.293 37.5082 11.9488 34.969 12.8959 32.5023C13.0416 32.1396 12.8959 31.7043 12.5316 31.4866L5.31866 27.3513L9.83587 19.5884L17.0488 23.7238C17.4131 23.9414 17.8503 23.8689 18.1417 23.5061C19.7446 21.4747 21.6389 19.661 23.6789 17.9923C23.9704 17.7747 24.1161 17.3394 23.8975 16.9767L19.6717 9.72167L27.5404 5.22359L31.6934 12.4786C31.9119 12.7688 32.3491 12.9864 32.7134 12.8413C35.1177 11.8256 37.6677 11.1727 40.2906 10.8099C40.6549 10.7374 41.0192 10.3746 41.0192 10.0119V1.66865H50.0536V10.0119C50.0536 10.3746 50.3451 10.7374 50.7094 10.8099C53.3323 11.1727 55.8823 11.8256 58.2866 12.8413C58.6509 12.9864 59.0881 12.7688 59.3066 12.4786L63.5324 5.22359L71.3283 9.72167L67.1025 16.9767C66.9568 17.3394 67.0296 17.7747 67.3211 17.9923C69.3611 19.661 71.2554 21.4747 72.8583 23.5061C73.1497 23.8689 73.5869 23.9414 73.9512 23.7238L81.1641 19.5884L85.6814 27.3513L78.4684 31.4866C78.1041 31.7043 77.9584 32.1396 78.1041 32.5023C79.0512 34.969 79.7798 37.5082 80.1441 40.0475C80.217 40.4828 80.5084 40.773 80.9456 40.773H89.3243V49.7692H80.9456C80.5084 49.7692 80.217 50.0594 80.1441 50.4221C79.707 53.0339 79.0512 55.5731 78.1041 57.9673C77.9584 58.33 78.1041 58.7653 78.4684 58.983L85.6814 63.1909L81.1641 70.9537L73.9512 66.7458C73.5869 66.5282 73.1497 66.6733 72.8583 66.9635C71.2554 68.9949 69.3611 70.8811 67.3211 72.4772C67.0296 72.7674 66.9568 73.2027 67.1025 73.5655L71.3283 80.7479L63.5324 85.246L59.3066 78.0636C59.0881 77.7008 58.6509 77.5557 58.2866 77.7008C55.8823 78.644 53.3323 79.2969 50.7094 79.7322C50.3451 79.7322 50.0536 80.095 50.0536 80.5303V88.873ZM39.3435 81.2558V88.873H12.095C11.585 88.873 11.2207 89.2358 11.2207 89.6711C11.2207 90.1064 11.585 90.5417 12.095 90.5417H40.1208C40.1288 90.542 40.1368 90.5421 40.1449 90.5421H50.8551C50.8632 90.5421 50.8712 90.542 50.8792 90.5417H78.9061C79.4161 90.5417 79.7804 90.1064 79.7804 89.6711C79.7804 89.2358 79.4161 88.873 78.9061 88.873H51.6565V81.2558C53.9151 80.8205 56.1009 80.2401 58.2138 79.5146L62.5124 86.7695C62.731 87.2048 63.241 87.3499 63.6053 87.1323L72.8583 81.7636C73.0769 81.6911 73.2226 81.4734 73.2954 81.2558C73.2954 81.0381 73.2954 80.8205 73.1497 80.6754L68.9239 73.3478C70.6725 71.8968 72.2754 70.3007 73.7326 68.5596L81.0913 72.7674C81.237 72.9125 81.5284 72.9125 81.747 72.84C81.8927 72.84 82.1113 72.6949 82.1842 72.4772L87.5757 63.2634C87.6485 63.0458 87.7214 62.8281 87.6485 62.6105C87.5757 62.3928 87.4299 62.2477 87.2842 62.1026L79.9255 57.8947C80.727 55.7908 81.3099 53.6143 81.6741 51.3652H90.1257C90.6357 51.3652 91 51.0025 91 50.5672V39.9024C91 39.4671 90.6357 39.1043 90.1257 39.1043H81.6741C81.3099 36.9278 80.727 34.6788 79.9255 32.5749L87.2842 28.367C87.4299 28.2219 87.5757 28.0768 87.6485 27.8591C87.7214 27.6415 87.6485 27.4238 87.5757 27.2062L82.1842 17.9923C82.1113 17.8472 81.8927 17.7021 81.747 17.6296C81.5284 17.557 81.237 17.6296 81.0913 17.7021L73.7326 21.91C72.2754 20.2414 70.6725 18.5727 68.9239 17.1943L73.1497 9.86677C73.2954 9.64912 73.2954 9.43147 73.2954 9.21382C73.2226 8.99617 73.0769 8.85107 72.8583 8.70597L63.6053 3.40984C63.241 3.19219 62.731 3.33729 62.5124 3.70004L58.2138 11.0276C56.1009 10.2295 53.9151 9.64912 51.6565 9.28637V0.798048C51.6565 0.362749 51.2922 0 50.8551 0H40.1449C39.7078 0 39.3435 0.362749 39.3435 0.798048V9.28637C37.0849 9.64912 34.8991 10.2295 32.7862 11.0276L28.5604 3.70004C28.269 3.33729 27.759 3.19219 27.3947 3.40984L18.1417 8.70597C17.9231 8.85107 17.7774 8.99617 17.7774 9.21382C17.7046 9.43147 17.7046 9.64912 17.8503 9.86677L22.0761 17.1943C20.3275 18.6453 18.7246 20.2414 17.2674 21.91L9.90873 17.7021C9.54444 17.4845 9.03443 17.6296 8.81585 17.9923L3.42434 27.2062C3.35148 27.4238 3.27862 27.6415 3.35148 27.8591C3.42434 28.0768 3.57006 28.2219 3.71577 28.367L11.0745 32.5749C10.3459 34.6788 9.69015 36.8553 9.32586 39.1043H0.874299C0.364291 39.1043 0 39.4671 0 39.9024V50.5672C0 51.0025 0.364291 51.3652 0.874299 51.3652H9.32586C9.76301 53.6143 10.3459 55.7908 11.0745 57.8947L3.71577 62.1026C3.57006 62.2477 3.42434 62.3928 3.35148 62.6105C3.27862 62.8281 3.35148 63.0458 3.42434 63.2634L8.81585 72.4772C9.03443 72.9125 9.54444 72.9851 9.90873 72.7674L17.2674 68.5596C18.7246 70.3007 20.3275 71.8968 22.0761 73.3478L17.8503 80.6754C17.7046 80.8205 17.7046 81.0381 17.7774 81.2558C17.7774 81.4734 17.9231 81.6911 18.1417 81.7636L27.3947 87.1323C27.759 87.3499 28.269 87.2048 28.5604 86.7695L32.7862 79.5146C34.8991 80.2401 37.0849 80.8205 39.3435 81.2558ZM45.5354 22.7076C33.0037 22.7076 22.8764 32.792 22.8764 45.2706C22.8764 57.6766 33.0037 67.761 45.5354 67.761C57.9941 67.761 68.1214 57.6766 68.1214 45.2706C68.1214 32.792 57.9941 22.7076 45.5354 22.7076ZM45.5354 69.4297C32.1294 69.4297 21.2007 58.6197 21.2007 45.2706C21.2007 31.9214 32.1294 21.039 45.5354 21.039C58.9413 21.039 69.7972 31.9214 69.7972 45.2706C69.7972 58.6197 58.9413 69.4297 45.5354 69.4297ZM49.6882 58.6201H41.3095V50.2769C41.3095 49.769 40.9452 49.4063 40.5081 49.4063H32.0565V41.063H40.5081C40.9452 41.063 41.3095 40.7003 41.3095 40.265V31.9218H49.6882V40.265C49.6882 40.7003 50.0525 41.063 50.5625 41.063H58.9412V49.4063H50.5625C50.0525 49.4063 49.6882 49.769 49.6882 50.2769V58.6201ZM40.5081 60.2887H50.5625C50.9997 60.2887 51.3639 59.926 51.3639 59.4181V51.0749H59.7426C60.2527 51.0749 60.6169 50.7122 60.6169 50.2769V40.265C60.6169 39.7571 60.2527 39.3944 59.7426 39.3944H51.3639V31.0512C51.3639 30.6159 50.9997 30.2531 50.5625 30.2531H40.5081C39.9981 30.2531 39.6338 30.6159 39.6338 31.0512V39.3944H31.2551C30.8179 39.3944 30.4536 39.7571 30.4536 40.265V50.2769C30.4536 50.7122 30.8179 51.0749 31.2551 51.0749H39.6338V59.4181C39.6338 59.926 39.9981 60.2887 40.5081 60.2887ZM28.1233 97H62.8767C63.3867 97 63.751 96.6372 63.751 96.1294C63.751 95.6941 63.3867 95.3314 62.8767 95.3314H28.1233C27.6133 95.3314 27.249 95.6941 27.249 96.1294C27.249 96.6372 27.6133 97 28.1233 97Z" fill="url(#paint0_linear)"/>
<defs>
<linearGradient id="paint0_linear" x1="21.9917" y1="-1.04311e-06" x2="72.0803" y2="84.5827" gradientUnits="userSpaceOnUse">
<stop stop-color="#54E2CB"/>
<stop offset="1" stop-color="#35CCB1"/>
</linearGradient>
</defs>
</svg>
