<svg width="80" height="97" viewBox="0 0 80 97" fill="none" xmlns="http://www.w3.org/2000/svg">
<path fill-rule="evenodd" clip-rule="evenodd" d="M37.1017 7.2552C37.1017 7.69051 37.465 8.05327 37.9736 8.05327C38.4095 8.05327 38.7728 7.69051 38.7728 7.2552V0.798072C38.7728 0.36276 38.4095 0 37.9736 0C37.465 0 37.1017 0.36276 37.1017 0.798072V7.2552ZM12.9064 47.1568C12.9064 31.2679 25.8395 18.3537 41.8244 18.3537H42.0423C49.8168 18.4262 57.0826 21.4734 62.4593 26.9873C67.836 32.4287 70.815 39.7565 70.7424 47.5196C70.6697 51.9452 69.5798 56.3709 67.5454 60.2887C63.4765 68.2694 61.2968 77.1933 61.2968 86.0447V93.9528C61.2968 94.7509 60.7155 95.3313 59.9163 95.3313H29.1092C28.3826 95.3313 27.7287 94.7509 27.7287 93.9528V86.2623C27.7287 85.827 27.3654 85.4642 26.9294 85.4642H18.2831C15.3041 85.4642 12.8337 82.9975 12.8337 80.0228V69.0675C12.8337 68.6322 12.4704 68.2694 12.0345 68.2694L7.02104 68.1243C6.36712 68.1243 5.78585 67.7616 5.42256 67.2537C5.13193 66.6733 5.05927 66.0203 5.42256 65.4399L10.9446 55.065C12.1798 52.6707 12.9064 49.9138 12.9064 47.1568ZM29.1092 97H59.9163C61.5874 97 62.9679 95.6215 62.9679 93.9528V86.0447C62.9679 77.411 65.075 68.7773 69.0712 61.0868C71.1783 56.8788 72.3409 52.2354 72.4135 47.5196C72.4862 39.3212 69.3619 31.6307 63.6219 25.8265C57.9545 19.9498 50.2527 16.7575 42.0423 16.685H41.8244C24.9676 16.685 11.2352 30.3973 11.2352 47.1568C11.2352 49.6236 10.5813 52.0903 9.41877 54.2669L3.89674 64.6418C3.38813 65.7301 3.38813 67.036 4.04205 68.0518C4.62332 69.14 5.71319 69.793 6.94839 69.793L11.2352 69.8656V80.0228C11.2352 83.9407 14.3595 87.0604 18.2831 87.0604H26.0575V93.9528C26.0575 95.6215 27.438 97 29.1092 97ZM25.0404 45.9997C25.0404 36.6405 32.6695 29.0226 42.0424 29.0226C51.4153 29.0226 59.0445 36.6405 59.0445 45.9997C59.0445 55.2864 51.4153 62.9043 42.0424 62.9043C32.6695 62.9043 25.0404 55.2864 25.0404 45.9997ZM23.4419 45.9997C23.4419 56.2296 31.7976 64.573 42.0424 64.573C52.3599 64.573 60.7156 56.2296 60.7156 45.9997C60.7156 35.6973 52.3599 27.3539 42.0424 27.3539C31.7976 27.3539 23.4419 35.6973 23.4419 45.9997ZM42.0428 35.9863C36.5208 35.9863 32.0886 40.4845 32.0886 45.9985C32.0886 51.4398 36.5208 55.9381 42.0428 55.9381C47.5648 55.9381 51.997 51.4398 51.997 45.9985C51.997 40.4845 47.5648 35.9863 42.0428 35.9863ZM42.0428 57.6068C35.6489 57.6068 30.4175 52.383 30.4175 45.9985C30.4175 39.5413 35.6489 34.3901 42.0428 34.3901C48.4367 34.3901 53.6681 39.5413 53.6681 45.9985C53.6681 52.383 48.4367 57.6068 42.0428 57.6068ZM48.1461 8.344C48.0735 8.344 48.0008 8.344 47.9282 8.27145C47.4922 8.1989 47.2016 7.69104 47.3469 7.25572L49.018 1.08881C49.0907 0.653494 49.5993 0.363286 50.0352 0.50839C50.4712 0.653494 50.6892 1.08881 50.6165 1.52412L48.9454 7.69104C48.8727 8.0538 48.5094 8.344 48.1461 8.344ZM57.5185 11.1004C57.5912 11.1729 57.7365 11.1729 57.8818 11.1729C58.1724 11.1729 58.4631 11.0278 58.6084 10.8102L61.8053 5.22368C62.096 4.86092 61.9507 4.35306 61.5147 4.1354C61.1514 3.91775 60.6428 3.9903 60.4248 4.42561L57.2279 9.93956C56.9372 10.3749 57.0825 10.8827 57.5185 11.1004ZM66.6023 16.5424C66.3843 16.5424 66.1663 16.3973 66.021 16.2522C65.6577 15.962 65.6577 15.4541 66.021 15.0913L70.5258 10.5931C70.8891 10.2303 71.3977 10.2303 71.761 10.5931C72.0516 10.8833 72.0516 11.3912 71.761 11.7539L67.1835 16.2522C67.0382 16.4698 66.8202 16.5424 66.6023 16.5424ZM72.9227 23.4356C73.0681 23.7258 73.3587 23.8709 73.6493 23.8709C73.7946 23.8709 73.94 23.8709 74.0126 23.7984L79.6073 20.6061C79.9706 20.3159 80.1159 19.808 79.8979 19.4453C79.68 19.0825 79.1713 18.9374 78.7354 19.1551L73.2134 22.3473C72.7774 22.565 72.7048 23.0729 72.9227 23.4356ZM6.36764 30.9794C6.22232 30.9794 6.07701 30.9069 5.93169 30.8343L0.409659 27.6421C-0.0262907 27.4244 -0.098949 26.9165 0.119026 26.5538C0.337001 26.1185 0.845609 25.9734 1.2089 26.191L6.80359 29.4559C7.16688 29.6735 7.3122 30.1814 7.09422 30.5441C6.94891 30.8343 6.65827 30.9794 6.36764 30.9794ZM11.0912 22.0564C11.3092 22.2015 11.4545 22.274 11.6725 22.274C11.8905 22.274 12.1085 22.2015 12.2538 22.0564C12.6171 21.7662 12.6171 21.1858 12.2538 20.8956L7.74897 16.3248C7.45833 16.0346 6.87707 16.0346 6.58643 16.3248C6.22314 16.6875 6.22314 17.1954 6.58643 17.5582L11.0912 22.0564ZM19.0816 15.3098C18.791 15.3098 18.5004 15.1647 18.355 14.8745L15.1581 9.36051C14.9401 8.9252 15.0854 8.41733 15.4487 8.19968C15.8847 7.98202 16.3933 8.12713 16.6112 8.48989L19.8082 14.0764C20.0262 14.4391 19.8809 14.947 19.5176 15.1647C19.3723 15.2372 19.2269 15.3098 19.0816 15.3098ZM27.2199 9.79322C27.3652 10.2285 27.6559 10.4462 28.0192 10.4462H28.2371C28.6731 10.3011 28.9637 9.86577 28.8184 9.35791L27.2199 3.19099C27.0746 2.75568 26.6387 2.53802 26.2027 2.61057C25.6941 2.75568 25.4761 3.19099 25.5488 3.6263L27.2199 9.79322Z" fill="url(#paint0_linear)"/>
<defs>
<linearGradient id="paint0_linear" x1="19.3334" y1="-1.04311e-06" x2="72.2697" y2="78.5861" gradientUnits="userSpaceOnUse">
<stop stop-color="#54E2CB"/>
<stop offset="1" stop-color="#35CCB1"/>
</linearGradient>
</defs>
</svg>
