<svg width="93" height="89" viewBox="0 0 93 89" fill="none" xmlns="http://www.w3.org/2000/svg">
<path fill-rule="evenodd" clip-rule="evenodd" d="M20.1568 1.60295C9.93941 1.60295 1.59865 9.89649 1.59865 20.1415C1.59865 28.6441 5.491 38.0527 13.4842 48.7158C20.5739 58.1942 30.1658 67.8119 39.4796 77.1508C44.6926 71.9238 49.141 67.4634 53.3809 62.8636C46.9863 58.1942 43.1635 50.7369 43.1635 42.7222C43.1635 40.7915 43.3848 38.9103 43.8032 37.1031C43.8497 36.9023 43.8986 36.7024 43.9499 36.5034C46.7214 25.7598 56.4934 17.7714 68.0469 17.7714C71.3377 17.7714 74.4815 18.413 77.3603 19.577C77.0093 9.61401 68.809 1.60295 58.8024 1.60295C49.141 1.60295 44.6231 6.76028 40.1747 15.6811C40.0357 15.9598 39.7576 16.0992 39.4796 16.0992C39.2016 16.0992 38.9236 15.9598 38.7846 15.6811C34.3361 6.76028 29.8182 1.60295 20.1568 1.60295ZM54.7293 63.7752C50.5837 68.2256 46.358 72.5397 41.3681 77.5012H83.8949C84.3119 77.5012 84.729 77.8496 84.729 78.2678C84.729 78.7557 84.3119 79.1041 83.8949 79.1041H9.10605C8.6195 79.1041 8.27197 78.7557 8.27197 78.2678C8.27197 77.8496 8.6195 77.5012 9.10605 77.5012H37.6046C28.4966 68.3695 19.1948 58.9988 12.2331 49.6915C4.03137 38.68 0 29.0622 0 20.1415C0 9.06017 9.03583 0 20.1568 0C30.0963 0 35.0312 5.15733 39.4796 13.5903C43.8585 5.15733 48.863 0 58.8024 0C69.9234 0 78.9592 9.06017 78.9592 20.1415V20.2901C87.2658 24.3516 92.9996 32.8939 92.9996 42.7217C92.9996 56.4513 81.8091 67.672 68.0469 67.672C63.1566 67.672 58.5855 66.2408 54.7293 63.7752ZM68.0469 66.069C62.9245 66.069 58.1883 64.4101 54.3433 61.5989C53.5731 61.0344 52.8433 60.4289 52.1564 59.7865C47.6066 55.5251 44.7622 49.4561 44.7622 42.7217C44.7622 40.9087 44.9683 39.144 45.3584 37.4498C45.4017 37.2616 45.4474 37.0742 45.4952 36.8877C48.0796 26.8172 57.1972 19.3748 68.0467 19.3748C68.2857 19.3748 68.5239 19.3783 68.7615 19.3851C81.2921 19.7639 91.401 30.0681 91.401 42.7217C91.401 55.615 80.9055 66.069 68.0469 66.069ZM58.1074 49.7619C58.2464 49.971 58.4549 50.1103 58.8025 50.1103H58.872C59.2195 50.1103 59.428 49.8316 59.567 49.5528L62.9033 36.9383L66.8652 43.8379C67.0042 44.047 67.2127 44.1864 67.4213 44.1864C67.6993 44.2561 67.9078 44.1167 68.1163 43.9773L72.1477 39.9351L77.3607 43.0016C77.4997 43.0713 77.6387 43.0713 77.7777 43.0713H87.4391C87.8561 43.0713 88.2037 42.7228 88.2037 42.3047C88.2037 41.8168 87.8561 41.4683 87.4391 41.4683H77.9862L72.4257 38.2624C72.0782 38.0533 71.6611 38.123 71.4526 38.4018L67.6993 42.0956L63.3204 34.499C63.1814 34.2202 62.8338 34.0808 62.5558 34.0808C62.2083 34.1505 61.9303 34.3596 61.8607 34.7081L58.5244 47.2529L54.7016 40.7017C54.5626 40.4926 54.3541 40.3532 54.0065 40.3532H48.724C48.307 40.3532 47.9595 40.7017 47.9595 41.1199C47.9595 41.538 48.307 41.9562 48.724 41.9562H53.5895L58.1074 49.7619ZM30.2364 88.9999H62.7654C63.1824 88.9999 63.53 88.6514 63.53 88.1635C63.53 87.7454 63.1824 87.3969 62.7654 87.3969H30.2364C29.7499 87.3969 29.4023 87.7454 29.4023 88.1635C29.4023 88.6514 29.7499 88.9999 30.2364 88.9999Z" fill="url(#paint0_linear)"/>
<defs>
<linearGradient id="paint0_linear" x1="22.4749" y1="-9.57075e-07" x2="65.9235" y2="81.7221" gradientUnits="userSpaceOnUse">
<stop stop-color="#54E2CB"/>
<stop offset="1" stop-color="#35CCB1"/>
</linearGradient>
</defs>
</svg>
