<svg width="97" height="97" viewBox="0 0 97 97" fill="none" xmlns="http://www.w3.org/2000/svg">
<path fill-rule="evenodd" clip-rule="evenodd" d="M47.6311 16.698L44.4402 13.2053C44.1502 12.8426 43.6427 12.8426 43.2802 13.1328C42.9177 13.4955 42.9177 14.0034 43.2077 14.2936L47.7748 19.2926C47.8895 19.4657 48.0665 19.5882 48.283 19.6373C48.3287 19.6481 48.3756 19.6553 48.4229 19.6591C48.4486 19.6613 48.4743 19.6623 48.5 19.6623H48.5006H48.5013C48.6684 19.6623 48.8354 19.6195 48.9696 19.501C49.0479 19.4406 49.1156 19.3646 49.1689 19.2762L53.7211 14.2936C54.0111 14.0034 54.0111 13.423 53.6486 13.1328C53.3586 12.8426 52.8511 12.8426 52.4886 13.2053L49.2986 16.697V0.798053C49.2986 0.362751 48.9361 0 48.5011 0C47.9936 0 47.6311 0.362751 47.6311 0.798053V16.698ZM48.5006 25.8998C36.0311 25.8998 25.8816 36.0569 25.8816 48.463C25.8816 60.9416 36.0311 71.0261 48.5006 71.0261C60.8975 71.0261 71.0471 60.9416 71.0471 48.463C71.0471 36.0569 60.8975 25.8998 48.5006 25.8998ZM48.5006 72.6947C35.1611 72.6947 24.2866 61.8122 24.2866 48.463C24.2866 35.1137 35.1611 24.3037 48.5006 24.3037C61.84 24.3037 72.7145 35.1137 72.7145 48.463C72.7145 61.8122 61.84 72.6947 48.5006 72.6947ZM62.4784 22.9321L62.4757 22.9177L61.0426 16.2488C60.8976 15.8135 61.1876 15.3782 61.6226 15.3057C62.0576 15.1606 62.565 15.4508 62.6375 15.8861L63.6424 20.5622L71.6259 6.82053C71.8434 6.38523 72.3509 6.24013 72.7133 6.53033C73.1483 6.74798 73.2933 7.25583 73.0033 7.61858L65.0861 21.3562L69.5965 19.952C70.0314 19.8069 70.5389 20.0245 70.6839 20.4598C70.7564 20.8951 70.5389 21.403 70.1039 21.5481L63.7175 23.5364C63.6511 23.576 63.5794 23.6054 63.5052 23.6247C63.4397 23.6491 63.3609 23.6517 63.3074 23.652L63.2888 23.6522C63.283 23.6522 63.2772 23.6521 63.2714 23.6518C62.9172 23.6448 62.6344 23.4284 62.4918 23.0716C62.4841 23.0257 62.4797 22.9791 62.4784 22.9321ZM73.3304 33.6553C73.3107 34.0106 73.5109 34.3042 73.844 34.4196C73.8772 34.4359 73.9115 34.4501 73.9468 34.4618H74.02L80.6886 35.9851H80.9061C81.2686 35.9851 81.6311 35.6949 81.7036 35.3322C81.7761 34.8969 81.4861 34.4616 81.0511 34.3165L76.4571 33.317L90.1864 25.393C90.5489 25.1753 90.6938 24.6675 90.4763 24.2322C90.2589 23.8694 89.7514 23.7243 89.3164 23.942L75.5885 31.8653L76.9917 27.3519C77.1367 26.9166 76.9192 26.4813 76.4842 26.3362C76.0492 26.1911 75.6142 26.4087 75.4692 26.844L73.3668 33.3736C73.3362 33.4656 73.325 33.5609 73.3304 33.6553ZM80.3206 49.3354H96.1299C96.5649 49.3354 96.9999 48.9726 96.9999 48.4648C96.9999 48.0295 96.5649 47.6667 96.1299 47.6667H80.3164L83.8058 44.4741C84.0958 44.1839 84.0958 43.6035 83.8058 43.3133C83.5158 42.9505 83.0083 42.9505 82.6459 43.2407L77.5711 47.8839C77.5657 47.8893 77.5605 47.8947 77.5553 47.9002L77.5462 47.9083L77.5316 47.9218L77.5138 47.9385L77.4986 47.9535C77.471 47.9811 77.4467 48.0106 77.4256 48.0419C77.3355 48.1651 77.2808 48.3103 77.2808 48.4648C77.2808 48.6536 77.3409 48.8224 77.4389 48.96C77.4567 48.9889 77.4766 49.0173 77.4986 49.0447C77.5208 49.067 77.5431 49.0877 77.5653 49.107L77.5711 49.1143L82.6459 53.7575C82.7908 53.9026 83.0083 53.9752 83.2258 53.9752C83.4433 53.9752 83.6608 53.9026 83.8058 53.685C84.0958 53.3222 84.0958 52.8144 83.8058 52.5242L80.3206 49.3354ZM89.7514 73.1278C89.6064 73.1278 89.4614 73.1278 89.3164 73.0552L75.6064 65.1422L76.9917 69.6477C77.1367 70.083 76.9192 70.5183 76.4842 70.6635C76.4479 70.6635 76.4117 70.6816 76.3754 70.6997C76.3392 70.7179 76.3029 70.736 76.2667 70.736C75.9042 70.736 75.5417 70.4458 75.4692 70.1556L73.4056 63.6754C73.387 63.6303 73.372 63.5833 73.3609 63.5349C73.3356 63.4519 73.326 63.3691 73.33 63.2884C73.3187 63.0651 73.4173 62.8564 73.5948 62.7139C73.7084 62.6156 73.8504 62.5489 74.004 62.5208C74.0726 62.5029 74.1408 62.4938 74.2076 62.4931L80.6886 61.0127C81.1236 60.9401 81.5586 61.2303 81.7036 61.6656C81.7761 62.1009 81.4861 62.5362 81.0511 62.6088L76.4299 63.6644L90.1864 71.6042C90.5489 71.8219 90.6938 72.3297 90.4763 72.765C90.3314 72.9827 90.0414 73.1278 89.7514 73.1278ZM71.6259 90.1815C71.7709 90.4717 72.0609 90.6168 72.2784 90.6168C72.4234 90.6168 72.5684 90.5443 72.7133 90.4717C73.1483 90.2541 73.2933 89.7462 73.0033 89.3835L65.0501 75.5834L69.5965 77.0494H69.8864C70.1764 77.0494 70.5389 76.8318 70.6839 76.469C70.7564 76.0337 70.5389 75.5984 70.1039 75.4533L63.7664 73.4802C63.6888 73.4246 63.6016 73.3797 63.5075 73.3483C63.3161 73.3164 63.1247 73.3547 62.958 73.4447C62.7445 73.5321 62.568 73.7008 62.4918 73.9298C62.4842 73.9753 62.4798 74.0208 62.4785 74.0661L61.0426 80.6759C60.8976 81.1837 61.1876 81.619 61.6226 81.6916H61.8401C62.2025 81.6916 62.565 81.4739 62.6375 81.0386L63.6381 76.4325L71.6259 90.1815ZM48.5013 97C47.9938 97 47.6313 96.6373 47.6313 96.1294V80.3014L44.4402 83.7944C44.2952 83.9395 44.0777 84.0846 43.8602 84.0846C43.6427 84.0846 43.4252 84.012 43.2802 83.8669C42.9177 83.5042 42.9177 82.9963 43.2077 82.6336L47.7396 77.744C47.8834 77.5035 48.1594 77.3389 48.5013 77.3389C48.7986 77.3389 49.0621 77.5084 49.1991 77.7547L53.7211 82.6336C54.0111 82.9963 54.0111 83.5042 53.6486 83.8669C53.5036 84.012 53.3586 84.0846 53.1411 84.0846C52.9236 84.0846 52.7061 83.9395 52.4886 83.7944L49.2988 80.3029V96.1294C49.2988 96.6373 48.9363 97 48.5013 97ZM24.214 90.4717C24.3589 90.5443 24.5039 90.6168 24.6489 90.6168C24.9389 90.6168 25.2289 90.4717 25.3739 90.1815L33.2922 76.4421L34.2907 81.0386C34.4357 81.4739 34.7257 81.6916 35.1606 81.6916H35.3056C35.7406 81.619 36.0306 81.1837 35.9581 80.6759L34.4801 74.196C34.4797 74.109 34.4652 74.0194 34.4354 73.9298C34.3965 73.8131 34.3368 73.712 34.2618 73.6294C34.0796 73.4153 33.7864 73.2994 33.4932 73.3483L33.4688 73.3556C33.3453 73.3776 33.2296 73.4306 33.1305 73.5112L26.8232 75.4533C26.3882 75.5984 26.1707 76.0337 26.3157 76.469C26.3882 76.8318 26.7507 77.0494 27.1132 77.0494H27.3307L31.8659 75.6031L23.924 89.3835C23.7065 89.7462 23.8515 90.2541 24.214 90.4717ZM7.17688 73.1278C6.88689 73.1278 6.6694 72.9827 6.5244 72.765C6.23442 72.3297 6.37941 71.8219 6.81439 71.6042L20.5647 63.668L15.8775 62.6088C15.4425 62.5362 15.1525 62.1009 15.2975 61.6656C15.37 61.2303 15.805 60.9401 16.2399 61.0127L22.7918 62.4932C22.8796 62.4948 22.9678 62.5093 23.0532 62.5378C23.1561 62.5721 23.2468 62.6227 23.3234 62.6856C23.5566 62.8653 23.6858 63.1724 23.6346 63.4794C23.6127 63.5452 23.5875 63.606 23.5589 63.6619C23.5389 63.7165 23.5125 63.7685 23.4797 63.8169L21.5308 70.1556C21.3858 70.4458 21.0958 70.736 20.7333 70.736C20.7033 70.736 20.6733 70.7235 20.6381 70.709C20.5883 70.6883 20.5283 70.6635 20.4433 70.6635C20.0083 70.5183 19.7909 70.083 19.9358 69.6477L21.321 65.1427L7.61186 73.0552C7.46686 73.1278 7.32187 73.1278 7.17688 73.1278ZM0.797465 49.3354H16.6794L13.1943 52.5242C12.8318 52.8144 12.8318 53.3222 13.1218 53.685C13.2668 53.9026 13.5568 53.9752 13.7743 53.9752C13.9192 53.9752 14.1367 53.9026 14.2817 53.7575L19.215 49.2438C19.2375 49.2315 19.2591 49.2179 19.2798 49.2028C19.4993 49.0534 19.6467 48.7886 19.6467 48.4648C19.6467 48.1642 19.4739 47.8983 19.2237 47.7624L14.2817 43.2407C13.9917 42.9505 13.4118 42.9505 13.1218 43.3133C12.8318 43.6035 12.8318 44.1839 13.1943 44.4741L16.6837 47.6667H0.797465C0.362484 47.6667 0 48.0295 0 48.4648C0 48.9726 0.362484 49.3354 0.797465 49.3354ZM20.5376 33.3136L15.8775 34.3165C15.4425 34.4616 15.1525 34.8969 15.2975 35.3322C15.37 35.6949 15.7325 35.9851 16.0949 35.9851H16.2399L22.9811 34.4618H23.0532C23.1285 34.4367 23.1974 34.4007 23.2589 34.356C23.5322 34.183 23.6903 33.8358 23.6346 33.4459C23.6032 33.3515 23.5582 33.264 23.5025 33.1863L21.5308 26.844C21.3858 26.4087 20.8783 26.1911 20.4433 26.3362C20.0083 26.4813 19.7909 26.9166 19.9358 27.3519L21.3388 31.8647L7.61186 23.942C7.24937 23.7243 6.74189 23.8694 6.5244 24.2322C6.23442 24.6675 6.37941 25.1753 6.81439 25.393L20.5376 33.3136ZM33.2879 20.5525L25.3739 6.82053C25.1564 6.38523 24.6489 6.24013 24.214 6.53033C23.8515 6.74798 23.7065 7.25583 23.924 7.61858L31.8305 21.3375L27.3307 19.952C26.8957 19.8069 26.4607 20.0245 26.3157 20.4598C26.1707 20.8951 26.3882 21.403 26.8232 21.5481L33.1481 23.4956C33.2688 23.584 33.412 23.6349 33.5586 23.6485C33.5788 23.6512 33.5991 23.6518 33.6194 23.652L33.6385 23.6522C33.6444 23.6522 33.6502 23.6521 33.6561 23.6518C34.0101 23.6447 34.2928 23.4283 34.4354 23.0716C34.465 22.9826 34.4795 22.8905 34.4801 22.7991L35.9581 16.2488C36.0306 15.8135 35.7406 15.3782 35.3056 15.3057C34.8707 15.1606 34.4357 15.4508 34.2907 15.8861L33.2879 20.5525Z" fill="url(#paint0_linear)"/>
<path d="M46.5339 56.4533C41.4012 53.8223 40.8397 48.3565 34.2751 46.797C32.7443 46.4347 45.1649 39.9874 52.6525 42.3608C58.1237 44.0977 61.0231 49.9829 58.8699 53.775C56.7167 57.567 51.6662 59.0845 46.5339 56.4533V56.4533Z" stroke="url(#paint1_linear)" stroke-width="2" stroke-linecap="round" stroke-linejoin="round"/>
<path d="M46.3276 47.2021C52.4946 49.0541 57.1857 51.9469 61.2238 56.979" stroke="url(#paint2_linear)" stroke-width="2" stroke-linecap="round" stroke-linejoin="round"/>
<defs>
<linearGradient id="paint0_linear" x1="23.4416" y1="-1.04311e-06" x2="71.9417" y2="87.3" gradientUnits="userSpaceOnUse">
<stop stop-color="#54E2CB"/>
<stop offset="1" stop-color="#35CCB1"/>
</linearGradient>
<linearGradient id="paint1_linear" x1="36.3971" y1="50.605" x2="57.6459" y2="50.7343" gradientUnits="userSpaceOnUse">
<stop stop-color="#54E2CB"/>
<stop offset="1" stop-color="#35CCB1"/>
</linearGradient>
<linearGradient id="paint2_linear" x1="48.2507" y1="50.533" x2="57.0539" y2="48.2769" gradientUnits="userSpaceOnUse">
<stop stop-color="#54E2CB"/>
<stop offset="1" stop-color="#35CCB1"/>
</linearGradient>
</defs>
</svg>
