<svg width="114" height="79" viewBox="0 0 114 79" fill="none" xmlns="http://www.w3.org/2000/svg">
<path fill-rule="evenodd" clip-rule="evenodd" d="M6.48016 1.9622C3.9222 1.9622 1.9611 4.00972 1.9611 6.4838V58.2689C1.9611 60.743 3.9222 62.7052 6.48016 62.7052H14.7509C15.2625 62.7052 15.6888 63.1318 15.7741 63.6436L16.6267 76.27L26.0912 69.8715L36.4082 62.8758C36.5788 62.7905 36.7493 62.7052 37.0051 62.7052H86.2031C88.6758 62.7052 90.7222 60.743 90.7222 58.2689V51.0631C87.8267 50.4071 85.1729 49.0849 82.9319 47.2658C78.5436 43.7384 75.8008 38.3368 75.8008 32.3337C75.8008 26.6143 78.3382 21.4165 82.4365 17.8951C84.7775 15.8667 87.6103 14.3939 90.7222 13.6893V6.4838C90.7222 4.00972 88.6758 1.9622 86.2031 1.9622H6.48016ZM92.6833 58.2689V51.3995C93.4112 51.4851 94.1511 51.5291 94.9007 51.5291C105.474 51.5291 114 42.9125 114 32.3337C114 21.8401 105.474 13.2235 94.9007 13.2235C94.1511 13.2235 93.4112 13.2675 92.6833 13.3531V6.4838C92.6833 2.90065 89.7843 0 86.2031 0H6.48016C2.89902 0 0 2.90065 0 6.4838V58.2689C0 61.7667 2.89902 64.6674 6.48016 64.6674H13.8982L14.8361 78.0616C14.8361 78.4028 15.0919 78.7441 15.3477 78.9147C15.5183 79 15.6888 79 15.7741 79C16.0299 79 16.2004 78.9147 16.3709 78.8294L27.1996 71.4924L37.2609 64.6674H86.2031C89.7843 64.6674 92.6833 61.7667 92.6833 58.2689ZM94.9007 49.5669C93.9747 49.5669 93.0658 49.4926 92.1797 49.3497C92.0757 49.2897 91.9585 49.247 91.8306 49.2257C89.4015 48.7953 87.1751 47.869 85.2451 46.5606C80.7277 43.4476 77.7624 38.2203 77.7624 32.3337C77.7624 22.9492 85.4362 15.1857 94.9007 15.1857C104.365 15.1857 112.124 22.9492 112.124 32.3337C112.124 41.8034 104.365 49.5669 94.9007 49.5669ZM76.4818 13.8204H16.7961C16.2845 13.8204 15.7729 13.394 15.7729 12.8822C15.7729 12.3704 16.2845 11.9439 16.7961 11.9439H76.4818C76.9934 11.9439 77.4197 12.3704 77.4197 12.8822C77.4197 13.394 76.9934 13.8204 76.4818 13.8204ZM16.7961 27.2142H46.639C47.1506 27.2142 47.5769 26.7878 47.5769 26.276C47.5769 25.7642 47.1506 25.2524 46.639 25.2524H16.7961C16.2845 25.2524 15.7729 25.7642 15.7729 26.276C15.7729 26.7878 16.2845 27.2142 16.7961 27.2142ZM67.6142 40.6077H16.7961C16.2845 40.6077 15.7729 40.1812 15.7729 39.6695C15.7729 39.1577 16.2845 38.6459 16.7961 38.6459H67.6142C68.1258 38.6459 68.6374 39.1577 68.6374 39.6695C68.6374 40.1812 68.1258 40.6077 67.6142 40.6077ZM15.7729 53.0639C15.7729 53.5757 16.2845 54.0022 16.7961 54.0022H76.4818C76.9934 54.0022 77.4197 53.5757 77.4197 53.0639C77.4197 52.5521 76.9934 52.0404 76.4818 52.0404H16.7961C16.2845 52.0404 15.7729 52.5521 15.7729 53.0639ZM96.5195 42.141H93.3646V34.8894C93.3646 34.3775 92.9383 33.9509 92.3415 33.9509H85.0939V30.7944H92.3415C92.9383 30.7944 93.3646 30.3678 93.3646 29.8559V22.6043H96.5195V29.8559C96.5195 30.3678 96.9458 30.7944 97.4574 30.7944H104.705V33.9509H97.4574C96.9458 33.9509 96.5195 34.3775 96.5195 34.8894V42.141ZM92.3415 44.1032H97.4574C97.969 44.1032 98.4806 43.6766 98.4806 43.1648V35.9131H105.728C106.24 35.9131 106.666 35.4866 106.666 34.8894V29.8559C106.666 29.2587 106.24 28.8322 105.728 28.8322H98.4806V21.5805C98.4806 21.0687 97.969 20.6421 97.4574 20.6421H92.3415C91.8299 20.6421 91.4035 21.0687 91.4035 21.5805V28.8322H84.156C83.6444 28.8322 83.1328 29.2587 83.1328 29.8559V34.8894C83.1328 35.4866 83.6444 35.9131 84.156 35.9131H91.4035V43.1648C91.4035 43.6766 91.8299 44.1032 92.3415 44.1032Z" fill="url(#paint0_linear)"/>
<defs>
<linearGradient id="paint0_linear" x1="27.55" y1="-8.4954e-07" x2="58.7472" y2="81.0338" gradientUnits="userSpaceOnUse">
<stop stop-color="#54E2CB"/>
<stop offset="1" stop-color="#35CCB1"/>
</linearGradient>
</defs>
</svg>
