<svg width="72" height="97" viewBox="0 0 72 97" fill="none" xmlns="http://www.w3.org/2000/svg">
<path fill-rule="evenodd" clip-rule="evenodd" d="M30.4346 7.18243C30.4346 4.13534 32.9648 1.66865 36.0009 1.66865C39.037 1.66865 41.4949 4.13534 41.4949 7.18243C41.4949 10.2179 39.0558 12.6773 36.0358 12.6961C36.0241 12.6956 36.0125 12.6953 36.0008 12.6953C35.9874 12.6953 35.9742 12.6956 35.961 12.6961C32.9426 12.6746 30.4346 10.2162 30.4346 7.18243ZM35.1333 14.3135C31.5722 13.8886 28.8443 10.8777 28.8443 7.18243C28.8443 3.19219 32.025 0 36.0009 0C39.9045 0 43.1575 3.19219 43.1575 7.18243C43.1575 10.8983 40.3364 13.9222 36.796 14.3204V17.4924C56.3035 17.9173 71.9927 33.9219 71.9999 53.5999L72 53.6152L71.9999 53.6283C71.9959 63.5268 67.9949 72.525 61.5234 79.0637C61.5095 79.0812 61.4947 79.0985 61.4793 79.1155C61.4684 79.1274 61.4573 79.1392 61.4457 79.1508C61.4248 79.1717 61.4024 79.1912 61.3787 79.2091C57.3477 83.2364 52.3733 86.3157 46.8183 88.0766H67.1567C67.5905 88.0766 67.9519 88.4394 67.9519 88.8747C67.9519 89.3825 67.5905 89.7453 67.1567 89.7453H4.84354C4.33752 89.7453 3.97607 89.3825 3.97607 88.8747C3.97607 88.4394 4.33752 88.0766 4.84354 88.0766H25.1817C19.6259 86.3155 14.6509 83.2355 10.6196 79.2075C10.5967 79.19 10.575 79.1711 10.5548 79.1508C10.5276 79.1234 10.5024 79.0953 10.4793 79.0665C4.00327 72.5246 0.000383653 63.5201 0 53.6149V53.6135C0 33.9531 15.654 17.9561 35.1333 17.494V14.3135ZM1.5995 54.4132H6.86746C7.3012 54.4132 7.66264 54.0505 7.66264 53.6152C7.66264 53.1073 7.3012 52.7446 6.86746 52.7446H1.60116C1.82194 43.8684 5.4155 35.8168 11.1382 29.8227L14.8198 33.5176C14.9644 33.6627 15.1813 33.7353 15.3981 33.7353C15.615 33.7353 15.8319 33.6627 15.9765 33.5176C16.2656 33.1549 16.2656 32.647 15.9765 32.3568L12.2973 28.6644C18.2827 22.959 26.3067 19.3835 35.1333 19.1632V24.3759C35.1333 24.8112 35.4947 25.174 36.0008 25.174C36.4345 25.174 36.796 24.8112 36.796 24.3759V19.1615C45.6583 19.3646 53.6998 22.9509 59.6861 28.6816L56.024 32.3568C55.6626 32.647 55.6626 33.1549 56.024 33.5176C56.1686 33.6627 56.3855 33.7353 56.6023 33.7353C56.8192 33.7353 57.0361 33.6627 57.1806 33.5176L60.8427 29.8424C66.5375 35.8344 70.107 43.8781 70.3265 52.7446H65.1326C64.6988 52.7446 64.3374 53.1073 64.3374 53.6152C64.3374 54.0505 64.6988 54.4132 65.1326 54.4132H70.3282C70.1256 63.307 66.5523 71.3771 60.8426 77.3847L57.1806 73.7095C56.8915 73.3468 56.3132 73.3468 56.024 73.7095C55.6626 73.9997 55.6626 74.5076 56.024 74.8703L59.686 78.5455C53.6998 84.2761 45.6583 87.8624 36.796 88.0655V82.8515C36.796 82.3437 36.4345 81.9809 36.0008 81.9809C35.4947 81.9809 35.1333 82.3437 35.1333 82.8515V88.0639C26.3067 87.8436 18.2828 84.268 12.2974 78.5626L15.9765 74.8703C16.2656 74.5076 16.2656 73.9997 15.9765 73.7095C15.615 73.3468 15.109 73.3468 14.8198 73.7095L11.1382 77.4044C5.40065 71.3947 1.80328 63.3168 1.5995 54.4132ZM36.0004 31.486C23.7835 31.486 13.8799 41.3528 13.8799 53.6137C13.8799 65.8021 23.7835 75.7414 36.0004 75.7414C48.1449 75.7414 58.0486 65.8021 58.0486 53.6137C58.0486 41.3528 48.1449 31.486 36.0004 31.486ZM36.0004 77.41C22.916 77.41 12.2896 66.7452 12.2896 53.6137C12.2896 40.4822 22.916 29.8174 36.0004 29.8174C49.0847 29.8174 59.7112 40.4822 59.7112 53.6137C59.7112 66.7452 49.0847 77.41 36.0004 77.41ZM30.3615 43.1665C27.6868 43.1665 25.5904 45.343 25.5904 47.9548C25.5904 53.0333 30.7952 58.4745 36 63.6981C41.2048 58.4745 46.4096 53.0333 46.4096 47.9548C46.4096 45.343 44.241 43.1665 41.6386 43.1665C39.3976 43.1665 38.0964 44.1097 36.7229 46.9391C36.5783 47.2293 36.2892 47.3744 36 47.3744C35.6386 47.3744 35.3494 47.2293 35.2771 46.9391C33.8313 44.1097 32.6024 43.1665 30.3615 43.1665ZM36 65.7295C35.7831 65.7295 35.5663 65.5844 35.4217 65.4393H35.3494C29.7109 59.7804 23.9277 53.9039 23.9277 47.9548C23.9277 44.3999 26.8193 41.4979 30.3615 41.4979C33.1085 41.4979 34.6988 42.8038 36 44.8352C37.2289 42.8038 38.8193 41.4979 41.6386 41.4979C45.1807 41.4979 48.0723 44.3999 48.0723 47.9548C48.0723 53.9039 42.2169 59.7804 36.5783 65.4393C36.4338 65.5844 36.2169 65.7295 36 65.7295ZM21.5422 97H50.3856C50.8916 97 51.2531 96.6372 51.2531 96.1294C51.2531 95.6941 50.8916 95.3314 50.3856 95.3314H21.5422C21.1085 95.3314 20.7471 95.6941 20.7471 96.1294C20.7471 96.6372 21.1085 97 21.5422 97Z" fill="url(#paint0_linear)"/>
<defs>
<linearGradient id="paint0_linear" x1="17.4" y1="-1.04311e-06" x2="72.2056" y2="73.2248" gradientUnits="userSpaceOnUse">
<stop stop-color="#54E2CB"/>
<stop offset="1" stop-color="#35CCB1"/>
</linearGradient>
</defs>
</svg>
