<svg width="37" height="47" viewBox="0 0 37 47" fill="none" xmlns="http://www.w3.org/2000/svg">
<path d="M18.5 27.7498C23.6013 27.7498 27.7499 23.6012 27.7499 18.4999C27.7499 13.3986 23.6013 9.25 18.5 9.25C13.3986 9.25 9.25006 13.3986 9.25006 18.4999C9.25006 23.6012 13.3986 27.7498 18.5 27.7498ZM18.5 13.8749C21.0506 13.8749 23.1249 15.9492 23.1249 18.4999C23.1249 21.0506 21.0506 23.1248 18.5 23.1248C15.9493 23.1248 13.875 21.0506 13.875 18.4999C13.875 15.9492 15.9493 13.8749 18.5 13.8749Z" fill="#045038"/>
<path d="M17.1588 45.8194C17.5501 46.0989 18.0191 46.2491 18.5 46.2491C18.9809 46.2491 19.4499 46.0989 19.8412 45.8194C20.5442 45.3222 37.0669 33.3921 36.9998 18.4998C36.9998 8.29947 28.7003 0 18.5 0C8.29967 0 0.000203585 8.29947 0.000203585 18.4882C-0.0668582 33.3921 16.4558 45.3222 17.1588 45.8194ZM18.5 4.62495C26.152 4.62495 32.3748 10.8478 32.3748 18.5114C32.4234 28.7741 22.2277 37.9893 18.5 41.0117C14.7746 37.987 4.57659 28.7695 4.62515 18.4998C4.62515 10.8478 10.848 4.62495 18.5 4.62495Z" fill="#045038"/>
</svg>
