<svg width="37" height="40" viewBox="0 0 37 40" fill="none" xmlns="http://www.w3.org/2000/svg">
<path d="M18.5 0C12.8328 0 8.22222 4.61061 8.22222 10.2778C8.22222 15.9449 12.8328 20.5556 18.5 20.5556C24.1672 20.5556 28.7778 15.9449 28.7778 10.2778C28.7778 4.61061 24.1672 0 18.5 0ZM18.5 16.4444C15.1001 16.4444 12.3333 13.6777 12.3333 10.2778C12.3333 6.87789 15.1001 4.11111 18.5 4.11111C21.8999 4.11111 24.6667 6.87789 24.6667 10.2778C24.6667 13.6777 21.8999 16.4444 18.5 16.4444ZM37 39.0555V37C37 29.0676 30.5435 22.6111 22.6111 22.6111H14.3889C6.45444 22.6111 0 29.0676 0 37V39.0555H4.11111V37C4.11111 31.3328 8.72172 26.7222 14.3889 26.7222H22.6111C28.2783 26.7222 32.8889 31.3328 32.8889 37V39.0555H37Z" fill="#045038"/>
</svg>
