<svg width="17" height="23" viewBox="0 0 17 23" fill="none" xmlns="http://www.w3.org/2000/svg">
<path fill-rule="evenodd" clip-rule="evenodd" d="M8.5 23C8.5 23 17 14.8264 17 8.625C17 6.33751 16.1045 4.14371 14.5104 2.5262C12.9163 0.908703 10.7543 0 8.5 0C6.24566 0 4.08365 0.908703 2.48959 2.5262C0.895533 4.14371 3.35923e-08 6.33751 0 8.625C0 14.8264 8.5 23 8.5 23ZM8.5 12.9375C9.62717 12.9375 10.7082 12.4831 11.5052 11.6744C12.3022 10.8656 12.75 9.76875 12.75 8.625C12.75 7.48125 12.3022 6.38435 11.5052 5.5756C10.7082 4.76685 9.62717 4.3125 8.5 4.3125C7.37283 4.3125 6.29183 4.76685 5.4948 5.5756C4.69777 6.38435 4.25 7.48125 4.25 8.625C4.25 9.76875 4.69777 10.8656 5.4948 11.6744C6.29183 12.4831 7.37283 12.9375 8.5 12.9375Z" fill="url(#paint0_linear)"/>
<defs>
<linearGradient id="paint0_linear" x1="17" y1="11.6575" x2="-2.99931e-08" y2="11.6575" gradientUnits="userSpaceOnUse">
<stop stop-color="#FF9334"/>
<stop offset="1" stop-color="#FF5856"/>
</linearGradient>
</defs>
</svg>
