<svg width="27" height="27" viewBox="0 0 27 27" fill="none" xmlns="http://www.w3.org/2000/svg">
<path d="M2.53125 3.375H24.4688C25.8667 3.375 27 4.50826 27 5.90625V21.0938C27 22.4917 25.8667 23.625 24.4688 23.625H2.53125C1.13326 23.625 0 22.4917 0 21.0938V5.90625C0 4.50826 1.13326 3.375 2.53125 3.375ZM2.53125 5.90625V8.05808C3.71366 9.02095 5.5987 10.5182 9.62861 13.6738C10.5167 14.3723 12.2759 16.0506 13.5 16.031C14.7239 16.0508 16.4837 14.3721 17.3714 13.6738C21.4007 10.5187 23.2862 9.02111 24.4688 8.05808V5.90625H2.53125ZM24.4688 21.0938V11.3061C23.2604 12.2686 21.5468 13.6192 18.9349 15.6644C17.7823 16.5717 15.7638 18.5746 13.5 18.5624C11.2473 18.5746 9.25441 16.6008 8.06556 15.6649C5.45374 13.6197 3.73966 12.2687 2.53125 11.3062V21.0938H24.4688Z" fill="#C4C4C4"/>
</svg>
