<svg width="33" height="33" viewBox="0 0 33 33" fill="none" xmlns="http://www.w3.org/2000/svg">
<path d="M16.5 0C12.0145 0 11.4555 0.021659 9.70012 0.0959182C7.93749 0.182554 6.74522 0.455869 5.69321 0.864295C4.59218 1.27996 3.59504 1.93076 2.77132 2.77132C1.92841 3.59311 1.27726 4.5908 0.864296 5.69321C0.45587 6.74522 0.182554 7.93749 0.0959182 9.70012C0.0165021 11.4566 0 12.0145 0 16.5C0 20.9855 0.021659 21.5445 0.0959182 23.2999C0.182554 25.0573 0.45587 26.2548 0.864296 27.3068C1.27996 28.4078 1.93076 29.405 2.77132 30.2287C3.59311 31.0716 4.5908 31.7227 5.69321 32.1357C6.74522 32.539 7.94265 32.8174 9.70012 32.9041C11.4566 32.9835 12.0145 33 16.5 33C20.9855 33 21.5445 32.9783 23.2999 32.9041C25.0574 32.8174 26.2548 32.5379 27.3068 32.1357C28.4078 31.72 29.405 31.0692 30.2287 30.2287C31.0727 29.4078 31.724 28.4098 32.1357 27.3068C32.539 26.2548 32.8174 25.0573 32.9041 23.2999C32.9835 21.5434 33 20.9855 33 16.5C33 12.0145 32.9783 11.4555 32.9041 9.70012C32.8174 7.94265 32.5379 6.73903 32.1357 5.69321C31.72 4.59218 31.0692 3.59504 30.2287 2.77132C29.4078 1.92733 28.4098 1.276 27.3068 0.864295C26.2548 0.455869 25.0574 0.182554 23.2999 0.0959182C21.5434 0.0165021 20.9855 0 16.5 0ZM16.5 2.97037C20.905 2.97037 21.431 2.99203 23.172 3.06629C24.7778 3.14158 25.6525 3.40974 26.2331 3.63664C26.951 3.90163 27.6007 4.32339 28.135 4.8712C28.6819 5.40321 29.1021 6.05146 29.3644 6.76791C29.5913 7.34857 29.8595 8.22318 29.9347 9.82904C30.009 11.57 30.0307 12.097 30.0307 16.501C30.0307 20.905 30.009 21.4321 29.9286 23.173C29.8419 24.7789 29.5738 25.6535 29.3479 26.2342C29.0354 27.0087 28.6868 27.5502 28.1113 28.136C27.5752 28.6804 26.9259 29.1001 26.2094 29.3654C25.636 29.5923 24.749 29.8605 23.1369 29.9358C21.3867 30.01 20.871 30.0317 16.4546 30.0317C12.0383 30.0317 11.5236 30.01 9.77128 29.9296C8.16543 29.8429 7.27947 29.5748 6.69881 29.3489C5.91496 29.0364 5.37761 28.6878 4.8021 28.1123C4.22143 27.5316 3.8522 26.9788 3.56754 26.2104C3.33651 25.637 3.07248 24.75 2.98687 23.138C2.92808 21.4083 2.90024 20.872 2.90024 16.4763C2.90024 12.0826 2.92808 11.5453 2.98687 9.79397C3.07248 8.18193 3.33651 7.29701 3.56754 6.7215C3.8522 5.93662 4.22247 5.4003 4.8021 4.81963C5.37658 4.24516 5.91496 3.87386 6.69881 3.58301C7.27947 3.35714 8.14377 3.08898 9.75581 3.00853C11.5061 2.94562 12.0218 2.92293 16.4319 2.92293L16.5 2.97037ZM16.5 8.03135C15.3875 8.03094 14.2858 8.24976 13.2579 8.67531C12.23 9.10086 11.2961 9.7248 10.5094 10.5115C9.72273 11.2981 9.0988 12.2321 8.67325 13.26C8.2477 14.2879 8.02888 15.3896 8.02929 16.5021C8.02888 17.6146 8.2477 18.7162 8.67325 19.7441C9.0988 20.772 9.72273 21.706 10.5094 22.4927C11.2961 23.2793 12.23 23.9033 13.2579 24.3288C14.2858 24.7544 15.3875 24.9732 16.5 24.9728C17.6125 24.9732 18.7142 24.7544 19.7421 24.3288C20.77 23.9033 21.7039 23.2793 22.4906 22.4927C23.2773 21.706 23.9012 20.772 24.3267 19.7441C24.7523 18.7162 24.9711 17.6146 24.9707 16.5021C24.9711 15.3896 24.7523 14.2879 24.3267 13.26C23.9012 12.2321 23.2773 11.2981 22.4906 10.5115C21.7039 9.7248 20.77 9.10086 19.7421 8.67531C18.7142 8.24976 17.6125 8.03094 16.5 8.03135ZM16.5 22.0024C13.4595 22.0024 10.9997 19.5426 10.9997 16.5021C10.9997 13.4616 13.4595 11.0017 16.5 11.0017C19.5405 11.0017 22.0003 13.4616 22.0003 16.5021C22.0003 19.5426 19.5405 22.0024 16.5 22.0024ZM27.2924 7.69306C27.2918 8.21871 27.0826 8.72265 26.7107 9.09416C26.3388 9.46566 25.8347 9.67433 25.309 9.67433C25.0491 9.67433 24.7917 9.62314 24.5516 9.52367C24.3115 9.42421 24.0933 9.27842 23.9095 9.09464C23.7257 8.91085 23.5799 8.69266 23.4805 8.45253C23.381 8.2124 23.3298 7.95503 23.3298 7.69512C23.3298 7.4352 23.381 7.17783 23.4805 6.9377C23.5799 6.69758 23.7257 6.47939 23.9095 6.2956C24.0933 6.11181 24.3115 5.96603 24.5516 5.86656C24.7917 5.7671 25.0491 5.7159 25.309 5.7159C26.3992 5.7159 27.2924 6.60289 27.2924 7.69306Z" fill="white"/>
</svg>
