<svg width="258" height="231" viewBox="0 0 258 231" fill="none" xmlns="http://www.w3.org/2000/svg">
<circle cx="119.517" cy="113.793" r="110.517" fill="#C1CB8F" stroke="#282D26" stroke-width="2"/>
<path d="M251.655 115.5C251.655 178.741 200.642 230 137.724 230C74.8064 230 23.7931 178.741 23.7931 115.5C23.7931 52.2587 74.8064 1 137.724 1C200.642 1 251.655 52.2587 251.655 115.5Z" fill="#D5D8CD" stroke="#282D26" stroke-width="2"/>
<path d="M223.638 159.448C223.086 159.448 222.638 159.896 222.638 160.448C222.638 161 223.086 161.448 223.638 161.448L223.638 159.448ZM249.672 188.293C250.063 188.683 250.696 188.683 251.086 188.293L257.45 181.929C257.841 181.538 257.841 180.905 257.45 180.515C257.06 180.124 256.427 180.124 256.036 180.515L250.379 186.171L244.722 180.515C244.332 180.124 243.699 180.124 243.308 180.515C242.918 180.905 242.918 181.538 243.308 181.929L249.672 188.293ZM223.638 161.448C238.942 161.448 249.379 174.517 249.379 187.586L251.379 187.586C251.379 173.568 240.196 159.448 223.638 159.448L223.638 161.448Z" fill="#282D26"/>
<path d="M34.1724 159.448C34.7247 159.448 35.1724 159.896 35.1724 160.448C35.1724 161 34.7247 161.448 34.1724 161.448L34.1724 159.448ZM8.70711 188.293C8.31658 188.683 7.68342 188.683 7.29289 188.293L0.928933 181.929C0.538408 181.538 0.538408 180.905 0.928933 180.515C1.31946 180.124 1.95262 180.124 2.34315 180.515L8 186.171L13.6569 180.515C14.0474 180.124 14.6805 180.124 15.0711 180.515C15.4616 180.905 15.4616 181.538 15.0711 181.929L8.70711 188.293ZM34.1724 161.448C28.2589 161.448 21.9583 164.676 17.1072 169.637C12.2609 174.594 9 181.14 9 187.586L7 187.586C7 180.488 10.5667 173.466 15.6772 168.239C20.7831 163.017 27.5687 159.448 34.1724 159.448L34.1724 161.448Z" fill="#282D26"/>
</svg>
