<svg width="512" height="506" viewBox="0 0 512 506" fill="none" xmlns="http://www.w3.org/2000/svg">
<circle cx="233.013" cy="236.736" r="231.513" fill="#C1CB8F" stroke="#282D26" stroke-width="3"/>
<circle cx="272.4" cy="239.284" r="237.784" fill="#D5D8CD" stroke="#282D26" stroke-width="3"/>
<path d="M363 425.089C362.31 425.089 361.75 425.649 361.75 426.339C361.75 427.029 362.31 427.589 363 427.589V425.089ZM416.116 474.113C416.604 474.601 417.396 474.601 417.884 474.113L425.839 466.158C426.327 465.67 426.327 464.878 425.839 464.39C425.351 463.902 424.559 463.902 424.071 464.39L417 471.461L409.929 464.39C409.441 463.902 408.649 463.902 408.161 464.39C407.673 464.878 407.673 465.67 408.161 466.158L416.116 474.113ZM363 427.589C367.39 427.589 372.901 428.991 378.745 431.521C384.573 434.044 390.652 437.655 396.165 441.99C407.265 450.718 415.75 462.118 415.75 473.229H418.25C418.25 460.935 408.985 448.89 397.71 440.024C392.035 435.562 385.77 431.839 379.739 429.227C373.724 426.623 367.859 425.089 363 425.089V427.589Z" fill="#282D26"/>
<path d="M144.176 425.089C144.866 425.089 145.426 425.649 145.426 426.339C145.426 427.029 144.866 427.589 144.176 427.589V425.089ZM91.0594 474.113C90.5713 474.601 89.7798 474.601 89.2917 474.113L81.3367 466.158C80.8485 465.67 80.8485 464.878 81.3367 464.39C81.8249 463.902 82.6163 463.902 83.1045 464.39L90.1755 471.461L97.2466 464.39C97.7348 463.902 98.5262 463.902 99.0144 464.39C99.5025 464.878 99.5025 465.67 99.0144 466.158L91.0594 474.113ZM144.176 427.589C139.785 427.589 134.275 428.991 128.43 431.521C122.603 434.044 116.523 437.655 111.011 441.99C99.9104 450.718 91.4255 462.118 91.4255 473.229H88.9255C88.9255 460.935 98.191 448.89 109.466 440.024C115.141 435.562 121.405 431.839 127.437 429.227C133.452 426.623 139.316 425.089 144.176 425.089V427.589Z" fill="#282D26"/>
<path d="M394.371 488.437V485.499H398.934V484.394H394.371V481.599H399.493V480.468H393.071V489.568H399.675V488.437H394.371Z" fill="#181F23"/>
<path d="M406.202 485.993C406.891 485.72 407.307 485.187 407.307 484.446C407.307 483.315 406.332 482.678 404.707 482.678H401.509V489.568H404.824C406.657 489.568 407.541 488.866 407.541 487.67C407.541 486.799 407.112 486.227 406.202 485.993ZM402.731 483.64H404.603C405.552 483.64 406.059 483.965 406.059 484.628C406.059 485.291 405.552 485.642 404.603 485.642H402.731V483.64ZM404.733 488.606H402.731V486.539H404.811C405.838 486.539 406.293 486.877 406.293 487.592C406.293 488.294 405.76 488.606 404.733 488.606Z" fill="#181F23"/>
<path d="M414.564 482.678H409.494V489.568H410.742V483.77H414.564V482.678Z" fill="#181F23"/>
<path d="M421.764 486.162C421.764 484.043 420.347 482.613 418.358 482.613C416.369 482.613 414.9 484.082 414.9 486.123C414.9 488.177 416.382 489.646 418.605 489.646C419.749 489.646 420.698 489.256 421.322 488.528L420.633 487.722C420.126 488.281 419.45 488.554 418.644 488.554C417.279 488.554 416.304 487.748 416.148 486.539H421.738C421.751 486.422 421.764 486.266 421.764 486.162ZM418.358 483.666C419.567 483.666 420.438 484.485 420.568 485.642H416.148C416.278 484.472 417.162 483.666 418.358 483.666Z" fill="#181F23"/>
<path d="M423.7 489.568H424.948V486.682H428.874V489.568H430.122V482.678H428.874V485.603H424.948V482.678H423.7V489.568Z" fill="#181F23"/>
<path d="M432.549 489.568H433.693L437.905 484.55V489.568H439.153V482.678H438.022L433.797 487.696V482.678H432.549V489.568Z" fill="#181F23"/>
<path d="M444.084 482.678C442.238 482.678 441.055 483.497 441.055 485.096C441.055 486.188 441.64 486.903 442.667 487.215L440.99 489.568H442.329L443.837 487.384H443.98H445.982V489.568H447.1V482.678H444.084ZM442.329 485.135C442.329 484.173 442.979 483.77 444.123 483.77H445.982V486.487H444.071C442.914 486.487 442.329 486.058 442.329 485.135Z" fill="#181F23"/>
<path d="M372.683 493.468V497.381H367.457V493.468H366.157V502.568H367.457V498.512H372.683V502.568H373.983V493.468H372.683Z" fill="#181F23"/>
<path d="M379.07 495.613C377.965 495.613 376.938 495.925 376.223 496.497L376.743 497.433C377.276 496.978 378.108 496.692 378.927 496.692C380.162 496.692 380.773 497.303 380.773 498.356V498.603H378.797C376.743 498.603 376.028 499.513 376.028 500.618C376.028 501.814 377.016 502.646 378.576 502.646C379.655 502.646 380.422 502.282 380.838 501.658V502.568H382.021V498.408C382.021 496.523 380.955 495.613 379.07 495.613ZM378.784 501.684C377.835 501.684 377.263 501.255 377.263 500.566C377.263 499.981 377.614 499.5 378.849 499.5H380.773V500.462C380.461 501.255 379.72 501.684 378.784 501.684Z" fill="#181F23"/>
<path d="M389.26 502.568H390.729L387.934 498.993L390.547 495.678H389.208L386.972 498.59H385.516V495.678H384.268V502.568H385.516V499.656H386.946L389.26 502.568Z" fill="#181F23"/>
<path d="M394.76 502.646C396.827 502.646 398.335 501.177 398.335 499.123C398.335 497.069 396.827 495.613 394.76 495.613C392.693 495.613 391.172 497.069 391.172 499.123C391.172 501.177 392.693 502.646 394.76 502.646ZM394.76 501.554C393.434 501.554 392.433 500.592 392.433 499.123C392.433 497.654 393.434 496.705 394.76 496.705C396.086 496.705 397.074 497.654 397.074 499.123C397.074 500.592 396.086 501.554 394.76 501.554Z" fill="#181F23"/>
<path d="M400.138 502.568H401.386V499.682H405.312V502.568H406.56V495.678H405.312V498.603H401.386V495.678H400.138V502.568Z" fill="#181F23"/>
<path d="M415.213 499.162C415.213 497.043 413.796 495.613 411.807 495.613C409.818 495.613 408.349 497.082 408.349 499.123C408.349 501.177 409.831 502.646 412.054 502.646C413.198 502.646 414.147 502.256 414.771 501.528L414.082 500.722C413.575 501.281 412.899 501.554 412.093 501.554C410.728 501.554 409.753 500.748 409.597 499.539H415.187C415.2 499.422 415.213 499.266 415.213 499.162ZM411.807 496.666C413.016 496.666 413.887 497.485 414.017 498.642H409.597C409.727 497.472 410.611 496.666 411.807 496.666Z" fill="#181F23"/>
<path d="M421.4 495.678V498.824C420.737 499.11 420.061 499.279 419.437 499.279C418.384 499.279 417.734 498.811 417.734 497.836V495.678H416.486V497.914C416.486 499.552 417.5 500.306 419.177 500.306C419.944 500.306 420.698 500.111 421.4 499.786V502.568H422.648V495.678H421.4Z" fill="#181F23"/>
<path d="M425.071 502.568H426.319V499.682H430.245V502.568H431.493V495.678H430.245V498.603H426.319V495.678H425.071V502.568Z" fill="#181F23"/>
<path d="M436.377 495.613C435.272 495.613 434.245 495.925 433.53 496.497L434.05 497.433C434.583 496.978 435.415 496.692 436.234 496.692C437.469 496.692 438.08 497.303 438.08 498.356V498.603H436.104C434.05 498.603 433.335 499.513 433.335 500.618C433.335 501.814 434.323 502.646 435.883 502.646C436.962 502.646 437.729 502.282 438.145 501.658V502.568H439.328V498.408C439.328 496.523 438.262 495.613 436.377 495.613ZM436.091 501.684C435.142 501.684 434.57 501.255 434.57 500.566C434.57 499.981 434.921 499.5 436.156 499.5H438.08V500.462C437.768 501.255 437.027 501.684 436.091 501.684Z" fill="#181F23"/>
<path d="M444.084 495.678C442.238 495.678 441.055 496.497 441.055 498.096C441.055 499.188 441.64 499.903 442.667 500.215L440.99 502.568H442.329L443.837 500.384H443.98H445.982V502.568H447.1V495.678H444.084ZM442.329 498.135C442.329 497.173 442.979 496.77 444.123 496.77H445.982V499.487H444.071C442.914 499.487 442.329 499.058 442.329 498.135Z" fill="#181F23"/>
<path d="M63.9865 488.437V480.468H57.5905L57.4995 483.393C57.4085 486.162 57.1095 488.359 55.8615 488.437H55.4195L55.4065 491.557H56.6155L56.6285 489.568H64.1165V491.557H65.3255V488.437H63.9865ZM58.6435 483.51L58.7085 481.599H62.6995V488.437H57.5645C58.3445 487.735 58.5655 485.733 58.6435 483.51Z" fill="#181F23"/>
<path d="M73.6677 482.678L70.8857 487.332L68.1817 482.678H66.8947V489.568H68.0387V484.524L70.5867 488.788H71.1327L73.7067 484.537V489.568H74.8377V482.678H73.6677Z" fill="#181F23"/>
<path d="M77.2668 489.568H78.4108L82.6228 484.55V489.568H83.8708V482.678H82.7398L78.5148 487.696V482.678H77.2668V489.568Z" fill="#181F23"/>
<path d="M91.4282 482.678H85.1362V483.77H87.6582V489.568H88.9062V483.77H91.4282V482.678Z" fill="#181F23"/>
<path d="M96.3573 482.613C95.3433 482.613 94.4593 483.003 93.9003 483.77V482.678H92.7043V492.09H93.9523V488.528C94.5243 489.269 95.3823 489.646 96.3573 489.646C98.3723 489.646 99.8413 488.242 99.8413 486.123C99.8413 484.017 98.3723 482.613 96.3573 482.613ZM96.2533 488.554C94.9403 488.554 93.9393 487.592 93.9393 486.123C93.9393 484.667 94.9403 483.705 96.2533 483.705C97.5793 483.705 98.5803 484.667 98.5803 486.123C98.5803 487.592 97.5793 488.554 96.2533 488.554Z" fill="#181F23"/>
<path d="M101.655 489.568H102.799L107.011 484.55V489.568H108.259V482.678H107.128L102.903 487.696V482.678H101.655V489.568Z" fill="#181F23"/>
<path d="M113.905 481.781C115.166 481.781 115.933 481.157 115.959 479.987H115.088C115.075 480.637 114.607 481.053 113.892 481.053C113.19 481.053 112.722 480.637 112.709 479.987H111.864C111.877 481.157 112.644 481.781 113.905 481.781ZM110.681 489.568H111.825L116.037 484.55V489.568H117.285V482.678H116.154L111.929 487.696V482.678H110.681V489.568Z" fill="#181F23"/>
<path d="M62.7775 502.568H64.2595L60.8535 497.875L64.1035 493.468H62.7125L59.8525 497.42H57.9285V493.468H56.6545V502.568H57.9285V498.564H59.8265L62.7775 502.568Z" fill="#181F23"/>
<path d="M70.2475 495.678L67.8685 501.19L65.4635 495.678H64.1635L67.2055 502.555L66.9845 503.036C66.6465 503.829 66.2695 504.102 65.6715 504.102C65.2035 504.102 64.7745 503.92 64.4365 503.595L63.9035 504.531C64.3325 504.947 65.0085 505.168 65.6715 505.168C66.7245 505.168 67.5175 504.713 68.1285 503.257L71.4695 495.678H70.2475Z" fill="#181F23"/>
<path d="M81.3143 495.678V501.476H78.2853V495.678H77.0373V501.476H73.9953V495.678H72.7473V502.568H82.5623V495.678H81.3143Z" fill="#181F23"/>
<path d="M84.9856 502.568H86.2336V499.682H90.1596V502.568H91.4076V495.678H90.1596V498.603H86.2336V495.678H84.9856V502.568Z" fill="#181F23"/>
<path d="M96.2912 495.613C95.1862 495.613 94.1592 495.925 93.4442 496.497L93.9642 497.433C94.4972 496.978 95.3292 496.692 96.1482 496.692C97.3832 496.692 97.9942 497.303 97.9942 498.356V498.603H96.0182C93.9642 498.603 93.2492 499.513 93.2492 500.618C93.2492 501.814 94.2372 502.646 95.7972 502.646C96.8762 502.646 97.6432 502.282 98.0592 501.658V502.568H99.2422V498.408C99.2422 496.523 98.1762 495.613 96.2912 495.613ZM96.0052 501.684C95.0562 501.684 94.4842 501.255 94.4842 500.566C94.4842 499.981 94.8352 499.5 96.0702 499.5H97.9942V500.462C97.6822 501.255 96.9412 501.684 96.0052 501.684Z" fill="#181F23"/>
<path d="M105.142 495.613C104.128 495.613 103.244 496.003 102.685 496.77V495.678H101.489V505.09H102.737V501.528C103.309 502.269 104.167 502.646 105.142 502.646C107.157 502.646 108.626 501.242 108.626 499.123C108.626 497.017 107.157 495.613 105.142 495.613ZM105.038 501.554C103.725 501.554 102.724 500.592 102.724 499.123C102.724 497.667 103.725 496.705 105.038 496.705C106.364 496.705 107.365 497.667 107.365 499.123C107.365 500.592 106.364 501.554 105.038 501.554Z" fill="#181F23"/>
<path d="M116.667 499.162C116.667 497.043 115.25 495.613 113.261 495.613C111.272 495.613 109.803 497.082 109.803 499.123C109.803 501.177 111.285 502.646 113.508 502.646C114.652 502.646 115.601 502.256 116.225 501.528L115.536 500.722C115.029 501.281 114.353 501.554 113.547 501.554C112.182 501.554 111.207 500.748 111.051 499.539H116.641C116.654 499.422 116.667 499.266 116.667 499.162ZM113.261 496.666C114.47 496.666 115.341 497.485 115.471 498.642H111.051C111.181 497.472 112.065 496.666 113.261 496.666Z" fill="#181F23"/>
<path d="M123.296 498.993C123.985 498.72 124.401 498.187 124.401 497.446C124.401 496.315 123.426 495.678 121.801 495.678H118.603V502.568H121.918C123.751 502.568 124.635 501.866 124.635 500.67C124.635 499.799 124.206 499.227 123.296 498.993ZM119.825 496.64H121.697C122.646 496.64 123.153 496.965 123.153 497.628C123.153 498.291 122.646 498.642 121.697 498.642H119.825V496.64ZM121.827 501.606H119.825V499.539H121.905C122.932 499.539 123.387 499.877 123.387 500.592C123.387 501.294 122.854 501.606 121.827 501.606Z" fill="#181F23"/>
</svg>
