<svg xmlns="http://www.w3.org/2000/svg" width="231.609" height="24.472" viewBox="0 0 231.609 24.472">
  <path id="Контур_4" data-name="Контур 4" d="M4.021-10.222.3,13.244h9.822c8.213,0,12.537-4.727,13.61-11.364,1.106-7.04-2.447-12.1-10.493-12.1ZM17.464,1.142c-.7,4.593-3.386,6.738-7.107,6.738H7.34L9.351-4.859H12.67C16.391-4.859,18.134-3.048,17.464,1.142Zm33.523.738c1.073-6.738-3.017-12.6-10.861-12.6A13.861,13.861,0,0,0,25.945,1.142c-1.073,6.738,2.682,12.6,10.861,12.6A13.861,13.861,0,0,0,50.986,1.88ZM32.214,1.712c.637-3.956,3.352-6.738,7.543-6.738,3.922,0,5.531,2.782,4.961,6.336-.6,3.956-3.352,6.738-7.543,6.738C33.253,8.048,31.644,5.265,32.214,1.712ZM58.629,13.244l1.609-9.822a24.54,24.54,0,0,0,.335-3.486l7.811,13.309h5.162l3.721-23.466h-6.2L69.558-.668a31.715,31.715,0,0,0-.4,3.788L61.311-10.222H56.149L52.428,13.244Zm42.272,0L95.4-10.222H88.7L75.76,13.244h6.5l1.911-3.687H93.9l.771,3.687ZM90.275-2.11a14.669,14.669,0,0,0,1.039-2.514,14.5,14.5,0,0,0,.268,2.581l1.274,6.57H86.822Zm11.9-8.112L101.3-4.691h6.637l-2.849,17.935h6.2l2.849-17.935h6.6l.872-5.531Zm22.091,0-3.721,23.466h17.1l.838-5.364H127.586l.6-3.822h9.722l.838-5.33h-9.722l.57-3.587h10.727l.838-5.364Zm20.65,0L141.2,13.244h16.929L159,7.712H148.269l2.849-17.935Zm40.73,12.1c1.073-6.738-3.017-12.6-10.861-12.6a13.861,13.861,0,0,0-14.18,11.867c-1.073,6.738,2.682,12.6,10.861,12.6A13.861,13.861,0,0,0,185.647,1.88Zm-18.773-.168c.637-3.956,3.352-6.738,7.543-6.738,3.922,0,5.531,2.782,4.961,6.336-.6,3.956-3.352,6.738-7.543,6.738C167.914,8.048,166.3,5.265,166.874,1.712Zm21.354-11.934-.872,5.531h6.637l-2.849,17.935h6.2L200.2-4.691h6.6l.872-5.531Zm43.512,12.1c1.073-6.738-3.017-12.6-10.861-12.6A13.861,13.861,0,0,0,206.7,1.142c-1.073,6.738,2.682,12.6,10.861,12.6A13.861,13.861,0,0,0,231.741,1.88Zm-18.773-.168c.637-3.956,3.352-6.738,7.543-6.738,3.922,0,5.531,2.782,4.961,6.336-.6,3.956-3.352,6.738-7.543,6.738C214.007,8.048,212.4,5.265,212.968,1.712Z" transform="translate(-0.3 10.725)" fill="#fff"/>
</svg>
