<svg xmlns="http://www.w3.org/2000/svg" width="7.642" height="7.642" viewBox="0 0 7.642 7.642">
  <path id="close_3_" data-name="close (3)" d="M3.594,2.7,5.266,1.03a.473.473,0,0,0,0-.669L5.043.139a.473.473,0,0,0-.669,0L2.7,1.811,1.031.138a.473.473,0,0,0-.669,0L.139.361a.473.473,0,0,0,0,.669L1.811,2.7.139,4.374a.473.473,0,0,0,0,.669l.223.223a.473.473,0,0,0,.669,0L2.7,3.594,4.374,5.265a.473.473,0,0,0,.669,0l.223-.223a.473.473,0,0,0,0-.669Zm0,0" transform="translate(3.821 0) rotate(45)" fill="#fff"/>
</svg>
