<svg id="user" xmlns="http://www.w3.org/2000/svg" width="29.376" height="29.375" viewBox="0 0 29.376 29.375">
  <path id="Контур_5" data-name="Контур 5" d="M14.688,0A14.687,14.687,0,1,0,29.376,14.688,14.688,14.688,0,0,0,14.688,0Zm0,4.392A4.858,4.858,0,1,1,9.831,9.251,4.858,4.858,0,0,1,14.688,4.393Zm0,21.143a10.78,10.78,0,0,1-7.02-2.588,2.07,2.07,0,0,1-.726-1.574,4.9,4.9,0,0,1,4.923-4.9h5.653a4.892,4.892,0,0,1,4.916,4.9,2.065,2.065,0,0,1-.726,1.573A10.776,10.776,0,0,1,14.685,25.536Z" transform="translate(0 -0.001)" fill="#fff"/>
</svg>
