<svg width="459" height="459" viewBox="0 0 459 459" fill="none" xmlns="http://www.w3.org/2000/svg">
<circle cx="229.5" cy="229.5" r="227.5" fill="white" fill-opacity="0.5" stroke="#282D26" stroke-width="2.9" stroke-linecap="round" stroke-linejoin="round" stroke-dasharray="2 6"/>
<circle cx="229.5" cy="229.5" r="49.5" stroke="#282D26" stroke-width="2.9" stroke-linecap="round" stroke-linejoin="round" stroke-dasharray="2 6"/>
<circle cx="229.5" cy="229.5" r="60.5" stroke="#282D26" stroke-width="2.9" stroke-linecap="round" stroke-linejoin="round" stroke-dasharray="2 6"/>
<circle cx="229.5" cy="229.5" r="70.5" stroke="#282D26" stroke-width="2.9" stroke-linecap="round" stroke-linejoin="round" stroke-dasharray="2 6"/>
<circle cx="229.5" cy="229.5" r="81.5" stroke="#282D26" stroke-width="2.9" stroke-linecap="round" stroke-linejoin="round" stroke-dasharray="2 6"/>
<circle cx="229.5" cy="229.5" r="92.5" stroke="#282D26" stroke-width="2.9" stroke-linecap="round" stroke-linejoin="round" stroke-dasharray="2 6"/>
<circle cx="229.5" cy="229.5" r="104.5" stroke="#282D26" stroke-width="2.9" stroke-linecap="round" stroke-linejoin="round" stroke-dasharray="2 6"/>
<circle cx="229.5" cy="229.5" r="116.5" stroke="#282D26" stroke-width="2.9" stroke-linecap="round" stroke-linejoin="round" stroke-dasharray="2 6"/>
<circle cx="229.5" cy="229.5" r="129.5" stroke="#282D26" stroke-width="2.9" stroke-linecap="round" stroke-linejoin="round" stroke-dasharray="2 6"/>
<circle cx="229.5" cy="229.5" r="142.5" stroke="#282D26" stroke-width="2.9" stroke-linecap="round" stroke-linejoin="round" stroke-dasharray="2 6"/>
<circle cx="229.5" cy="229.5" r="155.5" stroke="#282D26" stroke-width="2.9" stroke-linecap="round" stroke-linejoin="round" stroke-dasharray="2 6"/>
<circle cx="229.5" cy="229.5" r="168.5" stroke="#282D26" stroke-width="2.9" stroke-linecap="round" stroke-linejoin="round" stroke-dasharray="2 6"/>
<circle cx="229.5" cy="229.5" r="180.5" stroke="#282D26" stroke-width="2.9" stroke-linecap="round" stroke-linejoin="round" stroke-dasharray="2 6"/>
<circle cx="229.5" cy="229.5" r="192.5" stroke="#282D26" stroke-width="2.9" stroke-linecap="round" stroke-linejoin="round" stroke-dasharray="2 6"/>
<circle cx="229.5" cy="229.5" r="204.5" stroke="#282D26" stroke-width="2.9" stroke-linecap="round" stroke-linejoin="round" stroke-dasharray="2 6"/>
<circle cx="229.5" cy="229.5" r="216.5" stroke="#282D26" stroke-width="2.9" stroke-linecap="round" stroke-linejoin="round" stroke-dasharray="2 6"/>
<path fill-rule="evenodd" clip-rule="evenodd" d="M241.585 196.11C236.22 194.145 230.473 193.526 224.826 194.304C219.179 195.082 213.795 197.234 209.129 200.583C204.462 203.932 200.649 208.38 198.014 213.555C195.379 218.729 194.001 224.477 193.998 230.313C193.998 231.418 193.102 232.313 191.997 232.312C190.893 232.311 189.998 231.415 189.998 230.311C190.002 223.848 191.528 217.478 194.45 211.74C197.372 206.001 201.605 201.059 206.796 197.333C211.988 193.608 217.984 191.208 224.28 190.341C230.576 189.474 236.983 190.165 242.961 192.354C243.998 192.734 244.531 193.882 244.151 194.92C243.771 195.957 242.623 196.49 241.585 196.11ZM252.498 197.848C251.598 197.208 250.349 197.419 249.709 198.319C249.068 199.219 249.279 200.467 250.179 201.108C256.497 205.603 261.146 211.969 263.442 219.247C263.774 220.3 264.898 220.885 265.951 220.553C267.004 220.22 267.589 219.097 267.257 218.044C264.696 209.923 259.514 202.841 252.498 197.848ZM227.439 202.479L229.439 202.479C234.758 202.479 239.948 204.133 244.334 207.218C248.719 210.301 252.095 214.67 254.032 219.748C254.426 220.78 253.909 221.936 252.877 222.329C251.845 222.723 250.689 222.206 250.295 221.174C248.636 216.826 245.754 213.106 242.033 210.489C238.868 208.264 235.22 206.922 231.439 206.571L231.439 215.572C234.04 215.962 236.49 217.107 238.495 218.883C241.005 221.108 242.652 224.175 243.154 227.526C243.656 230.876 242.983 234.305 241.249 237.196C239.514 240.089 236.826 242.262 233.657 243.303C230.486 244.344 227.058 244.179 223.997 242.84C220.938 241.502 218.459 239.085 216.992 236.043C215.526 233.001 215.163 229.524 215.963 226.235C216.763 222.945 218.679 220.044 221.382 218.066C222.273 217.414 223.525 217.608 224.177 218.499C224.83 219.391 224.636 220.642 223.744 221.294C221.819 222.703 220.432 224.787 219.85 227.18C219.268 229.574 219.534 232.103 220.596 234.306C221.657 236.508 223.437 238.23 225.6 239.176C227.762 240.121 230.174 240.236 232.408 239.502C234.643 238.768 236.567 237.227 237.819 235.139C239.071 233.05 239.564 230.559 239.198 228.118C238.832 225.678 237.636 223.467 235.842 221.877C234.049 220.288 231.777 219.423 229.438 219.422L227.439 219.42L227.439 217.422L227.439 204.479L227.439 202.479ZM223.572 205.539C223.907 206.592 223.324 207.717 222.272 208.051C219.135 209.047 216.248 210.72 213.811 212.955C211.375 215.189 209.447 217.932 208.162 220.996C206.876 224.059 206.265 227.368 206.37 230.694C206.475 234.02 207.295 237.283 208.771 240.256C209.262 241.246 208.858 242.446 207.869 242.937C206.879 243.428 205.679 243.024 205.188 242.035C203.456 238.546 202.495 234.719 202.372 230.82C202.249 226.921 202.965 223.041 204.473 219.448C205.981 215.855 208.244 212.633 211.108 210.007C213.972 207.38 217.367 205.412 221.061 204.239C222.113 203.904 223.238 204.487 223.572 205.539ZM194.777 237.397C194.547 236.317 193.486 235.627 192.405 235.856C191.325 236.085 190.635 237.147 190.864 238.228C191.931 243.253 193.997 248.027 196.945 252.285C197.574 253.193 198.82 253.419 199.728 252.79C200.636 252.161 200.863 250.915 200.234 250.007C197.585 246.182 195.732 241.899 194.777 237.397ZM215.332 247.931L213.907 246.766L212.629 248.09L203.743 257.285L202.277 258.803L203.87 260.186C208.858 264.515 214.85 267.522 221.298 268.934C222.377 269.17 223.443 268.486 223.679 267.407C223.915 266.328 223.232 265.262 222.153 265.026C217.048 263.909 212.261 261.678 208.129 258.502L214.271 252.147C218.651 255.249 223.873 256.975 229.266 257.078C235.275 257.192 241.15 255.284 245.948 251.659C246.829 250.993 247.004 249.739 246.338 248.858C245.672 247.977 244.418 247.802 243.536 248.468C239.453 251.553 234.455 253.176 229.342 253.079C224.229 252.981 219.296 251.169 215.332 247.931ZM254.502 228.313L252.501 228.313L252.502 230.314C252.505 234.723 251.236 239.035 248.856 242.719C248.256 243.647 248.522 244.885 249.45 245.484C250.378 246.084 251.616 245.817 252.215 244.89C254.654 241.115 256.098 236.786 256.429 232.313L264.944 232.313C264.583 238.813 262.459 245.099 258.792 250.47C254.749 256.389 249.025 260.914 242.386 263.444C241.354 263.838 240.836 264.994 241.229 266.026C241.623 267.058 242.779 267.576 243.811 267.182C251.219 264.358 257.596 259.313 262.095 252.725C266.594 246.137 269.001 238.319 269 230.312L268.999 228.313L267 228.313L254.502 228.313ZM235.892 229.916C235.892 233.506 232.982 236.416 229.392 236.416C225.802 236.416 222.892 233.506 222.892 229.916C222.892 226.326 225.802 223.416 229.392 223.416C232.982 223.416 235.892 226.326 235.892 229.916Z" fill="#282D26"/>
</svg>
