<svg width="150" height="150" viewBox="0 0 150 150" fill="none" xmlns="http://www.w3.org/2000/svg">
<circle cx="75.2858" cy="75.2856" r="25.4571" stroke="#282D26" stroke-width="2.5" stroke-linecap="round" stroke-linejoin="round" stroke-dasharray="2 6"/>
<circle cx="75.2857" cy="75.2857" r="31.1143" stroke="#282D26" stroke-width="2.5" stroke-linecap="round" stroke-linejoin="round" stroke-dasharray="2 6"/>
<circle cx="75.2858" cy="75.2856" r="36.2571" stroke="#282D26" stroke-width="2.5" stroke-linecap="round" stroke-linejoin="round" stroke-dasharray="2 6"/>
<circle cx="75.2857" cy="75.2859" r="41.9143" stroke="#282D26" stroke-width="2.5" stroke-linecap="round" stroke-linejoin="round" stroke-dasharray="2 6"/>
<circle cx="75.2857" cy="75.2857" r="47.5714" stroke="#282D26" stroke-width="2.5" stroke-linecap="round" stroke-linejoin="round" stroke-dasharray="2 6"/>
<circle cx="75.2857" cy="75.2857" r="53.7429" stroke="#282D26" stroke-width="2.5" stroke-linecap="round" stroke-linejoin="round" stroke-dasharray="2 6"/>
<circle cx="75.2857" cy="75.2857" r="59.9143" stroke="#282D26" stroke-width="2.5" stroke-linecap="round" stroke-linejoin="round" stroke-dasharray="2 6"/>
<circle cx="75.2858" cy="75.2858" r="66.6" stroke="#282D26" stroke-width="2.5" stroke-linecap="round" stroke-linejoin="round" stroke-dasharray="2 6"/>
<circle cx="75.2857" cy="75.2857" r="73.2857" stroke="#282D26" stroke-width="2.5" stroke-linecap="round" stroke-linejoin="round" stroke-dasharray="2 6"/>
<path fill-rule="evenodd" clip-rule="evenodd" d="M81.4247 58.3229C78.6995 57.3243 75.7802 57.0097 72.9121 57.4051C70.0441 57.8004 67.3092 58.8944 64.9384 60.5969C62.5675 62.2994 60.6296 64.5611 59.2905 67.1928C57.9513 69.8246 57.2507 72.7483 57.2491 75.7169C57.2487 76.4073 56.6888 76.9666 55.9984 76.9662C55.3081 76.9659 54.7487 76.4059 54.7491 75.7156C54.7509 72.3551 55.5438 69.0433 57.0624 66.059C58.581 63.0746 60.7814 60.5042 63.4802 58.5662C66.1791 56.6281 69.2969 55.3797 72.5708 54.9285C75.8447 54.4772 79.1766 54.8366 82.2849 55.9756C82.9331 56.2131 83.266 56.9312 83.0285 57.5794C82.791 58.2276 82.0729 58.5605 81.4247 58.3229ZM87.2418 58.8307C86.6794 58.4303 85.8989 58.5617 85.4986 59.1241C85.0982 59.6865 85.2295 60.4669 85.7919 60.8673C89.0025 63.153 91.3644 66.3892 92.5304 70.0882C92.7379 70.7467 93.4399 71.1122 94.0983 70.9046C94.7568 70.6971 95.1223 69.9951 94.9147 69.3367C93.583 65.1117 90.889 61.4272 87.2418 58.8307ZM74.3706 61.5386C74.605 61.3042 74.9229 61.1725 75.2545 61.1725C78.0363 61.1725 80.75 62.0381 83.0424 63.6514C85.3343 65.2643 87.0975 67.5482 88.1092 70.2014C88.3552 70.8464 88.0317 71.5687 87.3867 71.8147C86.7416 72.0607 86.0193 71.7372 85.7733 71.0921C84.9356 68.8952 83.4804 67.0166 81.6037 65.6959C80.0752 64.6203 78.3236 63.9543 76.5045 63.7444L76.5045 67.9434C77.8145 68.1762 79.0444 68.7706 80.0587 69.67C81.3894 70.8499 82.261 72.4757 82.5266 74.2498C82.7923 76.0237 82.4365 77.8399 81.5182 79.3722C80.5994 80.9055 79.1744 82.0582 77.4927 82.611C75.8101 83.1641 73.9908 83.0765 72.3668 82.3656C70.7438 81.6553 69.4302 80.373 68.6536 78.7608C67.8774 77.1494 67.6853 75.3078 68.1087 73.566C68.5323 71.8238 69.5467 70.2861 70.9798 69.2367C71.5367 68.8288 72.3189 68.9497 72.7268 69.5067C73.1346 70.0637 73.0137 70.8459 72.4568 71.2538C71.5098 71.9472 70.8254 72.9746 70.538 74.1566C70.2505 75.3391 70.3821 76.5883 70.906 77.676C71.4295 78.7629 72.3065 79.6103 73.3692 80.0754C74.4309 80.5401 75.6153 80.5965 76.7121 80.236C77.8097 79.8752 78.7566 79.1171 79.3738 78.0871C79.9915 77.0563 80.2348 75.826 80.0542 74.6201C79.8737 73.4144 79.2832 72.3236 78.4001 71.5406C77.518 70.7584 76.4017 70.3336 75.2537 70.3329C74.5636 70.3325 74.0045 69.773 74.0045 69.0829L74.0045 62.4225C74.0045 62.0909 74.1362 61.773 74.3706 61.5386ZM72.4482 62.9012C72.6573 63.5591 72.2935 64.2619 71.6355 64.4711C70.0531 64.974 68.5967 65.8184 67.3673 66.9466C66.1378 68.0749 65.1647 69.4601 64.5159 71.0072C63.8672 72.5543 63.5585 74.2257 63.6116 75.9058C63.6647 77.5859 64.0784 79.2339 64.8235 80.7358C65.1303 81.3542 64.8776 82.1042 64.2592 82.4111C63.6408 82.7179 62.8907 82.4652 62.5839 81.8468C61.679 80.0229 61.1773 78.0228 61.1129 75.9848C61.0484 73.9468 61.4228 71.9187 62.2104 70.0404C62.9981 68.162 64.1806 66.4778 65.6769 65.1047C67.1733 63.7315 68.9479 62.7021 70.8783 62.0885C71.5362 61.8794 72.2391 62.2432 72.4482 62.9012ZM57.6447 79.3165C57.5014 78.6412 56.8379 78.2098 56.1625 78.3531C55.4872 78.4963 55.0559 79.1599 55.1991 79.8352C55.7538 82.4502 56.8283 84.934 58.3611 87.1487C58.754 87.7164 59.5326 87.8581 60.1003 87.4652C60.668 87.0724 60.8097 86.2937 60.4168 85.726C59.0708 83.7811 58.1299 81.6042 57.6447 79.3165ZM68.1399 84.6122C67.6364 84.2006 66.9013 84.2438 66.4495 84.7117L61.8798 89.4439C61.6415 89.6906 61.5151 90.0243 61.5302 90.367C61.5452 90.7096 61.7004 91.031 61.9593 91.2559C64.5522 93.5079 67.6674 95.0726 71.0201 95.8068C71.6944 95.9545 72.3608 95.5275 72.5085 94.8531C72.6562 94.1788 72.2292 93.5124 71.5549 93.3647C69.0422 92.8144 66.6811 91.7328 64.6272 90.1977L67.4817 87.2418C69.7379 88.7952 72.4067 89.6585 75.161 89.711C78.3016 89.7708 81.3712 88.773 83.8783 86.8777C84.429 86.4613 84.5379 85.6774 84.1216 85.1267C83.7053 84.576 82.9214 84.4671 82.3707 84.8834C80.3103 86.441 77.7884 87.2606 75.2086 87.2114C72.6288 87.1623 70.1398 86.2472 68.1399 84.6122ZM88.1439 74.4665C87.8122 74.4665 87.4941 74.5983 87.2597 74.8329C87.0253 75.0675 86.8937 75.3856 86.8939 75.7173C86.8952 77.944 86.255 80.1212 85.0539 81.9813C84.6794 82.5613 84.8459 83.335 85.4259 83.7095C86.0058 84.084 86.7796 83.9174 87.1541 83.3375C88.3912 81.4216 89.1384 79.2325 89.339 76.9665L93.2787 76.9665C93.0583 80.1888 91.9865 83.299 90.1669 85.9651C88.1132 88.9744 85.2054 91.274 81.8337 92.5601C81.1887 92.8061 80.8652 93.5284 81.1112 94.1735C81.3573 94.8185 82.0796 95.142 82.7246 94.8959C86.5771 93.4265 89.893 90.8016 92.2319 87.3744C94.5706 83.9474 95.822 79.8805 95.8212 75.7163C95.8211 75.026 95.2615 74.4665 94.5712 74.4665L88.1439 74.4665ZM78.5931 75.5215C78.5931 77.3738 77.0919 78.8754 75.2402 78.8754C73.3884 78.8754 71.8873 77.3738 71.8873 75.5215C71.8873 73.6692 73.3884 72.1676 75.2402 72.1676C77.0919 72.1676 78.5931 73.6692 78.5931 75.5215Z" fill="#282D26"/>
</svg>
