<svg width="117" height="77" viewBox="0 0 117 77" fill="none" xmlns="http://www.w3.org/2000/svg">
<path d="M7.89147 1.67252L19.5733 3.11502C20.9436 3.28423 21.9172 4.53226 21.748 5.90256L16.8678 45.4241C16.6986 46.7944 15.4506 47.7681 14.0803 47.5989L2.39847 46.1564L7.89147 1.67252Z" fill="#C1CB8F" stroke="#282D26" stroke-width="3"/>
<path d="M109.309 1.67252L97.6274 3.11502C96.2571 3.28423 95.2834 4.53226 95.4527 5.90256L100.333 45.4241C100.502 46.7944 101.75 47.7681 103.12 47.5989L114.802 46.1564L109.309 1.67252Z" fill="#C1CB8F" stroke="#282D26" stroke-width="3"/>
<path d="M30.5585 11.1995L21.4738 10.5L17.4738 43.5L28.9738 45.3855C37.7112 52.642 55.3965 66.3462 59.23 69.3108C59.653 69.6379 60.2458 69.564 60.5912 69.1557L64.9894 63.9579C65.2764 63.6187 65.7529 63.5096 66.1589 63.69L69.3165 65.0934C69.7092 65.2679 70.1694 65.1721 70.4598 64.8553L75.0617 59.835C75.3148 59.559 75.7008 59.4474 76.062 59.5459L80.3248 60.7085C80.7172 60.8155 81.1353 60.6742 81.3823 60.3511L85.1992 55.3591C85.3737 55.1308 85.6352 54.9889 85.9216 54.9642C87.3098 54.8444 91.506 54.4124 92.4738 53.5C94.9738 51.1431 90.9738 48 88.9738 46L66.9738 26.3855L52.4738 6.3855L40.7004 3.94964C39.0616 3.61057 37.385 4.32755 36.498 5.74668L34.2576 9.33133C33.4684 10.594 32.0432 11.3138 30.5585 11.1995Z" fill="white" stroke="#282D26" stroke-width="3"/>
<path d="M92.1524 9.24538L95.7612 9.01329L99.9738 42.5L93.4954 42.833C92.833 42.867 92.2006 43.1196 91.697 43.5513L88.9738 45.8855L61.3951 22.828C60.7526 22.3496 60.1735 21.8608 59.6698 21.3855C59.061 20.8765 58.1355 21.0767 57.7585 21.7749C52.3795 31.7349 46.1882 32.5357 42.3101 31.1523C40.8768 30.6411 40.5696 28.9052 41.36 27.6049L53.6916 7.31743C54.8158 5.46792 56.7324 4.24248 58.8829 3.9981L75.1164 2.15338C76.6452 1.97965 78.1888 2.31451 79.5082 3.10617L88.1017 8.26226C89.3208 8.99371 90.7337 9.33662 92.1524 9.24538Z" fill="white"/>
<path d="M59.6698 21.3855V21.3855C59.061 20.8765 58.1355 21.0767 57.7585 21.7749C52.3795 31.7349 46.1882 32.5357 42.3101 31.1523C40.8768 30.6411 40.5696 28.9052 41.36 27.6049L53.6916 7.31743C54.8158 5.46792 56.7324 4.24248 58.8829 3.9981L75.1164 2.15338C76.6452 1.97965 78.1888 2.31451 79.5082 3.10617L88.1017 8.26226C89.3208 8.99371 90.7337 9.33662 92.1524 9.24538L95.7612 9.01329L99.9738 42.5L93.4954 42.833C92.833 42.867 92.2006 43.1196 91.697 43.5513L88.9738 45.8855L59.6698 21.3855ZM59.6698 21.3855C64.4378 25.8855 75.9738 31.5855 83.9738 18.3855" stroke="#282D26" stroke-width="3" stroke-linecap="round"/>
<rect x="32.0899" y="42.8855" width="8.85466" height="12.2371" rx="4" transform="rotate(42.9434 32.0899 42.8855)" fill="white" stroke="#282D26" stroke-width="3"/>
<rect x="40.8276" y="46.8855" width="8.85466" height="14.5489" rx="4" transform="rotate(40.0104 40.8276 46.8855)" fill="white" stroke="#282D26" stroke-width="3"/>
<rect x="48.638" y="51.8855" width="8.85466" height="14.5489" rx="4" transform="rotate(39.0422 48.638 51.8855)" fill="white" stroke="#282D26" stroke-width="3"/>
<rect x="57.0349" y="55.8855" width="8.85466" height="16.7665" rx="4" transform="rotate(39.0422 57.0349 55.8855)" fill="white" stroke="#282D26" stroke-width="3"/>
</svg>
