<svg width="105" height="90" viewBox="0 0 105 90" fill="none" xmlns="http://www.w3.org/2000/svg">
<path d="M95.0874 34.3447C94.8241 34.6852 94.7257 35.1251 94.8187 35.5453C94.9118 35.9656 95.1868 36.3228 95.5692 36.5202C100.03 38.8235 103.076 43.4705 103.076 48.8289C103.076 56.4763 96.8766 62.6755 89.2293 62.6755C87.5273 62.6755 85.9002 62.3673 84.3966 61.8072C83.8922 61.6192 83.3252 61.7262 82.9239 62.085C82.5226 62.4438 82.3531 62.9954 82.4837 63.5176L86.9679 81.454C87.3317 82.9089 86.7405 84.4372 85.4917 85.2698C83.7141 86.4548 81.2994 85.814 80.345 83.9051L70.131 63.4767C69.9097 63.0341 69.4779 62.735 68.9858 62.6832L32.4588 58.8382C32.1042 58.8009 31.7483 58.8955 31.459 59.1041C28.345 61.3493 24.5276 62.6752 20.3953 62.6752C9.93216 62.6752 1.45 54.193 1.45 43.7299C1.45 35.7731 6.35859 28.9625 13.3176 26.1565C13.8408 25.9455 14.1942 25.4502 14.2234 24.8867C14.7412 14.8878 23.0138 6.93863 33.1423 6.93863C37.172 6.93863 40.9022 8.19934 43.9728 10.3439C44.3228 10.5884 44.7628 10.6662 45.1754 10.5566C45.588 10.4469 45.9313 10.1611 46.1139 9.77514C48.3337 5.08199 53.1074 1.83989 58.6366 1.83989C65.929 1.83989 71.9022 7.47982 72.4388 14.6358C72.4802 15.1877 72.8321 15.6679 73.3458 15.8736C73.8596 16.0792 74.4456 15.9745 74.8564 15.6037C77.3126 13.3863 80.5622 12.0377 84.1305 12.0377C91.7779 12.0377 97.9771 18.2368 97.9771 25.8842C97.9771 29.072 96.8983 32.0034 95.0874 34.3447Z" fill="#C1CB8F" stroke="#282D26" stroke-width="2.9" stroke-linejoin="round"/>
<path d="M34.1578 43.1315L31.1898 40.1634C30.5845 39.5581 30.5845 38.5767 31.1898 37.9714L49.8907 19.2706C50.496 18.6652 51.4774 18.6652 52.0827 19.2706L55.0507 22.2386C55.656 22.8439 55.656 23.8253 55.0507 24.4306L36.3498 43.1315C35.7445 43.7368 34.7631 43.7368 34.1578 43.1315Z" fill="white" stroke="#282D26" stroke-width="2.9" stroke-linejoin="round"/>
<path d="M55.1783 40.0341L52.2102 43.0021C51.6049 43.6075 50.6235 43.6075 50.0182 43.0021L31.3173 24.3013C30.712 23.696 30.712 22.7146 31.3173 22.1092L34.2854 19.1412C34.8907 18.5359 35.8721 18.5359 36.4774 19.1412L55.1783 37.8421C55.7836 38.4474 55.7836 39.4288 55.1783 40.0341Z" fill="white" stroke="#282D26" stroke-width="2.9" stroke-linejoin="round"/>
</svg>
