<svg width="83" height="88" viewBox="0 0 83 88" fill="none" xmlns="http://www.w3.org/2000/svg">
<path d="M17.9859 82.1888V20.1897H80.9555V82.1888C80.9555 84.5514 79.0404 86.4665 76.6778 86.4665H22.2637C19.9011 86.4665 17.9859 84.5514 17.9859 82.1888Z" fill="white" stroke="#282D26" stroke-width="2.9"/>
<path d="M37.0217 68.7991L14.6692 46.4467L6.56884 54.547L28.9213 76.8995C29.1806 77.1588 29.5324 77.3045 29.8992 77.3045H31.1337L37.4267 71.0115V69.7769C37.4267 69.4104 37.281 69.0586 37.0217 68.7991Z" fill="#C1CB8F" stroke="#282D26" stroke-width="2.9" stroke-linejoin="round"/>
<path d="M37.4264 75.9213V69.7768C37.4264 69.6098 37.3947 69.4465 37.3373 69.293L29.415 77.2152C29.5686 77.2726 29.7319 77.3043 29.8989 77.3043H36.0434C36.8071 77.3043 37.4264 76.6852 37.4264 75.9213Z" fill="white" stroke="#282D26" stroke-width="2.9" stroke-linejoin="round"/>
<path d="M7.10094 42.9288L3.05077 46.979C1.9323 48.0975 1.9323 49.9107 3.05077 51.0292L7.10094 55.0793L15.2013 46.979L11.1511 42.9288C10.0327 41.8105 8.21941 41.8105 7.10094 42.9288Z" fill="#C1CB8F" stroke="#282D26" stroke-width="2.9"/>
<path d="M22.2634 9.17803H76.6776C79.0401 9.17803 80.9552 11.0932 80.9551 13.4555V20.5976H17.9857V13.4557C17.9857 11.0932 19.9008 9.17803 22.2634 9.17803Z" fill="#C1CB8F" stroke="#282D26" stroke-width="2.9"/>
<path d="M25.1274 10.5916C25.1274 12.1734 26.4096 13.4556 27.9913 13.4556C29.5731 13.4556 30.8553 12.1734 30.8553 10.5916V4.86394C30.8553 3.28218 29.5731 2 27.9913 2C26.4096 2 25.1274 3.28218 25.1274 4.86394V10.5916Z" fill="#C1CB8F" stroke="#282D26" stroke-width="2.9"/>
<path d="M68.0856 10.5916C68.0856 12.1734 69.3678 13.4556 70.9496 13.4556C72.5313 13.4556 73.8135 12.1734 73.8135 10.5916V4.86394C73.8135 3.28218 72.5313 2 70.9496 2C69.3678 2 68.0856 3.28218 68.0856 4.86394V10.5916Z" fill="#C1CB8F" stroke="#282D26" stroke-width="2.9"/>
<path d="M39.4466 10.5916C39.4466 12.1734 40.7287 13.4556 42.3105 13.4556C43.8923 13.4556 45.1744 12.1734 45.1744 10.5916V4.86394C45.1744 3.28218 43.8923 2 42.3105 2C40.7287 2 39.4466 3.28218 39.4466 4.86394V10.5916Z" fill="#C1CB8F" stroke="#282D26" stroke-width="2.9"/>
<path d="M53.7665 10.5916C53.7665 12.1734 55.0486 13.4556 56.6304 13.4556C58.2122 13.4556 59.4943 12.1734 59.4943 10.5916V4.86394C59.4943 3.28218 58.2122 2 56.6304 2C55.0486 2 53.7665 3.28218 53.7665 4.86394V10.5916Z" fill="#C1CB8F" stroke="#282D26" stroke-width="2.9"/>
<path d="M26.5593 31.9353H72.3815C73.0975 31.9353 73.678 31.3548 73.678 30.6388C73.678 29.9228 73.0975 29.3423 72.3815 29.3423H26.5593C25.8432 29.3423 25.2627 29.9228 25.2627 30.6388C25.2627 31.3548 25.8432 31.9353 26.5593 31.9353Z" fill="#282D26"/>
<path d="M26.5593 40.527H72.3815C73.0975 40.527 73.678 39.9465 73.678 39.2305C73.678 38.5145 73.0975 37.934 72.3815 37.934H26.5593C25.8432 37.934 25.2627 38.5145 25.2627 39.2305C25.2627 39.9465 25.8432 40.527 26.5593 40.527Z" fill="#282D26"/>
<path d="M26.5593 49.1188H72.3815C73.0975 49.1188 73.678 48.5383 73.678 47.8223C73.678 47.1063 73.0975 46.5258 72.3815 46.5258H26.5593C25.8432 46.5258 25.2627 47.1063 25.2627 47.8223C25.2627 48.5383 25.8432 49.1188 26.5593 49.1188Z" fill="#282D26"/>
<path d="M73.6782 65.0055C73.6782 64.2895 73.0977 63.709 72.3817 63.709H42.3109C41.5949 63.709 41.0144 64.2895 41.0144 65.0055C41.0144 65.7215 41.5949 66.302 42.3109 66.302H72.3817C73.0977 66.302 73.6782 65.7215 73.6782 65.0055Z" fill="#282D26"/>
</svg>
