<svg width="119" height="76" viewBox="0 0 119 76" fill="none" xmlns="http://www.w3.org/2000/svg">
<path d="M100.345 44.1908L93.2963 44.1977L92.7328 44.1983L92.3369 44.5615L70.3663 61.6724L70.3345 61.6972L70.304 61.7238L67.6863 64.0076L100.345 44.1908ZM100.345 44.1908L99.1612 34.5714L96.1529 10.1338L91.6247 10.6882L91.1521 10.7461L90.7373 10.5126L79.1652 4.00015C78.1876 3.45003 77.0656 3.21064 75.9484 3.31381C75.9484 3.31381 75.9483 3.31382 75.9483 3.31382L57.6764 5.00371L57.6764 5.00371C55.8974 5.16821 54.3078 6.18331 53.4103 7.7281L40.5317 29.8947L40.5317 29.8948C40.0309 30.7567 40.424 31.8623 41.3568 32.2146L41.8833 32.4134L41.8836 32.4135C42.7622 32.7453 43.6709 32.9397 44.5878 33.0161L48.0074 33.3008L45.4198 35.5545L43.7881 36.9756L43.7879 36.9757L40.5234 39.82L40.5177 39.825L40.5119 39.8299L31.2329 47.745C30.1894 48.6587 30.0814 50.2439 30.993 51.2918C30.993 51.2918 30.993 51.2918 30.993 51.2918C30.9934 51.2922 30.9937 51.2926 30.9941 51.2931L31.9349 52.3707L31.9355 52.3713C33.2578 53.8877 35.5608 54.0466 37.0824 52.7218L38.1753 51.7703L39.1275 52.8625L42.6763 56.9329L42.6769 56.9336C43.5016 57.8807 44.709 58.3013 45.8744 58.1579L45.8746 58.1579C46.571 58.0722 47.2501 57.7842 47.8204 57.2854L48.9142 56.3287L49.8685 57.4246L53.4129 61.4948C54.2409 62.4447 55.4478 62.8627 56.6147 62.7192L100.345 44.1908ZM59.5105 61.0209L60.464 61.845L62.3905 63.5099L62.4683 63.5772L62.5359 63.6548C63.8583 65.1734 66.1635 65.3324 67.6852 64.0086L59.5105 61.0209ZM59.5105 61.0209L58.5616 61.8503M59.5105 61.0209L58.5616 61.8503M58.5616 61.8503C57.9938 62.3466 57.3152 62.6328 56.6149 62.7191L58.5616 61.8503Z" fill="white" stroke="#282D26" stroke-width="2.9"/>
<path d="M94.2264 51.2721L94.2269 51.2726C95.2805 52.1801 95.3988 53.7689 94.4903 54.8233L93.5553 55.9064L93.5547 55.907C92.2408 57.4308 89.9387 57.6024 88.41 56.2861C87.8034 55.7638 86.8883 55.8319 86.3656 56.4381L82.8396 60.5282L82.839 60.5289C82.0196 61.4807 80.8145 61.9079 79.6485 61.7708L79.6482 61.7708C78.9513 61.689 78.2705 61.4046 77.6972 60.909C77.4059 60.6572 77.0264 60.5316 76.6424 60.5599C76.2584 60.5881 75.9014 60.768 75.6502 61.0598L72.1283 65.1495C72.1282 65.1497 72.128 65.1498 72.1279 65.15C72.1278 65.15 72.1278 65.15 72.1278 65.1501C71.3049 66.1043 70.1005 66.5288 68.9334 66.3916C68.2323 66.3092 67.5519 66.0266 66.9815 65.5335C66.6903 65.2817 66.3109 65.1561 65.927 65.1843C65.5431 65.2125 65.1861 65.3922 64.9348 65.6838L61.413 69.7704L61.4126 69.7709C60.0982 71.2973 57.7931 71.4687 56.2644 70.1524L53.6338 67.8829L53.6334 67.8825L29.4985 47.0788L29.4885 47.0696C29.2461 46.8496 28.9365 46.718 28.6099 46.6963L18.5723 46.0287L19.7164 36.291L18.2767 36.1218L19.7164 36.291L22.5972 11.7687L33.0953 12.4813C33.6736 12.5205 34.2197 12.2116 34.484 11.6957L37.2506 6.29536L37.2506 6.29532C38.0381 4.75798 39.7976 3.98551 41.4623 4.44617L41.4623 4.44618L63.4617 10.5335L63.8483 9.13601L63.4617 10.5335C66.0285 11.2437 67.6935 13.72 67.3827 16.3649L67.3827 16.3649L66.2171 26.2864C66.161 26.7646 66.3458 27.2395 66.7105 27.5538L76.8027 36.2532L76.8031 36.2536L79.1502 38.2749L79.1504 38.2751L82.4301 41.1008L82.4305 41.1012L94.2264 51.2721Z" fill="white" stroke="#282D26" stroke-width="2.9" stroke-linecap="round" stroke-linejoin="round"/>
<path d="M29.1162 48.117L27.717 49.9646C26.1934 51.9766 26.5891 54.8428 28.6011 56.3667C30.6131 57.8903 33.4793 57.4945 35.0032 55.4825L36.4024 53.6349C37.926 51.6229 37.5302 48.7567 35.5182 47.2328C33.5062 45.7092 30.6398 46.105 29.1162 48.117Z" fill="white" stroke="#282D26" stroke-width="2.9"/>
<path d="M37.6386 52.0032L35.0035 55.4827C33.4799 57.4947 33.8757 60.3609 35.8877 61.8848C37.8996 63.4084 40.7659 63.0126 42.2897 61.0006L44.9248 57.5211C46.4484 55.5092 46.0526 52.6429 44.0406 51.1191C42.0284 49.5955 39.1622 49.9912 37.6386 52.0032Z" fill="white" stroke="#282D26" stroke-width="2.9"/>
<path d="M45.8809 56.2586L42.2897 61.0006C40.7661 63.0126 41.1619 65.8788 43.1739 67.4027C45.1858 68.9263 48.0521 68.5305 49.5759 66.5185L53.1671 61.7765C54.6907 59.7645 54.2949 56.8983 52.283 55.3744C50.271 53.8508 47.4048 54.2466 45.8809 56.2586Z" fill="white" stroke="#282D26" stroke-width="2.9"/>
<path d="M53.3755 61.5011L49.5759 66.5182C48.0523 68.5302 48.4481 71.3964 50.4601 72.9203C52.472 74.4439 55.3383 74.0481 56.8621 72.0361L60.6617 67.019C62.1853 65.0071 61.7896 62.1408 59.7776 60.617C57.7654 59.0934 54.8991 59.4892 53.3755 61.5011Z" fill="white" stroke="#282D26" stroke-width="2.9"/>
<mask id="path-7-inside-1" fill="white">
<path d="M91.4485 9.24899L79.8763 2.73648C78.6419 2.0419 77.2253 1.73968 75.8149 1.86997L57.5428 3.55988C55.2967 3.76757 53.2896 5.0492 52.1564 6.9997L39.2778 29.1664C38.3268 30.8034 39.0733 32.9023 40.8443 33.5712L41.3711 33.7701C46.0918 35.553 51.4231 34.0358 54.4975 30.0346L59.4318 23.613C59.4318 23.613 71.2928 37.346 84.3516 21.3083"/>
</mask>
<path d="M91.4485 9.24899L79.8763 2.73648C78.6419 2.0419 77.2253 1.73968 75.8149 1.86997L57.5428 3.55988C55.2967 3.76757 53.2896 5.0492 52.1564 6.9997L39.2778 29.1664C38.3268 30.8034 39.0733 32.9023 40.8443 33.5712L41.3711 33.7701C46.0918 35.553 51.4231 34.0358 54.4975 30.0346L59.4318 23.613C59.4318 23.613 71.2928 37.346 84.3516 21.3083" fill="white"/>
<path d="M90.0262 11.7763C91.422 12.5618 93.1903 12.067 93.9758 10.6713C94.7613 9.2755 94.2665 7.50722 92.8708 6.72172L90.0262 11.7763ZM79.8763 2.73648L81.2986 0.209201L81.2984 0.20912L79.8763 2.73648ZM75.8149 1.86997L75.5481 -1.01774L75.5478 -1.01771L75.8149 1.86997ZM57.5428 3.55988L57.8098 6.44756L57.8099 6.44756L57.5428 3.55988ZM52.1564 6.9997L49.6489 5.54286L49.6489 5.54286L52.1564 6.9997ZM39.2778 29.1664L36.7703 27.7096L36.7703 27.7097L39.2778 29.1664ZM40.8443 33.5712L39.8197 36.2841L39.8201 36.2843L40.8443 33.5712ZM41.3711 33.7701L42.3958 31.0571L42.3953 31.0569L41.3711 33.7701ZM54.4975 30.0346L52.198 28.2677L52.198 28.2677L54.4975 30.0346ZM59.4318 23.613L61.6266 21.7174L59.3005 19.0242L57.1323 21.846L59.4318 23.613ZM86.6004 23.1394C87.6117 21.8974 87.4247 20.0708 86.1827 19.0595C84.9407 18.0482 83.1141 18.2353 82.1028 19.4772L86.6004 23.1394ZM92.8708 6.72172L81.2986 0.209201L78.454 5.26375L90.0262 11.7763L92.8708 6.72172ZM81.2984 0.20912C79.5507 -0.774323 77.545 -1.2022 75.5481 -1.01774L76.0816 4.75767C76.9057 4.68155 77.7331 4.85812 78.4542 5.26383L81.2984 0.20912ZM75.5478 -1.01771L57.2757 0.672202L57.8099 6.44756L76.0819 4.75765L75.5478 -1.01771ZM57.2758 0.672197C54.0954 0.96627 51.2535 2.78096 49.6489 5.54286L54.6639 8.45654C55.3257 7.31744 56.498 6.56886 57.8098 6.44756L57.2758 0.672197ZM49.6489 5.54286L36.7703 27.7096L41.7853 30.6232L54.6639 8.45653L49.6489 5.54286ZM36.7703 27.7097C34.9191 30.8962 36.3722 34.9821 39.8197 36.2841L41.8689 30.8582C41.7745 30.8225 41.7346 30.7106 41.7854 30.6231L36.7703 27.7097ZM39.8201 36.2843L40.3469 36.4832L42.3953 31.0569L41.8685 30.8581L39.8201 36.2843ZM40.3465 36.483C46.2626 38.7175 52.9441 36.816 56.7971 31.8016L52.198 28.2677C49.9022 31.2555 45.921 32.3886 42.3958 31.0571L40.3465 36.483ZM56.7971 31.8016L61.7314 25.3799L57.1323 21.846L52.198 28.2677L56.7971 31.8016ZM59.4318 23.613C57.2371 25.5085 57.2382 25.5098 57.2393 25.5111C57.2397 25.5116 57.2409 25.513 57.2418 25.514C57.2436 25.516 57.2455 25.5182 57.2477 25.5207C57.2519 25.5256 57.257 25.5314 57.2627 25.5379C57.2743 25.551 57.2888 25.5674 57.3063 25.587C57.3412 25.626 57.388 25.6775 57.4464 25.7401C57.5629 25.8652 57.726 26.0352 57.9331 26.2389C58.3462 26.6454 58.9402 27.1918 59.6944 27.7861C61.1878 28.9627 63.392 30.3921 66.1342 31.2442C68.9113 32.1071 72.2426 32.3749 75.8532 31.1897C79.4464 30.0102 83.0726 27.472 86.6004 23.1394L82.1028 19.4772C79.1012 23.1635 76.3477 24.9229 74.0442 25.679C71.7581 26.4295 69.6756 26.271 67.8552 25.7054C65.9998 25.1289 64.4225 24.1274 63.2839 23.2303C62.7221 22.7876 62.2874 22.3864 62.0009 22.1045C61.8581 21.9641 61.7536 21.8547 61.6901 21.7865C61.6583 21.7524 61.6369 21.7288 61.6262 21.7168C61.6209 21.7108 61.6182 21.7078 61.6182 21.7078C61.6182 21.7078 61.6189 21.7086 61.6203 21.7102C61.621 21.711 61.6219 21.712 61.6229 21.7132C61.6235 21.7138 61.6244 21.7149 61.6246 21.7152C61.6256 21.7163 61.6266 21.7174 59.4318 23.613Z" fill="#282D26" mask="url(#path-7-inside-1)"/>
<path d="M110.927 1.61628L98.2133 3.1812C98.2132 3.18121 98.2132 3.18121 98.2132 3.18121C96.3331 3.41279 94.9968 5.1243 95.2281 7.00446L110.927 1.61628ZM110.927 1.61628L116.625 47.9048L103.912 49.47C103.912 49.47 103.911 49.47 103.911 49.47C102.031 49.7013 100.32 48.365 100.088 46.4849C100.088 46.4849 100.088 46.4848 100.088 46.4848L95.2281 7.00453L110.927 1.61628Z" fill="#C1CB8F" stroke="#282D26" stroke-width="2.9" stroke-linejoin="round"/>
<path d="M1.6163 48.0622L7.31454 1.77341L20.0285 3.33855C20.0285 3.33856 20.0285 3.33856 20.0285 3.33856C21.9086 3.57012 23.2449 5.28164 23.0136 7.16181C23.0136 7.16183 23.0136 7.16186 23.0136 7.16188L18.1535 46.6422C17.922 48.5223 16.2105 49.8586 14.3303 49.6273C14.3302 49.6273 14.3302 49.6273 14.3302 49.6273L1.6163 48.0622Z" fill="#C1CB8F" stroke="#282D26" stroke-width="2.9"/>
</svg>
