<?xml version="1.0" standalone="no"?>
<!DOCTYPE svg PUBLIC "-//W3C//DTD SVG 20010904//EN"
 "http://www.w3.org/TR/2001/REC-SVG-20010904/DTD/svg10.dtd">
<svg version="1.0" xmlns="http://www.w3.org/2000/svg"
 width="700.000000pt" height="700.000000pt" viewBox="0 0 700.000000 700.000000"
 preserveAspectRatio="xMidYMid meet">
<metadata>
Created by potrace 1.11, written by Peter Selinger 2001-2013
</metadata>
<g transform="translate(0.000000,700.000000) scale(0.100000,-0.100000)"
fill="#000000" stroke="none">
<path d="M3184 6984 c-57 -20 -114 -72 -149 -135 l-30 -54 0 -3100 0 -3100 28
-57 c34 -69 95 -124 156 -142 38 -11 50 -21 70 -57 37 -66 128 -139 175 -139
9 0 23 -12 32 -27 49 -80 68 -101 120 -133 49 -29 67 -35 123 -36 119 -3 207
50 258 154 l28 57 0 3100 0 3100 -30 54 c-37 66 -93 115 -157 137 -35 11 -52
23 -59 41 -24 65 -107 133 -190 157 -10 2 -29 27 -45 55 -28 52 -62 84 -124
116 -45 23 -152 28 -206 9z"/>
<path d="M1675 5750 c-68 -26 -129 -89 -155 -157 -20 -54 -20 -66 -18 -1921
l3 -1867 31 -55 c36 -64 99 -116 159 -132 36 -10 45 -18 64 -57 27 -55 85
-105 150 -128 37 -13 51 -24 65 -55 55 -113 188 -173 316 -143 82 18 176 113
196 197 4 12 7 851 8 1862 1 1474 -2 1850 -12 1890 -23 92 -93 166 -184 195
-27 9 -42 22 -54 47 -33 69 -108 129 -185 147 -18 5 -29 16 -33 33 -4 14 -27
48 -52 75 -79 84 -192 110 -299 69z"/>
<path d="M4701 5759 c-77 -23 -144 -87 -178 -170 -16 -41 -17 -154 -17 -1904
l0 -1860 23 -50 c35 -78 108 -144 176 -159 23 -5 36 -18 54 -51 32 -61 89
-110 151 -132 41 -14 56 -26 70 -54 70 -136 232 -191 365 -123 61 30 93 63
128 128 l22 41 2 1871 3 1871 -21 51 c-28 68 -89 126 -159 154 -48 18 -61 29
-80 66 -30 56 -90 107 -149 127 -38 12 -50 23 -70 61 -59 110 -198 168 -320
133z"/>
<path d="M220 4539 c-91 -18 -183 -103 -209 -193 -5 -17 -9 -310 -8 -671 l2
-640 24 -45 c32 -62 93 -116 153 -137 36 -13 54 -26 65 -48 31 -60 76 -106
127 -130 29 -14 60 -25 68 -25 9 0 21 -14 27 -31 19 -54 69 -106 134 -139 51
-25 72 -30 121 -29 110 4 206 70 251 174 17 37 18 91 19 674 1 598 0 636 -18
684 -26 69 -97 139 -164 161 -44 15 -56 24 -73 59 -29 57 -95 115 -153 135
-33 12 -52 25 -59 42 -49 113 -183 183 -307 159z"/>
<path d="M6223 4540 c-83 -18 -146 -70 -191 -155 l-26 -50 0 -635 c0 -502 3
-643 13 -675 28 -83 112 -164 188 -180 25 -5 38 -18 63 -61 33 -59 92 -108
152 -126 30 -9 44 -21 68 -64 72 -127 223 -173 357 -108 56 27 91 63 126 128
22 41 22 43 24 666 2 436 0 637 -8 665 -23 81 -104 164 -182 186 -23 6 -37 17
-41 32 -18 74 -116 167 -190 181 -26 5 -37 14 -50 44 -51 111 -184 178 -303
152z"/>
</g>
</svg>
