<svg width="59" height="59" viewBox="0 0 59 59" fill="none" xmlns="http://www.w3.org/2000/svg">
<path d="M29.4971 58.9941C45.7878 58.9941 58.9941 45.7878 58.9941 29.4971C58.9941 13.2063 45.7878 0 29.4971 0C13.2063 0 0 13.2063 0 29.4971C0 45.7878 13.2063 58.9941 29.4971 58.9941Z" fill="#DB553F"/>
<path d="M29.1046 43.8177L17.1581 31.8653L12.8672 36.1562L29.1046 52.3936L29.4915 52.0126L33.3956 48.1086L35.4355 46.0686L35.4472 46.0862L39.7381 41.7953L39.7264 41.7777L41.825 39.6792L45.729 35.7693L46.1159 35.3883L29.8726 19.1449L25.5816 23.4359L37.534 35.3883L35.5058 37.4165L21.5252 23.43L29.896 15.0592L41.8425 27.0116L46.1335 22.7207L29.9663 6.54773L29.5091 6.85841L25.6051 10.7683L17.1757 19.1977L13.2717 23.1017L12.8848 23.4828L31.2208 41.7015L29.1046 43.8177Z" fill="white"/>
</svg>
