<svg width="60" height="60" viewBox="0 0 60 60" fill="none" xmlns="http://www.w3.org/2000/svg">
<g clip-path="url(#clip0)">
<path d="M39.5528 58.4379C39.2404 58.5434 38.9259 58.6459 38.6094 58.74C38.927 58.6448 39.2404 58.5424 39.5528 58.4379Z" fill="#F9EDE0"/>
<path d="M41.1205 57.8628C40.7832 57.9972 40.446 58.1297 40.1025 58.2517C40.446 58.1286 40.7843 57.9972 41.1205 57.8628Z" fill="#F9EDE0"/>
<path d="M30 60C46.5685 60 60 46.5685 60 30C60 13.4315 46.5685 0 30 0C13.4315 0 0 13.4315 0 30C0 46.5685 13.4315 60 30 60Z" fill="#0A0A0A"/>
<path d="M38.004 58.9117C37.6978 58.9966 37.3895 59.0773 37.0781 59.1528C37.3895 59.0773 37.6978 58.9966 38.004 58.9117Z" fill="#F9EDE0"/>
<path d="M27.8268 59.9131C27.4606 59.8872 27.0954 59.8593 26.7344 59.82C27.0964 59.8593 27.4616 59.8872 27.8268 59.9131Z" fill="#F9EDE0"/>
<path d="M22.921 59.1517C22.6106 59.0762 22.3024 58.9955 21.9951 58.9107C22.3024 58.9966 22.6106 59.0773 22.921 59.1517Z" fill="#F9EDE0"/>
<path d="M26.1134 59.7414C25.7855 59.699 25.4586 59.6545 25.1338 59.6017C25.4576 59.6545 25.7855 59.698 26.1134 59.7414Z" fill="#F9EDE0"/>
<path d="M30.0003 60C29.4479 60 28.9006 59.9824 28.3555 59.9535C28.9006 59.9824 29.4479 60 30.0003 60Z" fill="#F9EDE0"/>
<path d="M24.4939 59.4869C24.1795 59.429 23.866 59.3669 23.5557 59.2986C23.866 59.3669 24.1795 59.429 24.4939 59.4869Z" fill="#F9EDE0"/>
<path d="M18.4397 57.6887C17.9731 57.4932 17.5118 57.2883 17.0576 57.0711C17.5128 57.2883 17.9742 57.4942 18.4397 57.6887Z" fill="#F9EDE0"/>
<path d="M19.8978 58.2517C19.5554 58.1286 19.2171 57.9972 18.8799 57.8628C19.2171 57.9972 19.5554 58.1286 19.8978 58.2517Z" fill="#F9EDE0"/>
<path d="M31.6448 59.9535C31.0997 59.9824 30.5524 60 30 60C30.5524 60 31.0997 59.9824 31.6448 59.9535Z" fill="#F9EDE0"/>
<path d="M33.2653 59.82C32.9032 59.8593 32.538 59.8872 32.1729 59.9131C32.538 59.8872 32.9032 59.8593 33.2653 59.82Z" fill="#F9EDE0"/>
<path d="M36.4461 59.2986C36.1347 59.3669 35.8223 59.429 35.5078 59.4869C35.8213 59.429 36.1347 59.3669 36.4461 59.2986Z" fill="#F9EDE0"/>
<path d="M34.8674 59.6007C34.5425 59.6535 34.2156 59.698 33.8877 59.7404C34.2146 59.698 34.5425 59.6545 34.8674 59.6007Z" fill="#F9EDE0"/>
<path d="M42.9354 57.0735C42.4834 57.2897 42.0241 57.4945 41.5596 57.689C42.0241 57.4945 42.4834 57.2907 42.9354 57.0735Z" fill="#F9EDE0"/>
<path d="M21.3907 58.74C21.0731 58.6448 20.7597 58.5424 20.4473 58.4379C20.7597 58.5424 21.0731 58.6448 21.3907 58.74Z" fill="#F9EDE0"/>
<path d="M41.5597 57.689C41.4149 57.75 41.267 57.8038 41.1211 57.8617C41.2659 57.8038 41.4139 57.75 41.5597 57.689Z" fill="#F9EDE0"/>
<path d="M42.9762 57.0548C42.963 57.0609 42.9488 57.0671 42.9355 57.0732C42.9488 57.0671 42.963 57.062 42.9762 57.0548Z" fill="#F9EDE0"/>
<path d="M23.554 59.2986C23.3419 59.2521 23.1309 59.2035 22.9209 59.1528C23.1309 59.2035 23.3419 59.2521 23.554 59.2986Z" fill="#F9EDE0"/>
<path d="M25.1325 59.6007C24.9184 59.5656 24.7053 59.5262 24.4922 59.4869C24.7063 59.5262 24.9184 59.5666 25.1325 59.6007Z" fill="#F9EDE0"/>
<path d="M28.3548 59.9535C28.1779 59.9442 28.002 59.9255 27.8262 59.9131C28.0031 59.9255 28.1779 59.9442 28.3548 59.9535Z" fill="#F9EDE0"/>
<path d="M26.734 59.82C26.526 59.7973 26.3202 59.7683 26.1133 59.7414C26.3202 59.7683 26.526 59.7973 26.734 59.82Z" fill="#F9EDE0"/>
<path d="M17.059 57.071C17.0478 57.0659 17.0356 57.0608 17.0244 57.0557C17.0356 57.0608 17.0478 57.0659 17.059 57.071Z" fill="#F9EDE0"/>
<path d="M32.1732 59.9131C31.9963 59.9255 31.8214 59.9442 31.6445 59.9535C31.8214 59.9442 31.9963 59.9255 32.1732 59.9131Z" fill="#F9EDE0"/>
<path d="M38.6091 58.7401C38.4084 58.8001 38.2067 58.8559 38.0039 58.9118C38.2067 58.8559 38.4084 58.8001 38.6091 58.7401Z" fill="#F9EDE0"/>
<path d="M40.103 58.2518C39.9209 58.3169 39.7368 58.3759 39.5537 58.438C39.7368 58.3759 39.9209 58.3169 40.103 58.2518Z" fill="#F9EDE0"/>
<path d="M18.88 57.8628C18.7342 57.8048 18.5862 57.75 18.4414 57.69C18.5862 57.75 18.7342 57.8038 18.88 57.8628Z" fill="#F9EDE0"/>
<path d="M20.4478 58.438C20.2646 58.3759 20.0795 58.3169 19.8984 58.2518C20.0795 58.3169 20.2636 58.3759 20.4478 58.438Z" fill="#F9EDE0"/>
<path d="M33.8863 59.7414C33.6794 59.7683 33.4736 59.7983 33.2656 59.82C33.4736 59.7973 33.6794 59.7683 33.8863 59.7414Z" fill="#F9EDE0"/>
<path d="M37.0784 59.1517C36.8684 59.2024 36.6574 59.251 36.4453 59.2976C36.6574 59.2521 36.8684 59.2035 37.0784 59.1517Z" fill="#F9EDE0"/>
<path d="M35.5066 59.4869C35.2935 59.5262 35.0814 59.5666 34.8662 59.6007C35.0814 59.5666 35.2935 59.5262 35.5066 59.4869Z" fill="#F9EDE0"/>
<path d="M21.9968 58.9118C21.7951 58.8559 21.5923 58.8001 21.3916 58.7401C21.5923 58.8001 21.794 58.8559 21.9968 58.9118Z" fill="#F9EDE0"/>
<path d="M36.8674 32.0627C40.2098 29.8376 42.4143 26.04 42.4143 21.7241C42.4143 14.8686 36.856 9.31033 30.0005 9.31033C23.145 9.31033 17.5867 14.8686 17.5867 21.7241C17.5867 26.04 19.7912 29.8376 23.1336 32.0627C23.1336 32.0627 23.1346 32.0638 23.1357 32.0638C23.1346 32.0638 23.1346 32.0627 23.1346 32.0627C15.134 34.4741 8.9043 40.9676 6.89844 49.1369L6.89947 49.1379C7.22637 49.5321 7.56568 49.9169 7.91223 50.2945C7.99602 50.3865 8.08395 50.4745 8.16982 50.5645C8.43671 50.8479 8.70671 51.1272 8.98395 51.4003C9.09878 51.5131 9.21568 51.6217 9.33258 51.7324C9.58913 51.9765 9.84878 52.2176 10.1136 52.4524C10.245 52.5683 10.3784 52.6831 10.5109 52.7969C10.7705 53.0193 11.0333 53.2376 11.3012 53.4507C11.4419 53.5634 11.5836 53.6741 11.7253 53.7848C11.9964 53.9938 12.2715 54.1965 12.5498 54.3952C12.6936 54.4976 12.8353 54.6021 12.9812 54.7024C13.275 54.9052 13.574 55.0996 13.875 55.2921C14.0105 55.3779 14.1429 55.4669 14.2795 55.5517C14.6271 55.7659 14.9809 55.9707 15.3377 56.1714C15.4319 56.2241 15.524 56.281 15.6191 56.3327C16.0805 56.5852 16.5491 56.8272 17.025 57.0558C17.0364 57.061 17.0488 57.0662 17.0602 57.0714C17.5143 57.2886 17.9757 57.4945 18.4422 57.6889C18.5871 57.75 18.735 57.8038 18.8808 57.8617C19.2181 57.9962 19.5553 58.1286 19.8988 58.2507C20.0809 58.3158 20.265 58.3748 20.4481 58.4369C20.7605 58.5424 21.075 58.6448 21.3915 58.7389C21.5922 58.799 21.794 58.8548 21.9967 58.9107C22.3029 58.9955 22.6112 59.0762 22.9226 59.1517C23.1326 59.2024 23.3436 59.251 23.5557 59.2976C23.8671 59.3658 24.1795 59.4279 24.494 59.4858C24.7071 59.5252 24.9191 59.5655 25.1343 59.5996C25.4591 59.6524 25.786 59.6969 26.114 59.7393C26.3209 59.7662 26.5267 59.7962 26.7346 59.8179C27.0967 59.8572 27.4619 59.8852 27.8271 59.911C28.004 59.9234 28.1788 59.9421 28.3557 59.9514C28.9009 59.9824 29.4481 60 30.0005 60C30.5529 60 31.1002 59.9824 31.6453 59.9534C31.8222 59.9441 31.9981 59.9255 32.174 59.9131C32.5402 59.8872 32.9053 59.8593 33.2664 59.82C33.4743 59.7972 33.6802 59.7683 33.8871 59.7414C34.215 59.699 34.5419 59.6545 34.8667 59.6017C35.0808 59.5665 35.294 59.5272 35.5071 59.4879C35.8215 59.43 36.135 59.3679 36.4453 59.2996C36.6574 59.2531 36.8684 59.2045 37.0784 59.1538C37.3888 59.0783 37.6971 58.9976 38.0043 58.9127C38.206 58.8569 38.4088 58.801 38.6095 58.741C38.9271 58.6459 39.2405 58.5434 39.5529 58.439C39.736 58.3769 39.9212 58.3179 40.1022 58.2527C40.4446 58.1296 40.7829 57.9983 41.1202 57.8638C41.266 57.8059 41.414 57.751 41.5588 57.691C42.0233 57.4965 42.4826 57.2927 42.9346 57.0755C42.9481 57.0693 42.9626 57.0631 42.976 57.0569C43.4519 56.8283 43.9205 56.5862 44.3819 56.3338C44.4771 56.2821 44.5691 56.2252 44.6633 56.1724C45.0202 55.9717 45.374 55.7669 45.7215 55.5527C45.8581 55.469 45.9915 55.38 46.126 55.2931C46.4271 55.1007 46.726 54.9052 47.0198 54.7034C47.1646 54.6031 47.3074 54.4996 47.4512 54.3962C47.7295 54.1965 48.0046 53.9938 48.2757 53.7859C48.4184 53.6762 48.5591 53.5645 48.6998 53.4517C48.9667 53.2386 49.2305 53.0203 49.4902 52.7979C49.6236 52.6841 49.7571 52.5693 49.8874 52.4534C50.1522 52.2186 50.4119 51.9776 50.6684 51.7334C50.7843 51.6227 50.9022 51.5131 51.0171 51.4014C51.2943 51.1283 51.5653 50.849 51.8312 50.5655C51.916 50.4745 52.004 50.3865 52.0888 50.2955C52.4353 49.9179 52.7746 49.5331 53.1015 49.139L53.1026 49.1379C51.0977 40.9676 44.8681 34.4741 36.8674 32.0627Z" fill="white"/>
</g>
<defs>
<clipPath id="clip0">
<rect width="60" height="60" fill="white"/>
</clipPath>
</defs>
</svg>
