<svg xmlns="http://www.w3.org/2000/svg" width="30.762" height="21.504" viewBox="0 0 30.762 21.504">
  <g id="Сгруппировать_3" data-name="Сгруппировать 3" transform="translate(0 0)">
    <g id="Сгруппировать_2" data-name="Сгруппировать 2">
      <path id="Контур_6" data-name="Контур 6" d="M30.677,87.307c-.159-.753-.974-1.359-2.449-1.806a17.259,17.259,0,0,0-4.507-.631L23.556,77.9c-.227-.686-1.041-1.243-2.419-1.659a18.184,18.184,0,0,0-5.064-.643,17.7,17.7,0,0,0-5.015.643c-1.108.343-2.437.98-2.437,2.076a1.127,1.127,0,0,0,.018.2l.067,2.792A7.331,7.331,0,1,0,11.946,94.2a18.284,18.284,0,0,0,3.937.429c.312,1.7,3.992,2.474,7.421,2.474a17.788,17.788,0,0,0,5.021-.649c1.121-.343,2.437-.986,2.437-2.082ZM11.4,77.419a16.586,16.586,0,0,1,4.66-.594,17.159,17.159,0,0,1,4.715.594c1.335.4,1.623.82,1.623.906s-.288.5-1.623.906a17.317,17.317,0,0,1-4.709.594,16.812,16.812,0,0,1-4.513-.551c-1.316-.38-1.69-.8-1.721-.937,0-.006-.006-.012-.012-.018C9.821,78.19,10.232,77.78,11.4,77.419Zm11.1,2.419v1.531a.62.62,0,0,0-.1.343c0,.08-.288.5-1.616.906a17.081,17.081,0,0,1-4.709.594,17.518,17.518,0,0,1-4.17-.459c-.018-.006-.037-.006-.049-.012a7.031,7.031,0,0,0-1.91-1.084L9.9,79.929a6.784,6.784,0,0,0,1.323.508,18.1,18.1,0,0,0,4.856.594,18.107,18.107,0,0,0,5.058-.643A6.032,6.032,0,0,0,22.5,79.837ZM11.432,93.026A6.1,6.1,0,1,1,7.323,82.409a6.236,6.236,0,0,1,1.806.269A5.961,5.961,0,0,1,11.3,83.885a6.1,6.1,0,0,1,2.008,3.4,6.4,6.4,0,0,1,.122,1.231A6.057,6.057,0,0,1,11.432,93.026Zm1.555.135a7.393,7.393,0,0,0,1.176-2.014c.527.043,1.078.073,1.647.08a.63.63,0,0,0,0,.214l.024,1.972A18.631,18.631,0,0,1,12.987,93.161Zm1.635-5.376c.361.024.735.037,1.121.043a.979.979,0,0,0,.031.129L15.8,90c-.441-.006-.876-.024-1.286-.055a7.527,7.527,0,0,0,.141-1.433C14.653,88.269,14.64,88.03,14.622,87.785Zm1.494-1.176h-.049c-.594,0-1.157-.024-1.684-.067a7.374,7.374,0,0,0-1.09-2.278,22.127,22.127,0,0,0,2.774.178,18.107,18.107,0,0,0,5.058-.643,6.482,6.482,0,0,0,1.365-.563V84.87a17.345,17.345,0,0,0-4.115.563A4.773,4.773,0,0,0,16.116,86.609Zm.845.912c.1-.19.563-.563,1.757-.894a16.959,16.959,0,0,1,4.4-.52h.049a17.082,17.082,0,0,1,4.709.582c1.286.392,1.6.784,1.616.888v.006c-.006.092-.306.514-1.665.918a17.056,17.056,0,0,1-4.66.576,17.5,17.5,0,0,1-4.384-.508,3.414,3.414,0,0,1-1.794-.882A.525.525,0,0,0,16.961,87.522Zm12.577,6.846c0,.086-.269.508-1.574.912a16.454,16.454,0,0,1-4.666.6,16.693,16.693,0,0,1-4.647-.582c-1.17-.361-1.561-.765-1.561-.9v-.012l-.006-.374-.018-1.384a7.566,7.566,0,0,0,1.525.551,18.741,18.741,0,0,0,4.58.52,17.97,17.97,0,0,0,5.039-.643,5.481,5.481,0,0,0,1.329-.557Zm-.08-3.392c0,.086-.282.5-1.6.906a16.91,16.91,0,0,1-4.7.588c-3.331,0-5.6-.741-6.123-1.329l-.024-1.935a14.743,14.743,0,0,0,6.154,1.1,18.281,18.281,0,0,0,5-.625,6.7,6.7,0,0,0,1.378-.557v1.531h0C29.538,90.742,29.458,90.853,29.458,90.975Z" transform="translate(0 -75.6)" fill="#fff"/>
    </g>
  </g>
</svg>
