<svg xmlns="http://www.w3.org/2000/svg" width="11.249" height="14.789" viewBox="0 0 11.249 14.789">
  <g id="male" transform="translate(-41.895)">
    <path id="Контур_8" data-name="Контур 8" d="M107.512,7.233c1.644,0,2.977-1.619,2.977-3.616S110.052,0,107.512,0s-2.977,1.619-2.977,3.616S105.868,7.233,107.512,7.233Z" transform="translate(-59.993)" fill="#8f99a5"/>
    <path id="Контур_9" data-name="Контур 9" d="M41.9,300.434c0-.122,0-.034,0,0Z" transform="translate(0 -287.68)" fill="#8f99a5"/>
    <path id="Контур_10" data-name="Контур 10" d="M308.085,301.6c0-.033,0-.231,0,0Z" transform="translate(-254.942 -288.747)" fill="#8f99a5"/>
    <path id="Контур_11" data-name="Контур 11" d="M53.149,182.838c-.055-3.479-.51-4.471-3.987-5.1a2.443,2.443,0,0,1-3.261,0c-3.439.621-3.921,1.6-3.985,4.985-.005.277-.008.291-.009.259,0,.06,0,.171,0,.366,0,0,.828,1.669,5.623,1.669s5.623-1.669,5.623-1.669c0-.125,0-.211,0-.27A2.234,2.234,0,0,1,53.149,182.838Z" transform="translate(-0.012 -170.23)" fill="#8f99a5"/>
  </g>
</svg>
