<svg width="274" height="151" viewBox="0 0 274 151" fill="none" xmlns="http://www.w3.org/2000/svg">
<rect x="1.45" y="1.45" width="270.545" height="147.398" rx="18.55" fill="#C1CB8F" stroke="#282D26" stroke-width="2.9"/>
<path d="M19.8767 97.7398C37.8776 88.1102 37.8813 62.1904 19.8773 52.5586C16.2932 50.6391 14.0557 46.8769 14.0557 42.7136L14.0557 25.2727C14.0557 19.0737 19.065 14.0557 25.2352 14.0557L60.7535 14.0557C61.6923 14.0557 62.4609 14.8204 62.4609 15.7725V25.6421C62.4609 28.289 64.6881 30.4236 67.3727 30.249L67.3728 30.249C69.8815 30.0857 71.6756 27.9145 71.6756 25.5336V15.7725C71.6756 14.8204 72.4442 14.0557 73.383 14.0557L248.21 14.0557C254.38 14.0557 259.39 19.0737 259.39 25.2727V125.025C259.39 131.224 254.38 136.242 248.21 136.242L73.3838 136.242C72.445 136.242 71.6764 135.478 71.6764 134.526V124.654C71.6764 122.008 69.4492 119.873 66.7646 120.048L66.7645 120.048C64.2558 120.211 62.4617 122.382 62.4617 124.763V134.526C62.4617 135.478 61.6931 136.242 60.7543 136.242H25.2352C19.065 136.242 14.0557 131.224 14.0557 125.025L14.0557 107.585C14.0557 103.421 16.293 99.6595 19.8767 97.7398ZM19.8767 97.7398L19.1928 96.4613M19.8767 97.7398C19.8769 97.7397 19.8771 97.7396 19.8773 97.7395L19.1928 96.4613M19.1928 96.4613C36.1727 87.3779 36.1758 62.9218 19.1928 53.8368L66.8587 121.494C65.1805 121.604 63.9117 123.076 63.9117 124.763V134.526C63.9117 136.274 62.498 137.692 60.7543 137.692H25.2352C18.2602 137.692 12.6057 132.021 12.6057 125.025L12.6057 107.585C12.6057 102.898 15.1277 98.6384 19.1928 96.4613ZM67.0702 105.343C69.6187 105.343 71.6776 103.272 71.6776 100.727V88.3299C71.6776 85.7843 69.6187 83.7131 67.0702 83.7131C64.5217 83.7131 62.4629 85.7843 62.4629 88.3299V100.727C62.4629 103.272 64.5217 105.343 67.0702 105.343ZM67.0702 66.585C69.6187 66.585 71.6776 64.5138 71.6776 61.9683V49.5716C71.6776 47.026 69.6187 44.9549 67.0702 44.9549C64.5217 44.9549 62.4629 47.026 62.4629 49.5716V61.9683C62.4629 64.5138 64.5217 66.585 67.0702 66.585Z" fill="white" stroke="#282D26" stroke-width="2.9"/>
<path d="M109.662 39.3492V41.8722H114.244V59.6492H117.115V39.3492H109.662ZM137.347 59.8232C140.102 59.8232 142.393 58.6632 143.611 56.5172L141.494 55.1832C140.508 56.6912 139 57.3872 137.318 57.3872C134.302 57.3872 132.04 55.2992 132.04 51.9642C132.04 48.6872 134.302 46.5702 137.318 46.5702C139 46.5702 140.508 47.2662 141.494 48.7742L143.611 47.4112C142.393 45.2652 140.102 44.1342 137.347 44.1342C132.62 44.1342 129.227 47.3822 129.227 51.9642C129.227 56.5462 132.62 59.8232 137.347 59.8232ZM160.88 52.0512C160.88 47.3242 157.719 44.1342 153.282 44.1342C148.845 44.1342 145.568 47.4112 145.568 51.9642C145.568 56.5462 148.874 59.8232 153.833 59.8232C156.385 59.8232 158.502 58.9532 159.894 57.3292L158.357 55.5312C157.226 56.7782 155.718 57.3872 153.92 57.3872C150.875 57.3872 148.7 55.5892 148.352 52.8922L160.822 52.8922C160.851 52.6312 160.88 52.2832 160.88 52.0512ZM153.282 46.4832C155.979 46.4832 157.922 48.3102 158.212 50.8912L148.352 50.8912C148.642 48.2812 150.614 46.4832 153.282 46.4832ZM170.255 44.1342C167.79 44.1342 165.499 44.8302 163.904 46.1062L165.064 48.1942C166.253 47.1792 168.109 46.5412 169.936 46.5412C172.691 46.5412 174.054 47.9042 174.054 50.2532V50.8042H169.646C165.064 50.8042 163.469 52.8342 163.469 55.2992C163.469 57.9672 165.673 59.8232 169.153 59.8232C171.56 59.8232 173.271 59.0112 174.199 57.6192V59.6492H176.838V50.3692C176.838 46.1642 174.46 44.1342 170.255 44.1342ZM169.617 57.6772C167.5 57.6772 166.224 56.7202 166.224 55.1832C166.224 53.8782 167.007 52.8052 169.762 52.8052H174.054V54.9512C173.358 56.7202 171.705 57.6772 169.617 57.6772ZM181.852 59.6492H184.636V53.2112H193.394V59.6492H196.178V44.2792H193.394V50.8042H184.636V44.2792H181.852V59.6492ZM208.29 59.8232C211.045 59.8232 213.336 58.6632 214.554 56.5172L212.437 55.1832C211.451 56.6912 209.943 57.3872 208.261 57.3872C205.245 57.3872 202.983 55.2992 202.983 51.9642C202.983 48.6872 205.245 46.5702 208.261 46.5702C209.943 46.5702 211.451 47.2662 212.437 48.7742L214.554 47.4112C213.336 45.2652 211.045 44.1342 208.29 44.1342C203.563 44.1342 200.17 47.3822 200.17 51.9642C200.17 56.5462 203.563 59.8232 208.29 59.8232Z" fill="#282D26"/>
<path d="M106.948 94.9524L115 85.0084V82.0164H94.6719V85.8444H109.5L101.756 95.3484V98.4284H104.22C109.5 98.4284 111.832 100.54 111.832 103.796C111.832 107.14 109.192 109.252 104.572 109.252C100.788 109.252 97.3559 107.888 95.2879 105.952L93.2639 109.428C95.8599 111.76 100.172 113.168 104.572 113.168C112.404 113.168 116.232 108.944 116.232 103.752C116.232 99.0004 113.108 95.5244 106.948 94.9524ZM132.92 113.168C140.092 113.168 145.46 107.448 145.46 97.4164C145.46 87.3844 140.092 81.6644 132.92 81.6644C125.704 81.6644 120.336 87.3844 120.336 97.4164C120.336 107.448 125.704 113.168 132.92 113.168ZM132.92 109.252C128.08 109.252 124.736 105.292 124.736 97.4164C124.736 89.5404 128.08 85.5804 132.92 85.5804C137.716 85.5804 141.06 89.5404 141.06 97.4164C141.06 105.292 137.716 109.252 132.92 109.252ZM162.267 113.168C169.439 113.168 174.807 107.448 174.807 97.4164C174.807 87.3844 169.439 81.6644 162.267 81.6644C155.051 81.6644 149.683 87.3844 149.683 97.4164C149.683 107.448 155.051 113.168 162.267 113.168ZM162.267 109.252C157.427 109.252 154.083 105.292 154.083 97.4164C154.083 89.5404 157.427 85.5804 162.267 85.5804C167.063 85.5804 170.407 89.5404 170.407 97.4164C170.407 105.292 167.063 109.252 162.267 109.252ZM191.615 113.168C198.787 113.168 204.155 107.448 204.155 97.4164C204.155 87.3844 198.787 81.6644 191.615 81.6644C184.399 81.6644 179.031 87.3844 179.031 97.4164C179.031 107.448 184.399 113.168 191.615 113.168ZM191.615 109.252C186.775 109.252 183.431 105.292 183.431 97.4164C183.431 89.5404 186.775 85.5804 191.615 85.5804C196.411 85.5804 199.755 89.5404 199.755 97.4164C199.755 105.292 196.411 109.252 191.615 109.252Z" fill="#282D26"/>
<path d="M214.772 82.1798V97.9368H211.621V101.088H214.772V104.24H211.621V107.391H214.772V113.694H217.924V107.391H225.802V104.24H217.924V101.088H227.378C232.578 101.088 236.832 96.8338 236.832 91.634C236.832 86.4342 232.578 82.1798 227.378 82.1798H214.772ZM217.924 85.3312H227.378C230.875 85.3312 233.681 88.1375 233.681 91.634C233.681 95.1305 230.875 97.9368 227.378 97.9368H217.924V85.3312Z" fill="#282D26"/>
</svg>
