<svg width="275" height="152" viewBox="0 0 275 152" fill="none" xmlns="http://www.w3.org/2000/svg">
<g clip-path="url(#clip0)">
<path d="M254.288 1.61041H20.8428C10.598 1.61041 2.29285 9.91553 2.29285 20.1604V130.458C2.29285 140.703 10.598 149.008 20.8428 149.008H254.288C264.533 149.008 272.838 140.703 272.838 130.458V20.1604C272.838 9.91553 264.533 1.61041 254.288 1.61041Z" fill="#C1CB8F" stroke="#282D26" stroke-width="2.9"/>
<path fill-rule="evenodd" clip-rule="evenodd" d="M20.7202 52.719C38.7242 62.3508 38.7205 88.2706 20.7196 97.9002C17.1358 99.8199 14.8986 103.581 14.8986 107.745V125.185C14.8986 131.384 19.9079 136.402 26.078 136.402H61.5972C62.536 136.402 63.3045 135.638 63.3045 134.686V124.923C63.3045 122.542 65.0988 120.371 67.6075 120.208C70.2921 120.033 72.5193 122.168 72.5193 124.814V134.686C72.5193 135.638 73.2878 136.402 74.2266 136.402H249.053C255.223 136.402 260.233 131.384 260.233 125.185V25.4331C260.233 19.2341 255.223 14.2161 249.053 14.2161H74.2258C73.2871 14.2161 72.5185 14.9808 72.5185 15.9329V25.694C72.5185 28.0749 70.7242 30.2461 68.2155 30.4094C65.5309 30.584 63.3037 28.4494 63.3037 25.8025V15.9329C63.3037 14.9808 62.5352 14.2161 61.5964 14.2161H26.078C19.9079 14.2161 14.8986 19.2341 14.8986 25.4331V42.874C14.8986 47.0373 17.1361 50.7995 20.7202 52.719ZM62.5395 48.919C62.5395 45.9506 64.9458 43.5443 67.9142 43.5443C70.8826 43.5443 73.2889 45.9506 73.2889 48.919V62.9033C73.2889 65.8716 70.8826 68.278 67.9142 68.278C64.9458 68.278 62.5395 65.8716 62.5395 62.9033V48.919ZM67.9141 82.2833C64.9457 82.2833 62.5394 84.6896 62.5394 87.658V101.642C62.5394 104.611 64.9457 107.017 67.9141 107.017C70.8825 107.017 73.2888 104.611 73.2888 101.642V87.658C73.2888 84.6896 70.8825 82.2833 67.9141 82.2833Z" fill="white"/>
<path d="M20.7196 97.9002L20.0357 96.6217L20.035 96.622L20.7196 97.9002ZM20.7202 52.719L20.0357 53.9973L20.0362 53.9976L20.7202 52.719ZM67.6075 120.208L67.7015 121.655L67.7018 121.655L67.6075 120.208ZM68.2155 30.4094L68.3096 31.8564L68.3097 31.8564L68.2155 30.4094ZM21.4036 99.1788C40.4257 89.0029 40.4297 61.6188 21.4042 51.4405L20.0362 53.9976C37.0187 63.0829 37.0154 87.5384 20.0357 96.6217L21.4036 99.1788ZM16.3486 107.745C16.3486 104.105 18.3013 100.841 21.4043 99.1784L20.035 96.622C15.9704 98.7993 13.4486 103.058 13.4486 107.745H16.3486ZM16.3486 125.185V107.745H13.4486V125.185H16.3486ZM26.078 134.952C20.7126 134.952 16.3486 130.588 16.3486 125.185H13.4486C13.4486 132.181 19.1032 137.852 26.078 137.852V134.952ZM61.5972 134.952H26.078V137.852H61.5972V134.952ZM61.8545 134.686C61.8545 134.84 61.7329 134.952 61.5972 134.952V137.852C63.3391 137.852 64.7545 136.437 64.7545 134.686H61.8545ZM61.8545 124.923V134.686H64.7545V124.923H61.8545ZM67.5135 118.761C64.1686 118.979 61.8545 121.854 61.8545 124.923H64.7545C64.7545 123.231 66.0291 121.764 67.7015 121.655L67.5135 118.761ZM73.9693 124.814C73.9693 121.341 71.0449 118.531 67.5132 118.761L67.7018 121.655C69.5394 121.536 71.0693 122.995 71.0693 124.814H73.9693ZM73.9693 134.686V124.814H71.0693V134.686H73.9693ZM74.2266 134.952C74.091 134.952 73.9693 134.84 73.9693 134.686H71.0693C71.0693 136.437 72.4847 137.852 74.2266 137.852V134.952ZM249.053 134.952H74.2266V137.852H249.053V134.952ZM258.783 125.185C258.783 130.587 254.419 134.952 249.053 134.952V137.852C256.028 137.852 261.683 132.181 261.683 125.185H258.783ZM258.783 25.4331V125.185H261.683V25.4331H258.783ZM249.053 15.6661C254.419 15.6661 258.783 20.0311 258.783 25.4331H261.683C261.683 18.4371 256.028 12.7661 249.053 12.7661V15.6661ZM74.2258 15.6661H249.053V12.7661H74.2258V15.6661ZM73.9685 15.9329C73.9685 15.7785 74.091 15.6661 74.2258 15.6661V12.7661C72.4832 12.7661 71.0685 14.1831 71.0685 15.9329H73.9685ZM73.9685 25.694V15.9329H71.0685V25.694H73.9685ZM68.3097 31.8564C71.6545 31.6386 73.9685 28.7633 73.9685 25.694H71.0685C71.0685 27.3865 69.7939 28.8536 68.1213 28.9625L68.3097 31.8564ZM61.8537 25.8025C61.8537 29.2764 64.7781 32.0861 68.3096 31.8564L68.1214 28.9625C66.2837 29.082 64.7537 27.6225 64.7537 25.8025H61.8537ZM61.8537 15.9329V25.8025H64.7537V15.9329H61.8537ZM61.5964 15.6661C61.7313 15.6661 61.8537 15.7785 61.8537 15.9329H64.7537C64.7537 14.1832 63.3392 12.7661 61.5964 12.7661V15.6661ZM26.078 15.6661H61.5964V12.7661H26.078V15.6661ZM16.3486 25.4331C16.3486 20.031 20.7126 15.6661 26.078 15.6661V12.7661C19.1032 12.7661 13.4486 18.4372 13.4486 25.4331H16.3486ZM16.3486 42.874V25.4331H13.4486V42.874H16.3486ZM21.4048 51.4408C18.3015 49.7788 16.3486 46.5137 16.3486 42.874H13.4486C13.4486 47.561 15.9707 51.8202 20.0357 53.9973L21.4048 51.4408ZM67.9142 42.0943C64.145 42.0943 61.0895 45.1498 61.0895 48.919H63.9895C63.9895 46.7514 65.7466 44.9943 67.9142 44.9943V42.0943ZM74.7389 48.919C74.7389 45.1498 71.6834 42.0943 67.9142 42.0943V44.9943C70.0817 44.9943 71.8389 46.7514 71.8389 48.919H74.7389ZM74.7389 62.9033V48.919H71.8389V62.9033H74.7389ZM67.9142 69.728C71.6834 69.728 74.7389 66.6724 74.7389 62.9033H71.8389C71.8389 65.0708 70.0817 66.828 67.9142 66.828V69.728ZM61.0895 62.9033C61.0895 66.6725 64.145 69.728 67.9142 69.728V66.828C65.7466 66.828 63.9895 65.0708 63.9895 62.9033H61.0895ZM61.0895 48.919V62.9033H63.9895V48.919H61.0895ZM63.9894 87.658C63.9894 85.4904 65.7465 83.7333 67.9141 83.7333V80.8333C64.1449 80.8333 61.0894 83.8888 61.0894 87.658H63.9894ZM63.9894 101.642V87.658H61.0894V101.642H63.9894ZM67.9141 105.567C65.7465 105.567 63.9894 103.81 63.9894 101.642H61.0894C61.0894 105.411 64.1449 108.467 67.9141 108.467V105.567ZM71.8388 101.642C71.8388 103.81 70.0817 105.567 67.9141 105.567V108.467C71.6833 108.467 74.7388 105.411 74.7388 101.642H71.8388ZM71.8388 87.658V101.642H74.7388V87.658H71.8388ZM67.9141 83.7333C70.0817 83.7333 71.8388 85.4904 71.8388 87.658H74.7388C74.7388 83.8888 71.6833 80.8333 67.9141 80.8333V83.7333Z" fill="#282D26"/>
<path d="M109.662 41.9156V44.4386H114.244V62.2156H117.115V41.9156H109.662ZM137.347 62.3896C140.102 62.3896 142.393 61.2296 143.611 59.0836L141.494 57.7496C140.508 59.2576 139 59.9536 137.318 59.9536C134.302 59.9536 132.04 57.8656 132.04 54.5306C132.04 51.2536 134.302 49.1366 137.318 49.1366C139 49.1366 140.508 49.8326 141.494 51.3406L143.611 49.9776C142.393 47.8316 140.102 46.7006 137.347 46.7006C132.62 46.7006 129.227 49.9486 129.227 54.5306C129.227 59.1126 132.62 62.3896 137.347 62.3896ZM160.88 54.6176C160.88 49.8906 157.719 46.7006 153.282 46.7006C148.845 46.7006 145.568 49.9776 145.568 54.5306C145.568 59.1126 148.874 62.3896 153.833 62.3896C156.385 62.3896 158.502 61.5196 159.894 59.8956L158.357 58.0976C157.226 59.3446 155.718 59.9536 153.92 59.9536C150.875 59.9536 148.7 58.1556 148.352 55.4586L160.822 55.4586C160.851 55.1976 160.88 54.8496 160.88 54.6176ZM153.282 49.0496C155.979 49.0496 157.922 50.8766 158.212 53.4576L148.352 53.4576C148.642 50.8476 150.614 49.0496 153.282 49.0496ZM170.255 46.7006C167.79 46.7006 165.499 47.3966 163.904 48.6726L165.064 50.7606C166.253 49.7456 168.109 49.1076 169.936 49.1076C172.691 49.1076 174.054 50.4706 174.054 52.8196V53.3706H169.646C165.064 53.3706 163.469 55.4006 163.469 57.8656C163.469 60.5336 165.673 62.3896 169.153 62.3896C171.56 62.3896 173.271 61.5776 174.199 60.1856V62.2156H176.838V52.9356C176.838 48.7306 174.46 46.7006 170.255 46.7006ZM169.617 60.2436C167.5 60.2436 166.224 59.2866 166.224 57.7496C166.224 56.4446 167.007 55.3716 169.762 55.3716H174.054V57.5176C173.358 59.2866 171.705 60.2436 169.617 60.2436ZM181.852 62.2156H184.636V55.7776H193.394V62.2156H196.178V46.8456H193.394V53.3706H184.636V46.8456H181.852V62.2156ZM208.29 62.3896C211.045 62.3896 213.336 61.2296 214.554 59.0836L212.437 57.7496C211.451 59.2576 209.943 59.9536 208.261 59.9536C205.245 59.9536 202.983 57.8656 202.983 54.5306C202.983 51.2536 205.245 49.1366 208.261 49.1366C209.943 49.1366 211.451 49.8326 212.437 51.3406L214.554 49.9776C213.336 47.8316 211.045 46.7006 208.29 46.7006C203.563 46.7006 200.17 49.9486 200.17 54.5306C200.17 59.1126 203.563 62.3896 208.29 62.3896Z" fill="#282D26"/>
<path d="M106.948 97.5188L115 87.5748V84.5828H94.6719V88.4108H109.5L101.756 97.9148V100.995H104.22C109.5 100.995 111.832 103.107 111.832 106.363C111.832 109.707 109.192 111.819 104.572 111.819C100.788 111.819 97.3559 110.455 95.2879 108.519L93.2639 111.995C95.8599 114.327 100.172 115.735 104.572 115.735C112.404 115.735 116.232 111.511 116.232 106.319C116.232 101.567 113.108 98.0908 106.948 97.5188ZM132.92 115.735C140.092 115.735 145.46 110.015 145.46 99.9828C145.46 89.9508 140.092 84.2308 132.92 84.2308C125.704 84.2308 120.336 89.9508 120.336 99.9828C120.336 110.015 125.704 115.735 132.92 115.735ZM132.92 111.819C128.08 111.819 124.736 107.859 124.736 99.9828C124.736 92.1068 128.08 88.1468 132.92 88.1468C137.716 88.1468 141.06 92.1068 141.06 99.9828C141.06 107.859 137.716 111.819 132.92 111.819ZM162.267 115.735C169.439 115.735 174.807 110.015 174.807 99.9828C174.807 89.9508 169.439 84.2308 162.267 84.2308C155.051 84.2308 149.683 89.9508 149.683 99.9828C149.683 110.015 155.051 115.735 162.267 115.735ZM162.267 111.819C157.427 111.819 154.083 107.859 154.083 99.9828C154.083 92.1068 157.427 88.1468 162.267 88.1468C167.063 88.1468 170.407 92.1068 170.407 99.9828C170.407 107.859 167.063 111.819 162.267 111.819ZM191.615 115.735C198.787 115.735 204.155 110.015 204.155 99.9828C204.155 89.9508 198.787 84.2308 191.615 84.2308C184.399 84.2308 179.031 89.9508 179.031 99.9828C179.031 110.015 184.399 115.735 191.615 115.735ZM191.615 111.819C186.775 111.819 183.431 107.859 183.431 99.9828C183.431 92.1068 186.775 88.1468 191.615 88.1468C196.411 88.1468 199.755 92.1068 199.755 99.9828C199.755 107.859 196.411 111.819 191.615 111.819Z" fill="#282D26"/>
<path d="M214.773 84.7462V100.503H211.621V103.655H214.773V106.806H211.621V109.957H214.773V116.26H217.924V109.957H225.802V106.806H217.924V103.655H227.378C232.578 103.655 236.832 99.4002 236.832 94.2004C236.832 89.0006 232.578 84.7462 227.378 84.7462H214.773ZM217.924 87.8976H227.378C230.875 87.8976 233.681 90.7039 233.681 94.2004C233.681 97.6969 230.875 100.503 227.378 100.503H217.924V87.8976Z" fill="#282D26"/>
</g>
<defs>
<clipPath id="clip0">
<rect width="275" height="151" fill="white" transform="translate(6.10352e-05 0.1604)"/>
</clipPath>
</defs>
</svg>
