<svg width="273" height="271" viewBox="0 0 273 271" fill="none" xmlns="http://www.w3.org/2000/svg">
<path d="M151.872 1.45C162.117 1.45 170.422 9.75512 170.422 20L170.422 80.1898C170.422 90.4347 162.117 98.7398 151.872 98.7398L88.1669 98.7398C77.922 98.7398 69.6169 90.4347 69.6169 80.1898L69.6169 20C69.6169 9.75513 77.9221 1.45 88.1669 1.45L151.872 1.45Z" fill="#D5D8CD" stroke="#282D26" stroke-width="2.9"/>
<path d="M150.553 46.5922L150.553 46.5923C150.682 48.5808 152.395 49.985 154.255 49.985L160.99 49.985C161.398 49.985 161.725 50.3147 161.725 50.7172L161.725 84.1058C161.725 88.1238 158.463 91.3844 154.435 91.3844L85.606 91.3844C81.578 91.3844 78.3158 88.1238 78.3158 84.1057L78.3159 50.7177C78.3159 50.3152 78.6432 49.9856 79.0509 49.9856L85.8619 49.9856C87.9474 49.9856 89.6265 48.2283 89.4893 46.1141L89.4893 46.114C89.36 44.1255 87.6473 42.7213 85.7871 42.7213L79.0509 42.7213C78.6432 42.7213 78.3159 42.3916 78.3159 41.9891L78.3159 17.4407C78.3159 13.4227 81.578 10.1621 85.606 10.1621L97.6401 10.1621C100.349 10.1621 102.791 11.6193 104.036 13.9477C110.849 26.7052 129.189 26.708 136.004 13.9483C137.25 11.6195 139.692 10.1621 142.401 10.1621L154.435 10.1621C158.463 10.1621 161.725 13.4227 161.725 17.4407L161.725 41.9886C161.725 42.3911 161.398 42.7207 160.99 42.7207L154.18 42.7207C152.095 42.7207 150.415 44.478 150.553 46.5922ZM98.7371 46.3542C98.7371 48.362 100.366 49.9864 102.372 49.9864L110.926 49.9864C112.931 49.9864 114.561 48.362 114.561 46.3542C114.561 44.3465 112.931 42.7221 110.926 42.7221L102.372 42.7221C100.366 42.7221 98.7371 44.3465 98.7371 46.3542ZM125.48 46.3542C125.48 48.362 127.109 49.9864 129.115 49.9864L137.669 49.9864C139.674 49.9864 141.304 48.362 141.304 46.3542C141.304 44.3465 139.674 42.7221 137.669 42.7221L129.115 42.7221C127.109 42.7221 125.48 44.3465 125.48 46.3542Z" fill="white" stroke="#282D26" stroke-width="2.9"/>
<path d="M105.705 24.9057C115.95 24.9057 124.255 33.2108 124.255 43.4557L124.255 103.645C124.255 113.89 115.95 122.195 105.705 122.195L42 122.195C31.7551 122.195 23.45 113.89 23.45 103.645L23.45 43.4557C23.45 33.2108 31.7551 24.9057 42 24.9057L105.705 24.9057Z" fill="#D5D8CD" stroke="#282D26" stroke-width="2.9"/>
<path d="M104.385 70.0474L104.385 70.0475C104.514 72.036 106.227 73.4402 108.087 73.4402L114.822 73.4402C115.23 73.4402 115.557 73.7699 115.557 74.1724L115.557 107.561C115.557 111.579 112.295 114.84 108.267 114.84L39.438 114.84C35.41 114.84 32.1478 111.579 32.1478 107.561L32.1479 74.1729C32.1479 73.7704 32.4752 73.4408 32.8829 73.4408L39.6939 73.4408C41.7794 73.4408 43.4585 71.6835 43.3213 69.5693L43.3213 69.5692C43.192 67.5807 41.4793 66.1765 39.6191 66.1765L32.8829 66.1765C32.4752 66.1765 32.1479 65.8468 32.1479 65.4443L32.1479 40.8959C32.1479 36.8779 35.41 33.6173 39.438 33.6173L51.4721 33.6173C54.181 33.6173 56.6228 35.0745 57.8681 37.4029C64.6815 50.1604 83.0213 50.1632 89.8364 37.4035C91.0816 35.0747 93.5235 33.6173 96.2327 33.6173L108.267 33.6173C112.295 33.6173 115.557 36.8779 115.557 40.8959L115.557 65.4438C115.557 65.8463 115.23 66.1759 114.822 66.1759L108.012 66.1759C105.927 66.1759 104.247 67.9332 104.385 70.0474ZM52.5691 69.8094C52.5691 71.8172 54.1984 73.4416 56.2041 73.4416L64.7577 73.4416C66.7634 73.4416 68.3927 71.8172 68.3927 69.8094C68.3927 67.8017 66.7634 66.1773 64.7577 66.1773L56.2041 66.1773C54.1984 66.1773 52.5691 67.8017 52.5691 69.8094ZM79.312 69.8094C79.312 71.8172 80.9414 73.4416 82.9471 73.4416L91.5007 73.4416C93.5064 73.4416 95.1357 71.8172 95.1357 69.8094C95.1357 67.8017 93.5064 66.1773 91.5007 66.1773L82.9471 66.1773C80.9414 66.1773 79.312 67.8017 79.312 69.8094Z" fill="white" stroke="#282D26" stroke-width="2.9"/>
<path d="M143.172 38.9789C153.417 38.9789 161.722 47.284 161.722 57.5289L161.722 117.719C161.722 127.964 153.417 136.269 143.172 136.269L79.4675 136.269C69.2227 136.269 60.9175 127.964 60.9175 117.719L60.9175 57.5289C60.9175 47.2841 69.2227 38.9789 79.4676 38.9789L143.172 38.9789Z" fill="#D5D8CD" stroke="#282D26" stroke-width="2.9"/>
<path d="M141.852 84.1207L141.852 84.1208C141.981 86.1093 143.694 87.5135 145.554 87.5135L152.289 87.5135C152.697 87.5135 153.024 87.8432 153.024 88.2457L153.024 121.634C153.024 125.652 149.762 128.913 145.734 128.913L76.9053 128.913C72.8773 128.913 69.6152 125.652 69.6152 121.634L69.6152 88.2462C69.6152 87.8437 69.9425 87.5141 70.3502 87.5141L77.1613 87.5141C79.2467 87.5141 80.9258 85.7568 80.7886 83.6426L80.7886 83.6425C80.6594 81.654 78.9466 80.2498 77.0864 80.2498L70.3502 80.2498C69.9425 80.2498 69.6152 79.9201 69.6152 79.5176L69.6152 54.9692C69.6152 50.9512 72.8773 47.6906 76.9053 47.6906L88.9394 47.6906C91.6484 47.6906 94.0901 49.1478 95.3354 51.4762C102.149 64.2337 120.489 64.2365 127.304 51.4768C128.549 49.148 130.991 47.6906 133.7 47.6906L145.734 47.6906C149.762 47.6906 153.024 50.9512 153.024 54.9692L153.024 79.5171C153.024 79.9196 152.697 80.2492 152.289 80.2492L145.479 80.2492C143.394 80.2492 141.715 82.0065 141.852 84.1207ZM90.0364 83.8827C90.0364 85.8905 91.6657 87.5149 93.6714 87.5149L102.225 87.5149C104.231 87.5149 105.86 85.8905 105.86 83.8827C105.86 81.875 104.231 80.2506 102.225 80.2506L93.6714 80.2506C91.6657 80.2506 90.0364 81.875 90.0364 83.8827ZM116.779 83.8827C116.779 85.8905 118.409 87.5149 120.414 87.5149L128.968 87.5149C130.974 87.5149 132.603 85.8905 132.603 83.8828C132.603 81.875 130.974 80.2506 128.968 80.2506L120.414 80.2506C118.409 80.2506 116.779 81.875 116.779 83.8827Z" fill="white" stroke="#282D26" stroke-width="2.9"/>
<path d="M195.36 20.8848C205.604 20.8848 213.91 29.1899 213.91 39.4348L213.91 99.6246C213.91 109.869 205.604 118.175 195.36 118.175L131.655 118.175C121.41 118.175 113.105 109.869 113.105 99.6246L113.105 39.4348C113.105 29.1899 121.41 20.8848 131.655 20.8848L195.36 20.8848Z" fill="#D5D8CD" stroke="#282D26" stroke-width="2.9"/>
<path d="M194.038 66.0267L194.038 66.0268C194.167 68.0153 195.88 69.4195 197.74 69.4195L204.475 69.4195C204.883 69.4195 205.21 69.7492 205.21 70.1517L205.21 103.54C205.21 107.558 201.948 110.819 197.92 110.819L129.091 110.819C125.063 110.819 121.801 107.558 121.801 103.54L121.801 70.1522C121.801 69.7497 122.128 69.4201 122.536 69.4201L129.347 69.4201C131.433 69.4201 133.112 67.6628 132.974 65.5486L132.974 65.5485C132.845 63.56 131.132 62.1557 129.272 62.1557L122.536 62.1557C122.128 62.1557 121.801 61.8261 121.801 61.4236L121.801 36.8752C121.801 32.8572 125.063 29.5966 129.091 29.5966L141.125 29.5966C143.834 29.5966 146.276 31.0537 147.521 33.3822C154.335 46.1397 172.675 46.1424 179.49 33.3828C180.735 31.054 183.177 29.5966 185.886 29.5966L197.92 29.5966C201.948 29.5966 205.21 32.8572 205.21 36.8752L205.21 61.4231C205.21 61.8255 204.883 62.1552 204.475 62.1552L197.665 62.1552C195.58 62.1552 193.901 63.9125 194.038 66.0267ZM142.222 65.7887C142.222 67.7964 143.852 69.4209 145.857 69.4209L154.411 69.4209C156.417 69.4209 158.046 67.7964 158.046 65.7887C158.046 63.781 156.417 62.1566 154.411 62.1566L145.857 62.1566C143.852 62.1566 142.222 63.781 142.222 65.7887ZM168.965 65.7887C168.965 67.7964 170.595 69.4209 172.6 69.4209L181.154 69.4209C183.16 69.4209 184.789 67.7964 184.789 65.7887C184.789 63.781 183.16 62.1566 181.154 62.1566L172.6 62.1566C170.595 62.1566 168.965 63.781 168.965 65.7887Z" fill="white" stroke="#282D26" stroke-width="2.9"/>
<path d="M230.151 38.9789C240.396 38.9789 248.701 47.284 248.701 57.5289L248.701 117.719C248.701 127.964 240.396 136.269 230.151 136.269L166.447 136.269C156.202 136.269 147.897 127.964 147.897 117.719L147.897 57.5289C147.897 47.2841 156.202 38.9789 166.447 38.9789L230.151 38.9789Z" fill="#D5D8CD" stroke="#282D26" stroke-width="2.9"/>
<path d="M228.832 84.1207L228.832 84.1208C228.961 86.1093 230.674 87.5135 232.534 87.5135L239.269 87.5135C239.677 87.5135 240.004 87.8432 240.004 88.2457L240.004 121.634C240.004 125.652 236.742 128.913 232.714 128.913L163.885 128.913C159.857 128.913 156.595 125.652 156.595 121.634L156.595 88.2462C156.595 87.8437 156.922 87.5141 157.33 87.5141L164.141 87.5141C166.227 87.5141 167.906 85.7568 167.768 83.6426L167.768 83.6425C167.639 81.654 165.926 80.2498 164.066 80.2498L157.33 80.2498C156.922 80.2498 156.595 79.9201 156.595 79.5176L156.595 54.9692C156.595 50.9512 159.857 47.6906 163.885 47.6906L175.919 47.6906C178.628 47.6906 181.07 49.1478 182.315 51.4762C189.129 64.2337 207.469 64.2365 214.284 51.4768C215.529 49.148 217.971 47.6906 220.68 47.6906L232.714 47.6906C236.742 47.6906 240.004 50.9512 240.004 54.9692L240.004 79.5171C240.004 79.9196 239.677 80.2492 239.269 80.2492L232.459 80.2492C230.374 80.2492 228.695 82.0065 228.832 84.1207ZM177.016 83.8827C177.016 85.8905 178.646 87.5149 180.651 87.5149L189.205 87.5149C191.211 87.5149 192.84 85.8905 192.84 83.8827C192.84 81.875 191.211 80.2506 189.205 80.2506L180.651 80.2506C178.646 80.2506 177.016 81.875 177.016 83.8827ZM203.759 83.8827C203.759 85.8905 205.389 87.5149 207.394 87.5149L215.948 87.5149C217.954 87.5149 219.583 85.8905 219.583 83.8828C219.583 81.875 217.954 80.2506 215.948 80.2506L207.394 80.2506C205.389 80.2506 203.759 81.875 203.759 83.8827Z" fill="white" stroke="#282D26" stroke-width="2.9"/>
<rect x="1.45" y="86.4505" width="270.1" height="183.1" rx="22.55" fill="#C1CB8F" stroke="#282D26" stroke-width="2.9"/>
<rect x="21.45" y="106.45" width="230.1" height="143.1" rx="21.55" fill="white" stroke="#282D26" stroke-width="2.9"/>
<path d="M67.9945 152.039H65.7325L66.2835 146.471H75.3025V143.948H63.8475L62.7745 154.562H67.3855C72.0835 154.562 73.5335 155.983 73.5335 158.274C73.5335 160.478 71.7935 161.899 68.7195 161.899C66.2545 161.899 63.9925 161 62.6295 159.724L61.2955 162.015C63.0355 163.552 65.8775 164.48 68.7485 164.48C73.9395 164.48 76.4335 161.667 76.4335 158.158C76.4335 154.562 74.0555 152.039 67.9945 152.039ZM94.6389 164.422C97.3939 164.422 99.6849 163.262 100.903 161.116L98.7859 159.782C97.7999 161.29 96.2919 161.986 94.6099 161.986C91.5939 161.986 89.3319 159.898 89.3319 156.563C89.3319 153.286 91.5939 151.169 94.6099 151.169C96.2919 151.169 97.7999 151.865 98.7859 153.373L100.903 152.01C99.6849 149.864 97.3939 148.733 94.6389 148.733C89.9119 148.733 86.5189 151.981 86.5189 156.563C86.5189 161.145 89.9119 164.422 94.6389 164.422ZM118.172 156.65C118.172 151.923 115.011 148.733 110.574 148.733C106.137 148.733 102.86 152.01 102.86 156.563C102.86 161.145 106.166 164.422 111.125 164.422C113.677 164.422 115.794 163.552 117.186 161.928L115.649 160.13C114.518 161.377 113.01 161.986 111.212 161.986C108.167 161.986 105.992 160.188 105.644 157.491H118.114C118.143 157.23 118.172 156.882 118.172 156.65ZM110.574 151.082C113.271 151.082 115.214 152.909 115.504 155.49H105.644C105.934 152.88 107.906 151.082 110.574 151.082ZM127.547 148.733C125.082 148.733 122.791 149.429 121.196 150.705L122.356 152.793C123.545 151.778 125.401 151.14 127.228 151.14C129.983 151.14 131.346 152.503 131.346 154.852V155.403H126.938C122.356 155.403 120.761 157.433 120.761 159.898C120.761 162.566 122.965 164.422 126.445 164.422C128.852 164.422 130.563 163.61 131.491 162.218V164.248H134.13V154.968C134.13 150.763 131.752 148.733 127.547 148.733ZM126.909 162.276C124.792 162.276 123.516 161.319 123.516 159.782C123.516 158.477 124.299 157.404 127.054 157.404H131.346V159.55C130.65 161.319 128.997 162.276 126.909 162.276ZM139.143 164.248H141.927V157.81H150.685V164.248H153.469V148.878H150.685V155.403H141.927V148.878H139.143V164.248ZM165.581 164.422C168.336 164.422 170.627 163.262 171.845 161.116L169.728 159.782C168.742 161.29 167.234 161.986 165.552 161.986C162.536 161.986 160.274 159.898 160.274 156.563C160.274 153.286 162.536 151.169 165.552 151.169C167.234 151.169 168.742 151.865 169.728 153.373L171.845 152.01C170.627 149.864 168.336 148.733 165.581 148.733C160.854 148.733 157.461 151.981 157.461 156.563C157.461 161.145 160.854 164.422 165.581 164.422ZM181.806 164.422C186.417 164.422 189.781 161.145 189.781 156.563C189.781 151.981 186.417 148.733 181.806 148.733C177.195 148.733 173.802 151.981 173.802 156.563C173.802 161.145 177.195 164.422 181.806 164.422ZM181.806 161.986C178.848 161.986 176.615 159.84 176.615 156.563C176.615 153.286 178.848 151.169 181.806 151.169C184.764 151.169 186.968 153.286 186.968 156.563C186.968 159.84 184.764 161.986 181.806 161.986ZM204.27 156.273C205.807 155.664 206.735 154.475 206.735 152.822C206.735 150.299 204.56 148.878 200.935 148.878H193.801V164.248H201.196C205.285 164.248 207.257 162.682 207.257 160.014C207.257 158.071 206.3 156.795 204.27 156.273ZM196.527 151.024H200.703C202.82 151.024 203.951 151.749 203.951 153.228C203.951 154.707 202.82 155.49 200.703 155.49H196.527V151.024ZM200.993 162.102H196.527V157.491H201.167C203.458 157.491 204.473 158.245 204.473 159.84C204.473 161.406 203.284 162.102 200.993 162.102Z" fill="#282D26"/>
<path d="M57.7888 186.448V190.276H64.7408V217.248H69.0968V186.448H57.7888ZM81.686 213.42L91.102 204.356C95.282 200.352 96.162 197.668 96.162 194.676C96.162 189.396 92.026 186.096 85.602 186.096C80.806 186.096 76.714 187.812 74.338 190.76L77.33 193.356C79.222 191.068 81.906 190.012 85.206 190.012C89.518 190.012 91.762 191.948 91.762 195.116C91.762 197.052 91.146 198.988 87.89 202.156L75.35 214.256V217.248H97.482V213.42H81.686ZM113.555 217.6C120.727 217.6 126.095 211.88 126.095 201.848C126.095 191.816 120.727 186.096 113.555 186.096C106.339 186.096 100.971 191.816 100.971 201.848C100.971 211.88 106.339 217.6 113.555 217.6ZM113.555 213.684C108.715 213.684 105.371 209.724 105.371 201.848C105.371 193.972 108.715 190.012 113.555 190.012C118.351 190.012 121.695 193.972 121.695 201.848C121.695 209.724 118.351 213.684 113.555 213.684ZM142.902 217.6C150.074 217.6 155.442 211.88 155.442 201.848C155.442 191.816 150.074 186.096 142.902 186.096C135.686 186.096 130.318 191.816 130.318 201.848C130.318 211.88 135.686 217.6 142.902 217.6ZM142.902 213.684C138.062 213.684 134.718 209.724 134.718 201.848C134.718 193.972 138.062 190.012 142.902 190.012C147.698 190.012 151.042 193.972 151.042 201.848C151.042 209.724 147.698 213.684 142.902 213.684ZM172.25 217.6C179.422 217.6 184.79 211.88 184.79 201.848C184.79 191.816 179.422 186.096 172.25 186.096C165.034 186.096 159.666 191.816 159.666 201.848C159.666 211.88 165.034 217.6 172.25 217.6ZM172.25 213.684C167.41 213.684 164.066 209.724 164.066 201.848C164.066 193.972 167.41 190.012 172.25 190.012C177.046 190.012 180.39 193.972 180.39 201.848C180.39 209.724 177.046 213.684 172.25 213.684Z" fill="#282D26"/>
<path d="M192.988 188.225V203.188H190V206.18H192.988V209.173H190V212.165H192.988V218.15H195.975V212.165H203.444V209.173H195.975V206.18H204.938C209.867 206.18 213.901 202.14 213.901 197.203C213.901 192.265 209.867 188.225 204.938 188.225H192.988ZM195.975 191.218H204.938C208.253 191.218 210.913 193.882 210.913 197.203C210.913 200.523 208.253 203.188 204.938 203.188H195.975V191.218Z" fill="#282D26"/>
</svg>
