<svg width="169" height="254" viewBox="0 0 169 254" fill="none" xmlns="http://www.w3.org/2000/svg">
<path d="M2.40222 165.669C1.66668 165.287 0.761426 165.575 0.380282 166.31C-0.000861883 167.046 0.286434 167.951 1.02198 168.332L2.40222 165.669ZM166.022 253.832C166.758 254.213 167.663 253.926 168.044 253.191C168.425 252.455 168.138 251.55 167.402 251.169L166.022 253.832ZM126.64 0.643146C125.891 0.28968 124.997 0.610513 124.644 1.35975L118.884 13.5692C118.53 14.3185 118.851 15.2124 119.6 15.5659C120.349 15.9193 121.243 15.5985 121.597 14.8493L126.717 3.99637L137.57 9.11644C138.319 9.4699 139.213 9.14907 139.566 8.39983C139.92 7.6506 139.599 6.75668 138.85 6.40322L126.64 0.643146ZM1.88135 168.778C2.61689 169.159 3.52214 168.871 3.90329 168.136C4.28443 167.4 3.99714 166.495 3.26159 166.114L1.88135 168.778ZM8.41784 168.786C7.6823 168.405 6.77705 168.692 6.39591 169.427C6.01476 170.163 6.30206 171.068 7.0376 171.449L8.41784 168.786ZM8.75635 172.34C9.49189 172.721 10.3971 172.434 10.7783 171.698C11.1594 170.963 10.8721 170.058 10.1366 169.676L8.75635 172.34ZM15.2928 172.348C14.5573 171.967 13.6521 172.254 13.2709 172.99C12.8898 173.725 13.1771 174.631 13.9126 175.012L15.2928 172.348ZM15.6313 175.903C16.3669 176.284 17.2721 175.996 17.6533 175.261C18.0344 174.525 17.7471 173.62 17.0116 173.239L15.6313 175.903ZM22.1678 175.911C21.4323 175.53 20.5271 175.817 20.1459 176.552C19.7648 177.288 20.0521 178.193 20.7876 178.574L22.1678 175.911ZM22.5063 179.465C23.2419 179.846 24.1471 179.559 24.5283 178.823C24.9094 178.088 24.6221 177.183 23.8866 176.801L22.5063 179.465ZM29.0428 179.473C28.3073 179.092 27.4021 179.379 27.0209 180.115C26.6398 180.85 26.9271 181.756 27.6626 182.137L29.0428 179.473ZM29.3813 183.027C30.1169 183.409 31.0221 183.121 31.4033 182.386C31.7844 181.65 31.4971 180.745 30.7616 180.364L29.3813 183.027ZM35.9178 183.036C35.1823 182.655 34.2771 182.942 33.8959 183.677C33.5148 184.413 33.8021 185.318 34.5376 185.699L35.9178 183.036ZM36.2564 186.59C36.9919 186.971 37.8971 186.684 38.2783 185.948C38.6594 185.213 38.3721 184.308 37.6366 183.926L36.2564 186.59ZM42.7928 186.598C42.0573 186.217 41.1521 186.504 40.7709 187.24C40.3898 187.975 40.6771 188.881 41.4126 189.262L42.7928 186.598ZM43.1314 190.152C43.8669 190.534 44.7721 190.246 45.1533 189.511C45.5344 188.775 45.2471 187.87 44.5116 187.489L43.1314 190.152ZM49.6679 190.161C48.9323 189.78 48.0271 190.067 47.6459 190.802C47.2648 191.538 47.5521 192.443 48.2876 192.824L49.6679 190.161ZM50.0064 193.715C50.7419 194.096 51.6471 193.809 52.0283 193.073C52.4094 192.338 52.1221 191.433 51.3866 191.051L50.0064 193.715ZM56.5429 193.723C55.8073 193.342 54.9021 193.629 54.5209 194.365C54.1398 195.1 54.4271 196.006 55.1626 196.387L56.5429 193.723ZM56.8814 197.277C57.6169 197.659 58.5222 197.371 58.9033 196.636C59.2844 195.9 58.9971 194.995 58.2616 194.614L56.8814 197.277ZM63.4179 197.286C62.6823 196.905 61.7771 197.192 61.3959 197.927C61.0148 198.663 61.3021 199.568 62.0376 199.949L63.4179 197.286ZM63.7564 200.84C64.4919 201.221 65.3972 200.934 65.7783 200.198C66.1594 199.463 65.8721 198.558 65.1366 198.176L63.7564 200.84ZM70.2929 200.848C69.5573 200.467 68.6521 200.754 68.2709 201.49C67.8898 202.225 68.1771 203.131 68.9126 203.512L70.2929 200.848ZM70.6314 204.402C71.3669 204.784 72.2722 204.496 72.6533 203.761C73.0344 203.025 72.7471 202.12 72.0116 201.739L70.6314 204.402ZM77.1679 204.411C76.4323 204.03 75.5271 204.317 75.1459 205.052C74.7648 205.788 75.0521 206.693 75.7876 207.074L77.1679 204.411ZM77.5064 207.965C78.2419 208.346 79.1472 208.059 79.5283 207.323C79.9094 206.588 79.6221 205.683 78.8866 205.301L77.5064 207.965ZM84.0429 207.973C83.3073 207.592 82.4021 207.879 82.0209 208.615C81.6398 209.35 81.9271 210.256 82.6626 210.637L84.0429 207.973ZM84.3813 211.527C85.1169 211.909 86.0221 211.621 86.4033 210.886C86.7844 210.15 86.4971 209.245 85.7616 208.864L84.3813 211.527ZM90.9178 211.536C90.1823 211.155 89.2771 211.442 88.8959 212.177C88.5148 212.913 88.8021 213.818 89.5376 214.199L90.9178 211.536ZM91.2563 215.09C91.9919 215.471 92.8971 215.184 93.2783 214.448C93.6594 213.713 93.3721 212.808 92.6366 212.426L91.2563 215.09ZM97.7928 215.098C97.0573 214.717 96.1521 215.004 95.7709 215.74C95.3898 216.475 95.6771 217.381 96.4126 217.762L97.7928 215.098ZM98.1314 218.652C98.8669 219.034 99.7721 218.746 100.153 218.011C100.534 217.275 100.247 216.37 99.5116 215.989L98.1314 218.652ZM104.668 218.661C103.932 218.28 103.027 218.567 102.646 219.302C102.265 220.038 102.552 220.943 103.288 221.324L104.668 218.661ZM105.006 222.215C105.742 222.596 106.647 222.309 107.028 221.573C107.409 220.838 107.122 219.933 106.387 219.551L105.006 222.215ZM111.543 222.223C110.807 221.842 109.902 222.129 109.521 222.865C109.14 223.6 109.427 224.506 110.163 224.887L111.543 222.223ZM111.881 225.778C112.617 226.159 113.522 225.871 113.903 225.136C114.284 224.4 113.997 223.495 113.262 223.114L111.881 225.778ZM118.418 225.786C117.682 225.405 116.777 225.692 116.396 226.427C116.015 227.163 116.302 228.068 117.038 228.449L118.418 225.786ZM118.756 229.34C119.492 229.721 120.397 229.434 120.778 228.698C121.159 227.963 120.872 227.058 120.137 226.676L118.756 229.34ZM125.293 229.348C124.557 228.967 123.652 229.254 123.271 229.99C122.89 230.725 123.177 231.631 123.913 232.012L125.293 229.348ZM125.631 232.903C126.367 233.284 127.272 232.996 127.653 232.261C128.034 231.525 127.747 230.62 127.012 230.239L125.631 232.903ZM132.168 232.911C131.432 232.53 130.527 232.817 130.146 233.552C129.765 234.288 130.052 235.193 130.788 235.574L132.168 232.911ZM132.506 236.465C133.242 236.846 134.147 236.559 134.528 235.823C134.909 235.088 134.622 234.183 133.887 233.801L132.506 236.465ZM139.043 236.473C138.307 236.092 137.402 236.379 137.021 237.115C136.64 237.85 136.927 238.756 137.663 239.137L139.043 236.473ZM139.381 240.028C140.117 240.409 141.022 240.121 141.403 239.386C141.784 238.65 141.497 237.745 140.762 237.364L139.381 240.028ZM145.918 240.036C145.182 239.655 144.277 239.942 143.896 240.677C143.515 241.413 143.802 242.318 144.538 242.699L145.918 240.036ZM146.256 243.59C146.992 243.971 147.897 243.684 148.278 242.948C148.659 242.213 148.372 241.308 147.637 240.926L146.256 243.59ZM152.793 243.598C152.057 243.217 151.152 243.504 150.771 244.24C150.39 244.976 150.677 245.881 151.413 246.262L152.793 243.598ZM153.131 247.153C153.867 247.534 154.772 247.246 155.153 246.511C155.534 245.775 155.247 244.87 154.512 244.489L153.131 247.153ZM159.668 247.161C158.932 246.78 158.027 247.067 157.646 247.802C157.265 248.538 157.552 249.443 158.288 249.824L159.668 247.161ZM160.006 250.715C160.742 251.096 161.647 250.809 162.028 250.073C162.409 249.338 162.122 248.433 161.387 248.051L160.006 250.715ZM166.543 250.723C165.807 250.342 164.902 250.629 164.521 251.365C164.14 252.101 164.427 253.006 165.163 253.387L166.543 250.723ZM85.7124 210.744C86.4722 210.414 86.8205 209.53 86.4904 208.771C86.1602 208.011 85.2766 207.662 84.5168 207.993L85.7124 210.744ZM89.6686 205.408C88.9488 205.818 88.6978 206.734 89.108 207.454C89.5182 208.174 90.4342 208.425 91.1539 208.015L89.6686 205.408ZM92.9095 206.975C93.6151 206.54 93.8351 205.616 93.4009 204.911C92.9668 204.205 92.0428 203.985 91.3373 204.419L92.9095 206.975ZM96.1166 201.157C95.4544 201.655 95.321 202.595 95.8188 203.257C96.3165 203.919 97.2568 204.053 97.9191 203.555L96.1166 201.157ZM99.5107 202.323C100.158 201.806 100.265 200.862 99.7484 200.215C99.232 199.567 98.2882 199.461 97.6405 199.977L99.5107 202.323ZM102.037 196.169C101.432 196.735 101.402 197.684 101.968 198.289C102.535 198.893 103.484 198.924 104.088 198.357L102.037 196.169ZM105.546 196.957C106.136 196.375 106.143 195.426 105.561 194.835C104.98 194.245 104.03 194.238 103.44 194.82L105.546 196.957ZM107.441 190.59C106.893 191.21 106.951 192.158 107.572 192.707C108.193 193.255 109.141 193.197 109.69 192.576L107.441 190.59ZM111.001 191.058C111.536 190.425 111.457 189.479 110.825 188.944C110.192 188.409 109.245 188.488 108.711 189.121L111.001 191.058ZM112.344 184.544C111.848 185.208 111.985 186.148 112.649 186.643C113.313 187.139 114.253 187.002 114.748 186.338L112.344 184.544ZM115.942 184.705C116.424 184.032 116.27 183.095 115.596 182.612C114.923 182.13 113.986 182.284 113.503 182.958L115.942 184.705ZM116.778 178.11C116.333 178.809 116.538 179.736 117.237 180.182C117.936 180.627 118.863 180.422 119.308 179.723L116.778 178.11ZM120.362 178.038C120.795 177.332 120.574 176.408 119.868 175.975C119.162 175.542 118.238 175.763 117.805 176.469L120.362 178.038ZM120.746 171.4C120.347 172.126 120.613 173.038 121.34 173.436C122.066 173.834 122.978 173.568 123.376 172.842L120.746 171.4ZM124.326 171.077C124.712 170.345 124.432 169.437 123.7 169.051C122.967 168.664 122.06 168.944 121.673 169.677L124.326 171.077ZM124.294 164.43C123.94 165.179 124.26 166.073 125.01 166.427C125.759 166.781 126.653 166.46 127.006 165.711L124.294 164.43ZM127.854 163.881C128.197 163.127 127.864 162.238 127.11 161.895C126.356 161.552 125.466 161.885 125.123 162.639L127.854 163.881ZM127.44 157.251C127.128 158.019 127.498 158.893 128.265 159.205C129.033 159.516 129.908 159.147 130.219 158.379L127.44 157.251ZM130.957 156.526C131.259 155.754 130.877 154.884 130.106 154.583C129.334 154.281 128.464 154.663 128.163 155.434L130.957 156.526ZM130.196 149.913C129.925 150.696 130.339 151.55 131.122 151.822C131.905 152.093 132.759 151.679 133.031 150.896L130.196 149.913ZM133.668 149.021C133.93 148.235 133.505 147.385 132.719 147.123C131.933 146.862 131.084 147.287 130.822 148.073L133.668 149.021ZM132.58 142.456C132.347 143.251 132.802 144.085 133.597 144.318C134.392 144.551 135.225 144.096 135.458 143.301L132.58 142.456ZM136.007 141.39C136.231 140.593 135.766 139.764 134.968 139.541C134.171 139.317 133.342 139.782 133.118 140.579L136.007 141.39ZM134.612 134.887C134.415 135.691 134.908 136.503 135.713 136.7C136.518 136.896 137.329 136.403 137.526 135.598L134.612 134.887ZM137.988 133.66C138.176 132.853 137.673 132.047 136.867 131.859C136.06 131.672 135.253 132.174 135.066 132.981L137.988 133.66ZM136.305 127.228C136.143 128.04 136.671 128.83 137.484 128.991C138.297 129.152 139.086 128.624 139.247 127.812L136.305 127.228ZM139.625 125.852C139.778 125.038 139.242 124.254 138.428 124.102C137.613 123.949 136.829 124.485 136.677 125.299L139.625 125.852ZM137.671 119.5C137.543 120.318 138.104 121.085 138.922 121.212C139.741 121.34 140.508 120.779 140.635 119.961L137.671 119.5ZM140.932 117.985C141.051 117.165 140.483 116.404 139.663 116.285C138.843 116.166 138.082 116.735 137.963 117.554L140.932 117.985ZM138.72 111.719C138.626 112.542 139.217 113.286 140.04 113.38C140.863 113.475 141.606 112.884 141.701 112.061L138.72 111.719ZM141.919 110.075C142.005 109.251 141.407 108.513 140.583 108.427C139.76 108.34 139.022 108.938 138.935 109.762L141.919 110.075ZM139.464 103.901C139.401 104.727 140.02 105.448 140.846 105.51C141.672 105.573 142.393 104.954 142.455 104.128L139.464 103.901ZM142.597 102.135C142.652 101.308 142.026 100.594 141.2 100.539C140.373 100.484 139.658 101.11 139.604 101.937L142.597 102.135ZM139.911 96.0586C139.879 96.8864 140.524 97.5832 141.352 97.615C142.18 97.6468 142.877 97.0014 142.909 96.1736L139.911 96.0586ZM142.976 94.1783C143 93.3502 142.348 92.6593 141.52 92.6351C140.692 92.611 140.001 93.2626 139.977 94.0907L142.976 94.1783ZM140.069 88.2031C140.067 89.0316 140.738 89.7046 141.566 89.7064C142.394 89.7082 143.067 89.0381 143.069 88.2097L140.069 88.2031ZM143.065 86.2154C143.059 85.387 142.383 84.7199 141.555 84.7255C140.726 84.731 140.059 85.4071 140.065 86.2355L143.065 86.2154ZM139.948 80.3449C139.975 81.1729 140.668 81.822 141.496 81.7947C142.324 81.7674 142.973 81.074 142.946 80.2461L139.948 80.3449ZM142.872 78.2561C142.837 77.4284 142.139 76.7853 141.311 76.8198C140.483 76.8542 139.84 77.5531 139.874 78.3809L142.872 78.2561ZM139.554 72.493C139.609 73.3196 140.325 73.9446 141.151 73.889C141.978 73.8334 142.603 73.1183 142.547 72.2917L139.554 72.493ZM142.405 70.3092C142.343 69.4831 141.622 68.8641 140.796 68.9267C139.97 68.9892 139.351 69.7095 139.414 70.5356L142.405 70.3092ZM138.895 64.6557C138.978 65.4799 139.713 66.0807 140.538 65.9976C141.362 65.9145 141.963 65.1789 141.88 64.3547L138.895 64.6557ZM141.673 62.3823C141.583 61.5588 140.842 60.964 140.019 61.0538C139.195 61.1437 138.6 61.8841 138.69 62.7077L141.673 62.3823ZM137.977 56.84C138.087 57.6611 138.842 58.2377 139.663 58.1278C140.484 58.0179 141.061 57.2632 140.951 56.4421L137.977 56.84ZM140.681 54.4825C140.564 53.6623 139.805 53.0917 138.985 53.2082C138.165 53.3246 137.594 54.0839 137.711 54.9041L140.681 54.4825ZM136.809 49.0547C136.945 49.8719 137.717 50.4242 138.535 50.2883C139.352 50.1523 139.904 49.3797 139.768 48.5625L136.809 49.0547ZM139.437 46.6159C139.294 45.7998 138.517 45.2535 137.701 45.3958C136.885 45.5381 136.339 46.315 136.481 47.1311L139.437 46.6159ZM135.4 41.3293C135.561 42.1419 136.351 42.67 137.163 42.5088C137.976 42.3476 138.504 41.5582 138.343 40.7456L135.4 41.3293ZM137.947 38.7881C137.779 37.9767 136.986 37.4548 136.174 37.6222C135.363 37.7896 134.841 38.583 135.008 39.3944L137.947 38.7881ZM133.754 33.6467C133.94 34.454 134.745 34.9579 135.552 34.7722C136.36 34.5864 136.864 33.7814 136.678 32.974L133.754 33.6467ZM136.222 31.0252C136.03 30.2193 135.221 29.7214 134.415 29.9132C133.609 30.1051 133.111 30.9139 133.303 31.7198L136.222 31.0252ZM131.877 26.0111C132.087 26.8126 132.907 27.2924 133.708 27.0828C134.51 26.8732 134.989 26.0535 134.78 25.2521L131.877 26.0111ZM134.268 23.3252C134.053 22.5253 133.23 22.0515 132.43 22.267C131.63 22.4825 131.156 23.3056 131.371 24.1055L134.268 23.3252ZM129.775 18.4265C130.008 19.2216 130.841 19.6773 131.636 19.4445C132.431 19.2117 132.887 18.3785 132.654 17.5835L129.775 18.4265ZM132.09 15.6803C131.851 14.887 131.015 14.4371 130.221 14.6756C129.428 14.9141 128.978 15.7506 129.217 16.5439L132.09 15.6803ZM127.453 10.8959C127.708 11.684 128.554 12.1159 129.342 11.8606C130.13 11.6052 130.562 10.7594 130.307 9.97127L127.453 10.8959ZM129.691 8.0936C129.43 7.3073 128.581 6.8813 127.795 7.14212C127.009 7.40293 126.583 8.25179 126.844 9.03809L129.691 8.0936ZM124.922 3.44226C125.2 4.22296 126.057 4.63116 126.838 4.35402C127.618 4.07687 128.027 3.21932 127.75 2.43863L124.922 3.44226ZM1.02198 168.332L1.88135 168.778L3.26159 166.114L2.40222 165.669L1.02198 168.332ZM7.0376 171.449L8.75635 172.34L10.1366 169.676L8.41784 168.786L7.0376 171.449ZM13.9126 175.012L15.6313 175.903L17.0116 173.239L15.2928 172.348L13.9126 175.012ZM20.7876 178.574L22.5063 179.465L23.8866 176.801L22.1678 175.911L20.7876 178.574ZM27.6626 182.137L29.3813 183.027L30.7616 180.364L29.0428 179.473L27.6626 182.137ZM34.5376 185.699L36.2564 186.59L37.6366 183.926L35.9178 183.036L34.5376 185.699ZM41.4126 189.262L43.1314 190.152L44.5116 187.489L42.7928 186.598L41.4126 189.262ZM48.2876 192.824L50.0064 193.715L51.3866 191.051L49.6679 190.161L48.2876 192.824ZM55.1626 196.387L56.8814 197.277L58.2616 194.614L56.5429 193.723L55.1626 196.387ZM62.0376 199.949L63.7564 200.84L65.1366 198.176L63.4179 197.286L62.0376 199.949ZM68.9126 203.512L70.6314 204.402L72.0116 201.739L70.2929 200.848L68.9126 203.512ZM75.7876 207.074L77.5064 207.965L78.8866 205.301L77.1679 204.411L75.7876 207.074ZM82.6626 210.637L83.522 211.082L84.9022 208.419L84.0429 207.973L82.6626 210.637ZM83.522 211.082L84.3813 211.527L85.7616 208.864L84.9022 208.419L83.522 211.082ZM89.5376 214.199L91.2563 215.09L92.6366 212.426L90.9178 211.536L89.5376 214.199ZM96.4126 217.762L98.1314 218.652L99.5116 215.989L97.7928 215.098L96.4126 217.762ZM103.288 221.324L105.006 222.215L106.387 219.551L104.668 218.661L103.288 221.324ZM110.163 224.887L111.881 225.778L113.262 223.114L111.543 222.223L110.163 224.887ZM117.038 228.449L118.756 229.34L120.137 226.676L118.418 225.786L117.038 228.449ZM123.913 232.012L125.631 232.903L127.012 230.239L125.293 229.348L123.913 232.012ZM130.788 235.574L132.506 236.465L133.887 233.801L132.168 232.911L130.788 235.574ZM137.663 239.137L139.381 240.028L140.762 237.364L139.043 236.473L137.663 239.137ZM144.538 242.699L146.256 243.59L147.637 240.926L145.918 240.036L144.538 242.699ZM151.413 246.262L153.131 247.153L154.512 244.489L152.793 243.598L151.413 246.262ZM158.288 249.824L160.006 250.715L161.387 248.051L159.668 247.161L158.288 249.824ZM165.163 253.387L166.022 253.832L167.402 251.169L166.543 250.723L165.163 253.387ZM84.7836 211.137C85.0938 211.009 85.4034 210.878 85.7124 210.744L84.5168 207.993C84.2251 208.119 83.9331 208.243 83.6406 208.364L84.7836 211.137ZM91.1539 208.015C91.7418 207.68 92.327 207.333 92.9095 206.975L91.3373 204.419C90.7831 204.761 90.2268 205.09 89.6686 205.408L91.1539 208.015ZM97.9191 203.555C98.4524 203.154 98.983 202.743 99.5107 202.323L97.6405 199.977C97.1348 200.38 96.6269 200.773 96.1166 201.157L97.9191 203.555ZM104.088 198.357C104.577 197.899 105.063 197.432 105.546 196.957L103.44 194.82C102.975 195.278 102.507 195.728 102.037 196.169L104.088 198.357ZM109.69 192.576C110.13 192.077 110.567 191.571 111.001 191.058L108.711 189.121C108.29 189.618 107.867 190.107 107.441 190.59L109.69 192.576ZM114.748 186.338C115.149 185.8 115.547 185.256 115.942 184.705L113.503 182.958C113.12 183.493 112.733 184.022 112.344 184.544L114.748 186.338ZM119.308 179.723C119.663 179.167 120.014 178.605 120.362 178.038L117.805 176.469C117.466 177.022 117.123 177.569 116.778 178.11L119.308 179.723ZM123.376 172.842C123.696 172.259 124.012 171.671 124.326 171.077L121.673 169.677C121.367 170.256 121.058 170.831 120.746 171.4L123.376 172.842ZM127.006 165.711C127.292 165.106 127.575 164.496 127.854 163.881L125.123 162.639C124.85 163.241 124.573 163.838 124.294 164.43L127.006 165.711ZM130.219 158.379C130.468 157.765 130.714 157.148 130.957 156.526L128.163 155.434C127.925 156.044 127.684 156.65 127.44 157.251L130.219 158.379ZM133.031 150.896C133.246 150.275 133.459 149.649 133.668 149.021L130.822 148.073C130.616 148.69 130.408 149.303 130.196 149.913L133.031 150.896ZM135.458 143.301C135.644 142.667 135.827 142.03 136.007 141.39L133.118 140.579C132.942 141.208 132.762 141.834 132.58 142.456L135.458 143.301ZM137.526 135.598C137.683 134.955 137.837 134.309 137.988 133.66L135.066 132.981C134.917 133.619 134.766 134.254 134.612 134.887L137.526 135.598ZM139.247 127.812C139.376 127.161 139.502 126.508 139.625 125.852L136.677 125.299C136.556 125.945 136.432 126.588 136.305 127.228L139.247 127.812ZM140.635 119.961C140.737 119.305 140.836 118.646 140.932 117.985L137.963 117.554C137.869 118.205 137.771 118.854 137.671 119.5L140.635 119.961ZM141.701 112.061C141.777 111.401 141.849 110.739 141.919 110.075L138.935 109.762C138.867 110.417 138.795 111.069 138.72 111.719L141.701 112.061ZM142.455 104.128C142.506 103.466 142.553 102.801 142.597 102.135L139.604 101.937C139.56 102.593 139.514 103.248 139.464 103.901L142.455 104.128ZM142.909 96.1736C142.934 95.5104 142.956 94.8453 142.976 94.1783L139.977 94.0907C139.958 94.7486 139.936 95.4045 139.911 96.0586L142.909 96.1736ZM143.069 88.2097C143.071 87.5467 143.069 86.8819 143.065 86.2154L140.065 86.2355C140.069 86.8931 140.071 87.549 140.069 88.2031L143.069 88.2097ZM142.946 80.2461C142.924 79.5843 142.9 78.921 142.872 78.2561L139.874 78.3809C139.902 79.0371 139.926 79.6918 139.948 80.3449L142.946 80.2461ZM142.547 72.2917C142.503 71.6323 142.455 70.9714 142.405 70.3092L139.414 70.5356C139.463 71.1895 139.51 71.842 139.554 72.493L142.547 72.2917ZM141.88 64.3547C141.813 63.6985 141.744 63.041 141.673 62.3823L138.69 62.7077C138.761 63.3583 138.829 64.0076 138.895 64.6557L141.88 64.3547ZM140.951 56.4421C140.864 55.7901 140.774 55.1368 140.681 54.4825L137.711 54.9041C137.802 55.5506 137.891 56.1959 137.977 56.84L140.951 56.4421ZM139.768 48.5625C139.66 47.9147 139.55 47.2658 139.437 46.6159L136.481 47.1311C136.593 47.7734 136.702 48.4146 136.809 49.0547L139.768 48.5625ZM138.343 40.7456C138.213 40.0941 138.081 39.4416 137.947 38.7881L135.008 39.3944C135.142 40.0403 135.272 40.6853 135.4 41.3293L138.343 40.7456ZM136.678 32.974C136.529 32.3253 136.377 31.6757 136.222 31.0252L133.303 31.7198C133.456 32.363 133.607 33.0053 133.754 33.6467L136.678 32.974ZM134.78 25.2521C134.612 24.6106 134.441 23.9683 134.268 23.3252L131.371 24.1055C131.543 24.7415 131.711 25.3767 131.877 26.0111L134.78 25.2521ZM132.654 17.5835C132.469 16.9498 132.28 16.3154 132.09 15.6803L129.217 16.5439C129.405 17.1722 129.592 17.7997 129.775 18.4265L132.654 17.5835ZM130.307 9.97127C130.104 9.346 129.899 8.72011 129.691 8.0936L126.844 9.03809C127.049 9.65799 127.252 10.2773 127.453 10.8959L130.307 9.97127ZM127.75 2.43863C127.638 2.12358 127.525 1.80838 127.412 1.49304L124.588 2.50647C124.7 2.81855 124.812 3.13048 124.922 3.44226L127.75 2.43863Z" fill="#282D26"/>
</svg>
