<svg width="225" height="189" viewBox="0 0 225 189" fill="none" xmlns="http://www.w3.org/2000/svg">
<path d="M51.6903 0.668185C50.9547 0.287041 50.0495 0.574337 49.6684 1.30988C49.2872 2.04542 49.5745 2.95067 50.31 3.33181L51.6903 0.668185ZM222.294 93.8234C223.025 94.2134 223.933 93.937 224.323 93.2061C224.713 92.4752 224.437 91.5665 223.706 91.1766L222.294 93.8234ZM133.5 44.75L134.206 43.4266L134.198 43.4223L134.19 43.4182L133.5 44.75ZM11.5063 188.624C12.1268 189.172 13.0748 189.114 13.6236 188.494L22.5674 178.381C23.1162 177.761 23.0581 176.813 22.4375 176.264C21.817 175.715 20.869 175.773 20.3202 176.394L12.3702 185.383L3.38144 177.433C2.7609 176.884 1.81294 176.942 1.2641 177.562C0.715267 178.183 0.773397 179.131 1.39394 179.68L11.5063 188.624ZM51.1694 3.77713C51.905 4.15827 52.8102 3.87098 53.1914 3.13543C53.5725 2.39989 53.2852 1.49464 52.5497 1.1135L51.1694 3.77713ZM57.7059 3.78537C56.9704 3.40423 56.0651 3.69152 55.684 4.42706C55.3028 5.16261 55.5901 6.06786 56.3257 6.449L57.7059 3.78537ZM58.0444 7.33963C58.78 7.72077 59.6852 7.43348 60.0664 6.69794C60.4475 5.96239 60.1602 5.05714 59.4247 4.676L58.0444 7.33963ZM64.5809 7.34787C63.8454 6.96673 62.9401 7.25402 62.559 7.98956C62.1778 8.72511 62.4651 9.63036 63.2007 10.0115L64.5809 7.34787ZM64.9194 10.9021C65.655 11.2833 66.5602 10.996 66.9414 10.2604C67.3225 9.52489 67.0352 8.61964 66.2997 8.2385L64.9194 10.9021ZM71.4559 10.9104C70.7204 10.5292 69.8151 10.8165 69.434 11.5521C69.0528 12.2876 69.3401 13.1929 70.0757 13.574L71.4559 10.9104ZM71.7944 14.4646C72.53 14.8458 73.4352 14.5585 73.8163 13.8229C74.1975 13.0874 73.9102 12.1821 73.1747 11.801L71.7944 14.4646ZM78.3309 14.4729C77.5954 14.0917 76.6901 14.379 76.309 15.1146C75.9278 15.8501 76.2151 16.7554 76.9507 17.1365L78.3309 14.4729ZM78.6694 18.0271C79.405 18.4083 80.3102 18.121 80.6914 17.3854C81.0725 16.6499 80.7852 15.7446 80.0497 15.3635L78.6694 18.0271ZM85.2059 18.0354C84.4704 17.6542 83.5651 17.9415 83.184 18.6771C82.8028 19.4126 83.0901 20.3179 83.8257 20.699L85.2059 18.0354ZM85.5444 21.5896C86.28 21.9708 87.1852 21.6835 87.5664 20.9479C87.9475 20.2124 87.6602 19.3071 86.9247 18.926L85.5444 21.5896ZM92.0809 21.5979C91.3454 21.2167 90.4401 21.504 90.059 22.2396C89.6778 22.9751 89.9651 23.8804 90.7007 24.2615L92.0809 21.5979ZM92.4194 25.1521C93.155 25.5333 94.0602 25.246 94.4413 24.5104C94.8225 23.7749 94.5352 22.8696 93.7997 22.4885L92.4194 25.1521ZM98.9559 25.1604C98.2204 24.7792 97.3151 25.0665 96.934 25.8021C96.5528 26.5376 96.8401 27.4429 97.5757 27.824L98.9559 25.1604ZM99.2944 28.7146C100.03 29.0958 100.935 28.8085 101.316 28.0729C101.697 27.3374 101.41 26.4321 100.675 26.051L99.2944 28.7146ZM105.831 28.7229C105.095 28.3417 104.19 28.629 103.809 29.3646C103.428 30.1001 103.715 31.0054 104.451 31.3865L105.831 28.7229ZM106.169 32.2771C106.905 32.6583 107.81 32.371 108.191 31.6354C108.572 30.8999 108.285 29.9946 107.55 29.6135L106.169 32.2771ZM112.706 32.2854C111.97 31.9042 111.065 32.1915 110.684 32.9271C110.303 33.6626 110.59 34.5679 111.326 34.949L112.706 32.2854ZM113.044 35.8396C113.78 36.2208 114.685 35.9335 115.066 35.1979C115.447 34.4624 115.16 33.5571 114.425 33.176L113.044 35.8396ZM119.581 35.8479C118.845 35.4667 117.94 35.754 117.559 36.4896C117.178 37.2251 117.465 38.1304 118.201 38.5115L119.581 35.8479ZM119.919 39.4021C120.655 39.7833 121.56 39.496 121.941 38.7604C122.322 38.0249 122.035 37.1196 121.3 36.7385L119.919 39.4021ZM126.456 39.4104C125.72 39.0292 124.815 39.3165 124.434 40.0521C124.053 40.7876 124.34 41.6929 125.076 42.074L126.456 39.4104ZM126.794 42.9646C127.53 43.3458 128.435 43.0585 128.816 42.3229C129.197 41.5874 128.91 40.6821 128.175 40.301L126.794 42.9646ZM133.331 42.9729C132.595 42.5917 131.69 42.879 131.309 43.6146C130.928 44.3501 131.215 45.2554 131.951 45.6365L133.331 42.9729ZM133.655 46.5326C134.386 46.9225 135.294 46.6461 135.684 45.9152C136.074 45.1843 135.798 44.2757 135.067 43.8857L133.655 46.5326ZM140.23 46.6405C139.499 46.2506 138.591 46.527 138.201 47.2579C137.811 47.9888 138.087 48.8974 138.818 49.2874L140.23 46.6405ZM140.539 50.2056C141.27 50.5956 142.179 50.3192 142.569 49.5883C142.959 48.8574 142.682 47.9487 141.951 47.5588L140.539 50.2056ZM147.115 50.3136C146.384 49.9236 145.475 50.2 145.085 50.9309C144.695 51.6619 144.972 52.5705 145.703 52.9604L147.115 50.3136ZM147.424 53.8787C148.155 54.2687 149.063 53.9923 149.453 53.2614C149.843 52.5305 149.567 51.6218 148.836 51.2319L147.424 53.8787ZM153.999 53.9867C153.269 53.5967 152.36 53.8731 151.97 54.604C151.58 55.3349 151.856 56.2436 152.587 56.6335L153.999 53.9867ZM154.308 57.5518C155.039 57.9417 155.948 57.6653 156.338 56.9344C156.728 56.2035 156.452 55.2949 155.721 54.9049L154.308 57.5518ZM160.884 57.6597C160.153 57.2698 159.245 57.5462 158.855 58.2771C158.465 59.008 158.741 59.9166 159.472 60.3066L160.884 57.6597ZM161.193 61.2249C161.924 61.6148 162.833 61.3384 163.223 60.6075C163.613 59.8766 163.336 58.968 162.605 58.578L161.193 61.2249ZM167.769 61.3328C167.038 60.9429 166.129 61.2193 165.739 61.9502C165.349 62.6811 165.626 63.5897 166.357 63.9797L167.769 61.3328ZM168.078 64.8979C168.809 65.2879 169.717 65.0115 170.107 64.2806C170.497 63.5497 170.221 62.641 169.49 62.2511L168.078 64.8979ZM174.653 65.0059C173.922 64.6159 173.014 64.8923 172.624 65.6233C172.234 66.3542 172.51 67.2628 173.241 67.6528L174.653 65.0059ZM174.962 68.571C175.693 68.961 176.602 68.6846 176.992 67.9537C177.382 67.2228 177.105 66.3141 176.374 65.9242L174.962 68.571ZM181.538 68.679C180.807 68.289 179.898 68.5654 179.508 69.2963C179.118 70.0272 179.395 70.9359 180.126 71.3258L181.538 68.679ZM181.847 72.2441C182.578 72.6341 183.486 72.3577 183.876 71.6267C184.266 70.8958 183.99 69.9872 183.259 69.5972L181.847 72.2441ZM188.422 72.3521C187.692 71.9621 186.783 72.2385 186.393 72.9694C186.003 73.7003 186.279 74.609 187.01 74.9989L188.422 72.3521ZM188.731 75.9172C189.462 76.3071 190.371 76.0307 190.761 75.2998C191.151 74.5689 190.875 73.6603 190.144 73.2703L188.731 75.9172ZM195.307 76.0251C194.576 75.6352 193.668 75.9116 193.278 76.6425C192.888 77.3734 193.164 78.282 193.895 78.672L195.307 76.0251ZM195.616 79.5903C196.347 79.9802 197.256 79.7038 197.646 78.9729C198.036 78.242 197.759 77.3334 197.028 76.9434L195.616 79.5903ZM202.192 79.6982C201.461 79.3083 200.552 79.5847 200.162 80.3156C199.772 81.0465 200.049 81.9551 200.78 82.3451L202.192 79.6982ZM202.501 83.2633C203.232 83.6533 204.14 83.3769 204.53 82.646C204.92 81.9151 204.644 81.0064 203.913 80.6165L202.501 83.2633ZM209.076 83.3713C208.345 82.9813 207.437 83.2577 207.047 83.9886C206.657 84.7196 206.933 85.6282 207.664 86.0182L209.076 83.3713ZM209.385 86.9364C210.116 87.3264 211.025 87.05 211.415 86.3191C211.805 85.5882 211.528 84.6795 210.797 84.2896L209.385 86.9364ZM215.961 87.0444C215.23 86.6544 214.321 86.9308 213.931 87.6617C213.541 88.3926 213.818 89.3013 214.549 89.6912L215.961 87.0444ZM216.27 90.6095C217.001 90.9995 217.909 90.7231 218.299 89.9921C218.689 89.2612 218.413 88.3526 217.682 87.9626L216.27 90.6095ZM222.846 90.7175C222.115 90.3275 221.206 90.6039 220.816 91.3348C220.426 92.0657 220.702 92.9743 221.433 93.3643L222.846 90.7175ZM13.9392 186.399C13.8949 185.572 13.1884 184.937 12.3612 184.981C11.534 185.025 10.8992 185.732 10.9435 186.559L13.9392 186.399ZM10.7601 180.455C10.7652 181.284 11.441 181.951 12.2694 181.946C13.0978 181.941 13.7652 181.265 13.76 180.437L10.7601 180.455ZM13.7638 178.443C13.7721 177.614 13.1074 176.936 12.279 176.928C11.4506 176.919 10.7723 177.584 10.764 178.413L13.7638 178.443ZM10.9772 172.315C10.9273 173.142 11.5573 173.852 12.3842 173.902C13.2112 173.952 13.9219 173.322 13.9717 172.495L10.9772 172.315ZM14.1094 170.497C14.1736 169.671 13.556 168.95 12.7301 168.885C11.9041 168.821 11.1826 169.439 11.1184 170.265L14.1094 170.497ZM11.7501 164.193C11.6426 165.015 12.2214 165.768 13.0428 165.875C13.8642 165.983 14.6173 165.404 14.7248 164.583L11.7501 164.193ZM15.0024 162.6C15.1247 161.781 14.5597 161.018 13.7403 160.895C12.921 160.773 12.1576 161.338 12.0353 162.157L15.0024 162.6ZM13.1021 156.138C12.9352 156.95 13.4578 157.743 14.2692 157.91C15.0806 158.077 15.8737 157.554 16.0406 156.743L13.1021 156.138ZM16.46 154.795C16.6419 153.987 16.1342 153.184 15.326 153.002C14.5177 152.82 13.7151 153.328 13.5332 154.136L16.46 154.795ZM15.0425 148.207C14.8158 149.004 15.2779 149.833 16.0747 150.06C16.8715 150.287 17.7012 149.825 17.928 149.028L15.0425 148.207ZM18.4889 147.124C18.7305 146.332 18.2839 145.494 17.4915 145.252C16.6991 145.01 15.8609 145.457 15.6193 146.249L18.4889 147.124ZM17.5683 140.446C17.2826 141.224 17.6814 142.086 18.459 142.371C19.2367 142.657 20.0986 142.258 20.3843 141.48L17.5683 140.446ZM21.084 139.629C21.3841 138.857 21.0014 137.988 20.2292 137.688C19.4571 137.388 18.5878 137.77 18.2878 138.543L21.084 139.629ZM20.664 132.899C20.3215 133.653 20.6553 134.542 21.4096 134.885C22.1639 135.227 23.0531 134.894 23.3956 134.139L20.664 132.899ZM24.231 132.343C24.5873 131.595 24.2697 130.7 23.5218 130.344C22.7739 129.988 21.8788 130.305 21.5226 131.053L24.231 132.343ZM24.3023 125.603C23.9062 126.33 24.1749 127.241 24.9025 127.637C25.6301 128.033 26.541 127.765 26.9371 127.037L24.3023 125.603ZM27.9049 125.297C28.3138 124.576 28.0613 123.66 27.3408 123.252C26.6204 122.843 25.7048 123.095 25.2959 123.816L27.9049 125.297ZM28.4522 118.578C28.0065 119.276 28.2112 120.204 28.9095 120.649C29.6078 121.095 30.5352 120.89 30.9809 120.192L28.4522 118.578ZM32.0652 118.525C32.5227 117.834 32.3336 116.903 31.643 116.446C30.9523 115.988 30.0215 116.178 29.5641 116.868L32.0652 118.525ZM33.0641 111.858C32.5732 112.525 32.7163 113.464 33.3837 113.955C34.0511 114.446 34.99 114.303 35.4808 113.635L33.0641 111.858ZM36.6715 112.043C37.1728 111.384 37.0447 110.442 36.3852 109.941C35.7257 109.44 34.7846 109.568 34.2833 110.227L36.6715 112.043ZM38.0919 105.452C37.5606 106.088 37.6453 107.034 38.281 107.565C38.9167 108.096 39.8627 108.012 40.3939 107.376L38.0919 105.452ZM41.6811 105.859C42.2217 105.231 42.151 104.284 41.5232 103.743C40.8955 103.203 39.9484 103.273 39.4078 103.901L41.6811 105.859ZM43.4894 99.3636C42.9224 99.9676 42.9524 100.917 43.5564 101.484C44.1604 102.051 45.1097 102.021 45.6767 101.417L43.4894 99.3636ZM47.0514 99.9725C47.6266 99.3764 47.6097 98.4268 47.0135 97.8515C46.4174 97.2763 45.4678 97.2932 44.8926 97.8894L47.0514 99.9725ZM49.2143 93.5864C48.6158 94.1593 48.5951 95.1088 49.168 95.7073C49.7409 96.3057 50.6904 96.3264 51.2888 95.7535L49.2143 93.5864ZM52.7383 94.3835C53.3439 93.8182 53.3767 92.8691 52.8114 92.2634C52.2462 91.6578 51.297 91.625 50.6914 92.1903L52.7383 94.3835ZM55.2226 88.1149C54.5967 88.6577 54.5294 89.6051 55.0722 90.2309C55.6149 90.8568 56.5623 90.9241 57.1881 90.3813L55.2226 88.1149ZM58.7025 89.0834C59.3346 88.5479 59.413 87.6014 58.8776 86.9693C58.3421 86.3372 57.3956 86.2588 56.7635 86.7943L58.7025 89.0834ZM61.4764 82.9372C60.8267 83.4512 60.7167 84.3945 61.2307 85.0443C61.7446 85.6939 62.688 85.804 63.3377 85.29L61.4764 82.9372ZM64.9105 84.0593C65.5657 83.5523 65.6858 82.6102 65.1788 81.955C64.6718 81.2999 63.7296 81.1798 63.0745 81.6868L64.9105 84.0593ZM67.9439 78.0377C67.2735 78.5244 67.1246 79.4624 67.6113 80.1328C68.098 80.8031 69.036 80.9521 69.7064 80.4654L67.9439 78.0377ZM71.3318 79.2975C72.0069 78.8174 72.165 77.8809 71.6849 77.2058C71.2048 76.5307 70.2683 76.3726 69.5932 76.8527L71.3318 79.2975ZM74.5993 73.3985C73.911 73.8595 73.7267 74.7911 74.1877 75.4795C74.6487 76.1678 75.5804 76.3521 76.2687 75.8911L74.5993 73.3985ZM77.9345 74.7863C78.6269 74.3315 78.8196 73.4014 78.3647 72.709C77.9099 72.0166 76.9799 71.824 76.2875 72.2788L77.9345 74.7863ZM81.4112 69.0076C80.7074 69.4445 80.491 70.3692 80.9279 71.0731C81.3648 71.7769 82.2896 71.9933 82.9934 71.5564L81.4112 69.0076ZM84.6929 70.511C85.4003 70.0798 85.6242 69.1568 85.193 68.4494C84.7618 67.7421 83.8388 67.5182 83.1315 67.9494L84.6929 70.511ZM88.3549 64.8494C87.6376 65.264 87.3922 66.1815 87.8068 66.8987C88.2213 67.616 89.1388 67.8614 89.856 67.4468L88.3549 64.8494ZM91.6008 66.4471C92.3211 66.0379 92.5734 65.1223 92.1642 64.402C91.755 63.6817 90.8394 63.4294 90.119 63.8386L91.6008 66.4471ZM95.4312 60.8961C94.7024 61.2899 94.4307 62.2 94.8245 62.9288C95.2183 63.6577 96.1284 63.9293 96.8572 63.5355L95.4312 60.8961ZM98.6218 62.5899C99.3533 62.201 99.631 61.2928 99.2422 60.5613C98.8533 59.8298 97.9451 59.552 97.2136 59.9409L98.6218 62.5899ZM102.6 57.1446C101.861 57.5193 101.566 58.4221 101.94 59.1609C102.315 59.8997 103.218 60.1949 103.957 59.8201L102.6 57.1446ZM105.741 58.9218C106.482 58.5516 106.783 57.6506 106.413 56.9096C106.042 56.1685 105.141 55.8679 104.4 56.2381L105.741 58.9218ZM109.853 53.5732C109.106 53.9306 108.79 54.8262 109.147 55.5735C109.505 56.3209 110.4 56.637 111.147 56.2796L109.853 53.5732ZM112.967 55.4157C113.716 55.0624 114.037 54.1685 113.683 53.4192C113.33 52.6699 112.436 52.3489 111.687 52.7023L112.967 55.4157ZM117.19 50.1587C116.436 50.5007 116.101 51.3896 116.443 52.1441C116.785 52.8987 117.674 53.2332 118.429 52.8912L117.19 50.1587ZM120.241 52.0752C120.997 51.7368 121.335 50.8495 120.997 50.0933C120.658 49.3372 119.771 48.9986 119.015 49.337L120.241 52.0752ZM124.573 46.8935C123.812 47.2221 123.462 48.105 123.791 48.8655C124.119 49.6259 125.002 49.976 125.763 49.6474L124.573 46.8935ZM127.617 48.8504C128.379 48.5247 128.732 47.6432 128.407 46.8815C128.081 46.1197 127.2 45.7662 126.438 46.0919L127.617 48.8504ZM132.011 43.7437C131.246 44.0616 130.884 44.9395 131.202 45.7045C131.52 46.4695 132.398 46.8319 133.163 46.5139L132.011 43.7437ZM50.31 3.33181L51.1694 3.77713L52.5497 1.1135L51.6903 0.668185L50.31 3.33181ZM56.3257 6.449L58.0444 7.33963L59.4247 4.676L57.7059 3.78537L56.3257 6.449ZM63.2007 10.0115L64.9194 10.9021L66.2997 8.2385L64.5809 7.34787L63.2007 10.0115ZM70.0757 13.574L71.7944 14.4646L73.1747 11.801L71.4559 10.9104L70.0757 13.574ZM76.9507 17.1365L78.6694 18.0271L80.0497 15.3635L78.3309 14.4729L76.9507 17.1365ZM83.8257 20.699L85.5444 21.5896L86.9247 18.926L85.2059 18.0354L83.8257 20.699ZM90.7007 24.2615L92.4194 25.1521L93.7997 22.4885L92.0809 21.5979L90.7007 24.2615ZM97.5757 27.824L99.2944 28.7146L100.675 26.051L98.9559 25.1604L97.5757 27.824ZM104.451 31.3865L106.169 32.2771L107.55 29.6135L105.831 28.7229L104.451 31.3865ZM111.326 34.949L113.044 35.8396L114.425 33.176L112.706 32.2854L111.326 34.949ZM118.201 38.5115L119.919 39.4021L121.3 36.7385L119.581 35.8479L118.201 38.5115ZM125.076 42.074L126.794 42.9646L128.175 40.301L126.456 39.4104L125.076 42.074ZM131.951 45.6365L132.81 46.0818L134.19 43.4182L133.331 42.9729L131.951 45.6365ZM132.794 46.0734L133.655 46.5326L135.067 43.8857L134.206 43.4266L132.794 46.0734ZM138.818 49.2874L140.539 50.2056L141.951 47.5588L140.23 46.6405L138.818 49.2874ZM145.703 52.9604L147.424 53.8787L148.836 51.2319L147.115 50.3136L145.703 52.9604ZM152.587 56.6335L154.308 57.5518L155.721 54.9049L153.999 53.9867L152.587 56.6335ZM159.472 60.3066L161.193 61.2249L162.605 58.578L160.884 57.6597L159.472 60.3066ZM166.357 63.9797L168.078 64.8979L169.49 62.2511L167.769 61.3328L166.357 63.9797ZM173.241 67.6528L174.962 68.571L176.374 65.9242L174.653 65.0059L173.241 67.6528ZM180.126 71.3258L181.847 72.2441L183.259 69.5972L181.538 68.679L180.126 71.3258ZM187.01 74.9989L188.731 75.9172L190.144 73.2703L188.422 72.3521L187.01 74.9989ZM193.895 78.672L195.616 79.5903L197.028 76.9434L195.307 76.0251L193.895 78.672ZM200.78 82.3451L202.501 83.2633L203.913 80.6165L202.192 79.6982L200.78 82.3451ZM207.664 86.0182L209.385 86.9364L210.797 84.2896L209.076 83.3713L207.664 86.0182ZM214.549 89.6912L216.27 90.6095L217.682 87.9626L215.961 87.0444L214.549 89.6912ZM221.433 93.3643L222.294 93.8234L223.706 91.1766L222.846 90.7175L221.433 93.3643ZM13.9972 187.408C13.9765 187.071 13.9572 186.734 13.9392 186.399L10.9435 186.559C10.9619 186.903 10.9817 187.247 11.0028 187.592L13.9972 187.408ZM13.76 180.437C13.7559 179.769 13.7571 179.104 13.7638 178.443L10.764 178.413C10.7571 179.09 10.7558 179.771 10.7601 180.455L13.76 180.437ZM13.9717 172.495C14.012 171.826 14.058 171.16 14.1094 170.497L11.1184 170.265C11.0656 170.945 11.0185 171.628 10.9772 172.315L13.9717 172.495ZM14.7248 164.583C14.8117 163.919 14.9042 163.258 15.0024 162.6L12.0353 162.157C11.9345 162.833 11.8394 163.511 11.7501 164.193L14.7248 164.583ZM16.0406 156.743C16.1748 156.09 16.3147 155.441 16.46 154.795L13.5332 154.136C13.3838 154.8 13.2401 155.468 13.1021 156.138L16.0406 156.743ZM17.928 149.028C18.1095 148.39 18.2965 147.755 18.4889 147.124L15.6193 146.249C15.4215 146.898 15.2292 147.551 15.0425 148.207L17.928 149.028ZM20.3843 141.48C20.6123 140.86 20.8456 140.243 21.084 139.629L18.2878 138.543C18.0426 139.173 17.8027 139.808 17.5683 140.446L20.3843 141.48ZM23.3956 134.139C23.669 133.537 23.9476 132.938 24.231 132.343L21.5226 131.053C21.2312 131.665 20.945 132.28 20.664 132.899L23.3956 134.139ZM26.9371 127.037C27.2549 126.453 27.5776 125.873 27.9049 125.297L25.2959 123.816C24.9599 124.408 24.6286 125.003 24.3023 125.603L26.9371 127.037ZM30.9809 120.192C31.338 119.633 31.6994 119.077 32.0652 118.525L29.5641 116.868C29.189 117.434 28.8184 118.004 28.4522 118.578L30.9809 120.192ZM35.4808 113.635C35.8737 113.101 36.2706 112.57 36.6715 112.043L34.2833 110.227C33.8728 110.767 33.4664 111.311 33.0641 111.858L35.4808 113.635ZM40.3939 107.376C40.8193 106.867 41.2484 106.361 41.6811 105.859L39.4078 103.901C38.9656 104.415 38.5269 104.932 38.0919 105.452L40.3939 107.376ZM45.6767 101.417C46.1317 100.932 46.59 100.451 47.0514 99.9725L44.8926 97.8894C44.4217 98.3773 43.9539 98.8688 43.4894 99.3636L45.6767 101.417ZM51.2888 95.7535C51.7692 95.2936 52.2524 94.837 52.7383 94.3835L50.6914 92.1903C50.1963 92.6523 49.7039 93.1177 49.2143 93.5864L51.2888 95.7535ZM57.1881 90.3813C57.6906 89.9456 58.1954 89.5129 58.7025 89.0834L56.7635 86.7943C56.2476 87.2312 55.7339 87.6714 55.2226 88.1149L57.1881 90.3813ZM63.3377 85.29C63.8601 84.8767 64.3844 84.4665 64.9105 84.0593L63.0745 81.6868C62.54 82.1004 62.0072 82.5172 61.4764 82.9372L63.3377 85.29ZM69.7064 80.4654C70.2467 80.0731 70.7886 79.6838 71.3318 79.2975L69.5932 76.8527C69.0421 77.2446 68.4923 77.6396 67.9439 78.0377L69.7064 80.4654ZM76.2687 75.8911C76.823 75.5199 77.3783 75.1516 77.9345 74.7863L76.2875 72.2788C75.7239 72.649 75.1611 73.0222 74.5993 73.3985L76.2687 75.8911ZM82.9934 71.5564C83.5594 71.205 84.126 70.8566 84.6929 70.511L83.1315 67.9494C82.5576 68.2991 81.9842 68.6519 81.4112 69.0076L82.9934 71.5564ZM89.856 67.4468C90.4376 67.1107 91.0193 66.7775 91.6008 66.4471L90.119 63.8386C89.5311 64.1726 88.943 64.5095 88.3549 64.8494L89.856 67.4468ZM96.8572 63.5355C97.446 63.2174 98.0342 62.9022 98.6218 62.5899L97.2136 59.9409C96.6202 60.2564 96.026 60.5748 95.4312 60.8961L96.8572 63.5355ZM103.957 59.8201C104.553 59.5178 105.148 59.2184 105.741 58.9218L104.4 56.2381C103.801 56.5373 103.201 56.8395 102.6 57.1446L103.957 59.8201ZM111.147 56.2796C111.756 55.9886 112.362 55.7007 112.967 55.4157L111.687 52.7023C111.078 52.9896 110.466 53.2798 109.853 53.5732L111.147 56.2796ZM118.429 52.8912C119.035 52.6163 119.639 52.3443 120.241 52.0752L119.015 49.337C118.41 49.6079 117.801 49.8818 117.19 50.1587L118.429 52.8912ZM125.763 49.6474C126.385 49.3785 127.003 49.1128 127.617 48.8504L126.438 46.0919C125.821 46.3558 125.199 46.623 124.573 46.8935L125.763 49.6474ZM133.163 46.5139C133.468 46.3871 133.771 46.2611 134.074 46.1359L132.926 43.3641C132.623 43.4898 132.318 43.6163 132.011 43.7437L133.163 46.5139Z" fill="#282D26"/>
</svg>
