<svg width="270" height="271" viewBox="0 0 270 271" fill="none" xmlns="http://www.w3.org/2000/svg">
<path d="M268.55 135.454C268.55 209.467 208.753 269.457 135 269.457C61.247 269.457 1.45 209.467 1.45 135.454C1.45 61.4409 61.247 1.45 135 1.45C208.753 1.45 268.55 61.4409 268.55 135.454Z" fill="#C1CB8F" stroke="#282D26" stroke-width="2.9"/>
<path d="M135 249.66C197.909 249.66 248.907 198.663 248.907 135.754C248.907 72.845 197.909 21.8473 135 21.8473C72.0914 21.8473 21.0938 72.845 21.0938 135.754C21.0938 198.663 72.0914 249.66 135 249.66Z" fill="white" stroke="#282D26" stroke-width="2.9" stroke-miterlimit="10"/>
<path d="M135 23.2531V40.1281" stroke="#263238" stroke-width="2" stroke-miterlimit="10" stroke-linecap="round"/>
<path d="M135 229.973V246.848" stroke="#263238" stroke-width="2" stroke-miterlimit="10" stroke-linecap="round"/>
<path d="M246.094 134.347H229.219" stroke="#263238" stroke-width="2" stroke-miterlimit="10" stroke-linecap="round"/>
<path d="M40.7813 134.347H23.9062" stroke="#263238" stroke-width="2" stroke-miterlimit="10" stroke-linecap="round"/>
<path d="M194.063 40.1286L184.219 54.1911" stroke="#263238" stroke-width="2" stroke-miterlimit="10" stroke-linecap="round"/>
<path d="M85.7802 215.91L77.3427 229.972" stroke="#263238" stroke-width="2" stroke-miterlimit="10" stroke-linecap="round"/>
<path d="M233.438 82.3161L217.969 89.3473" stroke="#263238" stroke-width="2" stroke-miterlimit="10" stroke-linecap="round"/>
<path d="M52.0313 179.348L37.9688 187.785" stroke="#263238" stroke-width="2" stroke-miterlimit="10" stroke-linecap="round"/>
<path d="M229.219 193.409L215.156 184.972" stroke="#263238" stroke-width="2" stroke-miterlimit="10" stroke-linecap="round"/>
<path d="M54.8428 85.1281L40.7803 76.6906" stroke="#263238" stroke-width="2" stroke-miterlimit="10" stroke-linecap="round"/>
<path d="M188.438 232.784L180 218.722" stroke="#263238" stroke-width="2" stroke-miterlimit="10" stroke-linecap="round"/>
<path d="M89.999 51.3781L81.5615 37.3156" stroke="#263238" stroke-width="2" stroke-miterlimit="10" stroke-linecap="round"/>
<path d="M82.1571 97.7V100.223H86.7391V118H89.6101V97.7H82.1571ZM109.843 118.174C112.598 118.174 114.889 117.014 116.107 114.868L113.99 113.534C113.004 115.042 111.496 115.738 109.814 115.738C106.798 115.738 104.536 113.65 104.536 110.315C104.536 107.038 106.798 104.921 109.814 104.921C111.496 104.921 113.004 105.617 113.99 107.125L116.107 105.762C114.889 103.616 112.598 102.485 109.843 102.485C105.116 102.485 101.723 105.733 101.723 110.315C101.723 114.897 105.116 118.174 109.843 118.174ZM133.375 110.402C133.375 105.675 130.214 102.485 125.777 102.485C121.34 102.485 118.063 105.762 118.063 110.315C118.063 114.897 121.369 118.174 126.328 118.174C128.88 118.174 130.997 117.304 132.389 115.68L130.852 113.882C129.721 115.129 128.213 115.738 126.415 115.738C123.37 115.738 121.195 113.94 120.847 111.243H133.317C133.346 110.982 133.375 110.634 133.375 110.402ZM125.777 104.834C128.474 104.834 130.417 106.661 130.707 109.242H120.847C121.137 106.632 123.109 104.834 125.777 104.834ZM142.751 102.485C140.286 102.485 137.995 103.181 136.4 104.457L137.56 106.545C138.749 105.53 140.605 104.892 142.432 104.892C145.187 104.892 146.55 106.255 146.55 108.604V109.155H142.142C137.56 109.155 135.965 111.185 135.965 113.65C135.965 116.318 138.169 118.174 141.649 118.174C144.056 118.174 145.767 117.362 146.695 115.97V118H149.334V108.72C149.334 104.515 146.956 102.485 142.751 102.485ZM142.113 116.028C139.996 116.028 138.72 115.071 138.72 113.534C138.72 112.229 139.503 111.156 142.258 111.156H146.55V113.302C145.854 115.071 144.201 116.028 142.113 116.028ZM154.347 118H157.131V111.562H165.889V118H168.673V102.63H165.889V109.155H157.131V102.63H154.347V118ZM180.785 118.174C183.54 118.174 185.831 117.014 187.049 114.868L184.932 113.534C183.946 115.042 182.438 115.738 180.756 115.738C177.74 115.738 175.478 113.65 175.478 110.315C175.478 107.038 177.74 104.921 180.756 104.921C182.438 104.921 183.946 105.617 184.932 107.125L187.049 105.762C185.831 103.616 183.54 102.485 180.785 102.485C176.058 102.485 172.665 105.733 172.665 110.315C172.665 114.897 176.058 118.174 180.785 118.174Z" fill="#282D26"/>
<path d="M76.1944 142.662C70.0784 142.662 65.3264 146.446 65.3264 152.386C65.3264 158.062 69.7264 161.714 75.8424 161.714C79.6704 161.714 82.9264 160.35 84.7304 157.666V158.766C84.7304 166.466 80.7704 170.382 74.5224 170.382C72.2784 170.382 70.2104 169.986 68.5824 168.93L66.9104 172.362C68.8904 173.594 71.6624 174.166 74.5664 174.166C83.1904 174.166 89.1304 168.534 89.1304 158.018C89.1304 148.206 84.4664 142.662 76.1944 142.662ZM76.5904 158.15C72.2784 158.15 69.5944 155.818 69.5944 152.21C69.5944 148.558 72.3664 146.226 76.3704 146.226C81.1664 146.226 83.7184 148.998 83.7184 152.166C83.7184 155.554 80.8144 158.15 76.5904 158.15ZM105.947 174.166C113.119 174.166 118.487 168.446 118.487 158.414C118.487 148.382 113.119 142.662 105.947 142.662C98.7307 142.662 93.3627 148.382 93.3627 158.414C93.3627 168.446 98.7307 174.166 105.947 174.166ZM105.947 170.25C101.107 170.25 97.7627 166.29 97.7627 158.414C97.7627 150.538 101.107 146.578 105.947 146.578C110.743 146.578 114.087 150.538 114.087 158.414C114.087 166.29 110.743 170.25 105.947 170.25ZM144.544 153.144L136.198 167.106L128.086 153.144H124.225V173.814H127.657V158.682L135.301 171.474H136.939L144.661 158.721V173.814H148.054V153.144H144.544ZM155.342 173.814H158.774L171.41 158.76V173.814H175.154V153.144H171.761L159.086 168.198V153.144H155.342V173.814ZM182.421 173.814H186.165V165.156H197.943V173.814H201.687V153.144H197.943V161.919H186.165V153.144H182.421V173.814Z" fill="#282D26"/>
</svg>
