<svg width="134" height="163" viewBox="0 0 134 163" fill="none" xmlns="http://www.w3.org/2000/svg">
<path d="M77.3717 160.429C77.2294 160.963 77.5467 161.511 78.0803 161.653C78.6139 161.795 79.1619 161.478 79.3042 160.944L77.3717 160.429ZM54.5648 4.47731C54.0207 4.38257 53.5028 4.74684 53.4081 5.29094L51.8641 14.1575C51.7694 14.7016 52.1337 15.2195 52.6778 15.3142C53.2219 15.409 53.7397 15.0447 53.8345 14.5006L55.2069 6.61922L63.0883 7.99161C63.6324 8.08636 64.1503 7.72208 64.245 7.17799C64.3398 6.63389 63.9755 6.11601 63.4314 6.02127L54.5648 4.47731ZM54.1425 6.84665C54.459 7.2993 55.0824 7.4097 55.5351 7.09327C55.9877 6.77683 56.0981 6.15337 55.7817 5.70072L54.1425 6.84665ZM59.1015 10.5406C58.7933 10.0823 58.172 9.96059 57.7137 10.2688C57.2554 10.577 57.1337 11.1983 57.4419 11.6566L59.1015 10.5406ZM58.5326 13.2898C58.8378 13.7501 59.4583 13.8759 59.9186 13.5706C60.3789 13.2655 60.5046 12.6449 60.1994 12.1846L58.5326 13.2898ZM63.3966 17.1153C63.101 16.6488 62.4832 16.5101 62.0167 16.8057C61.5501 17.1012 61.4115 17.719 61.707 18.1856L63.3966 17.1153ZM62.7411 19.8316C63.0332 20.3003 63.6499 20.4435 64.1187 20.1515C64.5874 19.8594 64.7307 19.2427 64.4386 18.7739L62.7411 19.8316ZM67.4893 23.8011C67.2086 23.3255 66.5954 23.1676 66.1198 23.4483C65.6442 23.7291 65.4862 24.3422 65.767 24.8178L67.4893 23.8011ZM66.7395 26.4813C67.0162 26.9593 67.628 27.1224 68.1059 26.8457C68.5839 26.569 68.7471 25.9572 68.4704 25.4793L66.7395 26.4813ZM71.3517 30.6153C71.0882 30.1299 70.4812 29.95 69.9958 30.2134C69.5104 30.4769 69.3305 31.0839 69.5939 31.5693L71.3517 30.6153ZM70.5189 33.2935C70.7775 33.7815 71.3828 33.9674 71.8708 33.7087C72.3587 33.45 72.5446 32.8448 72.2859 32.3568L70.5189 33.2935ZM74.9631 37.6007C74.7198 37.1049 74.1206 36.9001 73.6248 37.1434C73.129 37.3867 72.9243 37.9858 73.1675 38.4816L74.9631 37.6007ZM74.008 40.2187C74.2458 40.7171 74.8427 40.9285 75.3411 40.6907C75.8396 40.4529 76.0509 39.856 75.8131 39.3575L74.008 40.2187ZM78.2562 44.717C78.0361 44.2104 77.4471 43.9781 76.9406 44.1982C76.434 44.4182 76.2017 45.0072 76.4218 45.5138L78.2562 44.717ZM77.1883 47.309C77.402 47.8182 77.9881 48.0579 78.4973 47.8442C79.0066 47.6305 79.2462 47.0444 79.0326 46.5352L77.1883 47.309ZM81.2073 52.0141C81.0138 51.4968 80.4376 51.2343 79.9203 51.4278C79.403 51.6213 79.1406 52.1975 79.3341 52.7148L81.2073 52.0141ZM79.9973 54.5252C80.1837 55.0451 80.7563 55.3154 81.2762 55.129C81.796 54.9426 82.0663 54.37 81.8799 53.8502L79.9973 54.5252ZM83.7549 59.4515C83.591 58.9241 83.0306 58.6294 82.5032 58.7933C81.9758 58.9572 81.6811 59.5176 81.845 60.045L83.7549 59.4515ZM82.4068 61.9009C82.5629 62.4307 83.1189 62.7337 83.6486 62.5776C84.1784 62.4215 84.4814 61.8655 84.3253 61.3357L82.4068 61.9009ZM85.8631 67.0293C85.7313 66.4929 85.1898 66.1649 84.6534 66.2966C84.1171 66.4283 83.7891 66.9699 83.9208 67.5063L85.8631 67.0293ZM84.3688 69.3938C84.4921 69.9322 85.0285 70.2686 85.5669 70.1452C86.1052 70.0219 86.4416 69.4855 86.3183 68.9471L84.3688 69.3938ZM87.5007 74.7308C87.4029 74.1873 86.883 73.8259 86.3395 73.9237C85.7959 74.0215 85.4345 74.5414 85.5323 75.085L87.5007 74.7308ZM85.8597 76.9911C85.9489 77.5362 86.463 77.9057 87.0081 77.8165C87.5531 77.7273 87.9227 77.2132 87.8335 76.6682L85.8597 76.9911ZM88.6488 82.5162C88.5855 81.9675 88.0894 81.5741 87.5407 81.6375C86.9921 81.7009 86.5987 82.197 86.662 82.7456L88.6488 82.5162ZM86.8693 84.6716C86.9241 85.2211 87.4141 85.6222 87.9636 85.5674C88.5132 85.5125 88.9142 85.0226 88.8594 84.473L86.8693 84.6716ZM89.3106 90.3587C89.2808 89.8072 88.8096 89.3842 88.2582 89.4139C87.7067 89.4437 87.2837 89.9149 87.3135 90.4663L89.3106 90.3587ZM87.4034 92.3993C87.425 92.9512 87.8899 93.381 88.4418 93.3594C88.9936 93.3378 89.4235 92.8729 89.4019 92.321L87.4034 92.3993ZM89.5061 98.2202C89.5079 97.6679 89.0617 97.2187 88.5095 97.2168C87.9572 97.2149 87.508 97.6612 87.5061 98.2134L89.5061 98.2202ZM87.4864 100.152C87.4771 100.705 87.9172 101.16 88.4694 101.169C89.0216 101.179 89.4768 100.738 89.4861 100.186L87.4864 100.152ZM89.2719 106.074C89.3024 105.523 88.8801 105.051 88.3287 105.021C87.7772 104.99 87.3055 105.412 87.2749 105.964L89.2719 106.074ZM87.1556 107.905C87.1185 108.456 87.535 108.933 88.086 108.97C88.6371 109.007 89.1139 108.59 89.1511 108.039L87.1556 107.905ZM88.6531 113.912C88.7089 113.362 88.3087 112.871 87.7593 112.816C87.2098 112.76 86.7191 113.16 86.6633 113.709L88.6531 113.912ZM86.4577 115.632C86.3962 116.181 86.7912 116.676 87.34 116.738C87.8889 116.799 88.3837 116.404 88.4453 115.855L86.4577 115.632ZM87.7022 121.695C87.7798 121.148 87.3993 120.642 86.8525 120.565C86.3057 120.487 85.7996 120.868 85.722 121.414L87.7022 121.695ZM85.4392 123.346C85.3568 123.892 85.7327 124.402 86.2788 124.484C86.8249 124.567 87.3344 124.191 87.4168 123.645L85.4392 123.346ZM86.467 129.443C86.5628 128.899 86.1996 128.381 85.6557 128.285C85.1118 128.189 84.5931 128.552 84.4973 129.096L86.467 129.443ZM84.1535 131.005C84.0536 131.549 84.413 132.07 84.9561 132.17C85.4993 132.27 86.0206 131.91 86.1205 131.367L84.1535 131.005ZM84.9966 137.138C85.1076 136.597 84.759 136.068 84.2179 135.957C83.6769 135.846 83.1484 136.195 83.0374 136.736L84.9966 137.138ZM82.638 138.652C82.5236 139.192 82.869 139.723 83.4093 139.838C83.9496 139.952 84.4803 139.607 84.5947 139.066L82.638 138.652ZM83.3297 144.799C83.4531 144.26 83.1168 143.724 82.5785 143.601C82.0402 143.477 81.5037 143.813 81.3803 144.352L83.3297 144.799ZM80.9427 146.239C80.8166 146.776 81.1502 147.315 81.6879 147.441C82.2256 147.567 82.7637 147.233 82.8898 146.695L80.9427 146.239ZM81.5095 152.401C81.6429 151.865 81.3166 151.323 80.7806 151.189C80.2447 151.056 79.7021 151.382 79.5687 151.918L81.5095 152.401ZM79.0919 153.817C78.9563 154.352 79.2804 154.896 79.8158 155.032C80.3512 155.167 80.8951 154.843 81.0307 154.308L79.0919 153.817ZM79.5583 159.988C79.6997 159.454 79.3815 158.907 78.8476 158.766C78.3137 158.624 77.7663 158.942 77.6249 159.476L79.5583 159.988ZM53.5753 6.03781C53.7653 6.30788 53.9544 6.57749 54.1425 6.84665L55.7817 5.70072C55.5924 5.42999 55.4023 5.1588 55.2112 4.88717L53.5753 6.03781ZM57.4419 11.6566C57.8092 12.2028 58.1728 12.7472 58.5326 13.2898L60.1994 12.1846C59.8372 11.6383 59.4713 11.0903 59.1015 10.5406L57.4419 11.6566ZM61.707 18.1856C62.0557 18.736 62.4004 19.2846 62.7411 19.8316L64.4386 18.7739C64.0952 18.2227 63.7478 17.6699 63.3966 17.1153L61.707 18.1856ZM65.767 24.8178C66.0953 25.374 66.4194 25.9284 66.7395 26.4813L68.4704 25.4793C68.1475 24.9215 67.8204 24.3621 67.4893 23.8011L65.767 24.8178ZM69.5939 31.5693C69.9067 32.1457 70.2151 32.7204 70.5189 33.2935L72.2859 32.3568C71.979 31.7778 71.6676 31.1973 71.3517 30.6153L69.5939 31.5693ZM73.1675 38.4816C73.4523 39.0621 73.7325 39.6411 74.008 40.2187L75.8131 39.3575C75.5344 38.7733 75.2511 38.1877 74.9631 37.6007L73.1675 38.4816ZM76.4218 45.5138C76.6823 46.1135 76.9378 46.7118 77.1883 47.309L79.0326 46.5352C78.7788 45.9303 78.52 45.3242 78.2562 44.717L76.4218 45.5138ZM79.3341 52.7148C79.5602 53.3193 79.7813 53.9227 79.9973 54.5252L81.8799 53.8502C81.6608 53.239 81.4366 52.627 81.2073 52.0141L79.3341 52.7148ZM81.845 60.045C82.0375 60.6643 82.2248 61.2829 82.4068 61.9009L84.3253 61.3357C84.1404 60.7082 83.9503 60.0802 83.7549 59.4515L81.845 60.045ZM83.9208 67.5063C84.0754 68.1357 84.2247 68.7649 84.3688 69.3938L86.3183 68.9471C86.1718 68.3081 86.0201 67.6688 85.8631 67.0293L83.9208 67.5063ZM85.5323 75.085C85.6466 75.7202 85.7557 76.3556 85.8597 76.9911L87.8335 76.6682C87.7278 76.0222 87.6169 75.3765 87.5007 74.7308L85.5323 75.085ZM86.662 82.7456C86.7361 83.387 86.8052 84.0289 86.8693 84.6716L88.8594 84.473C88.7943 83.8201 88.7241 83.1679 88.6488 82.5162L86.662 82.7456ZM87.3135 90.4663C87.3481 91.1096 87.3781 91.7539 87.4034 92.3993L89.4019 92.321C89.3762 91.6659 89.3458 91.0118 89.3106 90.3587L87.3135 90.4663ZM87.5061 98.2134C87.5039 98.8583 87.4974 99.5047 87.4864 100.152L89.4861 100.186C89.4972 99.5295 89.5039 98.8742 89.5061 98.2202L87.5061 98.2134ZM87.2749 105.964C87.2392 106.609 87.1994 107.256 87.1556 107.905L89.1511 108.039C89.1954 107.383 89.2357 106.728 89.2719 106.074L87.2749 105.964ZM86.6633 113.709C86.5984 114.348 86.5298 114.989 86.4577 115.632L88.4453 115.855C88.5182 115.205 88.5874 114.558 88.6531 113.912L86.6633 113.709ZM85.722 121.414C85.6311 122.056 85.5368 122.7 85.4392 123.346L87.4168 123.645C87.5153 122.993 87.6104 122.343 87.7022 121.695L85.722 121.414ZM84.4973 129.096C84.3856 129.73 84.271 130.367 84.1535 131.005L86.1205 131.367C86.2389 130.724 86.3544 130.082 86.467 129.443L84.4973 129.096ZM83.0374 136.736C82.9069 137.372 82.7737 138.011 82.638 138.652L84.5947 139.066C84.7312 138.421 84.8652 137.778 84.9966 137.138L83.0374 136.736ZM81.3803 144.352C81.2367 144.978 81.0908 145.607 80.9427 146.239L82.8898 146.695C83.0387 146.061 83.1854 145.428 83.3297 144.799L81.3803 144.352ZM79.5687 151.918C79.4118 152.549 79.2529 153.181 79.0919 153.817L81.0307 154.308C81.1923 153.67 81.3519 153.034 81.5095 152.401L79.5687 151.918ZM77.6249 159.476C77.541 159.793 77.4565 160.111 77.3717 160.429L79.3042 160.944C79.3893 160.625 79.474 160.306 79.5583 159.988L77.6249 159.476Z" fill="#282D26"/>
</svg>
