<svg width="125" height="163" viewBox="0 0 125 163" fill="none" xmlns="http://www.w3.org/2000/svg">
<path d="M47.6352 2.44481C47.7774 1.91117 47.4602 1.36322 46.9265 1.22095C46.3929 1.07867 45.8449 1.39593 45.7027 1.92958L47.6352 2.44481ZM70.442 158.397C70.9861 158.491 71.504 158.127 71.5987 157.583L73.1427 148.717C73.2374 148.172 72.8732 147.655 72.3291 147.56C71.785 147.465 71.2671 147.829 71.1723 148.373L69.7999 156.255L61.9185 154.882C61.3744 154.788 60.8566 155.152 60.7618 155.696C60.6671 156.24 61.0313 156.758 61.5754 156.853L70.442 158.397ZM70.8643 156.027C70.5479 155.575 69.9244 155.464 69.4718 155.781C69.0191 156.097 68.9087 156.721 69.2251 157.173L70.8643 156.027ZM65.9053 152.333C66.2135 152.792 66.8349 152.913 67.2931 152.605C67.7514 152.297 67.8731 151.676 67.5649 151.217L65.9053 152.333ZM66.4743 149.584C66.1691 149.124 65.5485 148.998 65.0882 149.303C64.6279 149.609 64.5022 150.229 64.8074 150.689L66.4743 149.584ZM61.6103 145.759C61.9058 146.225 62.5236 146.364 62.9902 146.068C63.4567 145.773 63.5954 145.155 63.2998 144.688L61.6103 145.759ZM62.2657 143.042C61.9736 142.574 61.3569 142.43 60.8881 142.723C60.4194 143.015 60.2762 143.631 60.5682 144.1L62.2657 143.042ZM57.5175 139.073C57.7983 139.548 58.4114 139.706 58.887 139.426C59.3626 139.145 59.5206 138.532 59.2399 138.056L57.5175 139.073ZM58.2674 136.393C57.9907 135.915 57.3789 135.752 56.9009 136.028C56.4229 136.305 56.2598 136.917 56.5365 137.395L58.2674 136.393ZM53.6552 132.259C53.9186 132.744 54.5257 132.924 55.0111 132.661C55.4965 132.397 55.6764 131.79 55.4129 131.305L53.6552 132.259ZM54.488 129.581C54.2293 129.093 53.624 128.907 53.1361 129.165C52.6481 129.424 52.4622 130.029 52.7209 130.517L54.488 129.581ZM50.0438 125.273C50.287 125.769 50.8862 125.974 51.382 125.731C51.8778 125.487 52.0826 124.888 51.8393 124.392L50.0438 125.273ZM50.9988 122.655C50.761 122.157 50.1642 121.946 49.6657 122.183C49.1672 122.421 48.9559 123.018 49.1937 123.516L50.9988 122.655ZM46.7506 118.157C46.9707 118.664 47.5597 118.896 48.0663 118.676C48.5728 118.456 48.8051 117.867 48.5851 117.36L46.7506 118.157ZM47.8185 115.565C47.6048 115.056 47.0188 114.816 46.5095 115.03C46.0002 115.244 45.7606 115.83 45.9743 116.339L47.8185 115.565ZM43.7995 110.86C43.993 111.377 44.5692 111.64 45.0865 111.446C45.6038 111.253 45.8663 110.676 45.6728 110.159L43.7995 110.86ZM45.0095 108.349C44.8231 107.829 44.2506 107.559 43.7307 107.745C43.2108 107.931 42.9405 108.504 43.1269 109.024L45.0095 108.349ZM41.2519 103.423C41.4158 103.95 41.9762 104.245 42.5036 104.081C43.031 103.917 43.3257 103.356 43.1618 102.829L41.2519 103.423ZM42.6 100.973C42.444 100.443 41.888 100.14 41.3582 100.296C40.8284 100.453 40.5255 101.009 40.6815 101.538L42.6 100.973ZM39.1438 95.8448C39.2755 96.3811 39.8171 96.7091 40.3534 96.5774C40.8898 96.4457 41.2178 95.9041 41.0861 95.3678L39.1438 95.8448ZM40.638 93.4802C40.5147 92.9419 39.9783 92.6055 39.44 92.7288C38.9016 92.8521 38.5652 93.3885 38.6886 93.9269L40.638 93.4802ZM37.5061 88.1432C37.6039 88.6867 38.1238 89.0481 38.6674 88.9503C39.2109 88.8525 39.5723 88.3326 39.4745 87.7891L37.5061 88.1432ZM39.1471 85.8829C39.0579 85.3378 38.5438 84.9683 37.9988 85.0575C37.4537 85.1467 37.0842 85.6608 37.1734 86.2059L39.1471 85.8829ZM36.358 80.3578C36.4214 80.9065 36.9175 81.2999 37.4661 81.2365C38.0148 81.1732 38.4082 80.677 38.3448 80.1284L36.358 80.3578ZM38.1375 78.2025C38.0827 77.6529 37.5928 77.2518 37.0432 77.3067C36.4937 77.3615 36.0926 77.8515 36.1474 78.401L38.1375 78.2025ZM35.6963 72.5154C35.726 73.0669 36.1972 73.4898 36.7487 73.4601C37.3002 73.4303 37.7231 72.9592 37.6934 72.4077L35.6963 72.5154ZM37.6035 70.4747C37.5818 69.9229 37.1169 69.493 36.5651 69.5146C36.0132 69.5362 35.5834 70.0011 35.605 70.553L37.6035 70.4747ZM35.5007 64.6539C35.4989 65.2062 35.9451 65.6554 36.4974 65.6572C37.0497 65.6591 37.4989 65.2129 37.5007 64.6606L35.5007 64.6539ZM37.5204 62.7215C37.5297 62.1693 37.0897 61.7141 36.5375 61.7048C35.9852 61.6955 35.53 62.1355 35.5207 62.6878L37.5204 62.7215ZM35.735 56.7996C35.7044 57.3511 36.1267 57.8229 36.6782 57.8534C37.2296 57.8839 37.7014 57.4616 37.7319 56.9102L35.735 56.7996ZM37.8512 54.9693C37.8884 54.4183 37.4718 53.9414 36.9208 53.9042C36.3698 53.867 35.8929 54.2836 35.8557 54.8346L37.8512 54.9693ZM36.3538 48.9625C36.298 49.5119 36.6981 50.0026 37.2476 50.0584C37.797 50.1142 38.2877 49.7141 38.3435 49.1646L36.3538 48.9625ZM38.5491 47.2416C38.6107 46.6928 38.2156 46.198 37.6668 46.1364C37.118 46.0749 36.6231 46.4699 36.5616 47.0187L38.5491 47.2416ZM37.3046 41.1788C37.2271 41.7256 37.6075 42.2318 38.1543 42.3093C38.7011 42.3868 39.2073 42.0064 39.2848 41.4595L37.3046 41.1788ZM39.5676 39.5276C39.65 38.9815 39.2741 38.472 38.728 38.3896C38.1819 38.3072 37.6724 38.683 37.59 39.2291L39.5676 39.5276ZM38.5399 33.4308C38.444 33.9747 38.8073 34.4933 39.3512 34.5891C39.8951 34.685 40.4137 34.3217 40.5095 33.7778L38.5399 33.4308ZM40.8533 31.8685C40.9532 31.3254 40.5939 30.804 40.0507 30.7042C39.5075 30.6043 38.9862 30.9636 38.8863 31.5068L40.8533 31.8685ZM40.0103 25.736C39.8993 26.277 40.2479 26.8056 40.7889 26.9166C41.3299 27.0276 41.8585 26.679 41.9695 26.138L40.0103 25.736ZM42.3688 24.2219C42.4832 23.6816 42.1379 23.1509 41.5976 23.0365C41.0573 22.9221 40.5265 23.2674 40.4122 23.8078L42.3688 24.2219ZM41.6771 18.0753C41.5537 18.6136 41.89 19.1501 42.4284 19.2735C42.9667 19.3969 43.5031 19.0605 43.6265 18.5222L41.6771 18.0753ZM44.0642 16.6352C44.1903 16.0975 43.8566 15.5594 43.3189 15.4333C42.7812 15.3072 42.2431 15.6408 42.117 16.1785L44.0642 16.6352ZM43.4974 10.4726C43.364 11.0085 43.6903 11.5511 44.2262 11.6845C44.7621 11.818 45.3047 11.4917 45.4381 10.9557L43.4974 10.4726ZM45.9149 9.0571C46.0505 8.52172 45.7264 7.97779 45.191 7.8422C44.6557 7.70661 44.1117 8.0307 43.9761 8.56608L45.9149 9.0571ZM45.4486 2.88575C45.3072 3.41963 45.6253 3.96705 46.1592 4.10845C46.6931 4.24984 47.2405 3.93167 47.3819 3.3978L45.4486 2.88575ZM71.4315 156.836C71.2415 156.566 71.0525 156.297 70.8643 156.027L69.2251 157.173C69.4144 157.444 69.6046 157.715 69.7956 157.987L71.4315 156.836ZM67.5649 151.217C67.1976 150.671 66.8341 150.127 66.4743 149.584L64.8074 150.689C65.1696 151.236 65.5356 151.784 65.9053 152.333L67.5649 151.217ZM63.2998 144.688C62.9512 144.138 62.6065 143.589 62.2657 143.042L60.5682 144.1C60.9117 144.651 61.259 145.204 61.6103 145.759L63.2998 144.688ZM59.2399 138.056C58.9116 137.5 58.5874 136.946 58.2674 136.393L56.5365 137.395C56.8594 137.953 57.1864 138.512 57.5175 139.073L59.2399 138.056ZM55.4129 131.305C55.1001 130.728 54.7918 130.154 54.488 129.581L52.7209 130.517C53.0278 131.096 53.3392 131.677 53.6552 132.259L55.4129 131.305ZM51.8393 124.392C51.5545 123.812 51.2744 123.233 50.9988 122.655L49.1937 123.516C49.4724 124.101 49.7558 124.686 50.0438 125.273L51.8393 124.392ZM48.5851 117.36C48.3246 116.761 48.0691 116.162 47.8185 115.565L45.9743 116.339C46.2281 116.944 46.4869 117.55 46.7506 118.157L48.5851 117.36ZM45.6728 110.159C45.4466 109.555 45.2256 108.951 45.0095 108.349L43.1269 109.024C43.3461 109.635 43.5703 110.247 43.7995 110.86L45.6728 110.159ZM43.1618 102.829C42.9693 102.21 42.7821 101.591 42.6 100.973L40.6815 101.538C40.8664 102.166 41.0565 102.794 41.2519 103.423L43.1618 102.829ZM41.0861 95.3678C40.9315 94.7383 40.7822 94.1091 40.638 93.4802L38.6886 93.9269C38.835 94.566 38.9867 95.2052 39.1438 95.8448L41.0861 95.3678ZM39.4745 87.7891C39.3602 87.1538 39.2511 86.5185 39.1471 85.8829L37.1734 86.2059C37.2791 86.8518 37.39 87.4976 37.5061 88.1432L39.4745 87.7891ZM38.3448 80.1284C38.2707 79.487 38.2017 78.8451 38.1375 78.2025L36.1474 78.401C36.2126 79.0539 36.2827 79.7061 36.358 80.3578L38.3448 80.1284ZM37.6934 72.4077C37.6587 71.7644 37.6287 71.1201 37.6035 70.4747L35.605 70.553C35.6306 71.2081 35.6611 71.8622 35.6963 72.5154L37.6934 72.4077ZM37.5007 64.6606C37.5029 64.0157 37.5095 63.3694 37.5204 62.7215L35.5207 62.6878C35.5096 63.3445 35.5029 63.9999 35.5007 64.6539L37.5007 64.6606ZM37.7319 56.9102C37.7676 56.265 37.8074 55.6181 37.8512 54.9693L35.8557 54.8346C35.8114 55.4913 35.7711 56.1463 35.735 56.7996L37.7319 56.9102ZM38.3435 49.1646C38.4084 48.5257 38.477 47.8847 38.5491 47.2416L36.5616 47.0187C36.4887 47.6686 36.4194 48.3165 36.3538 48.9625L38.3435 49.1646ZM39.2848 41.4595C39.3758 40.8179 39.47 40.1739 39.5676 39.5276L37.59 39.2291C37.4916 39.8812 37.3964 40.5311 37.3046 41.1788L39.2848 41.4595ZM40.5095 33.7778C40.6212 33.1438 40.7358 32.5074 40.8533 31.8685L38.8863 31.5068C38.7679 32.1505 38.6525 32.7918 38.5399 33.4308L40.5095 33.7778ZM41.9695 26.138C42.1 25.5018 42.2331 24.8631 42.3688 24.2219L40.4122 23.8078C40.2756 24.453 40.1416 25.0957 40.0103 25.736L41.9695 26.138ZM43.6265 18.5222C43.7701 17.8958 43.916 17.2668 44.0642 16.6352L42.117 16.1785C41.9681 16.8133 41.8215 17.4455 41.6771 18.0753L43.6265 18.5222ZM45.4381 10.9557C45.595 10.3255 45.754 9.69262 45.9149 9.0571L43.9761 8.56608C43.8145 9.20416 43.6549 9.83965 43.4974 10.4726L45.4381 10.9557ZM47.3819 3.3978C47.4659 3.0808 47.5503 2.76314 47.6352 2.44481L45.7027 1.92958C45.6175 2.24896 45.5328 2.56768 45.4486 2.88575L47.3819 3.3978Z" fill="#282D26"/>
</svg>
