<svg width="60" height="60" viewBox="0 0 60 60" fill="none" xmlns="http://www.w3.org/2000/svg">
<g clip-path="url(#clip0)">
<path d="M3 60H8C8.84849 59.9973 9.65576 59.6337 10.22 59H35.3C36.7673 59.0005 38.2064 58.5975 39.46 57.835L58.2 46.426C59.8306 45.438 60.4584 43.3825 59.658 41.6521C58.8576 39.9217 56.8847 39.0691 55.076 39.672L53.941 40.05C52.1035 36.7892 48.2423 35.2491 44.665 36.35C42.3964 34.0684 38.9781 33.3752 36 34.593V30H40C43.3123 29.9967 45.9967 27.3123 46 24C46 22.8954 45.1046 22 44 22H40C38.522 22.0004 37.0967 22.5491 36 23.54V20H39C42.3123 19.9967 44.9967 17.3123 45 14C45 12.8954 44.1046 12 43 12H40C38.522 12.0004 37.0967 12.5491 36 13.54V10H38C41.3123 9.99669 43.9967 7.31234 44 4C44 2.89543 43.1046 2 42 2C39.737 2 37.953 1.787 36 3.54V1C36 0.447715 35.5523 0 35 0C34.4477 0 34 0.447715 34 1V3.54C32 1.742 30.008 2 28 2C26.8954 2 26 2.89543 26 4C26.0033 7.31234 28.6877 9.99669 32 10H34V13.54C32.9033 12.5491 31.478 12.0004 30 12H27C25.8954 12 25 12.8954 25 14C25.0033 17.3123 27.6877 19.9967 31 20H34V23.54C32.9033 22.5491 31.478 22.0004 30 22H26C24.8954 22 24 22.8954 24 24C24.0033 27.3123 26.6877 29.9967 30 30H34V33.762C30.8174 31.2051 26.2192 31.4587 23.337 34.35C20.9009 33.6166 18.2613 34.0803 16.221 35.6C14.4784 35.0448 12.643 34.8408 10.821 35C10.3981 33.8039 9.26862 33.0031 8 33H3C1.34315 33 0 34.3431 0 36V57C0 58.6569 1.34315 60 3 60V60ZM40 24H44C44 26.2091 42.2091 28 40 28H36C36 25.7909 37.7909 24 40 24ZM40 14H43C43 16.2091 41.2091 18 39 18H36C36 15.7909 37.7909 14 40 14ZM40 4H42C42 6.20914 40.2091 8 38 8H36C36 5.79086 37.7909 4 40 4ZM28 4H30C32.2091 4 34 5.79086 34 8H32C29.7909 8 28 6.20914 28 4ZM27 14H30C32.2091 14 34 15.7909 34 18H31C28.7909 18 27 16.2091 27 14ZM26 24H30C32.2091 24 34 25.7909 34 28H30C27.7909 28 26 26.2091 26 24ZM23.255 36.438C24.074 36.771 24.155 36.999 24.605 36.999C25.0121 37.0036 25.3801 36.7572 25.5309 36.3791C25.6818 36.0009 25.5844 35.5689 25.286 35.292C27.8226 33.2811 31.4994 33.6567 33.577 36.139C33.521 36.19 33.456 36.233 33.401 36.286C33.0161 36.6743 33.0144 37.2997 33.3971 37.6901C33.7799 38.0805 34.4052 38.0911 34.801 37.714C36.1897 36.3628 38.1443 35.7633 40.0518 36.1035C41.9593 36.4438 43.5861 37.682 44.422 39.43C44.5756 39.7526 44.8897 39.9688 45.2459 39.997C45.6021 40.0253 45.9463 39.8614 46.1489 39.567C46.3515 39.2727 46.3816 38.8926 46.228 38.57C46.151 38.408 46.055 38.257 45.967 38.1C48.318 37.6732 50.6957 38.6979 52 40.7C34.84 46.416 36.477 46 35.039 46C36.289 42.53 33.091 39 29.432 39H24.2C21.005 39 19.3 37.277 18.314 36.64C19.8584 35.8774 21.6535 35.804 23.255 36.438V36.438ZM17.875 38.781C19.6716 40.2148 21.9014 40.9971 24.2 41H29.431C32.09 41 34.383 43.875 32.801 46H26.721C24.4484 46.0253 22.2453 46.7867 20.442 48.17C19.9836 48.4782 19.8618 49.0996 20.17 49.558C20.4782 50.0164 21.0996 50.1382 21.558 49.83C23.0319 48.6706 24.8459 48.0276 26.721 48C36.445 48 36.175 48.087 37.196 47.738L55.7 41.569C56.541 41.2952 57.4539 41.6934 57.8252 42.4961C58.1966 43.2987 57.9091 44.2523 57.156 44.716L38.42 56.127C37.4797 56.6986 36.4004 57.0006 35.3 57H11V37C13.272 37 15.431 36.825 17.875 38.781V38.781ZM2 36C2 35.4477 2.44772 35 3 35H8C8.55228 35 9 35.4477 9 36V57C9 57.5523 8.55228 58 8 58H3C2.44772 58 2 57.5523 2 57V36Z" fill="#68A344"/>
<path d="M37.6632 41.941C38.1817 42.1272 38.7532 41.8589 38.9412 41.341C39.011 41.1565 39.1567 41.0108 39.3412 40.941C39.6904 40.83 39.951 40.5369 40.0203 40.1771C40.0896 39.8173 39.9566 39.4483 39.6735 39.2156C39.3905 38.9828 39.0029 38.9235 38.6632 39.061C37.9196 39.3316 37.3338 39.9174 37.0632 40.661C36.8756 41.1801 37.1442 41.753 37.6632 41.941V41.941Z" fill="#68A344"/>
</g>
<defs>
<clipPath id="clip0">
<rect width="60" height="60" fill="white"/>
</clipPath>
</defs>
</svg>
