<svg width="431" height="431" viewBox="0 0 431 431" fill="none" xmlns="http://www.w3.org/2000/svg">
<path d="M180.272 329C171.848 329.01 163.773 332.36 157.816 338.316C151.86 344.273 148.51 352.348 148.5 360.772C148.5 362.629 149.237 364.409 150.55 365.722C151.863 367.034 153.643 367.772 155.5 367.772C157.357 367.772 159.137 367.034 160.45 365.722C161.763 364.409 162.5 362.629 162.5 360.772C162.505 356.06 164.379 351.543 167.711 348.211C171.043 344.879 175.56 343.005 180.272 343C182.129 343 183.909 342.262 185.222 340.95C186.534 339.637 187.272 337.857 187.272 336C187.272 334.143 186.534 332.363 185.222 331.05C183.909 329.738 182.129 329 180.272 329V329Z" fill="#68A344"/>
<path d="M263 299.492C260.54 297.451 257.7 295.918 254.644 294.98C251.589 294.042 248.378 293.719 245.196 294.028C243.367 294.226 241.689 295.137 240.526 296.564C239.363 297.99 238.809 299.817 238.983 301.649C239.157 303.481 240.045 305.171 241.456 306.353C242.867 307.535 244.686 308.114 246.52 307.964C249.248 307.708 251.965 308.544 254.077 310.289C256.189 312.034 257.522 314.545 257.784 317.272C257.949 319.004 258.754 320.613 260.04 321.784C261.327 322.956 263.004 323.606 264.744 323.608C264.964 323.608 265.188 323.608 265.412 323.576C266.328 323.489 267.217 323.223 268.029 322.792C268.842 322.362 269.561 321.775 270.147 321.067C270.733 320.358 271.173 319.541 271.443 318.662C271.713 317.783 271.807 316.859 271.72 315.944C271.426 312.761 270.504 309.669 269.007 306.845C267.511 304.021 265.469 301.522 263 299.492V299.492Z" fill="#68A344"/>
<path d="M426.2 417.812C424.663 403.997 418.091 391.232 407.739 381.955C397.387 372.678 383.981 367.539 370.08 367.52C368.349 367.52 366.608 367.605 364.856 367.776C364.669 352.995 358.78 338.859 348.418 328.317C338.056 317.775 324.023 311.642 309.248 311.2C306.281 303.537 302.135 296.384 296.96 290C296.414 286.693 295.516 283.455 294.28 280.34L251.968 176.932C250.914 174.358 249.284 172.06 247.203 170.214C245.121 168.369 242.645 167.025 239.963 166.286C237.282 165.547 234.467 165.432 231.734 165.952C229.001 166.471 226.424 167.609 224.2 169.28L193.16 192.62L190.208 188.692C189.182 187.314 187.681 186.366 185.996 186.033C184.31 185.7 182.561 186.004 181.088 186.888L89.316 64.8559L81.224 15.9079C80.8543 13.6523 79.9701 11.5121 78.6399 9.65334C77.3097 7.79455 75.5693 6.2671 73.5535 5.18942C71.5378 4.11173 69.301 3.51278 67.0164 3.43899C64.7319 3.36521 62.4611 3.81858 60.38 4.76394C57.7463 2.3786 54.3651 0.983238 50.8156 0.816857C47.2662 0.650476 43.7693 1.72343 40.924 3.85194L11.532 25.9519C8.69432 28.0921 6.69001 31.1532 5.86306 34.6099C5.03611 38.0665 5.43809 41.7033 7 44.8959C5.51784 46.6332 4.4552 48.6882 3.89427 50.9019C3.33335 53.1155 3.28918 55.4286 3.76519 57.6621C4.24119 59.8955 5.22461 61.9896 6.63937 63.7822C8.05412 65.5748 9.86229 67.0179 11.924 67.9999L56.7 89.3639L148.464 211.416C147.216 212.591 146.445 214.185 146.297 215.893C146.15 217.601 146.636 219.304 147.664 220.676L150.616 224.6L119.576 247.94C117.354 249.613 115.545 251.773 114.289 254.254C113.032 256.735 112.36 259.471 112.325 262.252C112.29 265.033 112.894 267.784 114.088 270.296C115.283 272.808 117.037 275.012 119.216 276.74L150.088 301.2C140.576 304.426 132.071 310.078 125.411 317.596C118.751 325.115 114.167 334.24 112.112 344.072H111.8C103.745 344.049 95.8382 346.237 88.9414 350.399C82.0446 354.56 76.4226 360.535 72.688 367.672C59.6185 368.573 47.2674 373.984 37.745 382.981C28.2226 391.978 22.12 404.003 20.48 417H7C5.14348 417 3.36301 417.737 2.05025 419.05C0.737496 420.363 0 422.143 0 424C0 425.856 0.737496 427.637 2.05025 428.95C3.36301 430.262 5.14348 431 7 431H423C424.571 431.007 426.098 430.485 427.335 429.516C428.572 428.548 429.446 427.191 429.816 425.664C430.186 424.138 430.031 422.531 429.375 421.104C428.718 419.677 427.6 418.513 426.2 417.8V417.812ZM81.304 77.4959L169.84 195.244L159.608 202.94L71.072 85.1999L81.304 77.4959ZM166.02 221.788L163.072 217.868L183.224 202.716L209.12 237.148L188.968 252.304L166.02 221.788ZM75.092 64.6479L60.448 75.6559L26.308 59.3679C29.2425 59.1819 32.0595 58.1466 34.416 56.3879L63.8 34.2879C66.137 32.5212 67.9136 30.1167 68.916 27.3639L75.092 64.6479ZM19.952 37.1439L49.34 15.0439C49.4755 14.941 49.63 14.8659 49.7947 14.8231C49.9594 14.7802 50.1309 14.7704 50.2994 14.7942C50.4679 14.818 50.6299 14.8749 50.7763 14.9617C50.9226 15.0486 51.0503 15.1635 51.152 15.2999L55.652 21.2999C55.7544 21.4356 55.8291 21.5902 55.8716 21.7548C55.9142 21.9194 55.9239 22.0907 55.9001 22.2591C55.8763 22.4274 55.8196 22.5894 55.733 22.7357C55.6465 22.8821 55.532 23.0099 55.396 23.1119L26.008 45.1999C25.8723 45.3024 25.7177 45.377 25.5532 45.4196C25.3886 45.4621 25.2172 45.4718 25.0489 45.448C24.8805 45.4243 24.7185 45.3675 24.5722 45.281C24.4258 45.1945 24.298 45.0799 24.196 44.9439L21.948 41.9559L19.7 38.9639C19.5966 38.8281 19.5211 38.6731 19.4778 38.5079C19.4346 38.3428 19.4243 38.1707 19.4477 38.0016C19.4712 37.8324 19.5278 37.6696 19.6143 37.5224C19.7008 37.3753 19.8156 37.2466 19.952 37.1439V37.1439ZM126.316 262.432C126.319 261.789 126.472 261.156 126.763 260.583C127.054 260.01 127.475 259.513 127.992 259.132L159.032 235.792L181.972 266.3C183.088 267.784 184.748 268.763 186.587 269.023C188.425 269.284 190.292 268.803 191.776 267.688L223.116 244.12C223.851 243.567 224.47 242.876 224.938 242.084C225.405 241.292 225.712 240.416 225.841 239.505C225.97 238.595 225.918 237.668 225.689 236.778C225.459 235.887 225.057 235.051 224.504 234.316L201.564 203.808L232.604 180.468C233.117 180.083 233.711 179.821 234.341 179.702C234.97 179.583 235.619 179.609 236.237 179.779C236.855 179.95 237.426 180.259 237.905 180.684C238.385 181.11 238.761 181.639 239.004 182.232L275.588 271.648C257.828 261.308 236.741 258.284 216.791 263.215C196.84 268.146 179.591 280.645 168.692 298.068L127.892 265.772C127.388 265.376 126.983 264.868 126.71 264.288C126.436 263.708 126.301 263.073 126.316 262.432V262.432ZM76.364 381.524L77.104 381.56C78.5234 381.589 79.9177 381.183 81.0997 380.396C82.2816 379.61 83.1946 378.48 83.716 377.16C86.2362 370.685 90.9291 365.288 96.9909 361.893C103.053 358.497 110.106 357.315 116.944 358.548C117.907 358.712 118.893 358.673 119.84 358.434C120.787 358.194 121.673 357.759 122.442 357.156C123.21 356.553 123.844 355.796 124.303 354.934C124.761 354.071 125.034 353.122 125.104 352.148C125.954 341.29 130.857 331.149 138.839 323.739C146.82 316.328 157.297 312.191 168.188 312.148C169.448 312.148 170.688 312.236 171.924 312.34C173.275 312.454 174.63 312.175 175.826 311.537C177.022 310.898 178.008 309.927 178.664 308.74C183.693 299.535 190.875 291.684 199.597 285.858C208.319 280.031 218.321 276.402 228.749 275.279C239.178 274.157 249.724 275.575 259.485 279.412C269.247 283.25 277.935 289.392 284.808 297.316C285.023 297.61 285.261 297.887 285.52 298.144C290.987 304.703 295.111 312.273 297.656 320.424C298.122 321.922 299.08 323.22 300.373 324.108C301.667 324.996 303.222 325.423 304.788 325.32L305.504 325.272C306.204 325.224 306.904 325.168 307.612 325.168C313.878 325.12 320.079 326.445 325.779 329.049C331.479 331.652 336.539 335.473 340.606 340.241C344.672 345.009 347.645 350.609 349.316 356.648C350.988 362.688 351.317 369.02 350.28 375.2C350.101 376.35 350.212 377.527 350.602 378.624C350.993 379.721 351.651 380.703 352.517 381.482C353.382 382.26 354.429 382.81 355.561 383.082C356.693 383.354 357.875 383.34 359 383.04C364.719 381.466 370.705 381.113 376.568 382.005C382.432 382.897 388.043 385.013 393.035 388.217C398.026 391.42 402.288 395.638 405.542 400.598C408.795 405.557 410.969 411.145 411.92 417H34.624C36.2753 407.112 41.3713 398.126 49.0103 391.633C56.6493 385.141 66.3387 381.56 76.364 381.524V381.524Z" fill="#68A344"/>
</svg>
