<svg width="430" height="362" viewBox="0 0 430 362" fill="none" xmlns="http://www.w3.org/2000/svg">
<path d="M423 347.564H350.568C363.003 339.846 373.442 329.303 381.037 316.793C388.632 304.283 393.169 290.157 394.28 275.564H417.432C419.289 275.564 421.069 274.826 422.382 273.514C423.694 272.201 424.432 270.42 424.432 268.564C424.434 251.923 421.044 235.457 414.471 220.169C407.898 204.882 398.279 191.094 386.2 179.648V7.43597C386.2 5.57946 385.463 3.79898 384.15 2.48623C382.837 1.17347 381.057 0.435974 379.2 0.435974H220.572C219.03 0.436991 217.531 0.947298 216.309 1.88761C215.086 2.82793 214.209 4.14561 213.812 5.63598L171.012 164.796L116.912 173.8V112.484C116.912 110.627 116.174 108.847 114.862 107.534C113.549 106.221 111.769 105.484 109.912 105.484H99.232V88.328H109.912C111.769 88.328 113.549 87.5905 114.862 86.2777C116.174 84.965 116.912 83.1845 116.912 81.328C116.912 79.4715 116.174 77.691 114.862 76.3782C113.549 75.0655 111.769 74.328 109.912 74.328H92.232C90.3755 74.328 88.595 75.0655 87.2823 76.3782C85.9695 77.691 85.232 79.4715 85.232 81.328V105.484H74.548C72.6915 105.484 70.911 106.221 69.5983 107.534C68.2855 108.847 67.548 110.627 67.548 112.484V182.024L31.4 188.044C29.7659 188.317 28.2814 189.16 27.2106 190.424C26.1399 191.688 25.5521 193.291 25.552 194.948V244.084C18.6186 251.057 13.2616 259.436 9.84243 268.656C6.42323 277.876 5.02137 287.722 5.73146 297.53C6.44156 307.338 9.24707 316.879 13.9587 325.511C18.6703 334.142 25.1785 341.662 33.044 347.564H7C5.14348 347.564 3.36301 348.301 2.05025 349.614C0.737496 350.927 0 352.707 0 354.564C0 356.42 0.737496 358.201 2.05025 359.514C3.36301 360.826 5.14348 361.564 7 361.564H423C424.857 361.564 426.637 360.826 427.95 359.514C429.262 358.201 430 356.42 430 354.564C430 352.707 429.262 350.927 427.95 349.614C426.637 348.301 424.857 347.564 423 347.564V347.564ZM301.58 347.564C280.644 347.536 260.574 339.209 245.769 324.407C230.964 309.604 222.632 289.536 222.6 268.6V268.548C222.6 247.596 230.923 227.502 245.739 212.687C260.554 197.871 280.648 189.548 301.6 189.548C322.552 189.548 342.646 197.871 357.461 212.687C372.277 227.502 380.6 247.596 380.6 268.548V268.6C380.568 289.542 372.231 309.617 357.417 324.421C342.603 339.224 322.523 347.547 301.58 347.564V347.564ZM410.208 261.564H394.28C392.521 238.182 381.991 216.328 364.8 200.382C347.608 184.435 325.026 175.575 301.578 175.575C278.13 175.575 255.548 184.435 238.356 200.382C221.165 216.328 210.635 238.182 208.876 261.564H192.944C194.725 233.965 206.945 208.078 227.121 189.162C247.297 170.246 273.917 159.719 301.574 159.719C329.231 159.719 355.851 170.246 376.027 189.162C396.203 208.078 408.423 233.965 410.204 261.564H410.208ZM237 163.948H216.728L249.128 44.58H342.236V152.66C324.998 146.595 306.622 144.463 288.453 146.419C270.284 148.376 252.783 154.372 237.232 163.968C237.152 163.968 237.08 163.948 237 163.948V163.948ZM225.936 14.436H372.2V163.948H365.876C362.751 162.02 359.533 160.235 356.224 158.592V37.584C356.224 35.7275 355.486 33.947 354.174 32.6342C352.861 31.3215 351.081 30.584 349.224 30.584H243.8C242.263 30.5849 240.77 31.0914 239.549 32.0253C238.329 32.9593 237.45 34.2689 237.048 35.752L202.248 163.952H185.768L225.936 14.436ZM81.536 119.484H102.9V176.128L81.536 179.688V119.484ZM176.284 178.092C176.842 178.112 177.401 178.064 177.948 177.948H206.348C206.743 178.035 207.144 178.088 207.548 178.108C207.871 178.078 208.192 178.024 208.508 177.948H218.74C206.133 189.438 196.063 203.433 189.175 219.038C182.287 234.643 178.733 251.514 178.74 268.572C178.74 270.428 179.477 272.209 180.79 273.522C182.103 274.834 183.883 275.572 185.74 275.572H208.896C209.146 278.926 209.579 282.265 210.192 285.572H143.168C142.017 274.06 137.982 263.024 131.437 253.484C124.892 243.944 116.048 236.208 105.722 230.99C95.3962 225.773 83.9216 223.242 72.3589 223.633C60.7962 224.023 49.5185 227.322 39.568 233.224V200.88L176.284 178.092ZM19.572 292.6C19.5688 278.019 25.3579 264.035 35.6656 253.723C45.9734 243.41 59.9555 237.615 74.536 237.612C89.1165 237.609 103.101 243.398 113.413 253.706C123.726 264.013 129.521 277.995 129.524 292.576V292.6C129.524 307.181 123.732 321.164 113.422 331.474C103.112 341.784 89.1285 347.576 74.548 347.576C59.9675 347.576 45.9841 341.784 35.6741 331.474C25.3641 321.164 19.572 307.181 19.572 292.6V292.6ZM116.032 347.58C123.614 341.881 129.938 334.678 134.607 326.422C139.276 318.166 142.191 309.035 143.168 299.6H213.924C221.024 319.5 234.657 336.407 252.6 347.564L116.032 347.58Z" fill="#68A344"/>
<path d="M301.58 224.288C292.821 224.288 284.26 226.885 276.977 231.751C269.695 236.617 264.019 243.533 260.667 251.625C257.315 259.717 256.438 268.621 258.147 277.211C259.856 285.802 264.073 293.692 270.266 299.885C276.46 306.079 284.35 310.296 292.941 312.005C301.531 313.714 310.435 312.837 318.527 309.485C326.619 306.133 333.535 300.457 338.401 293.175C343.267 285.892 345.864 277.331 345.864 268.572C345.85 256.831 341.18 245.576 332.878 237.274C324.576 228.972 313.321 224.302 301.58 224.288V224.288ZM301.58 298.856C295.59 298.856 289.735 297.08 284.755 293.752C279.775 290.425 275.893 285.695 273.601 280.161C271.309 274.627 270.709 268.538 271.878 262.664C273.046 256.789 275.931 251.393 280.166 247.158C284.401 242.923 289.797 240.038 295.672 238.87C301.546 237.701 307.635 238.301 313.169 240.593C318.703 242.885 323.432 246.767 326.76 251.747C330.088 256.727 331.864 262.582 331.864 268.572C331.854 276.601 328.661 284.298 322.983 289.975C317.306 295.653 309.609 298.846 301.58 298.856Z" fill="#68A344"/>
<path d="M74.5479 258.716C67.849 258.715 61.3003 260.701 55.7298 264.422C50.1593 268.143 45.8172 273.432 43.2525 279.62C40.6879 285.809 40.0158 292.619 41.3214 299.189C42.6269 305.76 45.8514 311.796 50.5871 316.533C55.3228 321.271 61.3571 324.499 67.927 325.807C74.4968 327.116 81.3072 326.447 87.4969 323.885C93.6866 321.324 98.9778 316.984 102.701 311.415C106.425 305.847 108.414 299.299 108.416 292.6C108.408 283.618 104.838 275.007 98.489 268.654C92.1395 262.302 83.5294 258.728 74.5479 258.716V258.716ZM74.5479 312.46C70.6169 312.461 66.774 311.296 63.5053 309.112C60.2365 306.928 57.6889 303.824 56.1846 300.193C54.6802 296.561 54.2868 292.565 55.0541 288.709C55.8214 284.854 57.7149 281.313 60.4951 278.534C63.2753 275.754 66.8173 273.862 70.6729 273.097C74.5286 272.331 78.5248 272.726 82.156 274.232C85.7871 275.738 88.8901 278.286 91.0724 281.556C93.2547 284.826 94.4183 288.669 94.4159 292.6C94.4064 297.866 92.3098 302.913 88.5857 306.635C84.8615 310.358 79.8135 312.453 74.5479 312.46Z" fill="#68A344"/>
</svg>
