<svg width="431" height="429" viewBox="0 0 431 429" fill="none" xmlns="http://www.w3.org/2000/svg">
<path d="M183.944 351.456C177.346 351.463 171.02 354.088 166.354 358.754C161.688 363.42 159.064 369.746 159.056 376.344C159.056 378.201 159.794 379.981 161.106 381.294C162.419 382.607 164.2 383.344 166.056 383.344C167.913 383.344 169.693 382.607 171.006 381.294C172.319 379.981 173.056 378.201 173.056 376.344C173.059 373.457 174.207 370.69 176.249 368.649C178.29 366.607 181.057 365.459 183.944 365.456C185.801 365.456 187.581 364.719 188.894 363.406C190.207 362.093 190.944 360.313 190.944 358.456C190.944 356.6 190.207 354.819 188.894 353.506C187.581 352.194 185.801 351.456 183.944 351.456Z" fill="#68A344"/>
<path d="M230.624 326.208C228.791 326.403 227.11 327.313 225.944 328.741C224.778 330.168 224.222 331.998 224.397 333.833C224.572 335.667 225.463 337.359 226.878 338.541C228.292 339.722 230.116 340.298 231.952 340.144C233.406 340.008 234.855 340.455 235.98 341.387C237.105 342.318 237.814 343.658 237.952 345.112C238.116 346.845 238.92 348.455 240.207 349.627C241.494 350.799 243.171 351.45 244.912 351.452C245.132 351.452 245.356 351.452 245.58 351.42C247.428 351.244 249.13 350.341 250.312 348.911C251.495 347.481 252.062 345.64 251.888 343.792C251.648 341.239 250.907 338.758 249.707 336.492C248.508 334.225 246.873 332.217 244.897 330.583C242.922 328.948 240.643 327.719 238.192 326.966C235.741 326.212 233.165 325.949 230.612 326.192L230.624 326.208Z" fill="#68A344"/>
<path d="M423 415H363.104C361.371 404.716 355.945 395.417 347.844 388.848C339.743 382.279 329.525 378.892 319.104 379.32C318.467 368.739 313.975 358.757 306.478 351.263C298.981 343.769 288.998 339.281 278.416 338.648C274.297 328.723 267.544 320.112 258.887 313.746C250.23 307.38 239.997 303.501 229.296 302.528C218.594 301.555 207.83 303.526 198.167 308.227C188.503 312.928 180.309 320.18 174.468 329.2C164.892 329.407 155.652 332.769 148.183 338.765C140.713 344.761 135.433 353.055 133.16 362.36C127.406 362.57 121.802 364.251 116.882 367.244C111.963 370.236 107.893 374.439 105.06 379.452C95.6673 380.34 86.8312 384.307 79.9258 390.736C73.0204 397.164 68.4327 405.695 66.876 415H7C5.14348 415 3.36301 415.737 2.05025 417.05C0.737496 418.363 0 420.143 0 422C0 423.856 0.737496 425.637 2.05025 426.95C3.36301 428.262 5.14348 429 7 429H423C424.857 429 426.637 428.262 427.95 426.95C429.262 425.637 430 423.856 430 422C430 420.143 429.262 418.363 427.95 417.05C426.637 415.737 424.857 415 423 415V415ZM108.776 393.268L109.372 393.296C110.799 393.336 112.204 392.936 113.396 392.148C114.587 391.361 115.506 390.225 116.028 388.896C117.683 384.635 120.77 381.083 124.757 378.849C128.745 376.615 133.386 375.838 137.884 376.652C138.847 376.816 139.833 376.777 140.78 376.538C141.727 376.298 142.613 375.863 143.382 375.26C144.15 374.657 144.784 373.9 145.243 373.038C145.701 372.175 145.974 371.226 146.044 370.252C146.627 362.906 149.95 356.047 155.353 351.036C160.757 346.025 167.847 343.228 175.216 343.2C176.072 343.2 176.916 343.264 177.752 343.332C179.103 343.451 180.46 343.174 181.656 342.534C182.852 341.895 183.836 340.921 184.488 339.732C188.714 331.987 195.126 325.657 202.924 321.53C210.722 317.404 219.562 315.663 228.343 316.525C237.123 317.387 245.456 320.813 252.303 326.377C259.15 331.941 264.208 339.397 266.848 347.816C267.323 349.309 268.282 350.601 269.574 351.488C270.866 352.375 272.416 352.805 273.98 352.712L274.528 352.672C274.98 352.64 275.436 352.604 275.896 352.604C280.14 352.568 284.34 353.463 288.201 355.225C292.062 356.987 295.49 359.573 298.244 362.803C300.998 366.032 303.011 369.825 304.142 373.916C305.272 378.006 305.493 382.295 304.788 386.48C304.606 387.633 304.716 388.814 305.107 389.914C305.497 391.014 306.157 391.999 307.026 392.779C307.894 393.559 308.944 394.109 310.08 394.38C311.216 394.65 312.401 394.632 313.528 394.328C317.208 393.322 321.051 393.062 324.832 393.563C328.614 394.063 332.257 395.314 335.549 397.243C338.84 399.171 341.712 401.738 343.997 404.792C346.283 407.846 347.935 411.326 348.856 415.028H81.16C82.6938 408.85 86.2404 403.357 91.2406 399.418C96.2409 395.478 102.41 393.314 108.776 393.268V393.268Z" fill="#68A344"/>
<path d="M64.7842 152.244C65.1287 153.267 65.7051 154.197 66.4684 154.96C67.2317 155.723 68.1612 156.3 69.1842 156.644L98.6562 166.496L224.2 256.64L227.504 270.756C228.091 273.248 229.187 275.592 230.723 277.64C232.259 279.687 234.202 281.395 236.43 282.656C238.659 283.916 241.124 284.702 243.67 284.964C246.217 285.225 248.79 284.957 251.228 284.176L406.128 234.352C408.565 233.567 410.813 232.286 412.73 230.589C414.648 228.892 416.193 226.817 417.268 224.493C418.344 222.17 418.926 219.649 418.979 217.089C419.032 214.529 418.555 211.986 417.576 209.62L354.936 58.284L367.54 54.228C371.376 52.9972 375.543 53.3393 379.127 55.1791C382.71 57.0188 385.417 60.2059 386.652 64.04L416.336 156.32C416.612 157.202 417.06 158.02 417.653 158.728C418.247 159.436 418.975 160.019 419.795 160.444C420.615 160.869 421.511 161.128 422.432 161.205C423.353 161.282 424.279 161.177 425.159 160.894C426.038 160.611 426.853 160.157 427.556 159.558C428.26 158.959 428.837 158.227 429.256 157.403C429.675 156.58 429.927 155.682 429.997 154.76C430.067 153.839 429.954 152.913 429.664 152.036L399.98 59.756C397.609 52.3853 392.407 46.2582 385.519 42.7221C378.63 39.1861 370.62 38.5307 363.248 40.9L349.56 45.3L345.52 35.54C343.72 31.2544 340.384 27.7958 336.166 25.8422C331.948 23.8887 327.153 23.5812 322.72 24.98L321.224 25.46C317.41 18.8238 311.435 13.6974 304.295 10.9375C297.156 8.17746 289.286 7.95104 282 10.296L275.364 12.432C272.258 7.74207 267.704 4.19593 262.395 2.3337C257.087 0.471464 251.316 0.395206 245.96 2.11654C240.604 3.83787 235.958 7.26246 232.729 11.8687C229.5 16.475 227.864 22.0104 228.072 27.632L221.444 29.764C214.163 32.118 207.907 36.8946 203.717 43.299C199.528 49.7034 197.659 57.3493 198.42 64.964L196.916 65.448C192.498 66.895 188.781 69.9403 186.492 73.9865C184.203 78.0328 183.508 82.7882 184.544 87.32L202.62 164.52L130.472 119.248L110.272 95.648C109.571 94.8285 108.69 94.1821 107.697 93.7593C106.705 93.3365 105.628 93.1488 104.552 93.2107C103.475 93.2727 102.427 93.5827 101.489 94.1165C100.552 94.6503 99.7509 95.3935 99.1482 96.288L65.6082 146.08C65.0043 146.974 64.6157 147.996 64.4727 149.065C64.3298 150.135 64.4364 151.223 64.7842 152.244V152.244ZM243.344 21.308C244.118 19.7951 245.21 18.4676 246.546 17.417C247.882 16.3663 249.429 15.6174 251.082 15.2217C252.734 14.8261 254.453 14.793 256.12 15.1248C257.786 15.4567 259.361 16.1455 260.736 17.144L242.696 22.948C242.871 22.3861 243.088 21.8379 243.344 21.308V21.308ZM225.744 43.112L238.108 39.136L273.916 27.6H273.936L286.284 23.628C290.017 22.417 294.031 22.3712 297.79 23.4965C301.55 24.6219 304.878 26.8652 307.332 29.928L212.316 60.488C212.539 56.5767 213.939 52.8241 216.333 49.7226C218.726 46.621 222.001 44.3154 225.728 43.108L225.744 43.112ZM201.212 78.78L208.66 76.38L319.548 40.716L326.976 38.316C327.421 38.1729 327.885 38.1 328.352 38.1C329.251 38.1008 330.13 38.3669 330.879 38.865C331.627 39.3631 332.212 40.071 332.56 40.9L404.6 214.98C404.84 215.559 404.958 216.181 404.945 216.808C404.933 217.434 404.791 218.051 404.527 218.62C404.264 219.189 403.886 219.697 403.417 220.112C402.947 220.527 402.397 220.84 401.8 221.032L246.924 270.848C246.328 271.04 245.699 271.106 245.076 271.042C244.453 270.978 243.849 270.786 243.305 270.477C242.76 270.169 242.284 269.75 241.909 269.249C241.534 268.748 241.267 268.174 241.124 267.564L198.168 84.132C197.913 83.0224 198.082 81.8575 198.643 80.8664C199.203 79.8753 200.114 79.1296 201.196 78.776L201.212 78.78ZM219.336 235.92L111.492 158.456L127.872 134.144L207.148 183.88L219.336 235.92ZM105.62 111.74L117.072 125.12L99.0722 151.856L82.3722 146.256L105.62 111.74Z" fill="#68A344"/>
<path d="M297.36 192.112C302.121 192.108 306.814 190.98 311.057 188.819C315.299 186.658 318.972 183.526 321.774 179.677C324.577 175.828 326.431 171.372 327.186 166.67C327.94 161.969 327.574 157.157 326.116 152.624C321.692 138.868 293.624 118.668 288.04 114.756C287.155 114.135 286.138 113.728 285.07 113.567C284.001 113.405 282.909 113.493 281.881 113.824C280.852 114.155 279.914 114.72 279.14 115.474C278.366 116.228 277.777 117.152 277.42 118.172C275.168 124.6 264.136 157.372 268.56 171.136C270.527 177.227 274.374 182.539 279.549 186.307C284.723 190.076 290.959 192.108 297.36 192.112V192.112ZM287.688 131.876C299.644 141.076 311.16 151.852 312.788 156.912C314.105 161.01 313.741 165.463 311.776 169.292C309.81 173.121 306.403 176.012 302.306 177.33C298.208 178.648 293.755 178.283 289.926 176.318C286.097 174.352 283.205 170.946 281.888 166.848C280.26 161.788 283.344 146.328 287.688 131.876V131.876Z" fill="#68A344"/>
<path d="M7 379.5C8.85652 379.5 10.637 378.762 11.9497 377.45C13.2625 376.137 14 374.356 14 372.5V153.5C14.0148 140.421 19.217 127.882 28.4654 118.633C37.7137 109.385 50.2529 104.183 63.332 104.168C65.1885 104.168 66.969 103.43 68.2817 102.118C69.5945 100.805 70.332 99.0245 70.332 97.168C70.332 95.3115 69.5945 93.531 68.2817 92.2182C66.969 90.9055 65.1885 90.168 63.332 90.168C46.5412 90.187 30.4435 96.8656 18.5706 108.739C6.69763 120.611 0.0190565 136.709 0 153.5V372.5C0 374.356 0.737496 376.137 2.05025 377.45C3.36301 378.762 5.14348 379.5 7 379.5Z" fill="#68A344"/>
<path d="M45.4481 132.876C42.4933 135.439 40.1237 138.606 38.4998 142.165C36.8759 145.723 36.0357 149.589 36.0361 153.5V370.62C36.0361 372.477 36.7736 374.257 38.0864 375.57C39.3991 376.882 41.1796 377.62 43.0361 377.62C44.8926 377.62 46.6731 376.882 47.9859 375.57C49.2986 374.257 50.0361 372.477 50.0361 370.62V153.5C50.0363 151.594 50.4461 149.711 51.2377 147.977C52.0293 146.244 53.1841 144.7 54.6241 143.452C56.0266 142.235 56.8882 140.511 57.0195 138.659C57.1508 136.807 56.5409 134.978 55.3241 133.576C54.1073 132.174 52.3832 131.312 50.5311 131.181C48.679 131.049 46.8506 131.659 45.4481 132.876V132.876Z" fill="#68A344"/>
</svg>
