<svg width="37" height="37" viewBox="0 0 37 37" fill="none" xmlns="http://www.w3.org/2000/svg">
<path d="M18.5 0C13.4708 0 12.8441 0.0242843 10.8759 0.107545C8.89961 0.204682 7.56282 0.511126 6.3833 0.969059C5.1488 1.43511 4.0308 2.16479 3.10723 3.10723C2.16216 4.02864 1.43208 5.14726 0.969059 6.3833C0.511126 7.56282 0.204682 8.89961 0.107545 10.8759C0.0185023 12.8452 0 13.4708 0 18.5C0 23.5292 0.0242843 24.1559 0.107545 26.1241C0.204682 28.0946 0.511126 29.4372 0.969059 30.6167C1.43511 31.8512 2.16479 32.9692 3.10723 33.8928C4.02864 34.8378 5.14727 35.5679 6.3833 36.0309C7.56282 36.4831 8.90539 36.7953 10.8759 36.8925C12.8452 36.9815 13.4708 37 18.5 37C23.5292 37 24.1559 36.9757 26.1241 36.8925C28.0946 36.7953 29.4372 36.4819 30.6167 36.0309C31.8512 35.5649 32.9692 34.8352 33.8928 33.8928C34.8391 32.9724 35.5693 31.8534 36.0309 30.6167C36.4831 29.4372 36.7953 28.0946 36.8925 26.1241C36.9815 24.1548 37 23.5292 37 18.5C37 13.4708 36.9757 12.8441 36.8925 10.8759C36.7953 8.90539 36.4819 7.55588 36.0309 6.3833C35.5649 5.1488 34.8352 4.0308 33.8928 3.10723C32.9724 2.16094 31.8534 1.43067 30.6167 0.969059C29.4372 0.511126 28.0946 0.204682 26.1241 0.107545C24.1548 0.0185023 23.5292 0 18.5 0ZM18.5 3.33042C23.439 3.33042 24.0287 3.3547 25.9807 3.43796C27.7812 3.52238 28.7618 3.82304 29.4129 4.07745C30.2178 4.37455 30.9463 4.84743 31.5453 5.46165C32.1585 6.05815 32.6296 6.78497 32.9237 7.58826C33.1781 8.23931 33.4788 9.21993 33.5632 11.0204C33.6465 12.9724 33.6707 13.5633 33.6707 18.5012C33.6707 23.439 33.6465 24.0299 33.5563 25.9819C33.4591 27.7824 33.1585 28.763 32.9052 29.4141C32.5548 30.2825 32.164 30.8896 31.5187 31.5464C30.9176 32.1568 30.1896 32.6274 29.3863 32.9249C28.7433 33.1793 27.7488 33.4799 25.9414 33.5644C23.979 33.6476 23.4008 33.6719 18.4491 33.6719C13.4974 33.6719 12.9204 33.6476 10.9557 33.5574C9.15518 33.4603 8.16183 33.1596 7.51078 32.9064C6.63192 32.556 6.02944 32.1651 5.38417 31.5198C4.73312 30.8688 4.31913 30.249 3.99997 29.3875C3.74094 28.7445 3.4449 27.75 3.34892 25.9426C3.283 24.0033 3.25178 23.402 3.25178 18.4734C3.25178 13.5472 3.283 12.9447 3.34892 10.9811C3.4449 9.17368 3.74094 8.18149 3.99997 7.53622C4.31913 6.65621 4.73428 6.05488 5.38417 5.40383C6.02829 4.75972 6.63192 4.34342 7.51078 4.01731C8.16183 3.76406 9.13089 3.4634 10.9383 3.3732C12.9007 3.30266 13.4789 3.27722 18.4237 3.27722L18.5 3.33042ZM18.5 9.00484C17.2526 9.00439 16.0174 9.24974 14.8649 9.72687C13.7124 10.204 12.6653 10.9036 11.7833 11.7856C10.9012 12.6676 10.2017 13.7148 9.72456 14.8672C9.24742 16.0197 9.00208 17.255 9.00253 18.5023C9.00208 19.7497 9.24742 20.9849 9.72456 22.1374C10.2017 23.2899 10.9012 24.337 11.7833 25.2191C12.6653 26.1011 13.7124 26.8006 14.8649 27.2778C16.0174 27.7549 17.2526 28.0002 18.5 27.9998C19.7474 28.0002 20.9826 27.7549 22.1351 27.2778C23.2876 26.8006 24.3347 26.1011 25.2167 25.2191C26.0988 24.337 26.7983 23.2899 27.2754 22.1374C27.7526 20.9849 27.9979 19.7497 27.9975 18.5023C27.9979 17.255 27.7526 16.0197 27.2754 14.8672C26.7983 13.7148 26.0988 12.6676 25.2167 11.7856C24.3347 10.9036 23.2876 10.204 22.1351 9.72687C20.9826 9.24974 19.7474 9.00439 18.5 9.00484ZM18.5 24.6694C15.091 24.6694 12.3329 21.9114 12.3329 18.5023C12.3329 15.0933 15.091 12.3353 18.5 12.3353C21.9091 12.3353 24.6671 15.0933 24.6671 18.5023C24.6671 21.9114 21.9091 24.6694 18.5 24.6694ZM30.6005 8.62555C30.5999 9.21492 30.3653 9.77994 29.9484 10.1965C29.5314 10.613 28.9661 10.847 28.3768 10.847C28.0853 10.847 27.7968 10.7896 27.5275 10.6781C27.2583 10.5665 27.0137 10.4031 26.8076 10.197C26.6015 9.99095 26.4381 9.74632 26.3266 9.47708C26.215 9.20784 26.1576 8.91928 26.1576 8.62786C26.1576 8.33644 26.215 8.04788 26.3266 7.77864C26.4381 7.5094 26.6015 7.26477 26.8076 7.0587C27.0137 6.85264 27.2583 6.68918 27.5275 6.57766C27.7968 6.46614 28.0853 6.40874 28.3768 6.40874C29.5991 6.40874 30.6005 7.40324 30.6005 8.62555Z" fill="white"/>
</svg>
