<svg width="37" height="37" viewBox="0 0 37 37" fill="none" xmlns="http://www.w3.org/2000/svg">
<path fill-rule="evenodd" clip-rule="evenodd" d="M31.609 5.37767C29.9023 3.66796 27.8718 2.31228 25.6349 1.38919C23.3981 0.466095 20.9994 -0.00606637 18.5779 5.88395e-05C8.424 5.88395e-05 0.158014 8.22476 0.15391 18.3346C0.15391 21.5657 1.00144 24.7191 2.61236 27.5008L0 37L9.76609 34.4491C12.4675 35.9126 15.494 36.68 18.5697 36.6814H18.5779C28.7298 36.6814 36.9958 28.4567 36.9999 18.3469C37.0069 15.9378 36.5341 13.5513 35.6087 11.3252C34.6834 9.09917 33.324 7.0777 31.609 5.37767ZM18.5779 33.5872H18.5718C15.8292 33.5875 13.137 32.8531 10.7778 31.461L10.2196 31.1302L4.4244 32.6436L5.96965 27.0209L5.60642 26.4449C4.07304 24.0154 3.26132 21.2037 3.26494 18.3346C3.26905 9.9322 10.1375 3.09632 18.5841 3.09632C20.5957 3.09187 22.5882 3.48454 24.4463 4.2516C26.3044 5.01866 27.9912 6.14488 29.4091 7.56507C30.8345 8.97849 31.9644 10.6591 32.7333 12.5097C33.5022 14.3603 33.895 16.3443 33.8889 18.3469C33.8848 26.7492 27.0163 33.5872 18.5779 33.5872ZM26.9773 22.1722C26.5156 21.9415 24.2541 20.8345 23.8314 20.6813C23.4107 20.5281 23.1049 20.4526 22.7971 20.9101C22.4893 21.3675 21.6069 22.399 21.3381 22.7053C21.0692 23.0117 20.8004 23.0484 20.3407 22.8197C19.881 22.5909 18.3974 22.1069 16.6387 20.5465C15.2699 19.3313 14.3464 17.8322 14.0776 17.3726C13.8088 16.9131 14.0489 16.666 14.2808 16.4372C14.488 16.233 14.7405 15.9021 14.9703 15.6346C15.2001 15.367 15.2761 15.1771 15.43 14.8707C15.5839 14.5643 15.508 14.2968 15.391 14.068C15.2761 13.8373 14.3547 11.5825 13.9709 10.6654C13.5995 9.77698 13.2198 9.89544 12.9366 9.88319C12.6433 9.87125 12.3498 9.8658 12.0563 9.86685C11.8229 9.87277 11.5932 9.92662 11.3817 10.025C11.1701 10.1234 10.9813 10.2643 10.827 10.4387C10.4043 10.8983 9.21612 12.0052 9.21612 14.26C9.21612 16.5148 10.866 18.6941 11.0959 19.0004C11.3257 19.3068 14.3423 23.9328 18.9596 25.918C20.0596 26.3898 20.9174 26.6716 21.5843 26.884C22.6863 27.2333 23.6898 27.1822 24.484 27.0658C25.3684 26.9351 27.2072 25.9588 27.5909 24.8886C27.9747 23.8184 27.9747 22.9014 27.8597 22.7094C27.7448 22.5174 27.4349 22.401 26.9773 22.1722Z" fill="white"/>
</svg>
