<svg width="159" height="159" viewBox="0 0 159 159" fill="none" xmlns="http://www.w3.org/2000/svg">
<path d="M140.007 46.6688C133.099 39.7603 124.742 34.4717 115.542 31.1849C106.341 27.898 96.5253 26.6948 86.8032 27.6622C77.081 28.6296 67.6949 31.7434 59.3223 36.7788C50.9497 41.8143 43.7995 48.6458 38.3878 56.7802C32.976 64.9147 29.4378 74.1492 28.0284 83.8172C26.619 93.4851 27.3737 103.345 30.2379 112.686C33.1021 122.027 38.0044 130.616 44.591 137.832C51.1776 145.048 59.2841 150.712 68.3255 154.415L68.9409 152.912C60.122 149.3 52.215 143.776 45.7905 136.737C39.366 129.698 34.5843 121.321 31.7905 112.21C28.9968 103.099 28.2607 93.4815 29.6354 84.0514C31.0101 74.6213 34.4613 65.6141 39.7399 57.6798C45.0185 49.7455 51.9927 43.0821 60.1593 38.1705C68.3259 33.259 77.4811 30.2218 86.964 29.2782C96.4469 28.3347 106.021 29.5082 114.995 32.7142C123.97 35.9202 132.12 41.0786 138.859 47.8172L140.007 46.6688Z" fill="#E12025"/>
</svg>
