<svg width="42" height="42" viewBox="0 0 42 42" fill="none" xmlns="http://www.w3.org/2000/svg">
<path opacity="0.5" d="M27.1033 17.6309H21.3416V11.0879C21.3416 10.873 21.1658 10.6973 20.9509 10.6973H18.0212C17.8064 10.6973 17.6306 10.873 17.6306 11.0879V17.6309H11.8689C11.6541 17.6309 11.4783 17.8066 11.4783 18.0215V20.9512C11.4783 21.166 11.6541 21.3418 11.8689 21.3418H17.6306V27.8848C17.6306 28.0996 17.8064 28.2754 18.0212 28.2754H20.9509C21.1658 28.2754 21.3416 28.0996 21.3416 27.8848V21.3418H27.1033C27.3181 21.3418 27.4939 21.166 27.4939 20.9512V18.0215C27.4939 17.8066 27.3181 17.6309 27.1033 17.6309ZM40.9705 38.334L33.8416 31.2051C39.8035 23.9346 39.3884 13.1631 32.572 6.35156C25.3455 -0.879883 13.6072 -0.879883 6.35132 6.35156C-0.880127 13.6074 -0.880127 25.3457 6.35132 32.5723C13.1628 39.3887 23.9343 39.8037 31.2048 33.8418L38.3337 40.9707C38.49 41.1074 38.739 41.1074 38.8708 40.9707L40.9705 38.8711C41.1072 38.7393 41.1072 38.4902 40.9705 38.334ZM29.9841 29.9844C24.1833 35.7803 14.7888 35.7803 8.98804 29.9844C3.19214 24.1836 3.19214 14.7891 8.98804 8.98828C14.7888 3.19238 24.1833 3.19238 29.9841 8.98828C35.78 14.7891 35.78 24.1836 29.9841 29.9844Z" fill="white"/>
</svg>
