<?xml version="1.0" standalone="no"?>
<!DOCTYPE svg PUBLIC "-//W3C//DTD SVG 20010904//EN"
 "http://www.w3.org/TR/2001/REC-SVG-20010904/DTD/svg10.dtd">
<svg version="1.0" xmlns="http://www.w3.org/2000/svg"
 width="759.000000pt" height="759.000000pt" viewBox="0 0 759.000000 759.000000"
 preserveAspectRatio="xMidYMid meet">
<metadata>
Created by potrace 1.11, written by Peter Selinger 2001-2013
</metadata>
<g transform="translate(0.000000,759.000000) scale(0.100000,-0.100000)"
fill="#000000" stroke="none">
<path d="M3569 6526 c-2 -2 -40 -6 -84 -10 -293 -21 -619 -89 -903 -188 -698
-242 -1313 -675 -1823 -1283 -259 -309 -494 -676 -699 -1090 -81 -165 -80
-178 42 -420 175 -347 369 -638 621 -939 203 -242 379 -423 421 -432 106 -24
186 11 227 101 41 89 19 147 -106 278 -139 146 -226 245 -339 387 -88 111 -85
108 -125 165 -19 28 -38 52 -41 55 -12 11 -170 260 -219 345 -28 50 -74 136
-102 191 l-51 101 69 134 c59 113 154 280 213 374 8 13 33 52 54 87 22 35 43
65 46 68 4 3 25 33 48 66 47 71 209 280 262 339 104 116 144 159 236 250 108
108 146 143 239 220 33 28 62 52 65 55 12 13 201 151 270 197 194 129 455 267
643 339 108 42 254 94 281 99 11 3 40 11 66 20 26 9 55 17 66 20 10 2 60 13
109 24 142 31 280 54 415 68 97 10 533 10 630 0 379 -39 757 -140 1089 -292
129 -59 260 -127 303 -156 14 -11 29 -19 33 -19 3 0 70 -42 148 -94 171 -113
334 -241 481 -379 109 -101 159 -133 206 -131 14 1 34 2 45 3 38 2 105 54 125
97 24 49 26 114 4 159 -23 50 -198 215 -374 354 -58 45 -113 89 -123 97 -9 8
-21 14 -26 14 -5 0 -11 4 -13 8 -7 18 -411 272 -433 272 -3 0 -22 10 -43 23
-96 60 -434 199 -617 255 -215 66 -463 122 -610 137 -50 6 -133 16 -165 21
-41 6 -555 15 -561 10z"/>
<path d="M3867 5854 c-1 -1 -74 -4 -162 -8 -88 -3 -171 -8 -185 -10 -14 -2
-53 -7 -87 -10 -93 -10 -265 -43 -388 -76 -347 -92 -648 -248 -985 -509 -94
-72 -119 -99 -137 -145 -44 -117 46 -246 171 -246 61 0 82 12 239 132 171 131
354 242 504 306 67 29 107 45 113 47 3 0 50 15 105 33 182 58 335 86 579 108
23 2 123 4 224 5 160 2 188 4 223 22 104 51 134 180 62 275 -38 51 -86 70
-187 74 -48 1 -88 2 -89 2z"/>
<path d="M4458 5750 c-113 -20 -178 -145 -130 -252 25 -58 69 -89 162 -118
567 -172 1124 -603 1502 -1160 124 -183 248 -400 248 -435 0 -8 -56 -103 -125
-211 -69 -108 -125 -199 -125 -201 0 -2 -11 -19 -25 -37 -60 -79 -73 -167 -34
-236 52 -93 181 -122 266 -61 19 13 113 147 158 224 5 9 47 75 92 145 46 71
107 176 137 234 73 141 72 156 -24 342 -71 139 -159 290 -233 401 -37 56 -205
284 -217 295 -3 3 -32 37 -64 75 -96 114 -322 333 -451 436 -300 240 -591 403
-931 519 -126 44 -154 49 -206 40z"/>
<path d="M3734 5165 c-41 -17 -77 -52 -97 -97 -15 -32 -17 -80 -17 -412 0
-316 2 -383 15 -413 32 -76 73 -101 198 -119 92 -14 205 -59 274 -110 54 -40
133 -121 171 -176 l32 -46 -54 -69 c-96 -122 -211 -205 -336 -240 -8 -3 -52
-6 -97 -8 -133 -6 -260 38 -393 136 -57 42 -150 150 -150 174 0 14 69 106 107
142 13 13 31 39 39 58 64 153 -86 305 -238 242 -75 -32 -202 -187 -269 -330
-27 -59 -31 -76 -26 -121 7 -71 61 -177 149 -296 14 -20 19 -34 12 -38 -6 -4
-53 -59 -104 -122 -52 -63 -104 -125 -116 -138 l-21 -24 -104 104 c-142 141
-271 311 -360 474 l-30 53 22 43 c156 305 474 634 789 814 49 28 115 59 147
69 76 24 117 52 143 97 73 129 -27 285 -175 273 -107 -9 -317 -112 -495 -244
-163 -121 -367 -311 -470 -440 -19 -24 -40 -48 -45 -55 -63 -67 -200 -289
-265 -428 -61 -132 -57 -163 56 -359 184 -322 420 -592 678 -774 160 -114 322
-200 474 -251 101 -34 261 -65 311 -60 147 14 212 196 112 310 -26 30 -62 44
-167 65 -103 21 -175 44 -257 81 -51 23 -52 30 -10 75 10 11 36 42 58 70 22
27 45 55 50 61 6 6 25 29 43 52 l33 40 57 -27 c195 -96 386 -116 623 -66 116
24 292 128 404 239 94 93 133 142 200 245 101 159 96 210 -43 421 -69 104
-193 229 -292 295 -77 50 -219 117 -277 130 l-33 7 0 164 c0 125 3 164 13 164
6 0 50 -10 97 -21 47 -11 94 -21 105 -23 30 -6 202 -73 249 -98 177 -95 317
-198 455 -338 91 -93 249 -287 279 -346 6 -11 28 -32 49 -47 118 -81 273 -9
288 134 6 54 -9 87 -94 205 -264 369 -582 629 -958 782 -98 40 -284 94 -368
106 -135 20 -179 24 -255 24 -48 0 -98 -5 -116 -13z"/>
<path d="M6650 5044 c-82 -36 -123 -117 -105 -210 5 -27 86 -150 115 -174 3
-3 30 -39 60 -80 30 -41 57 -77 61 -80 15 -11 242 -356 306 -466 70 -119 116
-209 116 -230 1 -35 -157 -323 -280 -512 -61 -94 -210 -304 -248 -349 -5 -7
-15 -18 -20 -25 -207 -263 -499 -554 -754 -751 -296 -229 -651 -424 -944 -518
-96 -31 -134 -57 -161 -112 -44 -87 -18 -183 62 -238 58 -39 131 -33 286 25
638 237 1210 659 1724 1273 85 101 146 182 288 378 172 238 421 701 429 798 9
121 -106 354 -363 737 -108 161 -308 430 -361 488 -55 59 -138 78 -211 46z"/>
<path d="M1655 4834 c-61 -15 -101 -56 -244 -248 -155 -208 -262 -373 -356
-551 -114 -214 -119 -250 -49 -393 169 -345 428 -701 742 -1019 l73 -74 -33
-42 c-44 -56 -61 -77 -73 -91 -53 -58 -253 -317 -267 -345 -32 -64 -19 -148
33 -202 29 -30 283 -201 429 -289 417 -250 927 -429 1355 -475 33 -4 71 -8 85
-11 148 -24 762 -24 890 1 10 2 50 7 87 10 37 4 77 9 88 11 10 2 37 6 60 10
91 13 157 88 157 179 1 63 -20 104 -75 149 -36 28 -45 31 -110 30 -40 0 -99
-4 -132 -8 -174 -24 -295 -31 -525 -31 -198 0 -382 9 -445 21 -11 2 -40 6 -65
9 -25 2 -70 9 -100 15 -30 6 -67 13 -82 15 -146 26 -441 116 -573 175 -148 67
-234 109 -330 163 -125 70 -305 184 -305 193 0 6 117 158 156 204 12 14 31 35
41 47 l18 23 111 -73 c211 -138 439 -250 676 -332 99 -35 291 -89 353 -100 17
-2 41 -7 55 -10 147 -33 331 -49 540 -49 213 1 299 10 525 55 156 32 365 96
479 148 37 16 69 30 71 31 13 1 130 59 210 103 198 110 427 274 597 429 177
162 198 189 203 266 5 83 -16 114 -146 213 -46 35 -89 68 -95 74 -7 5 -24 19
-39 30 -137 99 -255 199 -247 209 5 6 30 39 56 73 79 105 90 174 42 257 -35
60 -96 90 -170 84 -73 -6 -101 -29 -202 -166 -145 -195 -233 -290 -373 -403
-77 -63 -195 -145 -246 -171 -175 -92 -280 -131 -436 -163 -9 -2 -40 -6 -70
-10 -29 -4 -69 -14 -88 -23 -131 -63 -134 -258 -6 -325 56 -28 90 -28 245 -2
14 3 61 14 105 26 290 76 581 240 836 473 l61 55 127 -96 c69 -53 138 -107
153 -119 l28 -22 -78 -64 c-145 -120 -238 -186 -375 -266 -81 -48 -288 -152
-312 -156 -5 -2 -27 -10 -48 -19 -95 -41 -297 -96 -446 -122 -246 -42 -554
-40 -801 6 -264 50 -477 122 -725 248 -313 159 -514 316 -789 614 -181 196
-381 475 -492 684 l-49 92 42 83 c81 159 237 389 446 659 50 65 65 121 46 178
-33 102 -122 151 -224 125z"/>
</g>
</svg>
