<svg width="50" height="38" viewBox="0 0 50 38" fill="none" xmlns="http://www.w3.org/2000/svg">
<path fill-rule="evenodd" clip-rule="evenodd" d="M21.2529 3.20502C28.4253 1.78733 35.913 4.16432 41.4056 9.8461C41.569 10.0151 41.7904 10.1097 42.0209 10.1091C42.2515 10.1085 42.4724 10.0128 42.6351 9.84294C42.7977 9.67312 42.8888 9.44312 42.8882 9.20355C42.8876 8.96397 42.7955 8.73444 42.632 8.56545C36.7438 2.47727 28.6845 -0.0981891 20.93 1.43134C13.1755 2.96086 5.79696 8.58593 1.25038 18.7114C1.19496 18.835 1.16713 18.97 1.16897 19.1064C1.17081 19.2428 1.20227 19.377 1.26099 19.499C1.32163 19.625 1.38985 19.7731 1.46869 19.9447C2.19335 21.52 3.77003 24.9523 7.98763 29.4275C8.06582 29.5184 8.16091 29.5918 8.26716 29.6435C8.37341 29.6951 8.48864 29.7239 8.60587 29.728C8.72311 29.7321 8.83993 29.7115 8.9493 29.6674C9.05867 29.6234 9.15831 29.5567 9.24223 29.4716C9.32614 29.3864 9.39258 29.2845 9.43755 29.1719C9.48252 29.0593 9.50508 28.9384 9.50387 28.8166C9.50265 28.6947 9.4777 28.5743 9.4305 28.4628C9.38331 28.3512 9.31485 28.2507 9.22927 28.1673C5.21178 23.9017 3.73364 20.6819 3.02565 19.143L3.00291 19.0926C7.34787 9.6807 14.1897 4.59593 21.2529 3.20502ZM18.662 6.90833C16.6078 7.78887 15.1084 8.9687 13.8501 10.0131C13.7605 10.0872 13.6859 10.179 13.6304 10.2831C13.575 10.3873 13.5398 10.5017 13.5269 10.62C13.514 10.7383 13.5237 10.858 13.5554 10.9724C13.587 11.0868 13.64 11.1935 13.7114 11.2866C13.7828 11.3797 13.8711 11.4573 13.9713 11.5149C14.0716 11.5725 14.1817 11.6091 14.2955 11.6224C14.4094 11.6358 14.5246 11.6258 14.6347 11.5929C14.7448 11.56 14.8475 11.5049 14.9371 11.4308C16.1621 10.4116 17.5053 9.36566 19.3245 8.58435C21.1438 7.80305 23.4663 7.27693 26.6576 7.37144C26.7737 7.37858 26.89 7.36142 26.9995 7.32099C27.1091 7.28056 27.2098 7.21768 27.2956 7.13607C27.3813 7.05447 27.4504 6.95581 27.4988 6.84593C27.5472 6.73606 27.5739 6.61721 27.5772 6.49643C27.5806 6.37565 27.5605 6.2554 27.5183 6.14281C27.4761 6.03022 27.4126 5.92759 27.3315 5.84099C27.2504 5.75439 27.1534 5.68559 27.0462 5.63867C26.939 5.59174 26.8239 5.56766 26.7076 5.56783C23.2996 5.45757 20.7253 6.02464 18.662 6.90833ZM29.0741 6.86265C29.0433 6.97715 29.0345 7.09685 29.0483 7.21488C29.0621 7.33291 29.0983 7.44695 29.1546 7.55043C29.211 7.65392 29.2864 7.74481 29.3767 7.8179C29.4669 7.89099 29.5702 7.94483 29.6806 7.97632C32.5413 8.80803 38.0006 11.5473 41.6057 19.0894C41.3677 19.5462 41.069 20.0519 40.74 20.5874C40.6203 20.7843 40.4944 20.986 40.3686 21.1892C40.0654 21.6791 39.7622 22.1784 39.4863 22.6431C39.3676 22.8484 39.3324 23.0943 39.3883 23.3266C39.4441 23.559 39.5865 23.7587 39.7842 23.882C39.9818 24.0052 40.2184 24.0418 40.442 23.9838C40.6657 23.9258 40.8579 23.7778 40.9765 23.5725C41.2297 23.133 41.5147 22.6746 41.8103 22.1973C41.9407 21.9873 42.0726 21.7741 42.206 21.5578C42.628 20.8916 43.0132 20.2011 43.3597 19.4895C43.4158 19.3678 43.445 19.2346 43.445 19.0996C43.445 18.9647 43.4158 18.8315 43.3597 18.7098C39.5045 10.3092 33.4464 7.1966 30.149 6.23729C29.9273 6.1733 29.6902 6.20317 29.4896 6.32037C29.289 6.43757 29.1413 6.63255 29.0787 6.86265H29.0741ZM36.0994 16.6715C32.8233 11.4969 28.5678 10.0729 25.4417 10.0729C25.3276 10.0731 25.2147 10.0967 25.1094 10.1422C25.0041 10.1878 24.9084 10.2544 24.8279 10.3384C24.7474 10.4224 24.6836 10.522 24.6401 10.6316C24.5966 10.7412 24.5744 10.8586 24.5746 10.9771V15.5609C24.5744 15.6796 24.5967 15.7971 24.6402 15.9068C24.6838 16.0165 24.7478 16.1162 24.8285 16.2002C24.9091 16.2842 25.005 16.3508 25.1105 16.3963C25.216 16.4417 25.329 16.4651 25.4432 16.4651C25.7222 16.4651 27.7901 16.6589 29.0817 19.0674C28.1721 20.5827 27.1109 21.2853 26.13 21.49C25.046 21.7137 23.8666 21.375 22.7811 20.5181C22.3079 20.1369 21.9243 19.6489 21.6592 19.091L21.6986 19.0154C21.9255 18.6071 22.2056 18.2334 22.5309 17.9049C22.6116 17.821 22.6755 17.7214 22.7191 17.6119C22.7627 17.5023 22.7851 17.3849 22.785 17.2663C22.785 17.1478 22.7624 17.0304 22.7187 16.9209C22.675 16.8114 22.6109 16.7119 22.5302 16.6281C22.4495 16.5444 22.3536 16.4779 22.2482 16.4326C22.1428 16.3873 22.0298 16.3641 21.9157 16.3641C21.8016 16.3642 21.6886 16.3876 21.5832 16.4331C21.4778 16.4785 21.3821 16.5451 21.3014 16.6289C20.8628 17.0753 20.4858 17.5826 20.1811 18.1364C20.0942 18.296 20.0173 18.4612 19.9507 18.631C19.9264 18.6925 19.9082 18.746 19.8961 18.7885L19.8855 18.8201C19.8855 18.8279 19.8855 18.8342 19.8855 18.8405V18.8516V18.8594C19.8338 19.0569 19.8477 19.2666 19.9249 19.4549C20.2002 20.1392 20.5886 20.7683 21.0725 21.3136L19.1108 23.7741C17.8312 22.7313 16.5593 21.2285 15.4723 19.0752C16.302 17.3289 17.4688 15.7788 18.9 14.5213C20.2948 13.2769 21.5652 12.6074 22.1201 12.4735C22.3453 12.4224 22.5416 12.2803 22.666 12.0787C22.7904 11.8771 22.8326 11.6324 22.7834 11.3985C22.7341 11.1645 22.5974 10.9605 22.4034 10.8312C22.2093 10.702 21.9738 10.6581 21.7487 10.7093C20.783 10.9283 19.2502 11.812 17.7676 13.1446C16.2515 14.4945 14.6855 16.3879 13.7107 18.7334C13.6606 18.8541 13.6365 18.9847 13.6399 19.1161C13.6433 19.2475 13.6742 19.3765 13.7304 19.4942C15.163 22.4871 16.9519 24.4624 18.7757 25.7447C20.4434 26.915 21.6714 27.3624 23.1177 27.5877C23.2317 27.6083 23.3486 27.605 23.4615 27.5781C23.5743 27.5511 23.6809 27.5009 23.7748 27.4306C23.8687 27.3602 23.9482 27.271 24.0084 27.1683C24.0687 27.0656 24.1086 26.9514 24.1258 26.8324C24.143 26.7134 24.1371 26.592 24.1085 26.4755C24.0799 26.3589 24.0291 26.2494 23.9592 26.1535C23.8893 26.0576 23.8016 25.9772 23.7014 25.917C23.6011 25.8568 23.4903 25.818 23.3754 25.8029C22.381 25.6625 21.4244 25.3142 20.5631 24.7791L22.4415 22.4163C23.674 23.1802 25.0794 23.5189 26.4878 23.2338C28.1797 22.8841 29.7048 21.6491 30.8494 19.5116C30.9166 19.387 30.9542 19.2475 30.9592 19.1048C30.9642 18.9621 30.9365 18.8202 30.8782 18.6909C29.6275 15.9138 27.5596 15.0159 26.3301 14.7434V11.908C28.8301 12.1538 32.0501 13.5179 34.6683 17.6497C34.795 17.8498 34.9929 17.9894 35.2187 18.0379C35.4444 18.0863 35.6794 18.0396 35.872 17.908C36.0646 17.7764 36.199 17.5707 36.2457 17.3362C36.2923 17.1016 36.2473 16.8574 36.1207 16.6573L36.0994 16.6715ZM43.7615 11.0826C43.5855 11.2371 43.4756 11.4578 43.4557 11.6963C43.4358 11.9348 43.5076 12.1717 43.6554 12.3554C44.5722 13.5344 45.4294 14.7621 46.2235 16.0335C46.6783 16.7613 47.0937 17.4685 47.3954 18.0592C47.5231 18.3055 47.6384 18.5584 47.7411 18.8169C47.7652 18.8756 47.7864 18.9355 47.8047 18.9965C46.7981 21.3435 44.9637 24.3884 42.438 27.1765C39.8198 30.0686 36.5027 32.6378 32.6505 33.8979C32.54 33.9321 32.4372 33.9887 32.348 34.0645C32.2588 34.1403 32.185 34.2338 32.131 34.3396C32.0769 34.4453 32.0436 34.5612 32.033 34.6804C32.0225 34.7996 32.0349 34.9198 32.0695 35.0341C32.1041 35.1483 32.1602 35.2542 32.2346 35.3456C32.3089 35.4371 32.4001 35.5123 32.5027 35.5668C32.6053 35.6213 32.7173 35.654 32.8322 35.6631C32.9471 35.6722 33.0626 35.6574 33.172 35.6196C37.3896 34.2413 40.9492 31.4564 43.7039 28.4146C46.4585 25.3729 48.4491 22.0256 49.5118 19.447C49.5676 19.3126 49.591 19.166 49.58 19.0201C49.5465 18.7189 49.4709 18.4244 49.3556 18.1459C49.2295 17.8282 49.0879 17.5175 48.9311 17.2149C48.5961 16.5565 48.1519 15.7972 47.6789 15.0474C46.8487 13.7134 45.9515 12.4257 44.991 11.1897C44.9174 11.0991 44.8273 11.0244 44.7258 10.9699C44.6244 10.9155 44.5136 10.8823 44.3999 10.8724C44.2861 10.8624 44.1716 10.8759 44.0628 10.9119C43.954 10.948 43.8532 11.006 43.766 11.0826H43.7615ZM12.416 12.5397C12.2402 12.3853 12.0126 12.3097 11.7832 12.3295C11.5538 12.3492 11.3414 12.4628 11.1925 12.6452C10.3969 13.6405 9.65983 14.6846 8.98519 15.772C8.30449 16.8621 7.69201 17.9773 7.40851 18.7933C7.32987 19.0182 7.34023 19.2663 7.43731 19.4832C8.49854 21.846 10.2526 24.6278 13.0618 27.3797L10.6013 30.5695C10.5271 30.6662 10.4727 30.7778 10.4417 30.8972C10.4106 31.0166 10.4034 31.1413 10.4206 31.2638C10.4378 31.3862 10.479 31.5036 10.5416 31.6088C10.6043 31.714 10.687 31.8047 10.7847 31.8754C12.4781 33.0962 14.7037 34.6887 17.7706 35.7693C20.8375 36.8499 24.7246 37.4106 29.7473 36.6482C29.8601 36.6311 29.9687 36.591 30.0666 36.5302C30.1646 36.4695 30.2501 36.3893 30.3182 36.2942C30.3864 36.1991 30.4358 36.091 30.4637 35.9761C30.4917 35.8612 30.4976 35.7417 30.481 35.6244C30.4645 35.5071 30.4259 35.3943 30.3674 35.2925C30.309 35.1907 30.2318 35.1019 30.1403 35.0311C30.0488 34.9603 29.9447 34.9089 29.8341 34.8799C29.7235 34.8509 29.6085 34.8448 29.4956 34.862C24.7398 35.585 21.1377 35.0478 18.3315 34.0586C15.9286 33.2127 14.0866 32.025 12.5448 30.9413L14.3929 28.5438C17.2233 30.7255 20.974 32.3479 25.0521 32.4818C29.4986 32.6204 34.2787 30.9744 38.6039 26.4535C38.6908 26.3624 38.758 26.2531 38.8011 26.1329C38.8442 26.0127 38.8622 25.8843 38.8539 25.7563C38.8456 25.6284 38.8111 25.5037 38.7529 25.3906C38.6946 25.2775 38.6139 25.1786 38.516 25.1004L35.2429 22.4919C35.4521 22.2099 35.6295 21.9547 35.7917 21.7263C35.8902 21.5845 35.9827 21.4522 36.0722 21.3278C36.1431 21.2331 36.1952 21.1248 36.2253 21.009C36.2555 20.8932 36.2631 20.7723 36.2478 20.6534C36.2325 20.5346 36.1945 20.42 36.1361 20.3166C36.0777 20.2131 36 20.1228 35.9076 20.0508C35.8152 19.9789 35.71 19.9269 35.598 19.8977C35.486 19.8685 35.3696 19.8629 35.2555 19.881C35.1413 19.8991 35.0318 19.9407 34.9334 20.0033C34.8349 20.0659 34.7494 20.1483 34.682 20.2456C34.5728 20.3953 34.4697 20.5449 34.3621 20.6961C34.0801 21.0978 33.7814 21.5247 33.3433 22.0697C32.7293 22.8353 30.2051 25.6533 26.5697 26.0503C26.4562 26.0627 26.3462 26.0982 26.2459 26.1548C26.1456 26.2114 26.0571 26.2879 25.9853 26.3801C25.9135 26.4722 25.8598 26.5782 25.8275 26.6918C25.7951 26.8055 25.7845 26.9247 25.7965 27.0426C25.8084 27.1605 25.8426 27.2749 25.8971 27.379C25.9515 27.4832 26.0252 27.5752 26.1139 27.6498C26.2026 27.7244 26.3046 27.7802 26.414 27.8138C26.5234 27.8475 26.6381 27.8584 26.7516 27.846C30.3355 27.4475 32.934 25.1366 34.1256 23.8623L36.6619 25.8864C32.8718 29.5094 28.8301 30.7853 25.1082 30.6688C21.1316 30.5459 17.4628 28.8368 14.8204 26.5984C11.9915 23.9726 10.2298 21.312 9.17469 19.0737C9.54371 18.2697 9.96777 17.4943 10.4436 16.7534C11.0778 15.7306 11.7709 14.7485 12.5191 13.8125C12.6676 13.6294 12.7401 13.3925 12.7208 13.1539C12.7015 12.9153 12.5919 12.6944 12.416 12.5397Z" fill="#282D26" stroke="#282D26" stroke-width="0.5"/>
</svg>
