<svg width="151" height="151" viewBox="0 0 151 151" fill="none" xmlns="http://www.w3.org/2000/svg">
<circle cx="75.3488" cy="75.3488" r="73.8488" fill="white" stroke="#282D26" stroke-width="3"/>
<path d="M30.9189 87.9359V96.7941C30.9189 97.0845 30.8035 97.363 30.5982 97.5684C30.3928 97.7737 30.1143 97.8891 29.8239 97.8891C29.5334 97.8891 29.2549 97.7737 29.0496 97.5684C28.8442 97.363 28.7288 97.0845 28.7288 96.7941V87.9359C28.7288 87.6455 28.8442 87.367 29.0496 87.1616C29.2549 86.9563 29.5334 86.8409 29.8239 86.8409C30.1143 86.8409 30.3928 86.9563 30.5982 87.1616C30.8035 87.367 30.9189 87.6455 30.9189 87.9359ZM37.6214 96.8765C37.6172 97.1479 37.5086 97.4072 37.3183 97.6007C37.128 97.7942 36.8705 97.9071 36.5993 97.9159C36.4286 97.91 36.2614 97.8661 36.1099 97.7875C35.9583 97.7088 35.8261 97.5975 35.7229 97.4614L31.6496 92.7706C31.47 92.5694 31.3668 92.3114 31.3581 92.0419C31.3689 91.7785 31.4793 91.529 31.6668 91.3438L35.5273 87.1727C35.6262 87.0592 35.7487 86.9686 35.8861 86.907C36.0234 86.8454 36.1726 86.8144 36.3231 86.816C36.5903 86.8205 36.8449 86.9305 37.0314 87.122C37.2178 87.3135 37.321 87.5709 37.3184 87.8381C37.3156 87.9754 37.2855 88.1106 37.2299 88.2361C37.1742 88.3615 37.0942 88.4746 36.9943 88.5688L33.7591 92.0572L37.3453 96.2111C37.5172 96.3906 37.6157 96.628 37.6214 96.8765Z" fill="#282D26"/>
<path d="M49.4386 92.364C49.4386 95.465 46.9226 97.9159 43.7276 97.9159C40.5326 97.9159 38.0472 95.4803 38.0472 92.364C38.0472 89.2476 40.5403 86.8159 43.7276 86.8159C46.9149 86.8159 49.4386 89.2668 49.4386 92.364ZM40.3044 92.364C40.3044 94.4256 41.7312 95.885 43.7429 95.885C45.7546 95.885 47.1834 94.4102 47.1834 92.364C47.1834 90.3177 45.7393 88.843 43.7429 88.843C41.7465 88.843 40.3044 90.3043 40.3044 92.364Z" fill="#282D26"/>
<path d="M51.2797 96.7941V88.1297C51.2746 87.9814 51.3001 87.8336 51.3546 87.6955C51.4091 87.5574 51.4914 87.432 51.5965 87.3271C51.7016 87.2222 51.8271 87.1401 51.9653 87.0858C52.1034 87.0316 52.2513 87.0063 52.3997 87.0117H55.3204C57.6083 87.0117 59.1655 88.4059 59.1655 90.4636C59.1655 92.5214 57.5757 93.9367 55.3204 93.9367H53.4698V96.7941C53.4698 97.0846 53.3544 97.3631 53.149 97.5685C52.9437 97.7738 52.6652 97.8892 52.3747 97.8892C52.0843 97.8892 51.8058 97.7738 51.6004 97.5685C51.3951 97.3631 51.2797 97.0846 51.2797 96.7941ZM55.307 92.0247C56.3138 92.0247 56.9294 91.4244 56.9294 90.4675C56.9294 89.5412 56.3138 88.9333 55.307 88.9333H53.4736V92.0189L55.307 92.0247Z" fill="#282D26"/>
<path d="M60.9068 96.7941V88.1297C60.9017 87.9814 60.9272 87.8336 60.9817 87.6955C61.0362 87.5574 61.1186 87.432 61.2236 87.3271C61.3287 87.2222 61.4542 87.1401 61.5924 87.0858C61.7306 87.0316 61.8784 87.0063 62.0268 87.0117H64.9456C67.2354 87.0117 68.7926 88.4059 68.7926 90.4636C68.7926 92.5214 67.2009 93.9367 64.9456 93.9367H63.0969V96.7941C63.0969 97.0846 62.9815 97.3631 62.7762 97.5685C62.5708 97.7738 62.2923 97.8892 62.0019 97.8892C61.7114 97.8892 61.4329 97.7738 61.2276 97.5685C61.0222 97.3631 60.9068 97.0846 60.9068 96.7941ZM64.9341 92.0189C65.9409 92.0189 66.5565 91.4187 66.5565 90.4617C66.5565 89.5355 65.9409 88.9275 64.9341 88.9275H63.1007V92.0189H64.9341Z" fill="#282D26"/>
<path d="M70.5339 96.633V88.0971C70.5313 87.9536 70.5577 87.8112 70.6114 87.6782C70.6652 87.5452 70.7452 87.4244 70.8467 87.3231C70.9482 87.2217 71.0692 87.1419 71.2023 87.0884C71.3354 87.0349 71.4779 87.0088 71.6213 87.0116H76.8625C76.9949 87.0052 77.1271 87.0263 77.2509 87.0735C77.3748 87.1208 77.4874 87.1932 77.5819 87.2861C77.6763 87.3791 77.7504 87.4907 77.7996 87.6137C77.8487 87.7368 77.8718 87.8687 77.8674 88.0012C77.8677 88.1325 77.8418 88.2626 77.7912 88.3838C77.7406 88.505 77.6663 88.6148 77.5728 88.707C77.4792 88.7991 77.3682 88.8717 77.2462 88.9204C77.1243 88.9691 76.9938 88.993 76.8625 88.9907H72.724V91.1655H75.5642C75.6903 91.1598 75.8162 91.1797 75.9344 91.224C76.0526 91.2683 76.1605 91.3361 76.2518 91.4233C76.343 91.5105 76.4156 91.6153 76.4653 91.7313C76.5149 91.8474 76.5405 91.9723 76.5405 92.0985C76.5405 92.2247 76.5149 92.3496 76.4653 92.4656C76.4156 92.5817 76.343 92.6865 76.2518 92.7737C76.1605 92.8609 76.0526 92.9287 75.9344 92.973C75.8162 93.0173 75.6903 93.0372 75.5642 93.0315H72.724V95.7412H77.0562C77.3187 95.7412 77.5703 95.8455 77.7559 96.0311C77.9415 96.2167 78.0458 96.4684 78.0458 96.7308C78.0458 96.9933 77.9415 97.2449 77.7559 97.4305C77.5703 97.6161 77.3187 97.7204 77.0562 97.7204H71.6213C71.4778 97.723 71.3352 97.6966 71.2021 97.6429C71.069 97.5892 70.9481 97.5092 70.8466 97.4077C70.7451 97.3062 70.6651 97.1853 70.6114 97.0522C70.5577 96.9191 70.5313 96.7765 70.5339 96.633Z" fill="#282D26"/>
<path d="M82.0271 87.936V96.7941C82.0333 96.9419 82.0095 97.0894 81.9572 97.2278C81.9049 97.3662 81.8252 97.4925 81.7228 97.5993C81.6205 97.706 81.4975 97.791 81.3615 97.849C81.2254 97.907 81.079 97.9369 80.9311 97.9369C80.7832 97.9369 80.6368 97.907 80.5008 97.849C80.3647 97.791 80.2418 97.706 80.1394 97.5993C80.037 97.4925 79.9573 97.3662 79.905 97.2278C79.8527 97.0894 79.8289 96.9419 79.8351 96.7941V87.936C79.8289 87.7882 79.8527 87.6407 79.905 87.5024C79.9573 87.364 80.037 87.2376 80.1394 87.1309C80.2418 87.0241 80.3647 86.9392 80.5008 86.8812C80.6368 86.8231 80.7832 86.7932 80.9311 86.7932C81.079 86.7932 81.2254 86.8231 81.3615 86.8812C81.4975 86.9392 81.6205 87.0241 81.7228 87.1309C81.8252 87.2376 81.9049 87.364 81.9572 87.5024C82.0095 87.6407 82.0333 87.7882 82.0271 87.936ZM88.7278 96.8766C88.7239 97.1481 88.6155 97.4077 88.4251 97.6013C88.2347 97.7949 87.977 97.9076 87.7056 97.916C87.5349 97.91 87.3678 97.8661 87.2162 97.7875C87.0646 97.7089 86.9324 97.5976 86.8292 97.4615L82.7559 92.7707C82.5763 92.5694 82.4731 92.3115 82.4644 92.0419C82.4752 91.7786 82.5856 91.5291 82.7731 91.3439L86.6336 87.1728C86.7326 87.0593 86.855 86.9687 86.9923 86.9071C87.1297 86.8455 87.2789 86.8144 87.4294 86.8161C87.6956 86.8221 87.9488 86.9328 88.134 87.1241C88.3192 87.3154 88.4216 87.572 88.419 87.8382C88.4162 87.9754 88.3861 88.1107 88.3304 88.2361C88.2748 88.3616 88.1947 88.4747 88.0949 88.5689L84.8654 92.0573L88.4516 96.2111C88.6243 96.3902 88.723 96.6279 88.7278 96.8766Z" fill="#282D26"/>
<path d="M99.2964 87.936V95.7413H99.5879C99.7359 95.7373 99.8832 95.7635 100.021 95.8183C100.158 95.873 100.283 95.9552 100.388 96.0598C100.493 96.1644 100.575 96.2892 100.63 96.4267C100.685 96.5641 100.712 96.7113 100.708 96.8593V99.0839C100.708 99.3743 100.593 99.6529 100.387 99.8582C100.182 100.064 99.9033 100.179 99.6129 100.179C99.3224 100.179 99.0439 100.064 98.8386 99.8582C98.6332 99.6529 98.5178 99.3743 98.5178 99.0839V97.7204H91.7021C91.5538 97.7255 91.4059 97.7 91.2679 97.6455C91.1298 97.591 91.0044 97.5086 90.8995 97.4036C90.7946 97.2985 90.7125 97.173 90.6582 97.0348C90.604 96.8966 90.5787 96.7488 90.5841 96.6004V87.936C90.5841 87.7922 90.6124 87.6498 90.6674 87.5169C90.7225 87.3841 90.8031 87.2634 90.9048 87.1617C91.0065 87.06 91.1272 86.9794 91.2601 86.9243C91.3929 86.8693 91.5353 86.841 91.6791 86.841C91.8229 86.841 91.9653 86.8693 92.0982 86.9243C92.231 86.9794 92.3517 87.06 92.4534 87.1617C92.5551 87.2634 92.6358 87.3841 92.6908 87.5169C92.7458 87.6498 92.7741 87.7922 92.7741 87.936V95.7413H97.1064V87.936C97.1004 87.7901 97.1241 87.6445 97.1762 87.508C97.2283 87.3716 97.3077 87.2472 97.4094 87.1424C97.5112 87.0376 97.6331 86.9546 97.768 86.8985C97.9028 86.8424 98.0477 86.8143 98.1937 86.816C98.3406 86.8139 98.4864 86.8415 98.6223 86.8973C98.7581 86.953 98.8813 87.0357 98.9844 87.1404C99.0874 87.2451 99.1682 87.3695 99.2218 87.5063C99.2755 87.643 99.3009 87.7892 99.2964 87.936Z" fill="#282D26"/>
<path d="M111.651 87.9186V96.794C111.651 97.0844 111.535 97.363 111.33 97.5683C111.125 97.7737 110.846 97.889 110.556 97.889C110.265 97.889 109.987 97.7737 109.781 97.5683C109.576 97.363 109.461 97.0844 109.461 96.794V90.849L104.367 97.4365C104.234 97.6295 104.042 97.7747 103.82 97.8507C103.599 97.9266 103.358 97.9294 103.135 97.8585C102.911 97.7877 102.716 97.6469 102.579 97.457C102.441 97.2671 102.368 97.0381 102.371 96.8036V87.9359C102.371 87.6455 102.486 87.367 102.691 87.1616C102.897 86.9562 103.175 86.8409 103.466 86.8409C103.756 86.8409 104.035 86.9562 104.24 87.1616C104.445 87.367 104.561 87.6455 104.561 87.9359V93.9059L109.51 87.4641C109.787 87.1074 110.028 86.8159 110.565 86.8159C110.709 86.8151 110.852 86.8432 110.985 86.8986C111.119 86.9539 111.239 87.0354 111.341 87.1382C111.442 87.241 111.521 87.363 111.575 87.4971C111.628 87.6311 111.654 87.7744 111.651 87.9186Z" fill="#282D26"/>
<path d="M121.978 88.1297V96.7941C121.984 96.9419 121.96 97.0894 121.908 97.2278C121.856 97.3662 121.776 97.4925 121.673 97.5993C121.571 97.706 121.448 97.791 121.312 97.849C121.176 97.907 121.03 97.9369 120.882 97.9369C120.734 97.9369 120.587 97.907 120.451 97.849C120.315 97.791 120.192 97.706 120.09 97.5993C119.988 97.4925 119.908 97.3662 119.856 97.2278C119.803 97.0894 119.78 96.9419 119.786 96.7941V94.4257H118.196C117.985 94.4257 117.791 94.4104 117.596 94.395L115.617 97.4634C115.525 97.6075 115.398 97.7252 115.247 97.805C115.097 97.8847 114.928 97.9236 114.757 97.9179C114.469 97.9134 114.194 97.7945 113.993 97.5874C113.792 97.3803 113.681 97.1019 113.685 96.8133C113.697 96.5619 113.782 96.3194 113.929 96.1152L115.563 93.6644C115.086 93.3361 114.698 92.8943 114.435 92.3786C114.171 91.863 114.04 91.2899 114.054 90.711C114.054 88.5037 115.741 87.0117 118.19 87.0117H120.852C121.001 87.0055 121.149 87.0301 121.288 87.0841C121.427 87.138 121.553 87.22 121.659 87.3249C121.765 87.4299 121.847 87.5556 121.902 87.694C121.957 87.8325 121.983 87.9809 121.978 88.1297ZM119.782 88.9505H118.159C117.057 88.9505 116.293 89.6639 116.293 90.7206C116.293 91.7773 117.061 92.506 118.159 92.506H119.782V88.9505Z" fill="#282D26"/>
<path d="M30.4606 110.813C30.4606 112.664 29.0012 113.96 26.9243 113.96H23.2806C23.1322 113.965 22.9844 113.94 22.8462 113.886C22.708 113.832 22.5825 113.749 22.4774 113.645C22.3724 113.54 22.29 113.414 22.2355 113.276C22.181 113.138 22.1555 112.99 22.1606 112.842V104.365C22.1555 104.217 22.181 104.069 22.2355 103.931C22.29 103.793 22.3723 103.667 22.4773 103.562C22.5824 103.457 22.7079 103.375 22.846 103.32C22.9842 103.266 23.1321 103.24 23.2806 103.246H25.9654C27.9618 103.246 29.356 104.463 29.356 106.231C29.3679 106.591 29.3033 106.949 29.1664 107.282C29.0295 107.615 28.8235 107.915 28.5621 108.163C29.7472 108.585 30.4606 109.524 30.4606 110.813ZM24.2778 105.127V107.578H25.7871C26.6462 107.578 27.1813 107.108 27.1813 106.345C27.1813 105.581 26.6462 105.127 25.7871 105.127H24.2778ZM28.2859 110.725C28.2859 109.883 27.7106 109.382 26.7517 109.382H24.2778V112.077H26.7709C27.7183 112.073 28.2878 111.58 28.2878 110.725H28.2859Z" fill="#282D26"/>
<path d="M43.0083 108.6C43.0083 111.699 40.4941 114.15 37.2972 114.15C34.1004 114.15 31.6188 111.714 31.6188 108.6C31.6188 105.486 34.1119 103.05 37.2972 103.05C40.4826 103.05 43.0083 105.501 43.0083 108.6ZM33.8741 108.6C33.8741 110.662 35.3028 112.121 37.3145 112.121C39.3262 112.121 40.753 110.644 40.753 108.6C40.753 106.556 39.309 105.079 37.3183 105.079C35.3277 105.079 33.8664 106.54 33.8664 108.6H33.8741Z" fill="#282D26"/>
<path d="M44.2493 108.6C44.2493 105.483 46.7423 103.05 49.9603 103.05C50.7431 103.039 51.5188 103.199 52.2334 103.519C52.9481 103.839 53.5846 104.31 54.0988 104.9C54.3104 105.118 54.4323 105.408 54.4402 105.711C54.4347 105.978 54.3242 106.232 54.1329 106.417C53.9415 106.603 53.6846 106.705 53.418 106.703C53.255 106.698 53.0951 106.657 52.9494 106.584C52.8036 106.511 52.6756 106.407 52.5742 106.279C52.2574 105.895 51.8576 105.587 51.4049 105.379C50.9523 105.171 50.4584 105.068 49.9603 105.079C47.9486 105.079 46.5084 106.555 46.5084 108.617C46.5084 110.678 47.9525 112.121 49.9603 112.121C50.4554 112.127 50.9456 112.023 51.395 111.815C51.8443 111.607 52.2414 111.301 52.557 110.92C52.6617 110.792 52.7929 110.688 52.9415 110.615C53.0901 110.542 53.2526 110.502 53.418 110.498C53.549 110.497 53.6789 110.522 53.8003 110.571C53.9216 110.62 54.0321 110.693 54.1254 110.785C54.2188 110.877 54.2931 110.986 54.3441 111.107C54.3952 111.227 54.4219 111.357 54.4229 111.488C54.4117 111.791 54.2904 112.08 54.0816 112.301C53.1419 113.451 51.6 114.149 49.945 114.149C46.7328 114.149 44.2493 111.714 44.2493 108.6Z" fill="#282D26"/>
<path d="M56.5382 113.03V104.365C56.5331 104.217 56.5586 104.069 56.6131 103.931C56.6676 103.793 56.7499 103.667 56.8549 103.562C56.9599 103.457 57.0854 103.375 57.2236 103.32C57.3618 103.266 57.5097 103.24 57.6581 103.246H64.1785C64.3266 103.242 64.4739 103.268 64.6114 103.323C64.749 103.378 64.8739 103.461 64.9786 103.565C65.0834 103.67 65.1657 103.795 65.2207 103.933C65.2757 104.07 65.3022 104.217 65.2985 104.365V113.03C65.2985 113.32 65.1831 113.599 64.9777 113.804C64.7724 114.01 64.4939 114.125 64.2034 114.125C63.913 114.125 63.6345 114.01 63.4291 113.804C63.2238 113.599 63.1084 113.32 63.1084 113.03V105.225H58.7282V113.03C58.7282 113.32 58.6129 113.599 58.4075 113.804C58.2022 114.01 57.9236 114.125 57.6332 114.125C57.3428 114.125 57.0643 114.01 56.8589 113.804C56.6535 113.599 56.5382 113.32 56.5382 113.03Z" fill="#282D26"/>
<path d="M67.7417 113.03V104.365C67.7364 104.217 67.7616 104.069 67.8159 103.931C67.8702 103.793 67.9523 103.667 68.0572 103.562C68.162 103.457 68.2874 103.375 68.4255 103.32C68.5636 103.266 68.7114 103.24 68.8598 103.246H71.7805C74.0703 103.246 75.6275 104.642 75.6275 106.697C75.6275 108.753 74.0358 110.169 71.7805 110.169H69.9318V113.024C69.9318 113.315 69.8164 113.593 69.6111 113.798C69.4057 114.004 69.1272 114.119 68.8368 114.119C68.5463 114.119 68.2678 114.004 68.0625 113.798C67.8571 113.593 67.7417 113.315 67.7417 113.024V113.03ZM71.769 108.26C72.7758 108.26 73.3914 107.658 73.3914 106.703C73.3914 105.777 72.7758 105.169 71.769 105.169H69.9356V108.253L71.769 108.26Z" fill="#282D26"/>
<path d="M86.6661 104.155V113.03C86.6661 113.174 86.6378 113.316 86.5827 113.449C86.5277 113.582 86.447 113.703 86.3454 113.804C86.2437 113.906 86.123 113.987 85.9901 114.042C85.8572 114.097 85.7148 114.125 85.571 114.125C85.4272 114.125 85.2848 114.097 85.152 114.042C85.0191 113.987 84.8984 113.906 84.7967 113.804C84.6951 113.703 84.6144 113.582 84.5594 113.449C84.5043 113.316 84.476 113.174 84.476 113.03V107.085L79.3805 113.672C79.2474 113.866 79.0558 114.011 78.834 114.087C78.6121 114.163 78.3718 114.165 78.1482 114.095C77.9247 114.024 77.7298 113.883 77.5923 113.693C77.4547 113.503 77.3818 113.274 77.3842 113.04V104.172C77.3842 103.882 77.4995 103.603 77.7049 103.398C77.9102 103.192 78.1888 103.077 78.4792 103.077C78.7696 103.077 79.0481 103.192 79.2535 103.398C79.4589 103.603 79.5742 103.882 79.5742 104.172V110.142L84.524 103.7C84.8001 103.343 85.0437 103.05 85.5787 103.05C85.7231 103.05 85.8662 103.078 85.9995 103.133C86.1328 103.189 86.2536 103.271 86.3549 103.373C86.4562 103.476 86.5359 103.599 86.5894 103.733C86.6428 103.867 86.6689 104.01 86.6661 104.155Z" fill="#282D26"/>
<path d="M96.9913 104.366V113.03C96.9913 113.174 96.963 113.316 96.9079 113.449C96.8529 113.582 96.7723 113.703 96.6706 113.804C96.5689 113.906 96.4482 113.987 96.3153 114.042C96.1825 114.097 96.0401 114.125 95.8963 114.125C95.7525 114.125 95.6101 114.097 95.4772 114.042C95.3444 113.987 95.2236 113.906 95.122 113.804C95.0203 113.703 94.9396 113.582 94.8846 113.449C94.8295 113.316 94.8012 113.174 94.8012 113.03V110.662H93.2095C93.0005 110.662 92.8048 110.644 92.6092 110.629L90.632 113.69C90.5414 113.834 90.4143 113.952 90.2635 114.032C90.1126 114.112 89.9434 114.151 89.7729 114.144C89.4843 114.14 89.2093 114.021 89.0083 113.814C88.8073 113.607 88.6968 113.328 88.7009 113.04C88.7129 112.788 88.7975 112.546 88.9444 112.341L90.5841 109.893C90.1068 109.565 89.7188 109.123 89.4553 108.607C89.1918 108.091 89.061 107.518 89.0748 106.939C89.0748 104.732 90.7624 103.24 93.2114 103.24H95.8733C96.022 103.235 96.1702 103.261 96.3086 103.316C96.4469 103.371 96.5725 103.454 96.6774 103.559C96.7823 103.665 96.8643 103.791 96.9183 103.93C96.9723 104.068 96.9972 104.217 96.9913 104.366ZM94.8012 105.177H93.1788C92.0742 105.177 91.3128 105.89 91.3128 106.945C91.3128 108 92.0799 108.73 93.1788 108.73H94.8012V105.177Z" fill="#282D26"/>
<path d="M101.849 113.03V105.225H99.3002C99.1703 105.225 99.0416 105.199 98.9215 105.149C98.8015 105.1 98.6924 105.027 98.6005 104.935C98.5086 104.843 98.4357 104.734 98.386 104.614C98.3363 104.494 98.3107 104.365 98.3107 104.235C98.3107 104.105 98.3363 103.977 98.386 103.856C98.4357 103.736 98.5086 103.627 98.6005 103.535C98.6924 103.444 98.8015 103.371 98.9215 103.321C99.0416 103.271 99.1703 103.246 99.3002 103.246H106.588C106.72 103.239 106.853 103.26 106.977 103.307C107.101 103.354 107.214 103.426 107.308 103.519C107.403 103.612 107.477 103.724 107.527 103.847C107.576 103.97 107.599 104.103 107.595 104.235C107.595 104.367 107.569 104.497 107.518 104.618C107.467 104.74 107.393 104.849 107.299 104.942C107.205 105.034 107.094 105.106 106.972 105.155C106.85 105.204 106.719 105.227 106.588 105.225H104.039V113.03C104.039 113.32 103.924 113.599 103.718 113.804C103.513 114.01 103.234 114.125 102.944 114.125C102.654 114.125 102.375 114.01 102.17 113.804C101.964 113.599 101.849 113.32 101.849 113.03Z" fill="#282D26"/>
<path d="M118.209 104.154V113.03C118.209 113.174 118.181 113.316 118.126 113.449C118.071 113.582 117.99 113.702 117.889 113.804C117.787 113.906 117.666 113.986 117.533 114.041C117.4 114.096 117.258 114.125 117.114 114.125C116.97 114.125 116.828 114.096 116.695 114.041C116.562 113.986 116.442 113.906 116.34 113.804C116.238 113.702 116.158 113.582 116.103 113.449C116.048 113.316 116.019 113.174 116.019 113.03V107.085L110.924 113.672C110.791 113.865 110.599 114.01 110.377 114.086C110.155 114.162 109.915 114.165 109.691 114.094C109.468 114.023 109.273 113.883 109.135 113.693C108.998 113.503 108.925 113.274 108.927 113.039V104.172C108.921 104.024 108.945 103.876 108.997 103.738C109.05 103.6 109.129 103.473 109.232 103.366C109.334 103.26 109.457 103.175 109.593 103.117C109.729 103.059 109.875 103.029 110.023 103.029C110.171 103.029 110.318 103.059 110.454 103.117C110.59 103.175 110.713 103.26 110.815 103.366C110.917 103.473 110.997 103.6 111.049 103.738C111.102 103.876 111.126 104.024 111.119 104.172V110.142L116.067 103.7C116.343 103.343 116.587 103.05 117.122 103.05C117.266 103.049 117.41 103.077 117.543 103.133C117.676 103.188 117.797 103.27 117.899 103.373C118 103.476 118.08 103.598 118.133 103.732C118.186 103.866 118.212 104.01 118.209 104.154Z" fill="#282D26"/>
<path d="M128.536 104.365V113.03C128.543 113.178 128.519 113.325 128.466 113.463C128.414 113.602 128.334 113.728 128.232 113.835C128.13 113.942 128.007 114.027 127.871 114.085C127.735 114.143 127.588 114.173 127.44 114.173C127.292 114.173 127.146 114.143 127.01 114.085C126.874 114.027 126.751 113.942 126.649 113.835C126.546 113.728 126.466 113.602 126.414 113.463C126.362 113.325 126.338 113.178 126.344 113.03V110.661H124.755C124.544 110.661 124.35 110.644 124.154 110.629L122.175 113.697C122.084 113.841 121.957 113.959 121.806 114.038C121.655 114.118 121.486 114.156 121.316 114.15C121.173 114.148 121.032 114.117 120.901 114.06C120.77 114.004 120.651 113.922 120.552 113.819C120.453 113.717 120.375 113.595 120.322 113.463C120.269 113.33 120.244 113.188 120.246 113.045C120.258 112.794 120.343 112.551 120.489 112.347L122.127 109.898C121.651 109.57 121.263 109.128 121 108.612C120.737 108.097 120.606 107.524 120.62 106.945C120.62 104.737 122.307 103.245 124.756 103.245H127.418C127.567 103.241 127.714 103.266 127.852 103.321C127.99 103.376 128.115 103.458 128.22 103.563C128.325 103.668 128.407 103.793 128.462 103.931C128.516 104.069 128.541 104.217 128.536 104.365ZM126.344 105.177H124.722C123.619 105.177 122.856 105.89 122.856 106.945C122.856 108 123.623 108.73 124.722 108.73H126.344V105.177Z" fill="#282D26"/>
<path fill-rule="evenodd" clip-rule="evenodd" d="M70.1293 39.3879C79.2022 37.6619 88.6739 40.5558 95.622 47.4731C95.8287 47.6789 96.1087 47.7941 96.4004 47.7933C96.6921 47.7926 96.9715 47.6761 97.1773 47.4693C97.383 47.2626 97.4982 46.9825 97.4975 46.6909C97.4967 46.3992 97.3802 46.1197 97.1734 45.914C89.7249 38.5019 79.5301 35.3664 69.7208 37.2285C59.9115 39.0906 50.5778 45.9389 44.8264 58.2663C44.7563 58.4168 44.7211 58.5812 44.7234 58.7472C44.7258 58.9133 44.7656 59.0766 44.8398 59.2251C44.9166 59.3786 45.0029 59.5588 45.1026 59.7679C46.0193 61.6856 48.0137 65.8644 53.3489 71.3127C53.4478 71.4234 53.5681 71.5128 53.7025 71.5757C53.8369 71.6385 53.9827 71.6735 54.131 71.6786C54.2793 71.6836 54.4271 71.6585 54.5654 71.6049C54.7038 71.5512 54.8298 71.4701 54.936 71.3664C55.0421 71.2627 55.1262 71.1386 55.183 71.0016C55.2399 70.8645 55.2685 70.7173 55.2669 70.569C55.2654 70.4206 55.2338 70.2741 55.1741 70.1382C55.1144 70.0024 55.0278 69.88 54.9196 69.7785C49.8375 64.5853 47.9677 60.6654 47.0721 58.7917L47.0433 58.7304C52.5396 47.2718 61.1944 41.0813 70.1293 39.3879ZM66.8518 43.8965C64.2533 44.9686 62.3566 46.405 60.7649 47.6764C60.6515 47.7667 60.5571 47.8784 60.487 48.0052C60.4168 48.132 60.3723 48.2714 60.356 48.4153C60.3397 48.5593 60.3519 48.7051 60.392 48.8443C60.432 48.9836 60.4991 49.1136 60.5894 49.2269C60.6797 49.3403 60.7914 49.4347 60.9182 49.5049C61.045 49.575 61.1843 49.6195 61.3283 49.6358C61.4723 49.6521 61.6181 49.6399 61.7573 49.5998C61.8966 49.5598 62.0266 49.4927 62.1399 49.4024C63.6894 48.1616 65.3886 46.8882 67.6899 45.937C69.9912 44.9858 72.9292 44.3453 76.9661 44.4604C77.1129 44.469 77.26 44.4482 77.3986 44.3989C77.5373 44.3497 77.6646 44.2732 77.7731 44.1738C77.8816 44.0745 77.969 43.9543 78.0302 43.8206C78.0914 43.6868 78.1251 43.5421 78.1293 43.3951C78.1336 43.248 78.1083 43.1016 78.0549 42.9645C78.0015 42.8275 77.9211 42.7025 77.8185 42.5971C77.7159 42.4917 77.5932 42.4079 77.4577 42.3508C77.3221 42.2936 77.1764 42.2643 77.0293 42.2645C72.7182 42.1303 69.4619 42.8207 66.8518 43.8965ZM80.023 43.8409C79.9839 43.9803 79.9728 44.126 79.9903 44.2697C80.0078 44.4134 80.0535 44.5523 80.1247 44.6783C80.196 44.8043 80.2915 44.9149 80.4057 45.0039C80.5198 45.0929 80.6505 45.1584 80.7901 45.1968C84.4089 46.2093 91.3147 49.5443 95.8751 58.7265C95.574 59.2827 95.1962 59.8983 94.7801 60.5503C94.6286 60.79 94.4694 61.0355 94.3102 61.2829C93.9267 61.8793 93.5431 62.4872 93.1941 63.053C93.044 63.303 92.9995 63.6023 93.0701 63.8852C93.1408 64.168 93.3209 64.4112 93.5709 64.5613C93.8209 64.7113 94.1203 64.7559 94.4031 64.6853C94.686 64.6146 94.9292 64.4344 95.0792 64.1845C95.3995 63.6494 95.76 63.0913 96.134 62.5103C96.2989 62.2546 96.4658 61.995 96.6345 61.7316C97.1683 60.9206 97.6556 60.0799 98.0939 59.2136C98.1649 59.0655 98.2017 58.9033 98.2017 58.739C98.2017 58.5747 98.1649 58.4125 98.0939 58.2643C93.2171 48.037 85.5538 44.2475 81.3826 43.0796C81.1022 43.0017 80.8022 43.038 80.5485 43.1807C80.2947 43.3234 80.1079 43.5608 80.0287 43.8409H80.023ZM88.9098 55.7828C84.7656 49.483 79.3824 47.7493 75.428 47.7493C75.2837 47.7496 75.1409 47.7782 75.0076 47.8337C74.8744 47.8891 74.7534 47.9703 74.6516 48.0725C74.5497 48.1747 74.469 48.296 74.414 48.4294C74.359 48.5628 74.3308 48.7058 74.3311 48.8501V54.4308C74.3308 54.5752 74.359 54.7183 74.4142 54.8519C74.4693 54.9854 74.5502 55.1068 74.6522 55.209C74.7543 55.3113 74.8755 55.3924 75.009 55.4477C75.1424 55.5031 75.2855 55.5315 75.4299 55.5315C75.7828 55.5315 78.3986 55.7674 80.0325 58.6997C78.8819 60.5446 77.5395 61.3999 76.2987 61.6492C74.9275 61.9215 73.4355 61.5092 72.0624 60.4659C71.4638 60.0017 70.9785 59.4076 70.6432 58.7284L70.6931 58.6364C70.98 58.1393 71.3343 57.6843 71.7459 57.2844C71.8479 57.1823 71.9288 57.061 71.984 56.9277C72.0391 56.7943 72.0675 56.6513 72.0674 56.507C72.0673 56.3627 72.0388 56.2198 71.9834 56.0865C71.9281 55.9531 71.8471 55.832 71.745 55.73C71.6429 55.628 71.5216 55.5472 71.3883 55.492C71.2549 55.4369 71.1119 55.4085 70.9676 55.4086C70.8233 55.4087 70.6804 55.4372 70.5471 55.4925C70.4137 55.5478 70.2926 55.6289 70.1906 55.731C69.6358 56.2744 69.1588 56.892 68.7734 57.5663C68.6635 57.7606 68.5662 57.9617 68.4819 58.1685C68.4512 58.2433 68.4282 58.3085 68.4129 58.3602L68.3995 58.3986C68.3995 58.4082 68.3995 58.4158 68.3995 58.4235V58.4369V58.4465C68.3342 58.6869 68.3517 58.9423 68.4493 59.1714C68.7976 60.0046 69.2889 60.7705 69.9011 61.4344L67.4195 64.4299C65.8009 63.1604 64.1919 61.3308 62.8169 58.7093C63.8664 56.5832 65.3424 54.6959 67.1529 53.165C68.9172 51.65 70.5243 50.835 71.2262 50.672C71.511 50.6097 71.7595 50.4368 71.9168 50.1913C72.0742 49.9458 72.1275 49.6479 72.0652 49.3631C72.0029 49.0783 71.83 48.8299 71.5846 48.6725C71.3391 48.5152 71.0412 48.4618 70.7564 48.5241C69.5348 48.7906 67.5959 49.8665 65.7203 51.4889C63.8026 53.1324 61.8216 55.4376 60.5884 58.2931C60.5251 58.4401 60.4946 58.599 60.4989 58.759C60.5032 58.9189 60.5423 59.076 60.6134 59.2194C62.4256 62.8631 64.6886 65.268 66.9957 66.829C69.1052 68.2539 70.6586 68.7986 72.4881 69.0728C72.6324 69.0979 72.7803 69.094 72.923 69.0611C73.0658 69.0283 73.2005 68.9672 73.3194 68.8816C73.4382 68.7959 73.5387 68.6873 73.6149 68.5623C73.6912 68.4372 73.7416 68.2982 73.7634 68.1533C73.7851 68.0084 73.7777 67.8607 73.7415 67.7187C73.7053 67.5768 73.6411 67.4435 73.5526 67.3268C73.4642 67.21 73.3533 67.1121 73.2265 67.0388C73.0997 66.9655 72.9594 66.9183 72.8141 66.9C71.5563 66.729 70.3461 66.305 69.2567 65.6535L71.6328 62.7768C73.1919 63.7069 74.9697 64.1193 76.7513 63.7721C78.8915 63.3464 80.8207 61.8429 82.2687 59.2405C82.3536 59.0888 82.4012 58.9191 82.4076 58.7453C82.4139 58.5716 82.3788 58.3988 82.3051 58.2413C80.7229 54.8603 78.1071 53.7672 76.5518 53.4354V49.9835C79.7142 50.2827 83.7875 51.9434 87.0995 56.9737C87.2597 57.2173 87.5101 57.3873 87.7957 57.4463C88.0812 57.5053 88.3785 57.4484 88.6222 57.2882C88.8658 57.128 89.0358 56.8776 89.0948 56.592C89.1538 56.3064 89.0969 56.0091 88.9367 55.7655L88.9098 55.7828ZM98.6022 48.9786C98.3795 49.1667 98.2405 49.4353 98.2153 49.7257C98.1901 50.016 98.281 50.3045 98.4679 50.5281C99.6277 51.9635 100.712 53.4582 101.717 55.0061C102.292 55.8921 102.817 56.7532 103.199 57.4723C103.36 57.7721 103.506 58.08 103.636 58.3948C103.667 58.4662 103.694 58.5392 103.717 58.6134C102.443 61.4708 100.123 65.1779 96.928 68.5723C93.616 72.0933 89.42 75.2211 84.5469 76.7553C84.4072 76.7969 84.2772 76.8658 84.1643 76.9581C84.0515 77.0504 83.9582 77.1643 83.8898 77.293C83.8214 77.4217 83.7793 77.5628 83.7659 77.7079C83.7525 77.8531 83.7682 77.9995 83.812 78.1385C83.8557 78.2776 83.9267 78.4065 84.0208 78.5179C84.1149 78.6292 84.2302 78.7207 84.36 78.7871C84.4898 78.8534 84.6315 78.8933 84.7769 78.9043C84.9222 78.9154 85.0683 78.8974 85.2066 78.8514C90.5418 77.1734 95.0447 73.7828 98.5293 70.0796C102.014 66.3764 104.532 62.3012 105.876 59.1619C105.947 58.9982 105.976 58.8198 105.962 58.6421C105.92 58.2755 105.824 57.9169 105.679 57.5778C105.519 57.1911 105.34 56.8128 105.142 56.4444C104.718 55.6428 104.156 54.7184 103.558 53.8056C102.507 52.1814 101.372 50.6137 100.157 49.109C100.064 48.9986 99.9503 48.9077 99.822 48.8414C99.6937 48.7751 99.5536 48.7347 99.4097 48.7226C99.2658 48.7105 99.1209 48.7268 98.9833 48.7708C98.8457 48.8147 98.7182 48.8853 98.6079 48.9786H98.6022ZM58.9507 50.7525C58.7283 50.5645 58.4405 50.4725 58.1503 50.4965C57.8601 50.5206 57.5914 50.6589 57.4031 50.881C56.3966 52.0926 55.4642 53.3639 54.6108 54.6877C53.7497 56.0148 52.975 57.3726 52.6163 58.366C52.5169 58.6398 52.53 58.9418 52.6528 59.206C53.9952 62.0826 56.214 65.4693 59.7676 68.8197L56.6551 72.7031C56.5612 72.8209 56.4925 72.9566 56.4532 73.102C56.4139 73.2474 56.4049 73.3993 56.4266 73.5483C56.4484 73.6973 56.5005 73.8403 56.5797 73.9684C56.6589 74.0965 56.7636 74.2069 56.8872 74.2929C59.0293 75.7792 61.8446 77.718 65.7242 79.0336C69.6038 80.3492 74.5209 81.0319 80.8744 80.1037C81.0172 80.0828 81.1545 80.034 81.2784 79.96C81.4024 79.8861 81.5105 79.7884 81.5967 79.6727C81.6829 79.5569 81.7454 79.4253 81.7808 79.2854C81.8161 79.1455 81.8235 79 81.8026 78.8572C81.7817 78.7144 81.7329 78.5771 81.6589 78.4532C81.585 78.3293 81.4874 78.2211 81.3716 78.1349C81.2558 78.0487 81.1242 77.9862 80.9843 77.9509C80.8444 77.9155 80.6989 77.9081 80.5561 77.929C74.5401 78.8092 69.9835 78.1553 66.4338 76.9509C63.3941 75.9211 61.064 74.4751 59.1137 73.1557L61.4514 70.2369C65.0319 72.893 69.7764 74.8683 74.9352 75.0313C80.5599 75.2 86.6066 73.196 92.078 67.692C92.1878 67.5811 92.2729 67.448 92.3274 67.3017C92.3819 67.1553 92.4047 66.9991 92.3941 66.8432C92.3836 66.6874 92.3401 66.5357 92.2664 66.398C92.1927 66.2603 92.0905 66.1399 91.9667 66.0447L87.8263 62.8689C88.0909 62.5256 88.3153 62.2149 88.5205 61.9368C88.6452 61.7642 88.7622 61.6032 88.8753 61.4517C88.965 61.3364 89.0309 61.2045 89.069 61.0635C89.1072 60.9226 89.1169 60.7754 89.0975 60.6307C89.0781 60.4859 89.0301 60.3465 88.9562 60.2205C88.8823 60.0946 88.7841 59.9846 88.6672 59.897C88.5503 59.8095 88.4172 59.7461 88.2755 59.7106C88.1339 59.6751 87.9866 59.6682 87.8422 59.6902C87.6978 59.7123 87.5593 59.7629 87.4348 59.8392C87.3102 59.9154 87.2021 60.0157 87.1167 60.1342C86.9786 60.3163 86.8482 60.4985 86.7121 60.6826C86.3554 61.1717 85.9776 61.6914 85.4234 62.3549C84.6467 63.2869 81.4536 66.7178 76.8548 67.2011C76.7113 67.2162 76.5721 67.2594 76.4453 67.3283C76.3184 67.3972 76.2064 67.4904 76.1156 67.6026C76.0248 67.7148 75.9569 67.8438 75.9159 67.9822C75.875 68.1206 75.8617 68.2657 75.8768 68.4093C75.8919 68.5528 75.9351 68.692 76.004 68.8188C76.0729 68.9457 76.1661 69.0577 76.2783 69.1485C76.3905 69.2393 76.5195 69.3072 76.6579 69.3481C76.7963 69.3891 76.9414 69.4024 77.085 69.3873C81.6185 68.9021 84.9056 66.0888 86.4129 64.5373L89.6213 67.0016C84.8269 71.4125 79.7142 72.9659 75.0061 72.8239C69.9758 72.6744 65.3349 70.5936 61.9922 67.8685C58.4137 64.6716 56.1853 61.4325 54.8505 58.7073C55.3173 57.7286 55.8538 56.7845 56.4557 55.8825C57.258 54.6373 58.1347 53.4416 59.0811 52.302C59.269 52.0791 59.3607 51.7908 59.3363 51.5003C59.3118 51.2098 59.1732 50.9409 58.9507 50.7525Z" fill="#282D26"/>
</svg>
