<svg width="128" height="128" viewBox="0 0 128 128" fill="none" xmlns="http://www.w3.org/2000/svg">
<circle cx="63.6386" cy="63.6386" r="63.6386" fill="white"/>
<path d="M26.1137 74.2694V81.7509C26.1137 81.9962 26.0162 82.2314 25.8428 82.4049C25.6694 82.5783 25.4341 82.6757 25.1888 82.6757C24.9435 82.6757 24.7083 82.5783 24.5349 82.4049C24.3614 82.2314 24.264 81.9962 24.264 81.7509V74.2694C24.264 74.0242 24.3614 73.7889 24.5349 73.6155C24.7083 73.442 24.9435 73.3446 25.1888 73.3446C25.4341 73.3446 25.6694 73.442 25.8428 73.6155C26.0162 73.7889 26.1137 74.0242 26.1137 74.2694ZM31.7746 81.8205C31.7709 82.0497 31.6793 82.2687 31.5185 82.4322C31.3578 82.5956 31.1404 82.691 30.9113 82.6984C30.7671 82.6934 30.6259 82.6563 30.4979 82.5899C30.3699 82.5235 30.2582 82.4294 30.1711 82.3145L26.7308 78.3527C26.5791 78.1828 26.492 77.9649 26.4846 77.7372C26.4938 77.5148 26.587 77.3041 26.7454 77.1477L30.0058 73.6248C30.0894 73.529 30.1928 73.4524 30.3089 73.4004C30.4249 73.3484 30.5509 73.3222 30.678 73.3235C30.9037 73.3274 31.1187 73.4203 31.2762 73.582C31.4337 73.7437 31.5208 73.9611 31.5187 74.1868C31.5163 74.3027 31.4909 74.417 31.4439 74.5229C31.3969 74.6289 31.3292 74.7244 31.2449 74.804L28.5125 77.7502L31.5413 81.2585C31.6865 81.4101 31.7697 81.6106 31.7746 81.8205Z" fill="#282D26"/>
<path d="M41.7552 78.0093C41.7552 80.6284 39.6302 82.6984 36.9317 82.6984C34.2333 82.6984 32.1342 80.6413 32.1342 78.0093C32.1342 75.3773 34.2398 73.3235 36.9317 73.3235C39.6237 73.3235 41.7552 75.3935 41.7552 78.0093ZM34.0406 78.0093C34.0406 79.7505 35.2456 80.9831 36.9447 80.9831C38.6438 80.9831 39.8505 79.7375 39.8505 78.0093C39.8505 76.2811 38.6308 75.0355 36.9447 75.0355C35.2586 75.0355 34.0406 76.2697 34.0406 78.0093Z" fill="#282D26"/>
<path d="M43.3102 81.751V74.4332C43.3059 74.3079 43.3274 74.183 43.3734 74.0664C43.4195 73.9498 43.489 73.8439 43.5777 73.7553C43.6665 73.6667 43.7725 73.5973 43.8892 73.5515C44.0059 73.5057 44.1308 73.4844 44.2561 73.4889H46.7229C48.6552 73.4889 49.9704 74.6664 49.9704 76.4044C49.9704 78.1423 48.6277 79.3376 46.7229 79.3376H45.1599V81.751C45.1599 81.9963 45.0624 82.2315 44.889 82.405C44.7156 82.5784 44.4803 82.6759 44.235 82.6759C43.9897 82.6759 43.7545 82.5784 43.5811 82.405C43.4076 82.2315 43.3102 81.9963 43.3102 81.751ZM46.7116 77.7228C47.5619 77.7228 48.0818 77.2158 48.0818 76.4076C48.0818 75.6253 47.5619 75.1118 46.7116 75.1118H45.1631V77.7179L46.7116 77.7228Z" fill="#282D26"/>
<path d="M51.4411 81.751V74.4332C51.4368 74.3079 51.4583 74.183 51.5044 74.0664C51.5504 73.9498 51.6199 73.8439 51.7087 73.7553C51.7974 73.6667 51.9034 73.5973 52.0201 73.5515C52.1368 73.5057 52.2617 73.4844 52.387 73.4889H54.8522C56.7861 73.4889 58.1013 74.6664 58.1013 76.4044C58.1013 78.1423 56.757 79.3376 54.8522 79.3376H53.2908V81.751C53.2908 81.9963 53.1934 82.2315 53.0199 82.405C52.8465 82.5784 52.6112 82.6759 52.3659 82.6759C52.1207 82.6759 51.8854 82.5784 51.712 82.405C51.5385 82.2315 51.4411 81.9963 51.4411 81.751ZM54.8425 77.7179C55.6928 77.7179 56.2128 77.211 56.2128 76.4027C56.2128 75.6204 55.6928 75.107 54.8425 75.107H53.294V77.7179H54.8425Z" fill="#282D26"/>
<path d="M59.572 81.6148V74.4055C59.5698 74.2844 59.5921 74.164 59.6375 74.0517C59.6829 73.9394 59.7505 73.8374 59.8362 73.7518C59.922 73.6662 60.0241 73.5988 60.1365 73.5536C60.2489 73.5084 60.3693 73.4863 60.4904 73.4887H64.9171C65.0289 73.4833 65.1406 73.5011 65.2452 73.541C65.3497 73.5809 65.4449 73.6421 65.5246 73.7206C65.6044 73.7991 65.667 73.8933 65.7085 73.9973C65.75 74.1012 65.7695 74.2126 65.7658 74.3245C65.766 74.4354 65.7442 74.5453 65.7014 74.6476C65.6587 74.75 65.596 74.8428 65.5169 74.9206C65.4379 74.9984 65.3442 75.0597 65.2412 75.1009C65.1382 75.142 65.028 75.1622 64.9171 75.1603H61.4218V76.997H63.8205C63.927 76.9922 64.0334 77.009 64.1332 77.0464C64.233 77.0839 64.3242 77.1411 64.4013 77.2148C64.4783 77.2884 64.5397 77.3769 64.5816 77.4749C64.6235 77.5729 64.6451 77.6784 64.6451 77.785C64.6451 77.8916 64.6235 77.9971 64.5816 78.0951C64.5397 78.1931 64.4783 78.2816 64.4013 78.3553C64.3242 78.4289 64.233 78.4862 64.1332 78.5236C64.0334 78.561 63.927 78.5778 63.8205 78.573H61.4218V80.8617H65.0807C65.3023 80.8617 65.5149 80.9497 65.6717 81.1065C65.8284 81.2632 65.9164 81.4758 65.9164 81.6974C65.9164 81.9191 65.8284 82.1317 65.6717 82.2884C65.5149 82.4451 65.3023 82.5332 65.0807 82.5332H60.4904C60.3692 82.5354 60.2488 82.5131 60.1364 82.4678C60.024 82.4224 59.9219 82.3548 59.8361 82.2691C59.7504 82.1834 59.6829 82.0813 59.6375 81.9689C59.5921 81.8564 59.5699 81.736 59.572 81.6148Z" fill="#282D26"/>
<path d="M69.279 74.2696V81.7511C69.2842 81.8759 69.2642 82.0005 69.22 82.1173C69.1758 82.2342 69.1085 82.3409 69.022 82.4311C68.9356 82.5213 68.8317 82.593 68.7168 82.642C68.6019 82.691 68.4783 82.7163 68.3533 82.7163C68.2284 82.7163 68.1048 82.691 67.9899 82.642C67.875 82.593 67.7712 82.5213 67.6847 82.4311C67.5982 82.3409 67.5309 82.2342 67.4867 82.1173C67.4425 82.0005 67.4225 81.8759 67.4277 81.7511V74.2696C67.4225 74.1448 67.4425 74.0202 67.4867 73.9034C67.5309 73.7865 67.5982 73.6798 67.6847 73.5896C67.7712 73.4995 67.875 73.4277 67.9899 73.3787C68.1048 73.3297 68.2284 73.3044 68.3533 73.3044C68.4783 73.3044 68.6019 73.3297 68.7168 73.3787C68.8317 73.4277 68.9356 73.4995 69.022 73.5896C69.1085 73.6798 69.1758 73.7865 69.22 73.9034C69.2642 74.0202 69.2842 74.1448 69.279 74.2696ZM74.9383 81.8207C74.9351 82.0501 74.8435 82.2693 74.6827 82.4328C74.5219 82.5963 74.3042 82.6915 74.075 82.6986C73.9308 82.6936 73.7896 82.6565 73.6616 82.5901C73.5336 82.5237 73.4219 82.4296 73.3348 82.3147L69.8945 78.3529C69.7428 78.183 69.6557 77.9651 69.6483 77.7374C69.6575 77.515 69.7507 77.3043 69.9091 77.1479L73.1696 73.625C73.2532 73.5292 73.3565 73.4526 73.4726 73.4006C73.5886 73.3486 73.7146 73.3224 73.8417 73.3237C74.0666 73.3288 74.2803 73.4223 74.4368 73.5839C74.5932 73.7455 74.6797 73.9622 74.6775 74.187C74.6751 74.3029 74.6497 74.4172 74.6027 74.5231C74.5557 74.6291 74.4881 74.7246 74.4038 74.8042L71.6762 77.7504L74.705 81.2587C74.8509 81.4099 74.9342 81.6107 74.9383 81.8207Z" fill="#282D26"/>
<path d="M83.8644 74.2695V80.8617H84.1106C84.2356 80.8584 84.36 80.8805 84.4761 80.9268C84.5923 80.973 84.6978 81.0424 84.7863 81.1308C84.8748 81.2191 84.9444 81.3245 84.9909 81.4406C85.0373 81.5567 85.0596 81.681 85.0565 81.806V83.6849C85.0565 83.9302 84.9591 84.1654 84.7856 84.3388C84.6122 84.5123 84.377 84.6097 84.1317 84.6097C83.8864 84.6097 83.6512 84.5123 83.4777 84.3388C83.3043 84.1654 83.2068 83.9302 83.2068 83.6849V82.5333H77.4504C77.3251 82.5376 77.2002 82.516 77.0836 82.47C76.967 82.424 76.8611 82.3544 76.7725 82.2657C76.6839 82.1769 76.6146 82.0709 76.5687 81.9542C76.5229 81.8375 76.5016 81.7126 76.5061 81.5873V74.2695C76.5061 74.148 76.53 74.0278 76.5765 73.9156C76.623 73.8034 76.6911 73.7014 76.777 73.6155C76.8629 73.5296 76.9648 73.4615 77.077 73.415C77.1892 73.3686 77.3095 73.3446 77.4309 73.3446C77.5524 73.3446 77.6727 73.3686 77.7849 73.415C77.8971 73.4615 77.999 73.5296 78.0849 73.6155C78.1708 73.7014 78.2389 73.8034 78.2854 73.9156C78.3319 74.0278 78.3558 74.148 78.3558 74.2695V80.8617H82.0147V74.2695C82.0097 74.1462 82.0297 74.0233 82.0737 73.908C82.1177 73.7928 82.1848 73.6877 82.2707 73.5992C82.3566 73.5107 82.4596 73.4406 82.5735 73.3933C82.6874 73.3459 82.8097 73.3222 82.9331 73.3236C83.0571 73.3218 83.1803 73.3451 83.295 73.3922C83.4098 73.4393 83.5138 73.5091 83.6009 73.5975C83.6879 73.6859 83.7561 73.791 83.8014 73.9065C83.8467 74.022 83.8682 74.1455 83.8644 74.2695Z" fill="#282D26"/>
<path d="M94.2986 74.2548V81.7508C94.2986 81.9961 94.2012 82.2314 94.0277 82.4048C93.8543 82.5783 93.6191 82.6757 93.3738 82.6757C93.1285 82.6757 92.8933 82.5783 92.7198 82.4048C92.5464 82.2314 92.4489 81.9961 92.4489 81.7508V76.7297L88.147 82.2935C88.0345 82.4565 87.8727 82.5791 87.6854 82.6433C87.498 82.7074 87.295 82.7098 87.1062 82.6499C86.9174 82.5901 86.7528 82.4712 86.6366 82.3108C86.5205 82.1504 86.4589 81.957 86.4609 81.7589V74.2694C86.4609 74.0241 86.5583 73.7889 86.7317 73.6154C86.9052 73.442 87.1404 73.3446 87.3857 73.3446C87.631 73.3446 87.8662 73.442 88.0397 73.6154C88.2131 73.7889 88.3106 74.0241 88.3106 74.2694V79.3116L92.491 73.871C92.7243 73.5697 92.9284 73.3235 93.3819 73.3235C93.5037 73.3228 93.6244 73.3466 93.7369 73.3933C93.8494 73.4401 93.9514 73.5089 94.0368 73.5957C94.1223 73.6825 94.1895 73.7856 94.2344 73.8988C94.2794 74.012 94.3012 74.133 94.2986 74.2548Z" fill="#282D26"/>
<path d="M103.021 74.4331V81.751C103.026 81.8758 103.006 82.0004 102.962 82.1172C102.918 82.2341 102.85 82.3408 102.764 82.431C102.677 82.5211 102.573 82.5929 102.459 82.6419C102.344 82.6909 102.22 82.7162 102.095 82.7162C101.97 82.7162 101.847 82.6909 101.732 82.6419C101.617 82.5929 101.513 82.5211 101.426 82.431C101.34 82.3408 101.273 82.2341 101.228 82.1172C101.184 82.0004 101.164 81.8758 101.169 81.751V79.7506H99.8267C99.6485 79.7506 99.4849 79.7377 99.3197 79.7247L97.6482 82.3162C97.5712 82.4379 97.4637 82.5374 97.3364 82.6047C97.2091 82.672 97.0665 82.7049 96.9225 82.7001C96.6788 82.6963 96.4466 82.5959 96.2768 82.4209C96.1071 82.246 96.0137 82.0109 96.0171 81.7672C96.027 81.5548 96.0985 81.35 96.2228 81.1776L97.6028 79.1076C97.1999 78.8304 96.8724 78.4572 96.6499 78.0217C96.4273 77.5862 96.3167 77.1022 96.3281 76.6132C96.3281 74.7489 97.7534 73.4888 99.8218 73.4888H102.07C102.196 73.4836 102.321 73.5044 102.438 73.55C102.556 73.5955 102.662 73.6647 102.752 73.7534C102.841 73.842 102.911 73.9482 102.957 74.0651C103.003 74.1821 103.025 74.3074 103.021 74.4331ZM101.166 75.1263H99.7959C98.8646 75.1263 98.2199 75.7289 98.2199 76.6213C98.2199 77.5138 98.8678 78.1293 99.7959 78.1293H101.166V75.1263Z" fill="#282D26"/>
<path d="M25.7266 93.5911C25.7266 95.1541 24.494 96.2491 22.7399 96.2491H19.6625C19.5372 96.2536 19.4123 96.2323 19.2956 96.1864C19.1789 96.1406 19.0729 96.0712 18.9841 95.9827C18.8954 95.8941 18.8258 95.7882 18.7798 95.6716C18.7338 95.5549 18.7122 95.4301 18.7165 95.3048V88.1457C18.7123 88.0203 18.7338 87.8954 18.7798 87.7787C18.8258 87.662 18.8953 87.556 18.984 87.4673C19.0727 87.3785 19.1787 87.309 19.2955 87.263C19.4122 87.217 19.5371 87.1955 19.6625 87.1998H21.93C23.6162 87.1998 24.7937 88.2283 24.7937 89.7216C24.8037 90.0255 24.7491 90.328 24.6335 90.6092C24.5179 90.8903 24.344 91.1438 24.1231 91.3527C25.1241 91.709 25.7266 92.5027 25.7266 93.5911ZM20.5047 88.7887V90.8587H21.7794C22.505 90.8587 22.9569 90.4618 22.9569 89.8172C22.9569 89.1726 22.505 88.7887 21.7794 88.7887H20.5047ZM23.8899 93.5166C23.8899 92.8056 23.404 92.3828 22.5941 92.3828H20.5047V94.6585H22.6103C23.4105 94.6553 23.8915 94.239 23.8915 93.5166H23.8899Z" fill="#282D26"/>
<path d="M36.3242 91.7221C36.3242 94.3396 34.2008 96.4095 31.5007 96.4095C28.8007 96.4095 26.7048 94.3525 26.7048 91.7221C26.7048 89.0917 28.8104 87.0347 31.5007 87.0347C34.1911 87.0347 36.3242 89.1047 36.3242 91.7221ZM28.6096 91.7221C28.6096 93.4633 29.8162 94.6959 31.5153 94.6959C33.2144 94.6959 34.4194 93.4487 34.4194 91.7221C34.4194 89.9955 33.1998 88.7483 31.5185 88.7483C29.8373 88.7483 28.6031 89.9825 28.6031 91.7221H28.6096Z" fill="#282D26"/>
<path d="M37.3724 91.7218C37.3724 89.0897 39.478 87.0343 42.1959 87.0343C42.857 87.0256 43.5121 87.1609 44.1157 87.4309C44.7193 87.7008 45.2569 88.0988 45.6912 88.5974C45.8699 88.7814 45.9728 89.026 45.9795 89.2825C45.9748 89.5076 45.8815 89.7218 45.7199 89.8786C45.5583 90.0354 45.3414 90.1221 45.1162 90.1199C44.9785 90.1156 44.8435 90.0814 44.7204 90.0195C44.5973 89.9577 44.4892 89.8698 44.4035 89.7619C44.1359 89.4373 43.7983 89.1774 43.416 89.0018C43.0336 88.8262 42.6165 88.7394 42.1959 88.748C40.4968 88.748 39.2804 89.9952 39.2804 91.7363C39.2804 93.4775 40.5 94.6956 42.1959 94.6956C42.614 94.7012 43.028 94.6131 43.4075 94.4376C43.7871 94.2621 44.1224 94.0038 44.389 93.6816C44.4774 93.5734 44.5882 93.4856 44.7137 93.4241C44.8392 93.3626 44.9765 93.3289 45.1162 93.3253C45.2268 93.3244 45.3365 93.3454 45.439 93.3869C45.5415 93.4284 45.6349 93.4898 45.7137 93.5674C45.7925 93.645 45.8552 93.7374 45.8983 93.8392C45.9415 93.9411 45.9641 94.0504 45.9649 94.161C45.9554 94.4174 45.8529 94.6615 45.6766 94.8478C44.883 95.8196 43.5807 96.4092 42.1829 96.4092C39.4699 96.4092 37.3724 94.3522 37.3724 91.7218Z" fill="#282D26"/>
<path d="M47.7514 95.4635V88.1457C47.7471 88.0203 47.7686 87.8954 47.8146 87.7787C47.8607 87.662 47.9302 87.556 48.0189 87.4673C48.1076 87.3785 48.2136 87.309 48.3303 87.263C48.447 87.217 48.5719 87.1955 48.6973 87.1998H54.2043C54.3294 87.1966 54.4538 87.219 54.5699 87.2654C54.6861 87.3119 54.7916 87.3814 54.8801 87.4699C54.9686 87.5583 55.0381 87.6639 55.0846 87.78C55.131 87.8962 55.1533 88.0206 55.1502 88.1457V95.4635C55.1502 95.7088 55.0528 95.944 54.8793 96.1175C54.7059 96.2909 54.4707 96.3884 54.2254 96.3884C53.9801 96.3884 53.7448 96.2909 53.5714 96.1175C53.398 95.944 53.3005 95.7088 53.3005 95.4635V88.8713H49.6011V95.4635C49.6011 95.7088 49.5037 95.944 49.3302 96.1175C49.1568 96.2909 48.9215 96.3884 48.6762 96.3884C48.431 96.3884 48.1957 96.2909 48.0223 96.1175C47.8488 95.944 47.7514 95.7088 47.7514 95.4635Z" fill="#282D26"/>
<path d="M57.2138 95.4635V88.1457C57.2093 88.0204 57.2306 87.8955 57.2764 87.7788C57.3223 87.6621 57.3916 87.5561 57.4802 87.4673C57.5688 87.3786 57.6747 87.3091 57.7913 87.263C57.9079 87.217 58.0328 87.1955 58.1581 87.1998H60.6249C62.5588 87.1998 63.874 88.3789 63.874 90.1152C63.874 91.8516 62.5297 93.0469 60.6249 93.0469H59.0635V95.4587C59.0635 95.7039 58.9661 95.9392 58.7926 96.1126C58.6192 96.2861 58.3839 96.3835 58.1386 96.3835C57.8934 96.3835 57.6581 96.2861 57.4847 96.1126C57.3112 95.9392 57.2138 95.7039 57.2138 95.4587V95.4635ZM60.6152 91.4353C61.4655 91.4353 61.9855 90.9267 61.9855 90.1201C61.9855 89.3378 61.4655 88.8243 60.6152 88.8243H59.0667V91.4288L60.6152 91.4353Z" fill="#282D26"/>
<path d="M73.197 87.9676V95.4636C73.197 95.5851 73.1731 95.7054 73.1266 95.8176C73.0801 95.9298 73.012 96.0317 72.9261 96.1176C72.8402 96.2035 72.7383 96.2716 72.6261 96.3181C72.5138 96.3646 72.3936 96.3885 72.2721 96.3885C72.1507 96.3885 72.0304 96.3646 71.9182 96.3181C71.806 96.2716 71.704 96.2035 71.6182 96.1176C71.5323 96.0317 71.4642 95.9298 71.4177 95.8176C71.3712 95.7054 71.3473 95.5851 71.3473 95.4636V90.4425L67.0437 96.0062C66.9313 96.1693 66.7695 96.2919 66.5821 96.3561C66.3947 96.4202 66.1917 96.4226 66.0029 96.3627C65.8141 96.3029 65.6495 96.184 65.5334 96.0236C65.4172 95.8632 65.3556 95.6698 65.3576 95.4717V87.9822C65.3576 87.7369 65.455 87.5017 65.6285 87.3282C65.8019 87.1548 66.0372 87.0574 66.2824 87.0574C66.5277 87.0574 66.763 87.1548 66.9364 87.3282C67.1099 87.5017 67.2073 87.7369 67.2073 87.9822V93.0244L71.3878 87.5838C71.621 87.2825 71.8267 87.0347 72.2786 87.0347C72.4006 87.0342 72.5214 87.0581 72.634 87.1051C72.7466 87.152 72.8486 87.2209 72.9342 87.3078C73.0198 87.3947 73.0871 87.4979 73.1322 87.6112C73.1773 87.7245 73.1994 87.8457 73.197 87.9676Z" fill="#282D26"/>
<path d="M81.9176 88.1458V95.4637C81.9176 95.5851 81.8936 95.7054 81.8472 95.8176C81.8007 95.9298 81.7326 96.0318 81.6467 96.1177C81.5608 96.2035 81.4588 96.2717 81.3466 96.3181C81.2344 96.3646 81.1142 96.3885 80.9927 96.3885C80.8713 96.3885 80.751 96.3646 80.6388 96.3181C80.5266 96.2717 80.4246 96.2035 80.3387 96.1177C80.2529 96.0318 80.1847 95.9298 80.1383 95.8176C80.0918 95.7054 80.0679 95.5851 80.0679 95.4637V93.4633H78.7235C78.5469 93.4633 78.3817 93.4488 78.2165 93.4358L76.5466 96.0209C76.4701 96.143 76.3627 96.2428 76.2353 96.3102C76.1079 96.3776 75.965 96.4102 75.821 96.4047C75.5773 96.4009 75.345 96.3005 75.1753 96.1256C75.0055 95.9507 74.9121 95.7155 74.9156 95.4718C74.9257 95.2595 74.9972 95.0547 75.1213 94.8822L76.5061 92.8138C76.103 92.5368 75.7753 92.1637 75.5528 91.7281C75.3302 91.2926 75.2197 90.8085 75.2314 90.3195C75.2314 88.4552 76.6567 87.1951 78.7251 87.1951H80.9733C81.0989 87.191 81.2241 87.2128 81.341 87.2592C81.4578 87.3056 81.5638 87.3756 81.6524 87.4648C81.741 87.554 81.8103 87.6606 81.8559 87.7777C81.9015 87.8949 81.9225 88.0202 81.9176 88.1458ZM80.0679 88.831H78.6976C77.7646 88.831 77.1216 89.4335 77.1216 90.3243C77.1216 91.2152 77.7695 91.8323 78.6976 91.8323H80.0679V88.831Z" fill="#282D26"/>
<path d="M86.0202 95.4635V88.8713H83.8676C83.7579 88.8713 83.6492 88.8497 83.5478 88.8077C83.4464 88.7657 83.3543 88.7041 83.2767 88.6265C83.199 88.5489 83.1375 88.4568 83.0955 88.3554C83.0535 88.254 83.0319 88.1453 83.0319 88.0355C83.0319 87.9258 83.0535 87.8171 83.0955 87.7157C83.1375 87.6143 83.199 87.5222 83.2767 87.4446C83.3543 87.3669 83.4464 87.3054 83.5478 87.2634C83.6492 87.2214 83.7579 87.1998 83.8676 87.1998H90.0225C90.1345 87.1941 90.2463 87.2117 90.3511 87.2515C90.4559 87.2913 90.5512 87.3524 90.6311 87.431C90.7111 87.5096 90.7738 87.6038 90.8154 87.7079C90.857 87.812 90.8766 87.9235 90.8729 88.0355C90.8731 88.1466 90.8512 88.2566 90.8083 88.359C90.7655 88.4615 90.7026 88.5544 90.6234 88.6322C90.5442 88.7101 90.4503 88.7713 90.3471 88.8124C90.2439 88.8534 90.1336 88.8735 90.0225 88.8713H87.8699V95.4635C87.8699 95.7088 87.7725 95.944 87.5991 96.1175C87.4256 96.2909 87.1904 96.3884 86.9451 96.3884C86.6998 96.3884 86.4646 96.2909 86.2911 96.1175C86.1177 95.944 86.0202 95.7088 86.0202 95.4635Z" fill="#282D26"/>
<path d="M99.838 87.9675V95.4635C99.838 95.5849 99.8141 95.7052 99.7676 95.8174C99.7211 95.9296 99.653 96.0316 99.5671 96.1175C99.4812 96.2033 99.3793 96.2715 99.2671 96.3179C99.1549 96.3644 99.0346 96.3883 98.9132 96.3883C98.7917 96.3883 98.6714 96.3644 98.5592 96.3179C98.447 96.2715 98.3451 96.2033 98.2592 96.1175C98.1733 96.0316 98.1052 95.9296 98.0587 95.8174C98.0122 95.7052 97.9883 95.5849 97.9883 95.4635V90.4424L93.6847 96.0061C93.5723 96.1691 93.4105 96.2917 93.2231 96.3559C93.0357 96.4201 92.8327 96.4224 92.6439 96.3626C92.4551 96.3027 92.2906 96.1839 92.1744 96.0235C92.0582 95.8631 91.9966 95.6696 91.9986 95.4716V87.982C91.9934 87.8572 92.0135 87.7326 92.0576 87.6158C92.1018 87.4989 92.1691 87.3922 92.2556 87.302C92.3421 87.2119 92.4459 87.1401 92.5608 87.0911C92.6757 87.0421 92.7993 87.0168 92.9243 87.0168C93.0492 87.0168 93.1728 87.0421 93.2877 87.0911C93.4027 87.1401 93.5065 87.2119 93.5929 87.302C93.6794 87.3922 93.7468 87.4989 93.7909 87.6158C93.8351 87.7326 93.8552 87.8572 93.8499 87.982V93.0242L98.0288 87.5836C98.262 87.2823 98.4677 87.0345 98.9196 87.0345C99.0417 87.0338 99.1626 87.0576 99.2753 87.1044C99.3879 87.1513 99.4901 87.2202 99.5757 87.3072C99.6613 87.3941 99.7286 87.4974 99.7737 87.6108C99.8187 87.7242 99.8406 87.8455 99.838 87.9675Z" fill="#282D26"/>
<path d="M108.56 88.1456V95.4635C108.565 95.5883 108.545 95.7129 108.501 95.8297C108.457 95.9466 108.39 96.0533 108.303 96.1435C108.217 96.2336 108.113 96.3054 107.998 96.3544C107.883 96.4034 107.759 96.4287 107.634 96.4287C107.51 96.4287 107.386 96.4034 107.271 96.3544C107.156 96.3054 107.052 96.2336 106.966 96.1435C106.879 96.0533 106.812 95.9466 106.768 95.8297C106.724 95.7129 106.704 95.5883 106.709 95.4635V93.4631H105.366C105.188 93.4631 105.024 93.4485 104.859 93.4356L103.188 96.0271C103.111 96.1487 103.003 96.248 102.876 96.3151C102.748 96.3822 102.606 96.4147 102.462 96.4094C102.341 96.4075 102.222 96.3818 102.112 96.3339C102.001 96.286 101.901 96.2167 101.817 96.1301C101.733 96.0435 101.667 95.9411 101.622 95.829C101.578 95.7168 101.556 95.597 101.558 95.4764C101.568 95.2641 101.64 95.0594 101.764 94.8868L103.147 92.8185C102.744 92.5411 102.417 92.1678 102.195 91.7323C101.973 91.2969 101.862 90.8129 101.874 90.3241C101.874 88.4598 103.299 87.1997 105.368 87.1997H107.616C107.741 87.1956 107.866 87.2173 107.982 87.2634C108.099 87.3096 108.205 87.3791 108.293 87.4678C108.382 87.5565 108.451 87.6624 108.497 87.779C108.543 87.8956 108.564 88.0204 108.56 88.1456ZM106.709 88.8307H105.339C104.407 88.8307 103.763 89.4333 103.763 90.3241C103.763 91.215 104.41 91.8321 105.339 91.8321H106.709V88.8307Z" fill="#282D26"/>
<path fill-rule="evenodd" clip-rule="evenodd" d="M59.2302 33.2666C66.8931 31.8088 74.8928 34.253 80.761 40.0953C80.9356 40.269 81.1721 40.3663 81.4185 40.3657C81.6648 40.3651 81.9008 40.2667 82.0746 40.092C82.2484 39.9174 82.3456 39.6809 82.345 39.4346C82.3444 39.1882 82.246 38.9522 82.0714 38.7785C75.7804 32.5183 67.17 29.8701 58.8852 31.4428C50.6004 33.0155 42.7173 38.7995 37.8598 49.211C37.8006 49.3381 37.7708 49.477 37.7728 49.6172C37.7748 49.7575 37.8084 49.8954 37.8711 50.0209C37.9359 50.1504 38.0088 50.3027 38.093 50.4792C38.8672 52.0989 40.5517 55.6283 45.0578 60.2299C45.1413 60.3233 45.2429 60.3988 45.3564 60.4519C45.4699 60.505 45.593 60.5346 45.7183 60.5388C45.8435 60.5431 45.9683 60.5219 46.0852 60.4766C46.202 60.4313 46.3085 60.3628 46.3982 60.2752C46.4878 60.1876 46.5588 60.0828 46.6068 59.967C46.6549 59.8513 46.679 59.727 46.6777 59.6017C46.6764 59.4764 46.6497 59.3526 46.5993 59.2379C46.5489 59.1231 46.4757 59.0198 46.3843 58.9341C42.0921 54.5479 40.5129 51.2373 39.7565 49.6548L39.7322 49.603C44.3742 39.9252 51.684 34.6968 59.2302 33.2666ZM56.4621 37.0745C54.2674 37.9799 52.6655 39.1931 51.3212 40.267C51.2255 40.3432 51.1457 40.4376 51.0865 40.5447C51.0272 40.6517 50.9896 40.7694 50.9759 40.891C50.9621 41.0126 50.9724 41.1358 51.0062 41.2534C51.0401 41.371 51.0967 41.4808 51.173 41.5765C51.2492 41.6722 51.3436 41.752 51.4507 41.8112C51.5577 41.8705 51.6754 41.9081 51.797 41.9218C51.9186 41.9356 52.0418 41.9253 52.1594 41.8914C52.277 41.8576 52.3868 41.801 52.4825 41.7247C53.7912 40.6768 55.2263 39.6013 57.1699 38.7979C59.1136 37.9945 61.595 37.4535 65.0045 37.5507C65.1285 37.558 65.2527 37.5404 65.3698 37.4988C65.4869 37.4573 65.5944 37.3926 65.6861 37.3087C65.7777 37.2248 65.8515 37.1233 65.9032 37.0104C65.9549 36.8974 65.9834 36.7752 65.987 36.651C65.9906 36.5268 65.9692 36.4031 65.9241 36.2874C65.879 36.1716 65.8111 36.0661 65.7244 35.977C65.6378 35.888 65.5342 35.8172 65.4197 35.769C65.3052 35.7207 65.1822 35.696 65.0579 35.6961C61.4168 35.5828 58.6666 36.1659 56.4621 37.0745ZM67.5863 37.0275C67.5533 37.1453 67.544 37.2684 67.5587 37.3897C67.5735 37.5111 67.612 37.6283 67.6723 37.7348C67.7325 37.8412 67.8131 37.9346 67.9095 38.0098C68.006 38.0849 68.1163 38.1403 68.2342 38.1727C71.2906 39.0279 77.1231 41.8446 80.9748 49.5997C80.7205 50.0694 80.4014 50.5894 80.05 51.1401C79.922 51.3425 79.7876 51.5499 79.6531 51.7588C79.3292 52.2625 79.0052 52.776 78.7105 53.2538C78.5837 53.4649 78.5461 53.7178 78.6058 53.9567C78.6655 54.1956 78.8176 54.401 79.0287 54.5277C79.2399 54.6544 79.4927 54.6921 79.7316 54.6324C79.9705 54.5727 80.1759 54.4206 80.3026 54.2094C80.5731 53.7575 80.8776 53.2862 81.1935 52.7954C81.3328 52.5795 81.4737 52.3603 81.6162 52.1378C82.067 51.4528 82.4786 50.7428 82.8488 50.0111C82.9087 49.886 82.9399 49.749 82.9399 49.6103C82.9399 49.4715 82.9087 49.3345 82.8488 49.2094C78.7299 40.5715 72.2575 37.3709 68.7347 36.3845C68.4978 36.3187 68.2445 36.3494 68.0302 36.4699C67.8158 36.5905 67.658 36.7909 67.5912 37.0275H67.5863ZM75.092 47.1135C71.5918 41.7927 67.0453 40.3285 63.7055 40.3285C63.5836 40.3287 63.4629 40.3529 63.3504 40.3998C63.2379 40.4466 63.1357 40.5152 63.0497 40.6015C62.9637 40.6878 62.8955 40.7903 62.849 40.9029C62.8026 41.0156 62.7788 41.1363 62.779 41.2582V45.9716C62.7788 46.0936 62.8026 46.2145 62.8492 46.3272C62.8957 46.44 62.9641 46.5425 63.0503 46.6289C63.1365 46.7152 63.2388 46.7837 63.3516 46.8305C63.4643 46.8772 63.5851 46.9013 63.7071 46.9013C64.0051 46.9013 66.2144 47.1005 67.5944 49.5771C66.6226 51.1352 65.4888 51.8576 64.4408 52.0682C63.2827 52.2982 62.0226 51.9499 60.8629 51.0688C60.3574 50.6768 59.9475 50.175 59.6643 49.6013L59.7064 49.5236C59.9487 49.1038 60.248 48.7195 60.5956 48.3817C60.6818 48.2955 60.7501 48.1931 60.7967 48.0804C60.8433 47.9678 60.8672 47.8471 60.8671 47.7252C60.867 47.6032 60.8429 47.4826 60.7962 47.37C60.7495 47.2574 60.6811 47.1551 60.5948 47.0689C60.5086 46.9828 60.4062 46.9145 60.2935 46.8679C60.1809 46.8213 60.0602 46.7974 59.9383 46.7975C59.8164 46.7975 59.6957 46.8216 59.5831 46.8683C59.4705 46.9151 59.3682 46.9835 59.282 47.0697C58.8134 47.5287 58.4106 48.0503 58.0851 48.6198C57.9923 48.7839 57.91 48.9538 57.8389 49.1284C57.813 49.1916 57.7935 49.2466 57.7806 49.2904L57.7692 49.3228C57.7692 49.3309 57.7692 49.3373 57.7692 49.3438V49.3552V49.3633C57.7141 49.5663 57.7289 49.7819 57.8113 49.9755C58.1055 50.6792 58.5205 51.326 59.0375 51.8868L56.9416 54.4167C55.5745 53.3445 54.2156 51.7993 53.0543 49.5851C53.9407 47.7895 55.1873 46.1955 56.7164 44.9026C58.2066 43.623 59.5639 42.9346 60.1567 42.797C60.3973 42.7443 60.6071 42.5983 60.7399 42.391C60.8728 42.1837 60.9179 41.9321 60.8653 41.6915C60.8127 41.4509 60.6667 41.2411 60.4593 41.1082C60.252 40.9753 60.0004 40.9303 59.7599 40.9829C58.7281 41.208 57.0906 42.1167 55.5065 43.4869C53.8868 44.875 52.2136 46.8219 51.1722 49.2337C51.1187 49.3578 51.0929 49.4921 51.0965 49.6272C51.1002 49.7622 51.1332 49.8949 51.1932 50.016C52.7238 53.0934 54.6351 55.1246 56.5836 56.443C58.3653 57.6464 59.6773 58.1064 61.2225 58.3381C61.3443 58.3593 61.4692 58.3559 61.5898 58.3282C61.7104 58.3005 61.8242 58.2489 61.9245 58.1765C62.0249 58.1042 62.1098 58.0125 62.1742 57.9069C62.2386 57.8012 62.2812 57.6838 62.2995 57.5614C62.3179 57.4391 62.3116 57.3143 62.281 57.1944C62.2505 57.0746 62.1963 56.962 62.1216 56.8634C62.0469 56.7648 61.9532 56.6821 61.8461 56.6202C61.739 56.5583 61.6206 56.5184 61.4978 56.5029C60.4355 56.3585 59.4134 56.0004 58.4932 55.4501L60.5001 53.0206C61.8169 53.8061 63.3184 54.1544 64.8231 53.8612C66.6307 53.5016 68.2601 52.2318 69.483 50.0338C69.5547 49.9057 69.5949 49.7623 69.6003 49.6156C69.6056 49.4689 69.576 49.3229 69.5138 49.1899C68.1775 46.3344 65.9682 45.4112 64.6546 45.1309V42.2155C67.3255 42.4681 70.7658 43.8708 73.563 48.1193C73.6983 48.3251 73.9098 48.4687 74.151 48.5185C74.3922 48.5683 74.6433 48.5203 74.8491 48.3849C75.0548 48.2496 75.1984 48.0381 75.2482 47.7969C75.2981 47.5558 75.25 47.3047 75.1147 47.0989L75.092 47.1135ZM83.278 41.3667C83.09 41.5256 82.9725 41.7525 82.9513 41.9977C82.9301 42.243 83.0068 42.4866 83.1647 42.6755C84.1442 43.8878 85.06 45.1501 85.9084 46.4575C86.3944 47.2058 86.8382 47.933 87.1605 48.5404C87.2968 48.7936 87.4201 49.0537 87.5298 49.3195C87.5555 49.3799 87.5782 49.4415 87.5978 49.5042C86.5223 51.9175 84.5625 55.0484 81.864 57.9153C79.0668 60.8891 75.5229 63.5308 71.4072 64.8266C71.2892 64.8617 71.1793 64.9199 71.084 64.9979C70.9888 65.0759 70.9099 65.172 70.8521 65.2807C70.7944 65.3894 70.7588 65.5086 70.7475 65.6312C70.7363 65.7538 70.7495 65.8774 70.7864 65.9948C70.8234 66.1123 70.8834 66.2212 70.9628 66.3152C71.0423 66.4093 71.1397 66.4866 71.2493 66.5426C71.3589 66.5986 71.4786 66.6323 71.6014 66.6416C71.7241 66.651 71.8475 66.6358 71.9644 66.597C76.4704 65.1797 80.2735 62.3161 83.2165 59.1884C86.1595 56.0607 88.2862 52.6189 89.4216 49.9674C89.4812 49.8292 89.5063 49.6785 89.4945 49.5285C89.4586 49.2188 89.3779 48.9159 89.2548 48.6295C89.12 48.3029 88.9687 47.9834 88.8012 47.6723C88.4433 46.9952 87.9687 46.2145 87.4634 45.4436C86.5764 44.0718 85.6178 42.7478 84.5916 41.4769C84.513 41.3837 84.4167 41.3068 84.3083 41.2508C84.2 41.1948 84.0816 41.1608 83.9601 41.1505C83.8385 41.1403 83.7162 41.1541 83.6 41.1912C83.4838 41.2283 83.376 41.288 83.2829 41.3667H83.278ZM49.7889 42.865C49.6011 42.7062 49.358 42.6284 49.1129 42.6488C48.8678 42.6691 48.6409 42.7859 48.4818 42.9735C47.6318 43.9968 46.8443 45.0705 46.1235 46.1886C45.3963 47.3095 44.7419 48.4562 44.439 49.2952C44.355 49.5265 44.3661 49.7816 44.4698 50.0047C45.6036 52.4342 47.4776 55.2946 50.4789 58.1243L47.8501 61.4042C47.7708 61.5036 47.7128 61.6183 47.6796 61.7411C47.6464 61.8639 47.6388 61.9922 47.6571 62.118C47.6755 62.2439 47.7195 62.3646 47.7864 62.4728C47.8533 62.581 47.9417 62.6743 48.0461 62.7469C49.8553 64.0022 52.2331 65.6397 55.5097 66.7508C58.7864 67.8619 62.9393 68.4386 68.3054 67.6546C68.426 67.637 68.542 67.5957 68.6467 67.5333C68.7513 67.4708 68.8427 67.3883 68.9155 67.2906C68.9883 67.1928 69.0411 67.0817 69.0709 66.9635C69.1008 66.8453 69.107 66.7224 69.0894 66.6018C69.0717 66.4812 69.0305 66.3653 68.968 66.2606C68.9056 66.1559 68.8231 66.0646 68.7253 65.9918C68.6276 65.919 68.5164 65.8662 68.3983 65.8363C68.2801 65.8065 68.1572 65.8002 68.0366 65.8179C62.9556 66.5613 59.1071 66.009 56.109 64.9918C53.5418 64.122 51.5738 62.9008 49.9266 61.7864L51.901 59.3212C54.925 61.5645 58.9322 63.2328 63.2892 63.3705C68.0398 63.513 73.1468 61.8204 77.7678 57.1719C77.8606 57.0782 77.9324 56.9658 77.9785 56.8422C78.0245 56.7186 78.0437 56.5866 78.0348 56.455C78.0259 56.3234 77.9892 56.1952 77.9269 56.0789C77.8647 55.9626 77.7784 55.8609 77.6738 55.7805L74.1769 53.0983C74.4004 52.8084 74.5899 52.546 74.7632 52.3111C74.8685 52.1653 74.9673 52.0293 75.0629 51.9013C75.1387 51.804 75.1943 51.6926 75.2265 51.5735C75.2587 51.4545 75.2669 51.3302 75.2505 51.2079C75.2341 51.0857 75.1936 50.9679 75.1312 50.8616C75.0688 50.7552 74.9858 50.6623 74.8871 50.5883C74.7884 50.5144 74.6759 50.4608 74.5563 50.4309C74.4367 50.4009 74.3122 50.395 74.1903 50.4137C74.0684 50.4323 73.9514 50.4751 73.8462 50.5394C73.741 50.6038 73.6497 50.6885 73.5776 50.7886C73.461 50.9425 73.3508 51.0963 73.2358 51.2518C72.9346 51.6649 72.6155 52.1038 72.1474 52.6642C71.4914 53.4514 68.7946 56.3491 64.9105 56.7572C64.7893 56.77 64.6718 56.8065 64.5646 56.8647C64.4575 56.9229 64.3629 57.0016 64.2862 57.0964C64.2095 57.1911 64.1522 57.3 64.1176 57.4169C64.083 57.5338 64.0717 57.6564 64.0845 57.7776C64.0972 57.8989 64.1338 58.0164 64.192 58.1235C64.2501 58.2307 64.3289 58.3253 64.4236 58.402C64.5184 58.4787 64.6273 58.536 64.7442 58.5706C64.8611 58.6052 64.9837 58.6165 65.1049 58.6037C68.9339 58.1939 71.7101 55.8178 72.9832 54.5074L75.6929 56.5888C71.6437 60.3141 67.3255 61.6261 63.3491 61.5062C59.1006 61.3799 55.1809 59.6225 52.3578 57.3209C49.3354 54.6208 47.4533 51.8851 46.326 49.5835C46.7202 48.7569 47.1733 47.9595 47.6817 47.1977C48.3593 46.146 49.0998 45.1362 49.8991 44.1737C50.0578 43.9854 50.1353 43.7419 50.1146 43.4966C50.094 43.2512 49.9768 43.0241 49.7889 42.865Z" fill="#282D26"/>
</svg>
