<svg width="102" height="26" viewBox="0 0 102 26" fill="none" xmlns="http://www.w3.org/2000/svg">
<path d="M2.24825 1.08514V9.49547C2.24825 9.77121 2.13872 10.0357 1.94374 10.2306C1.74876 10.4256 1.48431 10.5352 1.20857 10.5352C0.932831 10.5352 0.66838 10.4256 0.473401 10.2306C0.278423 10.0357 0.168884 9.77121 0.168884 9.49547V1.08514C0.168884 0.809398 0.278423 0.544953 0.473401 0.349974C0.66838 0.154995 0.932831 0.0454569 1.20857 0.0454569C1.48431 0.0454569 1.74876 0.154995 1.94374 0.349974C2.13872 0.544953 2.24825 0.809398 2.24825 1.08514ZM8.61199 9.57377C8.60792 9.83142 8.50486 10.0776 8.32418 10.2614C8.1435 10.4451 7.89905 10.5523 7.6415 10.5606C7.47947 10.555 7.32074 10.5133 7.17681 10.4387C7.03289 10.364 6.90738 10.2583 6.80939 10.1291L2.94198 5.67541C2.77149 5.48434 2.67353 5.23944 2.66522 4.9835C2.67553 4.73343 2.78029 4.49658 2.95837 4.32073L6.62367 0.360459C6.71765 0.252736 6.83387 0.166671 6.96432 0.108203C7.09477 0.0497348 7.23635 0.0202513 7.3793 0.0217855C7.63301 0.0260989 7.87473 0.130541 8.05175 0.312339C8.22877 0.494136 8.32675 0.738547 8.32431 0.992282C8.32163 1.12255 8.29305 1.25098 8.24022 1.37009C8.18738 1.4892 8.11136 1.59659 8.01659 1.68601L4.94488 4.99807L8.3498 8.94194C8.51303 9.11242 8.60656 9.3378 8.61199 9.57377Z" fill="#282D26"/>
<path d="M19.8319 5.28934C19.8319 8.23359 17.443 10.5606 14.4095 10.5606C11.376 10.5606 9.01624 8.24816 9.01624 5.28934C9.01624 2.33052 11.3833 0.0217285 14.4095 0.0217285C17.4357 0.0217285 19.8319 2.34873 19.8319 5.28934ZM11.1593 5.28934C11.1593 7.24671 12.514 8.63235 14.4241 8.63235C16.3341 8.63235 17.6906 7.23214 17.6906 5.28934C17.6906 3.34653 16.3195 1.94633 14.4241 1.94633C12.5286 1.94633 11.1593 3.33378 11.1593 5.28934Z" fill="#282D26"/>
<path d="M21.5798 9.49541V1.26899C21.575 1.12812 21.5992 0.987771 21.6509 0.856669C21.7027 0.725568 21.7809 0.606521 21.8806 0.506943C21.9804 0.407365 22.0996 0.329388 22.2307 0.277863C22.3619 0.226338 22.5023 0.202374 22.6432 0.207455H25.4163C27.5885 0.207455 29.067 1.53119 29.067 3.48492C29.067 5.43865 27.5576 6.78241 25.4163 6.78241H23.6592V9.49541C23.6592 9.77116 23.5497 10.0356 23.3547 10.2306C23.1597 10.4256 22.8953 10.5351 22.6195 10.5351C22.3438 10.5351 22.0793 10.4256 21.8843 10.2306C21.6894 10.0356 21.5798 9.77116 21.5798 9.49541ZM25.4035 4.96706C26.3595 4.96706 26.9439 4.39714 26.9439 3.48856C26.9439 2.6091 26.3595 2.03191 25.4035 2.03191H23.6628V4.96159L25.4035 4.96706Z" fill="#282D26"/>
<path d="M30.7203 9.49541V1.26899C30.7155 1.12812 30.7397 0.987771 30.7915 0.856669C30.8432 0.725568 30.9214 0.606521 31.0211 0.506943C31.1209 0.407365 31.2401 0.329388 31.3713 0.277863C31.5024 0.226338 31.6428 0.202374 31.7837 0.207455H34.555C36.729 0.207455 38.2075 1.53119 38.2075 3.48492C38.2075 5.43865 36.6962 6.78241 34.555 6.78241H32.7997V9.49541C32.7997 9.77116 32.6902 10.0356 32.4952 10.2306C32.3002 10.4256 32.0358 10.5351 31.76 10.5351C31.4843 10.5351 31.2198 10.4256 31.0248 10.2306C30.8299 10.0356 30.7203 9.77116 30.7203 9.49541ZM34.544 4.96159C35.5 4.96159 36.0844 4.39168 36.0844 3.48309C36.0844 2.60364 35.5 2.02644 34.544 2.02644H32.8033V4.96159H34.544Z" fill="#282D26"/>
<path d="M39.8608 9.34263V1.23819C39.8583 1.10202 39.8834 0.966747 39.9344 0.840472C39.9854 0.714198 40.0614 0.599519 40.1578 0.503299C40.2542 0.407079 40.369 0.331299 40.4954 0.280493C40.6217 0.229686 40.7571 0.2049 40.8932 0.207617H45.8695C45.9952 0.201508 46.1207 0.221512 46.2383 0.266373C46.3559 0.311234 46.4628 0.379976 46.5525 0.468258C46.6421 0.556541 46.7125 0.66245 46.7592 0.779299C46.8058 0.896148 46.8278 1.0214 46.8236 1.14715C46.8239 1.27184 46.7993 1.39533 46.7512 1.51039C46.7032 1.62545 46.6327 1.72978 46.5438 1.81726C46.455 1.90475 46.3496 1.97364 46.2338 2.01991C46.118 2.06617 45.9942 2.08887 45.8695 2.08669H41.9402V4.15149H44.6368C44.7565 4.14606 44.8761 4.16496 44.9883 4.20703C45.1005 4.24909 45.203 4.31347 45.2896 4.39626C45.3763 4.47905 45.4452 4.57854 45.4923 4.68872C45.5394 4.7989 45.5637 4.91749 45.5637 5.03732C45.5637 5.15715 45.5394 5.27574 45.4923 5.38592C45.4452 5.4961 45.3763 5.59559 45.2896 5.67838C45.203 5.76117 45.1005 5.82555 44.9883 5.86762C44.8761 5.90968 44.7565 5.92857 44.6368 5.92314H41.9402V8.49595H46.0534C46.3026 8.49595 46.5416 8.59494 46.7178 8.77114C46.894 8.94733 46.9929 9.18631 46.9929 9.43549C46.9929 9.68467 46.894 9.92365 46.7178 10.0998C46.5416 10.276 46.3026 10.375 46.0534 10.375H40.8932C40.757 10.3775 40.6216 10.3525 40.4952 10.3015C40.3689 10.2505 40.2541 10.1745 40.1577 10.0781C40.0613 9.98178 39.9854 9.86699 39.9344 9.74061C39.8834 9.61424 39.8584 9.47889 39.8608 9.34263Z" fill="#282D26"/>
<path d="M50.773 1.08504V9.49537C50.7788 9.63569 50.7563 9.77574 50.7066 9.90711C50.657 10.0385 50.5813 10.1585 50.4841 10.2598C50.3868 10.3612 50.2701 10.4418 50.141 10.4969C50.0118 10.552 49.8728 10.5804 49.7324 10.5804C49.5919 10.5804 49.4529 10.552 49.3238 10.4969C49.1946 10.4418 49.0779 10.3612 48.9807 10.2598C48.8835 10.1585 48.8078 10.0385 48.7581 9.90711C48.7085 9.77574 48.6859 9.63569 48.6918 9.49537V1.08504C48.6859 0.944726 48.7085 0.804677 48.7581 0.673308C48.8078 0.541939 48.8835 0.421968 48.9807 0.320609C49.0779 0.21925 49.1946 0.138597 49.3238 0.0835002C49.4529 0.0284036 49.5919 0 49.7324 0C49.8728 0 50.0118 0.0284036 50.141 0.0835002C50.2701 0.138597 50.3868 0.21925 50.4841 0.320609C50.5813 0.421968 50.657 0.541939 50.7066 0.673308C50.7563 0.804677 50.7788 0.944726 50.773 1.08504ZM57.1349 9.57367C57.1312 9.83146 57.0283 10.0779 56.8476 10.2618C56.6668 10.4456 56.4221 10.5526 56.1644 10.5605C56.0023 10.5549 55.8436 10.5132 55.6997 10.4386C55.5558 10.3639 55.4303 10.2582 55.3323 10.129L51.4649 5.67531C51.2944 5.48424 51.1964 5.23935 51.1881 4.9834C51.1984 4.73334 51.3032 4.49649 51.4813 4.32063L55.1465 0.360362C55.2405 0.252638 55.3567 0.166573 55.4872 0.108105C55.6176 0.049637 55.7592 0.0201536 55.9022 0.0216877C56.1549 0.0274216 56.3953 0.132487 56.5711 0.31413C56.747 0.495773 56.8442 0.739377 56.8417 0.992184C56.8391 1.12245 56.8105 1.25089 56.7576 1.36999C56.7048 1.4891 56.6288 1.5965 56.534 1.68591L53.4678 4.99797L56.8727 8.94184C57.0367 9.11182 57.1303 9.33752 57.1349 9.57367Z" fill="#282D26"/>
<path d="M67.1693 1.08519V8.4959H67.4461C67.5866 8.49215 67.7264 8.51703 67.857 8.56903C67.9876 8.62102 68.1062 8.69905 68.2057 8.79836C68.3052 8.89766 68.3834 9.01617 68.4356 9.14667C68.4879 9.27716 68.513 9.41692 68.5095 9.55743V11.6696C68.5095 11.9453 68.3999 12.2098 68.2049 12.4047C68.01 12.5997 67.7455 12.7093 67.4698 12.7093C67.194 12.7093 66.9296 12.5997 66.7346 12.4047C66.5396 12.2098 66.4301 11.9453 66.4301 11.6696V10.375H59.9589C59.8181 10.3798 59.6777 10.3556 59.5466 10.3039C59.4155 10.2521 59.2965 10.1739 59.1969 10.0742C59.0973 9.97443 59.0193 9.85525 58.9678 9.72406C58.9163 9.59287 58.8923 9.45248 58.8974 9.31163V1.08519C58.8974 0.948659 58.9243 0.813463 58.9765 0.687322C59.0288 0.561182 59.1054 0.44657 59.2019 0.350027C59.2985 0.253483 59.4131 0.176902 59.5392 0.124653C59.6654 0.0724042 59.8006 0.0455094 59.9371 0.0455094C60.0736 0.0455094 60.2088 0.0724042 60.335 0.124653C60.4611 0.176902 60.5757 0.253483 60.6722 0.350027C60.7688 0.44657 60.8454 0.561182 60.8976 0.687322C60.9499 0.813463 60.9768 0.948659 60.9768 1.08519V8.4959H65.09V1.08519C65.0843 0.946643 65.1069 0.808385 65.1563 0.678843C65.2058 0.549301 65.2811 0.431189 65.3777 0.331701C65.4743 0.232212 65.5901 0.153431 65.7182 0.100159C65.8462 0.0468874 65.9837 0.020238 66.1224 0.021838C66.2618 0.0198072 66.4002 0.0460517 66.5292 0.0989814C66.6583 0.151911 66.7752 0.230432 66.8731 0.329806C66.9709 0.429179 67.0476 0.547342 67.0985 0.67717C67.1495 0.806999 67.1735 0.945798 67.1693 1.08519Z" fill="#282D26"/>
<path d="M78.899 1.06871V9.49543C78.899 9.77117 78.7895 10.0356 78.5945 10.2306C78.3995 10.4256 78.1351 10.5351 77.8594 10.5351C77.5836 10.5351 77.3192 10.4256 77.1242 10.2306C76.9292 10.0356 76.8197 9.77117 76.8197 9.49543V3.85091L71.9836 10.1054C71.8572 10.2887 71.6753 10.4265 71.4646 10.4987C71.254 10.5708 71.0258 10.5734 70.8136 10.5062C70.6013 10.4389 70.4163 10.3053 70.2857 10.1249C70.1551 9.94463 70.0859 9.72717 70.0881 9.50454V1.0851C70.0881 0.809357 70.1977 0.544912 70.3926 0.349933C70.5876 0.154954 70.8521 0.0454158 71.1278 0.0454158C71.4035 0.0454158 71.668 0.154954 71.863 0.349933C72.058 0.544912 72.1675 0.809357 72.1675 1.0851V6.75329L76.867 0.63718C77.1292 0.298509 77.3586 0.0217443 77.8685 0.0217443C78.0054 0.0209835 78.1411 0.0476692 78.2675 0.100221C78.394 0.152773 78.5087 0.230125 78.6047 0.327717C78.7008 0.425309 78.7763 0.541163 78.8269 0.668431C78.8774 0.795699 78.902 0.931803 78.899 1.06871Z" fill="#282D26"/>
<path d="M88.7041 1.26895V9.49538C88.71 9.6357 88.6874 9.77575 88.6378 9.90712C88.5881 10.0385 88.5124 10.1585 88.4152 10.2598C88.318 10.3612 88.2013 10.4418 88.0721 10.4969C87.9429 10.552 87.8039 10.5804 87.6635 10.5804C87.5231 10.5804 87.3841 10.552 87.2549 10.4969C87.1257 10.4418 87.009 10.3612 86.9118 10.2598C86.8146 10.1585 86.7389 10.0385 86.6893 9.90712C86.6396 9.77575 86.617 9.6357 86.6229 9.49538V7.24668H85.1135C84.9132 7.24668 84.7293 7.23212 84.5435 7.21755L82.6645 10.1309C82.5779 10.2676 82.4571 10.3794 82.314 10.4551C82.1709 10.5308 82.0105 10.5678 81.8487 10.5624C81.5748 10.5581 81.3137 10.4452 81.1229 10.2486C80.932 10.0519 80.827 9.78758 80.8309 9.51359C80.842 9.27491 80.9224 9.04461 81.0622 8.85081L82.6135 6.52382C82.1606 6.21218 81.7924 5.79266 81.5422 5.3031C81.292 4.81355 81.1677 4.26939 81.1805 3.71977C81.1805 1.62401 82.7828 0.207423 85.108 0.207423H87.6353C87.7766 0.201571 87.9176 0.224967 88.0494 0.276148C88.1813 0.327328 88.3011 0.405184 88.4014 0.504844C88.5018 0.604503 88.5805 0.723818 88.6325 0.855304C88.6846 0.986789 88.709 1.12761 88.7041 1.26895ZM86.6193 2.04826H85.0789C84.0319 2.04826 83.3072 2.72561 83.3072 3.72887C83.3072 4.73214 84.0355 5.42405 85.0789 5.42405H86.6193V2.04826Z" fill="#282D26"/>
<path d="M8.04996 22.8056C8.04996 24.5627 6.66432 25.7936 4.69238 25.7936H1.23284C1.09199 25.7987 0.951598 25.7747 0.820408 25.7232C0.689218 25.6717 0.570039 25.5937 0.47029 25.4941C0.370541 25.3945 0.292357 25.2755 0.240607 25.1444C0.188857 25.0133 0.16465 24.8729 0.16949 24.7321V16.6841C0.164665 16.5431 0.188868 16.4027 0.240599 16.2715C0.29233 16.1403 0.370483 16.0212 0.470204 15.9214C0.569924 15.8217 0.689082 15.7436 0.820277 15.6918C0.951472 15.6401 1.0919 15.6159 1.23284 15.6207H3.78198C5.67745 15.6207 7.00118 16.7769 7.00118 18.4557C7.01246 18.7973 6.95109 19.1374 6.82114 19.4534C6.69119 19.7695 6.49562 20.0544 6.24736 20.2893C7.37262 20.6899 8.04996 21.5821 8.04996 22.8056ZM2.17967 17.4069V19.7339H3.61264C4.42837 19.7339 4.93638 19.2878 4.93638 18.5632C4.93638 17.8385 4.42837 17.4069 3.61264 17.4069H2.17967ZM5.98516 22.7219C5.98516 21.9226 5.43892 21.4473 4.52851 21.4473H2.17967V24.0056H4.54672C5.4462 24.0019 5.98699 23.534 5.98699 22.7219H5.98516Z" fill="#282D26"/>
<path d="M19.9634 20.7045C19.9634 23.6469 17.5763 25.9739 14.541 25.9739C11.5057 25.9739 9.1496 23.6615 9.1496 20.7045C9.1496 17.7475 11.5167 15.4351 14.541 15.4351C17.5654 15.4351 19.9634 17.7621 19.9634 20.7045ZM11.2909 20.7045C11.2909 22.6619 12.6474 24.0475 14.5574 24.0475C16.4674 24.0475 17.8221 22.6455 17.8221 20.7045C17.8221 18.7635 16.4511 17.3615 14.5611 17.3615C12.671 17.3615 11.2836 18.7489 11.2836 20.7045H11.2909Z" fill="#282D26"/>
<path d="M21.1415 20.7042C21.1415 17.7454 23.5086 15.4348 26.5639 15.4348C27.3071 15.425 28.0436 15.5771 28.7221 15.8805C29.4006 16.184 30.005 16.6314 30.4932 17.1919C30.6941 17.3988 30.8098 17.6737 30.8173 17.9621C30.8121 18.2151 30.7072 18.4559 30.5255 18.6322C30.3438 18.8084 30.1 18.9059 29.8468 18.9034C29.6921 18.8986 29.5402 18.8601 29.4019 18.7906C29.2635 18.7211 29.1419 18.6223 29.0457 18.501C28.7448 18.1361 28.3653 17.8439 27.9355 17.6465C27.5057 17.4491 27.0368 17.3516 26.5639 17.3612C24.6539 17.3612 23.2865 18.7632 23.2865 20.7206C23.2865 22.678 24.6575 24.0472 26.5639 24.0472C27.0339 24.0536 27.4994 23.9545 27.926 23.7572C28.3527 23.56 28.7297 23.2696 29.0293 22.9074C29.1287 22.7858 29.2533 22.687 29.3944 22.6179C29.5354 22.5487 29.6898 22.5109 29.8468 22.5068C29.9712 22.5058 30.0945 22.5294 30.2097 22.5761C30.325 22.6228 30.4299 22.6917 30.5185 22.779C30.6071 22.8662 30.6776 22.9701 30.7261 23.0846C30.7746 23.1991 30.8 23.322 30.8009 23.4463C30.7903 23.7345 30.6751 24.0089 30.4768 24.2184C29.5846 25.3109 28.1207 25.9736 26.5493 25.9736C23.4995 25.9736 21.1415 23.6612 21.1415 20.7042Z" fill="#282D26"/>
<path d="M32.8093 24.9105V16.6841C32.8045 16.5431 32.8287 16.4027 32.8804 16.2715C32.9322 16.1403 33.0103 16.0212 33.11 15.9214C33.2098 15.8217 33.3289 15.7436 33.4601 15.6918C33.5913 15.6401 33.7317 15.6159 33.8727 15.6207H40.0634C40.204 15.6172 40.3439 15.6423 40.4745 15.6945C40.6051 15.7467 40.7237 15.8249 40.8231 15.9244C40.9226 16.0238 41.0008 16.1424 41.053 16.273C41.1052 16.4036 41.1303 16.5435 41.1268 16.6841V24.9105C41.1268 25.1862 41.0172 25.4507 40.8223 25.6457C40.6273 25.8406 40.3628 25.9502 40.0871 25.9502C39.8114 25.9502 39.5469 25.8406 39.3519 25.6457C39.157 25.4507 39.0474 25.1862 39.0474 24.9105V17.4998H34.8887V24.9105C34.8887 25.1862 34.7791 25.4507 34.5842 25.6457C34.3892 25.8406 34.1247 25.9502 33.849 25.9502C33.5733 25.9502 33.3088 25.8406 33.1138 25.6457C32.9189 25.4507 32.8093 25.1862 32.8093 24.9105Z" fill="#282D26"/>
<path d="M43.4465 24.9105V16.6841C43.4414 16.5432 43.4654 16.4028 43.5169 16.2716C43.5684 16.1404 43.6464 16.0213 43.746 15.9215C43.8455 15.8218 43.9646 15.7436 44.0957 15.6918C44.2268 15.6401 44.3671 15.6159 44.508 15.6207H47.2811C49.4551 15.6207 50.9336 16.9463 50.9336 18.8982C50.9336 20.8501 49.4224 22.1939 47.2811 22.1939H45.5258V24.905C45.5258 25.1808 45.4163 25.4452 45.2213 25.6402C45.0263 25.8352 44.7619 25.9447 44.4862 25.9447C44.2104 25.9447 43.946 25.8352 43.751 25.6402C43.556 25.4452 43.4465 25.1808 43.4465 24.905V24.9105ZM47.2702 20.3821C48.2261 20.3821 48.8106 19.8104 48.8106 18.9036C48.8106 18.0242 48.2261 17.447 47.2702 17.447H45.5295V20.3749L47.2702 20.3821Z" fill="#282D26"/>
<path d="M61.4143 16.4839V24.9106C61.4143 25.0471 61.3874 25.1823 61.3352 25.3084C61.2829 25.4346 61.2063 25.5492 61.1098 25.6457C61.0132 25.7423 60.8986 25.8189 60.7725 25.8711C60.6463 25.9234 60.5111 25.9503 60.3746 25.9503C60.2381 25.9503 60.1029 25.9234 59.9767 25.8711C59.8506 25.8189 59.736 25.7423 59.6394 25.6457C59.5429 25.5492 59.4663 25.4346 59.4141 25.3084C59.3618 25.1823 59.3349 25.0471 59.3349 24.9106V19.2661L54.497 25.5205C54.3706 25.7038 54.1887 25.8417 53.9781 25.9138C53.7675 25.9859 53.5392 25.9886 53.327 25.9213C53.1148 25.854 52.9298 25.7204 52.7992 25.5401C52.6686 25.3598 52.5993 25.1423 52.6016 24.9197V16.5002C52.6016 16.2245 52.7111 15.9601 52.9061 15.7651C53.1011 15.5701 53.3655 15.4606 53.6412 15.4606C53.917 15.4606 54.1814 15.5701 54.3764 15.7651C54.5714 15.9601 54.6809 16.2245 54.6809 16.5002V22.1684L59.3804 16.0523C59.6426 15.7137 59.8739 15.4351 60.3819 15.4351C60.519 15.4346 60.6548 15.4615 60.7814 15.5142C60.9079 15.5669 61.0227 15.6444 61.1189 15.7421C61.2151 15.8398 61.2907 15.9558 61.3415 16.0832C61.3922 16.2105 61.417 16.3468 61.4143 16.4839Z" fill="#282D26"/>
<path d="M71.2175 16.6841V24.9105C71.2175 25.0471 71.1907 25.1823 71.1384 25.3084C71.0862 25.4345 71.0096 25.5492 70.913 25.6457C70.8165 25.7423 70.7019 25.8188 70.5757 25.8711C70.4496 25.9233 70.3144 25.9502 70.1779 25.9502C70.0413 25.9502 69.9061 25.9233 69.78 25.8711C69.6539 25.8188 69.5392 25.7423 69.4427 25.6457C69.3462 25.5492 69.2696 25.4345 69.2173 25.3084C69.1651 25.1823 69.1382 25.0471 69.1382 24.9105V22.6618H67.6269C67.4284 22.6618 67.2427 22.6455 67.057 22.6309L65.1797 25.5369C65.0937 25.6742 64.973 25.7864 64.8298 25.8622C64.6866 25.9379 64.5259 25.9746 64.364 25.9684C64.09 25.9641 63.829 25.8513 63.6381 25.6546C63.4473 25.458 63.3423 25.1936 63.3462 24.9196C63.3576 24.681 63.4379 24.4508 63.5774 24.2569L65.1342 21.9317C64.6811 21.6203 64.3127 21.2008 64.0625 20.7112C63.8123 20.2216 63.6881 19.6773 63.7012 19.1276C63.7012 17.0319 65.3036 15.6153 67.6287 15.6153H70.156C70.2973 15.6107 70.438 15.6352 70.5693 15.6874C70.7007 15.7396 70.8199 15.8183 70.9195 15.9185C71.0191 16.0188 71.097 16.1386 71.1483 16.2703C71.1995 16.402 71.2231 16.5429 71.2175 16.6841ZM69.1382 17.4543H67.5978C66.549 17.4543 65.8261 18.1317 65.8261 19.1331C65.8261 20.1345 66.5545 20.8283 67.5978 20.8283H69.1382V17.4543Z" fill="#282D26"/>
<path d="M75.8296 24.9108V17.5001H73.4098C73.2864 17.5001 73.1642 17.4758 73.0502 17.4286C72.9362 17.3814 72.8326 17.3122 72.7454 17.2249C72.6582 17.1377 72.589 17.0341 72.5417 16.9201C72.4945 16.8061 72.4702 16.684 72.4702 16.5606C72.4702 16.4372 72.4945 16.315 72.5417 16.201C72.589 16.087 72.6582 15.9835 72.7454 15.8962C72.8326 15.809 72.9362 15.7398 73.0502 15.6926C73.1642 15.6453 73.2864 15.621 73.4098 15.621H80.3288C80.4547 15.6147 80.5804 15.6345 80.6982 15.6792C80.816 15.724 80.9232 15.7927 81.013 15.881C81.1029 15.9693 81.1734 16.0753 81.2202 16.1923C81.267 16.3092 81.289 16.4347 81.2848 16.5606C81.285 16.6854 81.2604 16.8091 81.2122 16.9242C81.1641 17.0394 81.0934 17.1438 81.0044 17.2313C80.9153 17.3189 80.8097 17.3877 80.6937 17.4339C80.5777 17.48 80.4537 17.5025 80.3288 17.5001H77.909V24.9108C77.909 25.1866 77.7995 25.451 77.6045 25.646C77.4095 25.841 77.145 25.9505 76.8693 25.9505C76.5936 25.9505 76.3291 25.841 76.1341 25.646C75.9392 25.451 75.8296 25.1866 75.8296 24.9108Z" fill="#282D26"/>
<path d="M91.363 16.4834V24.9102C91.363 25.0467 91.3361 25.1819 91.2838 25.308C91.2316 25.4342 91.155 25.5488 91.0584 25.6453C90.9619 25.7419 90.8473 25.8185 90.7211 25.8707C90.595 25.923 90.4598 25.9499 90.3233 25.9499C90.1867 25.9499 90.0515 25.923 89.9254 25.8707C89.7993 25.8185 89.6846 25.7419 89.5881 25.6453C89.4916 25.5488 89.415 25.4342 89.3627 25.308C89.3105 25.1819 89.2836 25.0467 89.2836 24.9102V19.2657L84.4457 25.5201C84.3193 25.7034 84.1374 25.8413 83.9267 25.9134C83.7161 25.9855 83.4879 25.9882 83.2757 25.9209C83.0634 25.8536 82.8784 25.72 82.7478 25.5397C82.6172 25.3594 82.548 25.1419 82.5502 24.9193V16.4998C82.5444 16.3595 82.5669 16.2195 82.6166 16.0881C82.6662 15.9567 82.7419 15.8368 82.8391 15.7354C82.9363 15.634 83.053 15.5534 83.1822 15.4983C83.3114 15.4432 83.4504 15.4148 83.5908 15.4148C83.7313 15.4148 83.8702 15.4432 83.9994 15.4983C84.1286 15.5534 84.2453 15.634 84.3425 15.7354C84.4397 15.8368 84.5154 15.9567 84.5651 16.0881C84.6147 16.2195 84.6373 16.3595 84.6314 16.4998V22.168L89.3291 16.0519C89.5913 15.7132 89.8225 15.4347 90.3306 15.4347C90.4677 15.4339 90.6037 15.4606 90.7303 15.5133C90.857 15.5659 90.9719 15.6434 91.0681 15.7412C91.1643 15.8389 91.24 15.955 91.2906 16.0825C91.3413 16.21 91.3659 16.3463 91.363 16.4834Z" fill="#282D26"/>
<path d="M101.168 16.684V24.9104C101.174 25.0508 101.151 25.1908 101.102 25.3222C101.052 25.4535 100.976 25.5735 100.879 25.6749C100.782 25.7762 100.665 25.8569 100.536 25.912C100.407 25.9671 100.268 25.9955 100.127 25.9955C99.987 25.9955 99.848 25.9671 99.7188 25.912C99.5896 25.8569 99.4729 25.7762 99.3757 25.6749C99.2785 25.5735 99.2028 25.4535 99.1532 25.3222C99.1035 25.1908 99.081 25.0508 99.0868 24.9104V22.6617H97.5774C97.3771 22.6617 97.1932 22.6454 97.0075 22.6308L95.1284 25.5441C95.0419 25.6808 94.921 25.7924 94.7779 25.8678C94.6347 25.9432 94.4743 25.9798 94.3127 25.9738C94.1771 25.9717 94.0432 25.9428 93.9188 25.889C93.7944 25.8351 93.6817 25.7573 93.5874 25.6599C93.4931 25.5625 93.4188 25.4474 93.3689 25.3214C93.319 25.1953 93.2945 25.0606 93.2966 24.925C93.3081 24.6864 93.3884 24.4562 93.5279 24.2622L95.0829 21.9371C94.6303 21.6252 94.2625 21.2056 94.0126 20.7161C93.7628 20.2265 93.6387 19.6825 93.6517 19.133C93.6517 17.0372 95.254 15.6207 97.5792 15.6207H100.106C100.247 15.6161 100.388 15.6405 100.518 15.6923C100.649 15.7442 100.768 15.8224 100.868 15.9221C100.967 16.0218 101.045 16.1408 101.097 16.2719C101.149 16.403 101.173 16.5432 101.168 16.684ZM99.0868 17.4542H97.5464C96.4995 17.4542 95.7748 18.1316 95.7748 19.133C95.7748 20.1344 96.5031 20.8282 97.5464 20.8282H99.0868V17.4542Z" fill="#282D26"/>
</svg>
