<svg width="100" height="100" viewBox="0 0 100 100" fill="none" xmlns="http://www.w3.org/2000/svg">
<path d="M82.6275 65.75C82.4549 65.3807 82.2823 65.0097 82.1162 64.6371L79.1743 65.9613C79.3501 66.3516 79.5291 66.7371 79.7097 67.1242C79.9323 67.5968 80.1275 68.0807 80.3372 68.5597L77.6856 69.9871C66.6226 75.942 57.6404 85.4387 52.2355 96.7742H47.7646C42.3597 85.4387 33.3774 75.942 22.3145 69.9855L19.6629 68.5581C19.8726 68.079 20.0678 67.5952 20.2903 67.1226C20.471 66.7355 20.6516 66.3484 20.8258 65.9581L17.8839 64.6355C17.7161 65.0097 17.5452 65.3807 17.371 65.75C13.3936 74.2032 11.2903 83.6097 11.2903 92.9533V100H88.7098V92.9533C88.7098 83.6097 86.6065 74.2032 82.6275 65.75ZM14.5161 92.9533C14.5161 85.6839 15.8774 78.3823 18.4403 71.5629L20.7855 72.8258C30.7903 78.2129 38.9823 86.671 44.1533 96.7742H14.5161V92.9533ZM85.4839 96.7742H55.8468C61.0178 86.671 69.2097 78.2129 79.213 72.8258L81.5581 71.5629C84.121 78.3823 85.4839 85.6839 85.4839 92.9533V96.7742Z" fill="#6D4B4F"/>
<path d="M7.27744 35.0809L5.62744 32.3083C8.48873 30.6051 11.8452 29.0809 15.6033 27.7793L16.6581 30.8277C13.1081 32.0583 9.95164 33.4906 7.27744 35.0809Z" fill="#6D4B4F"/>
<path d="M93.0049 35.2501C89.8791 33.3549 86.0985 31.6888 81.7662 30.3017L82.7485 27.2307C87.3227 28.6952 91.3356 30.4646 94.6775 32.492L93.0049 35.2501Z" fill="#6D4B4F"/>
<path d="M10.6081 69.742C6.61134 67.8678 3.22585 65.7226 0.548431 63.3662L2.67747 60.9436C5.12747 63.0984 8.2565 65.0759 11.9791 66.821L10.6081 69.742Z" fill="#6D4B4F"/>
<path d="M89.3953 69.7387L88.0243 66.8177C91.7469 65.0709 94.8743 63.0951 97.3227 60.9419L99.4517 63.3645C96.7775 65.7209 93.392 67.8645 89.3953 69.7387Z" fill="#6D4B4F"/>
<path d="M50.0001 51.613C49.1081 51.613 48.3871 50.8904 48.3871 50.0001V46.7743C48.3871 45.884 49.1081 45.1614 50.0001 45.1614C50.892 45.1614 51.613 45.884 51.613 46.7743V50.0001C51.613 50.8904 50.892 51.613 50.0001 51.613Z" fill="#6D4B4F"/>
<path d="M74.613 31.6821L74.2904 31.6079C74.2307 32.8127 74.1936 34.0208 74.1936 35.2305C74.1936 37.2192 74.2775 39.2015 74.4372 41.1757C86.1404 43.8192 90.3227 47.5676 90.3227 49.9999C90.3227 52.8224 85.6936 55.8144 77.8243 58.0095C77.8291 58.0257 77.8339 58.0434 77.8404 58.0612H77.642C70.6388 59.9902 61.1065 61.2902 50 61.2902C38.9016 61.2902 29.3758 59.9918 22.3742 58.0644H22.1597C22.1661 58.0466 22.171 58.0273 22.1758 58.0095C14.3065 55.8144 9.67743 52.8224 9.67743 49.9999C9.67743 47.5676 13.8597 43.8192 25.5629 41.1757C25.7242 39.2015 25.8065 37.2176 25.8065 35.2305C25.8065 34.0208 25.7694 32.8127 25.7097 31.6079L25.3871 31.6821C9.49194 35.3724 0 42.2208 0 49.9999C0 61.7579 21.9629 70.9676 50 70.9676C78.0372 70.9676 100 61.7579 100 49.9999C100 42.2208 90.5081 35.3724 74.613 31.6821Z" fill="#A857A2"/>
<path d="M84.763 0H15.2372L17.7678 5.57097C22.0323 14.9484 24.1936 24.9274 24.1936 35.2307C24.1936 42.8275 22.9936 50.3388 20.6291 57.5533C21.1307 57.7081 21.6436 57.8613 22.1759 58.0097C22.1694 58.0275 22.1646 58.0468 22.1597 58.0646H22.3743C22.8097 58.1839 23.2855 58.2936 23.7404 58.4097C23.7775 58.2952 23.8081 58.1791 23.8452 58.0646H76.1566C76.1937 58.1791 76.2243 58.2952 76.2614 58.4097C76.7227 58.2936 77.2017 58.1823 77.6437 58.0613H77.8421C77.8372 58.0452 77.8324 58.0275 77.8259 58.0097C78.3566 57.8613 78.8711 57.7097 79.3727 57.5533C77.0066 50.3355 75.8066 42.8258 75.8066 35.2307C75.8066 24.9274 77.9679 14.9484 82.2308 5.56936L84.763 0ZM79.2953 4.23387C74.8388 14.0355 72.5808 24.4629 72.5808 35.2307C72.5808 41.8726 73.4711 48.4484 75.2066 54.8388H24.7936C26.5291 48.45 27.4194 41.8742 27.4194 35.2307C27.4194 24.4645 25.1614 14.0355 20.7049 4.23549L20.2468 3.22581H79.755L79.2953 4.23387Z" fill="#6D4B4F"/>
</svg>
