<svg width="65" height="100" viewBox="0 0 65 100" fill="none" xmlns="http://www.w3.org/2000/svg">
<path d="M59.6774 64.8129V29.0323C59.6774 20.1532 55.5016 12.0806 48.5371 6.97258C44.4242 2.68548 38.6549 0 32.2581 0C25.8629 0 20.0936 2.68387 15.9807 6.97097C9.01614 12.0806 4.83872 20.1532 4.83872 29.0323V64.8129C2.96614 65.4806 1.61292 67.2548 1.61292 69.3548V72.5806H4.83872V69.3548C4.83872 68.4645 5.56292 67.7419 6.45162 67.7419C7.34033 67.7419 8.06453 68.4645 8.06453 69.3548V72.5806H11.2903V69.3548C11.2903 67.2548 9.93711 65.4806 8.06453 64.8129V29.0323C8.06453 25.8129 8.6984 22.7161 9.85646 19.8677C9.7484 20.7581 9.67743 21.6613 9.67743 22.5806C9.67743 35.0323 19.8065 45.1613 32.2581 45.1613C44.7097 45.1613 54.8387 35.0323 54.8387 22.5806C54.8387 21.6597 54.7661 20.7581 54.6597 19.8661C55.8178 22.7161 56.4516 25.8113 56.4516 29.0323V64.8129C54.579 65.4806 53.2258 67.2548 53.2258 69.3548V72.5806H56.4516V69.3548C56.4516 68.4645 57.1758 67.7419 58.0645 67.7419C58.9532 67.7419 59.6774 68.4645 59.6774 69.3548V72.5806H62.9032V69.3548C62.9032 67.2548 61.55 65.4806 59.6774 64.8129ZM32.2581 3.22581C40.2613 3.22581 46.7742 9.7371 46.7742 17.7419C46.7742 25.7468 40.2613 32.2581 32.2581 32.2581C24.2549 32.2581 17.7419 25.7468 17.7419 17.7419C17.7419 9.7371 24.2549 3.22581 32.2581 3.22581ZM32.2581 41.9355C21.5855 41.9355 12.9032 33.2532 12.9032 22.5806C12.9032 19.521 13.6355 16.6355 14.9048 14.0613C14.6532 15.25 14.5161 16.479 14.5161 17.7419C14.5161 27.5242 22.4758 35.4839 32.2581 35.4839C42.0403 35.4839 50 27.5242 50 17.7419C50 16.479 49.8629 15.25 49.6113 14.0613C50.8807 16.6355 51.6129 19.521 51.6129 22.5806C51.6129 33.2532 42.9307 41.9355 32.2581 41.9355Z" fill="#6D4B4F"/>
<path d="M6.45161 99.9998C2.89355 99.9998 0 97.1062 0 93.5482V70.9675H12.9032V93.5482C12.9032 97.1062 10.0097 99.9998 6.45161 99.9998Z" fill="#A857A2"/>
<path d="M0 77.4194H12.9032V80.6452H0V77.4194Z" fill="#6D4B4F"/>
<path d="M0 83.8711H12.9032V87.0969H0V83.8711Z" fill="#6D4B4F"/>
<path d="M0 90.3225H12.9032V93.5483H0V90.3225Z" fill="#6D4B4F"/>
<path d="M58.0645 99.9998C54.5065 99.9998 51.6129 97.1062 51.6129 93.5482V70.9675H64.5161V93.5482C64.5161 97.1062 61.6226 99.9998 58.0645 99.9998Z" fill="#A857A2"/>
<path d="M51.6129 77.4194H64.5161V80.6452H51.6129V77.4194Z" fill="#6D4B4F"/>
<path d="M51.6129 83.8711H64.5161V87.0969H51.6129V83.8711Z" fill="#6D4B4F"/>
<path d="M51.6129 90.3225H64.5161V93.5483H51.6129V90.3225Z" fill="#6D4B4F"/>
</svg>
