<svg width="100" height="100" viewBox="0 0 100 100" fill="none" xmlns="http://www.w3.org/2000/svg">
<path d="M100 62.9032C100 60.9661 99.1258 59.2484 97.771 58.0645C99.1258 56.8806 100 55.1629 100 53.2258C100 49.6677 97.1065 46.7742 93.5484 46.7742V45.6903C93.5484 43.8774 92.8419 42.1742 91.5613 40.8919C90.7742 40.1065 90.3226 39.0161 90.3226 37.9032C90.3226 36.7903 90.7742 35.7 91.5613 34.9129C92.8419 33.6323 93.5484 31.929 93.5484 30.1161V25.8065C93.5484 23.1387 91.3774 20.9677 88.7097 20.9677H83.871V19.1919C87.5468 18.4419 90.3226 15.1855 90.3226 11.2903C90.3226 6.84355 86.7048 3.22581 82.2581 3.22581H80.6452V0H64.5161V9.67742H67.7419V14.5161H61.2903V20.9677H56.4516C53.7839 20.9677 51.6129 23.1387 51.6129 25.8065V30.1161C51.6129 31.929 52.3194 33.6323 53.6 34.9145C54.3871 35.7 54.8387 36.7903 54.8387 37.9032C54.8387 39.0161 54.3871 40.1065 53.6 40.8935C52.3194 42.1742 51.6129 43.8774 51.6129 45.6903V47.7194L41.2677 58.0645H20.9677V61.2903H42.6032L53.8936 50H68.5484C70.3274 50 71.7742 51.4468 71.7742 53.2258C71.7742 55.0048 70.3274 56.4516 68.5484 56.4516H57.3968L47.2468 66.6016L49.5274 68.8823L51.6129 66.7968V90.3226H47.4419L40.9903 83.871H20.9677V87.0968H39.6548L46.1065 93.5484H51.7758C52.5258 97.2242 55.7823 100 59.6774 100H85.4839C89.9306 100 93.5484 96.3823 93.5484 91.9355V88.7097C97.1065 88.7097 100 85.8161 100 82.2581C100 80.321 99.1258 78.6032 97.771 77.4194C99.1258 76.2355 100 74.5177 100 72.5806C100 70.6435 99.1258 68.9258 97.771 67.7419C99.1258 66.5581 100 64.8403 100 62.9032ZM96.7742 53.2258C96.7742 55.0048 95.3274 56.4516 93.5484 56.4516H83.871C82.0919 56.4516 80.6452 55.0048 80.6452 53.2258C80.6452 51.4468 82.0919 50 83.871 50H93.5484C95.3274 50 96.7742 51.4468 96.7742 53.2258ZM82.2581 6.45161C84.9258 6.45161 87.0968 8.62258 87.0968 11.2903C87.0968 13.3903 85.7436 15.1645 83.871 15.8323V14.5161H77.4194V9.67742H80.6452V6.45161H82.2581ZM67.7419 3.22581H77.4194V6.45161H67.7419V3.22581ZM70.9677 9.67742H74.1936V14.5161H70.9677V9.67742ZM64.5161 17.7419H80.6452V20.9677H64.5161V17.7419ZM90.3226 91.9355C90.3226 94.6032 88.1516 96.7742 85.4839 96.7742H59.6774C57.0097 96.7742 54.8387 94.6032 54.8387 91.9355V63.571L58.7323 59.6774H68.5484C72.1065 59.6774 75 56.7839 75 53.2258C75 49.6677 72.1065 46.7742 68.5484 46.7742H54.8387V45.6903C54.8387 44.7403 55.2081 43.8452 55.8806 43.1726C57.2694 41.7871 58.0645 39.8661 58.0645 37.9032C58.0645 35.9403 57.2694 34.0194 55.8806 32.6323C55.2081 31.9597 54.8387 31.0661 54.8387 30.1161V25.8065C54.8387 24.9161 55.5629 24.1935 56.4516 24.1935H88.7097C89.5984 24.1935 90.3226 24.9161 90.3226 25.8065V30.1161C90.3226 31.0661 89.9532 31.9613 89.2807 32.6339C87.8919 34.0194 87.0968 35.9403 87.0968 37.9032C87.0968 39.8661 87.8919 41.7871 89.2807 43.1742C89.9532 43.8468 90.3226 44.7403 90.3226 45.6903V46.7742H83.871C80.3129 46.7742 77.4194 49.6677 77.4194 53.2258C77.4194 55.1629 78.2936 56.8806 79.6484 58.0645C78.2936 59.2484 77.4194 60.9661 77.4194 62.9032C77.4194 64.8403 78.2936 66.5581 79.6484 67.7419C78.2936 68.9258 77.4194 70.6435 77.4194 72.5806C77.4194 74.5177 78.2936 76.2355 79.6484 77.4194C78.2936 78.6032 77.4194 80.321 77.4194 82.2581C77.4194 85.8161 80.3129 88.7097 83.871 88.7097H90.3226V91.9355ZM96.7742 82.2581C96.7742 84.0371 95.3274 85.4839 93.5484 85.4839H83.871C82.0919 85.4839 80.6452 84.0371 80.6452 82.2581C80.6452 80.479 82.0919 79.0323 83.871 79.0323H93.5484C95.3274 79.0323 96.7742 80.479 96.7742 82.2581ZM96.7742 72.5806C96.7742 74.3597 95.3274 75.8064 93.5484 75.8064H83.871C82.0919 75.8064 80.6452 74.3597 80.6452 72.5806C80.6452 70.8016 82.0919 69.3548 83.871 69.3548H93.5484C95.3274 69.3548 96.7742 70.8016 96.7742 72.5806ZM83.871 66.129C82.0919 66.129 80.6452 64.6823 80.6452 62.9032C80.6452 61.1242 82.0919 59.6774 83.871 59.6774H93.5484C95.3274 59.6774 96.7742 61.1242 96.7742 62.9032C96.7742 64.6823 95.3274 66.129 93.5484 66.129H83.871Z" fill="#6D4B4F"/>
<path d="M61.2903 77.4193H58.0645V90.3225C58.0645 92.1016 59.5113 93.5483 61.2903 93.5483H64.5161V90.3225H61.2903V77.4193Z" fill="#6D4B4F"/>
<path d="M58.0645 70.9677H61.2903V74.1935H58.0645V70.9677Z" fill="#6D4B4F"/>
<path d="M61.2903 35.4838H64.5161V38.7096H61.2903V35.4838Z" fill="#6D4B4F"/>
<path d="M67.7419 35.4838H70.9677V38.7096H67.7419V35.4838Z" fill="#6D4B4F"/>
<path d="M74.1936 35.4838H77.4194V38.7096H74.1936V35.4838Z" fill="#6D4B4F"/>
<path d="M80.6452 35.4838H83.871V38.7096H80.6452V35.4838Z" fill="#6D4B4F"/>
<path d="M19.3548 96.7741H3.22581C1.44677 96.7741 0 95.3273 0 93.5483V54.8386C0 53.0596 1.44677 51.6128 3.22581 51.6128H19.3548C21.1339 51.6128 22.5806 53.0596 22.5806 54.8386V93.5483C22.5806 95.3273 21.1339 96.7741 19.3548 96.7741Z" fill="#A857A2"/>
</svg>
