<svg width="67" height="100" viewBox="0 0 67 100" fill="none" xmlns="http://www.w3.org/2000/svg">
<path d="M39.9307 38.7097C37.6742 38.7097 35.55 39.5887 33.95 41.1855L33.871 41.2662L33.7887 41.1839C32.1904 39.5888 30.0678 38.7097 27.8113 38.7097C23.1484 38.7097 19.3549 42.5033 19.3549 47.1646C19.3549 49.4242 20.2339 51.5484 21.8323 53.1436L33.871 65.1839L45.9097 53.1452C47.5081 51.5484 48.3871 49.4259 48.3871 47.1646C48.3871 42.5033 44.5936 38.7097 39.9307 38.7097ZM27.8113 41.9355C29.2081 41.9355 30.521 42.4791 31.5081 43.4662L33.871 45.8307L36.2323 43.4678C37.221 42.4791 38.5355 41.9355 39.9307 41.9355C42.6807 41.9355 44.9178 44.0759 45.121 46.7742H36.0984L33.742 51.4904L29.9452 45.1613H22.9823C23.771 43.2694 25.6371 41.9355 27.8113 41.9355ZM33.871 60.6226L24.1113 50.8613C23.4194 50.171 22.9613 49.3146 22.7387 48.3871H28.1178L33.9984 58.1872L38.0936 50.0001H44.321C44.1226 50.3065 43.8952 50.5984 43.6291 50.863L33.871 60.6226Z" fill="#6D4B4F"/>
<path d="M8.06452 58.0646C3.61775 58.0646 0 54.4468 0 50.0001C0 45.5533 3.61775 41.9355 8.06452 41.9355V45.1614C5.39678 45.1614 3.22581 47.3323 3.22581 50.0001C3.22581 52.6678 5.39678 54.8388 8.06452 54.8388V58.0646Z" fill="#6D4B4F"/>
<path d="M58.0646 62.6032H54.8388V78.2581L50.0001 82.1274V70.9677H46.7742V96.7742H20.9678V70.9677H17.742V82.1274L12.9032 78.2581V62.4709H9.67743V79.8065L17.742 86.2597V100H50.0001V86.2597L58.0646 79.8065V62.6032Z" fill="#6D4B4F"/>
<path d="M32.2581 80.6451H35.4839V83.871H32.2581V80.6451Z" fill="#6D4B4F"/>
<path d="M32.2581 90.3228H35.4839V93.5486H32.2581V90.3228Z" fill="#6D4B4F"/>
<path d="M61.2904 48.3871H59.6775V45.1613H61.2904C62.1791 45.1613 62.9033 44.4388 62.9033 43.5484C62.9033 42.6581 62.1791 41.9355 61.2904 41.9355H58.0646V38.7097H61.2904C63.9581 38.7097 66.1291 40.8807 66.1291 43.5484C66.1291 46.2162 63.9581 48.3871 61.2904 48.3871Z" fill="#6D4B4F"/>
<path d="M50.0001 13.7403V0H17.742V13.7403L9.67743 20.192V37.3726H12.9032V21.742L17.742 17.871V29.0323H20.9678V19.3549H46.7742V29.0323H50.0001V17.8726L54.8388 21.7436V37.4194H58.0646V20.1936L50.0001 13.7403ZM20.9678 16.129V3.22581H46.7742V16.129H20.9678Z" fill="#6D4B4F"/>
<path d="M32.2581 6.45166H35.4839V9.67747H32.2581V6.45166Z" fill="#6D4B4F"/>
<path d="M61.2904 62.9033H58.0646V59.6774H61.2904C62.1791 59.6774 62.9033 58.9549 62.9033 58.0645C62.9033 57.1742 62.1791 56.4516 61.2904 56.4516H59.6775V53.2258H61.2904C63.9581 53.2258 66.1291 55.3968 66.1291 58.0645C66.1291 60.7323 63.9581 62.9033 61.2904 62.9033Z" fill="#6D4B4F"/>
<path d="M33.871 77.4195C18.7516 77.4195 6.4516 65.1194 6.4516 50.0001C6.4516 34.8807 18.7516 22.5807 33.871 22.5807C48.9904 22.5807 61.2904 34.8807 61.2904 50.0001C61.2904 65.1194 48.9904 77.4195 33.871 77.4195ZM33.871 30.6452C23.1984 30.6452 14.5161 39.3275 14.5161 50.0001C14.5161 60.6727 23.1984 69.3549 33.871 69.3549C44.5436 69.3549 53.2258 60.6727 53.2258 50.0001C53.2258 39.3275 44.5436 30.6452 33.871 30.6452Z" fill="#A857A2"/>
<path d="M33.871 70.9679C22.3097 70.9679 12.9033 61.5614 12.9033 50.0001C12.9033 38.4388 22.3097 29.0323 33.871 29.0323C45.4323 29.0323 54.8388 38.4388 54.8388 50.0001C54.8388 61.5614 45.4323 70.9679 33.871 70.9679ZM33.871 32.2582C24.0888 32.2582 16.1291 40.2178 16.1291 50.0001C16.1291 59.7824 24.0888 67.7421 33.871 67.7421C43.6533 67.7421 51.613 59.7824 51.613 50.0001C51.613 40.2178 43.6533 32.2582 33.871 32.2582Z" fill="#6D4B4F"/>
</svg>
