<svg width="100" height="100" viewBox="0 0 100 100" fill="none" xmlns="http://www.w3.org/2000/svg">
<path d="M38.7097 27.4193H61.2903V80.6451H38.7097V27.4193Z" fill="#A857A2"/>
<path d="M16.129 25.8065V41.9356H32.2581V32.2065L36.5161 28.6581L34.4516 26.1807L32.2581 28.0081V25.8065H16.129ZM29.0323 38.7097H19.3548V29.0323H29.0323V30.6968L25.9064 33.3017L23.7226 31.1178L21.4419 33.3985L25.7097 37.6662L29.0323 34.8952V38.7097Z" fill="#6D4B4F"/>
<path d="M32.2581 45.1614H16.129V61.2904H32.2581V45.1614ZM29.0323 58.0646H19.3548V48.3872H29.0323V58.0646Z" fill="#6D4B4F"/>
<path d="M16.129 80.6451H32.2581V64.5161H16.129V80.6451ZM19.3548 67.7419H29.0323V77.4193H19.3548V67.7419Z" fill="#6D4B4F"/>
<path d="M38.7097 25.8065H61.2903V29.0323H38.7097V25.8065Z" fill="#6D4B4F"/>
<path d="M38.7097 32.2579H61.2903V35.4837H38.7097V32.2579Z" fill="#6D4B4F"/>
<path d="M38.7097 38.7097H54.8387V41.9355H38.7097V38.7097Z" fill="#6D4B4F"/>
<path d="M58.0645 38.7097H61.2903V41.9355H58.0645V38.7097Z" fill="#6D4B4F"/>
<path d="M38.7097 45.1614H61.2903V48.3872H38.7097V45.1614Z" fill="#6D4B4F"/>
<path d="M38.7097 51.6128H61.2903V54.8386H38.7097V51.6128Z" fill="#6D4B4F"/>
<path d="M38.7097 58.0645H54.8387V61.2903H38.7097V58.0645Z" fill="#6D4B4F"/>
<path d="M58.0645 58.0645H61.2903V61.2903H58.0645V58.0645Z" fill="#6D4B4F"/>
<path d="M38.7097 64.5161H61.2903V67.7419H38.7097V64.5161Z" fill="#6D4B4F"/>
<path d="M38.7097 70.9677H61.2903V74.1935H38.7097V70.9677Z" fill="#6D4B4F"/>
<path d="M38.7097 77.4193H54.8387V80.6451H38.7097V77.4193Z" fill="#6D4B4F"/>
<path d="M58.0645 77.4193H61.2903V80.6451H58.0645V77.4193Z" fill="#6D4B4F"/>
<path d="M70.9677 30.6452H74.1935C74.1935 26.1984 77.8113 22.5807 82.2581 22.5807V19.3549C76.0323 19.3549 70.9677 24.4194 70.9677 30.6452Z" fill="#6D4B4F"/>
<path d="M70.9677 82.258H74.1935C74.1935 77.8112 77.8113 74.1935 82.2581 74.1935V70.9677C76.0323 70.9677 70.9677 76.0322 70.9677 82.258Z" fill="#6D4B4F"/>
<path d="M90.3226 66.4613V46.442C96.2355 43.4226 100 37.3355 100 30.6452C100 20.863 92.0403 12.9033 82.2581 12.9033C80.3161 12.9033 78.4516 13.2275 76.7016 13.8081C75.0855 9.45327 70.9064 6.45166 66.129 6.45166H53.2258V9.67747H66.129C69.6 9.67747 72.6177 11.9 73.7258 15.0984C72.7194 15.6533 71.7726 16.3033 70.8968 17.0355C70.55 14.7033 68.5548 12.9033 66.129 12.9033H53.2258V16.1291H66.129C67.0177 16.1291 67.7419 16.8533 67.7419 17.742V20.4759C65.7161 23.3581 64.5161 26.8613 64.5161 30.6452C64.5161 34.3533 65.7048 37.8517 67.7419 40.7694V72.1323C65.7048 75.05 64.5161 78.55 64.5161 82.2565C64.5161 85.1436 65.2242 87.8646 66.4532 90.2759C66.35 90.3 66.2484 90.3226 66.129 90.3226H11.2903C10.4016 90.3226 9.67742 89.5984 9.67742 88.7097V17.742C9.67742 16.8533 10.4016 16.1291 11.2903 16.1291H24.1935V12.9033H11.2903C8.62258 12.9033 6.45161 15.0742 6.45161 17.742V88.7097C6.45161 91.3775 8.62258 93.5484 11.2903 93.5484H66.129C66.8613 93.5484 67.5694 93.3742 68.2161 93.0597C68.8919 93.9371 69.6484 94.7468 70.4742 95.4839C69.1871 96.3146 67.6968 96.7742 66.129 96.7742H11.2903C6.84355 96.7742 3.22581 93.1565 3.22581 88.7097V17.742C3.22581 13.2952 6.84355 9.67747 11.2903 9.67747H24.1935V6.45166H11.2903C5.06452 6.45166 0 11.5162 0 17.742V88.7097C0 94.9355 5.06452 100 11.2903 100H66.129C68.7419 100 71.2081 99.113 73.2097 97.492C75.8629 99.0742 78.9516 100 82.2581 100C92.0403 100 100 92.0404 100 82.2581C100 75.5678 96.2355 69.4791 90.3226 66.4613ZM74.1936 46.442V66.4597C73.021 67.0581 71.9597 67.8081 70.9677 68.6291V44.2726C71.9597 45.0936 73.021 45.8436 74.1936 46.442ZM82.2581 96.7742C74.2548 96.7742 67.7419 90.2613 67.7419 82.2581C67.7419 76.492 71.1613 71.271 76.4516 68.9581L77.4194 68.5355V44.3678L76.4516 43.9452C71.1613 41.6323 67.7419 36.4113 67.7419 30.6452C67.7419 22.642 74.2548 16.1291 82.2581 16.1291C90.2613 16.1291 96.7742 22.642 96.7742 30.6452C96.7742 36.4113 93.3548 41.6323 88.0645 43.9452L87.0968 44.3678V68.5355L88.0645 68.9581C93.3548 71.271 96.7742 76.492 96.7742 82.2581C96.7742 90.2613 90.2613 96.7742 82.2581 96.7742Z" fill="#6D4B4F"/>
<path d="M50 19.3548H27.4194C24.7516 19.3548 22.5806 17.1839 22.5806 14.5161V8.06452C22.5806 5.39677 24.7516 3.22581 27.4194 3.22581H29.3081C29.9742 1.34839 31.7677 0 33.871 0H43.5484C45.6516 0 47.4452 1.34839 48.1113 3.22581H50C52.6677 3.22581 54.8387 5.39677 54.8387 8.06452V14.5161C54.8387 17.1839 52.6677 19.3548 50 19.3548Z" fill="#A857A2"/>
</svg>
