<svg width="81" height="100" viewBox="0 0 81 100" fill="none" xmlns="http://www.w3.org/2000/svg">
<path d="M43.5484 66.129H1.61292V43.5483H43.5484V66.129Z" fill="#A857A2"/>
<path d="M74.1935 62.9032H48.3871V40.3225H74.1935V62.9032Z" fill="#A857A2"/>
<path d="M75.8064 33.871H66.1742C66.2855 28.021 67.079 22.2065 68.5726 16.6597L68.6452 16.45C73.921 13.279 77.4194 7.81613 77.4194 1.6129V0H3.22581V1.6129C3.22581 7.82258 6.73065 13.2871 12.0129 16.4581L12.0387 16.5516C13.6823 22.6403 14.5161 28.9258 14.5161 35.2306C14.5161 35.8532 14.4871 36.4742 14.471 37.0968H0V72.5806H4.95807C2.74355 79.1532 1.6129 85.9936 1.6129 92.9532V100H79.0323V92.9532C79.0323 87.1161 78.2306 81.3306 76.6581 75.721C78.921 75.3145 80.6452 73.3436 80.6452 70.9677V38.7097C80.6452 36.0419 78.4742 33.871 75.8064 33.871ZM74.0936 3.22581C73.2 10.4742 66.3516 16.129 58.0645 16.129C49.7774 16.129 42.929 10.4742 42.0355 3.22581H74.0936ZM6.55161 3.22581H38.6113C37.7177 10.4742 30.8694 16.129 22.5823 16.129C14.2952 16.129 7.44516 10.4742 6.55161 3.22581ZM15.7355 18.1871C17.8677 18.9306 20.1677 19.3548 22.5806 19.3548C30.5048 19.3548 37.3323 14.9677 40.3226 8.70323C43.3129 14.9677 50.1403 19.3548 58.0645 19.3548C60.4774 19.3548 62.7774 18.9306 64.9097 18.1871C63.7065 23.3306 63.0435 28.5855 62.9484 33.871H46.7742C44.6742 33.871 42.9 35.2242 42.2323 37.0968H17.6984C17.7129 36.4742 17.7419 35.8532 17.7419 35.2306C17.7419 29.4935 17.0419 23.7823 15.7355 18.1871ZM3.22581 40.3226H41.9355V69.3548H3.22581V40.3226ZM42.2323 72.5806C42.9 74.4532 44.6742 75.8064 46.7742 75.8064H73.2984C73.6145 76.8774 73.9274 77.9484 74.1839 79.0323H6.4629C6.97742 76.8548 7.62097 74.7032 8.37742 72.5806H42.2323ZM16.7968 88.7097L10.3452 82.2581H15.4613L21.9129 88.7097H16.7968ZM12.2355 88.7097H5.00161C5.15323 86.5435 5.40806 84.3919 5.78871 82.2629L12.2355 88.7097ZM26.4742 88.7097L20.0226 82.2581H25.1387L31.5903 88.7097H26.4742ZM36.1516 88.7097L29.7 82.2581H34.8161L41.2677 88.7097H36.1516ZM45.829 88.7097L39.3774 82.2581H44.4935L50.9452 88.7097H45.829ZM55.5065 88.7097L49.0548 82.2581H54.171L60.6226 88.7097H55.5065ZM65.1839 88.7097L58.7323 82.2581H63.8484L70.3 88.7097H65.1839ZM74.8613 88.7097L68.4097 82.2581H74.8177C75.2 84.3935 75.4919 86.5419 75.6435 88.7097H74.8613ZM75.8064 96.7742H4.83871V92.9532C4.83871 92.6129 4.85645 92.2758 4.86129 91.9355H75.7677C75.7726 92.2758 75.8064 92.6129 75.8064 92.9532V96.7742ZM77.4194 70.9677C77.4194 71.8565 76.6952 72.5806 75.8064 72.5806H46.7742C45.8855 72.5806 45.1613 71.8565 45.1613 70.9677V38.7097C45.1613 37.821 45.8855 37.0968 46.7742 37.0968H75.8064C76.6952 37.0968 77.4194 37.821 77.4194 38.7097V70.9677Z" fill="#6D4B4F"/>
<path d="M51.6129 69.3548C52.5037 69.3548 53.2258 68.6327 53.2258 67.7419C53.2258 66.8511 52.5037 66.129 51.6129 66.129C50.7221 66.129 50 66.8511 50 67.7419C50 68.6327 50.7221 69.3548 51.6129 69.3548Z" fill="#6D4B4F"/>
<path d="M61.2903 69.3548C62.1811 69.3548 62.9032 68.6327 62.9032 67.7419C62.9032 66.8511 62.1811 66.129 61.2903 66.129C60.3996 66.129 59.6774 66.8511 59.6774 67.7419C59.6774 68.6327 60.3996 69.3548 61.2903 69.3548Z" fill="#6D4B4F"/>
<path d="M61.2903 56.4516C62.1811 56.4516 62.9032 55.7295 62.9032 54.8387C62.9032 53.948 62.1811 53.2258 61.2903 53.2258C60.3996 53.2258 59.6774 53.948 59.6774 54.8387C59.6774 55.7295 60.3996 56.4516 61.2903 56.4516Z" fill="#6D4B4F"/>
<path d="M70.9678 69.3548C71.8585 69.3548 72.5807 68.6327 72.5807 67.7419C72.5807 66.8511 71.8585 66.129 70.9678 66.129C70.077 66.129 69.3549 66.8511 69.3549 67.7419C69.3549 68.6327 70.077 69.3548 70.9678 69.3548Z" fill="#6D4B4F"/>
<path d="M61.2903 46.7742C58.8467 46.7742 56.6435 48.1435 55.537 50.3468L58.4209 51.7919C58.9758 50.6871 60.0758 50 61.2903 50C62.5048 50 63.6048 50.6871 64.1596 51.7935L67.0435 50.3484C65.9371 48.1435 63.7338 46.7742 61.2903 46.7742Z" fill="#6D4B4F"/>
</svg>
