<svg width="100" height="100" viewBox="0 0 100 100" fill="none" xmlns="http://www.w3.org/2000/svg">
<path d="M69.3548 87.0972H20.9678C18.3 87.0972 16.129 84.9262 16.129 82.2584V40.323C16.129 37.6552 18.3 35.4843 20.9678 35.4843H69.3548C72.0226 35.4843 74.1936 37.6552 74.1936 40.323V82.2584C74.1936 84.9262 72.0226 87.0972 69.3548 87.0972Z" fill="#A857A2"/>
<path d="M52.6387 43.5482C49.8839 43.5482 47.2726 44.4805 45.1613 46.195C43.0516 44.4805 40.4403 43.5482 37.6839 43.5482C31.1355 43.5482 25.8065 48.8772 25.8065 55.4256C25.8065 58.5982 27.042 61.5805 29.2855 63.824L45.1613 79.6998L61.0371 63.824C63.2807 61.5821 64.5162 58.5982 64.5162 55.4256C64.5162 48.8772 59.1871 43.5482 52.6387 43.5482ZM37.6839 46.774C39.9952 46.774 42.1678 47.674 43.8 49.3063L45.1613 50.6724L46.521 49.3079C48.1532 47.674 50.3274 46.774 52.6387 46.774C57.2081 46.774 60.9226 50.3466 61.2307 54.8385H48.9081L46.6097 60.5821L41.9355 51.2321L38.5097 58.0837L36.3468 54.8385H29.092C29.4 50.3466 33.1145 46.774 37.6839 46.774ZM45.1613 75.1385L31.5661 61.5434C30.5936 60.5708 29.9097 59.3611 29.4903 58.0643H34.621L38.9097 64.4966L41.9355 58.445L46.9387 68.4482L51.092 58.0643H60.8323C60.4129 59.3611 59.7291 60.5708 58.7565 61.5434L45.1613 75.1385Z" fill="#6D4B4F"/>
<path d="M100 24.1935C100 18.4645 95.7065 13.729 90.171 13.0081C89.4613 9.28226 86.1887 6.45161 82.2581 6.45161H75.8064V0H66.129V6.45161H62.9032V0H53.2258V6.45161H50V0H40.3226V6.45161H37.0968V0H27.4194V6.45161H24.1935V0H14.5161V6.45161H8.06452C3.61774 6.45161 0 10.0694 0 14.5161V100H90.3226V94.1452L100 82.8565V24.1935ZM96.7742 24.1935V29.0323H80.6452V24.1935C80.6452 19.7468 84.2629 16.129 88.7097 16.129C93.1565 16.129 96.7742 19.7468 96.7742 24.1935ZM82.5387 83.871H94.879L88.7097 91.071L82.5387 83.871ZM80.6452 80.6452V38.7097H87.0968V80.6452H80.6452ZM90.3226 80.6452V38.7097H96.7742V80.6452H90.3226ZM80.6452 35.4839V32.2581H96.7742V35.4839H80.6452ZM69.3548 3.22581H72.5806V12.9032H69.3548V3.22581ZM56.4516 3.22581H59.6774V12.9032H56.4516V3.22581ZM43.5484 3.22581H46.7742V12.9032H43.5484V3.22581ZM30.6452 3.22581H33.871V12.9032H30.6452V3.22581ZM17.7419 3.22581H20.9677V12.9032H17.7419V3.22581ZM8.06452 9.67742H14.5161V16.129H24.1935V9.67742H27.4194V16.129H37.0968V9.67742H40.3226V16.129H50V9.67742H53.2258V16.129H62.9032V9.67742H66.129V16.129H75.8064V9.67742H82.2581C84.4194 9.67742 86.2323 11.1113 86.8516 13.0694C82.0339 13.8726 78.2468 17.729 77.5484 22.5806H3.22581V14.5161C3.22581 11.8484 5.39677 9.67742 8.06452 9.67742ZM3.22581 96.7742V25.8065H77.4194V82.8548L87.0968 94.1435V96.7742H3.22581Z" fill="#6D4B4F"/>
</svg>
