<svg xmlns="http://www.w3.org/2000/svg" width="15.479" height="11.923" viewBox="0 0 15.479 11.923">
  <g id="mail_2_" data-name="mail (2)" transform="translate(57 -50)">
    <g id="Сгруппировать_60" data-name="Сгруппировать 60" transform="translate(-57 50)">
      <g id="Сгруппировать_59" data-name="Сгруппировать 59" transform="translate(0 0)">
        <path id="Контур_25" data-name="Контур 25" d="M7.028,64.942c2.124,1.8,5.852,4.964,6.948,5.951a.647.647,0,0,0,.936,0c1.1-.988,4.824-4.153,6.949-5.953a.322.322,0,0,0,.045-.445,1.281,1.281,0,0,0-1.012-.5H7.995a1.281,1.281,0,0,0-1.012.5A.322.322,0,0,0,7.028,64.942Z" transform="translate(-6.705 -64)" fill="#5c6b7d"/>
        <path id="Контур_26" data-name="Контур 26" d="M15.292,126.442a.321.321,0,0,0-.344.047c-2.356,2-5.363,4.557-6.309,5.41a1.306,1.306,0,0,1-1.8,0c-1.008-.909-4.385-3.779-6.308-5.409a.322.322,0,0,0-.531.246v8.11a1.291,1.291,0,0,0,1.29,1.29h12.9a1.291,1.291,0,0,0,1.29-1.29v-8.11A.322.322,0,0,0,15.292,126.442Z" transform="translate(0 -124.211)" fill="#5c6b7d"/>
      </g>
    </g>
  </g>
</svg>
