<svg id="key" xmlns="http://www.w3.org/2000/svg" width="15.044" height="15.044" viewBox="0 0 15.044 15.044">
  <g id="Сгруппировать_66" data-name="Сгруппировать 66" transform="translate(0 0)">
    <path id="Контур_30" data-name="Контур 30" d="M1.419,1.417A4.846,4.846,0,0,1,9.456,6.338l5.46,5.46a.44.44,0,0,1,.129.312V14.6a.441.441,0,0,1-.441.441H12.111a.44.44,0,0,1-.312-.129l-.623-.624a.441.441,0,0,1-.126-.362l.077-.67-.928-.087a.44.44,0,0,1-.4-.4l-.087-.928-.67.078a.434.434,0,0,1-.344-.108.442.442,0,0,1-.148-.329v-.821H7.748a.44.44,0,0,1-.312-.129L6.306,9.421A4.773,4.773,0,0,1,1.419,8.274,4.854,4.854,0,0,1,1.419,1.417ZM2.666,4.534a1.322,1.322,0,1,0,0-1.87A1.323,1.323,0,0,0,2.666,4.534Z" transform="translate(-0.001 0)" fill="#5c6b7d"/>
  </g>
</svg>
