<svg xmlns="http://www.w3.org/2000/svg" width="12.972" height="17.055" viewBox="0 0 12.972 17.055">
  <g id="male" transform="translate(-41.895)">
    <path id="Контур_8" data-name="Контур 8" d="M107.969,8.341c1.9,0,3.434-1.867,3.434-4.17S110.9,0,107.969,0s-3.434,1.867-3.434,4.171S106.072,8.341,107.969,8.341Z" transform="translate(-59.588)" fill="#5c6b7d"/>
    <path id="Контур_9" data-name="Контур 9" d="M41.9,300.444c0-.14,0-.04,0,0Z" transform="translate(0 -285.735)" fill="#5c6b7d"/>
    <path id="Контур_10" data-name="Контур 10" d="M308.085,301.614c0-.038,0-.267,0,0Z" transform="translate(-253.219 -286.795)" fill="#5c6b7d"/>
    <path id="Контур_11" data-name="Контур 11" d="M54.871,183.619c-.064-4.012-.588-5.156-4.6-5.879a2.817,2.817,0,0,1-3.76,0c-3.966.716-4.522,1.842-4.6,5.749-.006.319-.009.336-.01.3,0,.069,0,.2,0,.422,0,0,.955,1.925,6.485,1.925s6.485-1.925,6.485-1.925c0-.144,0-.244,0-.312A2.578,2.578,0,0,1,54.871,183.619Z" transform="translate(-0.012 -169.079)" fill="#5c6b7d"/>
  </g>
</svg>
