<svg xmlns="http://www.w3.org/2000/svg" width="13.524" height="16.529" viewBox="0 0 13.524 16.529">
  <g id="privacy" transform="translate(-36.548)">
    <path id="Контур_21" data-name="Контур 21" d="M49.743,7.842a1.087,1.087,0,0,0-.8-.329h-.375V5.259a5.061,5.061,0,0,0-1.55-3.71,5.215,5.215,0,0,0-7.419,0,5.061,5.061,0,0,0-1.55,3.71V7.513h-.376a1.122,1.122,0,0,0-1.127,1.127V15.4a1.122,1.122,0,0,0,1.127,1.127h11.27A1.122,1.122,0,0,0,50.072,15.4V8.64A1.086,1.086,0,0,0,49.743,7.842Zm-3.428-.329H40.3V5.259a2.9,2.9,0,0,1,.881-2.125,3,3,0,0,1,4.25,0,2.9,2.9,0,0,1,.88,2.125Z" fill="#5c6b7d"/>
  </g>
</svg>
