<svg xmlns="http://www.w3.org/2000/svg" width="14.193" height="14.223" viewBox="0 0 14.193 14.223">
  <g id="phone_3_" data-name="phone (3)" transform="translate(-0.539)">
    <g id="Сгруппировать_65" data-name="Сгруппировать 65" transform="translate(0.539 0)">
      <path id="Контур_29" data-name="Контур 29" d="M14.36,10.438,12.375,8.453a1.32,1.32,0,0,0-2.2.5,1.351,1.351,0,0,1-1.56.851A6.121,6.121,0,0,1,4.932,6.114a1.285,1.285,0,0,1,.851-1.56,1.32,1.32,0,0,0,.5-2.2L4.294.372a1.416,1.416,0,0,0-1.914,0L1.033,1.719c-1.347,1.418.142,5.175,3.473,8.506S11.6,15.117,13.013,13.7l1.347-1.347A1.416,1.416,0,0,0,14.36,10.438Z" transform="translate(-0.539 0)" fill="#5c6b7d"/>
    </g>
  </g>
</svg>
