<svg xmlns="http://www.w3.org/2000/svg" width="14.812" height="14.812" viewBox="0 0 14.812 14.812">
  <path id="info" d="M7.406,0a7.406,7.406,0,1,0,7.406,7.406A7.414,7.414,0,0,0,7.406,0Zm.482,11.8c-.352.059-1.052.205-1.407.235a.866.866,0,0,1-.758-.395.925.925,0,0,1-.112-.848l1.4-3.849H5.554a1.74,1.74,0,0,1,1.37-1.618,5.359,5.359,0,0,1,1.407-.233,1.116,1.116,0,0,1,.758.395.925.925,0,0,1,.112.848L7.8,10.183H9.257A1.639,1.639,0,0,1,7.887,11.8Zm.444-7.171A.926.926,0,1,1,9.257,3.7a.926.926,0,0,1-.926.926Z" fill="#fff"/>
</svg>
