<svg width="96" height="96" viewBox="0 0 96 96" fill="none" xmlns="http://www.w3.org/2000/svg">
<circle cx="48" cy="48" r="48" fill="white"/>
<path d="M60.764 38.3244C61.3747 38.9479 61.3747 39.9391 60.764 40.5626L43.0056 58.6916C42.8623 58.8397 42.6916 58.9573 42.5034 59.0375C42.3152 59.1178 42.1133 59.1591 41.9094 59.1591C41.7055 59.1591 41.5036 59.1178 41.3154 59.0375C41.1272 58.9573 40.9565 58.8397 40.8132 58.6916L34.236 51.9771C34.0909 51.8308 33.9758 51.6565 33.8972 51.4645C33.8185 51.2724 33.7781 51.0662 33.7781 50.858C33.7781 50.6499 33.8185 50.4437 33.8972 50.2516C33.9758 50.0595 34.0909 49.8853 34.236 49.739C34.3793 49.5909 34.55 49.4733 34.7382 49.393C34.9264 49.3128 35.1283 49.2715 35.3322 49.2715C35.5361 49.2715 35.738 49.3128 35.9262 49.393C36.1144 49.4733 36.2851 49.5909 36.4284 49.739L41.9094 55.3343L58.5716 38.3244C58.7149 38.1763 58.8856 38.0587 59.0738 37.9785C59.2619 37.8982 59.4639 37.8569 59.6678 37.8569C59.8717 37.8569 60.0736 37.8982 60.2618 37.9785C60.45 38.0587 60.6207 38.1763 60.764 38.3244ZM57.4597 34.9352L41.9094 50.8101L37.5403 46.3498C36.3188 45.1028 34.33 45.1028 33.1085 46.3498L30.9161 48.5879C29.6946 49.8349 29.6946 51.8652 30.9161 53.1122L39.6857 62.0648C40.9072 63.3117 42.896 63.3117 44.1174 62.0648L64.0839 41.6976C65.3054 40.4507 65.3054 38.4203 64.0839 37.1734L61.8915 34.9352C60.6544 33.6883 58.6812 33.6883 57.4597 34.9352Z" fill="#5EB304"/>
</svg>
