<svg width="15" height="20" viewBox="0 0 15 20" fill="none" xmlns="http://www.w3.org/2000/svg">
<path fill-rule="evenodd" clip-rule="evenodd" d="M7.41935 20C7.41935 20 14.8387 12.8925 14.8387 7.5C14.8387 5.51088 14.057 3.60322 12.6656 2.1967C11.2742 0.790176 9.38709 0 7.41935 0C5.45162 0 3.56448 0.790176 2.17308 2.1967C0.78168 3.60322 2.93215e-08 5.51088 0 7.5C0 12.8925 7.41935 20 7.41935 20ZM7.41935 11.25C8.40322 11.25 9.34679 10.8549 10.0425 10.1517C10.7382 9.44839 11.129 8.49456 11.129 7.5C11.129 6.50544 10.7382 5.55161 10.0425 4.84835C9.34679 4.14509 8.40322 3.75 7.41935 3.75C6.43549 3.75 5.49192 4.14509 4.79622 4.84835C4.10052 5.55161 3.70968 6.50544 3.70968 7.5C3.70968 8.49456 4.10052 9.44839 4.79622 10.1517C5.49192 10.8549 6.43549 11.25 7.41935 11.25Z" fill="#A857A2"/>
</svg>
