<svg width="57" height="57" viewBox="0 0 57 57" fill="none" xmlns="http://www.w3.org/2000/svg">
<circle cx="28.5" cy="28.5" r="22.5" fill="white"/>
<path d="M28.5 0C12.7599 0 0 12.7599 0 28.5C0 44.2401 12.7599 57 28.5 57C44.2401 57 57 44.2401 57 28.5C57 12.7599 44.2401 0 28.5 0ZM18.2578 11.3207C18.845 11.286 19.3758 11.637 19.7781 12.26L23.6746 19.6494C24.0849 20.525 23.8517 21.4625 23.2398 22.0882L21.455 23.8729C21.3449 24.0238 21.2724 24.1938 21.2706 24.3808C21.9551 27.0301 24.0312 29.4739 25.863 31.1544C27.6947 32.835 29.6634 35.1103 32.2191 35.6493C32.5349 35.7374 32.9219 35.769 33.148 35.5589L35.2214 33.4472C35.9372 32.9047 36.9726 32.6418 37.7368 33.0854H37.7715L44.8025 37.2358C45.8346 37.8827 45.9415 39.1332 45.2026 39.8938L40.3599 44.6983C39.6448 45.4317 38.6947 45.6782 37.7716 45.6793C33.6891 45.557 29.8316 43.5533 26.6632 41.4941C21.4624 37.7106 16.6918 33.0179 13.6969 27.3485C12.5482 24.9711 11.1989 21.9377 11.3277 19.2842C11.3392 18.2859 11.6092 17.308 12.3122 16.6645L17.155 11.8218C17.5322 11.5007 17.9055 11.3415 18.2578 11.3207Z" fill="url(#paint0_linear)"/>
<defs>
<linearGradient id="paint0_linear" x1="0" y1="0" x2="57" y2="57" gradientUnits="userSpaceOnUse">
<stop stop-color="#ED81E5"/>
<stop offset="1" stop-color="#A857A2"/>
</linearGradient>
</defs>
</svg>
