<svg width="35" height="29" viewBox="0 0 35 29" fill="none" xmlns="http://www.w3.org/2000/svg">
<path d="M30.764 4.32442C31.3747 4.94791 31.3747 5.93909 30.764 6.56257L13.0056 24.6916C12.8623 24.8397 12.6916 24.9573 12.5034 25.0375C12.3152 25.1178 12.1133 25.1591 11.9094 25.1591C11.7055 25.1591 11.5036 25.1178 11.3154 25.0375C11.1272 24.9573 10.9565 24.8397 10.8132 24.6916L4.23602 17.9771C4.09094 17.8308 3.97576 17.6565 3.89715 17.4645C3.81854 17.2724 3.77806 17.0662 3.77806 16.858C3.77806 16.6499 3.81854 16.4437 3.89715 16.2516C3.97576 16.0595 4.09094 15.8853 4.23602 15.739C4.37934 15.5909 4.55004 15.4733 4.73821 15.393C4.92638 15.3128 5.12828 15.2715 5.33221 15.2715C5.53615 15.2715 5.73805 15.3128 5.92622 15.393C6.11439 15.4733 6.28509 15.5909 6.42841 15.739L11.9094 21.3343L28.5716 4.32442C28.7149 4.17632 28.8856 4.05873 29.0738 3.97848C29.2619 3.89823 29.4639 3.85691 29.6678 3.85691C29.8717 3.85691 30.0736 3.89823 30.2618 3.97848C30.45 4.05873 30.6207 4.17632 30.764 4.32442ZM27.4597 0.935226L11.9094 16.8101L7.54027 12.3498C6.31879 11.1028 4.32998 11.1028 3.1085 12.3498L0.916107 14.5879C-0.305369 15.8349 -0.305369 17.8652 0.916107 19.1122L9.68568 28.0648C10.9072 29.3117 12.896 29.3117 14.1174 28.0648L34.0839 7.69763C35.3054 6.45066 35.3054 4.42034 34.0839 3.17337L31.8915 0.935226C30.6544 -0.311742 28.6812 -0.311742 27.4597 0.935226Z" fill="#5EB304"/>
</svg>
