<svg width="47" height="47" viewBox="0 0 47 47" fill="none" xmlns="http://www.w3.org/2000/svg">
<path fill-rule="evenodd" clip-rule="evenodd" d="M25.9586 4.77515C25.2359 2.32221 21.7636 2.32221 21.0409 4.77515L20.7648 5.71226C20.5326 6.49939 20.1272 7.22461 19.5784 7.83478C19.0295 8.44495 18.3512 8.92462 17.593 9.23867C16.8348 9.55271 16.0159 9.69317 15.1964 9.64975C14.3769 9.60633 13.5774 9.38014 12.8566 8.98774L11.9988 8.51772C9.75447 7.29859 7.29859 9.75153 8.52066 11.9988L8.98774 12.8566C9.38014 13.5774 9.60633 14.3769 9.64975 15.1964C9.69317 16.0159 9.55271 16.8348 9.23867 17.593C8.92462 18.3512 8.44495 19.0295 7.83478 19.5784C7.22461 20.1272 6.49939 20.5326 5.71226 20.7648L4.77515 21.0409C2.32221 21.7636 2.32221 25.2359 4.77515 25.9586L5.71226 26.2347C6.4998 26.4668 7.22541 26.8723 7.83589 27.4213C8.44637 27.9703 8.92624 28.649 9.24032 29.4076C9.55441 30.1662 9.69474 30.9854 9.65104 31.8053C9.60733 32.6252 9.38069 33.4249 8.98774 34.1458L8.51772 35.0006C7.29859 37.245 9.75153 39.7009 11.9988 38.4788L12.8566 38.0117C13.5776 37.6194 14.3772 37.3933 15.1969 37.3501C16.0166 37.3068 16.8356 37.4475 17.5938 37.7619C18.3521 38.0762 19.0304 38.5562 19.5791 39.1667C20.1278 39.7772 20.5329 40.5028 20.7648 41.2902L21.0409 42.2243C21.7636 44.6773 25.2359 44.6773 25.9586 42.2243L26.2347 41.2872C26.4668 40.4997 26.8723 39.7741 27.4213 39.1636C27.9703 38.5531 28.649 38.0732 29.4076 37.7592C30.1662 37.4451 30.9854 37.3047 31.8053 37.3484C32.6252 37.3922 33.4249 37.6188 34.1458 38.0117L35.0006 38.4818C37.245 39.7009 39.7009 37.2479 38.4788 35.0006L38.0117 34.1458C37.6188 33.4247 37.3923 32.6248 37.3488 31.8048C37.3053 30.9847 37.4459 30.1653 37.7602 29.4067C38.0746 28.6481 38.5548 27.9694 39.1656 27.4206C39.7764 26.8717 40.5024 26.4665 41.2902 26.2347L42.2243 25.9586C44.6773 25.2359 44.6773 21.7636 42.2243 21.0409L41.2872 20.7648C40.5001 20.5326 39.7749 20.1272 39.1647 19.5784C38.5545 19.0295 38.0749 18.3512 37.7608 17.593C37.4468 16.8348 37.3063 16.0159 37.3497 15.1964C37.3931 14.3769 37.6193 13.5774 38.0117 12.8566L38.4818 11.9988C39.7009 9.75447 37.2479 7.29859 35.0006 8.52066L34.1458 8.98774C33.4248 9.38125 32.6248 9.60833 31.8046 9.65232C30.9844 9.69631 30.1647 9.5561 29.4057 9.24198C28.6467 8.92786 27.9677 8.44779 27.4185 7.837C26.8693 7.22622 26.4638 6.50021 26.2318 5.71226L25.9556 4.77515H25.9586ZM18.2237 3.9438C19.7719 -1.3146 27.2276 -1.3146 28.7758 3.9438L29.0519 4.88091C29.16 5.24797 29.3489 5.58619 29.6047 5.87077C29.8605 6.15535 30.1768 6.37908 30.5303 6.52556C30.8838 6.67203 31.2656 6.73754 31.6477 6.71729C32.0299 6.69703 32.4026 6.59152 32.7387 6.40849L33.5965 5.93846C38.4142 3.31808 43.6843 8.58529 41.0581 13.403L40.591 14.2608C40.408 14.5969 40.3025 14.9696 40.2822 15.3517C40.2619 15.7339 40.3274 16.1157 40.4739 16.4692C40.6204 16.8227 40.8441 17.1389 41.1287 17.3948C41.4133 17.6506 41.7515 17.8395 42.1186 17.9476L43.0557 18.2237C48.3141 19.7719 48.3141 27.2276 43.0557 28.7758L42.1186 29.0519C41.7515 29.16 41.4133 29.3489 41.1287 29.6047C40.8441 29.8605 40.6204 30.1768 40.4739 30.5303C40.3274 30.8838 40.2619 31.2656 40.2822 31.6477C40.3025 32.0299 40.408 32.4026 40.591 32.7387L41.061 33.5965C43.6843 38.4142 38.4113 43.6843 33.5965 41.0581L32.7387 40.591C32.4026 40.408 32.0299 40.3025 31.6477 40.2822C31.2656 40.2619 30.8838 40.3274 30.5303 40.4739C30.1768 40.6204 29.8605 40.8441 29.6047 41.1287C29.3489 41.4133 29.16 41.7515 29.0519 42.1186L28.7758 43.0557C27.2276 48.3141 19.7719 48.3141 18.2237 43.0557L17.9476 42.1186C17.8395 41.7515 17.6506 41.4133 17.3948 41.1287C17.1389 40.8441 16.8227 40.6204 16.4692 40.4739C16.1157 40.3274 15.7339 40.2619 15.3517 40.2822C14.9696 40.3025 14.5969 40.408 14.2608 40.591L13.403 41.061C8.58529 43.6843 3.31808 38.4113 5.9414 33.5965L6.40849 32.7387C6.59152 32.4026 6.69703 32.0299 6.71729 31.6477C6.73754 31.2656 6.67203 30.8838 6.52556 30.5303C6.37908 30.1768 6.15535 29.8605 5.87077 29.6047C5.58619 29.3489 5.24797 29.16 4.88091 29.0519L3.9438 28.7758C-1.3146 27.2276 -1.3146 19.7719 3.9438 18.2237L4.88091 17.9476C5.24797 17.8395 5.58619 17.6506 5.87077 17.3948C6.15535 17.1389 6.37908 16.8227 6.52556 16.4692C6.67203 16.1157 6.73754 15.7339 6.71729 15.3517C6.69703 14.9696 6.59152 14.5969 6.40849 14.2608L5.93846 13.403C3.31808 8.58529 8.58822 3.31808 13.403 5.9414L14.2608 6.40849C14.5969 6.59152 14.9696 6.69703 15.3517 6.71729C15.7339 6.73754 16.1157 6.67203 16.4692 6.52556C16.8227 6.37908 17.1389 6.15535 17.3948 5.87077C17.6506 5.58619 17.8395 5.24797 17.9476 4.88091L18.2237 3.9438Z" fill="#E12025"/>
<path fill-rule="evenodd" clip-rule="evenodd" d="M23.4997 16.9015C21.7498 16.9015 20.0716 17.5967 18.8343 18.834C17.5969 20.0714 16.9018 21.7496 16.9018 23.4995C16.9018 25.2494 17.5969 26.9276 18.8343 28.1649C20.0716 29.4023 21.7498 30.0974 23.4997 30.0974C25.2496 30.0974 26.9278 29.4023 28.1652 28.1649C29.4025 26.9276 30.0977 25.2494 30.0977 23.4995C30.0977 21.7496 29.4025 20.0714 28.1652 18.834C26.9278 17.5967 25.2496 16.9015 23.4997 16.9015ZM13.9641 23.4995C13.9641 22.2472 14.2108 21.0073 14.69 19.8504C15.1692 18.6934 15.8716 17.6422 16.757 16.7568C17.6425 15.8713 18.6937 15.1689 19.8506 14.6897C21.0075 14.2105 22.2475 13.9639 23.4997 13.9639C24.752 13.9639 25.9919 14.2105 27.1488 14.6897C28.3058 15.1689 29.357 15.8713 30.2424 16.7568C31.1279 17.6422 31.8303 18.6934 32.3095 19.8504C32.7887 21.0073 33.0353 22.2472 33.0353 23.4995C33.0353 26.0285 32.0307 28.4539 30.2424 30.2422C28.4542 32.0305 26.0287 33.0351 23.4997 33.0351C20.9707 33.0351 18.5453 32.0305 16.757 30.2422C14.9688 28.4539 13.9641 26.0285 13.9641 23.4995Z" fill="#E12025"/>
</svg>
