<svg width="21" height="21" viewBox="0 0 21 21" fill="none" xmlns="http://www.w3.org/2000/svg">
<path d="M12.043 10.4762L20.7475 1.79498C20.9195 1.59465 21.0094 1.33696 20.9992 1.07341C20.989 0.809859 20.8795 0.559853 20.6925 0.373354C20.5055 0.186855 20.2548 0.0775983 19.9905 0.0674184C19.7263 0.0572385 19.4679 0.146885 19.267 0.318443L10.5625 8.99966L1.85802 0.30797C1.6603 0.11078 1.39214 0 1.11252 0C0.832904 0 0.564739 0.11078 0.367021 0.30797C0.169302 0.505161 0.0582244 0.772608 0.0582244 1.05148C0.0582244 1.33035 0.169302 1.59779 0.367021 1.79498L9.08202 10.4762L0.367021 19.1574C0.257105 19.2513 0.167833 19.3668 0.104809 19.4967C0.0417846 19.6267 0.00636792 19.7682 0.000782451 19.9124C-0.00480302 20.0566 0.0195627 20.2004 0.072351 20.3348C0.125139 20.4692 0.20521 20.5912 0.307538 20.6933C0.409865 20.7953 0.53224 20.8752 0.666981 20.9278C0.801723 20.9805 0.945922 21.0048 1.09053 20.9992C1.23513 20.9936 1.37702 20.9583 1.50729 20.8955C1.63756 20.8326 1.75339 20.7436 1.84752 20.634L10.5625 11.9527L19.267 20.634C19.4679 20.8055 19.7263 20.8952 19.9905 20.885C20.2548 20.8748 20.5055 20.7656 20.6925 20.5791C20.8795 20.3926 20.989 20.1425 20.9992 19.879C21.0094 19.6154 20.9195 19.3578 20.7475 19.1574L12.043 10.4762Z" fill="black"/>
</svg>
