<svg width="85" height="87" viewBox="0 0 85 87" fill="none" xmlns="http://www.w3.org/2000/svg">
<path d="M56.6667 58.0832C56.663 57.2073 56.3889 56.354 55.8817 55.6399C55.3745 54.9258 54.6591 54.3858 53.8333 54.0938V50.7888C58.1545 48.2939 61.5318 44.4429 63.4413 39.833C65.3507 35.2231 65.6857 30.112 64.3943 25.2923C63.1029 20.4726 60.2572 16.2137 56.2986 13.1762C52.34 10.1386 47.4897 8.49219 42.5 8.49219C37.5103 8.49219 32.66 10.1386 28.7014 13.1762C24.7428 16.2137 21.8971 20.4726 20.6057 25.2923C19.3142 30.112 19.6492 35.2231 21.5587 39.833C23.4682 44.4429 26.8454 48.2939 31.1667 50.7888V54.0938C30.4147 54.3562 29.7522 54.8257 29.2555 55.4483C28.7588 56.0708 28.4481 56.821 28.3593 57.6125C28.2704 58.4039 28.407 59.2043 28.7533 59.9215C29.0997 60.6387 29.6416 61.2434 30.3167 61.6659C29.9998 62.211 29.8099 62.8205 29.7613 63.449C29.7127 64.0776 29.8065 64.7091 30.0358 65.2964C30.2651 65.8836 30.624 66.4116 31.0857 66.841C31.5473 67.2703 32.1 67.5899 32.7023 67.776C32.9833 69.4209 33.8361 70.9138 35.1102 71.9914C36.3843 73.0691 37.9979 73.6623 39.6667 73.6665H45.3333C47.0018 73.662 48.6151 73.0686 49.8889 71.991C51.1628 70.9134 52.0153 69.4207 52.2962 67.776C52.8987 67.5901 53.4515 67.2706 53.9133 66.8413C54.3752 66.412 54.7342 65.8841 54.9636 65.2968C55.1931 64.7095 55.287 64.078 55.2385 63.4493C55.19 62.8206 55.0002 62.211 54.6833 61.6659C55.2895 61.2847 55.7892 60.7562 56.136 60.1298C56.4828 59.5033 56.6654 58.7992 56.6667 58.0832ZM22.6667 31.1665C22.6655 27.6526 23.5978 24.2015 25.3684 21.1663C27.1389 18.1311 29.684 15.6208 32.7433 13.8922C35.8026 12.1636 39.2663 11.2788 42.7798 11.3284C46.2933 11.378 49.7306 12.3601 52.7399 14.1743C55.7492 15.9885 58.2225 18.5697 59.9067 21.6536C61.5909 24.7376 62.4256 28.2136 62.3252 31.726C62.2249 35.2385 61.1932 38.6612 59.3357 41.644C57.4782 44.6268 54.8616 47.0625 51.7537 48.702C51.5261 48.8225 51.3356 49.0028 51.2028 49.2235C51.0701 49.4441 50.9999 49.6968 51 49.9543V53.8332H34V49.9543C34.0001 49.6968 33.9299 49.4441 33.7971 49.2235C33.6643 49.0028 33.4739 48.8225 33.2463 48.702C30.052 47.0211 27.378 44.4989 25.5133 41.4083C23.6487 38.3176 22.6643 34.7761 22.6667 31.1665ZM32.5833 56.6665H52.4167C52.7924 56.6665 53.1527 56.8158 53.4184 57.0814C53.6841 57.3471 53.8333 57.7075 53.8333 58.0832C53.8333 58.4589 53.6841 58.8192 53.4184 59.0849C53.1527 59.3506 52.7924 59.4998 52.4167 59.4998H32.5833C32.2076 59.4998 31.8473 59.3506 31.5816 59.0849C31.3159 58.8192 31.1667 58.4589 31.1667 58.0832C31.1667 57.7075 31.3159 57.3471 31.5816 57.0814C31.8473 56.8158 32.2076 56.6665 32.5833 56.6665ZM45.3333 70.8332H39.6667C38.7908 70.8295 37.9374 70.5554 37.2233 70.0482C36.5092 69.541 35.9693 68.8256 35.6773 67.9998H49.3227C49.0307 68.8256 48.4907 69.541 47.7766 70.0482C47.0626 70.5554 46.2092 70.8295 45.3333 70.8332ZM51 65.1665H34C33.6243 65.1665 33.2639 65.0173 32.9983 64.7516C32.7326 64.4859 32.5833 64.1256 32.5833 63.7498C32.5833 63.3741 32.7326 63.0138 32.9983 62.7481C33.2639 62.4824 33.6243 62.3332 34 62.3332H51C51.3757 62.3332 51.736 62.4824 52.0017 62.7481C52.2674 63.0138 52.4167 63.3741 52.4167 63.7498C52.4167 64.1256 52.2674 64.4859 52.0017 64.7516C51.736 65.0173 51.3757 65.1665 51 65.1665Z" fill="url(#paint0_linear)"/>
<path d="M43.9167 35.417H41.0834C40.7077 35.417 40.3473 35.2677 40.0816 35.0021C39.816 34.7364 39.6667 34.376 39.6667 34.0003H36.8334C36.8334 35.1275 37.2811 36.2085 38.0782 37.0055C38.8752 37.8026 39.9562 38.2503 41.0834 38.2503V39.667H43.9167V38.2503C45.0439 38.2503 46.1249 37.8026 46.9219 37.0055C47.7189 36.2085 48.1667 35.1275 48.1667 34.0003C48.1667 32.8732 47.7189 31.7922 46.9219 30.9951C46.1249 30.1981 45.0439 29.7503 43.9167 29.7503H41.0834C40.7077 29.7503 40.3473 29.6011 40.0816 29.3354C39.816 29.0697 39.6667 28.7094 39.6667 28.3337C39.6667 27.9579 39.816 27.5976 40.0816 27.3319C40.3473 27.0662 40.7077 26.917 41.0834 26.917H43.9167C44.2924 26.917 44.6528 27.0662 44.9184 27.3319C45.1841 27.5976 45.3334 27.9579 45.3334 28.3337H48.1667C48.1667 27.2065 47.7189 26.1255 46.9219 25.3285C46.1249 24.5314 45.0439 24.0837 43.9167 24.0837V22.667H41.0834V24.0837C39.9562 24.0837 38.8752 24.5314 38.0782 25.3285C37.2811 26.1255 36.8334 27.2065 36.8334 28.3337C36.8334 29.4608 37.2811 30.5418 38.0782 31.3389C38.8752 32.1359 39.9562 32.5837 41.0834 32.5837H43.9167C44.2924 32.5837 44.6528 32.7329 44.9184 32.9986C45.1841 33.2643 45.3334 33.6246 45.3334 34.0003C45.3334 34.376 45.1841 34.7364 44.9184 35.0021C44.6528 35.2677 44.2924 35.417 43.9167 35.417Z" fill="url(#paint1_linear)"/>
<path d="M51 29.75H53.8333V32.5833H51V29.75Z" fill="url(#paint2_linear)"/>
<path d="M31.1666 29.75H34V32.5833H31.1666V29.75Z" fill="url(#paint3_linear)"/>
<path d="M41.0833 0H43.9166V5.66667H41.0833V0Z" fill="url(#paint4_linear)"/>
<path d="M19.4582 10.1367L21.4617 8.13325L25.4686 12.1402L23.4651 14.1437L19.4582 10.1367Z" fill="url(#paint5_linear)"/>
<path d="M11.3334 29.75H17V32.5833H11.3334V29.75Z" fill="url(#paint6_linear)"/>
<path d="M68 29.75H73.6667V32.5833H68V29.75Z" fill="url(#paint7_linear)"/>
<path d="M59.5212 12.1396L63.5282 8.13271L65.5316 10.1362L61.5247 14.1431L59.5212 12.1396Z" fill="url(#paint8_linear)"/>
<path d="M23.1979 71.1277L18.4167 69.762V67.9628C19.2933 67.3085 20.0056 66.4592 20.4974 65.4821C20.9892 64.505 21.2468 63.4269 21.25 62.333V60.9163C21.6257 60.9163 21.9861 60.7671 22.2517 60.5014C22.5174 60.2357 22.6667 59.8754 22.6667 59.4997V58.083C22.6667 55.8287 21.7711 53.6667 20.1771 52.0726C18.583 50.4785 16.421 49.583 14.1667 49.583C11.9123 49.583 9.75032 50.4785 8.15626 52.0726C6.5622 53.6667 5.66667 55.8287 5.66667 58.083V59.4997C5.66667 59.8754 5.81592 60.2357 6.0816 60.5014C6.34728 60.7671 6.70761 60.9163 7.08333 60.9163V62.333C7.08652 63.4269 7.34418 64.505 7.83593 65.4821C8.32769 66.4592 9.04005 67.3085 9.91667 67.9628V69.762L5.13683 71.1277C3.65824 71.5551 2.35821 72.4506 1.43196 73.6798C0.505714 74.909 0.00324117 76.4056 0 77.9447V83.583C0 83.9587 0.149255 84.3191 0.414932 84.5847C0.680609 84.8504 1.04094 84.9997 1.41667 84.9997H26.9167C27.2924 84.9997 27.6527 84.8504 27.9184 84.5847C28.1841 84.3191 28.3333 83.9587 28.3333 83.583V77.9447C28.33 76.4058 27.8276 74.9095 26.9017 73.6804C25.9757 72.4512 24.6761 71.5555 23.1979 71.1277ZM14.1667 52.4163C15.6627 52.4163 17.0981 53.0079 18.1596 54.062C19.2212 55.1162 19.8229 56.5473 19.8333 58.0433C19.6326 57.9948 19.4449 57.903 19.2834 57.7742C19.1219 57.6455 18.9904 57.483 18.8983 57.2982L18.2679 56.0345C18.1783 55.8545 18.0513 55.6957 17.8955 55.5686C17.7397 55.4414 17.5586 55.3489 17.3643 55.2972C17.17 55.2455 16.9669 55.2357 16.7685 55.2686C16.5701 55.3014 16.381 55.3761 16.2138 55.4877L14.1058 56.893C12.9429 57.6697 11.5757 58.0839 10.1773 58.083H8.5C8.5 56.5801 9.09702 55.1388 10.1597 54.0761C11.2224 53.0134 12.6638 52.4163 14.1667 52.4163ZM10.1773 60.9163C12.135 60.918 14.0491 60.3381 15.6768 59.2503L16.4532 58.7333C16.8993 59.5201 17.5881 60.1413 18.4167 60.5041V62.333C18.4167 63.4602 17.9689 64.5412 17.1719 65.3382C16.3748 66.1352 15.2938 66.583 14.1667 66.583C13.0395 66.583 11.9585 66.1352 11.1615 65.3382C10.3644 64.5412 9.91667 63.4602 9.91667 62.333V60.9163H10.1773ZM14.1667 69.4163C14.6424 69.4168 15.1171 69.3694 15.5833 69.2747V70.833C15.5857 71.0324 15.6305 71.2291 15.7147 71.4098C15.799 71.5906 15.9208 71.7513 16.0721 71.8813L14.1667 73.3122L12.2613 71.8813C12.4125 71.7513 12.5343 71.5906 12.6186 71.4098C12.7029 71.2291 12.7477 71.0324 12.75 70.833V69.2747C13.2163 69.3694 13.6909 69.4168 14.1667 69.4163ZM25.5 82.1663H22.6667V77.9163H19.8333V82.1663H8.5V77.9163H5.66667V82.1663H2.83333V77.9447C2.83545 77.0209 3.13703 76.1226 3.69282 75.3847C4.24862 74.6468 5.02868 74.109 5.916 73.8519L8.99583 72.9736L13.3167 76.2163C13.5619 76.4003 13.8601 76.4997 14.1667 76.4997C14.4732 76.4997 14.7714 76.4003 15.0167 76.2163L19.3361 72.9736L22.4173 73.8533C23.3047 74.1099 24.0848 74.6474 24.6407 75.3852C25.1965 76.1229 25.498 77.021 25.5 77.9447V82.1663Z" fill="url(#paint9_linear)"/>
<path d="M79.8646 71.1277L75.0834 69.762V67.9628C75.96 67.3085 76.6723 66.4592 77.1641 65.4821C77.6558 64.505 77.9135 63.4269 77.9167 62.333V60.9163C78.2924 60.9163 78.6527 60.7671 78.9184 60.5014C79.1841 60.2357 79.3334 59.8754 79.3334 59.4997V58.083C79.3334 55.8287 78.4378 53.6667 76.8438 52.0726C75.2497 50.4785 73.0877 49.583 70.8334 49.583C68.579 49.583 66.417 50.4785 64.8229 52.0726C63.2289 53.6667 62.3334 55.8287 62.3334 58.083V59.4997C62.3334 59.8754 62.4826 60.2357 62.7483 60.5014C63.014 60.7671 63.3743 60.9163 63.75 60.9163V62.333C63.7532 63.4269 64.0109 64.505 64.5026 65.4821C64.9944 66.4592 65.7067 67.3085 66.5834 67.9628V69.762L61.8035 71.1277C60.3249 71.5551 59.0249 72.4506 58.0987 73.6798C57.1724 74.909 56.6699 76.4056 56.6667 77.9447V83.583C56.6667 83.9587 56.8159 84.3191 57.0816 84.5847C57.3473 84.8504 57.7076 84.9997 58.0834 84.9997H83.5834C83.9591 84.9997 84.3194 84.8504 84.5851 84.5847C84.8508 84.3191 85 83.9587 85 83.583V77.9447C84.9966 76.4058 84.4943 74.9095 83.5683 73.6804C82.6424 72.4512 81.3428 71.5555 79.8646 71.1277ZM70.8334 52.4163C72.3294 52.4163 73.7648 53.0079 74.8263 54.062C75.8879 55.1162 76.4895 56.5473 76.5 58.0433C76.2993 57.9948 76.1116 57.903 75.9501 57.7742C75.7885 57.6455 75.6571 57.483 75.565 57.2982L74.9346 56.0345C74.8449 55.8545 74.718 55.6957 74.5622 55.5686C74.4064 55.4414 74.2253 55.3489 74.031 55.2972C73.8367 55.2455 73.6336 55.2357 73.4352 55.2686C73.2368 55.3014 73.0477 55.3761 72.8804 55.4877L70.7724 56.893C69.6096 57.6697 68.2424 58.0839 66.844 58.083H65.1667C65.1667 56.5801 65.7637 55.1388 66.8264 54.0761C67.8891 53.0134 69.3305 52.4163 70.8334 52.4163ZM66.844 60.9163C68.8017 60.918 70.7158 60.3381 72.3435 59.2503L73.1199 58.7333C73.5659 59.5201 74.2548 60.1413 75.0834 60.5041V62.333C75.0834 63.4602 74.6356 64.5412 73.8386 65.3382C73.0415 66.1352 71.9605 66.583 70.8334 66.583C69.7062 66.583 68.6252 66.1352 67.8282 65.3382C67.0311 64.5412 66.5834 63.4602 66.5834 62.333V60.9163H66.844ZM70.8334 69.4163C71.3091 69.4168 71.7838 69.3694 72.25 69.2747V70.833C72.2523 71.0324 72.2971 71.2291 72.3814 71.4098C72.4657 71.5906 72.5875 71.7513 72.7388 71.8813L70.8334 73.3122L68.9279 71.8813C69.0792 71.7513 69.201 71.5906 69.2853 71.4098C69.3696 71.2291 69.4144 71.0324 69.4167 70.833V69.2747C69.883 69.3694 70.3576 69.4168 70.8334 69.4163ZM82.1667 82.1663H79.3334V77.9163H76.5V82.1663H65.1667V77.9163H62.3334V82.1663H59.5V77.9447C59.5021 77.0209 59.8037 76.1226 60.3595 75.3847C60.9153 74.6468 61.6954 74.109 62.5827 73.8519L65.6625 72.9736L69.9834 76.2163C70.2286 76.4003 70.5268 76.4997 70.8334 76.4997C71.1399 76.4997 71.4381 76.4003 71.6834 76.2163L76.0028 72.9736L79.084 73.8533C79.9713 74.1099 80.7515 74.6474 81.3073 75.3852C81.8632 76.1229 82.1647 77.021 82.1667 77.9447V82.1663Z" fill="url(#paint10_linear)"/>
<path d="M49.1682 75.499L47.165 77.5022L48.9968 79.3339H36.0031L37.8349 77.5022L35.8317 75.499L31.5817 79.749C31.3161 80.0147 31.1669 80.375 31.1669 80.7506C31.1669 81.1263 31.3161 81.4865 31.5817 81.7522L35.8317 86.0022L37.8349 83.999L36.0031 82.1673H48.9968L47.165 83.999L49.1682 86.0022L53.4182 81.7522C53.6838 81.4865 53.833 81.1263 53.833 80.7506C53.833 80.375 53.6838 80.0147 53.4182 79.749L49.1682 75.499Z" fill="url(#paint11_linear)"/>
<defs>
<linearGradient id="paint0_linear" x1="65.1667" y1="41.5257" x2="19.8333" y2="41.5257" gradientUnits="userSpaceOnUse">
<stop stop-color="#FF9334"/>
<stop offset="1" stop-color="#FF5856"/>
</linearGradient>
<linearGradient id="paint1_linear" x1="48.1667" y1="31.2834" x2="36.8334" y2="31.2834" gradientUnits="userSpaceOnUse">
<stop stop-color="#FF9334"/>
<stop offset="1" stop-color="#FF5856"/>
</linearGradient>
<linearGradient id="paint2_linear" x1="53.8333" y1="31.1861" x2="51" y2="31.1861" gradientUnits="userSpaceOnUse">
<stop stop-color="#FF9334"/>
<stop offset="1" stop-color="#FF5856"/>
</linearGradient>
<linearGradient id="paint3_linear" x1="34" y1="31.1861" x2="31.1666" y2="31.1861" gradientUnits="userSpaceOnUse">
<stop stop-color="#FF9334"/>
<stop offset="1" stop-color="#FF5856"/>
</linearGradient>
<linearGradient id="paint4_linear" x1="43.9166" y1="2.87214" x2="41.0833" y2="2.87214" gradientUnits="userSpaceOnUse">
<stop stop-color="#FF9334"/>
<stop offset="1" stop-color="#FF5856"/>
</linearGradient>
<linearGradient id="paint5_linear" x1="23.4926" y1="10.1642" x2="21.4891" y2="12.1676" gradientUnits="userSpaceOnUse">
<stop stop-color="#FF9334"/>
<stop offset="1" stop-color="#FF5856"/>
</linearGradient>
<linearGradient id="paint6_linear" x1="17" y1="31.1861" x2="11.3334" y2="31.1861" gradientUnits="userSpaceOnUse">
<stop stop-color="#FF9334"/>
<stop offset="1" stop-color="#FF5856"/>
</linearGradient>
<linearGradient id="paint7_linear" x1="73.6667" y1="31.1861" x2="68" y2="31.1861" gradientUnits="userSpaceOnUse">
<stop stop-color="#FF9334"/>
<stop offset="1" stop-color="#FF5856"/>
</linearGradient>
<linearGradient id="paint8_linear" x1="64.5436" y1="9.14817" x2="60.5367" y2="13.1551" gradientUnits="userSpaceOnUse">
<stop stop-color="#FF9334"/>
<stop offset="1" stop-color="#FF5856"/>
</linearGradient>
<linearGradient id="paint9_linear" x1="28.3333" y1="67.5339" x2="-4.99885e-08" y2="67.5339" gradientUnits="userSpaceOnUse">
<stop stop-color="#FF9334"/>
<stop offset="1" stop-color="#FF5856"/>
</linearGradient>
<linearGradient id="paint10_linear" x1="85" y1="67.5339" x2="56.6667" y2="67.5339" gradientUnits="userSpaceOnUse">
<stop stop-color="#FF9334"/>
<stop offset="1" stop-color="#FF5856"/>
</linearGradient>
<linearGradient id="paint11_linear" x1="53.833" y1="80.8225" x2="31.1669" y2="80.8225" gradientUnits="userSpaceOnUse">
<stop stop-color="#FF9334"/>
<stop offset="1" stop-color="#FF5856"/>
</linearGradient>
</defs>
</svg>
