<svg width="21" height="20" viewBox="0 0 21 20" fill="none" xmlns="http://www.w3.org/2000/svg">
<path d="M10.3231 14.233C10.3441 14.2601 10.371 14.2821 10.4016 14.2972C10.4323 14.3123 10.4659 14.3202 10.5 14.3202C10.5341 14.3202 10.5677 14.3123 10.5984 14.2972C10.629 14.2821 10.6559 14.2601 10.6769 14.233L13.8213 10.2074C13.9364 10.0597 13.8325 9.84091 13.6444 9.84091H11.564V0.227273C11.564 0.102273 11.463 0 11.3394 0H9.65495C9.53142 0 9.43035 0.102273 9.43035 0.227273V9.83807H7.35562C7.16751 9.83807 7.06364 10.0568 7.17874 10.2045L10.3231 14.233ZM20.7754 13.2386H19.0909C18.9674 13.2386 18.8663 13.3409 18.8663 13.4659V17.8409H2.13369V13.4659C2.13369 13.3409 2.03262 13.2386 1.90909 13.2386H0.224599C0.10107 13.2386 0 13.3409 0 13.4659V19.0909C0 19.5938 0.401471 20 0.898396 20H20.1016C20.5985 20 21 19.5938 21 19.0909V13.4659C21 13.3409 20.8989 13.2386 20.7754 13.2386Z" fill="url(#paint0_linear)"/>
<defs>
<linearGradient id="paint0_linear" x1="21" y1="10.137" x2="-3.70503e-08" y2="10.137" gradientUnits="userSpaceOnUse">
<stop stop-color="#FF9334"/>
<stop offset="1" stop-color="#FF5856"/>
</linearGradient>
</defs>
</svg>
