<svg width="111" height="60" viewBox="0 0 111 60" fill="none" xmlns="http://www.w3.org/2000/svg">
<path d="M110.058 0V9.89848L91.0795 25.0152H110.058V34.8426H75.0397V24.9442L94.212 9.82741H75.0397V0H110.058Z" fill="#2B2A29"/>
<path d="M71.8664 0V34.8426H61.9792V22.335H46.7761V34.8426H36.8889V0H46.7761V12.5076H61.9792V0H71.8664Z" fill="#2B2A29"/>
<path d="M30.726 3.41119C32.9198 5.58378 34.0115 8.20306 34.0115 11.2894C34.0115 13.5635 33.3687 15.6345 32.1035 17.5229C33.3687 19.3706 34.0115 21.4315 34.0115 23.6954C34.0115 26.7817 32.9198 29.4112 30.726 31.5838C28.5425 33.7564 25.8998 34.8427 22.8081 34.8427H9.76813V25.0152H22.8081C23.6856 25.0152 24.1244 24.5787 24.1244 23.6954C24.1244 22.8528 23.7061 22.4366 22.8592 22.4366H22.8081H9.76813V12.599H22.8081H22.8592C23.7061 12.599 24.1244 12.1726 24.1244 11.3097C24.1244 10.4264 23.6856 9.97971 22.8081 9.97971H9.76813V0.142151H22.8081C25.91 0.142151 28.5425 1.22845 30.726 3.41119Z" fill="#2B2A29"/>
<path fill-rule="evenodd" clip-rule="evenodd" d="M9.82935 23.3401L0.00341797 13.5432V34.8426H9.82935V23.3401Z" fill="#2B2A29"/>
<path d="M9.3294 9.37058L8.80902 8.84266L9.76814 7.86804V8.92388L9.3294 9.37058Z" fill="#2B2A29"/>
<path d="M8.28863 8.30459L7.76825 7.77667L9.76813 5.74622V6.80205L8.28863 8.30459Z" fill="#2B2A29"/>
<path d="M7.23766 7.24875L6.71729 6.72084L9.76812 3.62439V4.69038L7.23766 7.24875Z" fill="#2B2A29"/>
<path d="M6.19689 6.19292L5.67651 5.65485L9.7681 1.50256V2.56855L6.19689 6.19292Z" fill="#2B2A29"/>
<path d="M5.15619 5.12692L4.62561 4.599L9.0233 0.142151H9.76815V0.446719L5.15619 5.12692Z" fill="#2B2A29"/>
<path d="M4.10522 4.07108L3.58484 3.54317L6.93157 0.142151H7.98253L4.10522 4.07108Z" fill="#2B2A29"/>
<path d="M3.06444 3.01525L2.54407 2.47718L4.83985 0.142151H5.8908L3.06444 3.01525Z" fill="#2B2A29"/>
<path d="M2.01256 1.94987L1.49219 1.42195L2.75742 0.142761H3.79817L2.01256 1.94987Z" fill="#2B2A29"/>
<path d="M0.972464 0.89403L0.452087 0.366112L0.66636 0.142761H1.70711L0.972464 0.89403Z" fill="#2B2A29"/>
<path d="M9.76813 22.4772L0.00341797 12.5787V11.5127L9.76813 21.4213V22.4772Z" fill="#2B2A29"/>
<path d="M9.76813 20.3553L0.00341797 10.4568V9.401L9.76813 19.2995V20.3553Z" fill="#2B2A29"/>
<path d="M9.76813 18.2436L0.00341797 8.33501V7.27917L9.76813 17.1777V18.2436Z" fill="#2B2A29"/>
<path d="M9.76813 16.1218L0.00341797 6.22334V5.15735L9.76813 15.066V16.1218Z" fill="#2B2A29"/>
<path d="M9.76813 14L0.00341797 4.10149V3.04565L9.76813 12.9441V14Z" fill="#2B2A29"/>
<path d="M9.76813 11.8883L0.00341797 1.97967V0.923828L9.76813 10.8223V11.8883Z" fill="#2B2A29"/>
<path fill-rule="evenodd" clip-rule="evenodd" d="M110.997 38.8528V47.7462H52.4084L61.265 38.8528H110.997Z" fill="#E3492A"/>
<path d="M7.25806 39.5228L7.92129 38.8528H7.20704L6.90094 39.1675L7.25806 39.5228Z" fill="#E3492A"/>
<path d="M7.98249 40.2335L9.35996 38.8528H8.64571L7.62537 39.8782L7.98249 40.2335Z" fill="#E3492A"/>
<path d="M8.71718 40.9543L10.7987 38.8528H10.0742L8.34985 40.5888L8.71718 40.9543Z" fill="#E3492A"/>
<path d="M9.4416 41.665L12.2374 38.8528H11.5129L9.07428 41.3096L9.4416 41.665Z" fill="#E3492A"/>
<path d="M10.1661 42.3756L13.6761 38.8528H12.9516L9.80896 42.0203L10.1661 42.3756Z" fill="#E3492A"/>
<path d="M10.9007 43.0964L15.1147 38.8528H14.3903L10.5334 42.7411L10.9007 43.0964Z" fill="#E3492A"/>
<path d="M11.6251 43.8071L16.5432 38.8528H15.829L11.2578 43.4518L11.6251 43.8071Z" fill="#E3492A"/>
<path d="M12.3496 44.5279L17.9819 38.8528H17.2677L11.9925 44.1726L12.3496 44.5279Z" fill="#E3492A"/>
<path d="M13.074 45.2386L19.4206 38.8528H18.7064L12.7169 44.8832L13.074 45.2386Z" fill="#E3492A"/>
<path d="M13.8087 45.9594L20.8593 38.8528H20.1451L13.4414 45.5939L13.8087 45.9594Z" fill="#E3492A"/>
<path d="M14.5332 46.67L22.298 38.8528H21.5837L14.1658 46.3147L14.5332 46.67Z" fill="#E3492A"/>
<path d="M15.2576 47.3909L23.7367 38.8528H23.0123L14.9005 47.0254L15.2576 47.3909Z" fill="#E3492A"/>
<path d="M16.3391 47.7462L25.1753 38.8528H24.4509L15.6249 47.7462H16.3391Z" fill="#E3492A"/>
<path d="M17.7778 47.7462L26.614 38.8528H25.8896L17.0636 47.7462H17.7778Z" fill="#E3492A"/>
<path d="M19.2166 47.7462L28.0528 38.8528H27.3283L18.5023 47.7462H19.2166Z" fill="#E3492A"/>
<path d="M20.6552 47.7462L29.4812 38.8528H28.767L19.941 47.7462H20.6552Z" fill="#E3492A"/>
<path d="M0.0340576 46.5584L1.23807 47.7462H0.503417L0.0340576 47.2792V46.5584Z" fill="#E3492A"/>
<path d="M0.0340576 45.1269L2.68696 47.7462H1.96251L0.0340576 45.8477V45.1269Z" fill="#E3492A"/>
<path d="M0.0340576 43.6954L4.14605 47.7462H3.42161L0.0340576 44.4162V43.6954Z" fill="#E3492A"/>
<path d="M0.0340576 42.2741L5.59494 47.7462H4.8705L0.0340576 42.9848V42.2741Z" fill="#E3492A"/>
<path d="M0.0340576 40.8427L7.05404 47.7462H6.32959L0.0340576 41.5533V40.8427Z" fill="#E3492A"/>
<path d="M0.0340576 39.4112L8.51313 47.7462H7.77848L0.0340576 40.1219V39.4112Z" fill="#E3492A"/>
<path d="M0.921711 38.8528L9.96198 47.7462H9.23753L0.197266 38.8528H0.921711Z" fill="#E3492A"/>
<path d="M2.37062 38.8528L11.4211 47.7462H10.6966L1.64618 38.8528H2.37062Z" fill="#E3492A"/>
<path d="M3.82973 38.8528L12.87 47.7462H12.1456L3.10529 38.8528H3.82973Z" fill="#E3492A"/>
<path d="M5.28885 38.8528L14.3291 47.7462H13.6047L4.5542 38.8528H5.28885Z" fill="#E3492A"/>
<path d="M6.73769 38.8528L15.7882 47.7462H15.0535L6.01324 38.8528H6.73769Z" fill="#E3492A"/>
<path d="M38.1643 39.4822L38.7867 38.8528H38.0725L37.797 39.1269L38.1643 39.4822Z" fill="#E3492A"/>
<path d="M38.8888 40.203L40.2255 38.8528H39.5112L38.5215 39.8477L38.8888 40.203Z" fill="#E3492A"/>
<path d="M39.6132 40.9137L41.6641 38.8528H40.9499L39.2561 40.5584L39.6132 40.9137Z" fill="#E3492A"/>
<path d="M40.3479 41.6345L43.1029 38.8528H42.3886L39.9806 41.269L40.3479 41.6345Z" fill="#E3492A"/>
<path d="M41.0723 42.3452L44.5415 38.8528H43.8273L40.705 41.9898L41.0723 42.3452Z" fill="#E3492A"/>
<path d="M41.7968 43.066L45.9802 38.8528H45.2558L41.4397 42.7005L41.7968 43.066Z" fill="#E3492A"/>
<path d="M42.5314 43.7766L47.4189 38.8528H46.6945L42.1641 43.4213L42.5314 43.7766Z" fill="#E3492A"/>
<path d="M43.2559 44.4873L48.8576 38.8528H48.1331L42.8885 44.132L43.2559 44.4873Z" fill="#E3492A"/>
<path d="M43.9804 45.2081L50.2963 38.8528H49.5719L43.613 44.8528L43.9804 45.2081Z" fill="#E3492A"/>
<path d="M44.7048 45.9188L51.7248 38.8528H51.0105L44.3477 45.5634L44.7048 45.9188Z" fill="#E3492A"/>
<path d="M45.4395 46.6396L53.1635 38.8528H52.4492L45.0721 46.2843L45.4395 46.6396Z" fill="#E3492A"/>
<path d="M46.1638 47.3502L54.6021 38.8528H53.8879L45.7965 46.9949L46.1638 47.3502Z" fill="#E3492A"/>
<path d="M47.2148 47.7462L56.0408 38.8528H55.3266L46.5312 47.7056L46.5618 47.7462H47.2148Z" fill="#E3492A"/>
<path d="M48.6535 47.7462L57.4795 38.8528H56.7653L47.9291 47.7462H48.6535Z" fill="#E3492A"/>
<path d="M50.082 47.7462L58.9182 38.8528H58.1938L49.3678 47.7462H50.082Z" fill="#E3492A"/>
<path d="M51.5206 47.7462L60.3568 38.8528H59.6324L50.8064 47.7462H51.5206Z" fill="#E3492A"/>
<path d="M20.3695 47.736L20.3797 47.7462H20.3593L20.3695 47.736Z" fill="#FF6D00"/>
<path d="M21.0838 47.0051L21.8389 47.7462H21.1042L20.7267 47.3705L21.0838 47.0051Z" fill="#E3492A"/>
<path d="M21.8082 46.2843L23.2877 47.7462H22.5632L21.451 46.6498L21.8082 46.2843Z" fill="#E3492A"/>
<path d="M22.5225 45.5634L24.7468 47.7462H24.0122L22.1653 45.9289L22.5225 45.5634Z" fill="#E3492A"/>
<path d="M23.2469 44.8427L26.1957 47.7462H25.4712L22.8898 45.198L23.2469 44.8427Z" fill="#E3492A"/>
<path d="M23.9611 44.1117L27.6548 47.7462H26.9303L23.604 44.4772L23.9611 44.1117Z" fill="#E3492A"/>
<path d="M24.6856 43.3909L29.1139 47.7462H28.3792L24.3182 43.7564L24.6856 43.3909Z" fill="#E3492A"/>
<path d="M25.3998 42.67L30.5628 47.7462H29.8384L25.0427 43.0254L25.3998 42.67Z" fill="#E3492A"/>
<path d="M26.1243 41.9391L32.0219 47.7462H31.2872L25.757 42.3046L26.1243 41.9391Z" fill="#E3492A"/>
<path d="M26.8385 41.2183L33.4708 47.7462H32.7463L26.4814 41.5837L26.8385 41.2183Z" fill="#E3492A"/>
<path d="M27.5528 40.4974L34.9299 47.7462H34.2055L27.1957 40.8629L27.5528 40.4974Z" fill="#E3492A"/>
<path d="M28.2772 39.7767L36.3787 47.7462H35.6543L27.92 40.132L28.2772 39.7767Z" fill="#E3492A"/>
<path d="M28.9915 39.0457L37.8379 47.7462H37.1134L28.6343 39.4111L28.9915 39.0457Z" fill="#E3492A"/>
<path d="M30.2465 38.8528L39.2969 47.7462H38.5623L29.522 38.8528H30.2465Z" fill="#E3492A"/>
<path d="M31.7055 38.8528L40.7458 47.7462H40.0213L30.9811 38.8528H31.7055Z" fill="#E3492A"/>
<path d="M33.1545 38.8528L42.205 47.7462H41.4805L32.4301 38.8528H33.1545Z" fill="#E3492A"/>
<path d="M34.6135 38.8528L43.6538 47.7462H42.9294L33.8891 38.8528H34.6135Z" fill="#E3492A"/>
<path d="M36.0727 38.8528L45.1129 47.7462H44.3885L35.338 38.8528H36.0727Z" fill="#E3492A"/>
<path d="M37.5216 38.8528L46.572 47.7462H45.8374L36.7971 38.8528H37.5216Z" fill="#E3492A"/>
<path d="M1.61555 51.7665H5.70713V57.6954H6.21731L6.22751 59.665L5.33981 59.6041V58.6091H1.06456V59.6041L0.197266 59.665V57.6954H0.513573C0.687032 57.6447 0.82988 57.5533 0.942118 57.4416C1.05436 57.3299 1.13598 57.198 1.20741 57.0355C1.26863 56.8832 1.30944 56.7107 1.34005 56.5178C1.37066 56.335 1.39107 56.132 1.40127 55.9289L1.43188 55.5228L1.61555 51.7665ZM4.64597 52.6802H2.6461L2.49304 55.533L2.45223 56.1015C2.44203 56.264 2.42162 56.4162 2.40121 56.5685C2.3706 56.7208 2.33999 56.8528 2.29918 56.9848C2.25836 57.1269 2.19714 57.2487 2.12572 57.3706C2.0543 57.4924 1.96246 57.6041 1.86043 57.6954H4.64597V52.6802ZM11.3496 58.6091V52.6802H8.67634V56.67C8.67634 56.9949 8.64573 57.269 8.59471 57.5025C8.54369 57.7259 8.45186 57.9188 8.30902 58.0812C8.17637 58.2538 7.9825 58.3858 7.73762 58.4975C7.50294 58.599 7.18663 58.6903 6.7989 58.7716L6.62544 57.9289C6.87033 57.8477 7.06419 57.7563 7.19684 57.665C7.32948 57.5634 7.42131 57.4518 7.48253 57.3299C7.54376 57.2081 7.58457 57.066 7.59477 56.9035C7.60498 56.7513 7.60498 56.5685 7.60498 56.3655V51.7665H12.421V58.6091H11.3496ZM13.8903 53.8883C13.8903 53.533 13.9515 53.2284 14.074 52.9645C14.1964 52.6903 14.3597 52.4772 14.5943 52.2944C14.8188 52.1218 15.0943 51.9898 15.4106 51.8985C15.7371 51.8071 16.0943 51.7665 16.5024 51.7665H18.4308V58.6091H17.3697V56.0203H16.6044C16.4922 56.0203 16.4106 56.0406 16.3493 56.0609C16.2881 56.0914 16.2371 56.1421 16.1963 56.2132L15.4004 57.4924C15.3188 57.6244 15.227 57.7563 15.1147 57.8985C15.0229 58.0304 14.9004 58.1624 14.7576 58.2741C14.625 58.3858 14.4719 58.4772 14.2984 58.5482C14.125 58.6193 13.9311 58.6599 13.7066 58.6599L13.5026 57.868C13.6148 57.8477 13.7168 57.8173 13.7985 57.7766C13.8903 57.7259 13.9821 57.6751 14.0638 57.6142C14.1454 57.5533 14.2168 57.4721 14.2882 57.3909C14.3699 57.2995 14.4413 57.198 14.5127 57.0761L15.2474 55.8579C15.0331 55.7766 14.8392 55.665 14.6658 55.533C14.4923 55.3909 14.3597 55.2386 14.2372 55.066C14.125 54.8934 14.0332 54.7005 13.9821 54.4975C13.9209 54.3046 13.8903 54.0914 13.8903 53.8883ZM14.9821 53.8985C14.9821 54.0711 15.0025 54.2335 15.0535 54.3858C15.1045 54.5381 15.1861 54.6802 15.2984 54.7919C15.4106 54.9035 15.5433 55.0051 15.7065 55.066C15.88 55.137 16.0738 55.1675 16.3085 55.1675H17.3697V52.6193H16.3595C16.1453 52.6193 15.9514 52.6396 15.7881 52.6903C15.6147 52.7411 15.4718 52.8223 15.3494 52.934C15.227 53.0355 15.1351 53.1675 15.0739 53.3299C15.0127 53.4924 14.9821 53.6853 14.9821 53.8985ZM21.6449 52.6396L21.5837 51.7665H26.0936L26.0324 52.6396H24.3693V58.6091H23.3081V52.6396H21.6449ZM27.012 58.6091V51.7665H31.0729L31.0219 52.6193H28.0833V54.7208H30.4811V55.5634H28.0833V57.7563H31.0933L31.1444 58.6091H27.012ZM32.8891 51.7665L34.1238 53.9898L34.2462 54.3858H34.2768L34.3789 53.9898L35.5931 51.7665H36.7256L36.1951 52.8325L34.9298 54.9949L34.8584 55.1066L34.9196 55.2081L36.3685 57.665L36.8277 58.6091H35.6849L34.3176 56.1726L34.1952 55.7563H34.1646L34.0421 56.1929L32.6851 58.6091H31.5525L32.0116 57.665L33.5014 55.2081L33.5728 55.1066L33.4911 54.9848L32.2871 52.8325L31.7566 51.7665H32.8891ZM37.1542 59.6954C37.2562 59.4924 37.3379 59.2995 37.3991 59.1167C37.4603 58.934 37.5011 58.7614 37.5113 58.5888C37.5317 58.4162 37.5317 58.2538 37.5113 58.1015C37.5011 57.9492 37.4705 57.8071 37.4297 57.665L38.3786 57.5533C38.4296 57.7665 38.4398 57.9898 38.4296 58.2233C38.4194 58.4568 38.3786 58.6802 38.3072 58.9035C38.2358 59.1269 38.1439 59.3299 38.0317 59.5228C37.9092 59.7157 37.7664 59.868 37.6031 60L37.1542 59.6954ZM41.7457 51.7462L42.8069 51.7563V55.0355L43.6844 54.802L44.3986 52.9442C44.4701 52.7817 44.5619 52.6294 44.6741 52.4873C44.7864 52.3452 44.919 52.2132 45.0721 52.1015C45.2353 51.9898 45.4088 51.8985 45.6129 51.8274C45.8169 51.7563 46.0414 51.7259 46.2965 51.7157L46.4904 52.4975C46.3781 52.5076 46.2557 52.5279 46.1434 52.5685C46.0312 52.6091 45.9292 52.6599 45.8271 52.731C45.7353 52.802 45.6435 52.8832 45.5618 52.9848C45.4802 53.0863 45.4088 53.198 45.3578 53.3299L44.5823 55.198L46.0516 57.9086L46.3781 58.6091H45.2761L43.7558 55.7766L42.8069 55.9797V58.6091H41.7457V51.7462ZM46.9495 52.6396L46.8883 51.7665H51.388L51.3268 52.6396H49.6738V58.6091H48.6025V52.6396H46.9495ZM56.5 55.1675C56.5 54.3147 56.3469 53.6548 56.051 53.198C55.7551 52.7411 55.3163 52.5178 54.7552 52.5178C54.4695 52.5178 54.2144 52.5685 54.0001 52.6903C53.7858 52.8122 53.6022 52.9848 53.4491 53.2183C53.3063 53.4416 53.2042 53.7259 53.1226 54.0609C53.0512 54.3959 53.0206 54.7716 53.0206 55.2081C53.0206 55.6244 53.0512 55.9898 53.1124 56.3249C53.1736 56.6497 53.2757 56.9239 53.4185 57.1574C53.5614 57.3807 53.7348 57.5634 53.9593 57.6751C54.1736 57.7969 54.4389 57.8579 54.745 57.8579C55.0511 57.8579 55.3163 57.7969 55.5408 57.6751C55.7653 57.5431 55.949 57.3706 56.0918 57.137C56.2347 56.9035 56.3367 56.6193 56.3979 56.2843C56.4693 55.9594 56.5 55.5837 56.5 55.1675ZM54.7654 58.7513C54.2858 58.7513 53.8777 58.67 53.5205 58.5178C53.1634 58.3553 52.8675 58.1218 52.6328 57.8274C52.388 57.5228 52.2145 57.1574 52.0921 56.7107C51.9696 56.2741 51.9084 55.7766 51.9084 55.2081C51.9084 54.6599 51.9696 54.1523 52.0921 53.7157C52.2145 53.269 52.388 52.8934 52.6328 52.5787C52.8675 52.2741 53.1634 52.0406 53.5205 51.868C53.8777 51.7056 54.296 51.6244 54.7654 51.6244C55.2347 51.6244 55.6429 51.7056 56 51.868C56.3469 52.0203 56.6428 52.2538 56.8877 52.5584C57.1224 52.8629 57.306 53.2386 57.4285 53.6751C57.5509 54.1218 57.6121 54.6193 57.6121 55.1777C57.6121 55.7462 57.5509 56.2436 57.4285 56.6903C57.306 57.1269 57.1224 57.5025 56.8877 57.8071C56.6428 58.1218 56.3469 58.3553 56 58.5076C55.6429 58.67 55.2347 58.7513 54.7654 58.7513ZM64.8872 58.6091V52.6802H62.1119V58.6091H61.0405V51.7665H65.9483V58.6091H64.8872ZM71.7949 55.1675C71.7949 54.3147 71.6419 53.6548 71.346 53.198C71.0501 52.7411 70.6113 52.5178 70.0501 52.5178C69.7644 52.5178 69.5094 52.5685 69.2951 52.6903C69.0706 52.8122 68.8971 52.9848 68.7441 53.2183C68.6012 53.4416 68.489 53.7259 68.4176 54.0609C68.3462 54.3959 68.3054 54.7716 68.3054 55.2081C68.3054 55.6244 68.3462 55.9898 68.4074 56.3249C68.4686 56.6497 68.5706 56.9239 68.7135 57.1574C68.8563 57.3807 69.0298 57.5634 69.2441 57.6751C69.4685 57.7969 69.7338 57.8579 70.0399 57.8579C70.346 57.8579 70.6113 57.7969 70.8358 57.6751C71.0603 57.5431 71.2439 57.3706 71.3868 57.137C71.5296 56.9035 71.6317 56.6193 71.6929 56.2843C71.7643 55.9594 71.7949 55.5837 71.7949 55.1675ZM70.0603 58.7513C69.5808 58.7513 69.1726 58.67 68.8155 58.5178C68.4584 58.3553 68.1625 58.1218 67.9176 57.8274C67.6829 57.5228 67.4993 57.1574 67.387 56.7107C67.2646 56.2741 67.2034 55.7766 67.2034 55.2081C67.2034 54.6599 67.2646 54.1523 67.387 53.7157C67.4993 53.269 67.6829 52.8934 67.9176 52.5787C68.1625 52.2741 68.4584 52.0406 68.8155 51.868C69.1726 51.7056 69.5808 51.6244 70.0603 51.6244C70.5297 51.6244 70.9378 51.7056 71.2848 51.868C71.6419 52.0203 71.9378 52.2538 72.1827 52.5584C72.4173 52.8629 72.601 53.2386 72.7234 53.6751C72.8459 54.1218 72.9071 54.6193 72.9071 55.1777C72.9071 55.7462 72.8459 56.2436 72.7234 56.6903C72.601 57.1269 72.4173 57.5025 72.1827 57.8071C71.9378 58.1218 71.6419 58.3553 71.2848 58.5076C70.9378 58.67 70.5195 58.7513 70.0603 58.7513ZM77.9986 58.5787V55.6041H75.2233V58.5787H74.1621V51.736H75.2233V54.7005H77.9986V51.736H79.07V58.5787H77.9986ZM84.6717 58.6091V53.9391L84.7533 53.1878H84.6921L84.1819 54.3147L81.9984 58.6091H80.723V51.7665H81.7637V56.4568L81.6923 57.1777H81.7535L82.2739 56.0711L84.4472 51.7665H85.7227V58.6091H84.6717ZM87.396 58.6091V51.7665H89.0592L90.4877 55.8274L90.5795 56.4772H90.6101L90.7019 55.8274L92.1406 51.7665H93.7936V58.6091H92.7528L92.763 53.9086L92.7936 52.8832H92.7426L92.5079 53.6954L92.3855 54.1218L91.0897 57.6142H90.0999L88.8041 54.1218L88.6919 53.6954L88.4572 52.8832H88.4062L88.4266 53.9086L88.447 58.6091H87.396ZM94.8854 58.6091L95.1098 57.7157L96.7424 52.5685L96.3649 52.5178L96.3445 51.7665C96.5077 51.7665 96.671 51.7665 96.8342 51.7665C97.0077 51.7665 97.1811 51.7665 97.3444 51.7563L98.4056 51.7462L100.303 57.7157L100.518 58.6091H99.4565L98.9259 56.8934H96.4873L95.9465 58.6091H94.8854ZM97.6811 52.6193L97.6097 52.9442L96.6914 56.0304H98.7117L97.7933 52.9442L97.7321 52.6193H97.6811ZM101.62 58.6091V51.7665H105.681L105.63 52.6193H102.691V54.7208H105.089V55.5634H102.691V57.7563H105.701L105.752 58.6091H101.62ZM106.221 52.6396L106.17 51.7665H110.67L110.609 52.6396H108.956V58.6091H107.885V52.6396H106.221Z" fill="#2B2A29"/>
<path d="M60.765 40.7107H62.3261C62.9384 40.7107 63.4179 40.8528 63.7546 41.1269C64.1015 41.401 64.2648 41.8173 64.2648 42.3858C64.2648 43.5634 63.6322 44.1624 62.3772 44.1624H61.6425V45.8883H60.765V40.7107ZM62.367 43.4518C63.0302 43.4518 63.3567 43.1066 63.3567 42.3959C63.3567 41.7462 63.0302 41.4112 62.3568 41.4112H61.6425V43.4518H62.367ZM65.0709 40.7107H66.683C67.2952 40.7107 67.7544 40.8223 68.0605 41.0558C68.387 41.3096 68.5503 41.6954 68.5503 42.2233C68.5503 42.5482 68.4788 42.8528 68.336 43.1167C68.1523 43.4416 67.9176 43.6345 67.6217 43.6954C67.7034 43.736 67.7952 43.8173 67.887 43.9391C67.9789 44.0508 68.0605 44.203 68.1115 44.3756L68.7033 45.8883H67.7952L67.2748 44.5888C67.1014 44.1523 66.8871 43.9391 66.6422 43.9391H65.9382V45.8883H65.0709V40.7107ZM66.7646 43.2589C67.081 43.2589 67.3054 43.1777 67.4483 43.0152C67.5911 42.8528 67.6626 42.6091 67.6626 42.2944C67.6626 41.9797 67.5911 41.7563 67.4381 41.6244C67.285 41.4822 67.0606 41.4112 66.7544 41.4112H65.9382V43.2589H66.7646ZM71.4991 45.9898C70.7848 45.9898 70.244 45.7563 69.8767 45.2995C69.4992 44.8426 69.3155 44.1827 69.3155 43.3198C69.3155 42.4467 69.4992 41.7868 69.8665 41.3198C70.2542 40.8426 70.795 40.6091 71.4991 40.6091C72.2133 40.6091 72.7541 40.8325 73.1214 41.2995C73.4887 41.7665 73.6724 42.4264 73.6724 43.2893C73.6724 44.1523 73.4887 44.8223 73.1112 45.2893C72.7439 45.7563 72.2031 45.9898 71.4991 45.9898ZM71.4786 45.2589C71.9174 45.2589 72.2439 45.0863 72.448 44.7411C72.652 44.4061 72.7541 43.9188 72.7541 43.2893C72.7541 42.6497 72.652 42.1624 72.4378 41.8274C72.2235 41.5025 71.9072 41.3401 71.4889 41.3401C71.0807 41.3401 70.7644 41.5025 70.5501 41.8477C70.3359 42.1827 70.2338 42.67 70.2338 43.3096C70.2338 43.9492 70.3359 44.4365 70.5399 44.7614C70.7338 45.0964 71.0501 45.2589 71.4786 45.2589ZM74.5907 40.7107H77.5497L77.5089 41.4112H75.4682V43.066H77.1314V43.7665H75.4784V45.8883H74.5907V40.7107ZM78.315 40.7107H81.427L81.3862 41.4213H79.2027V42.9137H80.9781V43.6142H79.2027V45.1777H81.4474L81.478 45.8883H78.315V40.7107ZM83.5493 45.9898C83.2432 45.9898 82.9473 45.9594 82.6412 45.8883C82.3351 45.8173 82.0902 45.7259 81.876 45.6142L82.0698 44.9543C82.5494 45.1574 83.0392 45.2589 83.5187 45.2589C83.8248 45.2589 84.0595 45.1878 84.233 45.0457C84.4064 44.9035 84.4983 44.7107 84.4983 44.467C84.4983 44.2335 84.4268 44.0508 84.2636 43.9188C84.1922 43.8579 84.1003 43.8071 83.9779 43.7462C83.8657 43.6954 83.7126 43.6345 83.5187 43.5736C83.2228 43.4721 82.9779 43.3706 82.7943 43.269C82.6004 43.1777 82.4474 43.066 82.3351 42.9543C82.2127 42.8325 82.1209 42.7005 82.0698 42.5482C82.0188 42.4061 81.9882 42.2335 81.9882 42.0305C81.9882 41.5533 82.1413 41.2081 82.4576 40.9645C82.7637 40.7208 83.2126 40.6091 83.784 40.6091C83.9983 40.6091 84.2126 40.6193 84.4268 40.6599C84.6411 40.7005 84.8962 40.7614 85.2023 40.8528L85.039 41.533C84.784 41.4619 84.5595 41.4112 84.3758 41.3807C84.1922 41.3502 84.0085 41.3401 83.835 41.3401C83.5391 41.3401 83.3147 41.3909 83.1514 41.5025C82.9882 41.6142 82.9065 41.7766 82.9065 41.9797C82.9065 42.0914 82.9269 42.1827 82.9473 42.2538C82.9779 42.3249 83.0188 42.3959 83.0902 42.4568C83.233 42.5888 83.5391 42.7411 84.0085 42.9035C84.2636 43.0051 84.4779 43.0964 84.6411 43.1878C84.8044 43.269 84.937 43.3604 85.0493 43.4721C85.2941 43.7056 85.4166 44.0101 85.4166 44.3858C85.4166 44.9137 85.2635 45.3096 84.937 45.5838C84.6105 45.8579 84.1513 45.9898 83.5493 45.9898ZM87.5797 45.9898C87.2736 45.9898 86.9675 45.9594 86.6614 45.8883C86.3655 45.8173 86.1104 45.7259 85.9063 45.6142L86.09 44.9543C86.5696 45.1574 87.0593 45.2589 87.5491 45.2589C87.845 45.2589 88.0797 45.1878 88.2531 45.0457C88.4368 44.9035 88.5184 44.7107 88.5184 44.467C88.5184 44.2335 88.447 44.0508 88.294 43.9188C88.2123 43.8579 88.1205 43.8071 88.0083 43.7462C87.8858 43.6954 87.7328 43.6345 87.5389 43.5736C87.243 43.4721 87.0083 43.3706 86.8145 43.269C86.6206 43.1777 86.4675 43.066 86.3553 42.9543C86.2329 42.8325 86.141 42.7005 86.09 42.5482C86.039 42.4061 86.0084 42.2335 86.0084 42.0305C86.0084 41.5533 86.1716 41.2081 86.4777 40.9645C86.794 40.7208 87.2328 40.6091 87.8042 40.6091C88.0185 40.6091 88.2429 40.6193 88.4572 40.6599C88.6715 40.7005 88.9266 40.7614 89.2225 40.8528L89.0592 41.533C88.8041 41.4619 88.5796 41.4112 88.396 41.3807C88.2123 41.3502 88.0389 41.3401 87.8654 41.3401C87.5695 41.3401 87.3348 41.3909 87.1716 41.5025C87.0185 41.6142 86.9369 41.7766 86.9369 41.9797C86.9369 42.0914 86.9471 42.1827 86.9675 42.2538C86.9981 42.3249 87.0491 42.3959 87.1206 42.4568C87.2634 42.5888 87.5695 42.7411 88.0287 42.9035C88.2837 43.0051 88.498 43.0964 88.6613 43.1878C88.8245 43.269 88.9674 43.3604 89.0796 43.4721C89.3245 43.7056 89.4469 44.0101 89.4469 44.3858C89.4469 44.9137 89.2837 45.3096 88.9572 45.5838C88.6409 45.8579 88.1817 45.9898 87.5797 45.9898ZM90.1408 45.2995L90.4469 45.269V41.3198L90.1408 41.2995V40.7107H91.6305V41.2995L91.3346 41.3198V45.269L91.6305 45.2995V45.8883H90.1408V45.2995ZM94.4875 45.9898C93.7732 45.9898 93.2324 45.7563 92.8651 45.2995C92.4978 44.8426 92.3039 44.1827 92.3039 43.3198C92.3039 42.4467 92.4876 41.7868 92.8651 41.3198C93.2426 40.8426 93.7834 40.6091 94.4875 40.6091C95.2017 40.6091 95.7425 40.8325 96.1098 41.2995C96.4771 41.7665 96.6608 42.4264 96.6608 43.2893C96.6608 44.1523 96.4771 44.8223 96.1098 45.2893C95.7323 45.7563 95.1915 45.9898 94.4875 45.9898ZM94.4772 45.2589C94.9058 45.2589 95.2323 45.0863 95.4364 44.7411C95.6404 44.4061 95.7527 43.9188 95.7527 43.2893C95.7527 42.6497 95.6404 42.1624 95.4262 41.8274C95.2119 41.5025 94.8956 41.3401 94.4772 41.3401C94.0691 41.3401 93.7528 41.5025 93.5385 41.8477C93.3243 42.1827 93.2222 42.67 93.2222 43.3096C93.2222 43.9492 93.3243 44.4365 93.5283 44.7614C93.7222 45.0964 94.0385 45.2589 94.4772 45.2589ZM97.5791 40.7107H98.6097L100.191 43.8173L100.528 44.6091H100.62L100.559 44.1015V40.7107H101.426V45.8883H100.385L98.8137 42.7716L98.4668 41.9898H98.375L98.4464 42.5076V45.8883H97.5791V40.7107ZM102.385 45.198L103.589 41.3807L103.303 41.3401L103.283 40.7107H103.793L104.966 40.7005L106.385 45.198L106.548 45.8883H105.67L105.283 44.6396H103.477L103.099 45.8883H102.222L102.385 45.198ZM105.119 43.9391L104.456 41.6751L104.415 41.3807H104.354L104.313 41.6751L103.66 43.9391H105.119ZM107.354 40.7107H108.242V45.1777H110.252L110.293 45.8883H107.354V40.7107Z" fill="#FEFEFE"/>
</svg>
