<svg width="192" height="33" viewBox="0 0 192 33" fill="none" xmlns="http://www.w3.org/2000/svg">
<path d="M55.4999 22.248V26H42.5359V6.596H46.9039V22.248H55.4999ZM61.4344 16.284C61.4344 17.236 61.5464 18.0947 61.7704 18.86C62.013 19.6253 62.349 20.288 62.7784 20.848C63.2264 21.3893 63.7677 21.8093 64.4024 22.108C65.037 22.4067 65.765 22.556 66.5864 22.556C67.389 22.556 68.1077 22.4067 68.7424 22.108C69.3957 21.8093 69.937 21.3893 70.3664 20.848C70.8144 20.288 71.1504 19.6253 71.3744 18.86C71.617 18.0947 71.7384 17.236 71.7384 16.284C71.7384 15.332 71.617 14.4733 71.3744 13.708C71.1504 12.924 70.8144 12.2613 70.3664 11.72C69.937 11.16 69.3957 10.7307 68.7424 10.432C68.1077 10.1333 67.389 9.984 66.5864 9.984C65.765 9.984 65.037 10.1427 64.4024 10.46C63.7677 10.7587 63.2264 11.188 62.7784 11.748C62.349 12.2893 62.013 12.952 61.7704 13.736C61.5464 14.5013 61.4344 15.3507 61.4344 16.284ZM76.2464 16.284C76.2464 17.9453 75.9944 19.4107 75.4904 20.68C75.005 21.9307 74.333 22.9853 73.4744 23.844C72.6157 24.684 71.589 25.3187 70.3944 25.748C69.2184 26.1773 67.949 26.392 66.5864 26.392C65.261 26.392 64.0104 26.1773 62.8344 25.748C61.6584 25.3187 60.6317 24.684 59.7544 23.844C58.877 22.9853 58.1864 21.9307 57.6824 20.68C57.1784 19.4107 56.9264 17.9453 56.9264 16.284C56.9264 14.6227 57.1877 13.1667 57.7104 11.916C58.233 10.6467 58.933 9.58267 59.8104 8.724C60.7064 7.86533 61.733 7.22133 62.8904 6.792C64.0664 6.36267 65.2984 6.148 66.5864 6.148C67.9117 6.148 69.1624 6.36267 70.3384 6.792C71.5144 7.22133 72.541 7.86533 73.4184 8.724C74.2957 9.58267 74.9864 10.6467 75.4904 11.916C75.9944 13.1667 76.2464 14.6227 76.2464 16.284ZM89.3515 9.956C87.3168 9.956 85.8421 10.5253 84.9275 11.664C84.0315 12.784 83.5835 14.324 83.5835 16.284C83.5835 17.236 83.6955 18.104 83.9195 18.888C84.1435 19.6533 84.4795 20.316 84.9275 20.876C85.3755 21.436 85.9355 21.8747 86.6075 22.192C87.2795 22.4907 88.0635 22.64 88.9595 22.64C89.4448 22.64 89.8555 22.6307 90.1915 22.612C90.5461 22.5933 90.8541 22.556 91.1155 22.5V15.752H95.4835V25.356C94.9608 25.5613 94.1208 25.776 92.9635 26C91.8061 26.2427 90.3781 26.364 88.6795 26.364C87.2235 26.364 85.8981 26.14 84.7035 25.692C83.5275 25.244 82.5195 24.5907 81.6795 23.732C80.8395 22.8733 80.1861 21.8187 79.7195 20.568C79.2715 19.3173 79.0475 17.8893 79.0475 16.284C79.0475 14.66 79.2995 13.2227 79.8035 11.972C80.3075 10.7213 80.9981 9.66667 81.8755 8.808C82.7528 7.93067 83.7795 7.268 84.9555 6.82C86.1501 6.372 87.4195 6.148 88.7635 6.148C89.6781 6.148 90.4995 6.21333 91.2275 6.344C91.9741 6.456 92.6088 6.596 93.1315 6.764C93.6728 6.91333 94.1115 7.072 94.4475 7.24C94.8021 7.408 95.0541 7.53867 95.2035 7.632L93.9435 11.132C93.3461 10.8147 92.6555 10.544 91.8715 10.32C91.1061 10.0773 90.2661 9.956 89.3515 9.956ZM103.216 16.284C103.216 17.236 103.328 18.0947 103.552 18.86C103.794 19.6253 104.13 20.288 104.56 20.848C105.008 21.3893 105.549 21.8093 106.184 22.108C106.818 22.4067 107.546 22.556 108.368 22.556C109.17 22.556 109.889 22.4067 110.524 22.108C111.177 21.8093 111.718 21.3893 112.148 20.848C112.596 20.288 112.932 19.6253 113.156 18.86C113.398 18.0947 113.52 17.236 113.52 16.284C113.52 15.332 113.398 14.4733 113.156 13.708C112.932 12.924 112.596 12.2613 112.148 11.72C111.718 11.16 111.177 10.7307 110.524 10.432C109.889 10.1333 109.17 9.984 108.368 9.984C107.546 9.984 106.818 10.1427 106.184 10.46C105.549 10.7587 105.008 11.188 104.56 11.748C104.13 12.2893 103.794 12.952 103.552 13.736C103.328 14.5013 103.216 15.3507 103.216 16.284ZM118.028 16.284C118.028 17.9453 117.776 19.4107 117.272 20.68C116.786 21.9307 116.114 22.9853 115.256 23.844C114.397 24.684 113.37 25.3187 112.176 25.748C111 26.1773 109.73 26.392 108.368 26.392C107.042 26.392 105.792 26.1773 104.616 25.748C103.44 25.3187 102.413 24.684 101.536 23.844C100.658 22.9853 99.9676 21.9307 99.4636 20.68C98.9596 19.4107 98.7076 17.9453 98.7076 16.284C98.7076 14.6227 98.969 13.1667 99.4916 11.916C100.014 10.6467 100.714 9.58267 101.592 8.724C102.488 7.86533 103.514 7.22133 104.672 6.792C105.848 6.36267 107.08 6.148 108.368 6.148C109.693 6.148 110.944 6.36267 112.12 6.792C113.296 7.22133 114.322 7.86533 115.2 8.724C116.077 9.58267 116.768 10.6467 117.272 11.916C117.776 13.1667 118.028 14.6227 118.028 16.284ZM135.404 6.596V10.32H129.552V26H125.184V10.32H119.332V6.596H135.404ZM146.281 14.576C147.065 13.2507 147.811 11.9253 148.521 10.6C149.23 9.27467 149.883 7.94 150.481 6.596H155.297C154.233 8.68667 153.131 10.712 151.993 12.672C150.854 14.632 149.65 16.6013 148.381 18.58V26H144.013V18.636C142.743 16.6573 141.53 14.6787 140.373 12.7C139.234 10.7213 138.133 8.68667 137.069 6.596H142.137C142.734 7.94 143.378 9.27467 144.069 10.6C144.759 11.9253 145.497 13.2507 146.281 14.576ZM163.504 6.372C166.398 6.372 168.619 6.88533 170.168 7.912C171.718 8.92 172.492 10.5813 172.492 12.896C172.492 15.2293 171.708 16.9187 170.14 17.964C168.572 18.9907 166.332 19.504 163.42 19.504H162.048V26H157.68V6.876C158.632 6.68933 159.64 6.55867 160.704 6.484C161.768 6.40933 162.702 6.372 163.504 6.372ZM163.784 10.096C163.467 10.096 163.15 10.1053 162.832 10.124C162.534 10.1427 162.272 10.1613 162.048 10.18V15.78H163.42C164.932 15.78 166.071 15.5747 166.836 15.164C167.602 14.7533 167.984 13.988 167.984 12.868C167.984 12.3267 167.882 11.8787 167.676 11.524C167.49 11.1693 167.21 10.8893 166.836 10.684C166.482 10.46 166.043 10.3107 165.52 10.236C164.998 10.1427 164.419 10.096 163.784 10.096ZM175.7 26V6.596H188.804V10.264H180.068V14.072H187.824V17.656H180.068V22.332H189.448V26H175.7Z" fill="#333333"/>
<path fill-rule="evenodd" clip-rule="evenodd" d="M4.70739 0H28.2444C30.8442 0 32.9518 2.11066 32.9518 4.71429V28.2857C32.9518 30.8893 30.8442 33 28.2444 33H4.70739C2.10757 33 0 30.8893 0 28.2857V4.71429C0 2.11066 2.10757 0 4.70739 0Z" fill="#333333"/>
</svg>
