<svg width="174" height="194" viewBox="0 0 174 194" fill="none" xmlns="http://www.w3.org/2000/svg">
<path fill-rule="evenodd" clip-rule="evenodd" d="M95.9801 0C146.177 0 174 51.981 174 102.205C174 149.262 143.013 194 95.9801 194C44.1277 194 0 154.085 0 102.205C0 47.4367 41.2414 0 95.9801 0Z" fill="url(#paint0_linear)"/>
<path d="M116.426 134.443H111.446L108.126 127.803H100.46V112.863H97.14V127.803H83.86V112.863H80.54V127.803H72.8741L69.5541 134.443H64.5741L57.9341 147.723H123.066L116.426 134.443ZM74.9259 131.123H106.074L107.734 134.443H73.2659L74.9259 131.123ZM66.6258 137.763H114.374L117.694 144.403H63.3058L66.6258 137.763Z" fill="white"/>
<path d="M95.48 92.256L90.5 87.276L85.52 92.256V78.0032H82.2V100.27L90.5 91.9705L98.8 100.27V78.0032H95.48V92.256Z" fill="white"/>
<path d="M65.9221 61.4032H75.56V58.0832H63.94H61.958H61.9463C54.8083 58.0832 49 63.8915 49 71.0279C49 75.9631 51.7407 80.4002 56.1563 82.6064L65.8689 87.4619C67.7497 88.4048 68.92 90.2972 68.92 92.402C68.92 95.4465 66.4433 97.9232 63.3988 97.9232H60.62V101.243H63.3988C67.3131 101.243 70.6049 98.6685 71.7636 95.1361C73.4518 99.1765 75.3243 103.146 77.4209 107.015L80.3392 105.433C73.8552 93.4711 69.3533 80.616 66.9612 67.2248L65.9221 61.4032ZM65.2481 75.1414L60.3112 72.6729C59.4779 72.2563 58.96 71.418 58.96 70.4867C58.96 69.1405 60.0556 68.0432 61.4035 68.0432H63.7408C64.1707 70.4286 64.687 72.7908 65.2481 75.1414ZM67.353 84.4938L57.6403 79.6383C54.3601 77.9966 52.32 74.6981 52.32 71.0279C52.32 65.7209 56.6393 61.4032 61.9463 61.4032H62.5506L63.1432 64.7232H61.4035C58.2263 64.7232 55.64 67.3095 55.64 70.4867C55.64 72.6846 56.8601 74.66 58.8255 75.641L66.3337 79.3943C66.8367 81.2269 67.3829 83.0446 67.9639 84.8524C67.7613 84.7312 67.5671 84.6 67.353 84.4938Z" fill="white"/>
<path d="M119.054 58.0832H119.042H117.06H105.44V61.4032H115.078L114.039 67.2232C111.648 80.6144 107.147 93.4694 100.661 105.431L103.579 107.013C105.677 103.144 107.548 99.1749 109.236 95.1344C110.397 98.6686 113.687 101.243 117.601 101.243H120.38V97.9232H117.601C114.557 97.9232 112.08 95.4465 112.08 92.4021C112.08 90.2972 113.25 88.4048 115.133 87.4635L124.845 82.608C129.259 80.4002 132 75.9631 132 71.0279C132 63.8915 126.192 58.0832 119.054 58.0832ZM119.597 68.0432C120.944 68.0432 122.04 69.1405 122.04 70.4867C122.04 71.418 121.522 72.2546 120.69 72.6713L115.754 75.1397C116.313 72.7908 116.829 70.4286 117.259 68.0432H119.597ZM123.36 79.6366L113.647 84.4921C113.433 84.6 113.239 84.7312 113.036 84.8524C113.619 83.0446 114.163 81.2269 114.666 79.3943L122.175 75.641C124.14 74.66 125.36 72.6846 125.36 70.4867C125.36 67.3095 122.774 64.7232 119.597 64.7232H117.857L118.449 61.4032H119.054C124.361 61.4032 128.68 65.7209 128.68 71.0279C128.68 74.6981 126.64 77.9966 123.36 79.6366Z" fill="white"/>
<path d="M102.12 79.6632H105.44V82.9832H102.12V79.6632Z" fill="white"/>
<path d="M102.12 86.3032H105.44V89.6232H102.12V86.3032Z" fill="white"/>
<path d="M75.5599 79.6632H78.8799V82.9832H75.5599V79.6632Z" fill="white"/>
<path d="M75.5599 86.3032H78.8799V89.6232H75.5599V86.3032Z" fill="white"/>
<path d="M108.76 63.0631C108.76 61.7899 108.275 60.5964 107.435 59.695C107.865 58.5396 107.857 57.2531 107.371 56.0779C106.884 54.9009 105.98 53.9829 104.857 53.47C104.813 52.2383 104.311 51.0514 103.41 50.15C102.51 49.2503 101.323 48.7506 100.093 48.7058C99.5785 47.5853 98.6639 46.6806 97.4886 46.1926C96.3117 45.7062 95.0268 45.6962 93.8681 46.1262C92.0621 44.4462 88.9363 44.4462 87.1302 46.1262C85.9732 45.6946 84.6867 45.7045 83.5097 46.1926C82.3345 46.6789 81.4181 47.5836 80.9052 48.7058C79.6751 48.7506 78.4882 49.2519 77.5869 50.1517C76.6871 51.0514 76.1858 52.2383 76.141 53.47C75.0188 53.9829 74.1141 54.8993 73.6294 56.0762C73.1414 57.2515 73.1331 58.5396 73.563 59.695C72.7247 60.5964 72.24 61.7899 72.24 63.0631C72.24 64.3364 72.7247 65.5299 73.5647 66.4313C73.1347 67.5866 73.143 68.8748 73.6311 70.0484C74.1175 71.2254 75.0205 72.1433 76.1427 72.6563C76.1875 73.888 76.6888 75.0732 77.5902 75.9763C78.4899 76.876 79.6768 77.3757 80.9069 77.4205C81.4215 78.541 82.3361 79.4457 83.5114 79.9337C84.69 80.4201 85.9748 80.4301 87.1319 80.0001C88.0349 80.8384 89.2268 81.3232 90.5 81.3232C91.7732 81.3232 92.9651 80.8384 93.8681 79.9985C95.0235 80.4284 96.31 80.4185 97.4886 79.9321C98.6639 79.4457 99.5802 78.541 100.093 77.4188C101.323 77.374 102.51 76.8727 103.413 75.973C104.311 75.0732 104.813 73.8863 104.857 72.6546C105.98 72.1417 106.883 71.2254 107.369 70.0484C107.857 68.8731 107.865 67.585 107.435 66.4296C108.275 65.5299 108.76 64.3364 108.76 63.0631ZM90.5 71.3631C85.9167 71.3631 82.2 67.6464 82.2 63.0631C82.2 58.4799 85.9167 54.7631 90.5 54.7631C95.0833 54.7631 98.8 58.4799 98.8 63.0631C98.8 67.6464 95.0833 71.3631 90.5 71.3631Z" fill="#A857A2"/>
<path d="M90.5 73.0232C85.0071 73.0232 80.54 68.5562 80.54 63.0632C80.54 57.5703 85.0071 53.1032 90.5 53.1032C95.993 53.1032 100.46 57.5703 100.46 63.0632C100.46 68.5562 95.993 73.0232 90.5 73.0232ZM90.5 56.4232C86.8381 56.4232 83.86 59.4013 83.86 63.0632C83.86 66.7252 86.8381 69.7032 90.5 69.7032C94.162 69.7032 97.14 66.7252 97.14 63.0632C97.14 59.4013 94.162 56.4232 90.5 56.4232Z" fill="white"/>
<path d="M107.1 114.523H73.9V104.563H107.1V114.523Z" fill="#A857A2"/>
<defs>
<linearGradient id="paint0_linear" x1="0" y1="0" x2="192.857" y2="172.975" gradientUnits="userSpaceOnUse">
<stop stop-color="#ED81E5"/>
<stop offset="1" stop-color="#A857A2"/>
</linearGradient>
</defs>
</svg>
