<svg width="174" height="194" viewBox="0 0 174 194" fill="none" xmlns="http://www.w3.org/2000/svg">
<path fill-rule="evenodd" clip-rule="evenodd" d="M95.9801 0C146.177 0 174 51.981 174 102.205C174 149.262 143.013 194 95.9801 194C44.1277 194 0 154.085 0 102.205C0 47.4367 41.2414 0 95.9801 0Z" fill="url(#paint0_linear)"/>
<path d="M59.7211 58.3129H119.279V134.687H59.7211V58.3129Z" fill="#A857A2"/>
<path d="M121.303 53.3065C121.303 48.7263 117.549 45 112.934 45H66.0661C61.4513 45 57.6969 48.7263 57.6969 53.3065V106.468H44.3061V109.79H57.6969V139.694C57.6969 144.274 61.4513 148 66.0661 148H112.934C117.549 148 121.303 144.274 121.303 139.694V103.145H134.694V99.8226H121.303V53.3065ZM61.0446 53.3065C61.0446 50.5587 63.2976 48.3226 66.0661 48.3226H112.934C115.702 48.3226 117.955 50.5587 117.955 53.3065V99.8226H105.204L99.446 111.256L92.5816 99.3342L86.2963 114.93L77.8768 89.8615L71.6015 106.468H61.0446V53.3065ZM117.955 139.694C117.955 142.441 115.702 144.677 112.934 144.677H66.0661C63.2976 144.677 61.0446 142.441 61.0446 139.694V109.79H73.9215L77.6893 99.8159L86.0084 124.586L93.1138 106.956L99.6402 118.293L107.273 103.145H117.955V139.694Z" fill="white"/>
<path d="M81.4422 138.19H97.5578V141.694H81.4422V138.19Z" fill="white"/>
<path d="M38 106.66H41.5034V109.463H38V106.66Z" fill="white"/>
<path d="M137.497 99.6531H141V103.156H137.497V99.6531Z" fill="white"/>
<path d="M89.5 96.8503L105.126 81.4818C107.023 79.6157 108.068 77.1353 108.068 74.4973C108.068 69.0501 103.563 64.619 98.0244 64.619C95.3422 64.619 92.8203 65.6467 90.923 67.5128L89.5 68.9123L88.077 67.5128C86.1797 65.6467 83.6578 64.619 80.9756 64.619C75.4373 64.619 70.932 69.0501 70.932 74.4973C70.932 77.1353 71.9769 79.6157 73.8742 81.4818L89.5 96.8503ZM80.9756 67.9394C82.7564 67.9394 84.4309 68.6218 85.6902 69.8603L89.5 73.6074L93.3098 69.8603C94.5691 68.6218 96.2436 67.9394 98.0244 67.9394C101.701 67.9394 104.692 70.8813 104.692 74.4973C104.692 76.2488 103.998 77.8957 102.739 79.1342L89.5 92.1552L76.261 79.1342C75.0017 77.8957 74.308 76.2488 74.308 74.4973C74.308 70.8813 77.2991 67.9394 80.9756 67.9394Z" fill="white"/>
<path d="M110.871 64.619H114.374V68.1224H110.871V64.619Z" fill="white"/>
<path d="M110.871 71.6259H114.374V75.1293H110.871V71.6259Z" fill="white"/>
<path d="M110.871 77.9319H114.374V81.4353H110.871V77.9319Z" fill="white"/>
<path d="M64.6259 64.619H68.1293V68.1224H64.6259V64.619Z" fill="white"/>
<path d="M64.6259 71.6259H68.1293V75.1293H64.6259V71.6259Z" fill="white"/>
<path d="M64.6259 77.9319H68.1293V81.4353H64.6259V77.9319Z" fill="white"/>
<defs>
<linearGradient id="paint0_linear" x1="0" y1="0" x2="192.857" y2="172.975" gradientUnits="userSpaceOnUse">
<stop stop-color="#ED81E5"/>
<stop offset="1" stop-color="#A857A2"/>
</linearGradient>
</defs>
</svg>
