<svg width="201" height="194" viewBox="0 0 201 194" fill="none" xmlns="http://www.w3.org/2000/svg">
<path fill-rule="evenodd" clip-rule="evenodd" d="M108.109 0.0929044C147.466 1.48957 179.436 28.6904 192.456 66.0546C206.591 106.618 205.582 155.357 171.036 180.678C136.359 206.095 90.2853 191.668 55.4441 166.479C19.9332 140.806 -10.0614 101.241 3.20169 59.3385C16.6477 16.8581 63.7934 -1.47975 108.109 0.0929044Z" fill="url(#paint0_linear)"/>
<path d="M122.515 96.3549V99.685C122.515 103.363 119.527 106.345 115.842 106.345H99.1585C95.4732 106.345 92.4852 103.363 92.4852 99.685V96.3549H84.1437V111.34C84.1437 122.208 91.536 131.537 102.12 134.028L102.308 134.073H102.495V129.656H112.505V134.072L112.887 134.027C123.467 131.532 130.856 122.203 130.856 111.34V96.3549H122.515Z" fill="#A857A2"/>
<path d="M100.972 134.654C100.972 138.334 103.9 141.327 107.5 141.327C111.1 141.327 114.028 138.334 114.028 134.654V127.98H100.972V134.654ZM104.236 131.317H110.764V134.654C110.764 136.494 109.3 137.99 107.5 137.99C105.7 137.99 104.236 136.494 104.236 134.654V131.317Z" fill="white"/>
<path d="M146.08 96.6562L144.211 76.5645H146.137L145.668 74.5294C141.591 56.8666 126.253 45 107.5 45C88.7474 45 73.4087 56.8666 69.3319 74.5294L68.8634 76.5645H70.7888L68.9199 96.6578C61.1317 100.075 56 107.832 56 116.435V143.016C56 145.764 58.2361 148 60.9839 148H154.016C156.764 148 159 145.764 159 143.016V116.435C159 107.832 153.868 100.075 146.08 96.6562ZM73.51 83.2097H78.871L76.0119 144.677H67.7918L73.51 83.2097ZM83.8665 76.5645L84.1871 75.3185C86.7837 65.2927 96.371 58.2903 107.5 58.2903C118.629 58.2903 128.216 65.2927 130.811 75.3185L131.134 76.5645H132.496L133.346 94.8387H81.6553L82.5059 76.5645H83.8665ZM94.2097 98.1613H120.79V99.8226C120.79 102.57 118.554 104.806 115.806 104.806H99.1935C96.4458 104.806 94.2097 102.57 94.2097 99.8226V98.1613ZM81.5008 98.1613H90.8871V99.8226C90.8871 104.403 94.6134 108.129 99.1935 108.129H115.806C120.387 108.129 124.113 104.403 124.113 99.8226V98.1613H133.499L135.662 144.677H79.3378L81.5008 98.1613ZM136.131 83.2097H141.492L147.21 144.677H138.99L136.131 83.2097ZM141.181 79.8871H135.975L135.82 76.5645H140.872L141.181 79.8871ZM107.5 48.3226C123.94 48.3226 137.506 58.2505 141.897 73.2419H133.67C130.253 62.4186 119.682 54.9677 107.5 54.9677C95.3178 54.9677 84.747 62.4186 81.3297 73.2419H73.103C77.4938 58.2505 91.0599 48.3226 107.5 48.3226ZM79.1783 76.5645L79.0238 79.8871H73.8173L74.1263 76.5645H79.1783ZM59.3226 143.016V116.435C59.3226 109.8 62.9326 103.77 68.5577 100.56L64.4526 144.677H60.9839C60.0668 144.677 59.3226 143.931 59.3226 143.016ZM155.677 143.016C155.677 143.931 154.933 144.677 154.016 144.677H150.547L146.444 100.562C152.067 103.771 155.677 109.804 155.677 116.435V143.016Z" fill="white"/>
<path d="M105.904 111.442H109.096V114.634H105.904V111.442Z" fill="white"/>
<path d="M105.904 118.115H109.096V121.887H105.904V118.115Z" fill="white"/>
<defs>
<linearGradient id="paint0_linear" x1="0" y1="0" x2="193.878" y2="200.874" gradientUnits="userSpaceOnUse">
<stop stop-color="#ED81E5"/>
<stop offset="1" stop-color="#A857A2"/>
</linearGradient>
</defs>
</svg>
