<svg width="200" height="196" viewBox="0 0 200 196" fill="none" xmlns="http://www.w3.org/2000/svg">
<path fill-rule="evenodd" clip-rule="evenodd" d="M109.547 0.679069C149.183 2.52462 177.179 34.6413 190.034 72.1623C203.707 112.073 207.295 161.011 172.81 185.333C139.206 209.033 97.3243 185.051 63.8625 161.15C29.1876 136.383 -9.54607 104.384 2.11817 63.4125C14.6672 19.333 63.745 -1.45358 109.547 0.679069Z" fill="url(#paint0_linear)"/>
<path d="M94.5997 71.9213H113.441V116.003H94.5997V71.9213Z" fill="#883882"/>
<path d="M76.1138 70.4994V84.0083H89.3324V75.8597L92.8222 72.8878L91.1302 70.8128L89.3324 72.3434V70.4994H76.1138ZM86.6887 81.3065H78.7575V73.2012H86.6887V74.5953L84.1269 76.777L82.3371 74.9479L80.468 76.858L83.9657 80.4325L86.6887 78.1117V81.3065Z" fill="white"/>
<path d="M89.2672 86.4968H76.1138V100.006H89.2672V86.4968ZM86.6365 97.3039H78.7445V89.1986H86.6365V97.3039Z" fill="white"/>
<path d="M76.1138 116.003H89.2672V102.494H76.1138V116.003ZM78.7445 105.196H86.6365V113.301H78.7445V105.196Z" fill="white"/>
<path d="M94.5997 70.4994H113.441V73.3434H94.5997V70.4994Z" fill="white"/>
<path d="M94.5997 75.8318H113.441V78.6758H94.5997V75.8318Z" fill="white"/>
<path d="M94.5997 81.1642H108.109V84.0082H94.5997V81.1642Z" fill="white"/>
<path d="M110.597 81.1642H113.441V84.0082H110.597V81.1642Z" fill="white"/>
<path d="M94.5997 86.4968H113.441V89.3407H94.5997V86.4968Z" fill="white"/>
<path d="M94.5997 91.8292H113.441V94.6732H94.5997V91.8292Z" fill="white"/>
<path d="M94.5997 97.1617H108.109V100.006H94.5997V97.1617Z" fill="white"/>
<path d="M110.597 97.1617H113.441V100.006H110.597V97.1617Z" fill="white"/>
<path d="M94.5997 102.494H113.441V105.338H94.5997V102.494Z" fill="white"/>
<path d="M94.5997 107.827H113.441V110.671H94.5997V107.827Z" fill="white"/>
<path d="M94.5997 113.159H108.109V116.003H94.5997V113.159Z" fill="white"/>
<path d="M110.597 113.159H113.441V116.003H110.597V113.159Z" fill="white"/>
<path d="M121.262 74.4098H124.004C124.004 70.7694 127.08 67.8077 130.86 67.8077V65.1668C125.568 65.1668 121.262 69.3129 121.262 74.4098Z" fill="white"/>
<path d="M121.262 117.425H124.004C124.004 113.645 127.08 110.569 130.86 110.569V107.827C125.568 107.827 121.262 112.132 121.262 117.425Z" fill="white"/>
<path d="M137.42 104.216V87.6312C142.318 85.1299 145.436 80.0871 145.436 74.5446C145.436 66.4407 138.843 59.8466 130.74 59.8466C129.132 59.8466 127.587 60.1152 126.138 60.5962C124.799 56.9885 121.337 54.5019 117.38 54.5019H106.692V57.1743H117.38C120.255 57.1743 122.755 59.0155 123.673 61.6652C122.839 62.1248 122.055 62.6633 121.329 63.2699C121.042 61.3378 119.39 59.8466 117.38 59.8466H106.692V62.519H117.38C118.116 62.519 118.716 63.1189 118.716 63.8552V66.12C117.038 68.5078 116.044 71.4099 116.044 74.5446C116.044 77.6165 117.029 80.5147 118.716 82.9318V108.914C117.029 111.331 116.044 114.231 116.044 117.301C116.044 119.693 116.631 121.947 117.649 123.945C117.563 123.965 117.479 123.983 117.38 123.983H71.9567C71.2206 123.983 70.6208 123.383 70.6208 122.647V63.8552C70.6208 63.1189 71.2206 62.519 71.9567 62.519H82.6446V59.8466H71.9567C69.747 59.8466 67.9488 61.6451 67.9488 63.8552V122.647C67.9488 124.857 69.747 126.656 71.9567 126.656H117.38C117.987 126.656 118.573 126.511 119.109 126.251C119.669 126.978 120.295 127.649 120.979 128.259C119.913 128.947 118.679 129.328 117.38 129.328H71.9567C68.2734 129.328 65.2768 126.331 65.2768 122.647V63.8552C65.2768 60.1713 68.2734 57.1743 71.9567 57.1743H82.6446V54.5019H71.9567C66.7998 54.5019 62.6049 58.6975 62.6049 63.8552V122.647C62.6049 127.805 66.7998 132 71.9567 132H117.38C119.545 132 121.587 131.266 123.245 129.923C125.443 131.233 128.001 132 130.74 132C138.843 132 145.436 125.406 145.436 117.302C145.436 111.76 142.318 106.716 137.42 104.216V104.216ZM124.06 87.6312V104.215C123.089 104.71 122.21 105.332 121.388 106.012V85.834C122.21 86.5141 123.089 87.1355 124.06 87.6312ZM130.74 129.328C124.111 129.328 118.716 123.933 118.716 117.302C118.716 112.526 121.548 108.2 125.931 106.284L126.732 105.934V85.9129L125.931 85.5628C121.548 83.6467 118.716 79.3215 118.716 74.5446C118.716 67.9145 124.111 62.519 130.74 62.519C137.369 62.519 142.764 67.9145 142.764 74.5446C142.764 79.3215 139.932 83.6467 135.55 85.5628L134.748 85.9129V105.934L135.55 106.284C139.932 108.2 142.764 112.526 142.764 117.302C142.764 123.933 137.369 129.328 130.74 129.328Z" fill="white"/>
<path d="M104.109 65.1668H85.4456C83.2406 65.1668 81.4462 63.3725 81.4462 61.1675V55.835C81.4462 53.63 83.2406 51.8357 85.4456 51.8357H87.0067C87.5572 50.2839 89.0397 49.1694 90.7781 49.1694H98.7768C100.515 49.1694 101.998 50.2839 102.548 51.8357H104.109C106.314 51.8357 108.109 53.63 108.109 55.835V61.1675C108.109 63.3725 106.314 65.1668 104.109 65.1668Z" fill="#883882"/>
<defs>
<linearGradient id="paint0_linear" x1="0" y1="0.530273" x2="194.486" y2="200.312" gradientUnits="userSpaceOnUse">
<stop stop-color="#ED81E5"/>
<stop offset="1" stop-color="#A857A2"/>
</linearGradient>
</defs>
</svg>
