<svg width="71" height="68" viewBox="0 0 71 68" fill="none" xmlns="http://www.w3.org/2000/svg">
<path d="M1.09895 58.6123C0.66018 58.9477 0.576393 59.5753 0.911805 60.0141L6.37766 67.1642C6.71307 67.603 7.34067 67.6867 7.77944 67.3513C8.21821 67.0159 8.30199 66.3883 7.96658 65.9495L3.10804 59.5939L9.46372 54.7353C9.90248 54.3999 9.98627 53.7723 9.65086 53.3336C9.31545 52.8948 8.68785 52.811 8.24908 53.1464L1.09895 58.6123ZM70.6612 2.05137C70.7855 1.51327 70.4502 0.976228 69.9121 0.851847C69.374 0.727466 68.8369 1.06285 68.7125 1.60095L70.6612 2.05137ZM1.57394 60.3979C3.10092 60.6018 4.77202 60.7281 6.5588 60.7581L6.59236 58.7584C4.87802 58.7296 3.28427 58.6085 1.83859 58.4155L1.57394 60.3979ZM16.4914 59.9911C19.5807 59.4758 22.8241 58.6817 26.1323 57.5461L25.4829 55.6545C22.2833 56.7528 19.1473 57.5205 16.1623 58.0184L16.4914 59.9911ZM35.24 53.5593C38.0489 52.0444 40.8461 50.2498 43.5787 48.1387L42.3559 46.556C39.7122 48.5985 37.0068 50.3342 34.2907 51.799L35.24 53.5593ZM50.9338 41.46C53.1123 39.1476 55.2079 36.5843 57.1887 33.7483L55.5491 32.6031C53.6236 35.3597 51.5894 37.8473 49.4781 40.0886L50.9338 41.46ZM62.3066 25.2754C63.7658 22.4713 65.124 19.4632 66.3627 16.2385L64.4957 15.5213C63.2832 18.6777 61.9559 21.6169 60.5324 24.3522L62.3066 25.2754ZM69.4477 6.83793C69.8776 5.28445 70.2826 3.68926 70.6612 2.05137L68.7125 1.60095C68.3402 3.21156 67.9423 4.77907 67.5201 6.30451L69.4477 6.83793Z" fill="white"/>
</svg>
