<svg width="135" height="78" viewBox="0 0 135 78" fill="none" xmlns="http://www.w3.org/2000/svg">
<path d="M0.832436 64.2217C0.172946 64.723 0.0447598 65.6641 0.546123 66.3236L8.71631 77.0706C9.21767 77.7301 10.1587 77.8582 10.8182 77.3569C11.4777 76.8555 11.6059 75.9145 11.1045 75.255L3.84214 65.7021L13.395 58.4397C14.0545 57.9383 14.1827 56.9973 13.6813 56.3378C13.18 55.6783 12.2389 55.5501 11.5794 56.0515L0.832436 64.2217ZM133.95 2.54587C134.298 1.79408 133.97 0.902529 133.218 0.554533C132.467 0.206537 131.575 0.533877 131.227 1.28567L133.95 2.54587ZM1.53778 66.902C17.6443 69.096 43.516 68.5122 68.9635 59.6575C94.4413 50.7922 119.574 33.6016 133.95 2.54587L131.227 1.28567C117.274 31.4299 92.8886 48.156 67.9776 56.8241C43.0364 65.5027 17.6486 66.0689 1.94269 63.9295L1.53778 66.902Z" fill="white"/>
</svg>
