<svg width="139" height="157" viewBox="0 0 139 157" fill="none" xmlns="http://www.w3.org/2000/svg">
<path d="M69.3238 155.496H130.434C130.434 125.926 87.4943 113.069 69.3238 113.069C48.2574 113.069 9.1441 127.464 9.14355 155.529L69.3238 155.496Z" fill="#181F23"/>
<path d="M130.434 155.496V155.996C130.71 155.996 130.934 155.772 130.934 155.496H130.434ZM69.3238 155.496V154.996H69.3235L69.3238 155.496ZM9.14355 155.529L8.64355 155.529C8.64355 155.662 8.69627 155.789 8.7901 155.883C8.88393 155.977 9.01118 156.03 9.14384 156.029L9.14355 155.529ZM130.434 154.996H69.3238V155.996H130.434V154.996ZM69.3235 154.996L9.14327 155.029L9.14384 156.029L69.3241 155.996L69.3235 154.996ZM69.3238 113.569C78.3245 113.569 93.5218 116.762 106.458 123.636C119.404 130.514 129.934 140.989 129.934 155.496H130.934C130.934 140.433 119.993 129.695 106.927 122.753C93.8513 115.805 78.4935 112.569 69.3238 112.569V113.569ZM9.64355 155.529C9.64382 141.759 19.2372 131.277 31.5824 124.209C43.9206 117.144 58.8801 113.569 69.3238 113.569V112.569C58.7011 112.569 43.5708 116.192 31.0855 123.341C18.6074 130.486 8.64383 141.234 8.64355 155.529L9.64355 155.529Z" fill="white"/>
<path d="M114.11 121.687C114.11 131.181 108.993 138.827 100.738 144.121C92.4733 149.421 81.0829 152.343 68.6481 152.343C56.2135 152.343 45.1652 149.421 37.2419 144.126C29.3312 138.839 24.5381 131.195 24.5381 121.687C24.5381 102.669 44.4639 87.0522 69.324 87.0522C94.1841 87.0522 114.11 102.669 114.11 121.687Z" fill="#181F23" stroke="white"/>
<path d="M54.5552 125.196L47.7988 142.92M90.3642 142.92L83.6078 125.196M68.7437 149.781V127.483" stroke="white" stroke-linecap="round" stroke-linejoin="round"/>
<path d="M94.3307 114.469C94.3307 122.196 83.134 128.46 69.3221 128.46C55.5102 128.46 44.3135 122.196 44.3135 114.469C44.3135 106.742 55.5102 100.478 69.3221 100.478C83.134 100.478 94.3307 106.742 94.3307 114.469Z" fill="white"/>
<path d="M93.8307 114.469C93.8307 118.07 91.216 121.434 86.7617 123.926C82.3237 126.409 76.1589 127.96 69.3221 127.96V128.96C76.2972 128.96 82.6367 127.38 87.25 124.799C91.8471 122.227 94.8307 118.595 94.8307 114.469H93.8307ZM69.3221 127.96C62.4853 127.96 56.3205 126.409 51.8825 123.926C47.4282 121.434 44.8135 118.07 44.8135 114.469H43.8135C43.8135 118.595 46.7971 122.227 51.3942 124.799C56.0075 127.38 62.347 128.96 69.3221 128.96V127.96ZM44.8135 114.469C44.8135 110.868 47.4282 107.504 51.8825 105.012C56.3205 102.529 62.4853 100.978 69.3221 100.978V99.9775C62.347 99.9775 56.0075 101.558 51.3942 104.139C46.7971 106.711 43.8135 110.343 43.8135 114.469H44.8135ZM69.3221 100.978C76.1589 100.978 82.3237 102.529 86.7617 105.012C91.216 107.504 93.8307 110.868 93.8307 114.469H94.8307C94.8307 110.343 91.8471 106.711 87.25 104.139C82.6367 101.558 76.2972 99.9775 69.3221 99.9775V100.978Z" fill="black"/>
<path d="M54.623 97.6685H82.623V110.668C82.623 118.4 76.355 124.668 68.623 124.668C60.8911 124.668 54.623 118.4 54.623 110.668V97.6685Z" fill="white" stroke="black"/>
<path d="M23.3623 59.5167C23.3623 50.3244 30.572 49.8287 34.1768 50.7299L36.7908 53.0912L37.5247 66.8515L36.2046 68.3037C31.9238 69.2049 23.3623 68.7091 23.3623 59.5167Z" fill="white" stroke="white" stroke-linecap="round" stroke-linejoin="round"/>
<path d="M115.285 59.5167C115.285 50.3244 108.075 49.8287 104.471 50.7299L98.0697 55.6598L100.822 67.7689L102.443 68.3037C106.724 69.2049 115.285 68.7091 115.285 59.5167Z" fill="white" stroke="white" stroke-linecap="round" stroke-linejoin="round"/>
<path d="M68.6486 102.099C96.3614 102.099 104.471 68.3034 104.471 49.3779V35.1838L101.768 32.4802L43.64 20.9897L41.0111 24.8366L36.4243 27.5886L34.1768 32.1754L34.177 39.1473L34.1768 49.3779C34.1768 71.6829 42.9641 102.099 68.6486 102.099Z" fill="white" stroke="#181F23" stroke-linecap="round" stroke-linejoin="round"/>
<path d="M38.9082 51.4058H63.2409V60.6276C63.2409 64.4936 60.1069 67.6276 56.2409 67.6276H45.9082C42.0422 67.6276 38.9082 64.4936 38.9082 60.6276V51.4058Z" stroke="#181F23" stroke-linecap="round" stroke-linejoin="round"/>
<path d="M74.0537 51.4058H98.3864V60.6276C98.3864 64.4936 95.2524 67.6276 91.3864 67.6276H81.0537C77.1877 67.6276 74.0537 64.4936 74.0537 60.6276V51.4058Z" stroke="#181F23" stroke-linecap="round" stroke-linejoin="round"/>
<path d="M62.5645 55.4605C64.5359 53.4202 69.3235 50.7293 74.7308 55.4605" stroke="#181F23" stroke-linecap="round" stroke-linejoin="round"/>
<path d="M67.1196 61.0649C66.0666 65.2915 64.2765 73.9751 65.5401 74.8972C66.8037 75.8194 71.6822 75.2815 73.9634 74.8972" stroke="#181F23" stroke-linecap="round" stroke-linejoin="round"/>
<path d="M59.5137 84.6836H78.9691C79.0514 84.6836 79.1181 84.7503 79.1181 84.8326C79.1181 88.8646 75.8495 92.1333 71.8174 92.1333H66.9633C62.849 92.1333 59.5137 88.7979 59.5137 84.6836Z" fill="#181F23" stroke="#181F23" stroke-linecap="round" stroke-linejoin="round"/>
<path d="M40.46 43.7292C43.212 41.9556 50.7344 39.5827 58.8071 44.2796" stroke="#181F23" stroke-linecap="round" stroke-linejoin="round"/>
<path d="M97.3359 43.7292C94.5839 41.9556 87.0615 39.5827 78.9888 44.2796" stroke="#181F23" stroke-linecap="round" stroke-linejoin="round"/>
<circle cx="51.0747" cy="58.1641" r="2.70364" fill="#181F23"/>
<circle cx="86.2222" cy="58.1641" r="2.70364" fill="#181F23"/>
<path d="M32.8271 2.06415C48.5983 1.38824 81.4925 0.441966 86.8998 2.06415C93.6589 4.09187 109.205 10.1751 109.205 36.5355C110.829 39.2392 111.457 47.3501 111.231 51.4055C108.527 50.0537 105.598 50.5043 104.471 50.7296V36.5355H58.5116C57.0552 36.5355 44.4416 31.6542 37.4488 19.6378C34.7054 14.9235 32.8271 9.11097 32.8271 2.06415Z" fill="#181F23"/>
<path d="M109.205 36.5355C109.205 10.1751 93.6589 4.09187 86.8998 2.06415C81.4925 0.441966 48.5983 1.38824 32.8271 2.06415C32.8271 9.11097 34.7054 14.9235 37.4488 19.6378M109.205 36.5355C107.749 36.5355 106.16 36.5355 104.471 36.5355M109.205 36.5355C110.829 39.2392 111.457 47.3501 111.231 51.4055C108.527 50.0537 105.598 50.5043 104.471 50.7296V36.5355M41.9203 25.721C39.6673 25.2704 34.1789 27.3432 34.1789 36.5355C34.1789 45.7279 34.1769 50.0537 34.1769 50.7296C32.8251 50.7296 28.7716 50.7296 28.7716 50.7296C28.7716 50.7296 28.0937 46.6742 28.0938 40.591C28.0938 36.5355 28.7716 27.0728 37.4488 19.6378M37.4488 19.6378C44.4416 31.6542 57.0552 36.5355 58.5116 36.5355C59.9882 36.5355 87.3398 36.5355 104.471 36.5355" stroke="white" stroke-linecap="round" stroke-linejoin="round"/>
<path d="M0.84375 155.529L138.123 155.529" stroke="white" stroke-linecap="round" stroke-linejoin="round"/>
</svg>
