<svg width="202" height="248" viewBox="0 0 202 248" fill="none" xmlns="http://www.w3.org/2000/svg">
<path d="M82.7443 8.1429C82.7443 8.1429 82.7443 -1.00457 98.4474 0.824924C114.151 2.65442 120.731 16.5281 125.475 19.4492C130.22 22.3703 138.989 24.9377 139.355 29.3101C139.721 33.6826 135.696 35.5182 139.721 38.8052C143.746 42.0922 149.917 45.0316 148.484 49.4163C147.051 53.801 142.996 58.1796 144.825 61.1067C146.655 64.0339 151.765 66.9489 147.02 70.2542C142.276 73.5595 140.081 74.273 140.081 78.6516C140.081 83.0302 141.91 85.9696 137.519 87.421C133.129 88.8724 130.586 85.9574 128.024 91.4336C125.463 96.9099 122.914 98.3735 118.529 97.2758C114.144 96.1781 107.942 94.3547 105.723 95.8183C103.503 97.2819 96.5752 101.307 93.6724 99.1053C90.7696 96.9038 88.1839 93.6168 83.8115 95.4463C79.439 97.2758 75.7739 99.831 73.9505 96.544C72.1271 93.257 73.9505 92.5252 67.0106 91.0555C60.0707 89.5859 57.5155 89.964 57.5155 84.1218C57.5155 78.2796 57.8814 76.8038 54.5945 74.2608C51.3075 71.7178 48.3864 72.7972 49.478 66.5891C50.5696 60.381 52.765 58.9174 51.6734 52.7094C50.5818 46.5013 53.5028 44.312 55.6921 42.4825C57.8814 40.653 60.4366 37.3721 59.7048 34.0851C58.973 30.7981 53.4968 30.4261 58.9791 24.59C64.4615 18.754 67.0106 20.5713 68.1266 16.1866C69.2426 11.8019 72.8833 2.30072 82.7443 8.1429Z" fill="#181F23" stroke="white" stroke-linecap="round" stroke-linejoin="round"/>
<path d="M96.7633 19.1387C99.0136 22.7001 100.752 26.7189 104.374 30.1156C109.606 34.9943 123.01 39.2631 123.663 43.849C124.315 48.435 122.029 51.0389 126.602 54.9602C131.176 58.8814 138.372 59.8388 138.372 63.7905C138.372 67.7422 136.415 69.0229 137.39 71.9623" stroke="white" stroke-miterlimit="10"/>
<path d="M87.0423 14.7474C87.0423 14.7474 88.6766 10.4785 93.2565 14.7474C93.6102 15.0767 93.9456 15.4182 94.2627 15.7658" stroke="white" stroke-miterlimit="10"/>
<path d="M123.979 33.4326C128.003 34.4083 131.181 35.1097 131.51 37.9637C132.169 43.5192 131.187 47.1111 135.108 48.7516C139.029 50.392 144.255 53.0204 142.627 56.2708C140.999 59.5212 140.67 60.5396 140.993 61.8264" stroke="white" stroke-miterlimit="10"/>
<path d="M87.7147 9.51468C87.7147 9.51468 96.8622 3.6359 101.741 8.86216C106.62 14.0884 104.357 20.6319 111.876 27.8279C113.786 29.6061 116.04 30.9739 118.499 31.8467" stroke="white" stroke-miterlimit="10"/>
<path d="M55.8994 55.8809C55.3507 56.7328 54.5928 57.4299 53.6979 57.9055" stroke="white" stroke-miterlimit="10"/>
<path d="M81.1592 17.7053C81.1592 17.7053 72.9874 15.0891 71.0299 19.6629C69.0723 24.2366 68.0844 32.4144 64.4864 33.7256C60.8884 35.0367 59.2601 36.9943 59.2601 44.1842C59.2644 46.5015 58.919 48.8061 58.2356 51.0204" stroke="white" stroke-miterlimit="10"/>
<path d="M134.123 75.8831C131.507 71.6143 127.915 73.273 127.586 68.6932C127.256 64.1133 129.873 62.8083 127.262 59.8689C124.652 56.9295 120.396 55.6001 120.396 55.6001" stroke="white" stroke-miterlimit="10"/>
<path d="M130.531 85.0432C131.739 84.0429 132.788 82.8646 133.642 81.5488" stroke="white" stroke-miterlimit="10"/>
<path d="M97.7237 125.743C79.502 129.255 72.0905 119.766 69.6451 105.807C75.7129 105.136 78.9084 102.313 80.1769 97.5622C81.6344 92.0737 82.0145 73.1205 82.0145 73.1205C82.0145 73.1205 91.5157 78.9627 107.585 72.3887C107.585 72.3887 106.121 92.4765 107.951 95.3976C109.219 97.4344 110.853 99.4713 115.427 100.514C115.592 106.783 114.329 122.535 97.7237 125.743Z" fill="white"/>
<path d="M97.7237 125.743C79.502 129.255 74.7443 118.289 72.2989 104.33C78.3667 103.659 79.4321 98.8347 79.9245 96.9805C81.382 91.4921 80.4771 72.8879 80.4771 72.8879C80.4771 72.8879 91.5157 78.9627 107.585 72.3887C107.585 72.3887 106.121 92.4765 107.951 95.3976C109.219 97.4344 110.853 99.4713 115.427 100.514C115.592 106.783 114.329 122.535 97.7237 125.743Z" stroke="#181F23" stroke-linecap="round" stroke-linejoin="round"/>
<path d="M70.1704 66.1446C67.6713 66.1446 65.6454 64.1187 65.6454 61.6197C65.6454 59.1206 67.6713 57.0947 70.1704 57.0947C72.6694 57.0947 74.6953 59.1206 74.6953 61.6197C74.6953 64.1187 72.6694 66.1446 70.1704 66.1446Z" fill="white" stroke="#181F23" stroke-linecap="round" stroke-linejoin="round"/>
<path d="M118.503 66.1446C116.004 66.1446 113.978 64.1187 113.978 61.6197C113.978 59.1206 116.004 57.0947 118.503 57.0947C121.002 57.0947 123.028 59.1206 123.028 61.6197C123.028 64.1187 121.002 66.1446 118.503 66.1446Z" fill="white" stroke="#181F23" stroke-linecap="round" stroke-linejoin="round"/>
<path d="M70.5862 46.1966C70.5862 46.1966 68.3237 39.2018 65.6465 41.6717C62.9694 44.1415 66.4698 53.6 68.3237 55.8624C70.1776 58.1249 72.0254 58.1249 71.818 55.0392C71.6107 51.9534 70.5862 46.1966 70.5862 46.1966Z" fill="white" stroke="#181F23" stroke-linecap="round" stroke-linejoin="round"/>
<path d="M117.359 53.2341C117.359 53.2341 116.75 69.5715 104.724 77.5847C92.6978 85.5979 83.7638 80.9753 78.8302 74.194C73.8967 67.4127 70.811 60.6314 70.811 50.7704C70.811 40.9094 69.5913 36.5857 72.9698 30.4203C76.3482 24.2549 88.0753 21.1753 88.0753 21.1753C92.9471 27.2553 98.198 33.0215 103.797 38.4396C113.048 47.3736 117.359 53.2341 117.359 53.2341Z" fill="white"/>
<path d="M117.359 53.2341C117.359 53.2341 116.75 69.5715 104.724 77.5847C92.6978 85.5979 83.7638 80.9753 78.8302 74.194C73.8967 67.4127 70.811 60.6314 70.811 50.7704C70.811 40.9094 69.5913 36.5857 72.9698 30.4203C76.3482 24.2549 88.0753 21.1753 88.0753 21.1753C92.9471 27.2553 98.198 33.0215 103.797 38.4396C113.048 47.3736 117.359 53.2341 117.359 53.2341Z" stroke="#181F23" stroke-linecap="round" stroke-linejoin="round"/>
<path d="M99.9972 48.1481C99.9972 49.7946 100.735 51.1302 101.644 51.1302C102.552 51.1302 103.284 49.7946 103.284 48.1481C103.284 46.5015 102.552 45.166 101.644 45.166C100.735 45.166 99.9972 46.5015 99.9972 48.1481Z" fill="#181F23"/>
<path d="M81.1564 48.1481C81.1564 49.7946 81.8943 51.1302 82.8029 51.1302C83.7116 51.1302 84.4434 49.7946 84.4434 48.1481C84.4434 46.5015 83.7116 45.166 82.8029 45.166C81.8943 45.166 81.1564 46.5015 81.1564 48.1481Z" fill="#181F23"/>
<path d="M96.293 58.5639C95.1887 59.2568 93.8891 59.5719 92.5901 59.4619C91.291 59.3519 90.063 58.8228 89.0909 57.9541" stroke="#181F23" stroke-linecap="round" stroke-linejoin="round"/>
<path d="M97.6006 68.286C97.6006 68.286 92.4147 73.4719 87.0502 67.3921" stroke="#181F23" stroke-linecap="round" stroke-linejoin="round"/>
<path d="M87.4463 41.4886C87.4463 41.4886 83.1287 37.171 77.1645 40.6653" stroke="#181F23" stroke-linecap="round" stroke-linejoin="round"/>
<path d="M96.7031 40.7206C96.7031 40.7206 100.405 37.019 105.552 40.5194" stroke="#181F23" stroke-linecap="round" stroke-linejoin="round"/>
<path d="M39.42 135.896L45.8392 111.602L58.297 109.585C58.297 109.585 56.7366 106.668 60.1999 106.477C63.6632 106.287 77.174 103.75 77.174 103.75L89.0863 169.401L110.564 98.6499C110.564 98.6499 111.833 97.7492 115.435 98.0283C119.038 98.3074 127.627 99.5887 128.122 100.413C128.616 101.238 130.532 101.606 130.532 101.606C130.532 101.606 143.523 101.174 144.487 107.353C146.263 114.825 141.949 167.561 141.949 167.561C141.949 167.561 154.978 180.032 157.997 185.791L148.61 199.327L131.344 190.168L119.66 182.632L117.82 185.677L140.224 222.2L110.171 246.862L87.3356 191.424L44.7355 236.409L37.1238 206.076L64.4117 178.306L59.2738 170.695C59.2738 170.695 49.3406 188.848 44.2154 189.229C39.0902 189.61 28.6875 175.782 27.7234 174.006C27.5877 173.785 27.5034 173.537 27.4767 173.279C27.4501 173.021 27.4818 172.761 27.5696 172.517C27.6573 172.273 27.7988 172.053 27.9836 171.871C28.1683 171.69 28.3916 171.552 28.6368 171.468C28.6368 171.468 20.4035 159.734 22.9661 156.778C24.6533 154.989 35.056 161.091 39.5723 160.038C42.7565 159.112 44.7228 155.623 47.0698 150.765C45.9091 149.526 44.892 148.16 44.0378 146.692L39.42 135.896Z" fill="white"/>
<path opacity="0.5" d="M41.2749 158.782C41.2749 158.782 46.5777 152.439 47.1486 150.689C47.1486 150.689 50.206 149.42 50.9544 152.477C51.4383 155.335 52.4446 158.079 53.923 160.571C55.5976 163.197 53.0984 166.407 50.4724 169.388C47.8463 172.369 46.4509 176.391 43.698 176.645C40.9451 176.898 30.1111 172.001 30.1111 172.001C29.0171 171.587 28.059 170.879 27.3425 169.954C26.6261 169.029 26.1793 167.925 26.0515 166.762C25.4553 162.601 21.7002 159.277 22.9815 156.613C24.2628 153.949 32.0013 159.937 35.3378 159.709C36.2885 160.24 37.3899 160.438 38.4662 160.27C39.5424 160.102 40.5313 159.578 41.2749 158.782Z" fill="white"/>
<path opacity="0.5" d="M90.332 170.035C90.332 170.035 125.168 132.788 126.437 129.376C127.705 125.963 122.72 121.967 122.72 121.967C122.72 121.967 118.419 118.986 119.7 115.243C120.982 111.501 128.226 106.198 128.834 103.369C129.443 100.54 128.175 100.413 128.175 100.413C128.175 100.413 112.317 96.8612 111.251 97.5462C110.186 98.2313 102.041 128.691 102.041 128.691L90.332 170.035Z" fill="white"/>
<path opacity="0.5" d="M88.9338 167.383C88.9338 167.383 78.7849 106.591 77.7066 104.231C76.6283 101.872 68.9405 104.904 68.9405 104.904C68.9405 104.904 58.5251 105.17 58.0557 107.517C57.5863 109.864 65.1219 120.964 65.1219 120.964C65.1219 120.964 58.2714 132.382 57.5102 134.475C56.7491 136.568 84.9757 171.164 84.9757 171.164C84.9757 171.164 87.0943 173.523 88.7816 173.523C90.4688 173.523 88.9338 167.383 88.9338 167.383Z" fill="white"/>
<path d="M75.3996 103.471L59.821 106.439C59.503 106.479 59.1994 106.596 58.9367 106.779C58.674 106.963 58.4602 107.208 58.3138 107.493C58.1675 107.778 58.0931 108.095 58.0971 108.415C58.1011 108.736 58.1834 109.051 58.3367 109.332L64.6798 120.064C64.8603 120.374 64.9554 120.727 64.9554 121.086C64.9554 121.444 64.8603 121.797 64.6798 122.107L57.4741 134.463C57.2658 134.818 57.1701 135.227 57.1996 135.637C57.229 136.047 57.3822 136.438 57.639 136.759L86.3985 172.471C86.5676 172.683 86.7849 172.851 87.0323 172.962C87.2796 173.073 87.5499 173.123 87.8205 173.108C88.0912 173.093 88.3543 173.014 88.5881 172.876C88.8218 172.739 89.0193 172.548 89.1641 172.319V172.319C89.4421 171.896 89.5466 171.383 89.4559 170.885L77.7973 105.107C77.7486 104.842 77.6477 104.589 77.5005 104.362C77.3533 104.136 77.1628 103.941 76.9398 103.789C76.7168 103.637 76.4659 103.53 76.2016 103.476C75.9372 103.421 75.6646 103.42 75.3996 103.471V103.471Z" stroke="#181F23" stroke-linecap="round" stroke-linejoin="round"/>
<path d="M89.582 171.71L110.235 99.2716C110.376 98.7977 110.684 98.3906 111.101 98.1249C111.518 97.8593 112.017 97.7529 112.506 97.8254L127.539 100.134C127.885 100.19 128.211 100.335 128.485 100.555C128.758 100.775 128.969 101.063 129.097 101.389C129.225 101.716 129.266 102.071 129.215 102.418C129.164 102.765 129.024 103.093 128.808 103.369L119.674 115.244C119.405 115.595 119.26 116.025 119.26 116.468C119.26 116.91 119.405 117.34 119.674 117.692L126.524 126.826C126.798 127.197 126.938 127.649 126.922 128.11C126.906 128.571 126.734 129.012 126.435 129.363L89.582 171.71Z" stroke="#181F23" stroke-linecap="round" stroke-linejoin="round"/>
<path d="M103.511 121.345C94.6305 124.872 80.6758 121.345 80.6758 121.345L89.4039 170.821L103.511 121.345Z" fill="#181F23"/>
<path d="M26.8882 156.752C25.3532 155.687 23.6406 155.687 22.9174 156.651C22.6102 157.172 22.4377 157.762 22.4155 158.366C22.3934 158.971 22.5223 159.572 22.7906 160.114C23.2473 161.231 23.9958 162.195 24.5159 163.286C25.1248 164.554 25.3912 166.064 25.9621 167.396C28.03 172.179 33.485 174.348 38.3945 176.035C39.1217 176.483 39.933 176.776 40.7781 176.896C41.6232 177.017 42.4841 176.962 43.3074 176.736C44.1306 176.51 44.8986 176.118 45.5636 175.582C46.2287 175.047 46.7766 174.381 47.1734 173.625L52.6157 166.825C53.3123 166.065 53.8551 165.178 54.2142 164.212C55.2164 160.875 51.8546 157.869 51.068 154.507C50.9758 153.295 50.6664 152.109 50.1546 151.006C49.4822 149.991 47.1226 149.737 46.6405 150.815" stroke="#181F23" stroke-linecap="round" stroke-linejoin="round"/>
<path d="M89.5833 171.913C88.2271 173.329 87.1866 175.016 86.5305 176.864C85.8745 178.712 85.6178 180.678 85.7775 182.632C86.1226 186.553 87.046 190.4 88.5177 194.05C94.8777 211.997 102.092 229.613 110.16 246.9L140.226 222.2L117.823 185.664L119.51 182.391" stroke="#181F23" stroke-linecap="round" stroke-linejoin="round"/>
<path d="M59.3922 170.2L64.6188 178.306L37.166 206.025L44.7396 236.358L87.6315 191.639" stroke="#181F23" stroke-linecap="round" stroke-linejoin="round"/>
<path d="M93.0863 184.56C94.3124 184.56 95.3064 182.958 95.3064 180.982C95.3064 179.006 94.3124 177.405 93.0863 177.405C91.8602 177.405 90.8662 179.006 90.8662 180.982C90.8662 182.958 91.8602 184.56 93.0863 184.56Z" fill="#181F23"/>
<path d="M57.4609 222.822C57.4609 222.822 79.8139 239.314 102.877 231.576L87.5779 192.109L57.4609 222.822Z" fill="#181F23"/>
<path d="M39.6133 136.544C39.6133 130.277 45.8422 111.603 45.8422 111.603C48.9757 110.677 58.4522 109.459 58.4522 109.459" stroke="#181F23" stroke-linecap="round" stroke-linejoin="round"/>
<path d="M129.354 101.695L139.363 102.811C140.925 102.922 142.385 103.631 143.436 104.792C144.488 105.953 145.051 107.474 145.008 109.04L142.078 168.234C142.078 168.234 150.057 173.181 158.012 185.817" stroke="#181F23" stroke-linecap="round" stroke-linejoin="round"/>
<path d="M142.294 168.575C138.488 168.74 135.19 168.804 131.371 168.956" stroke="#181F23" stroke-linecap="round" stroke-linejoin="round"/>
<path d="M141.647 168.398L132.767 174.272" stroke="#181F23" stroke-linecap="round" stroke-linejoin="round"/>
<path d="M92.6768 188.417L106.099 204.693" stroke="#181F23" stroke-linecap="round" stroke-linejoin="round"/>
<path d="M96.6475 188.443C98.4397 189.408 100.099 190.602 101.582 191.995" stroke="#181F23" stroke-linecap="round" stroke-linejoin="round"/>
<path d="M64.4385 178.408C66.51 179.476 68.7502 180.18 71.0606 180.488" stroke="#181F23" stroke-linecap="round" stroke-linejoin="round"/>
<path d="M28.5897 171.329C28.1963 171.62 27.9082 172.031 27.7686 172.5C27.629 172.969 27.6456 173.471 27.8158 173.929C28.1793 174.835 28.7381 175.649 29.4523 176.314L37.9394 185.41C39.5378 187.136 41.4154 188.975 43.7623 189.064C46.1093 189.153 48.1137 187.415 49.6741 185.639C52.2329 182.567 54.5368 179.292 56.5626 175.845C57.4391 174.542 58.1788 173.152 58.77 171.697C59.3537 169.87 59.7116 167.978 59.8357 166.064C60.3177 161.345 60.804 156.625 61.2946 151.906" stroke="#181F23" stroke-linecap="round" stroke-linejoin="round"/>
<path d="M148.815 199.2C148.815 199.2 125.587 187.998 119.51 182.404C119.51 182.404 117.798 161.256 120.715 141.808" stroke="#181F23" stroke-linecap="round" stroke-linejoin="round"/>
<path d="M114.27 148.379C114.388 151.822 115.498 155.157 117.466 157.983" stroke="#181F23" stroke-linecap="round" stroke-linejoin="round"/>
<path d="M200.715 189.71L201.26 193.592L198.012 198.73L196.198 195.483L200.715 189.71Z" fill="white"/>
<path d="M144.183 209.565L172.929 232.857L185.907 212.077L188.457 214.03L173.589 238.033L146.707 215.591L144.183 209.565Z" fill="white"/>
<path opacity="0.4" d="M200.715 189.71L201.26 193.592L198.012 198.73L196.198 195.483L200.715 189.71Z" fill="white"/>
<path opacity="0.4" d="M144.183 209.565L172.929 232.857L185.907 212.077L188.457 214.03L173.589 238.033L146.707 215.591L144.183 209.565Z" fill="white"/>
<path d="M185.91 212.076L172.932 232.856L143.068 208.182L171.384 166.901L200.727 188.708L196.198 195.8" fill="white"/>
<path d="M185.91 212.076L172.932 232.856L143.068 208.182L171.384 166.901L200.727 188.708L196.198 195.8" stroke="#181F23" stroke-linecap="round" stroke-linejoin="round"/>
<path d="M197.492 199.022L200.879 193.491L200.727 188.708" stroke="#181F23" stroke-linecap="round" stroke-linejoin="round"/>
<path d="M188.193 214.284L173.591 238.032L147.128 215.679L143.068 208.182" stroke="#181F23" stroke-linecap="round" stroke-linejoin="round"/>
<path d="M171.775 172.851L195.422 190.154" stroke="#181F23" stroke-linecap="round" stroke-linejoin="round"/>
<path d="M170.063 175.249L193.71 192.553" stroke="#181F23" stroke-linecap="round" stroke-linejoin="round"/>
<path d="M167.845 178.002L186.684 191.843" stroke="#181F23" stroke-linecap="round" stroke-linejoin="round"/>
<path d="M166.117 180.564L191.604 199.175" stroke="#181F23" stroke-linecap="round" stroke-linejoin="round"/>
<path d="M163.895 183.825L181.034 196.435" stroke="#181F23" stroke-linecap="round" stroke-linejoin="round"/>
<path d="M161.843 186.907L179.629 200.114" stroke="#181F23" stroke-linecap="round" stroke-linejoin="round"/>
<path d="M160.133 189.99L179.631 204.237" stroke="#181F23" stroke-linecap="round" stroke-linejoin="round"/>
<path d="M158.419 193.073L182.053 210.377" stroke="#181F23" stroke-linecap="round" stroke-linejoin="round"/>
<path d="M156.703 196.156L180.337 213.46" stroke="#181F23" stroke-linecap="round" stroke-linejoin="round"/>
<path d="M154.992 199.238L178.626 216.542" stroke="#181F23" stroke-linecap="round" stroke-linejoin="round"/>
<path d="M39.4622 159.481C38.7489 159.684 37.6362 159.614 36.2935 159.34C34.9727 159.071 33.5076 158.623 32.1337 158.141C30.762 157.659 29.4923 157.147 28.5649 156.756C28.1015 156.56 27.7242 156.395 27.4632 156.278C27.3886 156.245 27.3236 156.216 27.2687 156.191L17.4633 120.864L28.4367 117.383L45.9901 151.629C45.9763 151.656 45.9613 151.686 45.9451 151.717C45.8419 151.917 45.6903 152.205 45.4977 152.554C45.1123 153.253 44.5649 154.192 43.9156 155.159C43.265 156.128 42.5199 157.113 41.7407 157.908C40.9523 158.714 40.1736 159.279 39.4622 159.481Z" fill="white" stroke="#181F23"/>
<path d="M12.9065 110.485L12.886 110.442L12.8576 110.403C10.351 106.99 7.63617 103.735 4.72856 100.656C3.8653 99.6806 3.20948 98.9328 2.74162 98.3871C2.26392 97.8299 2.00282 97.5069 1.90974 97.3674L1.90903 97.3664C1.52997 96.8013 1.30635 95.7822 1.25291 94.4161C1.20043 93.0747 1.31405 91.4859 1.53433 89.8572C1.97597 86.5918 2.83478 83.2464 3.57616 81.5158C3.86302 80.8462 4.27864 80.2393 4.79944 79.7296C5.10142 79.4572 5.6714 79.1444 6.45245 78.8169C7.22367 78.4934 8.14987 78.1759 9.11428 77.8801C11.0421 77.2888 13.0888 76.7945 14.2827 76.5205L14.7995 76.4019L14.6508 75.8929C14.1702 74.2483 14.0479 72.262 14.3979 70.0495C14.5728 68.944 14.9559 67.4689 15.5906 66.2853C16.2369 65.0798 17.0531 64.3325 18.0456 64.3325C18.7095 64.3326 19.1435 64.5956 19.456 65.024C19.7884 65.4798 19.9973 66.1467 20.1071 66.9497C20.3094 68.4286 20.153 70.164 20.0433 71.3815C20.0339 71.486 20.0248 71.5867 20.0163 71.6831C19.7924 74.2301 20.7137 76.5916 22.1099 78.9715L22.1116 78.9742C22.7741 80.0873 23.3755 81.2357 23.9131 82.4142C24.286 83.2926 24.5334 84.5505 24.6678 86.0653C24.8017 87.575 24.8207 89.3052 24.7554 91.1036C24.6248 94.7012 24.1583 98.5382 23.6205 101.369L23.6204 101.37C23.1712 103.744 23.0329 105.254 23.3502 107.048C23.6596 108.797 24.4022 110.804 25.6447 114.162L25.6665 114.221L25.6673 114.224C25.8969 114.835 26.221 115.424 26.544 116.01C26.5849 116.084 26.6257 116.159 26.6663 116.233C27.0344 116.905 27.4017 117.605 27.6867 118.428L27.7022 118.473L27.7257 118.514L46.0108 150.34C45.9979 150.384 45.9828 150.435 45.9653 150.492C45.8966 150.718 45.7926 151.045 45.6524 151.44C45.3717 152.233 44.9478 153.298 44.3752 154.396C43.2094 156.631 41.5114 158.835 39.2833 159.353C38.4215 159.553 37.261 159.495 35.9622 159.264C34.6744 159.035 33.2995 158.646 32.0325 158.226C30.7671 157.806 29.6191 157.358 28.7869 157.014C28.3711 156.843 28.0349 156.697 27.8031 156.595C27.7408 156.568 27.6861 156.544 27.6394 156.523C25.8044 151.184 22.4159 140.341 19.3421 130.505L19.3395 130.497C17.7833 125.517 16.3084 120.798 15.1588 117.189C14.5841 115.385 14.0901 113.856 13.7075 112.711C13.3306 111.582 13.0501 110.788 12.9065 110.485Z" fill="white" stroke="#181F23"/>
<path d="M1.37109 89.2026C1.73192 89.343 11.3433 92.6828 13.4542 93.8409V93.8409C17.0573 95.7433 11.3509 98.7646 7.73159 96.8933L5.45635 95.7169C7.57767 97.341 12.9923 102.064 13.4542 103.298" stroke="#181F23"/>
<path d="M2.54492 85.127C5.83164 85.127 13.561 86.7831 16.5077 88.334C19.4234 90.164 16.973 94.9718 13.9332 94.1964" stroke="#181F23"/>
<path d="M4.40234 80.4595C7.89216 80.9635 14.0868 80.7982 17.1535 82.6451C18.3861 83.5168 18.5321 84.4294 18.706 85.2774C19.1113 87.2545 18.061 87.9876 17.1535 88.4894" stroke="#181F23"/>
<path d="M11.7324 77.1474C12.1683 77.0367 15.9804 76.9647 16.9935 77.961C17.1405 78.0992 17.2638 78.2779 17.3552 78.4851C17.4466 78.6924 17.504 78.9235 17.5236 79.1629C17.6096 80.6956 17.5586 80.9548 17.3552 82.4673" stroke="#181F23"/>
<path d="M196.705 202.891C196.705 202.891 198.697 198.68 195.956 196.142C193.216 193.605 185.808 185.385 184.425 186.361C183.042 187.338 193.419 200.824 193.419 200.824" fill="white"/>
<path d="M193.508 201.192C188.548 197.627 180.682 192.832 179.731 193.796C178.361 195.166 189.309 203.755 189.309 203.755C189.309 203.755 179.528 195.94 178.158 197.5C177.321 198.464 182.281 202.575 186.201 205.962" fill="white"/>
<path d="M185.541 205.416C182.255 202.384 178.843 199.568 178.17 200.24C176.813 201.61 187.152 214.195 189.588 214.639C192.303 215.108 192.379 211.657 192.379 211.657C193.192 211.394 193.912 210.902 194.454 210.241C194.996 209.58 195.337 208.777 195.436 207.928V207.484C195.894 207.18 196.282 206.779 196.571 206.311C196.86 205.843 197.044 205.317 197.11 204.771C197.176 204.225 197.123 203.671 196.955 203.147C196.786 202.623 196.506 202.142 196.134 201.737L194.408 200.57C194.408 200.57 192.696 202.194 191.694 201.559" fill="white"/>
<path d="M196.706 202.891C196.706 202.891 198.698 198.68 195.957 196.142C193.217 193.605 185.808 185.385 184.426 186.361C183.043 187.338 193.42 200.824 193.42 200.824" stroke="#181F23" stroke-linecap="round" stroke-linejoin="round"/>
<path d="M193.508 201.192C188.548 197.627 180.682 192.832 179.731 193.796C178.361 195.166 189.309 203.755 189.309 203.755C189.309 203.755 179.528 195.94 178.158 197.5C177.321 198.464 182.281 202.575 186.201 205.962" stroke="#181F23" stroke-linecap="round" stroke-linejoin="round"/>
<path d="M185.541 205.416C182.255 202.384 178.843 199.568 178.17 200.24C176.813 201.61 187.152 214.195 189.588 214.639C192.303 215.108 192.379 211.657 192.379 211.657C193.192 211.394 193.912 210.902 194.454 210.241C194.996 209.58 195.337 208.777 195.436 207.928V207.484C195.436 207.484 198.988 206.215 196.705 203.145" stroke="#181F23" stroke-linecap="round" stroke-linejoin="round"/>
</svg>
