<svg width="630" height="646" viewBox="0 0 630 646" fill="none" xmlns="http://www.w3.org/2000/svg">
<path d="M209.562 176.017C209.562 176.017 183.269 172.453 167.726 180.369C152.184 188.285 154.458 196.113 157.717 204.427C160.976 212.741 172.275 215.382 193.136 212.806C213.996 210.231 240.775 199.768 257.736 191.787C274.697 183.806 332.023 134.253 332.023 134.253L345.854 128.519C345.854 128.519 361.044 126.967 364.694 125.614C368.345 124.261 363.816 121.857 360.961 122.147C358.105 122.437 349.069 122.189 349.069 122.189C349.069 122.189 366.267 116.525 367.873 113.475C369.479 110.425 369.285 108.53 365.197 110.849C361.11 113.169 347.721 115.532 347.721 115.532C347.721 115.532 369.149 103.565 369.856 101.081C370.564 98.5965 369.41 96.7963 366.279 99.043C363.149 101.29 343.818 109.363 343.818 109.363L358.824 93.591C358.824 93.591 359.841 88.4606 354.325 92.5093C349.984 96.0147 345.42 99.2346 340.662 102.149C337.46 103.328 334.187 104.304 330.862 105.071C330.709 102.426 331.456 99.8079 332.98 97.6414C335.159 95.029 339.286 93.7547 336.293 87.7153C335.454 85.9982 333.953 87.95 332.794 90.9363C331.635 93.9225 321.93 102.152 321.657 104.086C322.053 109.17 322.727 114.228 323.676 119.238C323.676 119.238 288.131 145.903 271.008 157.242C253.886 168.58 248.844 170.557 248.844 170.557L209.562 176.017Z" fill="white"/>
<path d="M209.562 176.017C209.562 176.017 183.269 172.453 167.726 180.369C152.184 188.285 154.458 196.113 157.717 204.427C160.976 212.741 172.275 215.382 193.136 212.806C213.996 210.231 240.775 199.768 257.736 191.787C274.697 183.806 332.023 134.253 332.023 134.253L345.854 128.519C345.854 128.519 361.044 126.967 364.694 125.614C368.345 124.261 363.816 121.857 360.961 122.147C358.105 122.437 349.069 122.189 349.069 122.189C349.069 122.189 366.267 116.525 367.873 113.475C369.479 110.425 369.285 108.53 365.197 110.849C361.11 113.169 347.721 115.532 347.721 115.532C347.721 115.532 369.149 103.565 369.856 101.081C370.564 98.5965 369.41 96.7963 366.279 99.043C363.149 101.29 343.818 109.363 343.818 109.363L358.824 93.591C358.824 93.591 359.841 88.4606 354.325 92.5093C349.984 96.0147 345.42 99.2346 340.662 102.149C337.46 103.328 334.187 104.304 330.862 105.071C330.709 102.426 331.456 99.8079 332.98 97.6414C335.159 95.029 339.286 93.7547 336.293 87.7153C335.454 85.9982 333.953 87.95 332.794 90.9363C331.635 93.9225 321.93 102.152 321.657 104.086C322.053 109.17 322.727 114.228 323.676 119.238C323.676 119.238 288.131 145.903 271.008 157.242C253.886 168.58 248.844 170.557 248.844 170.557L209.562 176.017Z" stroke="#181F23" stroke-linecap="round" stroke-linejoin="round"/>
<mask id="path-3-inside-1" fill="white">
<path fill-rule="evenodd" clip-rule="evenodd" d="M629.797 179.112L614.886 196.923L629.797 214.734V179.112ZM629.797 143.49L618.394 161.301L629.797 179.112V143.49ZM629.797 107.867L618.394 125.678L629.797 143.49V107.867ZM629.797 72.2448L618.394 90.056L629.797 107.867V72.2448ZM629.797 36.6224L618.394 54.4336L629.797 72.2448V36.6224ZM629.797 1L629.797 36.6224L618.394 18.8112L629.797 1ZM629.797 1L301.77 1.00005L316.68 18.8112L301.77 36.6224L313.172 54.4336L301.77 72.2448L313.172 90.056L301.77 107.867L313.172 125.678L301.77 143.49L313.172 161.301L301.77 179.112L313.172 196.923L301.77 214.734H629.802V1.00005L629.797 1Z"/>
</mask>
<path fill-rule="evenodd" clip-rule="evenodd" d="M629.797 179.112L614.886 196.923L629.797 214.734V179.112ZM629.797 143.49L618.394 161.301L629.797 179.112V143.49ZM629.797 107.867L618.394 125.678L629.797 143.49V107.867ZM629.797 72.2448L618.394 90.056L629.797 107.867V72.2448ZM629.797 36.6224L618.394 54.4336L629.797 72.2448V36.6224ZM629.797 1L629.797 36.6224L618.394 18.8112L629.797 1ZM629.797 1L301.77 1.00005L316.68 18.8112L301.77 36.6224L313.172 54.4336L301.77 72.2448L313.172 90.056L301.77 107.867L313.172 125.678L301.77 143.49L313.172 161.301L301.77 179.112L313.172 196.923L301.77 214.734H629.802V1.00005L629.797 1Z" fill="white"/>
<path d="M614.886 196.923L614.119 196.281C613.808 196.653 613.808 197.194 614.119 197.565L614.886 196.923ZM629.797 214.734L629.03 215.376C629.3 215.699 629.743 215.818 630.138 215.674C630.533 215.531 630.797 215.155 630.797 214.734H629.797ZM618.394 161.301L617.552 160.762C617.342 161.09 617.342 161.511 617.552 161.84L618.394 161.301ZM618.394 125.678L617.552 125.139C617.342 125.468 617.342 125.889 617.552 126.217L618.394 125.678ZM618.394 90.056L617.552 89.5168C617.342 89.8455 617.342 90.2665 617.552 90.5951L618.394 90.056ZM618.394 54.4336L617.552 53.8944C617.342 54.2231 617.342 54.6441 617.552 54.9727L618.394 54.4336ZM629.797 1L629.806 0H629.797V1ZM618.394 18.8112L617.552 18.272C617.342 18.6007 617.342 19.0217 617.552 19.3504L618.394 18.8112ZM301.77 1.00005L301.77 5.32866e-05C301.381 5.33462e-05 301.028 0.224978 300.863 0.576915C300.699 0.928852 300.753 1.34413 301.003 1.64196L301.77 1.00005ZM316.68 18.8112L317.447 19.4532C317.758 19.0817 317.758 18.5408 317.447 18.1693L316.68 18.8112ZM301.77 36.6224L301.003 35.9805C300.722 36.3155 300.692 36.7937 300.927 37.1616L301.77 36.6224ZM313.172 54.4336L314.014 54.9728C314.224 54.6441 314.224 54.2231 314.014 53.8945L313.172 54.4336ZM301.77 72.2448L300.927 71.7057C300.717 72.0343 300.717 72.4553 300.927 72.784L301.77 72.2448ZM313.172 90.056L314.014 90.5952C314.224 90.2665 314.224 89.8455 314.014 89.5169L313.172 90.056ZM301.77 107.867L300.927 107.328C300.717 107.657 300.717 108.078 300.927 108.406L301.77 107.867ZM313.172 125.678L314.014 126.218C314.224 125.889 314.224 125.468 314.014 125.139L313.172 125.678ZM301.77 143.49L300.927 142.95C300.717 143.279 300.717 143.7 300.927 144.029L301.77 143.49ZM313.172 161.301L314.014 161.84C314.224 161.511 314.224 161.09 314.014 160.762L313.172 161.301ZM301.77 179.112L300.927 178.573C300.717 178.901 300.717 179.322 300.927 179.651L301.77 179.112ZM313.172 196.923L314.014 197.462C314.224 197.134 314.224 196.713 314.014 196.384L313.172 196.923ZM301.77 214.734L300.927 214.195C300.73 214.503 300.717 214.894 300.892 215.214C301.068 215.535 301.404 215.734 301.77 215.734V214.734ZM629.802 214.734V215.734C630.354 215.734 630.802 215.287 630.802 214.734H629.802ZM629.802 1.00005H630.802C630.802 0.451638 630.36 0.00554234 629.812 0.00010246L629.802 1.00005ZM615.653 197.565L630.563 179.754L629.03 178.47L614.119 196.281L615.653 197.565ZM630.563 214.092L615.653 196.281L614.119 197.565L629.03 215.376L630.563 214.092ZM628.797 179.112V214.734H630.797V179.112H628.797ZM619.237 161.84L630.639 144.029L628.954 142.95L617.552 160.762L619.237 161.84ZM630.639 178.573L619.237 160.762L617.552 161.84L628.954 179.651L630.639 178.573ZM628.797 143.49V179.112H630.797V143.49H628.797ZM619.237 126.217L630.639 108.406L628.954 107.328L617.552 125.139L619.237 126.217ZM630.639 142.95L619.237 125.139L617.552 126.217L628.954 144.029L630.639 142.95ZM628.797 107.867V143.49H630.797V107.867H628.797ZM619.237 90.5951L630.639 72.7839L628.954 71.7056L617.552 89.5168L619.237 90.5951ZM630.639 107.328L619.237 89.5168L617.552 90.5951L628.954 108.406L630.639 107.328ZM628.797 72.2448V107.867H630.797V72.2448H628.797ZM619.237 54.9727L630.639 37.1615L628.954 36.0832L617.552 53.8944L619.237 54.9727ZM630.639 71.7056L619.237 53.8944L617.552 54.9727L628.954 72.7839L630.639 71.7056ZM628.797 36.6224V72.2448H630.797V36.6224H628.797ZM628.797 0.999999L628.797 36.6224H630.797L630.797 1L628.797 0.999999ZM630.639 36.0832L619.237 18.272L617.552 19.3504L628.954 37.1615L630.639 36.0832ZM619.237 19.3504L630.639 1.53916L628.954 0.460844L617.552 18.272L619.237 19.3504ZM629.797 0L301.77 5.32866e-05L301.77 2.00005L629.797 2V0ZM301.003 1.64196L315.913 19.4532L317.447 18.1693L302.536 0.358145L301.003 1.64196ZM315.913 18.1693L301.003 35.9805L302.536 37.2643L317.447 19.4532L315.913 18.1693ZM300.927 37.1616L312.33 54.9728L314.014 53.8945L302.612 36.0833L300.927 37.1616ZM312.33 53.8945L300.927 71.7057L302.612 72.784L314.014 54.9728L312.33 53.8945ZM300.927 72.784L312.33 90.5952L314.014 89.5169L302.612 71.7057L300.927 72.784ZM312.33 89.5169L300.927 107.328L302.612 108.406L314.014 90.5952L312.33 89.5169ZM300.927 108.406L312.33 126.218L314.014 125.139L302.612 107.328L300.927 108.406ZM312.33 125.139L300.927 142.95L302.612 144.029L314.014 126.218L312.33 125.139ZM300.927 144.029L312.33 161.84L314.014 160.762L302.612 142.95L300.927 144.029ZM312.33 160.762L300.927 178.573L302.612 179.651L314.014 161.84L312.33 160.762ZM300.927 179.651L312.33 197.462L314.014 196.384L302.612 178.573L300.927 179.651ZM312.33 196.384L300.927 214.195L302.612 215.274L314.014 197.462L312.33 196.384ZM301.77 215.734H629.802V213.734H301.77V215.734ZM630.802 214.734V1.00005H628.802V214.734H630.802ZM629.812 0.00010246L629.806 4.91738e-05L629.787 1.99995L629.792 2L629.812 0.00010246Z" fill="#181F23" mask="url(#path-3-inside-1)"/>
<path d="M337.898 1.00005V214.734M594.365 1.00005V214.734" stroke="#181F23" stroke-width="2" stroke-linecap="round" stroke-dasharray="10 10"/>
<path d="M178.436 293.996L178.435 293.997C176.776 294.44 175.454 294.4 174.371 294.052C173.287 293.704 172.4 293.033 171.637 292.141C170.273 290.547 169.358 288.322 168.455 286.124C168.331 285.823 168.208 285.522 168.083 285.223C167.576 284.006 167.051 282.828 166.435 281.86C165.82 280.895 165.081 280.087 164.118 279.676C163.137 279.256 162.007 279.284 160.691 279.824C159.387 280.358 157.876 281.404 156.082 283.065C149.077 289.548 135.365 295.409 122.653 298.522C116.306 300.077 110.248 300.936 105.441 300.855C103.037 300.815 100.969 300.539 99.3419 300.01C97.7116 299.481 96.5746 298.714 95.9542 297.728C94.5997 295.575 94.0895 293.231 93.8549 290.954C93.7494 289.929 93.7003 288.928 93.653 287.962C93.6477 287.853 93.6423 287.743 93.6369 287.635C93.5843 286.576 93.526 285.557 93.3836 284.639C93.0992 282.803 92.4542 281.218 90.6857 280.476C88.9917 279.765 86.3918 279.893 82.3972 280.998C81.92 281.13 81.4107 281.271 80.8714 281.422C72.393 283.781 56.5054 288.203 41.1026 289.379C32.9107 290.004 24.895 289.707 18.2221 287.716C11.5595 285.727 6.27144 282.062 3.4429 275.963C-2.27021 263.645 1.17986 252.112 6.61795 242.152C9.10269 237.602 11.9902 233.402 14.5929 229.616C14.8392 229.258 15.0829 228.903 15.3235 228.552C18.0888 224.521 20.4732 220.944 21.4706 217.993C22.4989 214.95 21.8483 212.023 20.5286 209.04C19.869 207.549 19.0349 206.028 18.1449 204.458C17.9411 204.098 17.7344 203.736 17.5259 203.371C16.8208 202.137 16.096 200.867 15.3954 199.54C11.7835 192.697 8.88021 184.433 13.4913 172.838C15.7714 167.104 21.8923 161.632 30.0123 156.471C38.1106 151.324 48.1017 146.545 57.9929 142.159C62.1541 140.315 66.3037 138.537 70.2839 136.832C75.7443 134.493 80.886 132.29 85.302 130.238C89.1247 128.461 92.4298 126.785 94.9535 125.215C96.2156 124.429 97.2922 123.664 98.144 122.92C98.9919 122.179 99.641 121.438 100.019 120.694C100.72 119.316 101.011 118.117 100.948 117.048C100.885 115.97 100.467 115.073 99.8356 114.3C99.2116 113.535 98.3779 112.889 97.474 112.296C96.8018 111.856 96.0679 111.43 95.3342 111.005C95.0843 110.861 94.8344 110.716 94.587 110.57C92.6045 109.406 90.7452 108.179 89.697 106.405C88.6737 104.673 88.3763 102.327 89.7493 98.8058C90.4183 97.0898 91.9451 95.0275 94.208 92.7426C96.4624 90.4663 99.4137 88.0023 102.885 85.4795C109.826 80.4344 118.815 75.1768 128.389 70.737C137.964 66.2967 148.106 62.6831 157.353 60.9141C166.617 59.1417 174.902 59.2366 180.826 62.1169C192.862 67.9701 201.376 77.2813 206.885 85.1469C209.638 89.0777 211.637 92.6414 212.947 95.2207C213.602 96.5102 214.084 97.5531 214.402 98.2722C214.561 98.6317 214.679 98.9102 214.756 99.098C214.771 99.1322 214.783 99.1635 214.795 99.1916C214.815 99.2407 214.831 99.2804 214.843 99.3106L214.863 99.3595C225.607 136.767 217.858 183.174 206.424 225.443C200.709 246.57 194.894 263.44 189.881 275.188C187.374 281.063 185.072 285.645 183.091 288.834C182.099 290.429 181.196 291.662 180.395 292.532C179.581 293.416 178.925 293.868 178.436 293.996Z" fill="#181F23" stroke="white"/>
<path d="M128.787 426.161C128.787 426.161 117.142 435.785 102.074 451.266C87.0065 466.747 64.52 519.621 59.0763 527.821C53.6327 536.021 41.9645 546.196 41.9645 546.196C41.9645 546.196 21.2925 544.818 20.3508 549.664C19.4091 554.511 18.8119 563.606 16.0556 568.315C13.2993 573.024 7.99353 579.386 10.4971 587.494C13.0007 595.602 16.1475 603.756 20.5575 601.597C24.9675 599.438 26.3916 596.498 30.1585 585.748C33.9254 574.999 64.7956 552.007 75.591 536.848C86.3863 521.688 126.926 481.607 132.186 475.865C137.446 470.123 145.968 471.892 149.344 447.682C152.721 423.473 140.294 418.374 128.787 426.161Z" fill="white" stroke="#181F23" stroke-linecap="round" stroke-linejoin="round"/>
<path d="M132.187 475.888C137.47 470.123 145.968 471.914 149.345 447.705C152.721 423.496 140.295 418.374 128.787 426.16C128.787 426.16 117.142 435.784 102.075 451.265C88.7756 464.909 69.7574 507.562 61.6953 523.135C65.6673 528.406 71.1458 532.346 77.406 534.436C90.2916 517.806 127.18 481.355 132.187 475.888Z" fill="#181F23" stroke="white" stroke-miterlimit="10"/>
<path d="M32.4784 560.23L37.899 546.058C31.8353 545.92 21.0169 546.196 20.3508 549.664C19.4321 554.488 18.8119 563.606 16.0556 568.315C13.2993 573.024 7.99353 579.386 10.4971 587.494C13.0007 595.602 16.1475 603.733 20.5575 601.597C24.9675 599.461 26.3916 596.498 30.1585 585.748C31.8582 580.925 38.9786 573.667 47.2933 565.742C41.7808 559.931 32.4784 560.23 32.4784 560.23Z" fill="#181F23" stroke="white" stroke-linecap="round" stroke-linejoin="round"/>
<path d="M160.733 170.609C160.733 170.609 135.697 165.578 128.576 179.475C121.456 193.371 144.08 255.663 145.045 262.438C146.01 269.214 114.427 291.035 105.63 315.267C96.8333 339.499 102.53 361.503 112.889 392.833C123.248 424.162 133.744 439.207 130.873 453.379C128.002 467.551 128.232 485.765 133.17 499.5C138.108 513.236 164.775 578.192 164.201 586.782C163.627 595.372 153.268 607.109 153.498 610.945C153.727 614.781 173.481 627.138 180.624 634.787C187.767 642.436 201.824 647.213 203.064 642.987C204.305 638.761 191.695 626.909 189.559 615.746C187.423 604.583 180.004 579.685 178.603 564.755C177.201 549.825 166.843 468.285 165.51 459.511C164.729 452.188 164.583 444.81 165.074 437.461C165.074 437.461 190.34 394.647 194.612 360.447C198.884 326.246 201.985 278.608 205.132 267.331C208.278 256.053 215.238 230.58 215.238 230.58C218.05 217.424 218.825 203.914 217.535 190.523C214.985 171.206 186.527 167.393 177.362 168.22C168.198 169.047 160.733 170.609 160.733 170.609Z" fill="white" stroke="#181F23" stroke-linecap="round" stroke-linejoin="round"/>
<path d="M164.896 459.633L164.898 459.645L164.899 459.656C166.018 466.92 173.402 524.887 176.639 552.59C170.094 555.848 162.767 557.211 155.487 556.524C151.466 545.604 146.747 533.448 142.664 522.974C142.249 521.911 141.841 520.865 141.442 519.84C137.864 510.667 134.926 503.133 133.617 499.404L133.616 499.4C128.716 485.771 128.48 467.653 131.338 453.547C132.805 446.309 130.847 438.886 127.285 429.432C126.14 426.393 124.828 423.143 123.405 419.614C120.384 412.127 116.857 403.386 113.338 392.745C102.977 361.406 97.3214 339.628 106.075 315.508C107.478 311.756 109.263 308.158 111.401 304.771C144.578 323.319 179.942 327.288 197.46 328.055C196.374 339.183 195.242 350.398 193.999 360.453C191.872 377.476 184.514 396.674 177.669 411.64C174.249 419.118 170.962 425.529 168.531 430.07C167.315 432.34 166.313 434.143 165.616 435.378C165.267 435.995 164.994 436.47 164.809 436.791C164.716 436.951 164.645 437.073 164.598 437.154L164.544 437.246L164.531 437.269L164.527 437.274L164.527 437.276C164.526 437.276 164.526 437.276 164.957 437.53L164.526 437.276L164.466 437.378L164.458 437.497C163.966 444.874 164.112 452.281 164.896 459.633Z" fill="#181F23" stroke="white"/>
<path d="M156.961 351.672C156.961 351.672 162.359 408.245 163.415 429.078" stroke="white" stroke-width="0.8" stroke-linecap="round" stroke-linejoin="round"/>
<path d="M103.676 321.537C115.16 333.826 143.825 356.22 196.011 347.4C199.479 315.244 202.258 277.299 205.015 267.4C208.161 256.122 215.121 230.649 215.121 230.649C217.933 217.493 218.708 203.983 217.418 190.592C214.868 171.275 186.41 167.462 177.245 168.289C168.081 169.116 160.822 170.586 160.822 170.586C160.822 170.586 135.786 165.556 128.666 179.452C121.546 193.348 144.17 255.64 145.135 262.415C146.099 269.191 114.517 291.012 105.72 315.244C104.847 317.426 104.227 319.493 103.676 321.537Z" fill="white"/>
<path d="M103.676 321.537C115.16 333.826 143.825 356.22 196.011 347.4C199.479 315.244 202.258 277.299 205.015 267.4C208.161 256.122 215.121 230.649 215.121 230.649C217.933 217.493 218.708 203.983 217.418 190.592C214.868 171.275 186.41 167.462 177.245 168.289C168.081 169.116 160.822 170.586 160.822 170.586C160.822 170.586 135.786 165.556 128.666 179.452C121.546 193.348 144.17 255.64 145.135 262.415C146.099 269.191 114.517 291.012 105.72 315.244C104.847 317.426 104.227 319.493 103.676 321.537Z" stroke="#181F23" stroke-linecap="round" stroke-linejoin="round"/>
<path d="M161.266 159.675C163.234 163.738 164.722 168.016 165.699 172.423C166.319 177.247 171.51 185.745 179.181 192.475C186.853 199.205 191.608 192.82 191.263 183.701C190.918 174.582 186.141 152.716 186.141 152.716C186.141 152.716 170.269 161.237 161.266 159.675Z" fill="white" stroke="#181F23" stroke-linecap="round" stroke-linejoin="round"/>
<path d="M139.263 123.821C138.561 123.701 137.841 123.739 137.155 123.932C136.47 124.125 135.836 124.469 135.299 124.937C134.763 125.405 134.337 125.987 134.053 126.64C133.77 127.293 133.635 128.002 133.658 128.713C133.291 134.433 143.168 137.005 143.168 137.005L139.263 123.821Z" fill="white" stroke="#181F23" stroke-linecap="round" stroke-linejoin="round"/>
<path d="M173.759 87.2775C173.759 87.2775 157.245 112.543 139.949 120.445C139.949 120.445 142.246 148.834 152.284 158.114C162.321 167.393 178.583 165.624 188.184 158.114C197.785 150.603 193.628 105.285 193.628 105.285C193.628 105.285 178.813 97.6595 173.759 87.2775Z" fill="white"/>
<path d="M173.759 87.2775C173.759 87.2775 157.245 112.543 139.949 120.445C139.949 120.445 142.246 148.834 152.284 158.114C162.321 167.393 178.583 165.624 188.184 158.114C197.785 150.603 193.628 105.285 193.628 105.285C193.628 105.285 178.813 97.6595 173.759 87.2775Z" stroke="#181F23" stroke-linecap="round" stroke-linejoin="round"/>
<path d="M162.135 118.079C162.65 120.448 162.65 122.899 162.135 125.268C161.331 130 157.403 131.653 163.077 132.503" stroke="#181F23" stroke-linecap="round" stroke-linejoin="round"/>
<path d="M158.281 139.899C158.281 139.899 167.469 144.355 178.953 132.182" stroke="#181F23" stroke-linecap="round" stroke-linejoin="round"/>
<path d="M145.398 125.107C145.398 125.107 149.142 119.135 157.044 122.535" stroke="#181F23" stroke-linecap="round" stroke-linejoin="round"/>
<path d="M171.512 121.111C171.512 121.111 180.699 113.577 187.912 119.319" stroke="#181F23" stroke-linecap="round" stroke-linejoin="round"/>
<path d="M168.617 107.031C170.452 104.623 173.13 103 176.114 102.489C179.097 101.977 182.164 102.615 184.695 104.275" stroke="#181F23" stroke-linecap="round" stroke-linejoin="round"/>
<path d="M186.336 178.657C186.336 178.657 161.965 168.166 144.868 171.62C127.771 175.073 127.861 183.225 128.769 192.108C129.676 200.992 139.852 206.569 160.638 209.687C181.425 212.805 210.029 209.915 228.51 206.78C246.991 203.644 315.514 171.297 315.514 171.297L330.376 169.486C330.376 169.486 345.425 172.069 349.305 171.745C353.185 171.421 349.468 167.89 346.639 167.403C343.811 166.916 335.173 164.251 335.173 164.251C335.173 164.251 353.26 163.411 355.626 160.905C357.991 158.398 358.313 156.52 353.753 157.657C349.193 158.794 335.661 157.477 335.661 157.477C335.661 157.477 359.515 151.701 360.863 149.497C362.211 147.294 361.583 145.251 357.964 146.574C354.345 147.898 333.557 150.487 333.557 150.487L352.246 139.321C352.246 139.321 354.602 134.652 348.203 137.072C343.08 139.283 337.819 141.16 332.454 142.69C329.052 142.966 325.637 143.028 322.228 142.874C322.791 140.286 324.213 137.964 326.263 136.286C329.064 134.354 333.381 134.235 332.119 127.614C331.771 125.734 329.802 127.212 327.884 129.777C325.966 132.343 314.408 137.665 313.626 139.455C312.643 144.458 311.934 149.512 311.503 154.593C311.503 154.593 270.106 170.738 250.568 177.065C231.03 183.391 225.643 183.942 225.643 183.942L186.336 178.657Z" fill="white"/>
<path d="M186.336 178.657C186.336 178.657 161.965 168.166 144.868 171.62C127.771 175.073 127.861 183.225 128.769 192.108C129.676 200.992 139.852 206.569 160.638 209.687C181.425 212.806 210.029 209.915 228.51 206.78C246.991 203.644 315.514 171.297 315.514 171.297L330.376 169.486C330.376 169.486 345.425 172.069 349.305 171.745C353.185 171.421 349.468 167.89 346.639 167.403C343.811 166.916 335.173 164.251 335.173 164.251C335.173 164.251 353.26 163.411 355.626 160.905C357.991 158.398 358.313 156.52 353.753 157.657C349.193 158.794 335.661 157.477 335.661 157.477C335.661 157.477 359.515 151.701 360.863 149.497C362.211 147.294 361.583 145.251 357.964 146.574C354.345 147.898 333.557 150.487 333.557 150.487L352.246 139.321C352.246 139.321 354.602 134.652 348.203 137.072C343.08 139.283 337.819 141.16 332.454 142.69C329.052 142.966 325.637 143.028 322.228 142.874C322.791 140.286 324.213 137.964 326.263 136.286C329.064 134.354 333.381 134.235 332.119 127.614C331.771 125.734 329.802 127.212 327.884 129.777C325.966 132.343 314.408 137.665 313.626 139.455C312.643 144.458 311.934 149.512 311.503 154.593C311.503 154.593 270.106 170.738 250.568 177.065C231.03 183.391 225.643 183.942 225.643 183.942L186.336 178.657Z" stroke="#181F23" stroke-linecap="round" stroke-linejoin="round"/>
<path d="M185.556 599.047L173.727 605.111L162.954 591.881C160.106 599.507 153.261 607.959 153.445 611.014C153.675 614.873 173.428 627.207 180.571 634.856C187.715 642.505 201.772 647.282 203.012 643.056C204.252 638.83 191.642 626.978 189.506 615.815C188.656 611.703 187.14 605.708 185.556 599.047Z" fill="#181F23" stroke="white" stroke-linecap="round" stroke-linejoin="round"/>
</svg>
