<svg width="290" height="256" viewBox="0 0 290 256" fill="none" xmlns="http://www.w3.org/2000/svg">
<path d="M97.7242 60.3724C97.7242 60.3724 93.8464 49.4908 87.6776 45.0621C81.5088 40.6335 78.9358 43.0783 76.3719 46.0006C73.8079 48.9229 75.0454 53.8213 80.2119 61.3743C85.3784 68.9274 94.7783 77.1928 101.256 82.157C107.733 87.1211 138.359 99.3863 138.359 99.3863L143.341 103.589C143.341 103.589 146.978 109.154 148.231 110.295C149.485 111.436 149.509 109.204 148.826 108.158C148.143 107.112 146.432 103.567 146.432 103.567C146.432 103.567 152.061 109.086 153.562 109.098C155.062 109.109 155.757 108.655 154.042 107.538C152.328 106.421 148.737 101.715 148.737 101.715C148.737 101.715 157.65 107.61 158.752 107.387C159.854 107.164 160.32 106.358 158.825 105.596C157.33 104.834 150.343 98.9722 150.343 98.9722L159.443 101.623C159.443 101.623 161.63 100.99 158.962 99.6664C156.738 98.6883 154.581 97.5669 152.502 96.3092C151.406 95.3064 150.374 94.2356 149.413 93.103C150.405 92.5153 151.567 92.2806 152.71 92.4371C154.156 92.7576 155.474 94.099 157.211 91.7341C157.708 91.0661 156.653 90.8759 155.266 91.0247C153.879 91.1734 148.756 89.065 147.954 89.3462C146.067 90.5155 144.245 91.7874 142.497 93.156C142.497 93.156 125.078 84.7395 117.27 80.384C109.461 76.0284 107.689 74.4737 107.689 74.4737L97.7242 60.3724Z" fill="white"/>
<path d="M97.7242 60.3724C97.7242 60.3724 93.8464 49.4908 87.6776 45.0621C81.5088 40.6335 78.9358 43.0783 76.3719 46.0006C73.8079 48.9229 75.0454 53.8213 80.2119 61.3743C85.3784 68.9274 94.7783 77.1928 101.256 82.157C107.733 87.1211 138.359 99.3863 138.359 99.3863L143.341 103.589C143.341 103.589 146.978 109.154 148.231 110.295C149.485 111.436 149.509 109.204 148.826 108.158C148.143 107.112 146.432 103.567 146.432 103.567C146.432 103.567 152.061 109.086 153.562 109.098C155.062 109.109 155.757 108.655 154.042 107.538C152.328 106.421 148.737 101.715 148.737 101.715C148.737 101.715 157.65 107.61 158.752 107.387C159.854 107.164 160.32 106.358 158.825 105.596C157.33 104.834 150.343 98.9722 150.343 98.9722L159.443 101.623C159.443 101.623 161.63 100.99 158.962 99.6664C156.738 98.6883 154.581 97.5669 152.502 96.3092C151.406 95.3064 150.374 94.2356 149.413 93.103C150.405 92.5153 151.567 92.2806 152.71 92.4371C154.156 92.7576 155.474 94.099 157.211 91.7341C157.708 91.0661 156.653 90.8759 155.266 91.0247C153.879 91.1734 148.756 89.065 147.954 89.3462C146.067 90.5155 144.245 91.7874 142.497 93.156C142.497 93.156 125.078 84.7395 117.27 80.384C109.461 76.0284 107.689 74.4737 107.689 74.4737L97.7242 60.3724Z" stroke="#181F23" stroke-linecap="round" stroke-linejoin="round"/>
<mask id="path-3-inside-1" fill="white">
<path fill-rule="evenodd" clip-rule="evenodd" d="M289.648 163.15L281.421 172.978L289.648 182.806H108.65L114.942 172.978L108.65 163.15L114.942 153.322L108.65 143.495L114.942 133.667L108.65 123.839L114.942 114.011L108.65 104.183L114.942 94.3557L108.65 84.5279L116.878 74.7001L108.65 64.8724L289.648 64.8724L283.357 74.7001L289.648 84.5279L283.357 94.3557L289.648 104.183L283.357 114.011L289.648 123.839L283.357 133.667L289.648 143.495L283.357 153.322L289.648 163.15ZM289.648 163.15V182.806H289.65V64.8724L289.648 64.8724L289.648 84.5279V104.183V123.839V143.495V163.15Z"/>
</mask>
<path fill-rule="evenodd" clip-rule="evenodd" d="M289.648 163.15L281.421 172.978L289.648 182.806H108.65L114.942 172.978L108.65 163.15L114.942 153.322L108.65 143.495L114.942 133.667L108.65 123.839L114.942 114.011L108.65 104.183L114.942 94.3557L108.65 84.5279L116.878 74.7001L108.65 64.8724L289.648 64.8724L283.357 74.7001L289.648 84.5279L283.357 94.3557L289.648 104.183L283.357 114.011L289.648 123.839L283.357 133.667L289.648 143.495L283.357 153.322L289.648 163.15ZM289.648 163.15V182.806H289.65V64.8724L289.648 64.8724L289.648 84.5279V104.183V123.839V143.495V163.15Z" fill="white"/>
<path d="M281.421 172.978L280.654 172.336C280.343 172.707 280.343 173.248 280.654 173.62L281.421 172.978ZM108.65 182.806L107.808 182.266C107.611 182.574 107.598 182.965 107.773 183.286C107.949 183.606 108.285 183.806 108.65 183.806V182.806ZM114.942 172.978L115.784 173.517C115.994 173.188 115.994 172.767 115.784 172.439L114.942 172.978ZM108.65 163.15L107.808 162.611C107.598 162.94 107.598 163.361 107.808 163.689L108.65 163.15ZM114.942 153.322L115.784 153.861C115.994 153.533 115.994 153.112 115.784 152.783L114.942 153.322ZM108.65 143.495L107.808 142.955C107.598 143.284 107.598 143.705 107.808 144.034L108.65 143.495ZM114.942 133.667L115.784 134.206C115.994 133.877 115.994 133.456 115.784 133.128L114.942 133.667ZM108.65 123.839L107.808 123.3C107.598 123.628 107.598 124.049 107.808 124.378L108.65 123.839ZM114.942 114.011L115.784 114.55C115.994 114.222 115.994 113.801 115.784 113.472L114.942 114.011ZM108.65 104.183L107.808 103.644C107.598 103.973 107.598 104.394 107.808 104.723L108.65 104.183ZM114.942 94.3557L115.784 94.8948C115.994 94.5662 115.994 94.1452 115.784 93.8165L114.942 94.3557ZM108.65 84.5279L107.884 83.886C107.603 84.221 107.573 84.6992 107.808 85.0671L108.65 84.5279ZM116.878 74.7001L117.644 75.3421C117.955 74.9706 117.955 74.4297 117.644 74.0582L116.878 74.7001ZM108.65 64.8724L108.65 63.8724C108.262 63.8724 107.909 64.0973 107.744 64.4492C107.58 64.8012 107.634 65.2165 107.884 65.5143L108.65 64.8724ZM289.648 64.8724L289.652 63.8724H289.648V64.8724ZM283.357 74.7001L282.515 74.161C282.304 74.4896 282.304 74.9107 282.515 75.2393L283.357 74.7001ZM283.357 94.3557L282.515 93.8165C282.304 94.1452 282.304 94.5662 282.515 94.8948L283.357 94.3557ZM283.357 114.011L282.515 113.472C282.304 113.801 282.304 114.222 282.515 114.55L283.357 114.011ZM283.357 133.667L282.515 133.128C282.304 133.456 282.304 133.877 282.515 134.206L283.357 133.667ZM283.357 153.322L282.515 152.783C282.304 153.112 282.304 153.533 282.515 153.861L283.357 153.322ZM289.65 182.806V183.806C290.203 183.806 290.65 183.358 290.65 182.806H289.65ZM289.65 64.8724H290.65C290.65 64.3216 290.205 63.8746 289.654 63.8724L289.65 64.8724ZM282.188 173.62L290.415 163.792L288.882 162.508L280.654 172.336L282.188 173.62ZM290.415 182.164L282.188 172.336L280.654 173.62L288.882 183.447L290.415 182.164ZM108.65 183.806H289.648V181.806H108.65V183.806ZM114.1 172.439L107.808 182.266L109.493 183.345L115.784 173.517L114.1 172.439ZM107.808 163.689L114.1 173.517L115.784 172.439L109.493 162.611L107.808 163.689ZM114.1 152.783L107.808 162.611L109.493 163.689L115.784 153.861L114.1 152.783ZM107.808 144.034L114.1 153.861L115.784 152.783L109.493 142.955L107.808 144.034ZM114.1 133.128L107.808 142.955L109.493 144.034L115.784 134.206L114.1 133.128ZM107.808 124.378L114.1 134.206L115.784 133.128L109.493 123.3L107.808 124.378ZM114.1 113.472L107.808 123.3L109.493 124.378L115.784 114.55L114.1 113.472ZM107.808 104.723L114.1 114.55L115.784 113.472L109.493 103.644L107.808 104.723ZM114.1 93.8165L107.808 103.644L109.493 104.723L115.784 94.8948L114.1 93.8165ZM107.808 85.0671L114.1 94.8948L115.784 93.8165L109.493 83.9888L107.808 85.0671ZM116.111 74.0582L107.884 83.886L109.417 85.1698L117.644 75.3421L116.111 74.0582ZM107.884 65.5143L116.111 75.3421L117.644 74.0582L109.417 64.2305L107.884 65.5143ZM289.648 63.8724L108.65 63.8724L108.65 65.8724L289.648 65.8724V63.8724ZM284.199 75.2393L290.491 65.4115L288.806 64.3332L282.515 74.161L284.199 75.2393ZM290.491 83.9888L284.199 74.161L282.515 75.2393L288.806 85.0671L290.491 83.9888ZM284.199 94.8948L290.491 85.0671L288.806 83.9888L282.515 93.8165L284.199 94.8948ZM290.491 103.644L284.199 93.8165L282.515 94.8948L288.806 104.723L290.491 103.644ZM284.199 114.55L290.491 104.723L288.806 103.644L282.515 113.472L284.199 114.55ZM290.491 123.3L284.199 113.472L282.515 114.55L288.806 124.378L290.491 123.3ZM284.199 134.206L290.491 124.378L288.806 123.3L282.515 133.128L284.199 134.206ZM290.491 142.955L284.199 133.128L282.515 134.206L288.806 144.034L290.491 142.955ZM284.199 153.861L290.491 144.034L288.806 142.955L282.515 152.783L284.199 153.861ZM290.491 162.611L284.199 152.783L282.515 153.861L288.806 163.689L290.491 162.611ZM288.648 163.15V182.806H290.648V163.15H288.648ZM289.648 183.806H289.65V181.806H289.648V183.806ZM290.65 182.806V64.8724H288.65V182.806H290.65ZM289.654 63.8724L289.652 63.8724L289.645 65.8724L289.646 65.8724L289.654 63.8724ZM288.648 64.8724L288.648 84.5279H290.648L290.648 64.8724L288.648 64.8724ZM288.648 84.5279V104.183H290.648V84.5279H288.648ZM288.648 104.183V123.839H290.648V104.183H288.648ZM288.648 123.839V143.495H290.648V123.839H288.648ZM288.648 143.495V163.15H290.648V143.495H288.648Z" fill="black" mask="url(#path-3-inside-1)"/>
<path d="M128.582 64.8724V182.806M270.094 64.8724V182.806" stroke="black" stroke-width="2" stroke-linecap="round" stroke-dasharray="10 10"/>
<path d="M93.3919 17.5599C98.0409 33.7631 94.6885 53.8948 89.7131 72.2877C87.2273 81.4772 84.6993 88.809 82.5233 93.9083C81.4346 96.4596 80.4391 98.4399 79.587 99.8111C79.1604 100.497 78.7776 101.018 78.4455 101.379C78.1003 101.754 77.8601 101.9 77.7283 101.935L77.7267 101.935C77.0461 102.117 76.5266 102.095 76.1166 101.963C75.7061 101.831 75.3616 101.575 75.0545 101.216C74.4925 100.56 74.113 99.6373 73.7167 98.6744C73.6627 98.5433 73.6085 98.4115 73.5534 98.2795C73.3323 97.7494 73.0961 97.2161 72.8135 96.7724C72.5319 96.3304 72.1718 95.9244 71.6776 95.7133C71.1648 95.4942 70.5921 95.5198 69.9672 95.7761C69.3552 96.0272 68.6684 96.5079 67.8761 97.2413C64.8785 100.016 58.9639 102.553 53.4468 103.904C50.697 104.577 48.085 104.946 46.0251 104.912C44.9943 104.894 44.1242 104.776 43.4521 104.558C42.7765 104.338 42.3506 104.034 42.1289 103.682C41.5721 102.797 41.3569 101.825 41.2568 100.854C41.2117 100.416 41.1907 99.9878 41.1701 99.5664C41.1677 99.5189 41.1654 99.4714 41.1631 99.424C41.1402 98.9648 41.1144 98.5071 41.0498 98.0905C40.921 97.2592 40.6132 96.4419 39.7055 96.0608C38.8723 95.7112 37.6568 95.7938 35.9124 96.2764C35.705 96.3338 35.4839 96.3953 35.25 96.4604C31.5573 97.4881 24.6647 99.4064 17.9877 99.916C14.437 100.187 10.9863 100.056 8.1284 99.2027C5.28064 98.3528 3.05729 96.7993 1.86931 94.2379C-0.562672 88.9942 0.893435 84.0754 3.24331 79.7716C4.31776 77.8038 5.56681 75.9869 6.70094 74.3373C6.8079 74.1817 6.91383 74.0276 7.0185 73.875C8.2151 72.1306 9.27997 70.538 9.72939 69.2084C10.2098 67.787 9.89721 66.4334 9.31 65.106C9.01673 64.443 8.6475 63.7701 8.25963 63.086C8.16997 62.9278 8.07938 62.7692 7.98826 62.6096C7.68168 62.0728 7.36924 61.5257 7.06665 60.9524C5.51517 58.013 4.28488 54.5056 6.25032 49.563C7.20754 47.1559 9.80341 44.8143 13.3322 42.5715C16.8393 40.3425 21.1731 38.2685 25.4771 36.3604C27.2806 35.5608 29.0848 34.7879 30.8175 34.0456C33.1997 33.0251 35.4468 32.0625 37.3713 31.1679C39.0386 30.393 40.4899 29.6575 41.6034 28.9647C42.1604 28.6181 42.6429 28.2761 43.0291 27.9386C43.4115 27.6044 43.7237 27.254 43.9114 26.885C44.2317 26.2552 44.3772 25.6828 44.3462 25.1528C44.3147 24.6145 44.104 24.1687 43.7986 23.7945C43.5001 23.4287 43.1093 23.1287 42.7064 22.8646C42.4067 22.6681 42.0772 22.4772 41.7559 22.2911C41.6485 22.2289 41.5419 22.1671 41.4377 22.1059C40.5714 21.5969 39.8238 21.0945 39.4088 20.3922C39.0187 19.732 38.8762 18.8057 39.4516 17.3299C39.7218 16.6368 40.3542 15.7719 41.3303 14.7863C42.298 13.8092 43.5702 12.7463 45.0733 11.6538C48.0788 9.46935 51.9761 7.18934 56.1298 5.26313C60.2848 3.33633 64.6776 1.77225 68.6742 1.00766C72.6881 0.239763 76.2211 0.294189 78.7171 1.50794C83.8998 4.02819 87.5727 8.04159 89.9549 11.4426C91.1446 13.1411 92.0081 14.6809 92.5735 15.7943C92.8561 16.3509 93.0639 16.8003 93.2004 17.1092C93.2687 17.2636 93.3192 17.3828 93.3523 17.4627C93.3688 17.5026 93.381 17.5326 93.3889 17.5523L93.3919 17.5599Z" fill="#181F23" stroke="white"/>
<path d="M56.1819 159.748C56.1819 159.748 51.1119 163.938 44.5519 170.678C37.9919 177.418 28.2019 200.438 25.8319 204.008C23.4619 207.578 18.3819 212.008 18.3819 212.008C18.3819 212.008 9.38193 211.408 8.97193 213.518C8.56193 215.628 8.30192 219.588 7.10192 221.638C5.90192 223.688 3.59193 226.458 4.68193 229.988C5.77193 233.518 7.14193 237.068 9.06193 236.128C10.9819 235.188 11.6019 233.908 13.2419 229.228C14.8819 224.548 28.3219 214.538 33.0219 207.938C37.7219 201.338 55.3719 183.888 57.6619 181.388C59.9519 178.888 63.6619 179.658 65.1319 169.118C66.6019 158.578 61.1919 156.358 56.1819 159.748Z" fill="white" stroke="#181F23" stroke-linecap="round" stroke-linejoin="round"/>
<path d="M57.6617 181.398C59.9617 178.888 63.6617 179.668 65.1317 169.128C66.6017 158.588 61.1917 156.358 56.1817 159.748C56.1817 159.748 51.1117 163.938 44.5517 170.678C38.7617 176.618 30.4817 195.188 26.9717 201.968C28.701 204.263 31.0861 205.979 33.8117 206.888C39.4217 199.648 55.4817 183.778 57.6617 181.398Z" fill="#181F23" stroke="white" stroke-miterlimit="10"/>
<path d="M14.2519 218.118L16.6119 211.948C13.9719 211.888 9.26193 212.008 8.97193 213.518C8.57193 215.618 8.30192 219.588 7.10192 221.638C5.90192 223.688 3.59193 226.458 4.68193 229.988C5.77193 233.518 7.14193 237.058 9.06193 236.128C10.9819 235.198 11.6019 233.908 13.2419 229.228C13.9819 227.128 17.0819 223.968 20.7019 220.518C18.3019 217.988 14.2519 218.118 14.2519 218.118Z" fill="#181F23" stroke="white" stroke-linecap="round" stroke-linejoin="round"/>
<path d="M70.0925 48.4883C70.0925 48.4883 59.1925 46.2983 56.0925 52.3483C52.9925 58.3983 62.8425 85.5183 63.2625 88.4683C63.6825 91.4183 49.9325 100.918 46.1025 111.468C42.2725 122.018 44.7525 131.598 49.2625 145.238C53.7725 158.878 58.3425 165.428 57.0925 171.598C55.8425 177.768 55.9425 185.698 58.0925 191.678C60.2425 197.658 71.8525 225.938 71.6025 229.678C71.3525 233.418 66.8425 238.528 66.9425 240.198C67.0425 241.868 75.6425 247.248 78.7525 250.578C81.8625 253.908 87.9825 255.988 88.5225 254.148C89.0625 252.308 83.5725 247.148 82.6425 242.288C81.7125 237.428 78.4825 226.588 77.8725 220.088C77.2625 213.588 72.7525 178.088 72.1725 174.268C71.8326 171.08 71.769 167.868 71.9825 164.668C71.9825 164.668 82.9825 146.028 84.8425 131.138C86.7025 116.248 88.0525 95.5083 89.4225 90.5983C90.7925 85.6883 93.8225 74.5983 93.8225 74.5983C95.047 68.8705 95.3842 62.9885 94.8225 57.1583C93.7125 48.7483 81.3225 47.0883 77.3325 47.4483C73.3425 47.8083 70.0925 48.4883 70.0925 48.4883Z" fill="white" stroke="#181F23" stroke-linecap="round" stroke-linejoin="round"/>
<path d="M71.6251 174.351L71.6264 174.363L71.6281 174.374C72.1118 177.514 75.2936 202.489 76.7148 214.627C74.0108 215.933 71.0055 216.49 68.0125 216.24C66.2744 211.526 64.2462 206.302 62.4894 201.795C62.3092 201.333 62.132 200.879 61.9582 200.433C60.3994 196.437 59.1221 193.162 58.5541 191.543L58.5528 191.539C56.4411 185.666 56.3356 177.832 57.5723 171.728C58.2281 168.491 57.347 165.192 55.7952 161.073C55.2928 159.74 54.7197 158.32 54.0985 156.78C52.7848 153.524 51.2562 149.736 49.727 145.111C45.2142 131.463 42.7883 122.069 46.5615 111.671C47.1344 110.139 47.855 108.668 48.7127 107.276C62.958 115.167 78.0708 116.94 85.7734 117.304C85.3091 122.052 84.8257 126.822 84.2961 131.107C83.3758 138.474 80.187 146.8 77.2101 153.309C75.7241 156.558 74.2959 159.344 73.2393 161.317C72.7111 162.304 72.276 163.086 71.9733 163.622C71.8219 163.89 71.7036 164.096 71.6234 164.235C71.5833 164.304 71.5527 164.357 71.5322 164.392L71.5091 164.432L71.5034 164.441L71.5021 164.444L71.5017 164.444C71.5017 164.444 71.5017 164.444 71.9323 164.698L71.5017 164.444L71.4413 164.546L71.4334 164.665C71.218 167.893 71.2821 171.134 71.6251 174.351Z" fill="#181F23" stroke="white"/>
<path d="M68.4521 127.318C68.4521 127.318 70.8021 151.948 71.2621 161.018" stroke="white" stroke-width="0.8" stroke-linecap="round" stroke-linejoin="round"/>
<path d="M45.252 114.198C50.252 119.548 62.732 129.298 85.452 125.458C86.9619 111.458 88.1719 94.9383 89.3719 90.6283C90.7419 85.7183 93.7719 74.6283 93.7719 74.6283C94.9964 68.9005 95.3337 63.0185 94.7719 57.1883C93.6619 48.7783 81.272 47.1183 77.282 47.4783C73.292 47.8383 70.1319 48.4783 70.1319 48.4783C70.1319 48.4783 59.2319 46.2883 56.1319 52.3383C53.0319 58.3883 62.8819 85.5083 63.3019 88.4583C63.7219 91.4083 49.972 100.908 46.142 111.458C45.762 112.408 45.492 113.308 45.252 114.198Z" fill="white"/>
<path d="M45.252 114.198C50.252 119.548 62.732 129.298 85.452 125.458C86.962 111.458 88.1719 94.9383 89.3719 90.6283C90.7419 85.7183 93.7719 74.6283 93.7719 74.6283C94.9964 68.9005 95.3337 63.0185 94.7719 57.1883C93.6619 48.7783 81.272 47.1183 77.282 47.4783C73.292 47.8383 70.1319 48.4783 70.1319 48.4783C70.1319 48.4783 59.2319 46.2883 56.1319 52.3383C53.0319 58.3883 62.8819 85.5083 63.3019 88.4583C63.7219 91.4083 49.972 100.908 46.142 111.458C45.762 112.408 45.492 113.308 45.252 114.198Z" stroke="#181F23" stroke-linecap="round" stroke-linejoin="round"/>
<path d="M70.3252 43.7283C71.1823 45.4969 71.83 47.3595 72.2552 49.2783C72.5252 51.3783 74.7852 55.0783 78.1252 58.0083C81.4652 60.9383 83.5352 58.1583 83.3852 54.1883C83.2352 50.2183 81.1552 40.6983 81.1552 40.6983C81.1552 40.6983 74.2452 44.4083 70.3252 43.7283Z" fill="white" stroke="#181F23" stroke-linecap="round" stroke-linejoin="round"/>
<path d="M60.7451 28.1183C60.4395 28.0662 60.1261 28.0827 59.8276 28.1668C59.5291 28.2508 59.2531 28.4002 59.0195 28.6041C58.7859 28.808 58.6007 29.0613 58.4771 29.3457C58.3535 29.6301 58.2948 29.9384 58.3051 30.2483C58.1451 32.7383 62.4451 33.8583 62.4451 33.8583L60.7451 28.1183Z" fill="white" stroke="#181F23" stroke-linecap="round" stroke-linejoin="round"/>
<path d="M75.7649 12.2083C75.7649 12.2083 68.5749 23.2083 61.0449 26.6483C61.0449 26.6483 62.0449 39.0083 66.4149 43.0483C70.7849 47.0883 77.8649 46.3183 82.0449 43.0483C86.2249 39.7783 84.4149 20.0483 84.4149 20.0483C84.4149 20.0483 77.9649 16.7283 75.7649 12.2083Z" fill="white"/>
<path d="M75.7659 12.2083C75.7659 12.2083 68.5759 23.2083 61.0459 26.6483C61.0459 26.6483 62.0459 39.0083 66.4159 43.0483C70.7859 47.0883 77.8659 46.3183 82.0459 43.0483C86.2259 39.7783 84.4159 20.0483 84.4159 20.0483C84.4159 20.0483 77.9659 16.7283 75.7659 12.2083Z" stroke="#181F23" stroke-linecap="round" stroke-linejoin="round"/>
<path d="M70.705 25.6183C70.9291 26.6496 70.9291 27.717 70.705 28.7483C70.355 30.8083 68.645 31.5283 71.115 31.8983" stroke="#181F23" stroke-linecap="round" stroke-linejoin="round"/>
<path d="M69.0254 35.1183C69.0254 35.1183 73.0254 37.0583 78.0254 31.7583" stroke="#181F23" stroke-linecap="round" stroke-linejoin="round"/>
<path d="M63.415 28.6783C63.415 28.6783 65.045 26.0783 68.485 27.5583" stroke="#181F23" stroke-linecap="round" stroke-linejoin="round"/>
<path d="M74.7861 26.9383C74.7861 26.9383 78.7861 23.6583 81.9261 26.1583" stroke="#181F23" stroke-linecap="round" stroke-linejoin="round"/>
<path d="M73.5244 20.8083C74.3231 19.76 75.4894 19.0534 76.7883 18.8308C78.0872 18.6081 79.4222 18.8859 80.5244 19.6083" stroke="#181F23" stroke-linecap="round" stroke-linejoin="round"/>
<path d="M75.6031 68.9341C75.6031 68.9341 73.6826 57.5429 68.3807 52.1063C63.0789 46.6696 60.1189 48.6282 57.0846 51.0586C54.0502 53.4889 54.4144 58.528 58.1844 66.8664C61.9544 75.2047 69.7687 84.9829 75.2812 91.0007C80.7937 97.0185 108.81 114.437 108.81 114.437L112.984 119.444C112.984 119.444 115.594 125.558 116.629 126.9C117.664 128.243 118.077 126.049 117.587 124.9C117.097 123.75 116.031 119.962 116.031 119.962C116.031 119.962 120.611 126.378 122.087 126.651C123.562 126.924 124.325 126.598 122.832 125.199C121.339 123.8 118.624 118.54 118.624 118.54C118.624 118.54 126.372 125.899 127.496 125.872C128.62 125.844 129.219 125.132 127.88 124.121C126.541 123.11 120.683 116.119 120.683 116.119L129.182 120.316C129.182 120.316 131.446 120.075 129.049 118.306C127.03 116.955 125.101 115.475 123.274 113.874C122.37 112.695 121.54 111.461 120.791 110.178C121.871 109.772 123.056 109.744 124.154 110.097C125.522 110.665 126.585 112.216 128.709 110.19C129.314 109.619 128.308 109.248 126.917 109.152C125.526 109.057 120.849 106.087 120.01 106.224C117.947 107.047 115.932 107.981 113.972 109.024C113.972 109.024 98.2881 97.6985 91.359 92.0479C84.4299 86.3972 82.9559 84.5572 82.9559 84.5572L75.6031 68.9341Z" fill="white"/>
<path d="M75.6031 68.9341C75.6031 68.9341 73.6826 57.5429 68.3807 52.1063C63.0789 46.6696 60.1189 48.6282 57.0846 51.0586C54.0502 53.4889 54.4144 58.528 58.1844 66.8664C61.9544 75.2047 69.7687 84.9829 75.2812 91.0007C80.7937 97.0185 108.81 114.437 108.81 114.437L112.984 119.444C112.984 119.444 115.594 125.558 116.629 126.9C117.664 128.243 118.077 126.049 117.587 124.9C117.097 123.75 116.031 119.962 116.031 119.962C116.031 119.962 120.611 126.378 122.087 126.651C123.562 126.924 124.325 126.598 122.832 125.199C121.339 123.8 118.624 118.54 118.624 118.54C118.624 118.54 126.372 125.899 127.496 125.872C128.62 125.844 129.219 125.132 127.88 124.121C126.541 123.11 120.683 116.119 120.683 116.119L129.182 120.316C129.182 120.316 131.446 120.075 129.049 118.306C127.03 116.955 125.101 115.475 123.274 113.874C122.37 112.695 121.54 111.461 120.791 110.178C121.871 109.772 123.056 109.744 124.154 110.097C125.522 110.665 126.585 112.216 128.709 110.19C129.314 109.619 128.308 109.248 126.917 109.152C125.526 109.057 120.849 106.087 120.01 106.224C117.947 107.047 115.932 107.981 113.972 109.024C113.972 109.024 98.2881 97.6985 91.359 92.0479C84.4299 86.3972 82.9559 84.5572 82.9559 84.5572L75.6031 68.9341Z" stroke="#181F23" stroke-linecap="round" stroke-linejoin="round"/>
<path d="M80.9025 235.018L75.7525 237.658L71.0625 231.898C69.8225 235.218 66.8425 238.898 66.9225 240.228C67.0225 241.908 75.6225 247.278 78.7325 250.608C81.8425 253.938 87.9625 256.018 88.5025 254.178C89.0425 252.338 83.5525 247.178 82.6225 242.318C82.2525 240.528 81.5925 237.918 80.9025 235.018Z" fill="#181F23" stroke="white" stroke-linecap="round" stroke-linejoin="round"/>
</svg>
