<svg width="317" height="176" viewBox="0 0 317 176" fill="none" xmlns="http://www.w3.org/2000/svg">
<path d="M188.767 90.6868L205.915 136.515C199.766 136.019 191.114 136.312 181.472 136.639L181.014 136.654C170.745 137.002 159.359 137.376 148.58 136.889C137.794 136.402 127.664 135.053 119.894 131.98C112.133 128.91 106.809 124.158 105.447 116.89C104.718 113.002 102.879 109.117 100.733 105.491C98.9946 102.553 97.0385 99.7592 95.2879 97.2586C94.8782 96.6734 94.4798 96.1043 94.0981 95.5532C93.088 94.0949 92.1967 92.7658 91.5118 91.588C90.8226 90.4027 90.3654 89.4088 90.1938 88.6161C90.024 87.8316 90.1509 87.3479 90.4837 87.0299C90.8405 86.689 91.5452 86.4223 92.8162 86.3672C92.8781 86.4063 92.9612 86.4583 93.0653 86.5224C93.3174 86.6778 93.6926 86.9046 94.1886 87.1928C95.1805 87.7692 96.6553 88.591 98.5936 89.5768C102.47 91.5484 108.201 94.1765 115.631 96.8101C119.438 98.1596 125.962 98.4184 133.521 98.0814C141.108 97.7431 149.823 96.799 158.064 95.692C166.308 94.5847 174.087 93.3134 179.805 92.3189C182.664 91.8217 185.008 91.3936 186.637 91.0898C187.452 90.9379 188.088 90.817 188.521 90.7341C188.612 90.7166 188.694 90.7009 188.767 90.6868Z" fill="white" stroke="#181F23" stroke-linecap="round" stroke-linejoin="round"/>
<path d="M162.268 127.086C160.827 127.838 159.336 128.49 157.807 129.039" stroke="#181F23" stroke-linecap="round" stroke-linejoin="round"/>
<path d="M183.189 106.262C179.107 113.297 173.604 119.405 167.031 124.196" stroke="#181F23" stroke-linecap="round" stroke-linejoin="round"/>
<path d="M172.129 114.726C172.129 114.726 158.461 126.442 144.139 130.992" stroke="#181F23" stroke-linecap="round" stroke-linejoin="round"/>
<path d="M265.198 60.3761L262.27 51.2673L274.961 44.7554L279.199 56.1487L265.198 60.3761Z" fill="white" stroke="#181F23" stroke-linecap="round" stroke-linejoin="round"/>
<path d="M270.078 50.6132C270.078 50.6132 266.505 53.5421 263.898 54.1962C261.291 54.8503 259.993 52.8879 260.647 51.2673C261.301 49.6466 258.362 47.0302 255.111 43.7791C251.86 40.528 250.552 34.0161 254.789 31.4094C259.026 28.8027 268.125 20.6702 271.708 15.4665C275.291 10.2629 284.4 8.63248 287.329 8.63248C290.258 8.63248 289.282 13.1918 284.078 20.6702C278.874 28.1486 274.637 36.945 274.637 38.8976C274.637 40.8502 278.864 41.8265 278.864 44.7554C278.864 47.6843 270.078 50.6132 270.078 50.6132Z" fill="white" stroke="#181F23" stroke-linecap="round" stroke-linejoin="round"/>
<path d="M260.247 38.5831L260.245 38.5863C259.331 40.5314 258.158 42.3432 256.759 43.9728L255.83 43.0502C255.83 43.05 255.829 43.0498 255.829 43.0497C254.38 41.6004 253.356 39.4087 253.174 37.302C252.992 35.204 253.645 33.2775 255.432 32.1903L255.446 32.1814C257.018 31.1523 258.525 30.0271 259.957 28.8124C261.189 30.6244 262.471 33.9398 260.247 38.5831Z" fill="#181F23" stroke="white" stroke-linecap="round" stroke-linejoin="round"/>
<path d="M285.195 17.1703C282.479 15.6379 279.084 13.6198 276.997 12.3685C280.024 10.8311 283.346 9.95089 286.744 9.78991C287.202 9.794 287.428 9.94371 287.552 10.1419C287.7 10.3771 287.782 10.7999 287.679 11.4853C287.486 12.7778 286.683 14.7013 285.195 17.1703Z" fill="#181F23" stroke="white" stroke-linecap="round" stroke-linejoin="round"/>
<path d="M220.072 92.1437C220.118 92.1657 220.167 92.1806 220.218 92.1878C227.006 93.1515 242.667 97.5858 256.677 101.796C263.672 103.898 270.24 105.94 275.06 107.456C277.47 108.214 279.442 108.841 280.812 109.278C281.497 109.497 282.032 109.668 282.395 109.784L282.808 109.917L282.914 109.951L282.94 109.96L282.947 109.962L282.949 109.962C282.949 109.962 282.949 109.962 282.955 109.943C282.967 109.908 282.999 109.807 283.092 109.521L282.949 109.963C283.137 110.023 283.342 109.968 283.474 109.821C283.606 109.675 283.64 109.465 283.56 109.284L261.326 59.0017L279.267 52.8588L279.434 53.1964C279.67 53.6733 280.017 54.3733 280.458 55.2655C281.341 57.0498 282.603 59.6027 284.121 62.6774C287.156 68.8268 291.214 77.0629 295.302 85.4098C299.39 93.757 303.508 102.214 306.664 108.805C308.243 112.101 309.58 114.929 310.553 117.043C311.039 118.1 311.434 118.977 311.721 119.642C312.014 120.322 312.182 120.75 312.232 120.932C313.209 124.487 314.089 130.027 310.106 133.689C308.836 134.787 307.344 135.604 305.731 136.085C304.115 136.567 302.414 136.701 300.742 136.477C300.72 136.474 300.697 136.473 300.674 136.473L174.356 136.95L172.096 94.531C172.308 94.4455 172.62 94.3214 173.024 94.1669C173.838 93.8555 175.025 93.4207 176.514 92.9285C179.492 91.9439 183.671 90.7314 188.474 89.8192C198.1 87.9911 210.148 87.3863 220.072 92.1437Z" fill="#181F23" stroke="white" stroke-linecap="round" stroke-linejoin="round"/>
<path d="M252.816 76.5856C252.816 76.5856 245.362 68.0644 245.268 64.9995C245.175 61.9347 248.212 58.0454 250.319 57.0173C252.427 55.9892 260.247 50.3878 263.62 47.838C266.993 45.2882 270.938 43.074 273.959 43.7126C276.979 44.3512 280.331 44.4254 279.136 47.1201C277.942 49.8149 271.242 56.0728 268.443 60.8487C265.644 65.6246 263.084 71.2871 263.084 71.2871L254.051 77.6829L252.816 76.5856Z" fill="white" stroke="#181F23" stroke-linecap="round" stroke-linejoin="round"/>
<path d="M278.272 46.896L278.272 46.896C278.484 46.4091 278.444 46.1418 278.36 45.98C278.264 45.794 278.039 45.605 277.607 45.4251C277.183 45.2484 276.638 45.1122 276.007 44.9801C275.776 44.9317 275.529 44.8832 275.276 44.8333C274.863 44.752 274.432 44.667 274.02 44.5733M278.272 46.896L274.816 52.079C276.627 50.0445 278.252 48.2183 278.73 47.0959C279.571 45.1687 277.597 44.7802 275.359 44.3399C274.953 44.2601 274.538 44.1784 274.13 44.0856C272.699 43.7627 271.026 44.1553 269.343 44.9215C269.437 45.0593 269.534 45.1988 269.632 45.3396M278.272 46.896L278.27 46.8999C278.06 47.3921 277.573 48.0855 276.874 48.9439C276.265 49.6918 275.524 50.5303 274.73 51.4233C273.038 49.9822 271.139 47.5064 269.632 45.3396M278.272 46.896L269.172 45.5547C269.326 45.4796 269.479 45.4079 269.632 45.3396M274.02 44.5733C274.019 44.5732 274.019 44.5732 274.019 44.5732L274.13 44.0857L274.02 44.5734C274.02 44.5733 274.02 44.5733 274.02 44.5733ZM274.02 44.5733C272.764 44.2901 271.242 44.6187 269.632 45.3396" fill="#181F23" stroke="white" stroke-linecap="round" stroke-linejoin="round"/>
<path d="M250.877 57.78L250.893 57.7727C251.599 57.4263 252.287 57.048 252.954 56.639C253.064 57.305 253.159 58.0212 253.236 58.8023L253.235 58.8023L253.237 58.8133C253.477 60.8072 252.898 62.9882 251.946 65.0808C251.106 66.9265 249.993 68.6663 248.958 70.0923C248.281 69.1664 247.661 68.2467 247.181 67.4133C246.594 66.395 246.262 65.5812 246.229 65.0619C246.147 63.6944 246.782 62.1034 247.745 60.7057C248.707 59.3077 249.925 58.2074 250.877 57.78Z" fill="#181F23" stroke="white" stroke-linecap="round" stroke-linejoin="round"/>
<path d="M206.587 136.503C206.587 136.503 261.781 156.541 270.464 159.74C279.147 162.938 282.238 157.182 282.621 155.89C284.269 150.34 263.956 69.1626 263.956 69.1626L251.704 77.8274L253.577 124.197L210.862 95.384" fill="#181F23"/>
<path d="M206.587 136.503C206.587 136.503 261.781 156.541 270.464 159.74C279.147 162.938 282.238 157.182 282.621 155.89C284.269 150.34 263.956 69.1626 263.956 69.1626L251.704 77.8274L253.577 124.197L210.862 95.384" stroke="white" stroke-linecap="round" stroke-linejoin="round"/>
<path d="M57.7021 128.181H49.0446C48.3022 128.181 39.0878 126.889 37.6177 126.696C36.1475 126.503 31.7148 137.782 31.7148 137.782H66.1814L57.7021 128.181Z" fill="white" stroke="#181F23" stroke-linecap="round" stroke-linejoin="round"/>
<path d="M38.1807 128.36C38.1807 128.36 37.6906 130.223 38.1807 130.906C38.6707 131.59 39.8439 131.397 39.8439 132.666C39.8439 133.936 39.7473 134.723 41.5071 135.636C43.2668 136.549 41.9971 137.262 43.3707 137.819" stroke="#181F23" stroke-linecap="round" stroke-linejoin="round"/>
<path d="M37.9579 133.052C37.9579 133.052 34.8468 136.23 33.9707 137.767" stroke="#181F23" stroke-linecap="round" stroke-linejoin="round"/>
<path d="M39.0574 135.903C38.3729 136.464 37.7505 137.096 37.2012 137.789" stroke="#181F23" stroke-linecap="round" stroke-linejoin="round"/>
<path d="M40.1344 25.5021C39.6072 22.8959 27.512 30.5659 27.5863 36.1866C27.6605 41.8073 37.9812 40.9163 37.9812 40.9163C37.9812 40.9163 41.0106 29.8457 40.1344 25.5021Z" fill="#181F23" stroke="#181F23" stroke-linecap="round" stroke-linejoin="round"/>
<path d="M39.2922 31.5145C30.6697 20.9419 31.6118 21.3312 27.6593 17.6478C26.1795 16.1841 24.3298 15.15 22.3078 14.656C15.1032 14.646 1.1714 12.4246 1.1714 12.4246C1.1714 12.4246 0.468332 13.9369 2.68837 14.7258C4.9084 15.5148 12.0941 16.9411 12.0941 16.9411C12.0941 16.9411 9.08598 19.1763 10.6668 20.7141C10.6668 20.7141 8.95691 22.2284 12.0635 24.6482C12.1409 25.2643 12.3281 25.8614 12.6161 26.4115C13.5065 27.4474 15.4965 28.2186 16.5305 27.2785C16.5305 27.2785 22.2632 29.3751 26.5008 28.9637L35.3913 43.3274L39.2922 31.5145Z" fill="white" stroke="#181F23" stroke-linecap="round" stroke-linejoin="round"/>
<path d="M14.1952 17.728C14.3722 18.1811 14.3664 18.6852 14.1793 19.1342" stroke="#181F23" stroke-linecap="round" stroke-linejoin="round"/>
<path d="M12.9648 18.8517C13.3834 18.9013 13.7876 19.0351 14.1531 19.245C14.5186 19.4548 14.8379 19.7364 15.0918 20.0729" stroke="#181F23" stroke-linecap="round" stroke-linejoin="round"/>
<path d="M10.6816 20.7231C11.2675 21.7907 14.4891 23.3089 15.8017 22.8765" stroke="#181F23" stroke-linecap="round" stroke-linejoin="round"/>
<path d="M12.0723 24.6608C12.5483 24.937 13.0405 25.1845 13.5461 25.4018C16.6447 26.5725 16.6958 24.5203 16.6958 24.5203" stroke="#181F23" stroke-linecap="round" stroke-linejoin="round"/>
<path d="M16.5393 27.291C17.0324 26.8668 17.4829 26.3955 17.8844 25.8838C18.2183 25.0568 17.0628 24.3866 17.0628 24.3866" stroke="#181F23" stroke-linecap="round" stroke-linejoin="round"/>
<path d="M21.6472 16.1533C21.1442 16.7212 20.4926 17.1374 19.7659 17.3551C18.7182 17.5913 15.4188 18.2925 15.0907 19.5312C14.7626 20.77 16.6608 24.522 16.6608 24.522C16.6608 24.522 18.8231 24.7583 18.1306 21.598C18.1306 21.598 19.3405 21.781 20.8613 23.4873C22.3821 25.1936 24.3049 26.5521 25.4421 25.8772" fill="white"/>
<path d="M21.6472 16.1533C21.1442 16.7212 20.4926 17.1374 19.7659 17.3551C18.7182 17.5913 15.4188 18.2925 15.0907 19.5312C14.7626 20.77 16.6608 24.522 16.6608 24.522C16.6608 24.522 18.8231 24.7583 18.1306 21.598C18.1306 21.598 19.3405 21.781 20.8613 23.4873C22.3821 25.1936 24.3049 26.5521 25.4421 25.8772" stroke="#181F23" stroke-linecap="round" stroke-linejoin="round"/>
<path d="M93.2158 16.2223C93.3456 16.2336 93.5114 16.2489 93.7101 16.2685C94.2472 16.3217 95.0244 16.4072 95.9811 16.5365C97.8952 16.7951 100.524 17.2283 103.383 17.9262C109.133 19.3296 115.694 21.7758 119.33 25.9232C121.113 27.9574 121.996 30.5791 122.391 33.5611C122.786 36.5472 122.687 39.846 122.544 43.2068C122.532 43.5053 122.519 43.8044 122.506 44.1037C122.373 47.1568 122.238 50.239 122.459 53.096C122.701 56.2349 123.374 59.1629 124.993 61.5324C126.578 63.8536 128.863 65.9812 131.247 68.1765C131.325 68.2475 131.402 68.3186 131.479 68.3897C133.808 70.5336 136.231 72.7633 138.292 75.3635C140.417 78.0433 142.147 81.1033 142.971 84.8347C143.795 88.5655 143.721 93.0002 142.19 98.4392C140.681 103.801 137.429 107.24 133.161 109.044C128.874 110.855 123.52 111.033 117.817 109.769C106.408 107.241 93.762 98.9757 85.8701 86.9455C81.9608 80.9861 80.4471 73.5882 80.4007 65.8011C80.3543 58.0165 81.7748 49.8804 83.6965 42.4814C85.6177 35.0848 88.0355 28.4411 89.9736 23.6457C90.9425 21.2485 91.791 19.3145 92.3969 17.9806C92.6998 17.3137 92.942 16.797 93.1082 16.4475C93.1486 16.3624 93.1846 16.2873 93.2158 16.2223Z" fill="#181F23" stroke="white"/>
<path d="M96.4592 16.7614C96.46 16.7616 96.4608 16.7618 96.4616 16.762C109.532 20.1057 114.204 32.2207 115.571 43.7248C116.252 49.4591 116.104 54.9874 115.783 59.0861C115.623 61.1343 115.42 62.8227 115.258 63.9979C115.177 64.5854 115.106 65.0445 115.055 65.3559C115.037 65.4683 115.021 65.5615 115.008 65.6345C114.968 65.6643 114.919 65.6995 114.864 65.7399C114.663 65.8856 114.367 66.0988 113.987 66.3682C113.225 66.907 112.125 67.6702 110.773 68.5661C108.068 70.3587 104.358 72.6795 100.335 74.7974C96.3072 76.9177 91.9869 78.8232 88.0566 79.7992C84.1034 80.781 80.6662 80.7921 78.3008 79.29C73.4329 76.1988 72.5109 71.6599 72.386 65.8939C72.3569 64.5475 72.3721 63.1338 72.388 61.6621C72.4396 56.8684 72.4979 51.4599 71.0502 45.7608C69.1757 38.382 68.1138 32.3887 68.7422 27.7721C69.0547 25.477 69.7829 23.5426 71.0228 21.9507C72.2623 20.3592 74.038 19.0781 76.4968 18.129C81.4657 16.2109 86.4593 15.8671 90.2206 16.0067C92.0993 16.0764 93.6653 16.2666 94.7596 16.4389C95.3067 16.525 95.7354 16.6066 96.026 16.6663C96.1713 16.6961 96.2821 16.7205 96.3557 16.7372C96.3925 16.7456 96.4201 16.7521 96.4381 16.7563L96.4578 16.7611L96.4592 16.7614Z" fill="#181F23" stroke="white"/>
<path d="M90.5118 137.789C90.5118 137.789 82.827 128.137 78.0305 121.543L77.3474 120.593C76.3388 119.232 75.4092 117.814 74.5631 116.346C74.4636 116.157 74.384 115.958 74.3255 115.752C73.7389 113.851 74.073 110.428 74.7338 106.894C74.9343 105.795 75.1719 104.667 75.417 103.605C76.501 98.8455 77.8301 94.6949 77.8301 94.6949C77.8301 94.6949 76.1891 94.7914 73.5459 94.8954C72.3579 94.9474 70.9768 94.9993 69.4399 95.0439C66.9748 95.1107 64.131 95.1701 61.1536 95.1776H57.6417C54.0406 95.133 50.3801 95.0067 47.0686 94.7394C45.9919 94.6503 44.9524 94.5538 43.9649 94.4276C41.4435 94.2177 38.9627 93.6631 36.592 92.7793C35.6045 92.3412 34.7209 91.2943 33.9338 89.6979C33.0507 87.8244 32.3663 85.8634 31.892 83.8471C31.0166 80.2429 30.3498 76.5911 29.8947 72.9102C29.6868 71.3583 29.5012 69.762 29.3304 68.1508C29.0334 65.3887 28.7809 62.5895 28.5879 59.8497C28.5037 58.7409 28.4295 57.6495 28.3651 56.5753C28.2018 54.0137 28.0682 51.5412 27.9642 49.2618C27.9197 48.1406 27.8751 47.0343 27.838 46.0468C27.7117 42.661 27.6524 39.8989 27.6152 38.1615C27.6152 36.877 27.6152 36.1567 27.6152 36.1567C27.6152 36.1567 36.9484 34.1595 40.1634 25.4723C40.1634 25.4723 40.5123 26.9573 41.0692 29.608C41.2994 30.7217 41.5667 32.0359 41.8637 33.5283C42.1087 34.7906 42.376 36.1716 42.6433 37.6566C43.0888 39.9954 43.5491 42.6016 44.0021 45.4008C44.1877 46.5071 44.3659 47.6283 44.5515 48.8088C44.8782 50.9546 45.2049 53.1821 45.5093 55.4913C45.643 56.5159 45.7766 57.5554 45.9028 58.6024C46.0662 59.8497 46.2073 61.1045 46.3483 62.3742C46.4894 63.6439 46.6156 64.8319 46.7344 66.0867C46.8532 67.3415 46.9423 68.3661 47.0314 69.5021C47.0834 70.1407 47.1354 70.7718 47.1799 71.4103C47.9832 71.2853 48.795 71.2232 49.6079 71.2247C49.9208 71.2076 50.2328 71.2715 50.5137 71.4103C51.1003 71.841 51.5087 74.3209 51.5087 74.3209L52.318 74.1575L55.2879 73.5635L61.072 72.4498L64.042 71.9004C65.5269 71.6257 67.0119 71.3509 68.5489 71.0911L71.5189 70.5787C73.6424 70.2298 75.662 69.9105 77.4588 69.6729C78.58 69.517 79.5972 69.3908 80.4733 69.3091L80.9411 69.2645C82.7787 69.1624 84.6215 69.2145 86.4504 69.4204C98.1744 70.5193 119.009 75.5089 129.255 76.1029C133.71 76.3702 136.494 84.0773 138.648 93.9673C139.227 96.6254 139.761 99.4469 140.281 102.32C140.563 103.909 140.838 105.506 141.105 107.109C141.373 108.713 101.178 137.789 90.5118 137.789Z" fill="white" stroke="#181F23" stroke-linecap="round" stroke-linejoin="round"/>
<path d="M138.579 93.9895L140.94 92.2817C140.94 92.2817 143.324 97.7836 143.391 99.8403C143.406 100.016 143.386 100.193 143.331 100.36C143.071 101.043 142.024 104.176 141.037 107.132C140.911 107.51 140.784 107.874 140.666 108.245C140.049 110.109 139.5 111.757 139.262 112.463L139.225 112.574L139.143 112.827C139.143 112.827 139.255 113.992 139.396 115.797C139.5 117.14 139.611 118.841 139.7 120.712C139.76 121.774 139.797 122.887 139.834 124.023C139.834 124.224 139.834 124.432 139.834 124.632C139.834 125.627 139.834 126.629 139.834 127.602C139.834 128.159 139.834 128.701 139.834 129.236C139.797 130.446 139.737 131.604 139.634 132.666C139.403 135.02 138.98 136.891 138.267 137.73H61.2857C61.2857 137.73 54.6032 133.193 54.232 129.674C53.9748 127.921 53.9748 126.14 54.232 124.387H54.9745L57.7959 124.543L61.9316 123.63L64.8571 123.006C67.3296 122.486 70.1584 121.892 72.876 121.358C73.8783 121.157 74.8659 120.972 75.8088 120.793L76.826 120.6L77.3829 120.496C78.7417 120.251 79.9668 120.044 80.9766 119.895C81.7601 119.764 82.5512 119.682 83.3451 119.65H85.4612H88.498H92.7451H95.8636L99.0043 119.687C100.749 119.65 102.427 119.591 103.927 119.502L105.152 119.427C106.036 119.36 106.823 119.286 107.498 119.197C108.182 119.136 108.855 118.991 109.503 118.766C109.642 118.722 109.767 118.643 109.867 118.536C109.942 118.436 110.026 118.344 110.119 118.262C111.33 117.148 113.201 118.343 113.201 118.343L113.513 117.185L114.493 113.539L114.537 113.376L115.206 110.911L115.451 110.733L115.636 110.592" fill="white"/>
<g opacity="0.5">
<path opacity="0.5" d="M143.39 99.8403C142.463 100.83 141.391 101.674 140.212 102.342C135.794 104.934 129.393 105.996 123.312 105.773L122.377 105.721L138.578 93.9894L140.939 92.2817C140.939 92.2817 143.323 97.7835 143.39 99.8403Z" fill="white"/>
<path opacity="0.5" d="M140.664 108.245C140.048 110.109 139.499 111.757 139.261 112.463C135.21 114.445 130.755 115.462 126.245 115.433C122.248 115.41 118.282 114.717 114.514 113.383L115.182 110.918L115.427 110.74L115.613 110.599C120.424 112.262 130.93 114.549 140.664 108.245Z" fill="white"/>
<path opacity="0.5" d="M139.843 127.662C138.625 127.751 137.444 127.795 136.294 127.795C122.186 127.795 113.313 121.202 110.076 118.291C111.286 117.178 113.158 118.373 113.158 118.373L113.469 117.215C117.568 120.43 126.582 125.724 139.843 124.677C139.843 125.672 139.843 126.674 139.843 127.662Z" fill="white"/>
<path opacity="0.5" d="M126.847 137.789H122.392C121.717 137.217 120.982 136.616 120.165 135.977C114.155 131.112 108.701 125.596 103.904 119.531L105.129 119.457C106.013 119.39 106.8 119.316 107.476 119.227C111.825 124.512 116.698 129.343 122.021 133.646C123.952 135.19 125.548 136.564 126.847 137.789Z" fill="white"/>
<path opacity="0.5" d="M108.33 137.789H104.81C101.175 132.124 98.1623 126.082 95.8262 119.769L99.004 119.687C101.47 126.031 104.595 132.098 108.33 137.789Z" fill="white"/>
<path opacity="0.5" d="M94.0958 137.789H90.8362C88.4053 131.985 86.5886 125.943 85.416 119.761H88.4528C89.6762 125.957 91.5683 132.002 94.0958 137.789Z" fill="white"/>
<path opacity="0.5" d="M81.1843 137.789H77.8431C75.3784 132.622 73.6968 127.117 72.8535 121.454C73.8559 121.254 74.8434 121.068 75.7864 120.89C76.6643 126.777 78.487 132.483 81.1843 137.789Z" fill="white"/>
<path opacity="0.5" d="M70.7388 137.789H67.1971C64.5559 133.478 62.7523 128.707 61.8809 123.726L64.8063 123.103C65.7317 128.36 67.753 133.364 70.7388 137.789Z" fill="white"/>
<path opacity="0.5" d="M62.4217 137.789H61.2857C61.2857 137.789 54.6032 133.252 54.232 129.733C53.9748 127.98 53.9748 126.199 54.232 124.447H54.9745C55.2715 127.855 56.9347 132.651 62.4217 137.789Z" fill="white"/>
</g>
<path d="M138.579 93.9895L140.94 92.2817C140.94 92.2817 143.324 97.7836 143.391 99.8403C143.406 100.016 143.386 100.193 143.331 100.36C143.071 101.043 142.024 104.176 141.037 107.132C140.911 107.51 140.784 107.874 140.666 108.245C140.049 110.109 139.5 111.757 139.262 112.463L139.225 112.574L139.143 112.827C139.143 112.827 139.255 113.992 139.396 115.797C139.5 117.14 139.611 118.841 139.7 120.712C139.76 121.774 139.797 122.887 139.834 124.023C139.834 124.224 139.834 124.432 139.834 124.632C139.834 125.627 139.834 126.629 139.834 127.602C139.834 128.159 139.834 128.701 139.834 129.236C139.797 130.446 139.737 131.604 139.634 132.666C139.403 135.02 138.98 136.891 138.267 137.73H61.2857C61.2857 137.73 54.6032 133.193 54.232 129.674C53.9748 127.921 53.9748 126.14 54.232 124.387H54.9745L57.7959 124.543L61.9316 123.63L64.8571 123.006C67.3296 122.486 70.1584 121.892 72.876 121.358C73.8783 121.157 74.8659 120.972 75.8088 120.793L76.826 120.6L77.3829 120.496C78.7417 120.251 79.9668 120.044 80.9766 119.895C81.7601 119.764 82.5512 119.682 83.3451 119.65H85.4612H88.498H92.7451H95.8636L99.0043 119.687C100.749 119.65 102.427 119.591 103.927 119.502L105.152 119.427C106.036 119.36 106.823 119.286 107.498 119.197C108.182 119.136 108.855 118.991 109.503 118.766C109.642 118.722 109.767 118.643 109.867 118.536C109.942 118.436 110.026 118.344 110.119 118.262C111.33 117.148 113.201 118.343 113.201 118.343L113.513 117.185L114.493 113.539L114.537 113.376L115.206 110.911L115.451 110.733L115.636 110.592" stroke="#181F23" stroke-linecap="round" stroke-linejoin="round"/>
<path d="M123.167 74.3953C126.924 74.128 132.611 71.7371 137.675 78.5087C142.739 85.2802 140.415 98.311 140.415 98.311C140.415 98.311 130.762 106.627 114.918 100.746C99.0727 94.8658 85.0322 80.8327 89.9029 69.9329C89.9029 69.9403 114.799 74.9818 123.167 74.3953Z" fill="white" stroke="#181F23" stroke-linecap="round" stroke-linejoin="round"/>
<path d="M94.9886 80.5951C95.3614 76.1025 94.1562 71.6205 91.5806 67.9207C90.1771 65.7742 88.4659 63.8454 86.502 62.1961C86.502 62.1961 106.549 39.0452 105.963 53.2862C105.797 57.4185 106.617 61.5309 108.356 65.2831C110.095 69.0352 112.703 72.3192 115.964 74.863" fill="white"/>
<path d="M94.9886 80.5951C95.3614 76.1025 94.1562 71.6205 91.5806 67.9207C90.1771 65.7742 88.4659 63.8454 86.502 62.1961V62.1961C86.502 62.1961 106.549 39.0452 105.963 53.2862C105.797 57.4185 106.617 61.5309 108.356 65.2831C110.095 69.0352 112.703 72.3192 115.964 74.863" stroke="#181F23" stroke-linecap="round" stroke-linejoin="round"/>
<path d="M99.539 63.1236C99.539 63.1236 98.0705 67.266 92.044 69.1659C90.4462 67.1598 88.5625 65.3991 86.4531 63.9404L99.539 63.1236Z" fill="#181F23"/>
<path d="M100.4 62.618C95.15 65.9845 88.9607 67.5839 82.7366 67.1825C77.3821 66.8642 73.4149 49.8453 75.2912 46.3135C76.0433 44.4882 76.408 42.5265 76.3619 40.5529C76.2041 35.1312 76.0225 25.5579 80.6818 22.9956C92.6475 16.3552 112.951 16.4054 115.678 31.2512C117.332 40.2241 113.014 51.9868 104.448 59.5762" fill="white"/>
<path d="M100.4 62.618C95.15 65.9845 88.9607 67.5839 82.7366 67.1825C77.3821 66.8642 73.4149 49.8453 75.2912 46.3135C76.0433 44.4882 76.408 42.5265 76.3619 40.5529C76.2041 35.1312 76.0225 25.5579 80.6818 22.9956C92.6475 16.3552 112.951 16.4054 115.678 31.2512C117.332 40.2241 113.014 51.9868 104.448 59.5762" stroke="#181F23" stroke-linecap="round" stroke-linejoin="round"/>
<path d="M86.3129 34.2205C87.6086 33.6735 89.0565 33.6039 90.3987 34.0243C91.7409 34.4447 92.8904 35.3278 93.6426 36.5163" stroke="#181F23" stroke-linecap="round" stroke-linejoin="round"/>
<path d="M79.6272 34.579C79.4061 34.3947 79.1508 34.256 78.876 34.1708C78.6012 34.0856 78.3122 34.0555 78.0257 34.0824C77.7392 34.1092 77.4609 34.1925 77.2067 34.3273C76.9524 34.4621 76.7274 34.6459 76.5445 34.868" stroke="#181F23" stroke-linecap="round" stroke-linejoin="round"/>
<path d="M91.381 42.3769C91.5312 41.0857 91.0916 39.9736 90.3992 39.8931C89.7067 39.8126 89.0236 40.794 88.8735 42.0852C88.7233 43.3764 89.1629 44.4885 89.8554 44.569C90.5478 44.6495 91.2309 43.6681 91.381 42.3769Z" fill="#181F23"/>
<path d="M80.4025 41.8628C80.5527 40.5716 80.1131 39.4596 79.4206 39.3791C78.7282 39.2985 78.0451 40.28 77.895 41.5712C77.7448 42.8624 78.1844 43.9744 78.8768 44.055C79.5693 44.1355 80.2524 43.154 80.4025 41.8628Z" fill="#181F23"/>
<path d="M81.3091 43.0496C81.3091 43.0496 80.2178 46.0454 77.6343 46.489C75.0509 46.9326 77.5623 50.9703 79.6571 51.5196" stroke="#181F23" stroke-linecap="round" stroke-linejoin="round"/>
<path d="M80.4669 55.7913C80.4669 55.7913 80.1336 58.4401 82.2998 58.7963C82.5916 58.8417 82.8881 58.849 83.1818 58.8181C85.0965 58.6385 86.8674 57.324 87.9604 56.3341C88.3537 55.9802 88.7243 55.6018 89.0697 55.201C86.3188 56.0853 82.5103 55.9502 80.4669 55.7913C79.5807 55.7252 79.0293 55.6501 79.0293 55.6501" stroke="#181F23" stroke-linecap="round" stroke-linejoin="round"/>
<path d="M91.1082 22.4506C91.1082 22.4506 87.1565 35.4243 100.961 46.5691C100.961 46.5691 103.952 58.5861 103.154 69.9516C101.879 88.1779 114.415 85.623 114.415 85.623C114.415 85.623 103.984 86.6009 106.728 71.8836C108.358 63.177 112.511 52.5112 112.511 52.5112C112.511 52.5112 123.679 34.7443 115.08 24.2376C106.481 13.7308 72.2894 15.3332 74.9725 30.9064C74.9577 30.9078 81.6957 22.1996 91.1082 22.4506Z" fill="#181F23"/>
<path d="M114.939 39.2701C114.939 39.2701 117.642 48.4579 114.11 60.7359C110.578 73.014 112.475 79.8909 115.884 79.6608C119.293 79.4306 125.37 67.4062 130.627 71.455C129.614 71.4626 128.614 71.6717 127.683 72.0701C126.752 72.4684 125.911 73.0481 125.206 73.7753C122.543 76.3144 117.742 84.3638 113.06 83.1845C108.378 82.0052 108.613 77.434 110.167 66.5645C111.09 59.9867 110.495 53.2849 108.427 46.9727L114.939 39.2701Z" fill="#181F23"/>
<path d="M107.672 47.6774C108.331 48.0603 109.008 48.41 109.702 48.7251" stroke="white" stroke-linecap="round" stroke-linejoin="round"/>
<path d="M94.0087 20.4633C94.3549 29.9615 97.543 40.1031 105.579 46.2777" stroke="white" stroke-linecap="round" stroke-linejoin="round"/>
<path d="M119.254 51.0735C120.006 51.3162 120.771 51.5133 121.547 51.664" stroke="white" stroke-linecap="round" stroke-linejoin="round"/>
<path d="M103.01 32.3866C104.982 39.6592 109.918 46.8851 116.859 50.1345" stroke="white" stroke-linecap="round" stroke-linejoin="round"/>
<path d="M84.8039 21.4681C77.3724 22.8584 68.3406 26.9865 70.3212 36.1003" stroke="white" stroke-linecap="round" stroke-linejoin="round"/>
<path d="M90.5118 20.7911C89.2549 20.8455 88.0015 20.963 86.7564 21.1432" stroke="white" stroke-linecap="round" stroke-linejoin="round"/>
<path d="M105.555 60.2329C106.024 66.9007 102.951 73.9006 106.195 81.0539" stroke="white" stroke-linecap="round" stroke-linejoin="round"/>
<path d="M104.979 53.2173C105.222 54.7411 105.381 56.2772 105.455 57.8186" stroke="white" stroke-linecap="round" stroke-linejoin="round"/>
<path d="M111.362 67.1459C111.211 68.398 111.03 69.6529 110.821 70.9253" stroke="white" stroke-linecap="round" stroke-linejoin="round"/>
<path d="M112.033 53.7864C112.09 57.3304 111.959 60.875 111.642 64.4053" stroke="white" stroke-linecap="round" stroke-linejoin="round"/>
<path d="M127.568 68.7585C129.383 69.3839 131.116 70.2227 132.732 71.2574" stroke="white" stroke-linecap="round" stroke-linejoin="round"/>
<path d="M114.31 53.5729C114.119 60.7649 118.916 65.4758 125.257 67.8866" stroke="white" stroke-linecap="round" stroke-linejoin="round"/>
<path d="M89.0692 55.201C88.7237 55.6018 88.3532 55.9803 87.9598 56.3342C83.7188 56.3589 82.2993 58.7964 82.2993 58.7964C80.133 58.4402 80.4664 55.7914 80.4664 55.7914C82.5097 55.9503 86.3168 56.0706 89.0692 55.201Z" fill="#181F23"/>
<path d="M98.7832 88.7549C98.7832 88.7549 101.048 85.6439 102.607 85.6736C104.166 85.7033 118.467 82.5922 123.315 78.9169" stroke="#181F23" stroke-linecap="round" stroke-linejoin="round"/>
<path d="M92.1591 73.3334C92.1591 73.3334 90.6741 78.063 92.6565 81.6493C94.639 85.2355 96.369 85.2281 96.1982 88.755" stroke="#181F23" stroke-linecap="round" stroke-linejoin="round"/>
<path d="M119.35 92.2818C120.835 92.1333 119.35 102.075 119.35 102.075" stroke="#181F23" stroke-linecap="round" stroke-linejoin="round"/>
<path d="M77.8307 94.68C77.8307 94.68 78.3876 86.4012 75.2988 83.1639" stroke="#181F23" stroke-linecap="round" stroke-linejoin="round"/>
<path d="M68.1641 87.8268C68.1641 87.8268 73.5397 93.0242 77.8685 93.2396" stroke="#181F23" stroke-linecap="round" stroke-linejoin="round"/>
<path d="M51.4853 74.3135C50.1255 77.3706 49.5097 80.7065 49.6884 84.0476" stroke="#181F23" stroke-linecap="round" stroke-linejoin="round"/>
<path d="M47.1496 71.425C47.1496 71.425 42.6055 72.7021 40.6602 76.422" stroke="#181F23" stroke-linecap="round" stroke-linejoin="round"/>
<path d="M112.297 107.34C112.297 107.34 112.2 116.25 113.492 117.215" stroke="#181F23" stroke-linecap="round" stroke-linejoin="round"/>
<path d="M113.18 118.373C113.18 118.373 117.857 120.601 119.12 124.001" stroke="#181F23" stroke-linecap="round" stroke-linejoin="round"/>
<path d="M87.8678 69.5688C87.8678 69.5688 84.0959 75.5088 87.8678 85.4137" stroke="#181F23" stroke-linecap="round" stroke-linejoin="round"/>
<path d="M143.333 100.382C143.333 100.382 137.616 108.55 127.822 107.362" stroke="#181F23" stroke-linecap="round" stroke-linejoin="round"/>
</svg>
