<svg width="181" height="120" viewBox="0 0 181 120" fill="none" xmlns="http://www.w3.org/2000/svg">
<path fill-rule="evenodd" clip-rule="evenodd" d="M180.998 99.2777L172.771 109.105L180.998 118.933H0L6.29144 109.105L0 99.2777L6.29144 89.4499L0 79.6221L6.29144 69.7944L0 59.9666L6.29144 50.1388L0 40.3111L6.29144 30.4833L0 20.6555L8.22727 10.8278L0 1.00001L180.998 1L174.707 10.8278L180.998 20.6555L174.707 30.4833L180.998 40.3111L174.707 50.1388L180.998 59.9666L174.707 69.7944L180.998 79.6221L174.707 89.4499L180.998 99.2777ZM180.998 99.2777V118.933H181V1.00001L180.998 1L180.998 20.6555V40.3111V59.9666V79.6221V99.2777Z" fill="white"/>
<path d="M19.9316 1V118.933M161.443 1V118.933" stroke="black" stroke-width="2" stroke-linecap="round" stroke-dasharray="10 10"/>
</svg>
