<svg width="622" height="429" viewBox="0 0 622 429" fill="none" xmlns="http://www.w3.org/2000/svg">
<mask id="path-1-inside-1" fill="white">
<path fill-rule="evenodd" clip-rule="evenodd" d="M0.03125 355.48H621.031V365.883H595.219V403.607H621.031V414.01H0.03125V403.607H12.324L13.4595 365.883H0.03125V355.48ZM583.855 403.607L584.991 365.883H562.854L561.719 403.607H583.855ZM23.6875 365.883L23.6875 403.607H51.3613V365.883H23.6875ZM492.549 365.883H514.688L513.552 403.607H491.414L492.549 365.883ZM524.916 403.607V365.883H551.449V403.607H524.916ZM481.145 403.607V365.883H454.16V403.607H481.145ZM442.797 403.607L443.932 365.883H419.86L418.724 403.607H442.797ZM408.455 403.607V365.883H382.717V403.607H408.455ZM371.353 403.607L372.489 365.883H350.35L349.215 403.607H371.353ZM300.595 403.607H276.523L277.659 365.883H301.731L300.595 403.607ZM311.959 403.607V365.883H338.945V403.607H311.959ZM227.902 403.607H203.832L204.967 365.883H229.038L227.902 403.607ZM239.266 403.607V365.883H266.254V403.607H239.266ZM61.6307 403.607H85.7029L86.8384 365.883H62.7663L61.6307 403.607ZM97.0664 365.883L97.0664 403.607H124.053V365.883H97.0664ZM135.458 365.883L134.322 403.607H156.459L157.594 365.883H135.458ZM167.822 365.883H193.562V403.607H167.822V365.883Z"/>
</mask>
<path d="M621.031 355.48H622.031V354.48H621.031V355.48ZM0.03125 355.48V354.48H-0.96875V355.48H0.03125ZM621.031 365.883V366.883H622.031V365.883H621.031ZM595.219 365.883V364.883H594.219V365.883H595.219ZM595.219 403.607H594.219V404.607H595.219V403.607ZM621.031 403.607H622.031V402.607H621.031V403.607ZM621.031 414.01V415.01H622.031V414.01H621.031ZM0.03125 414.01H-0.96875V415.01H0.03125V414.01ZM0.03125 403.607V402.607H-0.96875V403.607H0.03125ZM12.324 403.607V404.607H13.2943L13.3235 403.637L12.324 403.607ZM13.4595 365.883L14.4591 365.913L14.4901 364.883H13.4595V365.883ZM0.03125 365.883H-0.96875V366.883H0.03125V365.883ZM583.855 403.607V404.607H584.826L584.855 403.637L583.855 403.607ZM584.991 365.883L585.99 365.913L586.021 364.883H584.991V365.883ZM562.854 365.883V364.883H561.884L561.855 365.853L562.854 365.883ZM561.719 403.607L560.719 403.577L560.688 404.607H561.719V403.607ZM23.6875 403.607H22.6875V404.607H23.6875V403.607ZM23.6875 365.883V364.883H22.6875V365.883H23.6875ZM51.3613 403.607V404.607H52.3613V403.607H51.3613ZM51.3613 365.883H52.3613V364.883H51.3613V365.883ZM514.688 365.883L515.688 365.913L515.719 364.883H514.688V365.883ZM492.549 365.883V364.883H491.579L491.55 365.853L492.549 365.883ZM513.552 403.607V404.607H514.523L514.552 403.637L513.552 403.607ZM491.414 403.607L490.414 403.577L490.383 404.607H491.414V403.607ZM524.916 365.883V364.883H523.916V365.883H524.916ZM524.916 403.607H523.916V404.607H524.916V403.607ZM551.449 365.883H552.449V364.883H551.449V365.883ZM551.449 403.607V404.607H552.449V403.607H551.449ZM481.145 365.883H482.145V364.883H481.145V365.883ZM481.145 403.607V404.607H482.145V403.607H481.145ZM454.16 365.883V364.883H453.16V365.883H454.16ZM454.16 403.607H453.16V404.607H454.16V403.607ZM443.932 365.883L444.932 365.913L444.963 364.883H443.932V365.883ZM442.797 403.607V404.607H443.767L443.796 403.637L442.797 403.607ZM419.86 365.883V364.883H418.89L418.86 365.853L419.86 365.883ZM418.724 403.607L417.725 403.577L417.694 404.607H418.724V403.607ZM408.455 365.883H409.455V364.883H408.455V365.883ZM408.455 403.607V404.607H409.455V403.607H408.455ZM382.717 365.883V364.883H381.717V365.883H382.717ZM382.717 403.607H381.717V404.607H382.717V403.607ZM372.489 365.883L373.488 365.913L373.519 364.883H372.489V365.883ZM371.353 403.607V404.607H372.324L372.353 403.637L371.353 403.607ZM350.35 365.883V364.883H349.38L349.351 365.853L350.35 365.883ZM349.215 403.607L348.215 403.577L348.184 404.607H349.215V403.607ZM276.523 403.607L275.524 403.577L275.493 404.607H276.523V403.607ZM300.595 403.607V404.607H301.566L301.595 403.637L300.595 403.607ZM277.659 365.883V364.883H276.689L276.659 365.853L277.659 365.883ZM301.731 365.883L302.731 365.913L302.762 364.883H301.731V365.883ZM311.959 365.883V364.883H310.959V365.883H311.959ZM311.959 403.607H310.959V404.607H311.959V403.607ZM338.945 365.883H339.945V364.883H338.945V365.883ZM338.945 403.607V404.607H339.945V403.607H338.945ZM203.832 403.607L202.832 403.577L202.801 404.607H203.832V403.607ZM227.902 403.607V404.607H228.872L228.902 403.637L227.902 403.607ZM204.967 365.883V364.883H203.997L203.968 365.853L204.967 365.883ZM229.038 365.883L230.037 365.913L230.068 364.883H229.038V365.883ZM239.266 365.883V364.883H238.266V365.883H239.266ZM239.266 403.607H238.266V404.607H239.266V403.607ZM266.254 365.883H267.254V364.883H266.254V365.883ZM266.254 403.607V404.607H267.254V403.607H266.254ZM85.7029 403.607V404.607H86.6732L86.7024 403.637L85.7029 403.607ZM61.6307 403.607L60.6312 403.577L60.6002 404.607H61.6307V403.607ZM86.8384 365.883L87.838 365.913L87.869 364.883H86.8384V365.883ZM62.7663 365.883V364.883H61.7959L61.7667 365.853L62.7663 365.883ZM97.0664 403.607H96.0664V404.607H97.0664V403.607ZM97.0664 365.883V364.883H96.0664V365.883H97.0664ZM124.053 403.607V404.607H125.053V403.607H124.053ZM124.053 365.883H125.053V364.883H124.053V365.883ZM134.322 403.607L133.323 403.577L133.292 404.607H134.322V403.607ZM135.458 365.883V364.883H134.487L134.458 365.853L135.458 365.883ZM156.459 403.607V404.607H157.429L157.458 403.637L156.459 403.607ZM157.594 365.883L158.594 365.913L158.625 364.883H157.594V365.883ZM193.562 365.883H194.562V364.883H193.562V365.883ZM167.822 365.883V364.883H166.822V365.883H167.822ZM193.562 403.607V404.607H194.562V403.607H193.562ZM167.822 403.607H166.822V404.607H167.822V403.607ZM621.031 354.48H0.03125V356.48H621.031V354.48ZM622.031 365.883V355.48H620.031V365.883H622.031ZM595.219 366.883H621.031V364.883H595.219V366.883ZM594.219 365.883V403.607H596.219V365.883H594.219ZM621.031 402.607H595.219V404.607H621.031V402.607ZM622.031 414.01V403.607H620.031V414.01H622.031ZM0.03125 415.01H621.031V413.01H0.03125V415.01ZM-0.96875 403.607V414.01H1.03125V403.607H-0.96875ZM12.324 402.607H0.03125V404.607H12.324V402.607ZM12.46 365.853L11.3244 403.577L13.3235 403.637L14.4591 365.913L12.46 365.853ZM0.03125 366.883H13.4595V364.883H0.03125V366.883ZM-0.96875 355.48V365.883H1.03125V355.48H-0.96875ZM584.855 403.637L585.99 365.913L583.991 365.853L582.856 403.577L584.855 403.637ZM562.854 366.883H584.991V364.883H562.854V366.883ZM562.718 403.637L563.854 365.913L561.855 365.853L560.719 403.577L562.718 403.637ZM583.855 402.607H561.719V404.607H583.855V402.607ZM24.6875 403.607L24.6875 365.883H22.6875L22.6875 403.607H24.6875ZM51.3613 402.607H23.6875V404.607H51.3613V402.607ZM50.3613 365.883V403.607H52.3613V365.883H50.3613ZM23.6875 366.883H51.3613V364.883H23.6875V366.883ZM514.688 364.883H492.549V366.883H514.688V364.883ZM514.552 403.637L515.688 365.913L513.688 365.853L512.553 403.577L514.552 403.637ZM491.414 404.607H513.552V402.607H491.414V404.607ZM491.55 365.853L490.414 403.577L492.413 403.637L493.549 365.913L491.55 365.853ZM523.916 365.883V403.607H525.916V365.883H523.916ZM551.449 364.883H524.916V366.883H551.449V364.883ZM552.449 403.607V365.883H550.449V403.607H552.449ZM524.916 404.607H551.449V402.607H524.916V404.607ZM480.145 365.883V403.607H482.145V365.883H480.145ZM454.16 366.883H481.145V364.883H454.16V366.883ZM455.16 403.607V365.883H453.16V403.607H455.16ZM481.145 402.607H454.16V404.607H481.145V402.607ZM442.933 365.853L441.797 403.577L443.796 403.637L444.932 365.913L442.933 365.853ZM419.86 366.883H443.932V364.883H419.86V366.883ZM419.724 403.637L420.86 365.913L418.86 365.853L417.725 403.577L419.724 403.637ZM442.797 402.607H418.724V404.607H442.797V402.607ZM407.455 365.883V403.607H409.455V365.883H407.455ZM382.717 366.883H408.455V364.883H382.717V366.883ZM383.717 403.607V365.883H381.717V403.607H383.717ZM408.455 402.607H382.717V404.607H408.455V402.607ZM371.489 365.853L370.354 403.577L372.353 403.637L373.488 365.913L371.489 365.853ZM350.35 366.883H372.489V364.883H350.35V366.883ZM350.214 403.637L351.35 365.913L349.351 365.853L348.215 403.577L350.214 403.637ZM371.353 402.607H349.215V404.607H371.353V402.607ZM276.523 404.607H300.595V402.607H276.523V404.607ZM276.659 365.853L275.524 403.577L277.523 403.637L278.658 365.913L276.659 365.853ZM301.731 364.883H277.659V366.883H301.731V364.883ZM301.595 403.637L302.731 365.913L300.731 365.853L299.596 403.577L301.595 403.637ZM310.959 365.883V403.607H312.959V365.883H310.959ZM338.945 364.883H311.959V366.883H338.945V364.883ZM339.945 403.607V365.883H337.945V403.607H339.945ZM311.959 404.607H338.945V402.607H311.959V404.607ZM203.832 404.607H227.902V402.607H203.832V404.607ZM203.968 365.853L202.832 403.577L204.831 403.637L205.967 365.913L203.968 365.853ZM229.038 364.883H204.967V366.883H229.038V364.883ZM228.902 403.637L230.037 365.913L228.038 365.853L226.903 403.577L228.902 403.637ZM238.266 365.883V403.607H240.266V365.883H238.266ZM266.254 364.883H239.266V366.883H266.254V364.883ZM267.254 403.607V365.883H265.254V403.607H267.254ZM239.266 404.607H266.254V402.607H239.266V404.607ZM85.7029 402.607H61.6307V404.607H85.7029V402.607ZM85.8389 365.853L84.7033 403.577L86.7024 403.637L87.838 365.913L85.8389 365.853ZM62.7663 366.883H86.8384V364.883H62.7663V366.883ZM62.6303 403.637L63.7658 365.913L61.7667 365.853L60.6312 403.577L62.6303 403.637ZM98.0664 403.607L98.0664 365.883H96.0664L96.0664 403.607H98.0664ZM124.053 402.607H97.0664V404.607H124.053V402.607ZM123.053 365.883V403.607H125.053V365.883H123.053ZM97.0664 366.883H124.053V364.883H97.0664V366.883ZM135.322 403.637L136.457 365.913L134.458 365.853L133.323 403.577L135.322 403.637ZM156.459 402.607H134.322V404.607H156.459V402.607ZM156.595 365.853L155.459 403.577L157.458 403.637L158.594 365.913L156.595 365.853ZM135.458 366.883H157.594V364.883H135.458V366.883ZM193.562 364.883H167.822V366.883H193.562V364.883ZM194.562 403.607V365.883H192.562V403.607H194.562ZM167.822 404.607H193.562V402.607H167.822V404.607ZM166.822 365.883V403.607H168.822V365.883H166.822Z" fill="white" mask="url(#path-1-inside-1)"/>
<path d="M418.725 222.955V196.835L399.702 197.39" fill="white"/>
<path d="M418.725 222.955V196.835L399.702 197.39" stroke="#263238" stroke-miterlimit="10" stroke-linecap="round"/>
<path d="M464.015 95.3705C464.015 95.3705 466.429 88.5145 462.542 89.9871C458.656 91.4597 458.125 102.227 458.125 102.227C458.125 102.227 461.553 103.216 462.542 101.744C463.338 99.7016 463.834 97.5549 464.015 95.3705Z" fill="white" stroke="#263238" stroke-miterlimit="10" stroke-linecap="round"/>
<path d="M458.124 96.8427C458.124 96.8427 460.538 89.9866 456.652 91.4592C452.765 92.9318 452.234 103.699 452.234 103.699C452.234 103.699 455.686 104.688 456.652 103.216C457.46 101.177 457.956 99.0289 458.124 96.8427Z" fill="white" stroke="#263238" stroke-miterlimit="10" stroke-linecap="round"/>
<path d="M412.159 182.301L435.531 114.28L432.031 101.28C446.865 79.5712 460.017 89.1382 457.53 100.78L455.53 106.78C454.03 108.28 445.057 115.384 444.411 115.624L426.451 181.529L424.592 226.672L406.172 232.683L412.159 182.301Z" fill="white" stroke="#181F23" stroke-miterlimit="10" stroke-linecap="round"/>
<path d="M425.991 241.8L437.031 208.697C431.328 206.528 425.886 203.831 420.789 200.649C415.052 197.33 408.694 195.002 402.031 193.78C402.031 193.78 399.832 211.565 398.587 217.212C397.341 222.858 398.171 237.842 401.273 247.78" fill="#181F23"/>
<path d="M425.991 241.8L437.031 208.697C431.328 206.528 425.886 203.831 420.789 200.649C415.052 197.33 408.694 195.002 402.031 193.78C402.031 193.78 399.832 211.565 398.587 217.212C397.341 222.858 398.171 237.842 401.273 247.78" stroke="white" stroke-miterlimit="10" stroke-linecap="round" stroke-linejoin="round"/>
<path d="M406.178 203.498C406.178 203.498 411.706 209.485 411.706 212.261C411.706 215.037 411.247 221.917 411.247 221.917L419.531 217.28L428.031 213.78C429.163 210.154 430.811 205.987 432.443 202.556C434.857 197.945 439.347 195.652 435.195 187.806C431.043 179.96 404.778 194.735 406.178 203.498Z" fill="white"/>
<path d="M410.191 156.046C410.191 156.046 410.191 156.046 410.191 156.046L409.794 156.35M410.191 156.046L410.196 156.053C410.196 156.053 410.196 156.052 410.195 156.052M410.191 156.046C410.189 156.047 410.163 156.067 409.794 156.35M410.191 156.046L422.46 184.866M409.794 156.35L409.418 156.68C409.596 156.883 409.903 156.908 410.111 156.737C410.318 156.567 410.355 156.266 410.195 156.052M409.794 156.35C409.418 156.68 409.418 156.679 409.417 156.678L409.416 156.677L409.413 156.674L409.408 156.668L409.397 156.654C409.395 156.651 409.392 156.648 409.389 156.644L409.385 156.639C409.376 156.627 409.362 156.609 409.344 156.586C409.307 156.54 409.252 156.472 409.181 156.387C409.04 156.217 408.836 155.98 408.587 155.713C408.086 155.174 407.421 154.536 406.736 154.082C406.024 153.61 405.421 153.425 404.984 153.551C404.596 153.664 404.105 154.105 403.815 155.533C403.542 156.873 403.861 158.375 404.579 159.928C405.294 161.477 406.386 163.031 407.589 164.449C408.791 165.865 410.092 167.13 411.213 168.102C412.345 169.084 413.259 169.736 413.69 169.954C414.346 170.286 414.8 171.021 415.153 171.817C415.516 172.637 415.825 173.65 416.123 174.686C416.184 174.898 416.245 175.112 416.306 175.326C416.545 176.167 416.785 177.012 417.054 177.803C417.391 178.799 417.76 179.669 418.197 180.305C418.987 181.455 419.799 181.849 420.541 182.209C420.617 182.246 420.692 182.282 420.765 182.319C421.166 182.517 421.596 182.753 421.919 183.165C422.248 183.584 422.424 184.127 422.46 184.866M410.195 156.052C410.19 156.041 410.173 156.007 410.155 155.943C410.117 155.811 410.07 155.549 410.094 155.098C410.144 154.192 410.482 152.564 411.701 149.792C412.27 148.497 413.473 147.119 415.089 145.855C416.699 144.597 418.684 143.48 420.771 142.693C424.991 141.101 429.413 140.926 432.054 143.323C432.734 143.939 433.04 144.437 433.143 144.826C433.239 145.19 433.17 145.51 432.965 145.83C432.748 146.168 432.382 146.499 431.901 146.832C431.423 147.162 430.869 147.47 430.303 147.775C430.23 147.814 430.157 147.854 430.084 147.893C429.599 148.154 429.111 148.416 428.698 148.679C428.237 148.973 427.785 149.319 427.546 149.739C427.419 149.962 427.343 150.221 427.371 150.505C427.398 150.786 427.522 151.042 427.707 151.271C428.063 151.713 428.701 152.129 429.621 152.555L429.678 152.582C433.32 154.269 439.995 157.362 445.111 161.39C447.683 163.416 449.822 165.648 450.995 168.021C452.154 170.368 452.371 172.851 451.113 175.46C446.547 183.92 441.095 191.871 434.849 199.177C431.982 197.391 429.218 195.444 426.569 193.348C424.314 191.043 422.871 188.065 422.46 184.866M410.195 156.052L422.46 184.866" fill="#181F23" stroke="white" stroke-linecap="round" stroke-linejoin="round"/>
<path d="M423.266 164.703C423.266 164.703 419.017 170.231 420.852 173.442C422.687 176.653 429.832 178.27 429.253 180.274C428.584 181.876 428.114 183.555 427.853 185.271C427.563 187.878 427.853 188.82 429.229 188.337C430.605 187.854 434.057 182.085 435.868 187.058C436.667 189.205 436.729 191.557 436.042 193.743C435.356 195.928 433.961 197.823 432.078 199.128C431.148 199.752 430.039 200.052 428.922 199.982C427.805 199.912 426.742 199.476 425.897 198.742C425.897 198.742 422.542 205.984 418.655 207.022C414.769 208.06 399.077 206.467 399.053 203.329C399.045 202.283 400.07 198.091 401.611 192.78C401.936 191.657 402.664 188.984 403.031 187.78C403.575 185.994 397.945 182.581 400.031 179.28C401.611 176.78 407.031 182.78 407.031 173.442C407.531 167.78 409.329 166.145 411.031 164.28C415.594 159.283 423.266 164.703 423.266 164.703Z" fill="white"/>
<path d="M403.031 187.78C403.575 185.994 397.945 182.581 400.031 179.28C401.611 176.78 407.031 182.78 407.031 173.442C407.531 167.78 409.329 166.145 411.031 164.28C415.594 159.283 423.266 164.703 423.266 164.703C423.266 164.703 419.017 170.231 420.852 173.442C422.687 176.653 429.832 178.27 429.253 180.274C428.584 181.876 428.114 183.555 427.853 185.271C427.563 187.878 427.853 188.82 429.229 188.337C430.605 187.854 434.057 182.085 435.868 187.058C436.667 189.205 436.729 191.557 436.042 193.743C435.356 195.928 433.961 197.823 432.078 199.128C431.148 199.752 430.039 200.052 428.922 199.982C427.805 199.912 426.742 199.476 425.897 198.742C425.897 198.742 422.542 205.984 418.655 207.022C414.769 208.06 399.077 206.467 399.053 203.329C399.045 202.283 400.07 198.091 401.611 192.78M403.031 187.78C402.664 188.984 401.936 191.657 401.611 192.78M403.031 187.78L401.611 192.78" stroke="#181F23" stroke-miterlimit="10" stroke-linecap="round" stroke-linejoin="round"/>
<path d="M411.243 221.941C403.779 228.585 397.401 236.355 392.341 244.972C382.684 260.639 373.028 294.726 373.028 294.726H428.794C428.794 294.726 439.85 244.03 440.864 228.846C441.878 213.661 434.418 213.637 427.514 214.554C420.61 215.472 411.243 221.941 411.243 221.941Z" fill="#181F23" stroke="white" stroke-miterlimit="10" stroke-linecap="round"/>
<path d="M423.218 222.4L447.649 197.052L500.303 107.58L509.115 112.867C507.739 115.861 474.783 190.197 471.645 197.391C468.506 204.585 433.405 248.086 433.405 248.086" fill="white"/>
<path d="M423.218 222.4L447.649 197.052L500.303 107.58L509.115 112.867C507.739 115.861 474.783 190.197 471.645 197.391C468.506 204.585 433.405 248.086 433.405 248.086" stroke="#181F23" stroke-miterlimit="10" stroke-linecap="round"/>
<path d="M417.643 230.029C422.013 219.672 422.472 218.586 427.3 214.554C432.128 210.523 445.864 196.835 445.864 196.835C450.132 201.99 453.406 207.891 455.52 214.241C457.293 220.101 459.663 225.764 462.594 231.139L431.597 252.335C431.597 252.335 417.837 259.263 417.45 230.053" fill="#181F23"/>
<path d="M417.643 230.029C422.013 219.672 422.472 218.586 427.3 214.554C432.128 210.523 445.864 196.835 445.864 196.835C450.132 201.99 453.406 207.891 455.52 214.241C457.293 220.101 459.663 225.764 462.594 231.139L431.597 252.335C431.597 252.335 417.837 259.263 417.45 230.053" stroke="white" stroke-miterlimit="10" stroke-linecap="round" stroke-linejoin="round"/>
<path d="M336.942 288.836L369.895 233.385" stroke="white" stroke-width="4" stroke-miterlimit="10" stroke-linecap="round"/>
<path d="M464.033 389.093H473.037V418.69H464.033V389.093Z" fill="white"/>
<path d="M391.033 389.093H400.037V418.69H391.033V389.093Z" fill="white"/>
<path d="M321.658 389.093H330.662V418.69H321.658V389.093Z" fill="white"/>
<path d="M250.228 389.78H259.232V419.377H250.228V389.78Z" fill="white"/>
<path d="M457.331 413.548H480.699C483.846 413.548 486.396 416.099 486.396 419.245V423.301C486.396 426.447 483.846 428.998 480.699 428.998H457.331C454.184 428.998 451.634 426.447 451.634 423.301V419.245C451.634 416.099 454.184 413.548 457.331 413.548Z" fill="white"/>
<path d="M384.612 413.548H407.98C411.127 413.548 413.678 416.099 413.678 419.245V423.301C413.678 426.447 411.127 428.998 407.98 428.998H384.612C381.466 428.998 378.915 426.447 378.915 423.301V419.245C378.915 416.099 381.466 413.548 384.612 413.548Z" fill="white"/>
<path d="M314.468 413.548H337.836C340.982 413.548 343.533 416.099 343.533 419.245V423.301C343.533 426.447 340.982 428.998 337.836 428.998H314.468C311.321 428.998 308.77 426.447 308.77 423.301V419.245C308.77 416.099 311.321 413.548 314.468 413.548Z" fill="white"/>
<path d="M243.034 413.548H266.402C269.549 413.548 272.1 416.099 272.1 419.245V423.301C272.1 426.447 269.549 428.998 266.402 428.998H243.034C239.887 428.998 237.337 426.447 237.337 423.301V419.245C237.337 416.099 239.887 413.548 243.034 413.548Z" fill="white"/>
<path d="M331.797 263.619C334.331 262.828 336.938 264.726 336.938 267.381V389.897C336.938 392.106 335.147 393.897 332.938 393.897H237.93C235.877 393.897 234.18 392.397 234.12 390.345C233.603 372.607 236.771 293.306 331.797 263.619Z" fill="white" stroke="#263238" stroke-width="2" stroke-miterlimit="10" stroke-linecap="round"/>
<path d="M340.937 288.836H485.773C487.983 288.836 489.773 290.627 489.773 292.836V389.897C489.773 392.106 487.983 393.897 485.773 393.897H340.937C338.728 393.897 336.937 392.106 336.937 389.897V292.836C336.937 290.627 338.728 288.836 340.937 288.836Z" fill="white" stroke="#263238" stroke-miterlimit="10" stroke-linecap="round"/>
<path d="M499.871 290.623H548.152" stroke="white" stroke-miterlimit="10" stroke-linecap="round"/>
<path d="M515.005 309.935H575.502" stroke="white" stroke-miterlimit="10" stroke-linecap="round"/>
<path d="M496.655 309.935H505.346" stroke="white" stroke-miterlimit="10" stroke-linecap="round"/>
<path d="M570.384 148.988H580.33" stroke="white" stroke-miterlimit="10" stroke-linecap="round"/>
<path d="M501.491 148.988H560.732" stroke="white" stroke-miterlimit="10" stroke-linecap="round"/>
<path d="M501.486 380.74H580.33" stroke="white" stroke-miterlimit="10" stroke-linecap="round"/>
<circle cx="413.502" cy="343.099" r="5.87264" fill="#181F23"/>
<path d="M381.771 364.673C378.909 360.581 376.906 355.997 375.873 351.176M405.426 380.7C399.168 379.344 393.353 376.454 388.513 372.294L397.597 362.985C402.003 366.55 407.488 368.546 413.173 368.653C418.859 368.76 424.416 366.973 428.956 363.577M390.349 354.55C388.709 351.279 387.799 347.691 387.682 344.034C387.565 340.377 388.244 336.738 389.672 333.37C391.099 330.001 393.242 326.982 395.951 324.521C398.66 322.061 401.872 320.218 405.363 319.12M434.874 357.241C437.522 353.182 438.932 348.435 438.929 343.584H451.705C451.707 351.283 449.369 358.799 445.003 365.129C440.637 371.46 434.451 376.303 427.271 379.013M436.539 333.61C434.701 328.84 431.502 324.746 427.359 321.861C423.216 318.976 418.32 317.433 413.308 317.433V330.534C416.207 330.536 419.009 331.598 421.21 333.529C423.41 335.459 424.863 338.131 425.306 341.062C425.75 343.993 425.155 346.989 423.628 349.51C422.101 352.031 419.744 353.91 416.981 354.809C414.219 355.707 411.233 355.566 408.564 354.41C405.895 353.253 403.718 351.159 402.425 348.504C401.133 345.85 400.811 342.81 401.518 339.934C402.225 337.057 403.913 334.535 406.279 332.821M435.696 312.372C442.512 317.173 447.537 323.98 450.02 331.774M375.031 343.584C375.035 337.359 376.519 331.226 379.359 325.702C382.2 320.179 386.313 315.426 391.352 311.846C396.39 308.265 402.207 305.961 408.312 305.129C414.417 304.296 420.63 304.959 426.428 307.061" stroke="#181F23" stroke-width="2" stroke-linecap="round" stroke-linejoin="round"/>
<path d="M412.01 178.212C411.454 179.603 410.478 180.531 409.825 180.267C409.173 180.003 409.028 178.614 409.648 177.277C410.268 175.941 411.168 174.948 411.831 175.199C412.494 175.45 412.564 176.798 412.01 178.212Z" fill="#181F23"/>
<path d="M402.032 193.39C402.032 193.39 404.534 195.187 407.961 192.176" stroke="#181F23" stroke-miterlimit="10" stroke-linecap="round"/>
<path d="M437.051 182.865C436.428 184.22 435.41 185.094 434.775 184.798C434.139 184.503 434.065 183.114 434.75 181.816C435.434 180.518 436.379 179.576 437.026 179.859C437.672 180.142 437.674 181.487 437.051 182.865Z" fill="#181F23"/>
<path fill-rule="evenodd" clip-rule="evenodd" d="M385.031 1.7793H561.031L554.914 10.196L561.031 18.6126L554.914 27.0293L561.031 35.446L554.914 43.8626L561.031 52.2793L554.914 60.696L561.031 69.1126L554.914 77.5293L561.031 85.946L553.031 94.3626L561.031 102.779H385.031L391.149 94.3626L385.031 85.946L391.149 77.5293L385.031 69.1126L391.149 60.696L385.031 52.2793L391.149 43.8626L385.031 35.446L391.149 27.0293L385.031 18.6126L393.031 10.196L385.031 1.7793Z" fill="white"/>
<path d="M411.031 1.7793V102.779M535.531 1.7793V102.779" stroke="black" stroke-width="2" stroke-linecap="round" stroke-dasharray="10 10"/>
<path d="M457.487 59.8694C457.487 53.6144 452.042 52.0394 447.047 50.8244V41.7344C449.432 42.0044 451.952 42.7694 454.337 44.1644L456.182 39.6194C453.752 38.0444 450.377 37.0544 447.047 36.8744V31.8794H443.357V36.9644C436.337 37.6394 433.007 41.6444 433.007 46.2344C433.007 52.4894 438.362 54.1094 443.357 55.3244V64.3244C439.937 64.0094 436.562 62.7044 434.357 60.9044L432.332 65.4494C434.672 67.4744 438.947 68.9144 443.357 69.1844V74.1794H447.047V69.1394C454.112 68.4194 457.487 64.4594 457.487 59.8694ZM438.812 45.9644C438.812 43.9844 440.162 42.3644 443.357 41.8694V49.8794C440.747 49.1144 438.812 48.1244 438.812 45.9644ZM447.047 64.2344V56.2694C449.747 57.0344 451.727 58.0694 451.727 60.2744C451.727 62.2094 450.332 63.7394 447.047 64.2344Z" fill="#181F23"/>
<path d="M474.228 50.2844L481.878 41.1944V37.2794H460.413V42.1844H474.723L467.568 50.6894V54.6944H470.448C475.218 54.6944 477.288 56.5394 477.288 59.3744C477.288 62.2994 474.813 64.1444 470.628 64.1444C467.073 64.1444 463.653 62.9294 461.403 61.0394L458.883 65.5844C461.808 67.8794 466.263 69.2294 470.718 69.2294C479.178 69.2294 483.183 64.6394 483.183 59.3294C483.183 54.6044 480.168 51.0494 474.228 50.2844Z" fill="#181F23"/>
<path d="M500.149 69.2294C507.664 69.2294 513.334 63.3794 513.334 53.0294C513.334 42.6794 507.664 36.8294 500.149 36.8294C492.679 36.8294 487.009 42.6794 487.009 53.0294C487.009 63.3794 492.679 69.2294 500.149 69.2294ZM500.149 64.1444C495.874 64.1444 492.904 60.6344 492.904 53.0294C492.904 45.4244 495.874 41.9144 500.149 41.9144C504.469 41.9144 507.439 45.4244 507.439 53.0294C507.439 60.6344 504.469 64.1444 500.149 64.1444Z" fill="#181F23"/>
<path d="M503.339 118.549L512.395 110.109C512.395 110.109 516.869 106.076 518.178 104.367C519.487 102.659 519.513 101.622 519.068 100.588C516.74 99.6012 516.785 102.369 516.945 102.196C516.945 102.196 516.086 102.636 515.322 102.196C514.558 101.756 516.243 95.5887 516.243 95.5887C516.243 95.5887 519.355 81.5639 518.308 81.1321C517.26 80.7003 513.774 89.3226 513.774 89.3226C513.774 89.3226 515.882 79.7166 515.336 79.5786C514.79 79.4406 511.744 84.5599 511.744 84.5599C511.744 84.5599 512.35 80.6204 511.467 80.6325C510.584 80.6445 508.668 84.3908 508.668 84.3908C508.668 84.3908 502 91.4956 500.806 93.1486C499.613 94.8016 498.581 107.492 498.581 107.492L494.226 119.049C494.226 119.049 498.628 114.367 501.314 118.086L503.339 118.549Z" fill="white"/>
<path d="M511.946 94.7774C511.946 94.7774 517.215 81.2011 518.472 81.3586C519.729 81.5161 516.952 91.6064 516.662 94.0588C516.372 96.5111 514.632 102.689 514.897 103.236L519.106 103.237C519.106 103.237 516.382 109.438 508.394 114.434" stroke="#181F23" stroke-width="0.953494" stroke-linecap="round" stroke-linejoin="round"/>
<path d="M511.967 94.2466C511.967 94.2466 516.408 79.7155 515.317 79.5498C513.499 79.2694 510.015 88.9071 508.87 92.9117" stroke="#263238" stroke-width="0.953494" stroke-linecap="round" stroke-linejoin="round"/>
<path d="M508.798 92.994C508.798 92.994 513.175 80.7666 511.472 80.608C509.769 80.4494 504.078 94.2009 504.078 94.2009" stroke="#263238" stroke-width="0.953494" stroke-linecap="round" stroke-linejoin="round"/>
<path d="M493.913 118.495L498.546 107.754C498.546 107.754 499.738 95.3468 500.434 93.6759C500.903 92.5508 503.647 88.0691 505.391 85.2611C505.883 84.4675 507.091 84.7308 507.217 85.6564L507.333 86.5109" stroke="#181F23" stroke-width="0.953494" stroke-linecap="round" stroke-linejoin="round"/>
<path d="M444.533 115.779L455.758 106.418L458.033 98.7783C458.033 98.7783 461.693 93.4026 460.533 92.2785C459.373 91.1544 450.024 100.864 450.024 100.864C450.024 100.864 444.262 99.8283 440.243 106.284" stroke="#181F23" stroke-linecap="round" stroke-linejoin="round"/>
<path d="M436.032 113.779L432.534 103.277L442.735 103.278" stroke="#181F23" stroke-linecap="round" stroke-linejoin="round"/>
</svg>
