<svg width="16" height="18" viewBox="0 0 16 18" fill="none" xmlns="http://www.w3.org/2000/svg">
<path d="M15.7234 10.0414C16.2404 5.68941 15.475 2.9419 14.0944 1.6992L14.0951 1.69848C11.8668 -0.42371 4.34128 -0.737815 1.67537 1.7938C0.478159 3.03216 0.0564641 4.84964 0.0102511 7.09964C-0.035962 9.35036 -0.0908401 13.5666 3.83799 14.7104H3.8416L3.83799 16.4571C3.83799 16.4571 3.81128 17.1647 4.2633 17.3069C4.78031 17.4745 5.01426 17.1459 6.62233 15.2252C9.31136 15.4584 11.3765 14.9241 11.6112 14.8461C12.1542 14.6641 15.2266 14.2576 15.7234 10.0414ZM6.88734 13.9962C6.88734 13.9962 5.18539 16.1184 4.65611 16.6694C4.48281 16.8484 4.2929 16.8318 4.29579 16.4766C4.29579 16.2433 4.30879 13.5767 4.30879 13.5767C0.977837 12.6221 1.17424 9.03192 1.21035 7.15379C1.24645 5.27494 1.59016 3.73619 2.60396 2.70001C4.94278 0.50705 11.5404 0.997342 13.2214 2.57725C15.2765 4.39906 14.545 9.54604 14.5493 9.72151C14.1269 13.2409 11.6372 13.464 11.1794 13.6164C10.9837 13.6814 9.16766 14.1486 6.88734 13.9962V13.9962Z" fill="white"/>
<path d="M7.82764 3.1123C7.54964 3.1123 7.54964 3.54555 7.82764 3.54916C9.98449 3.56577 11.7608 5.06914 11.7803 7.82676C11.7803 8.11776 12.2063 8.11415 12.2027 7.82315H12.202C12.1789 4.85179 10.2394 3.12891 7.82764 3.1123V3.1123Z" fill="white"/>
<path d="M10.6646 7.36981C10.6581 7.6572 11.0834 7.67092 11.087 7.37992C11.1224 5.74152 10.1122 4.39195 8.21384 4.2497C7.93584 4.22949 7.90696 4.66634 8.18424 4.68656C9.83058 4.81148 10.6978 5.93504 10.6646 7.36981V7.36981Z" fill="white"/>
<path d="M10.2113 9.23337C9.85461 9.02685 9.4914 9.15538 9.34121 9.35828L9.0271 9.76482C8.86752 9.97133 8.56931 9.94389 8.56931 9.94389C6.39296 9.36839 5.81096 7.09096 5.81096 7.09096C5.81096 7.09096 5.78425 6.78263 5.98354 6.61727L6.37635 6.29234C6.57276 6.13637 6.69695 5.76088 6.49694 5.3919C5.9626 4.42648 5.60373 4.0936 5.42104 3.83799C5.22897 3.59754 4.94013 3.54338 4.63975 3.70585H4.63325C4.00865 4.07122 3.32484 4.75503 3.54363 5.45906C3.91695 6.20135 4.60292 8.56761 6.78938 10.3555C7.8169 11.201 9.44302 12.0675 10.1333 12.2675L10.1398 12.2777C10.82 12.5044 11.4815 11.7939 11.8345 11.1505V11.1454C11.9912 10.8342 11.9393 10.5396 11.7104 10.3468C11.3045 9.95111 10.6922 9.51425 10.2113 9.23337Z" fill="white"/>
<path d="M8.51289 5.86115C9.20681 5.90158 9.54329 6.26407 9.5794 7.00853C9.5924 7.29953 10.0148 7.27931 10.0018 6.98831C9.9556 6.01639 9.4487 5.47484 8.53599 5.42429C8.25799 5.40768 8.232 5.84454 8.51289 5.86115V5.86115Z" fill="white"/>
</svg>
