<svg width="16" height="17" viewBox="0 0 16 17" fill="none" xmlns="http://www.w3.org/2000/svg">
<path fill-rule="evenodd" clip-rule="evenodd" d="M8.06545 0.912842C5.96185 0.91529 3.9451 1.75164 2.45763 3.23842C0.970155 4.7252 0.133419 6.741 0.130969 8.84362C0.127821 10.3685 0.568341 11.8614 1.39888 13.1405L0.192667 15.7954C0.13824 15.9152 0.119194 16.0481 0.137776 16.1784C0.156358 16.3087 0.211793 16.4309 0.297554 16.5308C0.36248 16.6069 0.4431 16.6681 0.533887 16.7101C0.624673 16.7522 0.72348 16.7741 0.823538 16.7744C0.885636 16.7741 0.9474 16.7653 1.00709 16.7482L4.32804 15.8386C5.47808 16.4524 6.76167 16.7739 8.06545 16.7744C10.1691 16.7719 12.1858 15.9356 13.6733 14.4488C15.1607 12.962 15.9975 10.9462 15.9999 8.84362C15.9975 6.741 15.1607 4.7252 13.6733 3.23842C12.1858 1.75164 10.1691 0.91529 8.06545 0.912842V0.912842ZM8.06545 15.3884C6.90668 15.3881 5.76871 15.0806 4.76764 14.4972C4.66175 14.4358 4.5415 14.4033 4.41904 14.4032C4.35701 14.4029 4.29525 14.4112 4.23549 14.4278L2.06523 15.023L2.82104 13.3579C2.87171 13.247 2.89212 13.1247 2.8802 13.0034C2.86828 12.8821 2.82446 12.7661 2.75317 12.6672C1.94736 11.5553 1.5153 10.2166 1.51919 8.84362C1.52123 7.1086 2.21148 5.44517 3.43861 4.21804C4.66574 2.9909 6.32962 2.30019 8.06545 2.29734C9.80182 2.29938 11.4665 2.98973 12.6943 4.21695C13.9221 5.44417 14.6127 7.10806 14.6148 8.84362C14.6127 10.579 13.922 12.2428 12.6942 13.4697C11.4663 14.6967 9.80167 15.3867 8.06545 15.3884V15.3884Z" fill="white"/>
<path fill-rule="evenodd" clip-rule="evenodd" d="M11.1154 10.0369C10.7822 9.83806 10.3441 9.61605 9.95851 9.77639C9.65773 9.89973 9.46646 10.3684 9.2721 10.6089C9.23062 10.6654 9.16991 10.7047 9.10143 10.7194C9.03296 10.7342 8.96144 10.7234 8.90037 10.6891C7.80192 10.2586 6.8808 9.47045 6.28588 8.45202C6.23567 8.38748 6.21203 8.30622 6.21977 8.22483C6.22751 8.14345 6.26605 8.06809 6.32753 8.01416C6.51571 7.79369 6.75171 7.54239 6.80107 7.24329C6.85042 6.94419 6.71314 6.59575 6.58974 6.33057C6.4355 5.99139 6.25657 5.50882 5.91568 5.3161C5.60719 5.14034 5.19226 5.23901 4.91308 5.47027C4.6828 5.66927 4.49997 5.91724 4.378 6.19601C4.25603 6.47479 4.19801 6.77731 4.20817 7.0814C4.20981 7.25336 4.23102 7.42457 4.27141 7.59172C4.37912 7.99073 4.54436 8.37194 4.76192 8.72337C4.92002 8.98882 5.09145 9.24611 5.27556 9.49425C5.87567 10.3184 6.62998 11.0184 7.49672 11.5556C7.93287 11.8271 8.39863 12.048 8.88494 12.2139C9.42789 12.3927 9.91223 12.5793 10.4984 12.4683C11.1154 12.3527 11.7169 11.9718 11.9606 11.3891C12.0387 11.2151 12.0624 11.0216 12.0285 10.834C11.9421 10.4424 11.4239 10.2158 11.1154 10.0369Z" fill="white"/>
</svg>
