<svg width="17" height="15" viewBox="0 0 17 15" fill="none" xmlns="http://www.w3.org/2000/svg">
<path fill-rule="evenodd" clip-rule="evenodd" d="M13.022 14.1796C13.2501 14.3392 13.544 14.3791 13.8061 14.2811C14.0682 14.1824 14.2608 13.9612 14.3189 13.6931C14.9344 10.8343 16.4276 3.59844 16.9879 0.997933C17.0304 0.801933 16.9595 0.598233 16.8037 0.467332C16.6479 0.336432 16.4318 0.298632 16.2392 0.369332C13.2692 1.45573 4.12269 4.84724 0.38419 6.21434C0.146903 6.30114 -0.00750968 6.52654 0.000281807 6.77364C0.00878161 7.02144 0.177361 7.23634 0.420314 7.30844C2.0969 7.80404 4.29764 8.49354 4.29764 8.49354C4.29764 8.49354 5.32612 11.563 5.86232 13.124C5.92961 13.32 6.08473 13.474 6.28943 13.5272C6.49343 13.5797 6.71159 13.5244 6.86388 13.3823C7.72519 12.5787 9.05683 11.3362 9.05683 11.3362C9.05683 11.3362 11.5869 13.1695 13.022 14.1796V14.1796ZM5.22341 8.10574L6.41268 11.9823L6.67688 9.52744C6.67688 9.52744 11.2717 5.43174 13.8911 3.09724C13.9676 3.02864 13.9782 2.91384 13.9145 2.83334C13.8514 2.75284 13.7353 2.73394 13.6481 2.78854C10.6123 4.70444 5.22341 8.10574 5.22341 8.10574Z" fill="white"/>
</svg>
