<svg width="713" height="231" viewBox="0 0 713 231" fill="none" xmlns="http://www.w3.org/2000/svg">
<path d="M121.183 165.432C121.183 165.432 119.675 174.447 93.425 185.767C67.1753 197.087 31.1645 182.768 15.4723 173.752C-0.219977 164.737 -2.59245 82.9203 5.66037 63.3982C13.9132 43.8761 34.1301 51.2816 54.4148 62.6356C74.6994 73.9896 83.664 83.7337 99.424 93.4269C115.184 103.12 145.179 131.692 121.183 165.432Z" fill="white" stroke="white" stroke-width="2" stroke-linecap="round" stroke-linejoin="round"/>
<path d="M94.5418 177.447C118.773 177.447 138.416 156.119 138.416 129.811C138.416 103.502 118.773 82.1747 94.5418 82.1747C70.311 82.1747 50.668 103.502 50.668 129.811C50.668 156.119 70.311 177.447 94.5418 177.447Z" fill="white" stroke="#181F23" stroke-width="2" stroke-linecap="round" stroke-linejoin="round"/>
<path d="M87.5304 98.7651C95.5969 85.53 133.421 69.9564 146.08 68.2618C146.885 68.1791 147.697 68.1791 148.503 68.2618L145.114 77.7517C145.114 77.7517 139.115 86.0045 141.369 95.7486C143.487 104.984 142.674 113.762 151.113 109.306C151.113 110.289 160.942 104.595 160.874 105.544C160.108 113.654 157.374 121.454 152.909 128.269C152.909 128.269 150.045 158.196 116.644 167.991C83.2431 177.785 77.1763 155.671 76.2273 143.181C75.1668 127.55 79.1269 111.988 87.5304 98.7651Z" fill="#181F23" stroke="white" stroke-width="2" stroke-linecap="round" stroke-linejoin="round"/>
<path d="M115.169 141.436C115.169 141.436 109.933 166.855 126.421 162.432C142.91 158.009 151.925 136.267 155.687 136.267C159.45 136.267 176.684 140.775 184.937 126.523C193.19 112.271 198.494 99.5107 193.19 86.0215C187.885 72.5323 176.684 76.2604 169.939 86.0215C163.195 95.7825 150.434 105.51 150.434 105.51C150.434 105.51 147.435 102.51 133.929 102.51C120.422 102.51 120.371 100.273 120.371 100.273" fill="#181F23"/>
<path d="M115.169 141.436C115.169 141.436 109.933 166.855 126.421 162.432C142.91 158.009 151.925 136.267 155.687 136.267C159.45 136.267 176.684 140.775 184.937 126.523C193.19 112.271 198.494 99.5107 193.19 86.0215C187.885 72.5323 176.684 76.2604 169.939 86.0215C163.195 95.7825 150.434 105.51 150.434 105.51C150.434 105.51 147.435 102.51 133.929 102.51C120.422 102.51 120.371 100.273 120.371 100.273" stroke="white" stroke-width="2" stroke-linecap="round" stroke-linejoin="round"/>
<path d="M592.851 165.432C592.851 165.432 594.342 174.447 620.592 185.767C646.842 197.087 682.853 182.768 698.545 173.752C714.237 164.737 716.61 82.9203 708.289 63.3982C699.969 43.8761 679.819 51.2816 659.535 62.6356C639.25 73.9896 630.336 83.7337 614.593 93.4269C598.85 103.12 568.838 131.692 592.851 165.432Z" fill="white"/>
<path d="M619.471 177.447C643.702 177.447 663.345 156.119 663.345 129.811C663.345 103.502 643.702 82.1747 619.471 82.1747C595.241 82.1747 575.598 103.502 575.598 129.811C575.598 156.119 595.241 177.447 619.471 177.447Z" fill="white" stroke="#181F23" stroke-width="2" stroke-linecap="round" stroke-linejoin="round"/>
<path d="M626.483 98.7651C618.417 85.53 580.61 69.9564 567.934 68.2618C567.128 68.1791 566.316 68.1791 565.511 68.2618L568.9 77.7517C568.9 77.7517 574.899 86.0045 572.662 95.7486C570.527 104.984 571.34 113.762 562.901 109.306C562.901 110.289 553.072 104.595 553.157 105.544C553.921 113.652 556.649 121.451 561.105 128.269C561.105 128.269 563.985 158.196 597.37 167.991C630.754 177.785 636.854 155.671 637.786 143.181C638.863 127.548 634.901 111.982 626.483 98.7651Z" fill="#181F23" stroke="#181F23" stroke-linecap="round" stroke-linejoin="round"/>
<path d="M598.849 141.436C598.849 141.436 604.102 166.855 587.596 162.432C571.091 158.009 562.092 136.267 558.347 136.267C554.602 136.267 537.334 140.775 529.081 126.523C520.828 112.271 515.524 99.5107 520.828 86.0215C526.132 72.5323 537.334 76.2604 544.095 86.0215C550.857 95.7825 563.583 105.51 563.583 105.51C563.583 105.51 566.6 102.51 580.089 102.51C593.578 102.51 593.646 100.273 593.646 100.273" fill="#181F23"/>
<path d="M598.849 141.436C598.849 141.436 604.102 166.855 587.596 162.432C571.091 158.009 562.092 136.267 558.347 136.267C554.602 136.267 537.334 140.775 529.081 126.523C520.828 112.271 515.524 99.5107 520.828 86.0215C526.132 72.5323 537.334 76.2604 544.095 86.0215C550.857 95.7825 563.583 105.51 563.583 105.51C563.583 105.51 566.6 102.51 580.089 102.51C593.578 102.51 593.646 100.273 593.646 100.273" stroke="white" stroke-width="2" stroke-linecap="round" stroke-linejoin="round"/>
<path d="M549 18H164C161.791 18 160 19.7909 160 22V227C160 229.209 161.791 231 164 231H549C551.209 231 553 229.209 553 227V22C553 19.7909 551.209 18 549 18Z" fill="#181F23"/>
<path d="M138.434 85.9367C138.434 85.9367 144.467 75.5995 150.296 75.0233C156.126 74.4471 162.379 87.6822 172.174 92.8677C181.969 98.0533 194.611 103.222 198.068 94.0201C201.525 84.8183 186.493 64.076 167.547 53.2304C148.601 42.3848 141.637 40.5716 133.655 46.8925C125.673 53.2135 108.422 83.7337 108.422 83.7337" fill="#181F23"/>
<path d="M138.434 85.9367C138.434 85.9367 144.467 75.5995 150.296 75.0233C156.126 74.4471 162.379 87.6822 172.174 92.8677C181.969 98.0533 194.611 103.222 198.068 94.0201C201.525 84.8183 186.493 64.076 167.547 53.2304C148.601 42.3848 141.637 40.5716 133.655 46.8925C125.673 53.2135 108.422 83.7337 108.422 83.7337" stroke="white" stroke-width="2" stroke-linecap="round" stroke-linejoin="round"/>
<path d="M122.475 79.8021C122.475 79.8021 117.865 59.0769 123.627 44.6895C129.389 30.3022 139.743 27.9975 146.657 20.5072C153.571 13.017 146.657 -1.9466 129.389 1.51044C112.12 4.96747 101.173 30.8614 94.8522 47.5534C88.5312 64.2455 94.276 89.004 96.0045 94.1895" fill="#181F23"/>
<path d="M122.475 79.8022C122.475 79.8022 117.865 59.0769 123.627 44.6895C129.389 30.3022 139.743 27.9975 146.657 20.5072C153.571 13.017 146.657 -1.9466 129.389 1.51044C112.12 4.96747 101.173 30.8614 94.8522 47.5534C88.5312 64.2455 94.276 89.004 96.0045 94.1895" stroke="white" stroke-width="2" stroke-linecap="round" stroke-linejoin="round"/>
<path d="M104.046 89.5802C104.046 89.5802 98.3014 73.4643 100.013 61.9578C101.725 50.4512 113.265 37.1993 113.265 25.6928C113.265 14.1863 97.1491 14.7455 86.151 29.709C75.1529 44.6726 75.2206 57.3484 74.6445 74.0404C74.0683 90.7325 82.8126 103.391 82.8126 113.762C82.7228 116.652 83.2406 119.528 84.3323 122.205C85.4241 124.882 87.0655 127.3 89.1505 129.302" fill="#181F23"/>
<path d="M104.046 89.5802C104.046 89.5802 98.3014 73.4643 100.013 61.9578C101.725 50.4512 113.265 37.1993 113.265 25.6928C113.265 14.1863 97.1491 14.7455 86.151 29.709C75.1529 44.6726 75.2206 57.3484 74.6445 74.0404C74.0683 90.7325 82.8126 103.391 82.8126 113.762C82.7228 116.652 83.2406 119.528 84.3323 122.205C85.4241 124.882 87.0655 127.3 89.1505 129.302" stroke="white" stroke-width="2" stroke-linecap="round" stroke-linejoin="round"/>
<path d="M80.0703 117.796C80.9176 110.068 83.9849 102.798 87.2725 95.7656C89.7805 90.5122 91.8819 83.6151 96.5082 79.7852C106.151 71.8035 120.504 78.599 129.384 84.3268C148.906 97.0704 155.854 105.764 145.517 112.542C136.383 118.626 114.064 105.764 109.387 104.069C115.132 120.05 127.452 149.943 113.709 164.466C105.117 173.549 88.984 166.567 82.2394 158.365" fill="#181F23"/>
<path d="M80.0703 117.796C80.9176 110.068 83.9849 102.798 87.2725 95.7656C89.7805 90.5122 91.8819 83.6151 96.5082 79.7852C106.151 71.8035 120.504 78.599 129.384 84.3268C148.906 97.0704 155.854 105.764 145.517 112.542C136.383 118.626 114.064 105.764 109.387 104.069C115.132 120.05 127.452 149.943 113.709 164.466C105.117 173.549 88.984 166.567 82.2394 158.365" stroke="white" stroke-width="2" stroke-linecap="round" stroke-linejoin="round"/>
<path d="M575.598 85.9368C575.598 85.9368 569.548 75.5995 563.736 75.0234C557.923 74.4472 551.653 87.6822 541.875 92.8678C532.097 98.0533 519.421 103.222 515.964 94.0201C512.507 84.8183 527.471 64.0761 546.467 53.1457C565.464 42.2154 572.378 40.4869 580.36 46.8079C588.341 53.1288 605.593 83.7337 605.593 83.7337" fill="#181F23"/>
<path d="M575.598 85.9368C575.598 85.9368 569.548 75.5995 563.736 75.0234C557.923 74.4472 551.653 87.6822 541.875 92.8678C532.097 98.0533 519.421 103.222 515.964 94.0201C512.507 84.8183 527.471 64.0761 546.467 53.1457C565.464 42.2154 572.378 40.4869 580.36 46.8079C588.342 53.1288 605.593 83.7337 605.593 83.7337" stroke="white" stroke-width="2" stroke-linecap="round" stroke-linejoin="round"/>
<path d="M591.543 79.8021C591.543 79.8021 596.152 59.0769 590.391 44.6895C584.629 30.3022 574.275 27.9975 567.361 20.5072C560.447 13.017 567.361 -1.9466 584.629 1.51044C601.897 4.96747 612.845 30.8614 619.182 47.5534C625.52 64.2455 619.759 89.004 618.03 94.1895" fill="#181F23"/>
<path d="M591.543 79.8022C591.543 79.8022 596.152 59.0769 590.391 44.6895C584.629 30.3022 574.275 27.9975 567.361 20.5072C560.447 13.017 567.361 -1.9466 584.629 1.51044C601.897 4.96747 612.845 30.8614 619.182 47.5534C625.52 64.2455 619.759 89.004 618.03 94.1895" stroke="white" stroke-width="2" stroke-linecap="round" stroke-linejoin="round"/>
<path d="M609.999 89.5802C609.999 89.5802 615.76 73.4643 614.032 61.9578C612.303 50.4512 600.797 37.1993 600.797 25.6928C600.797 14.1863 616.913 14.7455 627.911 29.709C638.909 44.6726 638.858 57.3484 639.417 74.0404C639.977 90.7325 631.368 103.391 631.368 113.762C631.458 116.652 630.94 119.528 629.848 122.205C628.756 124.882 627.115 127.3 625.03 129.302" fill="#181F23"/>
<path d="M609.999 89.5802C609.999 89.5802 615.76 73.4643 614.032 61.9578C612.303 50.4512 600.797 37.1993 600.797 25.6928C600.797 14.1863 616.913 14.7455 627.911 29.709C638.909 44.6726 638.858 57.3484 639.417 74.0404C639.977 90.7325 631.368 103.391 631.368 113.762C631.458 116.652 630.94 119.528 629.848 122.205C628.756 124.882 627.115 127.3 625.03 129.302" stroke="white" stroke-width="2" stroke-linecap="round" stroke-linejoin="round"/>
<path d="M633.941 117.796C633.094 110.068 630.044 102.798 626.739 95.7656C624.248 90.5122 622.13 83.6151 617.52 79.7852C607.861 71.8035 593.508 78.599 584.628 84.3268C565.072 97.0026 558.158 105.628 568.512 112.542C577.646 118.626 599.964 105.764 604.641 104.069C598.913 120.05 586.577 149.943 600.32 164.466C608.929 173.549 625.061 166.567 631.806 158.365" fill="#181F23"/>
<path d="M633.941 117.796C633.094 110.068 630.044 102.798 626.739 95.7656C624.248 90.5122 622.13 83.6151 617.52 79.7852C607.861 71.8035 593.508 78.599 584.628 84.3268C565.072 97.0026 558.158 105.628 568.512 112.542C577.646 118.626 599.964 105.764 604.641 104.069C598.913 120.05 586.577 149.943 600.32 164.466C608.929 173.549 625.061 166.567 631.806 158.365" stroke="white" stroke-width="2" stroke-linecap="round" stroke-linejoin="round"/>
</svg>
