<svg width="195" height="40" viewBox="0 0 195 40" fill="none" xmlns="http://www.w3.org/2000/svg">
<path d="M23.9754 4.2V21H2.39944V4.2H5.47144V18.36H11.6634V4.2H14.7354V18.36H20.9034V4.2H23.9754ZM34.8878 13.92H31.7678V21H28.6958V4.2H31.7678V11.232H34.9838L39.8078 4.2H43.1198L37.3838 12.336L43.3358 21H39.8078L34.8878 13.92ZM53.1827 21.24C51.4707 21.24 49.9267 20.872 48.5507 20.136C47.1747 19.384 46.0947 18.352 45.3107 17.04C44.5267 15.712 44.1347 14.232 44.1347 12.6C44.1347 10.968 44.5267 9.496 45.3107 8.184C46.0947 6.856 47.1747 5.824 48.5507 5.088C49.9267 4.336 51.4707 3.96 53.1827 3.96C54.8947 3.96 56.4387 4.336 57.8147 5.088C59.1907 5.824 60.2707 6.848 61.0547 8.16C61.8387 9.472 62.2307 10.952 62.2307 12.6C62.2307 14.248 61.8387 15.728 61.0547 17.04C60.2707 18.352 59.1907 19.384 57.8147 20.136C56.4387 20.872 54.8947 21.24 53.1827 21.24ZM53.1827 18.504C54.3027 18.504 55.3107 18.256 56.2067 17.76C57.1027 17.248 57.8067 16.544 58.3187 15.648C58.8307 14.736 59.0867 13.72 59.0867 12.6C59.0867 11.48 58.8307 10.472 58.3187 9.576C57.8067 8.664 57.1027 7.96 56.2067 7.464C55.3107 6.952 54.3027 6.696 53.1827 6.696C52.0627 6.696 51.0547 6.952 50.1587 7.464C49.2627 7.96 48.5587 8.664 48.0467 9.576C47.5347 10.472 47.2787 11.48 47.2787 12.6C47.2787 13.72 47.5347 14.736 48.0467 15.648C48.5587 16.544 49.2627 17.248 50.1587 17.76C51.0547 18.256 52.0627 18.504 53.1827 18.504ZM79.5634 4.2V21H76.4914V6.84H69.8674L69.7234 11.04C69.6434 13.392 69.4514 15.304 69.1474 16.776C68.8434 18.232 68.3554 19.344 67.6834 20.112C67.0114 20.864 66.0834 21.24 64.8994 21.24C64.4834 21.24 63.9154 21.16 63.1954 21L63.4114 18.288C63.6194 18.352 63.8594 18.384 64.1314 18.384C65.1074 18.384 65.7954 17.808 66.1954 16.656C66.6114 15.488 66.8674 13.656 66.9634 11.16L67.2034 4.2H79.5634ZM95.4255 17.112H87.0255L85.3695 21H82.1535L89.7135 4.2H92.7855L100.37 21H97.1055L95.4255 17.112ZM94.3935 14.664L91.2255 7.32L88.0815 14.664H94.3935ZM123.931 4.2V21H120.859V6.84H114.235L114.091 11.04C114.011 13.392 113.819 15.304 113.515 16.776C113.211 18.232 112.723 19.344 112.051 20.112C111.379 20.864 110.451 21.24 109.267 21.24C108.851 21.24 108.283 21.16 107.563 21L107.779 18.288C107.987 18.352 108.227 18.384 108.499 18.384C109.475 18.384 110.163 17.808 110.563 16.656C110.979 15.488 111.235 13.656 111.331 11.16L111.571 4.2H123.931ZM145.149 18.36V24.576H142.269V21H129.381V24.576H126.477L126.501 18.36H127.221C128.277 18.312 129.013 17.536 129.429 16.032C129.861 14.512 130.125 12.344 130.221 9.528L130.413 4.2H142.725V18.36H145.149ZM132.957 9.816C132.877 11.992 132.701 13.808 132.429 15.264C132.157 16.704 131.725 17.736 131.133 18.36H139.653V6.84H133.077L132.957 9.816ZM189.042 4.2L181.746 17.76C181.106 18.96 180.338 19.864 179.442 20.472C178.562 21.064 177.602 21.36 176.562 21.36C175.73 21.36 174.906 21.184 174.09 20.832L174.858 18.384C175.514 18.592 176.058 18.696 176.49 18.696C177.498 18.696 178.33 18.176 178.986 17.136L179.25 16.728L172.554 4.2H175.89L180.858 14.064L185.97 4.2H189.042Z" fill="white"/>
<path fill-rule="evenodd" clip-rule="evenodd" d="M163.218 2.61556C161.617 2.04835 159.9 1.86947 158.213 2.09415C156.526 2.31882 154.919 2.9404 153.527 3.90598C152.136 4.87154 151.001 6.15264 150.217 7.64082C149.433 9.12897 149.024 10.7808 149.023 12.4572L148.023 12.4566C148.024 10.6176 148.473 8.80608 149.332 7.17487C150.191 5.54369 151.435 4.14092 152.957 3.08439C154.48 2.02789 156.237 1.34845 158.081 1.1029C159.924 0.857347 161.801 1.05279 163.552 1.67291L163.218 2.61556ZM165.781 4.05577C167.665 5.35164 169.049 7.18482 169.731 9.27735L170.682 8.96721C169.929 6.65853 168.406 4.64773 166.348 3.23188L165.781 4.05577ZM159.091 4.57303L159.591 4.57303C161.141 4.57303 162.655 5.03884 163.936 5.90993C165.217 6.78103 166.206 8.01712 166.774 9.45751L165.844 9.8246C165.349 8.57105 164.488 7.49515 163.373 6.73687C162.396 6.07259 161.264 5.67901 160.091 5.59163L160.091 8.30395C160.867 8.40175 161.602 8.72475 162.202 9.23832C162.928 9.86107 163.408 10.723 163.555 11.6686C163.702 12.6141 163.505 13.5808 163 14.3941C162.496 15.2073 161.717 15.8135 160.805 16.1033C159.892 16.3931 158.906 16.3474 158.025 15.9745C157.143 15.6017 156.424 14.9261 155.997 14.0696C155.57 13.2132 155.464 12.2325 155.697 11.3045C155.931 10.3766 156.488 9.56274 157.27 9.00987L157.847 9.82619C157.261 10.2413 156.842 10.8522 156.667 11.5485C156.492 12.2448 156.571 12.9808 156.892 13.6235C157.212 14.2663 157.752 14.7735 158.414 15.0535C159.076 15.3336 159.817 15.3679 160.502 15.1502C161.187 14.9326 161.772 14.4774 162.151 13.867C162.529 13.2566 162.677 12.5312 162.567 11.8217C162.457 11.1122 162.097 10.4652 161.551 9.99771C161.005 9.53016 160.31 9.27289 159.591 9.27244L159.091 9.27213L159.091 8.77244L159.091 5.07303L159.091 4.57303ZM157.44 6.02731C156.499 6.31658 155.633 6.80177 154.904 7.44858C154.174 8.09535 153.598 8.88823 153.215 9.77193C152.831 10.6556 152.649 11.6095 152.681 12.5678C152.712 13.5262 152.956 14.4669 153.397 15.3251L152.507 15.7818C151.999 14.7928 151.717 13.7073 151.681 12.6005C151.645 11.4937 151.855 10.3927 152.298 9.37381C152.74 8.35496 153.403 7.44296 154.24 6.70037C155.078 5.95781 156.07 5.40227 157.147 5.07138L157.44 6.02731ZM150.879 18.1207C150.09 17.0195 149.539 15.7875 149.255 14.4935L148.278 14.7079C148.592 16.137 149.2 17.4937 150.066 18.703L150.879 18.1207ZM155.357 17.5431L155.008 17.2673L154.694 17.582L152.067 20.2104L151.681 20.5962L152.099 20.9468C153.563 22.1749 155.319 23.027 157.208 23.4267L157.415 22.4483C155.866 22.1205 154.416 21.4607 153.17 20.5214L155.096 18.5945C156.39 19.5021 157.941 20.0062 159.543 20.0357C161.294 20.0679 163.009 19.5302 164.411 18.5061L163.821 17.6986C162.597 18.5923 161.097 19.0641 159.561 19.0358C158.025 19.0076 156.545 18.4809 155.357 17.5431ZM167.001 11.957L166.5 11.957L166.501 12.4573C166.502 13.7276 166.124 14.9712 165.412 16.0354L166.244 16.5911C166.971 15.503 167.397 14.2507 167.484 12.957L170.183 12.957C170.088 14.8511 169.455 16.686 168.349 18.2523C167.145 19.9561 165.439 21.2613 163.457 21.992L163.803 22.9303C165.973 22.1304 167.844 20.7004 169.166 18.8292C170.487 16.9579 171.196 14.7349 171.195 12.4569L171.195 11.957L170.695 11.957L167.001 11.957ZM161.536 12.2699C161.536 13.3343 160.673 14.1972 159.609 14.1972C158.544 14.1972 157.682 13.3343 157.682 12.2699C157.682 11.2055 158.544 10.3426 159.609 10.3426C160.673 10.3426 161.536 11.2055 161.536 12.2699Z" fill="white"/>
</svg>
