<svg width="133" height="17" viewBox="0 0 133 17" fill="none" xmlns="http://www.w3.org/2000/svg">
<path d="M13.545 2.27316V12.3319H9.16343V2.27316H6.98119V12.3319H2.58263V2.27316H0.400391V14.2073H15.7272V2.27316H13.545Z" fill="white"/>
<path d="M26.9739 14.2073H29.48L25.252 8.05267L29.3266 2.27316H26.9739L23.5471 7.26843H21.2626V2.27316H19.0803V14.2073H21.2626V9.17789H23.4789L26.9739 14.2073Z" fill="white"/>
<path d="M36.4749 14.3777C40.1745 14.3777 42.9023 11.7863 42.9023 8.24021C42.9023 4.69408 40.1745 2.10267 36.4749 2.10267C32.7754 2.10267 30.0476 4.71112 30.0476 8.24021C30.0476 11.7693 32.7754 14.3777 36.4749 14.3777ZM36.4749 12.4342C34.0711 12.4342 32.281 10.6782 32.281 8.24021C32.281 5.80224 34.0711 4.04622 36.4749 4.04622C38.8788 4.04622 40.6689 5.80224 40.6689 8.24021C40.6689 10.6782 38.8788 12.4342 36.4749 12.4342Z" fill="white"/>
<path d="M46.4347 2.27316L46.2642 7.21729C46.1449 10.5759 45.7016 12.3489 44.2525 12.3489C44.0649 12.3489 43.9115 12.3319 43.741 12.2808L43.5876 14.2073C44.0479 14.3096 44.423 14.3777 44.798 14.3777C47.3724 14.3777 48.0714 11.8375 48.2248 7.13204L48.3271 4.14852H53.0326V14.2073H55.2148V2.27316H46.4347Z" fill="white"/>
<path d="M67.6761 14.2073H69.9947L64.6073 2.27316H62.4251L57.0547 14.2073H59.3393L60.5156 11.4454H66.4827L67.6761 14.2073ZM61.2658 9.7064L63.4992 4.48949L65.7496 9.7064H61.2658Z" fill="white"/>
<path d="M77.9515 2.27316L77.781 7.21729C77.6617 10.5759 77.2184 12.3489 75.7693 12.3489C75.5818 12.3489 75.4283 12.3319 75.2578 12.2808L75.1044 14.2073C75.5647 14.3096 75.9398 14.3777 76.3149 14.3777C78.8892 14.3777 79.5882 11.8375 79.7416 7.13204L79.8439 4.14852H84.5494V14.2073H86.7316V2.27316H77.9515Z" fill="white"/>
<path d="M100.082 12.3319V2.27316H91.3362L91.1999 6.05797C91.0805 9.55296 90.6884 12.2637 89.0688 12.3319H88.5573L88.5403 16.7475H90.6031V14.2073H99.7583V16.7475H101.804V12.3319H100.082ZM93.1434 6.26256L93.2286 4.14852H97.9V12.3319H91.8477C92.7683 11.3772 93.0411 8.9733 93.1434 6.26256Z" fill="white"/>
<path d="M130.802 2.27316L127.171 9.28018L123.641 2.27316H121.272L126.028 11.1726L125.841 11.4624C125.346 12.2467 124.767 12.5706 124.068 12.5706C123.71 12.5706 123.335 12.4853 122.908 12.3489L122.363 14.0879C122.959 14.3436 123.556 14.463 124.119 14.463C125.568 14.463 126.881 13.6447 127.801 11.9057L132.984 2.27316H130.802Z" fill="white"/>
<path d="M114.641 1.14764C113.503 0.744711 112.283 0.617637 111.085 0.777242C109.887 0.936845 108.745 1.37839 107.757 2.0643C106.768 2.7502 105.962 3.66025 105.405 4.71739C104.848 5.77452 104.558 6.94794 104.557 8.13876L103.847 8.13837C103.847 6.832 104.166 5.54515 104.777 4.3864C105.387 3.22767 106.27 2.23119 107.352 1.48068C108.433 0.730174 109.682 0.24753 110.991 0.0730967C112.301 -0.101335 113.634 0.0375011 114.878 0.478012L114.641 1.14764Z" fill="white"/>
<path d="M116.461 2.1707C117.8 3.09125 118.782 4.39347 119.267 5.87992L119.943 5.65961C119.408 4.01961 118.326 2.59121 116.864 1.58545L116.461 2.1707Z" fill="white"/>
<path d="M111.709 2.53815L112.064 2.53815C113.165 2.53815 114.24 2.86904 115.15 3.48784C116.06 4.10663 116.763 4.98471 117.167 6.0079L116.506 6.26867C116.154 5.3782 115.543 4.61391 114.751 4.07526C114.057 3.60338 113.252 3.3238 112.419 3.26172V5.18846C112.971 5.25793 113.493 5.48737 113.918 5.8522C114.435 6.29458 114.776 6.90687 114.88 7.57855C114.984 8.25024 114.844 8.93695 114.486 9.51467C114.128 10.0924 113.574 10.523 112.926 10.7288C112.278 10.9347 111.578 10.9023 110.951 10.6374C110.325 10.3725 109.814 9.89256 109.511 9.28419C109.208 8.67581 109.132 7.97912 109.298 7.31995C109.464 6.66078 109.86 6.08266 110.415 5.68992L110.825 6.2698C110.409 6.56468 110.111 6.99864 109.987 7.49328C109.862 7.98791 109.919 8.5107 110.147 8.96728C110.374 9.42387 110.758 9.78419 111.228 9.98311C111.698 10.182 112.224 10.2064 112.711 10.0518C113.198 9.89721 113.613 9.57387 113.882 9.14026C114.151 8.70667 114.256 8.19135 114.178 7.68734C114.1 7.18333 113.844 6.72376 113.456 6.39164C113.069 6.05951 112.575 5.87675 112.064 5.87644L111.709 5.87622V2.53815Z" fill="white"/>
<path d="M110.536 3.57121C109.867 3.7767 109.252 4.12136 108.734 4.58083C108.216 5.04028 107.807 5.60351 107.535 6.23125C107.262 6.85897 107.133 7.53658 107.155 8.21734C107.177 8.89812 107.351 9.56638 107.664 10.176L107.032 10.5005C106.671 9.79791 106.471 9.02683 106.445 8.24058C106.419 7.45433 106.569 6.67223 106.883 5.94845C107.197 5.22469 107.668 4.57684 108.263 4.04933C108.858 3.52185 109.562 3.12721 110.328 2.89216L110.536 3.57121Z" fill="white"/>
<path d="M105.875 12.1619C105.315 11.3797 104.923 10.5045 104.722 9.5853L104.028 9.7376C104.251 10.7528 104.682 11.7165 105.297 12.5755L105.875 12.1619Z" fill="white"/>
<path d="M109.057 11.7516L108.809 11.5557L106.445 13.9204L106.742 14.1695C107.782 15.0419 109.029 15.6472 110.371 15.9311L110.518 15.2361C109.418 15.0032 108.388 14.5346 107.503 13.8673L108.871 12.4985C109.79 13.1432 110.892 13.5013 112.03 13.5222C113.274 13.5451 114.492 13.1632 115.488 12.4357L115.069 11.8621C114.199 12.497 113.134 12.8321 112.043 12.812C110.951 12.7919 109.9 12.4178 109.057 11.7516Z" fill="white"/>
<path d="M116.972 7.78343L116.972 8.13883C116.973 9.04119 116.705 9.92463 116.199 10.6806L116.79 11.0753C117.306 10.3024 117.609 9.4128 117.671 8.49379H119.588C119.521 9.83929 119.071 11.1428 118.285 12.2554C117.43 13.4657 116.218 14.3929 114.81 14.9119L115.056 15.5784C116.597 15.0103 117.927 13.9944 118.865 12.6652C119.804 11.3359 120.308 9.75674 120.307 8.13854L120.307 7.78343H116.972Z" fill="white"/>
<path d="M113.446 8.00574C113.446 8.76187 112.833 9.37483 112.077 9.37483C111.321 9.37483 110.708 8.76187 110.708 8.00574C110.708 7.24962 111.321 6.63666 112.077 6.63666C112.833 6.63666 113.446 7.24962 113.446 8.00574Z" fill="white"/>
</svg>
