<svg width="120" height="46" viewBox="0 0 120 46" fill="none" xmlns="http://www.w3.org/2000/svg">
<path d="M0.726562 40.3789H120.001" stroke="white"/>
<path d="M41.6859 42.9456L39.2871 44.8768L39.7803 45.0134C39.6987 44.8864 39.849 44.7041 39.9244 44.6039C40.1122 44.3554 40.3264 44.1245 40.5261 43.8871L41.6533 42.5477L43.9584 39.8082C44.6951 38.933 45.4294 38.0542 46.1699 37.182C46.8682 36.359 47.5852 35.5475 48.3896 34.8373C49.1421 34.1722 49.9902 33.5967 50.9166 33.2403C51.7388 32.9244 52.7415 32.689 53.6093 32.9396C53.9781 33.0459 54.296 33.2783 54.393 33.6862C54.4891 34.0836 54.3623 34.5154 54.1529 34.8505C53.9046 35.2479 53.5195 35.5364 53.1415 35.7834C52.7093 36.0669 52.2555 36.323 51.8079 36.5827C48.1012 38.7389 44.2333 40.5715 40.2428 42.0623C38.2562 42.8047 36.2427 43.4576 34.2023 44.0208C32.1277 44.5943 30.0103 45.0904 27.855 45.0899C26.0445 45.0899 24.1749 44.7077 22.5815 43.7687C21.4923 43.1268 20.6327 42.2202 20.1169 41.0211C19.6011 39.8219 19.496 38.4 19.5714 37.0525C19.6194 36.1585 19.7347 35.26 19.9599 34.3954C20.2341 33.341 20.6577 32.3408 21.149 31.38C22.8063 28.1363 25.266 25.3806 28.1864 23.3649C31.452 21.1103 35.2565 19.8154 39.143 19.4975C43.0522 19.1776 46.9935 19.8276 50.6726 21.2333C52.2333 21.8278 53.7419 22.5643 55.1816 23.4342C55.9841 23.9197 56.8509 24.4046 57.4474 25.171C57.9276 25.786 58.2263 26.849 57.5266 27.416C57.1011 27.7607 56.3798 27.8012 56.0892 27.3147C55.8429 26.9027 55.2191 27.2834 55.4649 27.6979C55.9149 28.4496 56.8351 28.5883 57.5703 28.2547C58.4597 27.8498 58.8343 26.7761 58.5788 25.8204C58.294 24.7574 57.4382 24.0103 56.5921 23.4368C55.8276 22.9251 55.0384 22.4556 54.2278 22.03C50.7432 20.1738 46.91 19.0182 43.0128 18.7271C38.7243 18.4062 34.3421 19.1872 30.4546 21.1457C27.0905 22.8445 24.1279 25.42 21.9447 28.6152C20.7696 30.3337 19.7395 32.2745 19.2318 34.3352C19.0056 35.2519 18.8957 36.2117 18.8476 37.1567C18.8062 37.9391 18.8425 38.724 18.9562 39.4984C19.1665 40.8849 19.7332 42.197 20.6754 43.2012C21.7742 44.3731 23.2687 45.061 24.7628 45.4614C26.9939 46.0582 29.325 45.8876 31.5673 45.4427C33.7711 45.0048 35.9442 44.3427 38.0798 43.628C42.3324 42.2019 46.4615 40.3951 50.4219 38.2273C51.3973 37.6938 52.3712 37.1481 53.3188 36.5599C54.1861 36.0213 55.0087 35.3025 55.1317 34.1808C55.1888 33.6614 55.0486 33.1315 54.7062 32.7462C54.3926 32.3919 53.9378 32.2102 53.494 32.1388C52.4855 31.9773 51.4175 32.2066 50.482 32.607C48.4438 33.4797 46.9119 35.1643 45.4769 36.8642C43.8761 38.76 42.279 40.6579 40.6856 42.5579C40.2927 43.0246 39.8989 43.4898 39.5075 43.958C39.1872 44.3412 38.8381 44.8935 39.1599 45.3956C39.2588 45.5475 39.4898 45.6629 39.6526 45.5318L42.0538 43.6001C42.2079 43.4756 42.2896 43.2731 42.183 43.0808C42.0941 42.9203 41.8468 42.8191 41.6902 42.9446L41.6859 42.9456Z" fill="white"/>
<path d="M32.4409 38.1818C33.5455 36.4552 35.0227 34.9857 36.5671 33.6767C38.2153 32.2806 39.9917 31.0677 41.7484 29.8296C43.6544 28.4912 45.558 27.1481 47.4595 25.8002C48.4228 25.1145 49.3833 24.4251 50.3409 23.7319C51.2053 23.1083 52.0573 22.4239 53.0216 21.9805C53.424 21.7952 53.9177 21.6261 54.3533 21.616C54.4013 21.616 54.4493 21.616 54.4974 21.616C54.5209 21.616 54.5454 21.6195 54.5684 21.6226C54.5511 21.6226 54.5094 21.6084 54.578 21.6256C54.6227 21.6367 54.6674 21.6499 54.712 21.6621C54.7236 21.6651 54.7764 21.6889 54.7197 21.6621C54.7446 21.6741 54.7688 21.6877 54.7922 21.7026C54.8013 21.7076 54.8547 21.7496 54.8215 21.7213C54.7884 21.6929 54.8378 21.74 54.8446 21.7471C54.8835 21.7886 54.8138 21.7031 54.8479 21.7471C54.8537 21.7552 54.8868 21.817 54.8686 21.778C54.8503 21.739 54.8787 21.8129 54.8815 21.8235C54.8984 21.8843 54.8815 21.778 54.8849 21.8392C54.8849 21.8483 54.8801 21.9268 54.8849 21.8843C54.8897 21.8418 54.87 21.9349 54.8671 21.9465C54.882 21.8995 54.8638 21.9572 54.8595 21.9653C54.8474 21.9896 54.8345 22.0128 54.821 22.0361C54.7884 22.0908 54.7961 22.0776 54.8076 22.0614C54.7913 22.0842 54.7721 22.106 54.7543 22.1267C54.6813 22.2114 54.5985 22.286 54.5079 22.349C54.4536 22.386 54.3973 22.4198 54.3394 22.4502L54.3096 22.4644C54.2616 22.4917 54.3442 22.4451 54.347 22.4482C54.3159 22.4576 54.2857 22.4699 54.2568 22.4851C53.9862 22.5842 53.7102 22.666 53.4303 22.7301C52.3632 22.9964 51.2788 23.1771 50.2088 23.4282C49.2016 23.6644 48.187 23.8581 47.1651 24.0093L46.9288 24.0442L46.8539 24.0549C46.7991 24.063 46.9144 24.0462 46.8592 24.0549L46.7213 24.0736C46.5436 24.0986 46.3655 24.122 46.1868 24.1439C45.8193 24.1895 45.4511 24.2303 45.0823 24.2664C44.2543 24.3474 43.4246 24.4038 42.5932 24.4355C40.6646 24.5116 38.7333 24.448 36.813 24.2452C34.6275 24.0154 32.4659 23.5803 30.3538 22.9453C29.8067 22.7792 29.2637 22.5994 28.7248 22.4057C28.5409 22.3399 28.3315 22.4816 28.2821 22.6709C28.2584 22.768 28.2714 22.8709 28.3183 22.9581C28.3653 23.0453 28.4425 23.1098 28.5337 23.1381C30.7302 23.9234 32.9928 24.4859 35.2907 24.8182C37.3373 25.1163 39.402 25.2542 41.468 25.2308C43.1423 25.2127 44.8143 25.0944 46.4759 24.8764C47.6587 24.721 48.8368 24.5221 50.0033 24.2619C50.3524 24.1844 50.6991 24.0928 51.0488 24.0174C51.6985 23.8777 52.3521 23.7608 53.0014 23.618C53.3414 23.5436 53.6814 23.4661 54.0166 23.369C54.2697 23.2971 54.5348 23.2171 54.7653 23.084C55.1932 22.8339 55.6576 22.351 55.6029 21.7896C55.5452 21.1964 55.0511 20.9129 54.5353 20.8663C54.0455 20.8218 53.5162 20.9782 53.061 21.1564C52.5568 21.3598 52.0731 21.6155 51.6169 21.9197C50.6506 22.5499 49.7305 23.2632 48.7916 23.9374C46.8422 25.3345 44.886 26.7207 42.9231 28.0958C41.0641 29.4049 39.1729 30.6774 37.3735 32.0761C35.6878 33.3881 34.0598 34.8227 32.7204 36.5306C32.4015 36.9356 32.099 37.3603 31.819 37.7961C31.71 37.9662 31.7878 38.2168 31.9482 38.3155C32.1254 38.4248 32.3324 38.3499 32.4409 38.1793V38.1818Z" fill="white"/>
<path d="M56.0475 32.4985C56.0475 32.4985 56.1032 32.4717 56.0748 32.4828C56.0465 32.494 56.0369 32.4773 56.0619 32.4919C56.0657 32.4919 56.0739 32.4919 56.082 32.5005C56.0902 32.5092 56.1032 32.5162 56.1257 32.538C56.1493 32.5587 56.1683 32.5847 56.1814 32.6139C56.2129 32.6604 56.2275 32.7171 56.2227 32.7739C56.2266 32.7374 56.2069 32.8402 56.2011 32.8569C56.1834 32.9043 56.1605 32.9493 56.1329 32.9911C56.0249 33.1591 55.8582 33.2857 55.7007 33.396C55.4707 33.5595 55.2354 33.7149 55.001 33.8713C54.0213 34.5247 53.0256 35.1502 52.0139 35.7478C51.8939 35.8187 51.7738 35.8961 51.6523 35.9594C51.6134 35.9791 51.5289 35.9877 51.6043 36.0055C51.6797 36.0232 51.6413 36.0227 51.6369 35.9781C51.6259 35.8708 51.5663 35.7412 51.5409 35.6324C51.5068 35.4912 51.4789 35.3479 51.4573 35.2042C51.3838 34.67 51.3848 34.1273 51.4602 33.5934C51.6043 32.5066 51.9981 31.4826 52.39 30.4742C52.7439 29.5631 53.1199 28.6631 53.5425 27.7878C53.8662 27.1187 54.237 26.4717 54.6087 25.8329C55.3617 24.536 56.1935 23.2948 57.0531 22.0744C58.3103 20.2916 59.5811 18.5184 61.0021 16.8747C62.3285 15.3391 63.7568 13.9048 65.2762 12.5827C67.8799 10.3019 70.7827 8.42985 73.8946 7.02463C75.7738 6.16764 77.8138 5.4863 79.8678 5.34507C80.6304 5.29445 81.3282 5.32431 82.0409 5.5521C82.1105 5.57438 82.1797 5.59817 82.2479 5.62449C82.2786 5.63563 82.3089 5.64777 82.3391 5.66043C82.3694 5.67308 82.464 5.71459 82.4001 5.68523C82.5247 5.74205 82.6463 5.80609 82.7641 5.87708C82.8737 5.9434 82.9799 6.0159 83.0821 6.09424C83.1094 6.115 83.1435 6.14486 83.095 6.10335C83.119 6.12309 83.1431 6.14385 83.1666 6.1646C83.2146 6.2051 83.2583 6.24711 83.3025 6.29065C83.3842 6.37062 83.4617 6.45511 83.5349 6.54374C83.5503 6.56298 83.5661 6.58222 83.5829 6.60145C83.5998 6.62069 83.6492 6.68902 83.6142 6.64144C83.5791 6.59386 83.6276 6.66068 83.6353 6.67181C83.6531 6.69814 83.6713 6.72243 83.6886 6.75128C83.799 6.92239 83.8954 7.10308 83.9767 7.2914C83.983 7.30507 84.0123 7.37492 83.9873 7.3157C83.9623 7.25647 83.9955 7.33645 84.0003 7.34911C84.0171 7.39416 84.0334 7.43921 84.0483 7.48527C84.0752 7.56576 84.0992 7.64776 84.1208 7.72977C84.1607 7.88163 84.1852 8.03348 84.2125 8.18838C84.2221 8.24457 84.2015 8.08157 84.2082 8.15497C84.2082 8.16965 84.2116 8.18383 84.213 8.19851C84.2159 8.2304 84.2193 8.26229 84.2217 8.29418C84.226 8.34783 84.2289 8.402 84.2303 8.45565C84.2326 8.54301 84.2276 8.63041 84.2154 8.71685C84.0853 9.62294 83.7352 10.4931 83.1536 11.18C82.8314 11.5602 82.4505 11.8619 82.0625 12.1625C81.6143 12.5088 81.1585 12.8437 80.6953 13.1673C79.7668 13.8133 78.8115 14.4104 77.8292 14.9588C76.2007 15.8664 74.3715 16.7532 73.6401 18.6712C72.8568 20.7213 73.6756 23.021 74.7811 24.7456C75.379 25.6775 76.0739 26.5345 76.729 27.4214C77.3894 28.3145 77.9822 29.261 78.502 30.252C78.9823 31.1667 79.4438 32.125 79.6407 33.1556C79.8121 34.0546 79.7074 34.9991 79.0442 35.6501C78.6931 35.9948 78.2523 36.2307 77.823 36.4474C77.3496 36.6833 76.8626 36.8877 76.365 37.0594C75.3444 37.4137 74.2903 37.6511 73.2299 37.8252C70.9829 38.1948 68.695 38.3552 66.4264 38.4904C64.055 38.6314 61.6808 38.6897 59.304 38.665C58.16 38.6529 57.0167 38.6217 55.8741 38.5714C55.4107 38.5511 55.4116 39.3104 55.8741 39.3307C58.3243 39.438 60.7761 39.4576 63.2294 39.3894C65.6828 39.3212 68.13 39.1641 70.5709 38.9181C72.791 38.6949 75.0457 38.4119 77.1439 37.5716C78.1159 37.1824 79.2171 36.7111 79.8697 35.8151C80.494 34.9546 80.5267 33.8359 80.3077 32.8174C80.0729 31.7256 79.5672 30.6985 79.0504 29.7296C78.4894 28.6908 77.8533 27.6991 77.1477 26.7633C75.8761 25.0544 74.371 23.3141 74.0992 21.0691C73.9762 20.0511 74.1424 19.0225 74.7081 18.1736C75.2321 17.3865 76.0331 16.8459 76.8164 16.3842C77.7288 15.8466 78.6667 15.3663 79.5667 14.8069C80.5598 14.19 81.5225 13.5203 82.451 12.8003C82.8717 12.4739 83.2943 12.1484 83.6463 11.7373C83.9608 11.3731 84.2253 10.9641 84.432 10.5225C84.6438 10.066 84.796 9.58136 84.8844 9.08182C84.9234 8.89032 84.9457 8.69547 84.9511 8.49969C84.9398 7.77198 84.7353 7.06215 84.3609 6.4506C83.7213 5.41037 82.645 4.82773 81.5006 4.65158C80.5618 4.50681 79.6277 4.58071 78.6932 4.73156C77.616 4.9091 76.5555 5.18483 75.5236 5.55565C73.5594 6.2542 71.6706 7.2261 69.8687 8.30228C68.5139 9.11977 67.214 10.0346 65.9783 11.0403C64.4195 12.2972 62.9469 13.6687 61.5717 15.1446C59.9835 16.8499 58.5774 18.7026 57.2116 20.6064C56.2396 21.961 55.2752 23.3242 54.4065 24.7572C54.0223 25.3925 53.6539 26.0399 53.2966 26.6929C52.8601 27.4912 52.4932 28.3295 52.1441 29.1733C51.2796 31.2528 50.2884 33.5565 50.859 35.8693C50.9252 36.1381 51.0001 36.4403 51.2172 36.619C51.4861 36.8407 51.7988 36.747 52.0711 36.5896C52.5888 36.291 53.1007 35.9822 53.6078 35.6643C54.1255 35.3423 54.6391 35.013 55.1484 34.6762C55.6071 34.3725 56.1219 34.0875 56.5133 33.6886C56.8754 33.3196 57.068 32.7926 56.8351 32.2915C56.6271 31.844 56.1181 31.5869 55.6854 31.845C55.282 32.086 55.6445 32.7425 56.0489 32.5031L56.0475 32.4985Z" fill="white"/>
<path d="M22.2685 41.4964C19.8826 42.2167 16.9628 42.4941 14.734 41.1122C12.4394 39.6892 11.9347 36.6652 12.2209 34.0937C12.3797 32.6134 12.8363 31.1859 13.5603 29.9065C14.0472 29.053 14.5654 28.2188 15.1047 27.4013C16.2902 25.6129 17.5752 23.9001 18.9529 22.272C25.3247 14.7089 33.4595 8.61275 42.452 5.03849C52.3603 1.10077 63.2526 0.500422 73.413 3.74211C81.6774 6.3794 89.088 11.3072 95.6961 17.0809C100.005 20.846 103.796 25.4894 106.435 30.7022C107.739 33.2772 109.247 36.4162 108.315 39.3901C107.94 40.5877 107.155 41.7044 106.02 42.1873C104.615 42.7852 102.946 42.4475 101.517 42.1332C100.497 41.9084 98.9977 41.7626 98.4959 40.6368C98.4181 40.4622 98.1516 40.3898 98.0032 40.5007C97.3698 40.9821 96.6422 41.3077 95.8738 41.4539C95.4896 41.5247 93.5686 41.7242 93.8294 40.9067C93.9091 40.6535 93.6373 40.3271 93.3861 40.4394C92.3042 40.9183 91.153 40.9699 89.9947 40.9259C89.2354 40.8965 87.2117 40.8246 87.6439 39.4685C87.7549 39.1223 87.3769 38.9168 87.1157 39.0398C85.8949 39.6133 84.5392 40.0016 83.2185 40.204C82.5707 40.3022 81.8599 40.3726 81.2164 40.2076C80.4331 40.0051 79.9678 39.1896 80.3039 38.364C80.4302 38.0522 80.2247 37.7444 79.8972 37.8072C78.0166 38.1632 76.1324 38.4975 74.2448 38.81C73.7852 38.8854 73.194 39.095 72.7315 39.0438C72.2085 38.9861 72.3954 38.5746 72.5005 38.1717C72.6729 37.5136 72.6926 36.892 72.198 36.3797C70.9926 35.133 68.9881 36.3408 67.7154 36.8313L66.4668 37.3121C66.1234 37.4443 65.4934 37.828 65.2854 37.3172C64.9632 36.5255 65.989 36.0264 66.5086 35.7652L66.145 35.1071C64.2812 36.4182 62.3319 37.7864 60.094 38.2309C59.6138 38.3261 59.0327 38.443 58.5496 38.3119C58.3541 38.2613 58.1025 38.1798 58.1298 37.9368C58.1611 37.6609 58.5491 37.3835 58.7263 37.2013L61.5386 34.3104L61.0291 33.7738C58.6826 36.6591 55.2182 38.3802 51.6111 38.4197L51.9588 38.9006C52.7555 36.5275 54.6087 34.8287 56.4384 33.3218C58.5673 31.5683 60.6847 29.829 62.6585 27.8802C66.8035 23.784 70.2511 19.007 74.2073 14.719C75.9707 12.8086 77.9224 10.8663 80.3721 10.0078C82.6067 9.22525 85.2413 9.51277 87.0993 11.1189C88.8152 12.6021 89.6091 15.2065 88.8508 17.4383C87.9806 20.0017 85.1174 21.3067 82.9534 22.3803C80.3806 23.6542 77.6838 24.6294 74.9109 25.2884C72.4919 25.8655 70.0326 26.1996 67.5978 26.687C64.5242 27.3026 61.4901 28.1484 58.478 29.0373C51.2912 31.1583 44.1933 33.6154 37.1242 36.1347C32.3573 37.834 27.626 39.6513 22.8447 41.3045C22.6526 41.3708 22.4605 41.4366 22.2685 41.4964C21.8247 41.6335 22.0134 42.3665 22.4605 42.2283C23.969 41.7616 25.4491 41.1719 26.9335 40.6287C29.7909 39.5846 32.6501 38.5461 35.5111 37.5131C42.8155 34.891 50.1478 32.3317 57.5685 30.0978C60.7534 29.1396 63.96 28.2249 67.2088 27.5385C69.5211 27.05 71.8628 26.7326 74.1722 26.2315C76.9777 25.6273 79.715 24.7138 82.3392 23.5061C83.6387 22.9063 84.9238 22.2447 86.1427 21.4783C87.2045 20.8111 88.2173 20.0103 88.9281 18.9275C90.1796 17.0136 90.0965 14.4153 89.0549 12.4234C87.9455 10.3019 85.7729 9.08908 83.5321 8.86332C81.0517 8.61376 78.7148 9.6864 76.7723 11.2379C74.5536 13.0096 72.6782 15.2642 70.8346 17.4464C68.8839 19.7557 66.9927 22.1196 64.9757 24.3682C62.987 26.5921 60.8584 28.6723 58.6043 30.5944C56.6939 32.2198 54.5703 33.6569 52.9668 35.6442C52.2311 36.5554 51.6428 37.5678 51.2624 38.6996C51.1841 38.9335 51.3887 39.1825 51.6096 39.18C55.3958 39.1365 59.0716 37.344 61.5371 34.3114C61.8354 33.9444 61.3638 33.4291 61.0276 33.7748L59.2445 35.6078C58.71 36.157 58.0497 36.687 57.6117 37.3248C56.8952 38.3671 58.004 39.1036 58.9122 39.1188C61.7048 39.1648 64.2865 37.3278 66.5095 35.7637C66.8976 35.4903 66.5633 34.8981 66.146 35.1056C65.2119 35.5754 64.033 36.523 64.6957 37.7627C64.9838 38.3043 65.5414 38.4207 66.0797 38.2567C66.9091 38.0036 67.7202 37.6315 68.529 37.3187C69.269 37.0337 70.1229 36.5594 70.9301 36.5923C71.2927 36.6075 71.7466 36.8095 71.8767 37.1998C71.99 37.5323 71.808 37.9241 71.7326 38.244C71.6025 38.7816 71.6092 39.3906 72.1408 39.6796C72.7099 39.9894 73.57 39.6796 74.1578 39.584C76.1403 39.259 78.1189 38.9094 80.0936 38.5351L79.6868 37.9783C79.3199 38.8844 79.477 40.0107 80.2857 40.6014C80.91 41.057 81.7567 41.0848 82.4842 41.0403C84.1828 40.936 85.9324 40.4232 87.484 39.6943L86.9557 39.2656C86.5053 40.6763 87.9095 41.4964 89.0179 41.6219C90.5182 41.7925 92.1735 41.795 93.584 41.1704L93.1407 40.7037C92.7565 41.9256 94.1752 42.2779 95.0098 42.285C96.2148 42.2877 97.3904 41.8926 98.3715 41.1552L97.8788 41.019C98.3883 42.163 99.6441 42.4743 100.712 42.7229C102.163 43.0605 103.685 43.4058 105.176 43.1901C107.717 42.8221 109.237 40.321 109.322 37.7515C109.375 36.1347 108.922 34.5513 108.33 33.0778C107.719 31.5592 106.98 30.0912 106.183 28.6708C104.666 25.9829 102.813 23.5132 100.822 21.1994C97.6435 17.5082 93.8669 14.3849 89.9822 11.5583C86.1585 8.77422 82.0842 6.3713 77.7668 4.55102C72.9582 2.52319 67.8648 1.27035 62.6916 0.942333C56.9768 0.579895 51.2043 1.34122 45.7248 3.07191C40.628 4.68111 35.7713 7.11339 31.3051 10.1491C27.1328 12.981 23.293 16.3234 19.8658 20.1065C18.335 21.7953 16.899 23.577 15.5653 25.4423C14.2859 27.2348 12.8879 29.1664 12.1296 31.2773C11.2172 33.8234 11.0419 36.9942 12.2963 39.4473C13.5507 41.9003 16.07 42.8312 18.5975 42.8317C19.9023 42.8317 21.2071 42.607 22.4601 42.2283C22.9048 42.0942 22.7156 41.3612 22.2685 41.4964Z" fill="white"/>
</svg>
