<svg width="297" height="187" viewBox="0 0 297 187" fill="none" xmlns="http://www.w3.org/2000/svg">
<path fill-rule="evenodd" clip-rule="evenodd" d="M296.899 154.372L283.445 169.71L296.899 185.047L0.900391 185.047L11.1892 169.71L0.900391 154.372L11.1892 139.035L0.900391 123.698L11.1892 108.361L0.900391 93.0234L11.1892 77.6862L0.900391 62.3489L11.1892 47.0117L0.900391 31.6745L14.3549 16.3372L0.900391 1.00002L296.899 1L286.611 16.3372L296.899 31.6745L286.611 47.0117L296.899 62.3489L286.611 77.6862L296.899 93.0234L286.611 108.361L296.899 123.698L286.611 139.035L296.899 154.372ZM296.899 154.372V185.047L296.9 185.047V1.00002L296.899 1V31.6745V62.3489V93.0234V123.698V154.372Z" fill="white"/>
<path d="M27.418 1V185.195M271.383 1V185.195" stroke="black" stroke-width="2" stroke-linecap="round" stroke-dasharray="10 10"/>
</svg>
