<svg width="152" height="107" viewBox="0 0 152 107" fill="none" xmlns="http://www.w3.org/2000/svg">
<path d="M47 27.7803L77.5 3.28027L98.5 19.7803L117.5 37.7803L124 47.7803L120 62.2803L75.3633 101.095C74.589 101.768 73.4308 101.746 72.6825 101.044L33.5 64.2803L38 37.7803L47 27.7803Z" fill="white"/>
<path d="M33.2046 37.3562C33.1872 37.4678 33.1698 37.575 33.1523 37.6734C33.1828 37.5531 33.1828 37.4437 33.2046 37.3562Z" fill="url(#paint0_radial)"/>
<path d="M33.1523 37.6736C33.1534 37.6916 33.1534 37.7097 33.1523 37.7278C33.1535 37.7097 33.1535 37.6916 33.1523 37.6736Z" fill="url(#paint1_radial)"/>
<path d="M33.1441 37.7283C33.1441 37.7503 33.1441 37.7723 33.1441 37.7944C33.1375 37.7723 33.1419 37.7503 33.1441 37.7283Z" fill="url(#paint2_radial)"/>
<path d="M33.1273 37.844C33.1273 37.8877 33.112 37.9315 33.1055 37.9731C33.112 37.9293 33.1185 37.8856 33.1273 37.844Z" fill="url(#paint3_radial)"/>
<path d="M33.2139 37.3125C33.2139 37.3281 33.2139 37.3415 33.2139 37.3572C33.2139 37.3728 33.2117 37.3281 33.2139 37.3125Z" fill="url(#paint4_radial)"/>
<path d="M33.1028 37.9819C33.1028 38.0301 33.0876 38.0782 33.0811 38.1241C33.0876 38.076 33.0963 38.0279 33.1028 37.9819Z" fill="url(#paint5_radial)"/>
<path d="M33.227 37.2295L33.2139 37.3133C33.2183 37.2824 33.2226 37.2537 33.227 37.2295Z" fill="url(#paint6_radial)"/>
<path d="M32.9653 38.8767L32.9521 38.9538L32.9653 38.8767Z" fill="url(#paint7_radial)"/>
<path d="M32.9262 39.0603C32.9065 39.1762 32.8935 39.2615 32.8848 39.3075C32.8913 39.2659 32.9044 39.1872 32.9262 39.0603Z" fill="url(#paint8_radial)"/>
<path d="M66.4283 3.7345L39.8858 10.7042C39.0773 10.9165 38.8707 11.9681 39.5387 12.4706L44.3428 16.0841C45.0236 16.5963 44.7932 17.6708 43.9622 17.8587L32.2104 20.5162C31.7735 20.615 31.4556 20.9923 31.4323 21.4396L30.5721 37.9547C30.5366 38.6358 31.1783 39.1518 31.8358 38.971L37.9177 37.2986C38.2939 37.1952 38.5742 36.8835 38.7524 36.5364C41.454 31.2763 67.2122 10.8621 76.7694 3.3973C77.6125 2.73874 76.9611 1.39009 75.9168 1.62253L66.4283 3.7345Z" stroke="white" stroke-miterlimit="10" stroke-linecap="round" stroke-linejoin="round"/>
<path d="M91.3628 5.96346L118.133 14.0699C118.911 14.3056 119.097 15.3219 118.454 15.8186L113.597 19.5673C112.923 20.0878 113.167 21.1592 114 21.3369L125.777 23.8481C126.215 23.9415 126.538 24.3146 126.567 24.7614L127.637 41.2738C127.681 41.9544 127.046 42.4786 126.386 42.3059L120.287 40.7103C119.908 40.6113 119.621 40.3012 119.436 39.9569C116.563 34.6146 88.9087 12.3468 77.9451 3.64022C77.0688 2.94425 77.8362 1.54563 78.9001 1.89307L91.3628 5.96346Z" stroke="white" stroke-miterlimit="10" stroke-linecap="round" stroke-linejoin="round"/>
<path d="M33.0805 38.124C33.0587 38.2465 33.0391 38.3712 33.0195 38.4915C33.037 38.38 33.0566 38.2596 33.0805 38.124Z" fill="url(#paint9_radial)"/>
<path d="M33.0203 38.5002C33.0203 38.5571 33.0007 38.6118 32.9941 38.6643L33.0203 38.5002Z" fill="url(#paint10_radial)"/>
<path d="M32.9895 38.6687C32.9895 38.6951 32.9895 38.7194 32.9785 38.7458C32.9829 38.7194 32.9873 38.6951 32.9895 38.6687Z" fill="url(#paint11_radial)"/>
<path d="M32.9429 38.9531L32.9297 39.0391L32.9429 38.9531Z" fill="url(#paint12_radial)"/>
<path d="M32.9788 38.7454C32.9788 38.7913 32.9636 38.8351 32.957 38.8766C32.9657 38.8372 32.9657 38.7913 32.9788 38.7454Z" fill="url(#paint13_radial)"/>
<path d="M28.8303 63.9696C28.898 64.3634 29.1059 64.7155 29.3996 64.9865L72.6481 104.89C73.3947 105.579 74.5392 105.599 75.3092 104.936L120.826 65.7508C121.396 65.26 121.522 64.4266 121.123 63.7887V63.7887C120.628 62.9965 119.543 62.8324 118.836 63.4428L75.3168 101.003C74.5439 101.67 73.3925 101.648 72.6459 100.951L31.8919 62.9357C28.2135 58.7599 28.5656 62.4318 28.8303 63.9696Z" stroke="white" stroke-miterlimit="10" stroke-linecap="round" stroke-linejoin="round"/>
<circle cx="75.6752" cy="52.0175" r="3.68891" fill="#181F23"/>
<path d="M55.7517 65.569C53.9544 62.9991 52.6961 60.1197 52.0469 57.0908" stroke="#181F23" stroke-linecap="round" stroke-linejoin="round"/>
<path d="M70.6085 75.6366C66.6777 74.7848 63.0249 72.9693 59.9844 70.3562L65.6904 64.509C68.4582 66.7482 71.9035 68.0018 75.4749 68.0691C79.0463 68.1364 82.5371 67.0136 85.3887 64.8804" stroke="#181F23" stroke-linecap="round" stroke-linejoin="round"/>
<path d="M61.1362 59.2105C60.1061 57.1558 59.5346 54.902 59.4612 52.6049C59.3878 50.3079 59.8142 48.0222 60.7111 45.906C61.6079 43.7898 62.9537 41.8935 64.6554 40.3481C66.3572 38.8027 68.3744 37.6451 70.5675 36.9553" stroke="#181F23" stroke-linecap="round" stroke-linejoin="round"/>
<path d="M89.104 60.9007C90.7676 58.3513 91.6529 55.3696 91.6511 52.322H99.6766C99.6775 57.1581 98.2088 61.8795 95.4664 65.8559C92.724 69.8324 88.8383 72.8748 84.3281 74.5772" stroke="#181F23" stroke-linecap="round" stroke-linejoin="round"/>
<path d="M90.1507 46.0573C88.996 43.0608 86.9867 40.4892 84.3841 38.6768C81.7816 36.8645 78.7062 35.8953 75.558 35.8953V44.125C77.3788 44.1261 79.1392 44.7933 80.5213 46.006C81.9034 47.2187 82.8162 48.8971 83.0947 50.738C83.3733 52.5789 82.9993 54.4611 82.0404 56.0446C81.0814 57.6281 79.6006 58.8087 77.8654 59.3731C76.1301 59.9375 74.2548 59.8485 72.5781 59.1223C70.9014 58.396 69.5337 57.0804 68.722 55.4128C67.9104 53.7453 67.7082 51.8358 68.1521 50.0292C68.596 48.2226 69.6566 46.6378 71.1425 45.5611" stroke="#181F23" stroke-linecap="round" stroke-linejoin="round"/>
<path d="M89.6191 32.7163C93.9006 35.7326 97.0571 40.0082 98.6165 44.9036" stroke="#181F23" stroke-linecap="round" stroke-linejoin="round"/>
<path d="M51.5127 52.3219C51.5148 48.4118 52.4472 44.5595 54.2314 41.0898C56.0156 37.6202 58.5992 34.6349 61.7643 32.3857C64.9295 30.1366 68.5834 28.6895 72.418 28.1664C76.2526 27.6434 80.1554 28.0598 83.7974 29.3804" stroke="#181F23" stroke-linecap="round" stroke-linejoin="round"/>
<path d="M24.6995 37.6133C23.3922 32.3813 24.6991 33.6889 25.6808 31.4C26.1266 30.3607 26.1001 29.1193 25.9383 28.0734C25.7197 26.6596 24.2271 25.5439 23.3366 26.6635C22.664 27.5091 21.9473 28.9621 20.2093 30.9403C19.9417 31.2448 19.7379 31.5985 19.6237 31.9875C19.0333 33.999 17.0471 40.6718 15.7037 44.0534C15.5622 44.4097 16.1332 44.8806 16.4429 44.6546C19.395 42.1608 25.2544 39.834 24.6995 37.6133Z" fill="#181F23" stroke="white" stroke-miterlimit="10" stroke-linecap="round" stroke-linejoin="round"/>
<path d="M8.90902 56.2345C8.53894 52.4357 10.7884 48.9869 13.8264 46.6764C15.3043 45.5524 16.8087 44.259 17.8889 42.9687C18.3081 42.4679 18.7177 41.9543 19.1883 41.5015C21.8574 38.9339 22.5222 38.9669 24.3719 37.9403C25.9559 37.0611 30.1502 36.959 31.8332 36.9547C32.3102 36.9535 32.7847 36.9332 33.2588 36.8814L38.5264 36.3053L39.1839 36.2573C40.8456 36.1362 41.9891 37.8938 41.2051 39.3639L40.5041 40.6782C40.4404 40.7976 40.4693 40.9453 40.5733 41.032L40.9738 41.3658C41.8079 42.0608 42.1308 43.196 41.7875 44.226C41.5202 45.0278 41.5202 45.8946 41.7875 46.6963L42.0194 47.392C42.4455 48.6704 42.358 50.0644 41.7754 51.2795L38.6739 57.7478C38.5767 57.9504 38.4361 58.1291 38.262 58.2711L35.065 60.8798C34.6672 61.2044 34.2487 61.4994 33.8123 61.77C32.5239 62.5691 29.6408 64.3936 27.9689 65.735C26.4112 66.9847 20.0634 67.5967 16.4881 67.8477C14.8553 67.9623 13.1797 67.6397 12.1759 66.3468C10.942 64.7576 9.44627 61.7494 8.90902 56.2345Z" fill="#181F23" stroke="white" stroke-miterlimit="10" stroke-linecap="round" stroke-linejoin="round"/>
<path d="M1.21813 55.0399C1.27167 54.6461 1.33469 54.2454 1.40857 53.8374C1.50948 53.2801 1.82826 52.7779 2.29161 52.418L4.5562 50.6589C6.01769 49.5237 8.22077 50.3022 8.69214 52.1246C9.76641 56.2779 11.5753 62.3178 13.8564 66.2269C14.2895 66.9692 14.4581 67.9685 14.3143 68.8865C14.1704 69.8058 13.7305 70.5587 13.0412 70.9215L1.21813 55.0399ZM1.21813 55.0399C-0.144024 65.1463 5.2409 70.7655 7.44731 72.6108C7.89398 72.9843 8.4719 73.0781 9.00665 72.8627C10.132 72.4094 11.6391 71.6586 13.0411 70.9215L1.21813 55.0399Z" fill="#181F23" stroke="white" stroke-linecap="round" stroke-linejoin="round"/>
<path d="M25.2852 44.2393C25.2852 44.2393 33.9484 43.5461 35.2399 43.4997C36.5314 43.4533 37.5851 41.6334 38.2626 41.3995L40.3973 40.8831" stroke="white" stroke-linecap="round" stroke-linejoin="round"/>
<path d="M29.7705 51.4358C29.7705 51.4358 32.9563 50.5431 35.9863 50.0064C39.0163 49.4697 39.6494 49.575 40.1986 48.8972C40.7477 48.2194 41.7057 46.4238 41.7057 46.4238" stroke="white" stroke-linecap="round" stroke-linejoin="round"/>
<path d="M34.6133 57.3801C34.6133 57.3801 39.3851 53.7595 40.0802 53.442C40.4642 53.2859 40.7873 53.0097 41.0014 52.6548" stroke="white" stroke-linecap="round" stroke-linejoin="round"/>
<path d="M22.1707 46.7691C22.1707 46.7691 21.4591 48.4653 22.0822 48.8536C22.5187 49.118 22.9758 49.3466 23.4492 49.5371" stroke="white" stroke-linecap="round" stroke-linejoin="round"/>
<path d="M27.4536 53.963C27.4536 53.963 26.6109 55.2605 27.095 55.9674C27.4052 56.4063 27.8292 56.7521 28.3215 56.9676" stroke="white" stroke-linecap="round" stroke-linejoin="round"/>
<path d="M127.377 39.5411C128.684 34.309 127.377 35.6166 126.395 33.3277C125.95 32.2885 125.976 31.047 126.138 30.0011C126.356 28.5873 127.849 27.4716 128.74 28.5912C129.412 29.4368 130.129 30.8899 131.867 32.8681C132.134 33.1726 132.338 33.5263 132.452 33.9152C133.043 35.9267 135.029 42.5996 136.372 45.9811C136.514 46.3374 135.943 46.8083 135.633 46.5823C132.681 44.0886 126.822 41.7618 127.377 39.5411Z" fill="#181F23" stroke="white" stroke-miterlimit="10" stroke-linecap="round" stroke-linejoin="round"/>
<path d="M143.167 58.162C143.537 54.3632 141.288 50.9144 138.25 48.6038C136.772 47.4799 135.267 46.1865 134.187 44.8962C133.768 44.3954 133.359 43.8818 132.888 43.429C130.219 40.8614 129.554 40.8944 127.704 39.8677C126.12 38.9886 121.926 38.8865 120.243 38.8822C119.766 38.881 119.291 38.8607 118.817 38.8089L113.55 38.2328L112.892 38.1848C111.231 38.0636 110.087 39.8213 110.871 41.2914L111.572 42.6057C111.636 42.7251 111.607 42.8728 111.503 42.9595L111.102 43.2932C110.268 43.9883 109.945 45.1235 110.289 46.1535C110.556 46.9553 110.556 47.8221 110.289 48.6238L110.057 49.3195C109.631 50.5979 109.718 51.9919 110.301 53.207L113.402 59.6753C113.499 59.8779 113.64 60.0566 113.814 60.1986L117.011 62.8073C117.409 63.1319 117.828 63.4269 118.264 63.6975C119.552 64.4966 122.435 66.3211 124.107 67.6625C125.665 68.9122 132.013 69.5242 135.588 69.7752C137.221 69.8898 138.897 69.5672 139.9 68.2743C141.134 66.6851 142.63 63.6769 143.167 58.162Z" fill="#181F23" stroke="white" stroke-miterlimit="10" stroke-linecap="round" stroke-linejoin="round"/>
<path d="M150.858 56.9673C150.804 56.5736 150.741 56.1729 150.668 55.7649C150.567 55.2076 150.248 54.7054 149.785 54.3454L147.52 52.5864C146.058 51.4512 143.855 52.2297 143.384 54.0521C142.31 58.2054 140.501 64.2453 138.22 68.1544C137.787 68.8967 137.618 69.896 137.762 70.814C137.906 71.7333 138.346 72.4862 139.035 72.8489L150.858 56.9673ZM150.858 56.9673C152.22 67.0738 146.835 72.693 144.629 74.5383C144.182 74.9118 143.604 75.0056 143.07 74.7902C141.944 74.3368 140.437 73.5861 139.035 72.849L150.858 56.9673Z" fill="#181F23" stroke="white" stroke-linecap="round" stroke-linejoin="round"/>
<path d="M126.791 46.167C126.791 46.167 118.128 45.4738 116.836 45.4274C115.545 45.381 114.491 43.5611 113.814 43.3273L111.679 42.8108" stroke="white" stroke-linecap="round" stroke-linejoin="round"/>
<path d="M122.306 53.3635C122.306 53.3635 119.12 52.4708 116.09 51.9341C113.06 51.3974 112.427 51.5028 111.878 50.825C111.328 50.1472 110.37 48.3516 110.37 48.3516" stroke="white" stroke-linecap="round" stroke-linejoin="round"/>
<path d="M118.119 60.616C118.119 60.616 113.347 56.9953 112.652 56.6778C112.268 56.5217 111.945 56.2455 111.731 55.8906" stroke="white" stroke-linecap="round" stroke-linejoin="round"/>
<path d="M129.905 48.6968C129.905 48.6968 130.617 50.393 129.994 50.7814C129.557 51.0458 129.1 51.2743 128.627 51.4648" stroke="white" stroke-linecap="round" stroke-linejoin="round"/>
<path d="M124.623 55.8907C124.623 55.8907 125.465 57.1882 124.981 57.8952C124.671 58.334 124.247 58.6798 123.755 58.8954" stroke="white" stroke-linecap="round" stroke-linejoin="round"/>
<defs>
<radialGradient id="paint0_radial" cx="0" cy="0" r="1" gradientUnits="userSpaceOnUse" gradientTransform="translate(33.1785 37.5159) scale(0.113299 0.113753)">
<stop stop-color="white"/>
<stop offset="0.76" stop-color="#EFEFF0"/>
<stop offset="1" stop-color="#E9E9EA"/>
</radialGradient>
<radialGradient id="paint1_radial" cx="0" cy="0" r="1" gradientUnits="userSpaceOnUse" gradientTransform="translate(33.3402 54.0584) scale(8.13675e-05 0.00487724)">
<stop stop-color="white"/>
<stop offset="0.76" stop-color="#EFEFF0"/>
<stop offset="1" stop-color="#E9E9EA"/>
</radialGradient>
<radialGradient id="paint2_radial" cx="0" cy="0" r="1" gradientUnits="userSpaceOnUse" gradientTransform="translate(33.8612 57.7283) scale(0.000381432 0.00726986)">
<stop stop-color="white"/>
<stop offset="0.76" stop-color="#EFEFF0"/>
<stop offset="1" stop-color="#E9E9EA"/>
</radialGradient>
<radialGradient id="paint3_radial" cx="0" cy="0" r="1" gradientUnits="userSpaceOnUse" gradientTransform="translate(37.6301 76.9899) scale(0.004575 0.027104)">
<stop stop-color="white"/>
<stop offset="0.76" stop-color="#EFEFF0"/>
<stop offset="1" stop-color="#E9E9EA"/>
</radialGradient>
<radialGradient id="paint4_radial" cx="0" cy="0" r="1" gradientUnits="userSpaceOnUse" gradientTransform="translate(33.4193 51.7333) scale(6.94275e-05 0.00335735)">
<stop stop-color="white"/>
<stop offset="0.76" stop-color="#EFEFF0"/>
<stop offset="1" stop-color="#E9E9EA"/>
</radialGradient>
<radialGradient id="paint5_radial" cx="0" cy="0" r="1" gradientUnits="userSpaceOnUse" gradientTransform="translate(37.6041 81.2061) scale(0.0050116 0.0327079)">
<stop stop-color="white"/>
<stop offset="0.76" stop-color="#EFEFF0"/>
<stop offset="1" stop-color="#E9E9EA"/>
</radialGradient>
<radialGradient id="paint6_radial" cx="0" cy="0" r="1" gradientUnits="userSpaceOnUse" gradientTransform="translate(35.9559 62.3926) scale(0.0018441 0.0117279)">
<stop stop-color="white"/>
<stop offset="0.76" stop-color="#EFEFF0"/>
<stop offset="1" stop-color="#E9E9EA"/>
</radialGradient>
<radialGradient id="paint7_radial" cx="0" cy="0" r="1" gradientUnits="userSpaceOnUse" gradientTransform="translate(35.6755 62.617) scale(0.00157928 0.00925278)">
<stop stop-color="white"/>
<stop offset="0.76" stop-color="#EFEFF0"/>
<stop offset="1" stop-color="#E9E9EA"/>
</radialGradient>
<radialGradient id="paint8_radial" cx="0" cy="0" r="1" gradientUnits="userSpaceOnUse" gradientTransform="translate(41.4412 115.469) scale(0.0165558 0.0988724)">
<stop stop-color="white"/>
<stop offset="0.76" stop-color="#EFEFF0"/>
<stop offset="1" stop-color="#E9E9EA"/>
</radialGradient>
<radialGradient id="paint9_radial" cx="0" cy="0" r="1" gradientUnits="userSpaceOnUse" gradientTransform="translate(45.6689 150.255) scale(0.0365959 0.220498)">
<stop stop-color="white"/>
<stop offset="0.76" stop-color="#EFEFF0"/>
<stop offset="1" stop-color="#E9E9EA"/>
</radialGradient>
<radialGradient id="paint10_radial" cx="0" cy="0" r="1" gradientUnits="userSpaceOnUse" gradientTransform="translate(38.4113 88.7552) scale(0.0070594 0.0442948)">
<stop stop-color="white"/>
<stop offset="0.76" stop-color="#EFEFF0"/>
<stop offset="1" stop-color="#E9E9EA"/>
</radialGradient>
<radialGradient id="paint11_radial" cx="0" cy="0" r="1" gradientUnits="userSpaceOnUse" gradientTransform="translate(35.2505 62.3311) scale(0.00131653 0.00925095)">
<stop stop-color="white"/>
<stop offset="0.76" stop-color="#EFEFF0"/>
<stop offset="1" stop-color="#E9E9EA"/>
</radialGradient>
<radialGradient id="paint12_radial" cx="0" cy="0" r="1" gradientUnits="userSpaceOnUse" gradientTransform="translate(35.657 65.456) scale(0.0018457 0.0120366)">
<stop stop-color="white"/>
<stop offset="0.76" stop-color="#EFEFF0"/>
<stop offset="1" stop-color="#E9E9EA"/>
</radialGradient>
<radialGradient id="paint13_radial" cx="0" cy="0" r="1" gradientUnits="userSpaceOnUse" gradientTransform="translate(37.4685 79.0985) scale(0.00479454 0.028878)">
<stop stop-color="white"/>
<stop offset="0.76" stop-color="#EFEFF0"/>
<stop offset="1" stop-color="#E9E9EA"/>
</radialGradient>
</defs>
</svg>
