<svg width="147" height="99" viewBox="0 0 147 99" fill="none" xmlns="http://www.w3.org/2000/svg">
<path d="M61.5181 40.6794C62.1351 40.0625 54.7834 40.5252 51.3903 40.1653C47.5168 39.7041 43.6842 38.9479 39.9258 37.9033C36.7384 36.9779 35.7616 37.4406 35.7616 37.4406L35.6464 37.2987C35.7143 37.2185 35.7616 37.1568 35.7616 37.1568C35.7616 37.1568 36.7384 37.6195 39.9258 36.6941C43.6842 35.6495 47.5168 34.8933 51.3903 34.432C54.7834 34.0722 62.1351 34.5349 61.5181 33.9179C61.5181 33.9179 51.0304 33.4552 46.6092 34.2264C42.1879 34.9975 37.4581 36.0258 34.8876 36.3856C32.8312 36.6735 30.2237 36.6653 29.2572 36.6509C29.207 36.6501 29.1571 36.6593 29.1105 36.6779C29.0639 36.6966 29.0214 36.7243 28.9856 36.7595C28.9498 36.7947 28.9214 36.8367 28.902 36.883C28.8826 36.9294 28.8726 36.9791 28.8726 37.0293L28.8726 37.5681C28.8726 37.6183 28.8826 37.668 28.902 37.7143C28.9214 37.7606 28.9498 37.8026 28.9856 37.8378C29.0214 37.873 29.0639 37.9008 29.1105 37.9194C29.1571 37.9381 29.207 37.9473 29.2572 37.9464C30.2237 37.932 32.8353 37.9259 34.8876 38.2117C37.4581 38.5716 42.1879 39.5998 46.6092 40.3709C51.0304 41.1421 61.5181 40.6794 61.5181 40.6794Z" fill="white"/>
<path d="M19.467 97.2529C19.467 97.2529 24.1619 80.4981 25.1392 78.4343C26.1166 76.3705 31.3307 73.0675 32.2949 68.5254C33.2592 63.9832 34.4984 62.0547 35.5979 58.6121C36.6974 55.1695 37.6661 55.1695 36.0124 52.281C34.3587 49.3925 34.0839 47.5993 35.1878 45.8103C36.2917 44.0214 41.9333 41.6827 41.2439 40.3039C40.5545 38.9251 39.8652 38.515 39.3154 38.515L38.7656 38.515C38.7656 38.515 40.0048 33.9728 39.3154 32.3192C38.626 30.6655 36.9767 29.566 36.4269 30.395C35.8771 31.224 34.9129 32.4588 34.9129 32.4588C34.9129 32.4588 36.0124 30.2554 34.638 29.9805C33.2636 29.7056 32.9843 30.1157 30.9205 31.08C28.8567 32.0443 24.1749 33.0086 24.1749 33.0086C24.1749 33.0086 18.6685 30.8269 16.8796 30.2554C15.0907 29.6838 12.8872 30.395 12.8872 30.395C12.8872 30.395 6.96632 28.0519 6.00204 29.9587C5.03776 31.8654 4.35274 39.8676 3.93823 41.3816C3.52372 42.8957 2.1493 44.1348 2.42419 46.4779C2.69907 48.821 3.38846 50.1954 3.52809 51.1553C3.66771 52.1152 7.2412 69.6031 7.2412 73.4558C7.2412 77.3086 0.5 96.581 0.5 96.581" fill="#181F23"/>
<path d="M19.467 97.2529C19.467 97.2529 24.1619 80.4981 25.1392 78.4343C26.1166 76.3705 31.3307 73.0675 32.2949 68.5254C33.2592 63.9832 34.4984 62.0547 35.5979 58.6121C36.6974 55.1695 37.6661 55.1695 36.0124 52.281C34.3587 49.3925 34.0839 47.5993 35.1878 45.8103C36.2917 44.0214 41.9333 41.6827 41.2439 40.3039C40.5545 38.9251 39.8652 38.515 39.3154 38.515L38.7656 38.515C38.7656 38.515 40.0048 33.9728 39.3154 32.3192C38.626 30.6655 36.9767 29.566 36.4269 30.395C35.8771 31.224 34.9129 32.4588 34.9129 32.4588C34.9129 32.4588 36.0124 30.2554 34.638 29.9805C33.2636 29.7056 32.9843 30.1157 30.9205 31.08C28.8567 32.0443 24.1749 33.0086 24.1749 33.0086C24.1749 33.0086 18.6685 30.827 16.8796 30.2554C15.0907 29.6838 12.8872 30.395 12.8872 30.395C12.8872 30.395 6.96632 28.0519 6.00204 29.9587C5.03776 31.8654 4.35274 39.8676 3.93823 41.3816C3.52372 42.8957 2.1493 44.1348 2.42419 46.4779C2.69907 48.821 3.38846 50.1954 3.52809 51.1553C3.66771 52.1152 7.2412 69.6031 7.2412 73.4558C7.2412 77.3086 0.5 96.581 0.5 96.581" stroke="white" stroke-linecap="round" stroke-linejoin="round"/>
<path d="M25.4043 62.7573C25.4043 62.7573 27.5859 53.5334 28.8469 50.3657C30.1079 47.198 31.3208 43.895 32.6996 42.6559C34.0784 41.4167 38.206 39.2176 38.7558 38.5283" stroke="white" stroke-linecap="round" stroke-linejoin="round"/>
<path d="M15.9033 52.4297C15.9033 52.4297 24.7127 39.7763 25.9388 37.839C27.1648 35.9017 30.8954 35.9148 31.8597 35.0858L34.8878 32.4679" stroke="white" stroke-linecap="round" stroke-linejoin="round"/>
<path d="M7.51562 48.8518C7.51562 48.8518 11.2331 44.3097 14.2612 39.7675C17.2893 35.2254 17.5685 34.1215 19.0608 33.7114C20.553 33.3012 24.1527 33.022 24.1527 33.022" stroke="white" stroke-linecap="round" stroke-linejoin="round"/>
<path d="M4.61426 41.8398C4.61426 41.8398 10.9453 33.3053 11.4951 32.0662C11.7647 31.3821 12.2484 30.8035 12.8739 30.4169" stroke="white" stroke-linecap="round" stroke-linejoin="round"/>
<path d="M15.7617 61.2434C15.7617 61.2434 12.8733 59.725 13.2878 58.4902C13.5867 57.6357 13.9544 56.8069 14.3873 56.0119" stroke="white" stroke-linecap="round" stroke-linejoin="round"/>
<path d="M8.05771 56.5615C8.05771 56.5615 5.43976 55.7369 5.3045 54.2228C5.2337 53.2722 5.42379 52.3202 5.85427 51.4696" stroke="white" stroke-linecap="round" stroke-linejoin="round"/>
<path d="M19.467 97.2529C19.467 97.2529 24.1619 80.4981 25.1392 78.4343C26.1166 76.3705 31.3307 73.0675 32.2949 68.5254C33.2592 63.9832 34.4984 62.0547 35.5979 58.6121C36.6974 55.1695 37.6661 55.1695 36.0124 52.281C34.3587 49.3925 34.0839 47.5993 35.1878 45.8103C36.2917 44.0214 41.9333 41.6827 41.2439 40.3039C40.5545 38.9251 39.8652 38.515 39.3154 38.515L38.7656 38.515C38.7656 38.515 40.0048 33.9728 39.3154 32.3192C38.626 30.6655 36.9767 29.566 36.4269 30.395C35.8771 31.224 34.9129 32.4588 34.9129 32.4588C34.9129 32.4588 36.0124 30.2554 34.638 29.9805C33.2636 29.7056 32.9843 30.1157 30.9205 31.08C28.8567 32.0443 24.1749 33.0086 24.1749 33.0086C24.1749 33.0086 18.6685 30.8269 16.8796 30.2554C15.0907 29.6838 12.8872 30.395 12.8872 30.395C12.8872 30.395 6.96632 28.0519 6.00204 29.9587C5.03776 31.8654 4.35274 39.8676 3.93823 41.3816C3.52372 42.8957 2.1493 44.1348 2.42419 46.4779C2.69907 48.821 3.38846 50.1954 3.52809 51.1553C3.66771 52.1152 7.2412 69.6031 7.2412 73.4558C7.2412 77.3086 0.5 96.581 0.5 96.581" fill="#181F23"/>
<path d="M19.467 97.2529C19.467 97.2529 24.1619 80.4981 25.1392 78.4343C26.1166 76.3705 31.3307 73.0675 32.2949 68.5254C33.2592 63.9832 34.4984 62.0547 35.5979 58.6121C36.6974 55.1695 37.6661 55.1695 36.0124 52.281C34.3587 49.3925 34.0839 47.5993 35.1878 45.8103C36.2917 44.0214 41.9333 41.6827 41.2439 40.3039C40.5545 38.9251 39.8652 38.515 39.3154 38.515L38.7656 38.515C38.7656 38.515 40.0048 33.9728 39.3154 32.3192C38.626 30.6655 36.9767 29.566 36.4269 30.395C35.8771 31.224 34.9129 32.4588 34.9129 32.4588C34.9129 32.4588 36.0124 30.2554 34.638 29.9805C33.2636 29.7056 32.9843 30.1157 30.9205 31.08C28.8567 32.0443 24.1749 33.0086 24.1749 33.0086C24.1749 33.0086 18.6685 30.827 16.8796 30.2554C15.0907 29.6838 12.8872 30.395 12.8872 30.395C12.8872 30.395 6.96632 28.0519 6.00204 29.9587C5.03776 31.8654 4.35274 39.8676 3.93823 41.3816C3.52372 42.8957 2.1493 44.1348 2.42419 46.4779C2.69907 48.821 3.38846 50.1954 3.52809 51.1553C3.66771 52.1152 7.2412 69.6031 7.2412 73.4558C7.2412 77.3086 0.5 96.581 0.5 96.581" stroke="white" stroke-linecap="round" stroke-linejoin="round"/>
<path d="M25.4043 62.7573C25.4043 62.7573 27.5859 53.5334 28.8469 50.3657C30.1079 47.198 31.3208 43.895 32.6996 42.6559C34.0784 41.4167 38.206 39.2176 38.7558 38.5283" stroke="white" stroke-linecap="round" stroke-linejoin="round"/>
<path d="M15.9033 52.4297C15.9033 52.4297 24.7127 39.7763 25.9388 37.839C27.1648 35.9017 30.8954 35.9148 31.8597 35.0858L34.8878 32.4679" stroke="white" stroke-linecap="round" stroke-linejoin="round"/>
<path d="M7.51562 48.8518C7.51562 48.8518 11.2331 44.3097 14.2612 39.7675C17.2893 35.2254 17.5685 34.1215 19.0608 33.7114C20.553 33.3012 24.1527 33.022 24.1527 33.022" stroke="white" stroke-linecap="round" stroke-linejoin="round"/>
<path d="M4.61426 41.8398C4.61426 41.8398 10.9453 33.3053 11.4951 32.0662C11.7647 31.3821 12.2484 30.8035 12.8739 30.4169" stroke="white" stroke-linecap="round" stroke-linejoin="round"/>
<path d="M15.7617 61.2434C15.7617 61.2434 12.8733 59.725 13.2878 58.4902C13.5867 57.6357 13.9544 56.8069 14.3873 56.0119" stroke="white" stroke-linecap="round" stroke-linejoin="round"/>
<path d="M8.05771 56.5615C8.05771 56.5615 5.43976 55.7369 5.3045 54.2228C5.2337 53.2722 5.42379 52.3202 5.85427 51.4696" stroke="white" stroke-linecap="round" stroke-linejoin="round"/>
<path d="M101.258 17.6225L101.258 57.334C101.249 59.2426 100.487 61.0705 99.1359 62.4191C97.7853 63.7677 95.9563 64.5277 94.0476 64.5334C93.1363 64.5327 92.2337 64.3551 91.39 64.0107C90.5276 64.5719 89.5462 64.9241 88.5237 65.0393C87.5013 65.1544 86.466 65.0294 85.5004 64.674C84.5347 64.3187 83.6654 63.7428 82.9615 62.9923C82.2576 62.2418 81.7386 61.3374 81.4458 60.351C76.4791 60.351 73.3423 56.3537 73.3423 51.3979C73.3431 50.3431 73.5274 49.2964 73.8869 48.3047L73.5275 48.6423C72.636 47.8032 71.9257 46.7905 71.4401 45.6667C70.9546 44.5428 70.7041 43.3315 70.7041 42.1072C70.7041 40.883 70.9546 39.6716 71.4401 38.5478C71.9257 37.4239 72.636 36.4113 73.5275 35.5721L73.4512 35.4959C72.6117 34.1022 72.171 32.5048 72.1769 30.8778C72.1747 29.2249 72.6279 27.6034 73.4868 26.1912C74.3456 24.779 75.5769 23.6307 77.0455 22.8723L77.2416 22.8723C77.5097 21.9761 77.9634 21.1463 78.5733 20.437C79.1832 19.7277 79.9355 19.1546 80.7814 18.7552L80.9666 18.7552C80.994 17.3215 81.3641 15.9153 82.0461 14.6539C82.728 13.3925 83.7019 12.3126 84.8864 11.5044C86.0709 10.6963 87.4316 10.1834 88.8548 10.0085C90.278 9.83361 91.7225 10.0019 93.0674 10.4992C93.3878 10.4468 93.712 10.4213 94.0367 10.423C95.9455 10.4344 97.7729 11.1978 99.1226 12.5475C100.472 13.8972 101.236 15.7246 101.247 17.6333L101.258 17.6225Z" fill="white"/>
<path d="M101.152 57.275C101.144 59.1837 100.381 61.0115 99.0301 62.3601C97.6795 63.7087 95.8505 64.4687 93.9418 64.4745C93.0305 64.4737 92.128 64.2962 91.2842 63.9517C90.4218 64.5129 89.4404 64.8651 88.4179 64.9803C87.3955 65.0955 86.3602 64.9704 85.3946 64.615C84.429 64.2597 83.5596 63.6838 82.8557 62.9333C82.1519 62.1828 81.6328 61.2784 81.34 60.292C81.1428 59.6685 81.0436 59.0181 81.0459 58.3642C81.0539 56.7711 81.635 55.234 82.6829 54.0341C83.7309 52.8341 85.1757 52.0514 86.7533 51.8291" stroke="#181F23" stroke-linecap="round" stroke-linejoin="round"/>
<path d="M86.7627 17.5962C86.7665 15.8592 87.3962 14.1817 88.5365 12.8714C89.6768 11.5611 91.2511 10.7057 92.971 10.462C93.2914 10.4096 93.6157 10.3841 93.9404 10.3858C95.8491 10.3973 97.6765 11.1606 99.0262 12.5103C100.376 13.86 101.139 15.6874 101.151 17.5962" stroke="#181F23" stroke-linecap="round" stroke-linejoin="round"/>
<path d="M81.3398 60.2375C76.3731 60.2375 73.2363 56.2403 73.2363 51.2845C73.2371 50.2296 73.4214 49.1829 73.7809 48.1912C74.4143 46.4614 75.5634 44.9677 77.073 43.9119C78.5826 42.8562 80.3799 42.2893 82.2221 42.2878" stroke="#181F23" stroke-linecap="round" stroke-linejoin="round"/>
<path d="M73.4414 48.5616C72.133 47.3268 71.2253 45.7275 70.836 43.971C70.4466 42.2145 70.5935 40.3816 71.2577 38.7095C71.9218 37.0374 73.0726 35.6032 74.5611 34.5925C76.0495 33.5819 77.807 33.0413 79.6062 33.0408" stroke="#181F23" stroke-linecap="round" stroke-linejoin="round"/>
<path d="M73.3457 35.3824C72.5062 33.9887 72.0654 32.3913 72.0713 30.7643C72.0692 29.1114 72.5224 27.4899 73.3812 26.0777C74.2401 24.6655 75.4714 23.5172 76.94 22.7588" stroke="#181F23" stroke-linecap="round" stroke-linejoin="round"/>
<path d="M89.8243 27.867C87.443 27.8612 85.1614 26.9104 83.4806 25.2236C81.7999 23.5367 80.8575 21.2516 80.8604 18.8703L80.8604 18.707C80.8861 17.2724 81.2549 15.8648 81.9361 14.602C82.6173 13.3392 83.5911 12.2578 84.7758 11.4485C85.9606 10.6391 87.3219 10.1252 88.746 9.94975C90.17 9.77431 91.6154 9.94245 92.9612 10.4401" stroke="#181F23" stroke-linecap="round" stroke-linejoin="round"/>
<path d="M83.4851 31.3526C81.7249 31.3498 80.0378 30.6485 78.7941 29.4028C77.5505 28.1571 76.852 26.4688 76.852 24.7086C76.8444 24.0587 76.94 23.4116 77.1352 22.7917C77.4033 21.8954 77.857 21.0657 78.4669 20.3564C79.0768 19.647 79.8291 19.074 80.675 18.6746" stroke="#181F23" stroke-linecap="round" stroke-linejoin="round"/>
<path d="M101.151 17.5959L101.151 57.2203" stroke="#181F23" stroke-linecap="round" stroke-linejoin="round"/>
<path d="M98.1367 8.10693L98.1367 14.0802" stroke="white" stroke-linecap="round" stroke-linejoin="round"/>
<path d="M97.9279 4.18851C98.3118 4.18635 98.6876 4.29821 99.0079 4.50993C99.3281 4.72165 99.5784 5.02367 99.7268 5.37774C99.8752 5.7318 99.9151 6.12197 99.8415 6.49876C99.7679 6.87555 99.5842 7.22201 99.3135 7.49424C99.0428 7.76647 98.6973 7.9522 98.321 8.02789C97.9446 8.10359 97.5542 8.06585 97.1993 7.91943C96.8444 7.77302 96.541 7.52451 96.3275 7.20546C96.114 6.8864 96 6.51116 96 6.12725C96 5.61494 96.2028 5.12346 96.564 4.76019C96.9252 4.39691 97.4156 4.19139 97.9279 4.18851Z" fill="white" stroke="white" stroke-linecap="round" stroke-linejoin="round"/>
<path d="M73.752 28.6999L73.4361 22.851L70.4082 19.6052" stroke="white" stroke-linecap="round" stroke-linejoin="round"/>
<path d="M68.6968 16.0765C68.3125 16.0722 67.9356 16.1823 67.6139 16.3926C67.2922 16.603 67.0403 16.9043 66.8902 17.2582C66.7401 17.612 66.6986 18.0025 66.771 18.38C66.8433 18.7575 67.0262 19.105 67.2964 19.3783C67.5667 19.6516 67.9121 19.8384 68.2888 19.915C68.6654 19.9916 69.0564 19.9545 69.4119 19.8084C69.7674 19.6624 70.0715 19.4139 70.2855 19.0946C70.4995 18.7753 70.6138 18.3996 70.6138 18.0153C70.6152 17.7621 70.5668 17.5112 70.4712 17.2767C70.3757 17.0423 70.2349 16.8289 70.0569 16.6489C69.8788 16.4689 69.6671 16.3257 69.4338 16.2275C69.2004 16.1293 68.95 16.078 68.6968 16.0765Z" fill="white" stroke="white" stroke-linecap="round" stroke-linejoin="round"/>
<path d="M83.8598 14.122L83.8598 7.85922L80.9844 4.77686" stroke="white" stroke-linecap="round" stroke-linejoin="round"/>
<path d="M79.8507 1.28055C79.4694 1.28055 79.0967 1.39359 78.7797 1.60543C78.4626 1.81726 78.2155 2.11837 78.0696 2.47064C77.9237 2.82291 77.8855 3.21052 77.9599 3.58449C78.0343 3.95845 78.2179 4.30197 78.4875 4.57159C78.7571 4.8412 79.1006 5.02481 79.4746 5.09919C79.8486 5.17358 80.2362 5.13539 80.5885 4.98947C80.9407 4.84356 81.2418 4.59648 81.4537 4.27945C81.6655 3.96242 81.7786 3.58968 81.7786 3.20839C81.78 2.95481 81.7311 2.70346 81.6347 2.46891C81.5384 2.23436 81.3964 2.02126 81.2171 1.84196C81.0378 1.66265 80.8247 1.52071 80.5902 1.42434C80.3556 1.32797 80.1043 1.2791 79.8507 1.28055Z" fill="white" stroke="white" stroke-linecap="round" stroke-linejoin="round"/>
<path d="M71.9794 40.5036L69.91 34.6111L66.2285 32.1387" stroke="white" stroke-linecap="round" stroke-linejoin="round"/>
<path d="M63.8967 29.8405C63.6491 29.8968 63.4152 30.0018 63.2086 30.1493C63.0019 30.2969 62.8265 30.484 62.6928 30.6998C62.559 30.9157 62.4695 31.1559 62.4294 31.4067C62.3892 31.6574 62.3993 31.9136 62.459 32.1604C62.5782 32.6603 62.8899 33.093 63.3264 33.3643C63.7629 33.6356 64.2889 33.7235 64.7899 33.609C65.1416 33.52 65.462 33.3356 65.7156 33.0761C65.9693 32.8167 66.1465 32.4923 66.2276 32.1386C66.293 31.8592 66.293 31.5685 66.2276 31.2891C66.1699 31.0408 66.0638 30.8063 65.9153 30.5991C65.7669 30.3919 65.5791 30.216 65.3626 30.0814C65.1461 29.9469 64.9052 29.8563 64.6537 29.815C64.4021 29.7736 64.1449 29.7823 63.8967 29.8405Z" fill="white" stroke="white" stroke-linecap="round" stroke-linejoin="round"/>
<path d="M74.4912 53.5624L70.8642 48.8136L66.5293 47.8442" stroke="white" stroke-linecap="round" stroke-linejoin="round"/>
<path d="M63.6094 45.6439C63.3998 45.787 63.2205 45.9699 63.0816 46.1822C62.9428 46.3945 62.8471 46.6321 62.8001 46.8814C62.7531 47.1308 62.7556 47.3869 62.8075 47.6352C62.8595 47.8835 62.9599 48.1192 63.1029 48.3287C63.2459 48.5383 63.4288 48.7176 63.6412 48.8564C63.8535 48.9953 64.0911 49.091 64.3404 49.138C64.5897 49.185 64.8459 49.1825 65.0942 49.1306C65.3425 49.0786 65.5782 48.9782 65.7877 48.8352C66.208 48.5403 66.4966 48.093 66.5922 47.5886C66.6878 47.0841 66.5829 46.5623 66.2996 46.134C66.0052 45.7157 65.5581 45.4299 65.0548 45.3382C64.5516 45.2465 64.0324 45.3563 63.6094 45.6439Z" fill="white" stroke="white" stroke-linecap="round" stroke-linejoin="round"/>
<path d="M92.2975 25.8955C91.8666 25.8955 91.4455 26.0233 91.0872 26.2626C90.729 26.502 90.4498 26.8422 90.285 27.2402C90.1201 27.6383 90.0769 28.0763 90.161 28.4988C90.245 28.9214 90.4525 29.3096 90.7572 29.6142C91.0618 29.9189 91.45 30.1263 91.8725 30.2104C92.2951 30.2944 92.7331 30.2513 93.1311 30.0864C93.5292 29.9215 93.8694 29.6423 94.1087 29.2841C94.3481 28.9259 94.4758 28.5047 94.4758 28.0739C94.4758 27.4961 94.2464 26.9421 93.8378 26.5335C93.4293 26.125 92.8752 25.8955 92.2975 25.8955Z" fill="#181F23" stroke="#181F23" stroke-linecap="round" stroke-linejoin="round"/>
<path d="M88.6707 48.6921C88.2354 48.6813 87.8068 48.8013 87.4404 49.0364C87.0739 49.2716 86.7863 49.6112 86.6148 50.0114C86.4432 50.4116 86.3954 50.854 86.4777 51.2816C86.5601 51.7091 86.7686 52.1022 87.0765 52.4101C87.3844 52.718 87.7775 52.9266 88.2051 53.0089C88.6326 53.0912 89.0751 53.0434 89.4753 52.8719C89.8754 52.7003 90.215 52.4127 90.4502 52.0462C90.6853 51.6798 90.8053 51.2513 90.7945 50.816C90.7807 50.257 90.5525 49.7248 90.1572 49.3294C89.7618 48.9341 89.2296 48.7059 88.6707 48.6921Z" stroke="#181F23" stroke-linecap="round" stroke-linejoin="round"/>
<path d="M96.2422 67.0519L96.2422 62.9893" stroke="white" stroke-linecap="round" stroke-linejoin="round"/>
<path d="M96.1117 70.9185C96.4947 70.9163 96.8685 70.8008 97.1859 70.5865C97.5033 70.3721 97.7501 70.0686 97.8952 69.7141C98.0402 69.3597 98.077 68.9702 98.001 68.5949C97.925 68.2195 97.7395 67.8751 97.4679 67.6051C97.1963 67.335 96.8509 67.1514 96.4751 67.0775C96.0993 67.0036 95.71 67.0426 95.3564 67.1896C95.0028 67.3367 94.7007 67.5852 94.4882 67.9038C94.2756 68.2224 94.1621 68.5967 94.1621 68.9797C94.1607 69.2357 94.2102 69.4893 94.3078 69.7259C94.4054 69.9625 94.5491 70.1773 94.7306 70.3578C94.9121 70.5382 95.1277 70.6808 95.3648 70.777C95.6019 70.8733 95.8558 70.9214 96.1117 70.9185Z" fill="white" stroke="white" stroke-linecap="round" stroke-linejoin="round"/>
<path d="M128.954 37.564C128.954 37.564 126.891 35.775 126.066 33.7112C125.241 31.6474 125.377 29.5792 123.313 28.9117C121.249 28.2441 120.01 28.9117 120.01 28.9117C120.01 28.9117 121.659 33.0393 122.628 34.4181C123.596 35.7969 128.954 37.564 128.954 37.564Z" fill="#181F23"/>
<path d="M128.954 37.564C128.954 37.564 126.891 35.775 126.066 33.7112C125.241 31.6474 125.377 29.5792 123.313 28.9117C121.249 28.2441 120.01 28.9117 120.01 28.9117C120.01 28.9117 121.659 33.0393 122.628 34.4181C123.596 35.7969 128.954 37.564 128.954 37.564Z" stroke="white" stroke-linecap="round" stroke-linejoin="round"/>
<path d="M123.945 98.3176C123.945 98.3176 118.77 84.9181 116.707 81.2006C114.643 77.4831 112.025 76.4011 108.997 75.1445C105.969 73.8878 97.4342 68.5385 96.6052 66.4703C95.7762 64.4022 94.8162 58.2107 93.9872 56.1469C93.1582 54.0831 91.5089 52.9836 89.0306 52.2942C86.5523 51.6048 83.9387 51.1903 84.3532 49.9555C84.7677 48.7207 88.7557 47.8873 92.7481 48.4371C96.7404 48.9868 98.2545 50.0907 99.4936 51.7444C100.733 53.3981 102.797 56.9803 103.621 57.3861L104.45 57.8224C104.45 57.8224 104.311 43.0921 104.586 41.3032C104.86 39.5142 103.346 33.3184 100.318 25.8835C97.2902 18.4485 99.4936 13.4962 100.458 12.5319C101.422 11.5677 103.346 11.5677 103.761 11.9822C104.175 12.3967 103.9 17.9031 104.725 21.481C105.55 25.0588 110.367 34.5707 111.746 36.4861C112.797 38.0309 113.761 39.6332 114.634 41.2857C113.989 36.8061 112.835 32.4145 111.196 28.196C108.443 21.0359 105.55 16.3585 105 14.2903C104.45 12.2222 106.514 10.9874 107.753 11.5371C108.992 12.0869 111.606 17.5977 112.553 19.5219C113.5 21.446 116.292 26.1322 116.292 26.1322C117.045 26.0419 117.808 26.1471 118.508 26.4375C119.208 26.7279 119.821 27.1938 120.289 27.7902C121.938 29.854 124.556 34.1213 124.556 34.1213C124.556 34.1213 128.409 36.1894 128.959 37.5639C129.508 38.9383 130.473 52.2942 131.302 56.9759C132.131 61.6577 134.465 71.7019 135.704 75.6942C136.943 79.6866 145.975 96.9388 145.975 96.9388" fill="#181F23"/>
<path d="M123.945 98.3176C123.945 98.3176 118.77 84.9181 116.707 81.2006C114.643 77.4831 112.025 76.4011 108.997 75.1445C105.969 73.8878 97.4342 68.5385 96.6052 66.4703C95.7762 64.4022 94.8162 58.2107 93.9872 56.1469C93.1582 54.0831 91.5089 52.9836 89.0306 52.2942C86.5523 51.6048 83.9387 51.1903 84.3532 49.9555C84.7677 48.7207 88.7557 47.8873 92.7481 48.4371C96.7404 48.9868 98.2545 50.0907 99.4936 51.7444C100.733 53.3981 102.797 56.9803 103.621 57.3861L104.45 57.8224C104.45 57.8224 104.311 43.0921 104.586 41.3032C104.86 39.5142 103.346 33.3184 100.318 25.8835C97.2902 18.4485 99.4936 13.4962 100.458 12.5319C101.422 11.5677 103.346 11.5677 103.761 11.9822C104.175 12.3967 103.9 17.9031 104.725 21.481C105.55 25.0588 110.367 34.5707 111.746 36.4861C112.797 38.0309 113.761 39.6332 114.634 41.2857C113.989 36.8061 112.835 32.4145 111.196 28.196C108.443 21.0359 105.55 16.3585 105 14.2903C104.45 12.2222 106.514 10.9874 107.753 11.5371C108.992 12.0869 111.606 17.5977 112.553 19.5219C113.5 21.4461 116.292 26.1322 116.292 26.1322C117.045 26.0419 117.808 26.1471 118.508 26.4375C119.208 26.7279 119.821 27.1938 120.289 27.7902C121.938 29.854 124.556 34.1213 124.556 34.1213C124.556 34.1213 128.409 36.1894 128.959 37.5639C129.508 38.9383 130.473 52.2942 131.302 56.9759C132.131 61.6577 134.465 71.7019 135.704 75.6942C136.943 79.6866 145.975 96.9388 145.975 96.9388" stroke="white" stroke-linecap="round" stroke-linejoin="round"/>
<path d="M115.489 43.4414C115.489 43.4414 116.654 44.0217 116.942 46.0593C117.12 47.3113 117.218 48.5734 117.235 49.8379" stroke="white" stroke-linecap="round" stroke-linejoin="round"/>
<path d="M116.291 26.1321C116.291 26.1321 120.558 33.8376 121.248 34.2521C121.937 34.6666 124.136 35.9057 124.276 37.8299C124.415 39.7541 124.551 42.0972 124.551 42.0972" stroke="white" stroke-linecap="round" stroke-linejoin="round"/>
</svg>
