<svg width="117" height="99" viewBox="0 0 117 99" fill="none" xmlns="http://www.w3.org/2000/svg">
<path d="M18.4575 16.2023C18.5083 16.2418 18.5825 16.2064 18.5843 16.142C18.6541 13.6555 19.3062 11.2191 20.4893 9.0293C21.6972 6.79366 23.4233 4.88009 25.5229 3.44883C27.6225 2.01757 30.0346 1.11032 32.5571 0.803142C35.0664 0.497552 37.6123 0.794656 39.9836 1.66957C40.0058 1.67778 40.0206 1.69901 40.0206 1.72273C40.0206 1.75805 40.0525 1.78478 40.0873 1.77885C40.6553 1.68205 41.2311 1.63811 41.8073 1.64756C45.1875 1.6523 48.4276 2.99839 50.8161 5.39023C53.2045 7.78207 54.5461 11.0241 54.5461 14.4043V84.5127C54.5367 87.8867 53.1909 91.1196 50.8035 93.5037C48.416 95.8878 45.1813 97.229 41.8073 97.2337C40.7035 97.2408 39.6062 97.0998 38.5442 96.8163C37.6031 96.5651 36.5952 96.6584 35.7126 97.0705C34.5447 97.616 33.2919 97.9674 32.0034 98.1075C30.1987 98.3038 28.373 98.0801 26.6691 97.4538C24.9651 96.8276 23.4291 95.8159 22.1809 94.4976C21.4431 93.7184 20.8177 92.8445 20.3196 91.9016C19.704 90.7362 18.5664 89.8876 17.2623 89.6966C9.78378 88.6009 5.18079 81.9506 5.18079 73.9893C5.17997 72.4868 5.39257 70.9923 5.81185 69.5505C5.85667 69.3964 5.77174 69.2335 5.61868 69.1852C5.57739 69.1721 5.53948 69.1501 5.50791 69.1204C3.93528 67.6444 2.67993 65.8631 1.81881 63.8852C0.948939 61.8871 0.5 59.7313 0.5 57.5521C0.5 55.3729 0.948939 53.2171 1.81881 51.219C2.66462 49.2762 3.89078 47.5231 5.42436 46.0627C5.49588 45.9946 5.498 45.8808 5.42817 45.811C5.41812 45.8009 5.40932 45.7897 5.40202 45.7775C4.28692 43.9163 3.56448 41.8465 3.27925 39.6954C2.99308 37.5373 3.15312 35.3435 3.74941 33.2497C4.34571 31.156 5.36557 29.207 6.74583 27.5235C8.10851 25.8614 9.79379 24.4931 11.6997 23.5008C11.7481 23.4756 11.802 23.4626 11.8567 23.4626C12.0087 23.4626 12.1422 23.3625 12.1887 23.2177C12.6701 21.7183 13.4495 20.3306 14.4811 19.1384C15.5582 17.8934 16.8857 16.8899 18.3767 16.1932C18.4032 16.1808 18.4344 16.1844 18.4575 16.2023Z" fill="white"/>
<path d="M54.7093 84.5129C54.6999 87.8869 53.3541 91.1197 50.9667 93.5038C48.5792 95.888 45.3445 97.2292 41.9705 97.2339C40.8667 97.2409 39.7694 97.0999 38.7074 96.8165C37.7663 96.5652 36.7584 96.6585 35.8758 97.0707C34.7079 97.6161 33.4551 97.9676 32.1666 98.1077C30.3619 98.3039 28.5362 98.0802 26.8323 97.454C25.1283 96.8278 23.5923 95.816 22.3441 94.4978C21.096 93.1795 20.1695 91.5905 19.6372 89.855C19.1496 88.2318 19.0177 86.5227 19.2503 84.8439C19.4829 83.1652 20.0746 81.5564 20.9851 80.127C21.8957 78.6976 23.1036 77.4813 24.5267 76.5609C25.9498 75.6405 27.5545 75.0376 29.2316 74.7935" stroke="#181F23" stroke-linecap="round" stroke-linejoin="round"/>
<path d="M29.2305 14.4042C29.2358 11.328 30.3526 8.35744 32.375 6.03955C34.3974 3.72166 37.1892 2.21262 40.2363 1.79041C40.8259 1.68551 41.4242 1.63767 42.0229 1.6475C45.4031 1.65223 48.6433 2.99833 51.0317 5.39016C53.4202 7.782 54.7618 11.024 54.7618 14.4042" stroke="#181F23" stroke-linecap="round" stroke-linejoin="round"/>
<path d="M19.639 89.8548C10.8665 89.8548 5.3457 82.7082 5.3457 73.9893C5.3453 69.9079 6.91431 65.9826 9.72794 63.0259C12.5416 60.0693 16.3844 58.3077 20.4608 58.106" stroke="#181F23" stroke-linecap="round" stroke-linejoin="round"/>
<path d="M5.73599 69.1653C3.64652 67.201 2.1265 64.7087 1.33655 61.9518C0.546595 59.1949 0.516042 56.2758 1.24814 53.503C1.98023 50.7302 3.44779 48.2066 5.4957 46.199C7.54361 44.1914 10.0958 42.7743 12.8826 42.0974" stroke="#181F23" stroke-linecap="round" stroke-linejoin="round"/>
<path d="M5.50614 45.8674C4.38478 44.0014 3.65852 41.9251 3.37235 39.767C3.08618 37.6089 3.24622 35.415 3.84252 33.3213C4.43881 31.2275 5.45868 29.2785 6.83894 27.595C8.21919 25.9115 9.93042 24.5294 11.8666 23.5342" stroke="#181F23" stroke-linecap="round" stroke-linejoin="round"/>
<path d="M34.6796 32.5031C30.4637 32.4984 26.4219 30.8216 23.4409 27.8406C20.4599 24.8595 18.783 20.8177 18.7783 16.6019V16.2982C18.8246 13.7575 19.4791 11.2649 20.6869 9.0293C21.8948 6.79366 23.6209 4.88009 25.7205 3.44883C27.8202 2.01757 30.2323 1.11032 32.7547 0.803142C35.2771 0.495961 37.8364 0.797764 40.2182 1.68328" stroke="#181F23" stroke-linecap="round" stroke-linejoin="round"/>
<path d="M24.8165 36.8627C18.3309 36.8627 11.7024 33.4681 11.7024 26.9647C11.6943 25.82 11.863 24.681 12.2027 23.5879C12.676 21.9946 13.4833 20.5205 14.5708 19.2636C15.6582 18.0067 17.001 16.9958 18.5096 16.2983" stroke="#181F23" stroke-linecap="round" stroke-linejoin="round"/>
<path d="M54.708 14.4045V84.513" stroke="#181F23" stroke-linecap="round" stroke-linejoin="round"/>
<path d="M59.334 21.1677H60.9896C62.0942 21.1677 62.9896 22.0632 62.9896 23.1677V29.2853C62.9896 30.2556 63.6888 31.0769 64.6298 31.3135C66.8556 31.8733 68.9872 32.7566 70.9565 33.9353C71.7893 34.4337 72.8648 34.3475 73.5511 33.6612L77.8778 29.3344C78.6595 28.5527 79.927 28.5534 80.7078 29.336L83.6552 32.2898C84.4338 33.0701 84.4342 34.3333 83.6562 35.1141L79.3315 39.4547C78.6466 40.1422 78.5624 41.2177 79.0617 42.0498C80.2424 44.0174 81.1258 46.1488 81.6832 48.3747C81.9192 49.3172 82.7411 50.0182 83.7127 50.0182H89.8273C90.9319 50.0182 91.8273 50.9136 91.8273 52.0182V56.1957C91.8273 57.3002 90.9319 58.1957 89.8273 58.1957H83.7768C82.805 58.1957 81.983 58.8969 81.7473 59.8397C81.1899 62.0693 80.3061 64.2045 79.1247 66.1759C78.6258 67.0084 78.7109 68.084 79.3966 68.771L83.7158 73.0982C84.4956 73.8794 84.495 75.1448 83.7145 75.9253L82.2105 77.4293L80.7333 78.9065C79.9523 79.6875 78.686 79.6875 77.9049 78.9065L73.5778 74.5794C72.891 73.8925 71.8144 73.8068 70.9814 74.3064C69.0087 75.4897 66.8727 76.3764 64.642 76.9381C63.7012 77.175 63.0024 77.9962 63.0024 78.9663V85.0843C63.0024 86.1889 62.107 87.0843 61.0024 87.0843H59.334" stroke="white" stroke-linecap="round" stroke-linejoin="round"/>
<path d="M59.334 39.7393C63.1446 39.7393 66.7991 41.253 69.4936 43.9475C72.1881 46.642 73.7019 50.2966 73.7019 54.1072C73.7019 57.9178 72.1881 61.5723 69.4936 64.2668C66.7991 66.9613 63.1446 68.4751 59.334 68.4751" stroke="white" stroke-linecap="round" stroke-linejoin="round"/>
<path d="M59.334 48.0439C60.8605 48.1652 62.2853 48.8572 63.3244 49.9821C64.3635 51.1069 64.9405 52.582 64.9405 54.1134C64.9405 55.6447 64.3635 57.1198 63.3244 58.2447C62.2853 59.3696 60.8605 60.0616 59.334 60.1828" stroke="white" stroke-linecap="round" stroke-linejoin="round"/>
<path d="M66.1094 8.27759L62.1818 10.3112C61.5126 10.6577 61.0949 11.351 61.1015 12.1045L61.18 21.1679" stroke="white" stroke-linecap="round" stroke-linejoin="round"/>
<path d="M70.084 1.70485C70.8977 1.70485 71.6931 1.94617 72.3697 2.39825C73.0463 2.85032 73.5736 3.49288 73.885 4.24466C74.1964 4.99643 74.2779 5.82366 74.1191 6.62174C73.9604 7.41982 73.5685 8.1529 72.9931 8.72828C72.4178 9.30366 71.6847 9.69549 70.8866 9.85424C70.0885 10.013 69.2613 9.93151 68.5095 9.62012C67.7577 9.30872 67.1152 8.7814 66.6631 8.10482C66.211 7.42824 65.9697 6.63279 65.9697 5.81908C65.9681 5.27832 66.0734 4.74255 66.2795 4.24264C66.4857 3.74272 66.7887 3.28852 67.171 2.90615C67.5534 2.52377 68.0076 2.22079 68.5075 2.01462C69.0074 1.80846 69.5432 1.70317 70.084 1.70485Z" fill="white" stroke="white" stroke-linecap="round" stroke-linejoin="round"/>
<path d="M97.3414 26.9507L94.3208 27.2449C93.7472 27.3008 93.2256 27.6014 92.8896 28.0696L89.4566 32.8547C89.081 33.3783 88.476 33.6888 87.8316 33.6888H84.0068" stroke="white" stroke-linecap="round" stroke-linejoin="round"/>
<path d="M101.812 21.6392C102.627 21.6392 103.423 21.8808 104.1 22.3334C104.776 22.7861 105.304 23.4294 105.615 24.1819C105.926 24.9344 106.006 25.7623 105.847 26.5607C105.687 27.3592 105.294 28.0922 104.717 28.6671C104.14 29.2419 103.406 29.6328 102.607 29.7901C101.808 29.9474 100.981 29.8641 100.229 29.5507C99.4777 29.2374 98.836 28.7081 98.3854 28.0298C97.9349 27.3516 97.6957 26.5549 97.6983 25.7407C97.6983 25.201 97.8048 24.6666 98.0117 24.1681C98.2186 23.6697 98.5219 23.217 98.9041 22.836C99.2863 22.4549 99.7399 22.1531 100.239 21.9477C100.738 21.7423 101.273 21.6375 101.812 21.6392Z" fill="white" stroke="white" stroke-linecap="round" stroke-linejoin="round"/>
<path d="M108.423 60.8581L103.81 60.9943C103.185 61.0128 102.588 60.7381 102.195 60.2519L97.5932 54.5542C97.1803 54.043 96.5426 53.7672 95.8874 53.8165L91.8516 54.1199" stroke="white" stroke-linecap="round" stroke-linejoin="round"/>
<path d="M112.386 55.6101C113.199 55.6101 113.994 55.8511 114.67 56.3026C115.346 56.7541 115.874 57.3959 116.186 58.147C116.497 58.898 116.58 59.7246 116.422 60.5223C116.264 61.32 115.874 62.0531 115.299 62.629C114.725 63.2049 113.993 63.5978 113.196 63.7579C112.399 63.9181 111.572 63.8385 110.82 63.529C110.068 63.2196 109.425 62.6942 108.971 62.0193C108.517 61.3444 108.274 60.5502 108.272 59.737C108.27 59.1957 108.375 58.6593 108.581 58.1587C108.787 57.6581 109.09 57.203 109.472 56.8196C109.854 56.4363 110.308 56.1321 110.808 55.9245C111.308 55.7169 111.844 55.6101 112.386 55.6101Z" fill="white" stroke="white" stroke-linecap="round" stroke-linejoin="round"/>
<path d="M82.208 77.4038L82.2752 87.7281C82.2807 88.5783 82.8232 89.3321 83.6277 89.6074L89.0226 91.4533" stroke="white" stroke-linecap="round" stroke-linejoin="round"/>
<path d="M93.0879 89.6702C93.9011 89.6728 94.6952 89.9162 95.3701 90.3698C96.045 90.8234 96.5704 91.4668 96.8798 92.2188C97.1893 92.9708 97.2689 93.7977 97.1088 94.5949C96.9486 95.3921 96.5557 96.124 95.9798 96.6981C95.404 97.2723 94.6708 97.6628 93.8731 97.8205C93.0754 97.9782 92.2488 97.896 91.4978 97.5843C90.7467 97.2725 90.1049 96.7452 89.6534 96.0689C89.2019 95.3926 88.961 94.5976 88.961 93.7845C88.9593 93.2426 89.0649 92.7058 89.2719 92.2051C89.4788 91.7043 89.783 91.2495 90.1667 90.867C90.5504 90.4844 91.0062 90.1817 91.5076 89.9763C92.009 89.7709 92.5461 89.6669 93.0879 89.6702Z" fill="white"/>
</svg>
