<svg width="93" height="61" viewBox="0 0 93 61" fill="none" xmlns="http://www.w3.org/2000/svg">
<rect x="0.5" y="1.41406" width="91.5" height="58.6538" rx="4" stroke="white" stroke-linecap="round" stroke-linejoin="round"/>
<circle cx="46.5352" cy="19.1351" r="1.52253" fill="white"/>
<path d="M38.3084 24.7282C37.5666 23.6675 37.0473 22.4791 36.7793 21.229" stroke="white" stroke-linecap="round" stroke-linejoin="round"/>
<path d="M44.4396 28.8835C43.4134 28.6611 42.4331 28.2796 41.5336 27.7563C40.6825 27.2611 40.6364 26.108 41.3241 25.4033V25.4033C41.9393 24.7728 42.9266 24.7388 43.7219 25.1175C44.5683 25.5206 45.4974 25.7422 46.4481 25.7601C47.9221 25.7879 49.3629 25.3245 50.5399 24.444" stroke="white" stroke-linecap="round" stroke-linejoin="round"/>
<path d="M40.5326 22.1039C40.1074 21.2558 39.8715 20.3256 39.8412 19.3776C39.8109 18.4295 39.9869 17.4861 40.3571 16.6127C40.7272 15.7393 41.2827 14.9566 41.985 14.3188C42.6874 13.6809 43.52 13.2032 44.4252 12.9185" stroke="white" stroke-linecap="round" stroke-linejoin="round"/>
<path d="M52.0756 22.8012C52.4588 22.2141 52.7419 21.5714 52.9172 20.8995C53.1481 20.0142 53.8689 19.2605 54.7838 19.2605V19.2605C55.6981 19.2605 56.4536 20.0068 56.3008 20.9083C56.0621 22.316 55.5189 23.6613 54.7016 24.8464C53.5697 26.4876 51.966 27.7433 50.1045 28.4459" stroke="white" stroke-linecap="round" stroke-linejoin="round"/>
<path d="M52.5066 16.6749C52.03 15.4382 51.2007 14.3768 50.1265 13.6288C49.5235 13.2089 48.8591 12.8986 48.1623 12.7072C47.2575 12.4587 46.4837 13.2413 46.4837 14.1796V14.1796C46.4837 15.1174 47.2969 15.8443 48.0971 16.3334C48.2499 16.4268 48.3955 16.5338 48.5322 16.6537C49.1027 17.1543 49.4794 17.847 49.5944 18.6068C49.7093 19.3666 49.555 20.1434 49.1592 20.797C48.7634 21.4506 48.1522 21.9378 47.436 22.1708C46.7198 22.4037 45.9458 22.367 45.2538 22.0672C44.5618 21.7675 43.9973 21.2245 43.6623 20.5362C43.3273 19.848 43.2439 19.0599 43.4271 18.3142C43.6103 17.5686 44.048 16.9145 44.6613 16.4701" stroke="white" stroke-linecap="round" stroke-linejoin="round"/>
<path d="M52.2861 11.1687C54.0532 12.4136 55.356 14.1783 55.9996 16.1988" stroke="white" stroke-linecap="round" stroke-linejoin="round"/>
<path d="M36.5605 19.2607C36.5614 17.6468 36.9463 16.0568 37.6827 14.6248C38.419 13.1928 39.4854 11.9606 40.7917 11.0323C42.0981 10.104 43.6062 9.50678 45.1888 9.2909C46.7715 9.07503 48.3823 9.24687 49.8855 9.79195" stroke="white" stroke-linecap="round" stroke-linejoin="round"/>
<path d="M11.0566 36.0203H82.0278" stroke="white" stroke-width="2" stroke-linecap="round" stroke-linejoin="round"/>
<path d="M11.0566 41.2988H82.0278" stroke="white" stroke-width="2" stroke-linecap="round" stroke-linejoin="round"/>
<path d="M11.0566 46.5781H82.0278" stroke="white" stroke-width="2" stroke-linecap="round" stroke-linejoin="round"/>
<path d="M11.0566 52.4434H82.0278" stroke="white" stroke-width="2" stroke-linecap="round" stroke-linejoin="round"/>
</svg>
