<svg width="93" height="61" viewBox="0 0 93 61" fill="none" xmlns="http://www.w3.org/2000/svg">
<rect x="0.5" y="1.33105" width="91.1934" height="58.4573" rx="4" stroke="white" stroke-linecap="round" stroke-linejoin="round"/>
<path d="M22.9253 6.6106H9.87109V19.2934H22.9253V6.6106Z" fill="#181F23"/>
<path d="M22.9243 19.8972H9.8701C9.71004 19.8972 9.55653 19.8336 9.44335 19.7204C9.33017 19.6072 9.2666 19.4537 9.2666 19.2937V6.61084C9.2666 6.45078 9.33017 6.29727 9.44335 6.18409C9.55653 6.07091 9.71004 6.00732 9.8701 6.00732H22.9243C23.0844 6.00732 23.2379 6.07091 23.3511 6.18409C23.4642 6.29727 23.5278 6.45078 23.5278 6.61084V19.2937C23.5278 19.4537 23.4642 19.6072 23.3511 19.7204C23.2379 19.8336 23.0844 19.8972 22.9243 19.8972ZM10.4736 18.6902H22.3208V7.21433H10.4736V18.6902Z" fill="white"/>
<path d="M22.9263 42.3843H9.87207V55.0671H22.9263V42.3843Z" fill="#181F23"/>
<path d="M22.9243 55.6799H9.8701C9.71004 55.6799 9.55653 55.6163 9.44335 55.5031C9.33017 55.3899 9.2666 55.2365 9.2666 55.0764V42.3843C9.2666 42.2242 9.33017 42.0707 9.44335 41.9575C9.55653 41.8443 9.71004 41.7808 9.8701 41.7808H22.9243C23.0844 41.7808 23.2379 41.8443 23.3511 41.9575C23.4642 42.0707 23.5278 42.2242 23.5278 42.3843V55.0764C23.5278 55.2365 23.4642 55.3899 23.3511 55.5031C23.2379 55.6163 23.0844 55.6799 22.9243 55.6799ZM10.4736 54.4729H22.3208V42.9878H10.4736V54.4729Z" fill="white"/>
<path d="M82.1504 6.61035H69.1055V19.2932H82.1504V6.61035Z" fill="#181F23"/>
<path d="M82.1509 19.8969H69.1524C68.9923 19.8969 68.8388 19.8333 68.7256 19.7202C68.6125 19.607 68.5488 19.4535 68.5488 19.2934V6.61059C68.5488 6.45053 68.6125 6.29702 68.7256 6.18384C68.8388 6.07067 68.9923 6.00708 69.1524 6.00708H82.1509C82.3109 6.00708 82.4644 6.07067 82.5776 6.18384C82.6908 6.29702 82.7544 6.45053 82.7544 6.61059V19.2934C82.7544 19.4535 82.6908 19.607 82.5776 19.7202C82.4644 19.8333 82.3109 19.8969 82.1509 19.8969ZM69.7094 18.6899H81.5473V7.21409H69.7094V18.6899Z" fill="white"/>
<path d="M82.1504 42.3848H69.1055V55.0676H82.1504V42.3848Z" fill="#181F23"/>
<path d="M82.1509 55.6799H69.1524C68.9923 55.6799 68.8388 55.6163 68.7256 55.5031C68.6125 55.3899 68.5488 55.2365 68.5488 55.0764V42.3843C68.5488 42.2242 68.6125 42.0707 68.7256 41.9575C68.8388 41.8443 68.9923 41.7808 69.1524 41.7808H82.1509C82.3109 41.7808 82.4644 41.8443 82.5776 41.9575C82.6908 42.0707 82.7544 42.2242 82.7544 42.3843V55.0764C82.7544 55.2365 82.6908 55.3899 82.5776 55.5031C82.4644 55.6163 82.3109 55.6799 82.1509 55.6799ZM69.7094 54.4729H81.5473V42.9878H69.7094V54.4729Z" fill="white"/>
<path d="M58.4962 19.8596H33.5205V41.8178H58.4962V19.8596Z" fill="white"/>
<path d="M58.5046 42.4213H33.5195C33.3595 42.4213 33.206 42.3577 33.0928 42.2445C32.9796 42.1314 32.916 41.9779 32.916 41.8178V19.8596C32.916 19.7803 32.9316 19.7019 32.962 19.6287C32.9923 19.5554 33.0368 19.4889 33.0928 19.4329C33.1489 19.3768 33.2154 19.3324 33.2886 19.302C33.3618 19.2717 33.4403 19.2561 33.5195 19.2561H58.5046C58.6639 19.2585 58.816 19.3229 58.9286 19.4355C59.0413 19.5482 59.1056 19.7003 59.108 19.8596V41.8178C59.1056 41.9771 59.0413 42.1292 58.9286 42.2419C58.816 42.3546 58.6639 42.4189 58.5046 42.4213ZM34.1231 41.2143H57.901V20.4631H34.1231V41.2143Z" fill="white"/>
<path d="M33.5198 24.0567H16.4082C16.2481 24.0567 16.0946 23.9931 15.9814 23.88C15.8683 23.7668 15.8047 23.6133 15.8047 23.4532V19.2844C15.8047 19.1243 15.8683 18.9708 15.9814 18.8577C16.0946 18.7445 16.2481 18.6809 16.4082 18.6809C16.5682 18.6809 16.7218 18.7445 16.8349 18.8577C16.9481 18.9708 17.0117 19.1243 17.0117 19.2844V22.8497H33.5198C33.6798 22.8497 33.8333 22.9133 33.9465 23.0265C34.0597 23.1397 34.1233 23.2932 34.1233 23.4532C34.1233 23.6133 34.0597 23.7668 33.9465 23.88C33.8333 23.9931 33.6798 24.0567 33.5198 24.0567Z" fill="white"/>
<path d="M16.4082 42.9878C16.2481 42.9878 16.0946 42.9242 15.9814 42.811C15.8683 42.6978 15.8047 42.5443 15.8047 42.3843V37.7419C15.8047 37.5819 15.8683 37.4284 15.9814 37.3152C16.0946 37.202 16.2481 37.1384 16.4082 37.1384H33.5198C33.6798 37.1384 33.8333 37.202 33.9465 37.3152C34.0597 37.4284 34.1233 37.5819 34.1233 37.7419C34.1233 37.902 34.0597 38.0555 33.9465 38.1687C33.8333 38.2818 33.6798 38.3454 33.5198 38.3454H17.0117V42.375C17.0129 42.455 16.9982 42.5345 16.9684 42.6088C16.9387 42.6831 16.8944 42.7507 16.8382 42.8077C16.7821 42.8648 16.7151 42.91 16.6413 42.941C16.5675 42.9719 16.4882 42.9878 16.4082 42.9878Z" fill="white"/>
<path d="M75.6517 23.7784H58.5029C58.3429 23.7784 58.1893 23.7148 58.0762 23.6017C57.963 23.4885 57.8994 23.335 57.8994 23.1749C57.8994 23.0149 57.963 22.8614 58.0762 22.7482C58.1893 22.635 58.3429 22.5714 58.5029 22.5714H75.0203V19.2939C75.0203 19.1339 75.0839 18.9804 75.1971 18.8672C75.3102 18.754 75.4637 18.6904 75.6238 18.6904C75.7838 18.6904 75.9374 18.754 76.0506 18.8672C76.1637 18.9804 76.2273 19.1339 76.2273 19.2939V23.1749C76.2252 23.3296 76.1647 23.4778 76.058 23.5897C75.9512 23.7016 75.8061 23.7691 75.6517 23.7784Z" fill="white"/>
<path d="M75.6517 42.9877C75.4916 42.9877 75.3381 42.9241 75.2249 42.8109C75.1118 42.6977 75.0481 42.5442 75.0481 42.3842V38.4475H58.5029C58.3429 38.4475 58.1893 38.3839 58.0762 38.2707C57.963 38.1575 57.8994 38.004 57.8994 37.844C57.8994 37.6839 57.963 37.5304 58.0762 37.4172C58.1893 37.3041 58.3429 37.2405 58.5029 37.2405H75.6517C75.8117 37.2405 75.9652 37.3041 76.0784 37.4172C76.1916 37.5304 76.2552 37.6839 76.2552 37.844V42.3842C76.2552 42.5442 76.1916 42.6977 76.0784 42.8109C75.9652 42.9241 75.8117 42.9877 75.6517 42.9877Z" fill="white"/>
<path d="M40.421 23.1282C40.9282 23.1282 41.424 23.2787 41.8456 23.5607C42.2673 23.8427 42.5957 24.2435 42.7894 24.7123C42.983 25.181 43.0333 25.6968 42.9336 26.1941C42.834 26.6915 42.589 27.148 42.2297 27.506C41.8704 27.8641 41.4129 28.1074 40.9152 28.2052C40.4175 28.303 39.902 28.251 39.4339 28.0556C38.9658 27.8602 38.5663 27.5303 38.2858 27.1077C38.0054 26.685 37.8566 26.1887 37.8584 25.6815C37.8584 25.3454 37.9248 25.0126 38.0537 24.7022C38.1826 24.3918 38.3715 24.11 38.6096 23.8727C38.8476 23.6355 39.1302 23.4476 39.4411 23.3199C39.7519 23.1921 40.0849 23.127 40.421 23.1282Z" fill="#181F23"/>
<path d="M40.4204 28.8473C39.7939 28.8491 39.1808 28.665 38.6589 28.3182C38.1371 27.9714 37.7298 27.4776 37.4888 26.8992C37.2477 26.3209 37.1837 25.684 37.3048 25.0692C37.4259 24.4545 37.7267 23.8895 38.1691 23.4458C38.6116 23.002 39.1756 22.6996 39.7901 22.5767C40.4045 22.4537 41.0416 22.5159 41.6206 22.7553C42.1997 22.9946 42.6947 23.4004 43.043 23.9213C43.3913 24.4421 43.5772 25.0546 43.5772 25.6812C43.5772 26.5193 43.2449 27.3232 42.6532 27.9167C42.0615 28.5101 41.2585 28.8448 40.4204 28.8473ZM40.4204 23.7314C40.0322 23.7296 39.6522 23.8432 39.3286 24.0577C39.005 24.2723 38.7524 24.5781 38.603 24.9365C38.4536 25.2948 38.414 25.6895 38.4893 26.0704C38.5646 26.4513 38.7514 26.8012 39.0259 27.0757C39.3005 27.3503 39.6504 27.537 40.0313 27.6123C40.4122 27.6876 40.8068 27.648 41.1652 27.4986C41.5235 27.3492 41.8294 27.0966 42.0439 26.7731C42.2585 26.4495 42.3721 26.0694 42.3702 25.6812C42.3678 25.1648 42.1616 24.6703 41.7965 24.3052C41.4313 23.9401 40.9368 23.7339 40.4204 23.7314Z" fill="#181F23"/>
<path d="M33.5191 27.0371H30.9287C30.7687 27.0371 30.6151 26.9735 30.5019 26.8603C30.3888 26.7471 30.3252 26.5936 30.3252 26.4336C30.3252 26.2735 30.3888 26.12 30.5019 26.0068C30.6151 25.8937 30.7687 25.8301 30.9287 25.8301H33.5191C33.6792 25.8301 33.8327 25.8937 33.9458 26.0068C34.059 26.12 34.1226 26.2735 34.1226 26.4336C34.1226 26.5936 34.059 26.7471 33.9458 26.8603C33.8327 26.9735 33.6792 27.0371 33.5191 27.0371Z" fill="white"/>
<path d="M33.5191 29.2466H30.9287C30.7687 29.2466 30.6151 29.183 30.5019 29.0698C30.3888 28.9566 30.3252 28.8031 30.3252 28.6431C30.3252 28.483 30.3888 28.3295 30.5019 28.2163C30.6151 28.1031 30.7687 28.0396 30.9287 28.0396H33.5191C33.6792 28.0396 33.8327 28.1031 33.9458 28.2163C34.059 28.3295 34.1226 28.483 34.1226 28.6431C34.1226 28.8031 34.059 28.9566 33.9458 29.0698C33.8327 29.183 33.6792 29.2466 33.5191 29.2466Z" fill="white"/>
<path d="M33.5191 31.4841H30.9287C30.7687 31.4841 30.6151 31.4205 30.5019 31.3073C30.3888 31.1942 30.3252 31.0407 30.3252 30.8806C30.3252 30.7206 30.3888 30.567 30.5019 30.4539C30.6151 30.3407 30.7687 30.2771 30.9287 30.2771H33.5191C33.6792 30.2771 33.8327 30.3407 33.9458 30.4539C34.059 30.567 34.1226 30.7206 34.1226 30.8806C34.1226 31.0407 34.059 31.1942 33.9458 31.3073C33.8327 31.4205 33.6792 31.4841 33.5191 31.4841Z" fill="white"/>
<path d="M33.5191 33.6477H30.9287C30.7687 33.6477 30.6151 33.5841 30.5019 33.4709C30.3888 33.3577 30.3252 33.2042 30.3252 33.0442C30.3252 32.8841 30.3888 32.7306 30.5019 32.6174C30.6151 32.5043 30.7687 32.4407 30.9287 32.4407H33.5191C33.6792 32.4407 33.8327 32.5043 33.9458 32.6174C34.059 32.7306 34.1226 32.8841 34.1226 33.0442C34.1226 33.2042 34.059 33.3577 33.9458 33.4709C33.8327 33.5841 33.6792 33.6477 33.5191 33.6477Z" fill="white"/>
<path d="M33.5191 35.8476H30.9287C30.7687 35.8476 30.6151 35.784 30.5019 35.6709C30.3888 35.5577 30.3252 35.4042 30.3252 35.2441C30.3252 35.0841 30.3888 34.9306 30.5019 34.8174C30.6151 34.7042 30.7687 34.6406 30.9287 34.6406H33.5191C33.6792 34.6406 33.8327 34.7042 33.9458 34.8174C34.059 34.9306 34.1226 35.0841 34.1226 35.2441C34.1226 35.4042 34.059 35.5577 33.9458 35.6709C33.8327 35.784 33.6792 35.8476 33.5191 35.8476Z" fill="white"/>
<path d="M61.1026 27.0371H58.5029C58.3429 27.0371 58.1893 26.9735 58.0762 26.8603C57.963 26.7471 57.8994 26.5936 57.8994 26.4336C57.8994 26.2735 57.963 26.12 58.0762 26.0068C58.1893 25.8937 58.3429 25.8301 58.5029 25.8301H61.1026C61.2627 25.8301 61.4162 25.8937 61.5293 26.0068C61.6425 26.12 61.7061 26.2735 61.7061 26.4336C61.7061 26.5936 61.6425 26.7471 61.5293 26.8603C61.4162 26.9735 61.2627 27.0371 61.1026 27.0371Z" fill="white"/>
<path d="M61.1026 29.2466H58.5029C58.3429 29.2466 58.1893 29.183 58.0762 29.0698C57.963 28.9566 57.8994 28.8031 57.8994 28.6431C57.8994 28.483 57.963 28.3295 58.0762 28.2163C58.1893 28.1031 58.3429 28.0396 58.5029 28.0396H61.1026C61.2627 28.0396 61.4162 28.1031 61.5293 28.2163C61.6425 28.3295 61.7061 28.483 61.7061 28.6431C61.7061 28.8031 61.6425 28.9566 61.5293 29.0698C61.4162 29.183 61.2627 29.2466 61.1026 29.2466Z" fill="white"/>
<path d="M61.1026 31.4841H58.5029C58.3429 31.4841 58.1893 31.4205 58.0762 31.3073C57.963 31.1942 57.8994 31.0407 57.8994 30.8806C57.8994 30.7206 57.963 30.567 58.0762 30.4539C58.1893 30.3407 58.3429 30.2771 58.5029 30.2771H61.1026C61.2627 30.2771 61.4162 30.3407 61.5293 30.4539C61.6425 30.567 61.7061 30.7206 61.7061 30.8806C61.7061 31.0407 61.6425 31.1942 61.5293 31.3073C61.4162 31.4205 61.2627 31.4841 61.1026 31.4841Z" fill="white"/>
<path d="M61.1026 33.6477H58.5029C58.3429 33.6477 58.1893 33.5841 58.0762 33.4709C57.963 33.3577 57.8994 33.2042 57.8994 33.0442C57.8994 32.8841 57.963 32.7306 58.0762 32.6174C58.1893 32.5043 58.3429 32.4407 58.5029 32.4407H61.1026C61.2627 32.4407 61.4162 32.5043 61.5293 32.6174C61.6425 32.7306 61.7061 32.8841 61.7061 33.0442C61.7061 33.2042 61.6425 33.3577 61.5293 33.4709C61.4162 33.5841 61.2627 33.6477 61.1026 33.6477Z" fill="white"/>
<path d="M61.1026 35.8476H58.5029C58.3429 35.8476 58.1893 35.784 58.0762 35.6709C57.963 35.5577 57.8994 35.4042 57.8994 35.2441C57.8994 35.0841 57.963 34.9306 58.0762 34.8174C58.1893 34.7042 58.3429 34.6406 58.5029 34.6406H61.1026C61.2627 34.6406 61.4162 34.7042 61.5293 34.8174C61.6425 34.9306 61.7061 35.0841 61.7061 35.2441C61.7061 35.4042 61.6425 35.5577 61.5293 35.6709C61.4162 35.784 61.2627 35.8476 61.1026 35.8476Z" fill="white"/>
<path d="M19.7313 10.1299H13.0742C12.9141 10.1299 12.7606 10.0663 12.6475 9.95309C12.5343 9.83992 12.4707 9.68642 12.4707 9.52636C12.4707 9.3663 12.5343 9.2128 12.6475 9.09962C12.7606 8.98644 12.9141 8.92285 13.0742 8.92285H19.7313C19.8913 8.92285 20.0448 8.98644 20.158 9.09962C20.2712 9.2128 20.3348 9.3663 20.3348 9.52636C20.3348 9.68642 20.2712 9.83992 20.158 9.95309C20.0448 10.0663 19.8913 10.1299 19.7313 10.1299Z" fill="white"/>
<path d="M19.7313 13.5556H13.0742C12.9141 13.5556 12.7606 13.4921 12.6475 13.3789C12.5343 13.2657 12.4707 13.1122 12.4707 12.9521C12.4707 12.7921 12.5343 12.6386 12.6475 12.5254C12.7606 12.4122 12.9141 12.3486 13.0742 12.3486H19.7313C19.8913 12.3486 20.0448 12.4122 20.158 12.5254C20.2712 12.6386 20.3348 12.7921 20.3348 12.9521C20.3348 13.1122 20.2712 13.2657 20.158 13.3789C20.0448 13.4921 19.8913 13.5556 19.7313 13.5556Z" fill="white"/>
<path d="M19.731 16.9817H18.3847C18.2247 16.9817 18.0712 16.9181 17.958 16.8049C17.8448 16.6917 17.7812 16.5382 17.7812 16.3782C17.7812 16.2181 17.8448 16.0646 17.958 15.9514C18.0712 15.8382 18.2247 15.7747 18.3847 15.7747H19.731C19.8911 15.7747 20.0446 15.8382 20.1578 15.9514C20.2709 16.0646 20.3345 16.2181 20.3345 16.3782C20.3345 16.5382 20.2709 16.6917 20.1578 16.8049C20.0446 16.9181 19.8911 16.9817 19.731 16.9817Z" fill="white"/>
<path d="M15.8782 16.9817H13.0928C12.9327 16.9817 12.7792 16.9181 12.666 16.8049C12.5528 16.6917 12.4893 16.5382 12.4893 16.3782C12.4893 16.2181 12.5528 16.0646 12.666 15.9514C12.7792 15.8382 12.9327 15.7747 13.0928 15.7747H15.8782C16.0382 15.7747 16.1917 15.8382 16.3049 15.9514C16.4181 16.0646 16.4816 16.2181 16.4816 16.3782C16.4816 16.5382 16.4181 16.6917 16.3049 16.8049C16.1917 16.9181 16.0382 16.9817 15.8782 16.9817Z" fill="white"/>
<path d="M19.7303 45.9033H13.0732C12.9132 45.9033 12.7597 45.8397 12.6465 45.7265C12.5333 45.6134 12.4697 45.4599 12.4697 45.2998C12.4697 45.1397 12.5333 44.9862 12.6465 44.8731C12.7597 44.7599 12.9132 44.6963 13.0732 44.6963H19.7303C19.8904 44.6963 20.0439 44.7599 20.157 44.8731C20.2702 44.9862 20.3338 45.1397 20.3338 45.2998C20.3338 45.4599 20.2702 45.6134 20.157 45.7265C20.0439 45.8397 19.8904 45.9033 19.7303 45.9033Z" fill="white"/>
<path d="M19.7303 49.3288H13.0732C12.9132 49.3288 12.7597 49.2652 12.6465 49.1521C12.5333 49.0389 12.4697 48.8854 12.4697 48.7253C12.4697 48.5653 12.5333 48.4118 12.6465 48.2986C12.7597 48.1854 12.9132 48.1218 13.0732 48.1218H19.7303C19.8904 48.1218 20.0439 48.1854 20.157 48.2986C20.2702 48.4118 20.3338 48.5653 20.3338 48.7253C20.3338 48.8854 20.2702 49.0389 20.157 49.1521C20.0439 49.2652 19.8904 49.3288 19.7303 49.3288Z" fill="white"/>
<path d="M19.731 52.7736H18.3847C18.2247 52.7736 18.0712 52.7101 17.958 52.5969C17.8448 52.4837 17.7812 52.3302 17.7812 52.1701C17.7812 52.0101 17.8448 51.8566 17.958 51.7434C18.0712 51.6302 18.2247 51.5667 18.3847 51.5667H19.731C19.8911 51.5667 20.0446 51.6302 20.1578 51.7434C20.2709 51.8566 20.3345 52.0101 20.3345 52.1701C20.3345 52.3302 20.2709 52.4837 20.1578 52.5969C20.0446 52.7101 19.8911 52.7736 19.731 52.7736Z" fill="white"/>
<path d="M15.8782 52.7736H13.0928C12.9327 52.7736 12.7792 52.7101 12.666 52.5969C12.5528 52.4837 12.4893 52.3302 12.4893 52.1701C12.4893 52.0101 12.5528 51.8566 12.666 51.7434C12.7792 51.6302 12.9327 51.5667 13.0928 51.5667H15.8782C16.0382 51.5667 16.1917 51.6302 16.3049 51.7434C16.4181 51.8566 16.4816 52.0101 16.4816 52.1701C16.4816 52.3302 16.4181 52.4837 16.3049 52.5969C16.1917 52.7101 16.0382 52.7736 15.8782 52.7736Z" fill="white"/>
<path d="M78.9677 45.9031H72.292C72.1319 45.9031 71.9785 45.8395 71.8653 45.7263C71.7521 45.6131 71.6885 45.4596 71.6885 45.2996C71.6885 45.1395 71.7521 44.986 71.8653 44.8728C71.9785 44.7596 72.1319 44.696 72.292 44.696H78.9677C79.1277 44.696 79.2812 44.7596 79.3944 44.8728C79.5076 44.986 79.5711 45.1395 79.5711 45.2996C79.5711 45.4596 79.5076 45.6131 79.3944 45.7263C79.2812 45.8395 79.1277 45.9031 78.9677 45.9031Z" fill="white"/>
<path d="M78.9677 49.3288H72.292C72.1319 49.3288 71.9785 49.2652 71.8653 49.1521C71.7521 49.0389 71.6885 48.8854 71.6885 48.7253C71.6885 48.5653 71.7521 48.4118 71.8653 48.2986C71.9785 48.1854 72.1319 48.1218 72.292 48.1218H78.9677C79.1277 48.1218 79.2812 48.1854 79.3944 48.2986C79.5076 48.4118 79.5711 48.5653 79.5711 48.7253C79.5711 48.8854 79.5076 49.0389 79.3944 49.1521C79.2812 49.2652 79.1277 49.3288 78.9677 49.3288Z" fill="white"/>
<path d="M78.9708 52.7736H77.6152C77.4551 52.7736 77.3016 52.7101 77.1885 52.5969C77.0753 52.4837 77.0117 52.3302 77.0117 52.1701C77.0117 52.0101 77.0753 51.8566 77.1885 51.7434C77.3016 51.6302 77.4551 51.5667 77.6152 51.5667H78.9708C79.1308 51.5667 79.2843 51.6302 79.3975 51.7434C79.5107 51.8566 79.5742 52.0101 79.5742 52.1701C79.5742 52.3302 79.5107 52.4837 79.3975 52.5969C79.2843 52.7101 79.1308 52.7736 78.9708 52.7736Z" fill="white"/>
<path d="M75.1144 52.7736H72.3291C72.169 52.7736 72.0155 52.7101 71.9023 52.5969C71.7892 52.4837 71.7256 52.3302 71.7256 52.1701C71.7256 52.0101 71.7892 51.8566 71.9023 51.7434C72.0155 51.6302 72.169 51.5667 72.3291 51.5667H75.1144C75.2745 51.5667 75.428 51.6302 75.5412 51.7434C75.6544 51.8566 75.718 52.0101 75.718 52.1701C75.718 52.3302 75.6544 52.4837 75.5412 52.5969C75.428 52.7101 75.2745 52.7736 75.1144 52.7736Z" fill="white"/>
<path d="M78.9677 10.1299H72.292C72.1319 10.1299 71.9785 10.0663 71.8653 9.95309C71.7521 9.83992 71.6885 9.68642 71.6885 9.52636C71.6885 9.3663 71.7521 9.2128 71.8653 9.09962C71.9785 8.98644 72.1319 8.92285 72.292 8.92285H78.9677C79.1277 8.92285 79.2812 8.98644 79.3944 9.09962C79.5076 9.2128 79.5711 9.3663 79.5711 9.52636C79.5711 9.68642 79.5076 9.83992 79.3944 9.95309C79.2812 10.0663 79.1277 10.1299 78.9677 10.1299Z" fill="white"/>
<path d="M78.9677 13.5556H72.292C72.1319 13.5556 71.9785 13.4921 71.8653 13.3789C71.7521 13.2657 71.6885 13.1122 71.6885 12.9521C71.6885 12.7921 71.7521 12.6386 71.8653 12.5254C71.9785 12.4122 72.1319 12.3486 72.292 12.3486H78.9677C79.1277 12.3486 79.2812 12.4122 79.3944 12.5254C79.5076 12.6386 79.5711 12.7921 79.5711 12.9521C79.5711 13.1122 79.5076 13.2657 79.3944 13.3789C79.2812 13.4921 79.1277 13.5556 78.9677 13.5556Z" fill="white"/>
<path d="M78.9708 16.9817H77.6152C77.4551 16.9817 77.3016 16.9181 77.1885 16.8049C77.0753 16.6917 77.0117 16.5382 77.0117 16.3782C77.0117 16.2181 77.0753 16.0646 77.1885 15.9514C77.3016 15.8382 77.4551 15.7747 77.6152 15.7747H78.9708C79.1308 15.7747 79.2843 15.8382 79.3975 15.9514C79.5107 16.0646 79.5742 16.2181 79.5742 16.3782C79.5742 16.5382 79.5107 16.6917 79.3975 16.8049C79.2843 16.9181 79.1308 16.9817 78.9708 16.9817Z" fill="white"/>
<path d="M75.1144 16.9817H72.3291C72.169 16.9817 72.0155 16.9181 71.9023 16.8049C71.7892 16.6917 71.7256 16.5382 71.7256 16.3782C71.7256 16.2181 71.7892 16.0646 71.9023 15.9514C72.0155 15.8382 72.169 15.7747 72.3291 15.7747H75.1144C75.2745 15.7747 75.428 15.8382 75.5412 15.9514C75.6544 16.0646 75.718 16.2181 75.718 16.3782C75.718 16.5382 75.6544 16.6917 75.5412 16.8049C75.428 16.9181 75.2745 16.9817 75.1144 16.9817Z" fill="white"/>
</svg>
