<svg width="93" height="66" viewBox="0 0 93 66" fill="none" xmlns="http://www.w3.org/2000/svg">
<path d="M87.3301 4.72632H4.7099C2.38484 4.72632 0.5 6.61116 0.5 8.93622V61.004C0.5 63.329 2.38484 65.2139 4.7099 65.2139H87.3301C89.6552 65.2139 91.54 63.329 91.54 61.004V8.93622C91.54 6.61115 89.6552 4.72632 87.3301 4.72632Z" stroke="white" stroke-miterlimit="10" stroke-linecap="round"/>
<path d="M38.8992 38.543H28.248V44.5184H38.8992V38.543Z" fill="white"/>
<path d="M38.8992 45.5979H28.248V51.5734H38.8992V45.5979Z" fill="white"/>
<path d="M50.6326 38.543H39.9814V44.5184H50.6326V38.543Z" fill="white"/>
<path d="M62.3708 31.4839H51.7197V37.4593H62.3708V31.4839Z" fill="white"/>
<path d="M62.3708 24.4255H51.7197V30.401H62.3708V24.4255Z" fill="white"/>
<path d="M52.2197 15.7837V11.8806H61.8708V15.7837H52.2197Z" fill="#181F23" stroke="white"/>
<path d="M40.4814 15.7837V11.8806H50.1326V15.7837H40.4814Z" fill="#181F23" stroke="white"/>
<path d="M50.6326 45.5979H39.9814V51.5734H50.6326V45.5979Z" fill="white"/>
<path d="M50.6326 17.3669H39.9814V23.3424H50.6326V17.3669Z" fill="white"/>
<path d="M50.6326 24.4255H39.9814V30.401H50.6326V24.4255Z" fill="white"/>
<path d="M50.6326 31.4839H39.9814V37.4593H50.6326V31.4839Z" fill="white"/>
<path d="M62.3708 45.5979H51.7197V51.5734H62.3708V45.5979Z" fill="white"/>
<path d="M15.4265 17.3669H4.07129V23.3424H15.4265V17.3669Z" fill="white"/>
<path d="M15.4265 31.4839H4.07129V37.4593H15.4265V31.4839Z" fill="white"/>
<path d="M15.4265 38.543H4.07129V44.5184H15.4265V38.543Z" fill="white"/>
<path d="M15.4265 24.4255H4.07129V30.401H15.4265V24.4255Z" fill="white"/>
<path d="M75.6904 15.7837V11.8806H86.0456V15.7837H75.6904Z" fill="#181F23" stroke="white"/>
<path d="M15.4265 45.5979H4.07129V51.5734H15.4265V45.5979Z" fill="white"/>
<path d="M74.1042 17.3669H63.4531V23.3424H74.1042V17.3669Z" fill="white"/>
<path d="M62.3708 38.543H51.7197V44.5184H62.3708V38.543Z" fill="white"/>
<path d="M74.1042 38.543H63.4531V44.5184H74.1042V38.543Z" fill="white"/>
<path d="M74.1042 24.4255H63.4531V30.401H74.1042V24.4255Z" fill="white"/>
<path d="M74.1042 31.4839H63.4531V37.4593H74.1042V31.4839Z" fill="white"/>
<path d="M74.1042 45.5979H63.4531V51.5734H74.1042V45.5979Z" fill="white"/>
<path d="M62.3708 17.3669H51.7197V23.3424H62.3708V17.3669Z" fill="white"/>
<path d="M86.5456 45.5979H75.1904V51.5734H86.5456V45.5979Z" fill="white"/>
<path d="M63.9531 15.7837V11.8806H73.6042V15.7837H63.9531Z" fill="#181F23" stroke="white"/>
<path d="M86.5456 38.543H75.1904V44.5184H86.5456V38.543Z" fill="white"/>
<path d="M74.1042 52.6562H63.4531V58.9711H74.1042V52.6562Z" fill="white"/>
<path d="M86.5456 31.4839H75.1904V37.4593H86.5456V31.4839Z" fill="white"/>
<path d="M50.6326 52.6562H39.9814V58.9711H50.6326V52.6562Z" fill="white"/>
<path d="M62.3708 52.6562H51.7197V58.9711H62.3708V52.6562Z" fill="white"/>
<path d="M86.5456 24.4255H75.1904V30.401H86.5456V24.4255Z" fill="white"/>
<path d="M86.5456 52.6562H75.1904V58.9711H86.5456V52.6562Z" fill="white"/>
<path d="M15.4265 52.6562H4.07129V58.9711H15.4265V52.6562Z" fill="white"/>
<path d="M86.5456 17.3669H75.1904V23.3424H86.5456V17.3669Z" fill="white"/>
<path d="M4.57129 15.7837V11.8806H14.9265V15.7837H4.57129Z" fill="#181F23" stroke="white"/>
<path d="M17.0088 15.7837V11.8806H26.6599V15.7837H17.0088Z" fill="#181F23" stroke="white"/>
<path d="M27.1599 38.543H16.5088V44.5184H27.1599V38.543Z" fill="white"/>
<path d="M28.748 15.7837V11.8806H38.3992V15.7837H28.748Z" fill="#181F23" stroke="white"/>
<path d="M38.8992 24.4255H28.248V30.401H38.8992V24.4255Z" fill="white"/>
<path d="M27.1599 45.5979H16.5088V51.5734H27.1599V45.5979Z" fill="white"/>
<path d="M38.8992 17.3669H28.248V23.3424H38.8992V17.3669Z" fill="white"/>
<path d="M27.1599 17.3669H16.5088V23.3424H27.1599V17.3669Z" fill="white"/>
<path d="M38.8992 31.4839H28.248V37.4593H38.8992V31.4839Z" fill="white"/>
<path d="M27.1599 31.4839H16.5088V37.4593H27.1599V31.4839Z" fill="white"/>
<path d="M27.1599 52.6562H16.5088V58.9711H27.1599V52.6562Z" fill="white"/>
<path d="M27.1599 24.4255H16.5088V30.401H27.1599V24.4255Z" fill="white"/>
<path d="M38.8992 52.6562H28.248V58.9711H38.8992V52.6562Z" fill="white"/>
<path d="M9.08136 8.0841C9.92883 8.0841 10.6158 7.39709 10.6158 6.54962C10.6158 5.70215 9.92883 5.01514 9.08136 5.01514C8.23389 5.01514 7.54688 5.70215 7.54688 6.54962C7.54688 7.39709 8.23389 8.0841 9.08136 8.0841Z" fill="white"/>
<path d="M15.8135 6.54976C15.8142 6.24524 15.7245 5.94737 15.5558 5.69388C15.387 5.44039 15.1469 5.24269 14.8657 5.12583C14.5845 5.00897 14.2749 4.9782 13.9762 5.03744C13.6775 5.09667 13.4031 5.24323 13.1878 5.45855C12.9725 5.67388 12.8259 5.94827 12.7667 6.24697C12.7075 6.54566 12.7382 6.85522 12.8551 7.13642C12.9719 7.41761 13.1696 7.6578 13.4231 7.82653C13.6766 7.99526 13.9745 8.08495 14.279 8.08424C14.686 8.08424 15.0763 7.92257 15.364 7.6348C15.6518 7.34703 15.8135 6.95673 15.8135 6.54976Z" fill="white"/>
<path d="M9.1118 7.54984C8.89826 7.54984 8.69347 7.46501 8.54247 7.31401C8.39148 7.16302 8.30665 6.95822 8.30665 6.74468V1.29997C8.30617 1.19394 8.32665 1.08885 8.3669 0.990747C8.40715 0.892644 8.46638 0.803458 8.54119 0.72831C8.61601 0.653162 8.70492 0.593531 8.80285 0.552843C8.90077 0.512155 9.00576 0.49121 9.1118 0.491211C9.3263 0.491211 9.53201 0.57642 9.68368 0.728093C9.83536 0.879765 9.92056 1.08548 9.92056 1.29997V6.74468C9.92057 6.85072 9.89962 6.95572 9.85893 7.05364C9.81824 7.15156 9.75861 7.24048 9.68346 7.31529C9.60831 7.39011 9.51913 7.44934 9.42103 7.48959C9.32293 7.52984 9.21784 7.55031 9.1118 7.54984Z" fill="white"/>
<path d="M14.3061 7.54984C14.0926 7.54984 13.8878 7.46501 13.7368 7.31401C13.5858 7.16302 13.501 6.95822 13.501 6.74468V1.29997C13.5005 1.19394 13.521 1.08885 13.5612 0.990747C13.6015 0.892644 13.6607 0.803458 13.7355 0.72831C13.8103 0.653162 13.8993 0.593531 13.9972 0.552843C14.0951 0.512155 14.2001 0.49121 14.3061 0.491211C14.5206 0.491211 14.7263 0.57642 14.878 0.728093C15.0297 0.879765 15.1149 1.08548 15.1149 1.29997V6.74468C15.1149 6.85072 15.094 6.95572 15.0533 7.05364C15.0126 7.15156 14.9529 7.24048 14.8778 7.31529C14.8027 7.39011 14.7135 7.44934 14.6154 7.48959C14.5173 7.52984 14.4122 7.55031 14.3061 7.54984Z" fill="white"/>
<path d="M79.9063 6.54976C79.907 6.24524 79.8173 5.94737 79.6486 5.69388C79.4798 5.44039 79.2396 5.24269 78.9584 5.12583C78.6772 5.00897 78.3677 4.9782 78.069 5.03744C77.7703 5.09667 77.4959 5.24323 77.2806 5.45855C77.0653 5.67388 76.9187 5.94827 76.8595 6.24697C76.8002 6.54566 76.831 6.85522 76.9478 7.13642C77.0647 7.41761 77.2624 7.6578 77.5159 7.82653C77.7694 7.99526 78.0673 8.08495 78.3718 8.08424C78.7788 8.08424 79.169 7.92257 79.4568 7.6348C79.7446 7.34703 79.9063 6.95673 79.9063 6.54976Z" fill="white"/>
<path d="M83.5648 8.0841C84.4122 8.0841 85.0992 7.39709 85.0992 6.54962C85.0992 5.70215 84.4122 5.01514 83.5648 5.01514C82.7173 5.01514 82.0303 5.70215 82.0303 6.54962C82.0303 7.39709 82.7173 8.0841 83.5648 8.0841Z" fill="white"/>
<path d="M78.397 7.54984C78.1834 7.54984 77.9786 7.46501 77.8276 7.31401C77.6766 7.16302 77.5918 6.95822 77.5918 6.74468V1.29997C77.5913 1.19394 77.6118 1.08885 77.6521 0.990747C77.6923 0.892644 77.7515 0.803458 77.8263 0.72831C77.9012 0.653162 77.9901 0.593531 78.088 0.552843C78.1859 0.512155 78.2909 0.49121 78.397 0.491211C78.6114 0.491211 78.8172 0.57642 78.9688 0.728093C79.1205 0.879765 79.2057 1.08548 79.2057 1.29997V6.74468C79.2057 6.85072 79.1848 6.95572 79.1441 7.05364C79.1034 7.15156 79.0438 7.24048 78.9686 7.31529C78.8935 7.39011 78.8043 7.44934 78.7062 7.48959C78.6081 7.52984 78.503 7.55031 78.397 7.54984Z" fill="white"/>
<path d="M83.6428 7.54984C83.5359 7.55175 83.4296 7.53235 83.3303 7.49274C83.2309 7.45314 83.1405 7.39414 83.0642 7.31918C82.9878 7.24422 82.9272 7.15481 82.8859 7.05617C82.8445 6.95753 82.8232 6.85164 82.8232 6.74468V1.29997C82.8232 1.08548 82.9084 0.879765 83.0601 0.728093C83.2118 0.57642 83.4175 0.491211 83.632 0.491211C83.738 0.49121 83.843 0.512155 83.941 0.552843C84.0389 0.593531 84.1278 0.653162 84.2026 0.72831C84.2774 0.803458 84.3367 0.892644 84.3769 0.990747C84.4172 1.08885 84.4376 1.19394 84.4372 1.29997V6.74468C84.4372 6.95636 84.3538 7.15953 84.2052 7.31022C84.0565 7.4609 83.8545 7.54699 83.6428 7.54984Z" fill="white"/>
<path d="M43.7288 8.0841C44.5763 8.0841 45.2633 7.39709 45.2633 6.54962C45.2633 5.70215 44.5763 5.01514 43.7288 5.01514C42.8813 5.01514 42.1943 5.70215 42.1943 6.54962C42.1943 7.39709 42.8813 8.0841 43.7288 8.0841Z" fill="white"/>
<path d="M48.9212 8.0841C49.7687 8.0841 50.4557 7.39709 50.4557 6.54962C50.4557 5.70215 49.7687 5.01514 48.9212 5.01514C48.0737 5.01514 47.3867 5.70215 47.3867 6.54962C47.3867 7.39709 48.0737 8.0841 48.9212 8.0841Z" fill="white"/>
<path d="M43.7554 7.54984C43.5418 7.54984 43.337 7.46501 43.186 7.31401C43.035 7.16302 42.9502 6.95822 42.9502 6.74468V1.29997C42.9497 1.19394 42.9702 1.08885 43.0105 0.990747C43.0507 0.892644 43.1099 0.803458 43.1847 0.72831C43.2596 0.653162 43.3485 0.593531 43.4464 0.552843C43.5443 0.512155 43.6493 0.49121 43.7554 0.491211C43.9699 0.491211 44.1756 0.57642 44.3272 0.728093C44.4789 0.879765 44.5641 1.08548 44.5641 1.29997V6.74468C44.5641 6.85072 44.5432 6.95572 44.5025 7.05364C44.4618 7.15156 44.4022 7.24048 44.327 7.31529C44.2519 7.39011 44.1627 7.44934 44.0646 7.48959C43.9665 7.52984 43.8614 7.55031 43.7554 7.54984Z" fill="white"/>
<path d="M48.9966 7.54984C48.783 7.54984 48.5782 7.46501 48.4272 7.31401C48.2762 7.16302 48.1914 6.95822 48.1914 6.74468V1.29997C48.1909 1.19394 48.2114 1.08885 48.2517 0.990747C48.2919 0.892644 48.3511 0.803458 48.426 0.72831C48.5008 0.653162 48.5897 0.593531 48.6876 0.552843C48.7855 0.512155 48.8905 0.49121 48.9966 0.491211C49.1028 0.491211 49.2079 0.51213 49.3061 0.552774C49.4042 0.593418 49.4933 0.652992 49.5684 0.728093C49.6435 0.803193 49.7031 0.89235 49.7438 0.990474C49.7844 1.0886 49.8053 1.19376 49.8053 1.29997V6.74468C49.8053 6.85072 49.7844 6.95572 49.7437 7.05364C49.703 7.15156 49.6434 7.24048 49.5682 7.31529C49.4931 7.39011 49.4039 7.44934 49.3058 7.48959C49.2077 7.52984 49.1026 7.55031 48.9966 7.54984Z" fill="white"/>
<path d="M11.4428 24.9453L6.07031 29.6824" stroke="#181F23" stroke-linecap="round" stroke-linejoin="round"/>
<path d="M7.72461 24.9453L11.4435 29.3646" stroke="#181F23" stroke-linecap="round" stroke-linejoin="round"/>
<path d="M70.9047 18.208L65.5322 22.9414" stroke="#181F23" stroke-linecap="round" stroke-linejoin="round"/>
<path d="M67.1855 18.208L70.9044 22.6273" stroke="#181F23" stroke-linecap="round" stroke-linejoin="round"/>
<path d="M35.6984 18.208L30.3223 22.9414" stroke="#181F23" stroke-linecap="round" stroke-linejoin="round"/>
<path d="M31.9766 18.208L35.699 22.6273" stroke="#181F23" stroke-linecap="round" stroke-linejoin="round"/>
<path d="M83.1964 18.0745L77.8203 22.8115" stroke="#181F23" stroke-linecap="round" stroke-linejoin="round"/>
<path d="M79.4727 18.0745L83.1951 22.4938" stroke="#181F23" stroke-linecap="round" stroke-linejoin="round"/>
</svg>
