<svg width="93" height="60" viewBox="0 0 93 60" fill="none" xmlns="http://www.w3.org/2000/svg">
<rect x="1.45898" y="1.38647" width="90.0817" height="57.7447" rx="4" stroke="white" stroke-linecap="round" stroke-linejoin="round"/>
<path d="M46.5632 13.5605C49.9155 13.559 53.193 14.5517 55.9811 16.413C58.7691 18.2743 60.9426 20.9207 62.2266 24.0174C63.5105 27.1141 63.8472 30.522 63.1941 33.8101C62.5411 37.0982 60.9276 40.1187 58.5577 42.4897C56.1878 44.8607 53.168 46.4756 49.8802 47.1301C46.5924 47.7847 43.1844 47.4495 40.0871 46.167C36.9898 44.8845 34.3424 42.7123 32.4798 39.925C30.6172 37.1378 29.623 33.8608 29.623 30.5085C29.622 28.2832 30.0595 26.0795 30.9103 24.0234C31.7612 21.9672 33.0088 20.0988 34.582 18.5249C36.1551 16.9511 38.0229 15.7026 40.0787 14.8508C42.1345 13.999 44.3379 13.5605 46.5632 13.5605Z" fill="#181F23"/>
<path d="M46.5643 47.953C43.1116 47.956 39.7356 46.9349 36.8634 45.0188C33.9912 43.1026 31.7519 40.3776 30.4289 37.1885C29.1058 33.9994 28.7584 30.4895 29.4307 27.1028C30.103 23.7162 31.7647 20.6051 34.2055 18.1632C36.6464 15.7212 39.7568 14.0581 43.1431 13.3844C46.5294 12.7106 50.0394 13.0564 53.2292 14.378C56.4189 15.6997 59.1449 17.9378 61.0623 20.8091C62.9797 23.6804 64.0024 27.056 64.0008 30.5087C63.9947 35.132 62.1559 39.5642 58.8874 42.8341C55.619 46.104 51.1875 47.9448 46.5643 47.953ZM46.5643 14.0649C43.3113 14.0619 40.1306 15.0237 37.4244 16.8287C34.7182 18.6337 32.6081 21.2007 31.3612 24.2052C30.1142 27.2096 29.7864 30.5164 30.4191 33.7072C31.0518 36.898 32.6167 39.8294 34.9158 42.1306C37.2149 44.4319 40.1448 45.9995 43.335 46.6353C46.5252 47.271 49.8323 46.9463 52.8379 45.7022C55.8435 44.458 58.4126 42.3504 60.2201 39.6459C62.0277 36.9414 62.9925 33.7616 62.9925 30.5087C62.9884 26.1515 61.2567 21.9737 58.1772 18.8912C55.0976 15.8087 50.9215 14.0731 46.5643 14.0649Z" fill="white"/>
<path d="M46.5636 44.5401C43.7862 44.5417 41.0708 43.7194 38.7609 42.1773C36.451 40.6353 34.6503 38.4427 33.5868 35.8771C32.5232 33.3114 32.2445 30.488 32.786 27.7639C33.3274 25.0398 34.6647 22.5376 36.6286 20.5737C38.5925 18.6098 41.0948 17.2725 43.8188 16.7311C46.5429 16.1896 49.3663 16.4683 51.932 17.5318C54.4976 18.5954 56.6902 20.396 58.2323 22.706C59.7743 25.0159 60.5966 27.7313 60.5951 30.5087C60.591 34.2288 59.1113 37.7953 56.4808 40.4259C53.8503 43.0564 50.2837 44.536 46.5636 44.5401ZM46.5636 17.47C43.986 17.4669 41.4654 18.2284 39.3206 19.658C37.1758 21.0877 35.5032 23.1213 34.5143 25.5016C33.5254 27.882 33.2647 30.5022 33.7651 33.0307C34.2656 35.5593 35.5046 37.8826 37.3256 39.7069C39.1466 41.5311 41.4678 42.7744 43.9954 43.2793C46.5231 43.7842 49.1437 43.5282 51.5258 42.5436C53.9079 41.5589 55.9445 39.8899 57.378 37.7477C58.8115 35.6055 59.5774 33.0862 59.579 30.5087C59.5769 27.0552 58.2057 23.7435 55.766 21.2994C53.3263 18.8553 50.017 17.4782 46.5636 17.47Z" fill="white"/>
<path d="M46.5635 20.2776C48.4018 20.2776 50.3719 19.851 51.5044 21.3247C52.6368 22.7984 54.3277 23.3103 54.8629 24.7841C55.3981 26.2578 56.7322 27.8867 56.0652 29.7327C55.1421 32.3234 56.0652 35.1622 54.2812 36.7834C52.8617 38.102 51.7758 40.2117 49.5342 40.2815C48.619 40.2815 47.7037 40.7935 46.5635 40.7935V20.2776Z" fill="white"/>
<path d="M46.5637 41.298C46.43 41.298 46.3018 41.2449 46.2073 41.1503C46.1127 41.0558 46.0596 40.9275 46.0596 40.7938V20.2779C46.0596 20.1442 46.1127 20.016 46.2073 19.9214C46.3018 19.8269 46.43 19.7738 46.5637 19.7738C46.8973 19.7738 47.2308 19.7738 47.5643 19.7738H48.5804C49.1977 19.7095 49.8213 19.7943 50.399 20.0211C50.9767 20.2478 51.4915 20.6099 51.9002 21.0769C52.3547 21.6097 52.8761 22.0816 53.4515 22.4808C54.2908 23.0063 54.957 23.7669 55.3673 24.6681C55.4992 25.0327 55.6854 25.4438 55.8793 25.8161C56.4688 27.0261 57.1358 28.3912 56.5696 29.9658C56.269 30.939 56.1045 31.9492 56.0809 32.9675C55.9646 34.5731 55.856 36.0701 54.6538 37.2103C54.2959 37.5567 53.9568 37.9217 53.6377 38.304C52.6138 39.4597 51.4658 40.7783 49.581 40.8404C49.1888 40.8687 48.8011 40.9415 48.4253 41.0575C47.8181 41.2195 47.1921 41.3003 46.5637 41.298ZM47.0679 20.7744V40.2509C47.429 40.1977 47.7864 40.1225 48.1383 40.0259C48.5855 39.8933 49.0459 39.8101 49.5112 39.7777C50.9617 39.7312 51.8769 38.6841 52.8465 37.5826C53.1955 37.1871 53.5523 36.807 53.9402 36.4114C54.8477 35.5737 54.9408 34.3094 55.0416 32.8434C55.0727 31.7296 55.258 30.6254 55.5923 29.5624C56.0111 28.399 55.4915 27.3286 54.9407 26.2039C54.7364 25.7971 54.5526 25.3803 54.39 24.9551C54.0338 24.2401 53.4825 23.6405 52.8 23.2254C52.1654 22.7734 51.5941 22.2387 51.1013 21.6353C50.5273 20.8597 49.6741 20.7278 48.5804 20.7278C48.2624 20.7278 47.9289 20.7278 47.6031 20.7278L47.0679 20.7744Z" fill="#181F23"/>
<path d="M50.4592 25.149H50.3351C50.271 25.1327 50.2106 25.1039 50.1576 25.0643C50.1045 25.0247 50.0598 24.975 50.0259 24.9181C49.9921 24.8612 49.9698 24.7982 49.9603 24.7327C49.9508 24.6672 49.9543 24.6004 49.9706 24.5362C49.9677 24.1505 49.8831 23.7699 49.7224 23.4193C49.6969 23.3582 49.6837 23.2926 49.6836 23.2264C49.6835 23.1602 49.6964 23.0946 49.7216 23.0334C49.7468 22.9722 49.7838 22.9165 49.8305 22.8696C49.8772 22.8227 49.9327 22.7855 49.9938 22.76C50.055 22.7345 50.1205 22.7213 50.1867 22.7212C50.2529 22.7211 50.3185 22.734 50.3797 22.7592C50.441 22.7844 50.4966 22.8214 50.5435 22.8681C50.5904 22.9148 50.6277 22.9704 50.6532 23.0315C50.9024 23.5801 51.004 24.1844 50.9479 24.7844C50.9186 24.8909 50.8546 24.9845 50.7661 25.0505C50.6776 25.1166 50.5696 25.1512 50.4592 25.149Z" fill="#181F23"/>
<path d="M48.4177 28.3526C48.3066 28.3531 48.1984 28.3168 48.1101 28.2495C48.0217 28.1822 47.958 28.0875 47.929 27.9803C47.8737 27.3629 47.9834 26.7419 48.247 26.1808C48.2726 26.1167 48.3111 26.0585 48.3601 26.0099C48.4091 25.9612 48.4676 25.9232 48.5319 25.8981C48.5962 25.873 48.665 25.8613 48.7339 25.8639C48.8029 25.8664 48.8706 25.8831 48.9329 25.9129C48.9952 25.9427 49.0507 25.985 49.0959 26.0371C49.1412 26.0893 49.1753 26.1501 49.1961 26.216C49.2168 26.2818 49.2239 26.3512 49.2167 26.4199C49.2096 26.4886 49.1884 26.555 49.1545 26.6152C48.9942 26.9632 48.9096 27.3412 48.9063 27.7244C48.9226 27.7885 48.9261 27.8553 48.9166 27.9208C48.9071 27.9863 48.8848 28.0493 48.8509 28.1062C48.8171 28.1631 48.7724 28.2128 48.7193 28.2524C48.6663 28.292 48.6059 28.3208 48.5418 28.3371C48.5017 28.3499 48.4596 28.3551 48.4177 28.3526Z" fill="#181F23"/>
<path d="M51.6201 30.8191H51.5038C51.4389 30.8036 51.3778 30.7755 51.3238 30.7362C51.2699 30.697 51.2243 30.6474 51.1897 30.5904C51.1551 30.5334 51.1321 30.4701 51.1221 30.4042C51.1121 30.3383 51.1153 30.271 51.1315 30.2064C51.1284 29.8265 51.0465 29.4515 50.891 29.1049C50.863 29.0448 50.8471 28.9798 50.8442 28.9136C50.8413 28.8473 50.8516 28.7812 50.8742 28.7188C50.8969 28.6565 50.9316 28.5993 50.9765 28.5505C51.0213 28.5016 51.0753 28.462 51.1354 28.434C51.1955 28.406 51.2605 28.3901 51.3267 28.3872C51.393 28.3843 51.4591 28.3945 51.5214 28.4172C51.5837 28.4399 51.6409 28.4746 51.6898 28.5194C51.7387 28.5642 51.7783 28.6182 51.8063 28.6783C52.0568 29.2322 52.1609 29.8411 52.1088 30.4468C52.081 30.5547 52.0176 30.6501 51.929 30.7176C51.8403 30.7852 51.7316 30.8209 51.6201 30.8191Z" fill="#181F23"/>
<path d="M49.6994 33.751C49.5862 33.7506 49.4765 33.7121 49.3879 33.6417C49.2993 33.5714 49.2369 33.4733 49.2107 33.3632C49.1619 32.7644 49.2688 32.1632 49.521 31.618C49.5454 31.5543 49.5825 31.4964 49.6299 31.4475C49.6774 31.3986 49.7343 31.3598 49.7971 31.3335C49.86 31.3072 49.9276 31.2939 49.9957 31.2944C50.0638 31.295 50.1311 31.3093 50.1936 31.3366C50.256 31.3639 50.3123 31.4036 50.359 31.4532C50.4057 31.5028 50.4418 31.5614 50.4652 31.6254C50.4886 31.6894 50.4988 31.7575 50.4951 31.8255C50.4915 31.8936 50.4741 31.9602 50.444 32.0213C50.2845 32.3699 50.1974 32.7472 50.1881 33.1305C50.2042 33.1952 50.2074 33.2624 50.1974 33.3284C50.1874 33.3943 50.1645 33.4576 50.1298 33.5146C50.0952 33.5716 50.0496 33.6211 49.9957 33.6604C49.9418 33.6996 49.8806 33.7278 49.8157 33.7433L49.6994 33.751Z" fill="#181F23"/>
<path d="M50.1483 35.8685C50.0145 35.8757 49.8834 35.8295 49.7838 35.74C49.6842 35.6506 49.6241 35.5252 49.6169 35.3915C49.6097 35.2578 49.6559 35.1267 49.7454 35.027C49.8349 34.9274 49.9602 34.8674 50.094 34.8602C50.4572 34.7358 50.7864 34.5287 51.0558 34.2552C51.1563 34.1673 51.2871 34.1222 51.4205 34.1294C51.5538 34.1367 51.679 34.1957 51.7694 34.2939C51.8138 34.3433 51.8481 34.4009 51.8702 34.4635C51.8923 34.5261 51.9018 34.5925 51.8982 34.6588C51.8946 34.7251 51.878 34.79 51.8492 34.8499C51.8204 34.9097 51.7801 34.9633 51.7306 35.0075C51.2993 35.4259 50.7635 35.7205 50.1793 35.8607L50.1483 35.8685Z" fill="#181F23"/>
<path d="M53.6527 31.6799C53.5781 31.6812 53.5042 31.665 53.4368 31.6327C53.3695 31.6003 53.3107 31.5528 53.2649 31.4938C53.2223 31.4425 53.1902 31.3833 53.1707 31.3195C53.1511 31.2558 53.1443 31.1888 53.1508 31.1224C53.1573 31.0561 53.1769 30.9916 53.2085 30.9329C53.2401 30.8741 53.2829 30.8222 53.3347 30.7802C53.5747 30.4822 53.7467 30.1354 53.8389 29.7641C53.878 29.6355 53.9665 29.5277 54.0851 29.4645C54.2036 29.4012 54.3425 29.3876 54.471 29.4267C54.5996 29.4658 54.7074 29.5543 54.7707 29.6729C54.8339 29.7914 54.8475 29.9303 54.8084 30.0588C54.6599 30.6228 54.3718 31.1403 53.9707 31.5636C53.882 31.6391 53.7692 31.6803 53.6527 31.6799Z" fill="#181F23"/>
<path d="M49.66 38.9015C49.5263 38.9087 49.3952 38.8625 49.2955 38.773C49.1959 38.6836 49.1359 38.5582 49.1287 38.4245C49.1215 38.2908 49.1677 38.1597 49.2571 38.0601C49.3466 37.9604 49.472 37.9004 49.6057 37.8932C49.9703 37.7588 50.3031 37.5501 50.583 37.2804C50.6293 37.2326 50.6847 37.1945 50.746 37.1685C50.8073 37.1426 50.8732 37.1292 50.9398 37.1292C51.0064 37.1292 51.0723 37.1426 51.1336 37.1685C51.1949 37.1945 51.2503 37.2326 51.2966 37.2804C51.3895 37.376 51.4414 37.504 51.4414 37.6372C51.4414 37.7705 51.3895 37.8985 51.2966 37.994C50.8639 38.4203 50.3302 38.7299 49.7453 38.8938L49.66 38.9015Z" fill="#181F23"/>
<path d="M46.5654 20.2776C44.7271 20.2776 42.7493 19.851 41.6168 21.3247C40.4844 22.7984 38.8012 23.3103 38.266 24.7841C37.7308 26.2578 36.3889 27.8867 37.056 29.7327C37.9945 32.3234 37.056 35.1622 38.84 36.7834C40.2672 38.102 41.3453 40.2117 43.5947 40.2815C44.51 40.2815 45.4175 40.7935 46.5654 40.7935V20.2776Z" fill="white"/>
<path d="M46.5634 41.2981C45.9429 41.2807 45.3274 41.1816 44.7329 41.0034C44.3571 40.8874 43.9694 40.8145 43.5772 40.7862C41.6923 40.7242 40.5444 39.4133 39.5283 38.2576C39.1792 37.862 38.8457 37.482 38.4967 37.1562C37.2944 36.047 37.1858 34.5267 37.0772 32.9211C37.0509 31.8999 36.8839 30.8872 36.5808 29.9116C36.0146 28.3603 36.6816 26.9719 37.2789 25.7619C37.4728 25.3586 37.659 24.9863 37.7908 24.6139C38.2033 23.7121 38.8689 22.9496 39.7067 22.4189C40.2696 22.0243 40.7758 21.5545 41.2114 21.0227C41.6217 20.5534 42.1391 20.19 42.7197 19.9632C43.3003 19.7363 43.927 19.6528 44.5467 19.7196H45.5706C45.9041 19.7196 46.2376 19.7196 46.5634 19.7196C46.6971 19.7196 46.8253 19.7727 46.9199 19.8673C47.0144 19.9618 47.0676 20.0901 47.0676 20.2238V40.7397C47.0752 40.8103 47.0679 40.8817 47.046 40.9493C47.0241 41.0169 46.9882 41.0791 46.9406 41.1318C46.893 41.1846 46.8347 41.2266 46.7697 41.2553C46.7047 41.284 46.6344 41.2985 46.5634 41.2981ZM44.5467 20.728C43.2436 20.728 42.5145 20.9917 42.0181 21.6355C41.5231 22.2255 40.9519 22.7472 40.3194 23.1868C39.6514 23.6111 39.1144 24.2126 38.7681 24.9242C38.6077 25.3515 38.4212 25.7685 38.2097 26.173C37.659 27.3054 37.1393 28.3681 37.5581 29.5315C37.8998 30.5954 38.0853 31.7032 38.1088 32.8203C38.2174 34.2863 38.3028 35.5428 39.2103 36.3805C39.5981 36.7451 39.9859 37.1562 40.3194 37.5595C41.2812 38.6609 42.1965 39.7003 43.6392 39.7468C44.1047 39.7777 44.5652 39.861 45.0121 39.9951C45.3668 40.0909 45.7268 40.166 46.0903 40.22V20.7745H45.5551C45.1983 20.7357 44.8647 20.728 44.5467 20.728Z" fill="#181F23"/>
<path d="M42.6627 25.1492C42.5503 25.1506 42.4407 25.1138 42.3519 25.0447C42.2631 24.9757 42.2005 24.8785 42.1741 24.7692C42.1171 24.1625 42.2242 23.5517 42.4844 23.0007C42.5402 22.8795 42.6412 22.7849 42.7659 22.7371C42.8905 22.6893 43.0288 22.692 43.1514 22.7447C43.2726 22.8005 43.3668 22.902 43.4133 23.027C43.4598 23.152 43.4549 23.2904 43.3996 23.4118C43.24 23.76 43.1554 24.1379 43.1514 24.521C43.1677 24.5851 43.1712 24.6519 43.1617 24.7174C43.1522 24.7829 43.1299 24.846 43.096 24.9029C43.0622 24.9598 43.0175 25.0094 42.9644 25.049C42.9114 25.0887 42.851 25.1174 42.7868 25.1337L42.6627 25.1492Z" fill="#181F23"/>
<path d="M44.5318 28.3371C44.4907 28.3442 44.4487 28.3442 44.4077 28.3371C44.3438 28.3217 44.2836 28.2937 44.2306 28.2549C44.1777 28.216 44.1329 28.167 44.099 28.1108C44.0651 28.0545 44.0427 27.992 44.0331 27.927C44.0235 27.862 44.0269 27.7958 44.0431 27.7321C44.0349 27.3379 43.9451 26.9497 43.7794 26.5919C43.7522 26.5313 43.7374 26.4659 43.7355 26.3996C43.7337 26.3332 43.745 26.2672 43.7688 26.2052C43.7926 26.1432 43.8284 26.0865 43.8741 26.0384C43.9199 25.9903 43.9747 25.9517 44.0354 25.9248C44.1582 25.8741 44.2958 25.8724 44.4198 25.92C44.5439 25.9676 44.645 26.0609 44.7024 26.1808C44.9578 26.7417 45.0672 27.358 45.0204 27.9725C44.9899 28.0783 44.9257 28.1712 44.8374 28.237C44.7492 28.3029 44.6418 28.338 44.5318 28.3371Z" fill="#181F23"/>
<path d="M41.5941 30.315C41.4813 30.3133 41.3722 30.2743 41.2839 30.2042C41.1955 30.134 41.1328 30.0367 41.1054 29.9272C41.0543 29.3216 41.1584 28.7129 41.4079 28.1587C41.4652 28.037 41.5682 27.9427 41.6944 27.8962C41.8207 27.8498 41.9602 27.8549 42.0827 27.9105C42.2025 27.9678 42.2954 28.0694 42.3417 28.1939C42.3881 28.3183 42.3842 28.4559 42.3309 28.5776C42.1702 28.9254 42.0856 29.3036 42.0827 29.6868C42.1157 29.8164 42.0957 29.9537 42.0274 30.0686C41.959 30.1836 41.8478 30.2666 41.7182 30.2995L41.5941 30.315Z" fill="#181F23"/>
<path d="M43.4002 33.7512C43.3592 33.7588 43.3171 33.7588 43.2761 33.7512C43.2119 33.7349 43.1516 33.7061 43.0986 33.6665C43.0455 33.6269 43.0008 33.5772 42.9669 33.5203C42.9331 33.4634 42.9108 33.4004 42.9013 33.3349C42.8918 33.2694 42.8953 33.2026 42.9116 33.1384C42.9081 32.7578 42.8235 32.3823 42.6633 32.037C42.6126 31.9142 42.6109 31.7766 42.6585 31.6525C42.7061 31.5284 42.7995 31.4273 42.9193 31.37C43.0429 31.3178 43.182 31.3161 43.3068 31.3654C43.4315 31.4148 43.5319 31.5111 43.5864 31.6337C43.8376 32.1819 43.9419 32.786 43.8889 33.3866C43.8596 33.4931 43.7956 33.5867 43.7071 33.6528C43.6186 33.7188 43.5106 33.7534 43.4002 33.7512Z" fill="#181F23"/>
<path d="M42.9721 35.8688H42.9178C42.3345 35.7219 41.7997 35.425 41.3665 35.0078C41.2736 34.9122 41.2217 34.7842 41.2217 34.651C41.2217 34.5178 41.2736 34.3898 41.3665 34.2942C41.4133 34.2473 41.4689 34.2101 41.5302 34.1847C41.5914 34.1593 41.657 34.1462 41.7233 34.1462C41.7896 34.1462 41.8552 34.1593 41.9164 34.1847C41.9776 34.2101 42.0333 34.2473 42.0801 34.2942C42.3528 34.5521 42.6746 34.7526 43.0264 34.8837C43.0926 34.8873 43.1574 34.9038 43.2173 34.9325C43.2771 34.9611 43.3306 35.0012 43.3749 35.0506C43.4192 35.0999 43.4534 35.1575 43.4754 35.22C43.4975 35.2826 43.507 35.3488 43.5034 35.415C43.4998 35.4812 43.4833 35.5461 43.4546 35.6059C43.426 35.6657 43.3859 35.7193 43.3365 35.7636C43.2872 35.8079 43.2296 35.842 43.1671 35.8641C43.1046 35.8861 43.0383 35.8956 42.9721 35.892V35.8688Z" fill="#181F23"/>
<path d="M40.0251 31.8658C39.9095 31.869 39.7966 31.8305 39.7071 31.7572C39.2962 31.3228 39.0072 30.7877 38.8694 30.2059C38.8455 30.1404 38.8354 30.0706 38.8399 30.0009C38.8444 29.9313 38.8633 29.8633 38.8953 29.8014C38.9274 29.7394 38.972 29.6848 39.0263 29.641C39.0806 29.5971 39.1434 29.5651 39.2107 29.5467C39.2781 29.5284 39.3484 29.5243 39.4174 29.5346C39.4865 29.5449 39.5526 29.5694 39.6116 29.6066C39.6707 29.6437 39.7214 29.6927 39.7605 29.7505C39.7996 29.8083 39.8263 29.8736 39.8389 29.9422C39.93 30.3054 40.0994 30.6442 40.3353 30.935C40.4399 31.0175 40.5076 31.1381 40.5236 31.2703C40.5396 31.4026 40.5026 31.5358 40.4207 31.6409C40.3779 31.7076 40.3196 31.763 40.2507 31.8022C40.1817 31.8414 40.1043 31.8632 40.0251 31.8658Z" fill="#181F23"/>
<path d="M43.4614 38.9015H43.3993C42.8119 38.7396 42.2771 38.4267 41.8481 37.994C41.7545 37.8983 41.7027 37.7694 41.7041 37.6356C41.7056 37.5018 41.7602 37.374 41.8558 37.2804C41.9515 37.1868 42.0804 37.135 42.2142 37.1365C42.348 37.138 42.4758 37.1925 42.5694 37.2882C42.8436 37.5575 43.1713 37.7662 43.5312 37.9009C43.5974 37.9045 43.6623 37.9211 43.7221 37.9497C43.7819 37.9783 43.8355 38.0185 43.8797 38.0678C43.924 38.1171 43.9582 38.1747 43.9802 38.2372C44.0023 38.2998 44.0118 38.366 44.0082 38.4322C44.0047 38.4985 43.9881 38.5633 43.9595 38.6231C43.9308 38.6829 43.8907 38.7365 43.8414 38.7808C43.792 38.8251 43.7344 38.8592 43.6719 38.8813C43.6094 38.9033 43.5431 38.9129 43.4769 38.9093L43.4614 38.9015Z" fill="#181F23"/>
<path d="M51.6926 14.8559C51.5589 14.8559 51.4307 14.8028 51.3361 14.7083C51.2416 14.6137 51.1885 14.4855 51.1885 14.3518V9.06962C51.1885 8.93591 51.2416 8.80766 51.3361 8.71311C51.4307 8.61856 51.5589 8.56543 51.6926 8.56543H62.893C63.0267 8.56543 63.155 8.61856 63.2495 8.71311C63.3441 8.80766 63.3972 8.93591 63.3972 9.06962C63.3972 9.20333 63.3441 9.33155 63.2495 9.4261C63.155 9.52065 63.0267 9.57379 62.893 9.57379H52.1968V14.3518C52.1968 14.4855 52.1437 14.6137 52.0492 14.7083C51.9546 14.8028 51.8264 14.8559 51.6926 14.8559Z" fill="white"/>
<path d="M41.431 14.8559C41.2972 14.8559 41.169 14.8028 41.0745 14.7083C40.9799 14.6137 40.9268 14.4855 40.9268 14.3518V9.57379H30.2151C30.0814 9.57379 29.9531 9.52065 29.8586 9.4261C29.764 9.33155 29.7109 9.20333 29.7109 9.06962C29.7109 8.93591 29.764 8.80766 29.8586 8.71311C29.9531 8.61856 30.0814 8.56543 30.2151 8.56543H41.4155C41.5492 8.56543 41.6774 8.61856 41.772 8.71311C41.8665 8.80766 41.9196 8.93591 41.9196 9.06962V14.3518C41.9197 14.4828 41.8687 14.6088 41.7775 14.7029C41.6863 14.797 41.562 14.8519 41.431 14.8559Z" fill="white"/>
<path d="M62.893 52.4438H51.6926C51.5589 52.4438 51.4307 52.3907 51.3361 52.2962C51.2416 52.2016 51.1885 52.0734 51.1885 51.9396V46.6575C51.1885 46.5238 51.2416 46.3955 51.3361 46.301C51.4307 46.2064 51.5589 46.1533 51.6926 46.1533C51.8264 46.1533 51.9546 46.2064 52.0492 46.301C52.1437 46.3955 52.1968 46.5238 52.1968 46.6575V51.4355H62.893C63.0267 51.4355 63.155 51.4886 63.2495 51.5831C63.3441 51.6777 63.3972 51.8059 63.3972 51.9396C63.3972 52.0734 63.3441 52.2016 63.2495 52.2962C63.155 52.3907 63.0267 52.4438 62.893 52.4438Z" fill="white"/>
<path d="M41.431 52.4438H30.2151C30.0814 52.4438 29.9531 52.3907 29.8586 52.2962C29.764 52.2016 29.7109 52.0734 29.7109 51.9396C29.7109 51.8059 29.764 51.6777 29.8586 51.5831C29.9531 51.4886 30.0814 51.4355 30.2151 51.4355H40.9113V46.6575C40.9113 46.5238 40.9644 46.3955 41.059 46.301C41.1535 46.2064 41.2817 46.1533 41.4155 46.1533C41.5492 46.1533 41.6774 46.2064 41.772 46.301C41.8665 46.3955 41.9196 46.5238 41.9196 46.6575V51.9396C41.9197 52.0707 41.8687 52.1967 41.7775 52.2908C41.6863 52.3849 41.562 52.4398 41.431 52.4438Z" fill="white"/>
<path d="M29.8335 28.2205H21.6194C21.4857 28.2205 21.3575 28.1674 21.2629 28.0728C21.1684 27.9783 21.1152 27.85 21.1152 27.7163C21.1152 27.5826 21.1684 27.4544 21.2629 27.3598C21.3575 27.2653 21.4857 27.2122 21.6194 27.2122H29.8335C29.9672 27.2122 30.0955 27.2653 30.19 27.3598C30.2846 27.4544 30.3377 27.5826 30.3377 27.7163C30.3377 27.85 30.2846 27.9783 30.19 28.0728C30.0955 28.1674 29.9672 28.2205 29.8335 28.2205Z" fill="white"/>
<path d="M71.4928 28.2205H63.2864C63.1527 28.2205 63.0245 28.1674 62.9299 28.0728C62.8354 27.9783 62.7822 27.85 62.7822 27.7163C62.7822 27.5826 62.8354 27.4544 62.9299 27.3598C63.0245 27.2653 63.1527 27.2122 63.2864 27.2122H71.4928C71.6265 27.2122 71.7547 27.2653 71.8493 27.3598C71.9438 27.4544 71.9969 27.5826 71.9969 27.7163C71.9969 27.85 71.9438 27.9783 71.8493 28.0728C71.7547 28.1674 71.6265 28.2205 71.4928 28.2205Z" fill="white"/>
<path d="M30.8738 37.2491H23.2337C23.0999 37.2491 22.9717 37.1959 22.8772 37.1014C22.7826 37.0068 22.7295 36.8786 22.7295 36.7449C22.7295 36.6112 22.7826 36.4829 22.8772 36.3884C22.9717 36.2938 23.0999 36.2407 23.2337 36.2407H30.8815C31.0152 36.2407 31.1435 36.2938 31.238 36.3884C31.3326 36.4829 31.3857 36.6112 31.3857 36.7449C31.3857 36.8786 31.3326 37.0068 31.238 37.1014C31.1435 37.1959 31.0152 37.2491 30.8815 37.2491H30.8738Z" fill="white"/>
<path d="M70.0036 37.2491H62.3479C62.2142 37.2491 62.086 37.1959 61.9914 37.1014C61.8969 37.0068 61.8438 36.8786 61.8438 36.7449C61.8438 36.6112 61.8969 36.4829 61.9914 36.3884C62.086 36.2938 62.2142 36.2407 62.3479 36.2407H70.0036C70.1373 36.2407 70.2655 36.2938 70.3601 36.3884C70.4546 36.4829 70.5077 36.6112 70.5077 36.7449C70.5077 36.8786 70.4546 37.0068 70.3601 37.1014C70.2655 37.1959 70.1373 37.2491 70.0036 37.2491Z" fill="white"/>
<path d="M65.5201 6.43995C66.0423 6.43842 66.5533 6.59199 66.9881 6.88118C67.423 7.17037 67.7622 7.58214 67.9628 8.06434C68.1634 8.54655 68.2162 9.07745 68.1147 9.58974C68.0132 10.102 67.7619 10.5726 67.3926 10.9419C67.0233 11.3112 66.5527 11.5625 66.0404 11.664C65.5281 11.7656 64.9972 11.7127 64.515 11.5121C64.0328 11.3116 63.621 10.9723 63.3318 10.5375C63.0426 10.1026 62.8891 9.59166 62.8906 9.06941C62.8906 8.37204 63.1677 7.70323 63.6608 7.21011C64.1539 6.71699 64.8227 6.43995 65.5201 6.43995Z" fill="white"/>
<path d="M65.5213 12.2113C64.9093 12.2112 64.311 12.0302 63.8017 11.691C63.2923 11.3518 62.8947 10.8695 62.6588 10.3048C62.4228 9.74013 62.3592 9.11831 62.4758 8.51755C62.5924 7.91679 62.8841 7.36393 63.3141 6.92852C63.7441 6.49311 64.2933 6.19458 64.8926 6.07052C65.4919 5.94646 66.1144 6.0024 66.682 6.2313C67.2495 6.46019 67.7367 6.85183 68.0823 7.35692C68.4278 7.86201 68.6162 8.45801 68.6239 9.06993C68.6239 9.8964 68.2983 10.6896 67.7175 11.2776C67.1368 11.8656 66.3477 12.2011 65.5213 12.2113ZM65.5213 6.94464C65.0988 6.94311 64.6853 7.0671 64.3333 7.30089C63.9814 7.53468 63.7068 7.86773 63.5444 8.25781C63.382 8.64788 63.3391 9.0774 63.4211 9.49189C63.5032 9.90638 63.7065 10.2872 64.0053 10.5859C64.304 10.8847 64.6848 11.088 65.0993 11.1701C65.5138 11.2521 65.9433 11.2093 66.3334 11.0469C66.7235 10.8844 67.0565 10.6098 67.2903 10.2579C67.5241 9.90592 67.6481 9.49246 67.6466 9.06993C67.6466 8.50627 67.4226 7.96568 67.0241 7.56711C66.6255 7.16855 66.0849 6.94464 65.5213 6.94464Z" fill="white"/>
<path d="M74.1236 25.0869C74.6436 25.0869 75.152 25.2411 75.5844 25.5301C76.0168 25.819 76.3539 26.2296 76.5529 26.7101C76.7519 27.1906 76.804 27.7193 76.7025 28.2293C76.6011 28.7394 76.3506 29.2079 75.9829 29.5756C75.6151 29.9434 75.1466 30.1938 74.6366 30.2953C74.1265 30.3967 73.5978 30.3447 73.1173 30.1456C72.6369 29.9466 72.2262 29.6096 71.9373 29.1772C71.6484 28.7448 71.4941 28.2364 71.4941 27.7163C71.4941 27.019 71.7712 26.3502 72.2643 25.857C72.7574 25.3639 73.4262 25.0869 74.1236 25.0869Z" fill="white"/>
<path d="M74.1241 30.8424C73.5104 30.8424 72.9106 30.6604 72.4004 30.3195C71.8902 29.9786 71.4925 29.494 71.2577 28.9271C71.0228 28.3602 70.9614 27.7363 71.0811 27.1345C71.2008 26.5327 71.4963 25.9798 71.9302 25.5459C72.3641 25.112 72.917 24.8165 73.5188 24.6968C74.1206 24.5771 74.7445 24.6386 75.3114 24.8734C75.8783 25.1082 76.3629 25.5059 76.7038 26.0161C77.0447 26.5263 77.2267 27.1262 77.2267 27.7398C77.2267 28.5626 76.8998 29.3518 76.3179 29.9337C75.7361 30.5155 74.9469 30.8424 74.1241 30.8424ZM74.1241 25.5913C73.7037 25.5913 73.2928 25.7159 72.9433 25.9494C72.5938 26.1829 72.3214 26.5149 72.1606 26.9032C71.9997 27.2916 71.9576 27.7189 72.0396 28.1311C72.1216 28.5434 72.324 28.9221 72.6213 29.2193C72.9185 29.5165 73.2972 29.7189 73.7094 29.801C74.1217 29.883 74.549 29.8409 74.9374 29.68C75.3257 29.5192 75.6576 29.2468 75.8912 28.8973C76.1247 28.5478 76.2494 28.1369 76.2494 27.7165C76.2432 27.1569 76.0166 26.6223 75.6187 26.2288C75.2208 25.8352 74.6837 25.6145 74.1241 25.6145V25.5913Z" fill="white"/>
<path d="M72.6314 34.0923C73.1515 34.0923 73.6598 34.2465 74.0923 34.5354C74.5247 34.8244 74.8617 35.235 75.0607 35.7155C75.2597 36.196 75.3118 36.7247 75.2103 37.2347C75.1089 37.7448 74.8584 38.2133 74.4907 38.581C74.123 38.9488 73.6544 39.1992 73.1444 39.3007C72.6343 39.4021 72.1056 39.3501 71.6252 39.151C71.1447 38.952 70.734 38.615 70.4451 38.1826C70.1562 37.7502 70.002 37.2418 70.002 36.7217C70.004 36.025 70.2817 35.3574 70.7744 34.8647C71.2671 34.372 71.9347 34.0943 72.6314 34.0923Z" fill="white"/>
<path d="M72.6322 39.8553C72.0202 39.8477 71.4242 39.6592 70.9191 39.3137C70.4141 38.9682 70.0224 38.481 69.7936 37.9134C69.5647 37.3459 69.5087 36.7233 69.6328 36.124C69.7568 35.5248 70.0553 34.9756 70.4908 34.5455C70.9262 34.1155 71.479 33.8238 72.0798 33.7072C72.6805 33.5906 73.3024 33.6543 73.8671 33.8902C74.4317 34.1261 74.914 34.5238 75.2532 35.0331C75.5925 35.5425 75.7735 36.1408 75.7735 36.7527C75.7736 37.1635 75.6921 37.5701 75.5337 37.9491C75.3754 38.3281 75.1434 38.6718 74.8511 38.9604C74.5589 39.249 74.2123 39.4768 73.8314 39.6304C73.4505 39.784 73.0429 39.8605 72.6322 39.8553ZM72.6322 34.5964C72.2122 34.598 71.802 34.7239 71.4535 34.9584C71.1051 35.1928 70.8339 35.5253 70.6742 35.9138C70.5145 36.3022 70.4736 36.7293 70.5564 37.1411C70.6393 37.5528 70.8423 37.9308 71.1399 38.2272C71.4374 38.5237 71.8161 38.7253 72.2281 38.8067C72.6402 38.8881 73.0671 38.8455 73.455 38.6845C73.8429 38.5234 74.1744 38.251 74.4076 37.9016C74.6407 37.5523 74.7652 37.1417 74.7652 36.7217C74.7652 36.442 74.71 36.165 74.6027 35.9066C74.4954 35.6483 74.3381 35.4136 74.14 35.2162C73.9418 35.0187 73.7066 34.8623 73.4479 34.756C73.1891 34.6496 72.9119 34.5954 72.6322 34.5964Z" fill="white"/>
<path d="M65.5201 49.3108C66.0401 49.3108 66.5485 49.465 66.9809 49.7539C67.4133 50.0429 67.7503 50.4535 67.9494 50.934C68.1484 51.4145 68.2004 51.9432 68.099 52.4532C67.9975 52.9633 67.7471 53.4318 67.3794 53.7995C67.0116 54.1673 66.5431 54.4177 66.0331 54.5192C65.523 54.6206 64.9943 54.5686 64.5138 54.3695C64.0334 54.1705 63.6227 53.8335 63.3338 53.4011C63.0448 52.9687 62.8906 52.4603 62.8906 51.9402C62.8906 51.2429 63.1676 50.5741 63.6608 50.0809C64.1539 49.5878 64.8227 49.3108 65.5201 49.3108Z" fill="white"/>
<path d="M65.5215 55.0892C64.9079 55.0892 64.3081 54.9072 63.7978 54.5663C63.2876 54.2254 62.8899 53.7409 62.6551 53.1739C62.4203 52.607 62.3588 51.9832 62.4786 51.3813C62.5983 50.7795 62.8938 50.2267 63.3277 49.7928C63.7616 49.3588 64.3144 49.0634 64.9162 48.9437C65.5181 48.8239 66.1419 48.8854 66.7088 49.1202C67.2758 49.355 67.7603 49.7527 68.1012 50.2629C68.4422 50.7731 68.6241 51.373 68.6241 51.9866C68.6241 52.8095 68.2972 53.5986 67.7154 54.1805C67.1335 54.7623 66.3444 55.0892 65.5215 55.0892ZM65.5215 49.8303C65.1012 49.8303 64.6903 49.955 64.3408 50.1885C63.9913 50.422 63.7189 50.7539 63.558 51.1423C63.3972 51.5306 63.3551 51.9579 63.4371 52.3702C63.5191 52.7825 63.7215 53.1612 64.0187 53.4584C64.316 53.7556 64.6946 53.958 65.1069 54.04C65.5192 54.122 65.9465 54.0799 66.3348 53.9191C66.7232 53.7582 67.0551 53.4858 67.2886 53.1363C67.5222 52.7868 67.6468 52.3759 67.6468 51.9556C67.6489 51.6752 67.5954 51.3972 67.4895 51.1375C67.3836 50.8779 67.2274 50.6418 67.0298 50.4428C66.8323 50.2438 66.5973 50.0858 66.3384 49.978C66.0796 49.8703 65.8019 49.8148 65.5215 49.8148V49.8303Z" fill="white"/>
<path d="M27.5982 49.3105C28.1183 49.3105 28.6266 49.4648 29.0591 49.7537C29.4915 50.0426 29.8285 50.4533 30.0275 50.9338C30.2265 51.4142 30.2786 51.9429 30.1771 52.453C30.0757 52.963 29.8252 53.4316 29.4575 53.7993C29.0898 54.167 28.6212 54.4175 28.1112 54.5189C27.6011 54.6204 27.0724 54.5683 26.592 54.3693C26.1115 54.1703 25.7008 53.8333 25.4119 53.4009C25.123 52.9684 24.9688 52.4601 24.9688 51.94C24.9688 51.2426 25.2458 50.5738 25.7389 50.0807C26.232 49.5876 26.9008 49.3105 27.5982 49.3105Z" fill="white"/>
<path d="M27.5997 55.089C26.986 55.089 26.3862 54.907 25.876 54.5661C25.3657 54.2252 24.9681 53.7406 24.7332 53.1737C24.4984 52.6068 24.437 51.9829 24.5567 51.3811C24.6764 50.7792 24.9719 50.2264 25.4058 49.7925C25.8397 49.3586 26.3925 49.0631 26.9944 48.9434C27.5962 48.8237 28.2201 48.8851 28.787 49.1199C29.3539 49.3548 29.8385 49.7524 30.1794 50.2627C30.5203 50.7729 30.7023 51.3727 30.7023 51.9864C30.7023 52.8092 30.3754 53.5984 29.7935 54.1802C29.2117 54.7621 28.4225 55.089 27.5997 55.089ZM27.5997 49.8301C27.1793 49.8301 26.7684 49.9547 26.4189 50.1882C26.0694 50.4218 25.797 50.7537 25.6362 51.142C25.4753 51.5304 25.4332 51.9577 25.5152 52.37C25.5972 52.7822 25.7997 53.1609 26.0969 53.4581C26.3941 53.7554 26.7728 53.9578 27.1851 54.0398C27.5973 54.1218 28.0246 54.0797 28.413 53.9188C28.8013 53.758 29.1332 53.4856 29.3668 53.1361C29.6003 52.7866 29.7249 52.3757 29.7249 51.9553C29.727 51.6749 29.6735 51.3969 29.5676 51.1373C29.4618 50.8776 29.3055 50.6415 29.108 50.4425C28.9104 50.2435 28.6754 50.0856 28.4166 49.9778C28.1577 49.87 27.8801 49.8146 27.5997 49.8146V49.8301Z" fill="white"/>
<path d="M20.5963 34.092C21.1163 34.092 21.6247 34.2463 22.0571 34.5352C22.4895 34.8241 22.8265 35.2348 23.0255 35.7152C23.2246 36.1957 23.2766 36.7244 23.1752 37.2345C23.0737 37.7445 22.8233 38.2131 22.4556 38.5808C22.0878 38.9485 21.6193 39.199 21.1092 39.3004C20.5992 39.4019 20.0705 39.3498 19.59 39.1508C19.1095 38.9518 18.6989 38.6147 18.4099 38.1823C18.121 37.7499 17.9668 37.2416 17.9668 36.7215C17.9668 36.0241 18.2438 35.3553 18.737 34.8622C19.2301 34.3691 19.8989 34.092 20.5963 34.092Z" fill="white"/>
<path d="M20.5977 39.8553C19.9841 39.8553 19.3842 39.6734 18.874 39.3325C18.3638 38.9915 17.9661 38.507 17.7313 37.9401C17.4965 37.3731 17.435 36.7493 17.5547 36.1475C17.6744 35.5456 17.9699 34.9928 18.4039 34.5589C18.8378 34.125 19.3906 33.8295 19.9924 33.7098C20.5943 33.59 21.2181 33.6515 21.785 33.8863C22.352 34.1212 22.8365 34.5188 23.1774 35.029C23.5183 35.5393 23.7003 36.1391 23.7003 36.7527C23.7003 37.5756 23.3734 38.3647 22.7916 38.9466C22.2097 39.5284 21.4206 39.8553 20.5977 39.8553ZM20.5977 34.5964C20.1774 34.5964 19.7665 34.7211 19.417 34.9546C19.0675 35.1881 18.7951 35.5201 18.6342 35.9084C18.4734 36.2968 18.4313 36.7241 18.5133 37.1363C18.5953 37.5486 18.7977 37.9273 19.0949 38.2245C19.3922 38.5217 19.7708 38.7241 20.1831 38.8062C20.5954 38.8882 21.0227 38.8461 21.411 38.6852C21.7994 38.5244 22.1313 38.2519 22.3648 37.9024C22.5984 37.5529 22.723 37.1421 22.723 36.7217C22.723 36.4426 22.668 36.1663 22.5612 35.9084C22.4544 35.6506 22.2979 35.4163 22.1005 35.2189C21.9032 35.0216 21.6689 34.865 21.411 34.7582C21.1532 34.6514 20.8768 34.5964 20.5977 34.5964Z" fill="white"/>
<path d="M18.9967 25.0869C19.5167 25.0869 20.0251 25.2411 20.4575 25.5301C20.8899 25.819 21.2269 26.2296 21.426 26.7101C21.625 27.1906 21.677 27.7193 21.5756 28.2294C21.4741 28.7394 21.2237 29.2079 20.856 29.5757C20.4882 29.9434 20.0197 30.1938 19.5096 30.2953C18.9996 30.3967 18.4709 30.3447 17.9904 30.1457C17.5099 29.9466 17.0993 29.6096 16.8103 29.1772C16.5214 28.7448 16.3672 28.2364 16.3672 27.7164C16.3662 27.3708 16.4335 27.0284 16.5653 26.7089C16.6971 26.3894 16.8907 26.0992 17.1351 25.8548C17.3794 25.6104 17.6697 25.4168 17.9892 25.285C18.3087 25.1532 18.6511 25.0859 18.9967 25.0869Z" fill="white"/>
<path d="M18.9981 30.8424C18.3845 30.8424 17.7846 30.6604 17.2744 30.3195C16.7642 29.9786 16.3665 29.494 16.1317 28.9271C15.8969 28.3602 15.8354 27.7363 15.9551 27.1345C16.0748 26.5327 16.3703 25.9798 16.8042 25.5459C17.2382 25.112 17.791 24.8165 18.3928 24.6968C18.9947 24.5771 19.6185 24.6386 20.1854 24.8734C20.7523 25.1082 21.2369 25.5059 21.5778 26.0161C21.9187 26.5263 22.1007 27.1262 22.1007 27.7398C22.1007 28.5626 21.7738 29.3518 21.192 29.9337C20.6101 30.5155 19.821 30.8424 18.9981 30.8424ZM18.9981 25.5913C18.5774 25.5897 18.1658 25.7131 17.8153 25.9457C17.4647 26.1782 17.1911 26.5096 17.0291 26.8978C16.867 27.286 16.8238 27.7136 16.905 28.1264C16.9861 28.5392 17.1879 28.9186 17.4848 29.2166C17.7817 29.5146 18.1604 29.7178 18.5729 29.8004C18.9853 29.883 19.4131 29.8414 19.8019 29.6808C20.1907 29.5201 20.523 29.2477 20.7569 28.8981C20.9908 28.5484 21.1156 28.1372 21.1156 27.7165C21.1095 27.1582 20.884 26.6248 20.4877 26.2315C20.0915 25.8381 19.5564 25.6165 18.9981 25.6145V25.5913Z" fill="white"/>
<path d="M27.5982 6.4402C28.1205 6.43866 28.6314 6.59223 29.0663 6.88142C29.5012 7.17061 29.8404 7.58239 30.0409 8.06459C30.2415 8.54679 30.2944 9.0777 30.1929 9.58999C30.0913 10.1023 29.84 10.5729 29.4708 10.9422C29.1015 11.3114 28.6308 11.5628 28.1186 11.6643C27.6063 11.7658 27.0754 11.7129 26.5932 11.5124C26.111 11.3118 25.6992 10.9726 25.41 10.5377C25.1208 10.1028 24.9672 9.5919 24.9688 9.06965C24.9688 8.37228 25.2458 7.70347 25.7389 7.21035C26.232 6.71724 26.9008 6.4402 27.5982 6.4402Z" fill="white"/>
<path d="M27.5994 12.2113C26.9875 12.2112 26.3892 12.0302 25.8798 11.691C25.3705 11.3518 24.9728 10.8695 24.7369 10.3048C24.501 9.74013 24.4373 9.11831 24.5539 8.51755C24.6705 7.91679 24.9622 7.36393 25.3922 6.92852C25.8222 6.49311 26.3714 6.19458 26.9707 6.07052C27.57 5.94646 28.1926 6.0024 28.7601 6.2313C29.3277 6.46019 29.8148 6.85183 30.1604 7.35692C30.5059 7.86201 30.6944 8.45801 30.702 9.06993C30.7021 9.8964 30.3764 10.6896 29.7957 11.2776C29.2149 11.8656 28.4258 12.2011 27.5994 12.2113ZM27.5994 6.94464C27.1769 6.94311 26.7634 7.0671 26.4115 7.30089C26.0595 7.53468 25.7849 7.86773 25.6225 8.25781C25.4601 8.64788 25.4172 9.0774 25.4993 9.49189C25.5813 9.90638 25.7846 10.2872 26.0834 10.5859C26.3822 10.8847 26.763 11.088 27.1774 11.1701C27.5919 11.2521 28.0215 11.2093 28.4115 11.0469C28.8016 10.8844 29.1347 10.6098 29.3684 10.2579C29.6022 9.90592 29.7262 9.49246 29.7247 9.06993C29.7247 8.50627 29.5008 7.96568 29.1022 7.56711C28.7037 7.16855 28.1631 6.94464 27.5994 6.94464Z" fill="white"/>
</svg>
