<svg width="93" height="60" viewBox="0 0 93 60" fill="none" xmlns="http://www.w3.org/2000/svg">
<path d="M46.2488 44.9658C36.6341 44.9658 27.4723 39.9458 20.4461 30.8302C20.3652 30.724 20.3213 30.5941 20.3213 30.4605C20.3213 30.3268 20.3652 30.1969 20.4461 30.0907C27.4723 20.9751 36.6341 15.9551 46.2488 15.9551C55.8636 15.9551 65.0346 20.9751 72.0701 30.0907C72.151 30.1969 72.1949 30.3268 72.1949 30.4605C72.1949 30.5941 72.151 30.724 72.0701 30.8302C65.0346 39.9458 55.9099 44.9658 46.2488 44.9658ZM21.7034 30.4605C28.4523 39.0398 37.161 43.764 46.2674 43.764C55.3737 43.764 64.0824 39.0398 70.8497 30.4605C64.0824 21.8811 55.3737 17.1569 46.2674 17.1569C37.161 17.1569 28.4338 21.8811 21.7034 30.4605Z" fill="white"/>
<path d="M50.2325 44.0686C47.5939 44.463 44.9113 44.463 42.2726 44.0686C39.3367 43.2005 36.7603 41.4062 34.9279 38.9536C33.0956 36.5009 32.1055 33.5215 32.1055 30.4599C32.1055 27.3984 33.0956 24.419 34.9279 21.9663C36.7603 19.5137 39.3367 17.7194 42.2726 16.8513C44.9117 16.463 47.5934 16.463 50.2325 16.8513C53.1736 17.7139 55.7561 19.506 57.5932 21.9593C59.4303 24.4126 60.4232 27.395 60.4232 30.4599C60.4232 33.5249 59.4303 36.5073 57.5932 38.9606C55.7561 41.4139 53.1736 43.206 50.2325 44.0686Z" fill="white"/>
<path d="M46.2483 44.9659C44.8898 44.9644 43.5332 44.8625 42.1898 44.6608C39.122 43.7684 36.4255 41.9068 34.5039 39.3543C32.5823 36.8019 31.5387 33.6958 31.5294 30.5009C31.52 27.3059 32.5454 24.1939 34.452 21.6302C36.3586 19.0665 39.0441 17.189 42.1066 16.2787C44.8304 15.8628 47.6016 15.8628 50.3254 16.2787C53.377 17.1864 56.0544 19.0545 57.9595 21.6053C59.8647 24.1562 60.896 27.2537 60.9002 30.4375C60.9043 33.6213 59.8811 36.7215 57.9826 39.2773C56.0841 41.8331 53.4116 43.7082 50.3623 44.6238C49.0017 44.8422 47.6264 44.9566 46.2483 44.9659ZM46.2483 17.1662C44.9491 17.1659 43.6514 17.2586 42.3654 17.4436C39.5614 18.2873 37.1048 20.0141 35.3616 22.3669C33.6184 24.7197 32.6817 27.5726 32.691 30.5008C32.7004 33.429 33.6553 36.2759 35.4135 38.6175C37.1717 40.9591 39.6393 42.6702 42.4486 43.4959C45.003 43.8564 47.5954 43.8564 50.1497 43.4959C52.9501 42.6497 55.4027 40.9224 57.1429 38.5708C58.8831 36.2192 59.8179 33.3688 59.8086 30.4434C59.7992 27.5179 58.8461 24.6736 57.091 22.3332C55.3358 19.9927 52.8722 18.2811 50.0665 17.4528C48.8022 17.2664 47.5262 17.1706 46.2483 17.1662Z" fill="white"/>
<path d="M47.5902 22.7497C48.7104 22.9497 49.7736 23.3913 50.7058 24.044L53.017 21.742L54.9492 23.665L52.638 25.9762C53.2906 26.9118 53.7322 27.978 53.9323 29.101H57.1865V31.8191H53.9323C53.7322 32.9421 53.2906 34.0083 52.638 34.9439L54.9862 37.2274L53.054 39.1503L50.7427 36.8483C49.8027 37.5133 48.7254 37.9588 47.5902 38.1519V41.4153H44.8629V38.1519C43.7417 37.9609 42.6772 37.5218 41.7474 36.8668L39.4361 39.1688L37.5409 37.2274L39.8522 34.9161C39.1929 33.9832 38.7477 32.9162 38.5486 31.7913H35.2852V29.0733H38.5486C38.7477 27.9484 39.1929 26.8814 39.8522 25.9485L37.5409 23.6372L39.4639 21.7143L41.7751 24.0163C42.7064 23.362 43.77 22.9202 44.8907 22.722V19.4678H47.5902V22.7497Z" fill="#181F23"/>
<path d="M47.589 42.0257H44.8617C44.7023 42.0257 44.5495 41.9624 44.4368 41.8497C44.3241 41.737 44.2608 41.5841 44.2608 41.4248V38.6513C43.3993 38.4459 42.5756 38.1058 41.8201 37.6436L39.8602 39.6035C39.7479 39.7136 39.5968 39.7753 39.4395 39.7753C39.2822 39.7753 39.1312 39.7136 39.0189 39.6035L37.0867 37.6805C37.0308 37.6247 36.9865 37.5584 36.9562 37.4855C36.9259 37.4125 36.9103 37.3343 36.9103 37.2553C36.9103 37.1763 36.9259 37.098 36.9562 37.0251C36.9865 36.9521 37.0308 36.8858 37.0867 36.83L39.0466 34.8701C38.582 34.1114 38.2389 33.2848 38.0297 32.4201H35.2562C35.0968 32.4201 34.944 32.3568 34.8313 32.2441C34.7186 32.1314 34.6553 31.9786 34.6553 31.8192V29.1012C34.6553 28.9418 34.7186 28.789 34.8313 28.6763C34.944 28.5636 35.0968 28.5003 35.2562 28.5003H38.0297C38.2371 27.638 38.5804 26.8141 39.0466 26.0596L37.0867 24.0904C37.0308 24.0346 36.9865 23.9683 36.9562 23.8953C36.9259 23.8224 36.9103 23.7441 36.9103 23.6651C36.9103 23.5861 36.9259 23.5079 36.9562 23.4349C36.9865 23.362 37.0308 23.2957 37.0867 23.2399L39.0189 21.3169C39.1312 21.2068 39.2822 21.1451 39.4395 21.1451C39.5968 21.1451 39.7479 21.2068 39.8602 21.3169L41.8201 23.2769C42.576 22.8133 43.3994 22.4702 44.2608 22.2599V19.4864C44.2608 19.327 44.3241 19.1742 44.4368 19.0615C44.5495 18.9488 44.7023 18.8855 44.8617 18.8855H47.589C47.7476 18.8879 47.8991 18.952 48.0113 19.0641C48.1235 19.1763 48.1876 19.3278 48.1899 19.4864V22.2599C49.0521 22.4678 49.8758 22.8111 50.6306 23.2769L52.5905 21.3169C52.7044 21.2062 52.857 21.1443 53.0158 21.1443C53.1746 21.1443 53.3272 21.2062 53.4411 21.3169L55.3732 23.2399C55.4292 23.2957 55.4735 23.362 55.5038 23.4349C55.534 23.5079 55.5496 23.5861 55.5496 23.6651C55.5496 23.7441 55.534 23.8224 55.5038 23.8953C55.4735 23.9683 55.4292 24.0346 55.3732 24.0904L53.4041 26.0596C53.8686 26.815 54.2118 27.6385 54.421 28.5003H57.1945C57.3539 28.5003 57.5067 28.5636 57.6194 28.6763C57.7321 28.789 57.7954 28.9418 57.7954 29.1012V31.8192C57.7954 31.9786 57.7321 32.1314 57.6194 32.2441C57.5067 32.3568 57.3539 32.4201 57.1945 32.4201H54.421C54.2101 33.2842 53.8671 34.1106 53.4041 34.8701L55.3732 36.83C55.4851 36.9434 55.5481 37.096 55.5489 37.2553C55.5495 37.3343 55.5343 37.4126 55.5041 37.4857C55.4739 37.5587 55.4294 37.625 55.3732 37.6805L53.4411 39.6035C53.3272 39.7142 53.1746 39.7761 53.0158 39.7761C52.857 39.7761 52.7044 39.7142 52.5905 39.6035L50.6306 37.6436C49.8763 38.1081 49.0522 38.4483 48.1899 38.6513V41.4248C48.1876 41.5834 48.1235 41.7349 48.0113 41.847C47.8991 41.9592 47.7476 42.0233 47.589 42.0257ZM45.4627 40.8238H46.988V38.152C46.9863 38.0099 47.0358 37.8719 47.1275 37.7632C47.2191 37.6546 47.3469 37.5825 47.4873 37.5603C48.5221 37.3859 49.5046 36.9815 50.3625 36.377C50.4777 36.2962 50.6176 36.2585 50.7579 36.2703C50.8981 36.2821 51.0298 36.3428 51.1298 36.4417L52.9788 38.2907L54.0605 37.2183L52.2115 35.3693C52.1126 35.2692 52.0519 35.1376 52.0401 34.9973C52.0282 34.8571 52.066 34.7172 52.1468 34.602C52.745 33.7363 53.1515 32.7529 53.3393 31.7175C53.3633 31.5779 53.4359 31.4513 53.5441 31.3599C53.6524 31.2686 53.7894 31.2184 53.931 31.2183H56.5843V29.7021H53.931C53.7894 29.702 53.6524 29.6518 53.5441 29.5605C53.4359 29.4691 53.3633 29.3425 53.3393 29.2029C53.1712 28.1726 52.7868 27.1896 52.2115 26.3185C52.1307 26.2032 52.093 26.0633 52.1048 25.9231C52.1166 25.7828 52.1773 25.6512 52.2762 25.5511L54.1252 23.7021L53.0436 22.6297L51.1946 24.4787C51.0945 24.5776 50.9628 24.6383 50.8226 24.6501C50.6824 24.662 50.5424 24.6242 50.4272 24.5434C49.5682 23.9392 48.5865 23.532 47.552 23.3508C47.4116 23.3286 47.2839 23.2566 47.1922 23.148C47.1005 23.0393 47.051 22.9013 47.0528 22.7591V20.1058H45.5274V22.7591C45.5272 22.9008 45.477 23.0378 45.3857 23.1461C45.2943 23.2544 45.1677 23.3268 45.0281 23.3508C43.9948 23.536 43.0139 23.9429 42.1529 24.5434C42.0377 24.6242 41.8978 24.662 41.7576 24.6501C41.6173 24.6383 41.4857 24.5776 41.3856 24.4787L39.5366 22.6297L38.4642 23.7021L40.3132 25.5511C40.4113 25.6536 40.4712 25.7866 40.483 25.928C40.4948 26.0693 40.4577 26.2104 40.3779 26.3277C39.7652 27.183 39.3543 28.166 39.1761 29.2029C39.1504 29.3417 39.0774 29.4673 38.9695 29.5584C38.8616 29.6494 38.7255 29.7002 38.5844 29.7021H35.9218V31.2183H38.5844C38.7255 31.2202 38.8616 31.271 38.9695 31.3621C39.0774 31.4531 39.1504 31.5787 39.1761 31.7175C39.356 32.7568 39.7667 33.7424 40.3779 34.602C40.4587 34.7172 40.4964 34.8571 40.4846 34.9973C40.4728 35.1376 40.4121 35.2692 40.3132 35.3693L38.4642 37.2183L39.5366 38.2907L41.3856 36.4417C41.4857 36.3428 41.6173 36.2821 41.7576 36.2703C41.8978 36.2585 42.0377 36.2962 42.1529 36.377C43.012 36.9793 43.994 37.3834 45.0281 37.5603C45.1677 37.5843 45.2943 37.6568 45.3857 37.7651C45.477 37.8733 45.5272 38.0104 45.5274 38.152L45.4627 40.8238Z" fill="white"/>
<path d="M46.2494 25.6712C47.1969 25.6693 48.1237 25.9486 48.9125 26.4737C49.7012 26.9988 50.3165 27.7461 50.6803 28.621C51.0442 29.4959 51.1403 30.4591 50.9566 31.3886C50.7729 32.3182 50.3176 33.1724 49.6482 33.843C48.9788 34.5137 48.1255 34.9707 47.1963 35.1563C46.2671 35.3418 45.3037 35.2475 44.4281 34.8853C43.5525 34.5231 42.804 33.9093 42.2774 33.1216C41.7508 32.3339 41.4697 31.4076 41.4697 30.46C41.4697 29.1915 41.973 27.9749 42.8691 27.0771C43.7652 26.1792 44.9809 25.6736 46.2494 25.6712Z" fill="white"/>
<path d="M46.2492 35.85C45.1832 35.85 44.1411 35.5338 43.2548 34.9416C42.3684 34.3494 41.6776 33.5076 41.2696 32.5227C40.8617 31.5379 40.755 30.4542 40.9629 29.4086C41.1709 28.3631 41.6842 27.4027 42.438 26.6489C43.1918 25.8952 44.1522 25.3818 45.1977 25.1739C46.2432 24.9659 47.327 25.0726 48.3118 25.4806C49.2967 25.8885 50.1384 26.5794 50.7307 27.4657C51.3229 28.3521 51.639 29.3941 51.639 30.4601C51.639 31.1679 51.4996 31.8688 51.2287 32.5227C50.9579 33.1766 50.5609 33.7708 50.0604 34.2713C49.5599 34.7718 48.9657 35.1688 48.3118 35.4397C47.6579 35.7105 46.957 35.85 46.2492 35.85ZM46.2492 26.2721C45.4209 26.2721 44.6112 26.5178 43.9225 26.978C43.2338 27.4381 42.697 28.0922 42.38 28.8575C42.063 29.6227 41.9801 30.4648 42.1417 31.2772C42.3033 32.0895 42.7022 32.8358 43.2878 33.4215C43.8735 34.0072 44.6198 34.406 45.4322 34.5676C46.2446 34.7292 47.0866 34.6463 47.8519 34.3293C48.6171 34.0123 49.2712 33.4756 49.7313 32.7869C50.1915 32.0981 50.4372 31.2884 50.4372 30.4601C50.4372 29.3494 49.9959 28.2842 49.2105 27.4988C48.4251 26.7134 47.3599 26.2721 46.2492 26.2721Z" fill="white"/>
<path d="M46.2496 33.0861C45.7303 33.0861 45.2227 32.9321 44.7909 32.6436C44.3591 32.3551 44.0226 31.9451 43.8239 31.4653C43.6252 30.9855 43.5732 30.4576 43.6745 29.9483C43.7758 29.439 44.0258 28.9712 44.393 28.604C44.7602 28.2368 45.2281 27.9867 45.7374 27.8854C46.2467 27.7841 46.7746 27.8361 47.2544 28.0348C47.7341 28.2336 48.1442 28.5701 48.4327 29.0018C48.7212 29.4336 48.8752 29.9412 48.8752 30.4605C48.8752 31.1569 48.5985 31.8247 48.1061 32.3171C47.6137 32.8095 46.9459 33.0861 46.2496 33.0861ZM46.2496 29.0368C45.968 29.0368 45.6927 29.1203 45.4586 29.2768C45.2244 29.4332 45.042 29.6556 44.9342 29.9157C44.8264 30.1759 44.7983 30.4621 44.8532 30.7383C44.9082 31.0145 45.0437 31.2682 45.2429 31.4673C45.442 31.6664 45.6957 31.802 45.9718 31.8569C46.248 31.9118 46.5343 31.8837 46.7944 31.7759C47.0546 31.6681 47.2769 31.4857 47.4333 31.2515C47.5898 31.0174 47.6733 30.7421 47.6733 30.4605C47.6733 30.0829 47.5233 29.7208 47.2563 29.4538C46.9893 29.1868 46.6272 29.0368 46.2496 29.0368Z" fill="#181F23"/>
<path d="M45.8421 17.1566C45.6827 17.1566 45.5299 17.0933 45.4172 16.9806C45.3045 16.8679 45.2412 16.7151 45.2412 16.5557V13.1905C45.2412 13.0311 45.3045 12.8783 45.4172 12.7656C45.5299 12.6529 45.6827 12.5896 45.8421 12.5896H65.4415C65.6008 12.5896 65.7537 12.6529 65.8664 12.7656C65.9791 12.8783 66.0424 13.0311 66.0424 13.1905C66.0424 13.3499 65.9791 13.5027 65.8664 13.6154C65.7537 13.7281 65.6008 13.7914 65.4415 13.7914H46.443V16.5649C46.4406 16.7227 46.3762 16.8732 46.2638 16.9839C46.1513 17.0946 45.9999 17.1566 45.8421 17.1566Z" fill="white"/>
<path d="M62.5394 22.4356C62.38 22.4356 62.2272 22.3723 62.1145 22.2596C62.0018 22.1469 61.9385 21.9941 61.9385 21.8347V18.7376C61.9385 18.5783 62.0018 18.4254 62.1145 18.3127C62.2272 18.2 62.38 18.1367 62.5394 18.1367H75.2235C75.3829 18.1367 75.5357 18.2 75.6484 18.3127C75.7611 18.4254 75.8244 18.5783 75.8244 18.7376C75.8244 18.897 75.7611 19.0499 75.6484 19.1626C75.5357 19.2753 75.3829 19.3386 75.2235 19.3386H63.1403V21.7515C63.1523 21.8371 63.1456 21.9243 63.1208 22.0071C63.0961 22.0899 63.0537 22.1664 62.9966 22.2313C62.9396 22.2962 62.8692 22.3481 62.7903 22.3834C62.7114 22.4186 62.6258 22.4365 62.5394 22.4356Z" fill="white"/>
<path d="M69.6937 28.6576C69.5343 28.6576 69.3815 28.5943 69.2688 28.4816C69.1561 28.3689 69.0928 28.216 69.0928 28.0567V25.0428C69.0928 24.8834 69.1561 24.7306 69.2688 24.6179C69.3815 24.5052 69.5343 24.4419 69.6937 24.4419H77.8108C77.9702 24.4419 78.123 24.5052 78.2357 24.6179C78.3484 24.7306 78.4117 24.8834 78.4117 25.0428C78.4117 25.2022 78.3484 25.355 78.2357 25.4677C78.123 25.5804 77.9702 25.6437 77.8108 25.6437H70.2946V28.0567C70.2946 28.216 70.2313 28.3689 70.1186 28.4816C70.0059 28.5943 69.853 28.6576 69.6937 28.6576Z" fill="white"/>
<path d="M47.0254 48.6913H27.4076C27.2482 48.6913 27.0954 48.628 26.9827 48.5153C26.87 48.4026 26.8066 48.2498 26.8066 48.0904C26.8066 47.931 26.87 47.7782 26.9827 47.6655C27.0954 47.5528 27.2482 47.4895 27.4076 47.4895H46.4245V44.6698C46.4245 44.5104 46.4878 44.3576 46.6005 44.2449C46.7132 44.1322 46.8661 44.0688 47.0254 44.0688C47.1848 44.0688 47.3376 44.1322 47.4503 44.2449C47.563 44.3576 47.6263 44.5104 47.6263 44.6698V48.0904C47.6263 48.2498 47.563 48.4026 47.4503 48.5153C47.3376 48.628 47.1848 48.6913 47.0254 48.6913Z" fill="white"/>
<path d="M30.3212 43.0614H17.6371C17.4777 43.0614 17.3248 42.9981 17.2121 42.8854C17.0994 42.7727 17.0361 42.6199 17.0361 42.4605C17.0361 42.3011 17.0994 42.1483 17.2121 42.0356C17.3248 41.9229 17.4777 41.8596 17.6371 41.8596H29.7202V39.4466C29.7202 39.2872 29.7835 39.1344 29.8962 39.0217C30.0089 38.909 30.1618 38.8457 30.3212 38.8457C30.4805 38.8457 30.6334 38.909 30.7461 39.0217C30.8588 39.1344 30.9221 39.2872 30.9221 39.4466V42.4605C30.9197 42.6191 30.8556 42.7706 30.7435 42.8828C30.6313 42.9949 30.4798 43.059 30.3212 43.0614Z" fill="white"/>
<path d="M23.173 36.7933H15.0374C14.8781 36.7933 14.7252 36.73 14.6125 36.6173C14.4998 36.5047 14.4365 36.3518 14.4365 36.1924C14.4365 36.0331 14.4998 35.8802 14.6125 35.7675C14.7252 35.6548 14.8781 35.5915 15.0374 35.5915H22.5721V33.1786C22.5721 33.0192 22.6354 32.8663 22.7481 32.7536C22.8608 32.6409 23.0136 32.5776 23.173 32.5776C23.3324 32.5776 23.4852 32.6409 23.5979 32.7536C23.7106 32.8663 23.7739 33.0192 23.7739 33.1786V36.1924C23.7739 36.3518 23.7106 36.5047 23.5979 36.6173C23.4852 36.73 23.3324 36.7933 23.173 36.7933Z" fill="white"/>
<path d="M68.4835 10.2605C69.032 10.2605 69.5683 10.4232 70.0244 10.7279C70.4805 11.0327 70.8359 11.4658 71.0459 11.9726C71.2558 12.4794 71.3107 13.0371 71.2037 13.5751C71.0967 14.1131 70.8325 14.6073 70.4446 14.9952C70.0567 15.383 69.5625 15.6472 69.0245 15.7542C68.4865 15.8612 67.9289 15.8063 67.4221 15.5964C66.9153 15.3864 66.4822 15.031 66.1774 14.5749C65.8726 14.1188 65.71 13.5825 65.71 13.034C65.71 12.2984 66.0022 11.593 66.5223 11.0728C67.0425 10.5527 67.7479 10.2605 68.4835 10.2605Z" fill="white"/>
<path d="M68.4842 16.3807C67.8179 16.3843 67.1655 16.1901 66.6097 15.8225C66.0539 15.455 65.6196 14.9307 65.3621 14.3162C65.1045 13.7016 65.0353 13.0244 65.163 12.3704C65.2908 11.7164 65.6098 11.1151 66.0797 10.6426C66.5495 10.1701 67.1492 9.84777 67.8024 9.71642C68.4557 9.58507 69.1333 9.65062 69.7493 9.90477C70.3653 10.1589 70.8919 10.5902 71.2625 11.144C71.6331 11.6978 71.8309 12.3491 71.8309 13.0155C71.8309 13.9048 71.479 14.758 70.8519 15.3885C70.2248 16.0191 69.3735 16.3758 68.4842 16.3807ZM68.4842 10.8337C68.0552 10.83 67.6348 10.954 67.2764 11.1899C66.918 11.4258 66.6379 11.7629 66.4716 12.1584C66.3053 12.5539 66.2603 12.9899 66.3424 13.411C66.4246 13.8321 66.6301 14.2193 66.9328 14.5233C67.2355 14.8274 67.6218 15.0345 68.0426 15.1184C68.4633 15.2024 68.8996 15.1593 69.2958 14.9947C69.692 14.8301 70.0303 14.5514 70.2677 14.1941C70.5051 13.8367 70.6309 13.4168 70.6291 12.9878C70.6218 12.4229 70.3929 11.8835 69.9917 11.4857C69.5905 11.088 69.0492 10.8638 68.4842 10.8614V10.8337Z" fill="white"/>
<path d="M77.9808 16.6206C78.4072 16.6188 78.8246 16.7436 79.18 16.9792C79.5355 17.2147 79.813 17.5505 79.9775 17.9439C80.142 18.3374 80.1859 18.7708 80.1038 19.1893C80.0218 19.6077 79.8174 19.9924 79.5165 20.2946C79.2156 20.5968 78.8318 20.8028 78.4137 20.8867C77.9956 20.9706 77.562 20.9284 77.1678 20.7657C76.7737 20.6029 76.4367 20.3268 76.1996 19.9724C75.9625 19.618 75.8359 19.2012 75.8359 18.7747C75.8359 18.205 76.0616 17.6585 76.4636 17.2548C76.8655 16.8511 77.4111 16.6231 77.9808 16.6206Z" fill="white"/>
<path d="M77.9795 21.5116C77.431 21.5116 76.8948 21.3489 76.4387 21.0442C75.9826 20.7394 75.6271 20.3062 75.4172 19.7995C75.2073 19.2927 75.1523 18.735 75.2593 18.197C75.3664 17.659 75.6305 17.1648 76.0183 16.7769C76.4062 16.3891 76.9004 16.1249 77.4384 16.0179C77.9764 15.9109 78.5341 15.9658 79.0409 16.1757C79.5477 16.3856 79.9808 16.7411 80.2856 17.1972C80.5903 17.6533 80.753 18.1895 80.753 18.7381C80.753 19.4737 80.4608 20.1791 79.9407 20.6992C79.4206 21.2194 78.7151 21.5116 77.9795 21.5116ZM77.9795 17.2127C77.6723 17.2127 77.3721 17.3037 77.1166 17.4744C76.8612 17.6451 76.6621 17.8877 76.5446 18.1715C76.427 18.4553 76.3963 18.7676 76.4562 19.0688C76.5161 19.3701 76.6641 19.6468 76.8813 19.8641C77.0985 20.0813 77.3752 20.2292 77.6765 20.2892C77.9778 20.3491 78.2901 20.3183 78.5739 20.2008C78.8577 20.0832 79.1002 19.8841 79.2709 19.6287C79.4416 19.3733 79.5327 19.073 79.5327 18.7658C79.5302 18.3555 79.3655 17.9628 79.0745 17.6735C78.7835 17.3843 78.3898 17.2219 77.9795 17.2219V17.2127Z" fill="white"/>
<path d="M80.5648 22.8892C80.9912 22.8873 81.4086 23.0121 81.764 23.2477C82.1195 23.4833 82.397 23.8191 82.5615 24.2125C82.7259 24.6059 82.7699 25.0394 82.6878 25.4578C82.6058 25.8763 82.4014 26.261 82.1005 26.5631C81.7996 26.8653 81.4158 27.0714 80.9977 27.1552C80.5796 27.2391 80.146 27.197 79.7518 27.0342C79.3577 26.8715 79.0208 26.5954 78.7836 26.241C78.5465 25.8865 78.4199 25.4697 78.4199 25.0433C78.4223 24.4743 78.6488 23.9292 79.0503 23.526C79.4517 23.1228 79.9958 22.894 80.5648 22.8892Z" fill="white"/>
<path d="M80.5655 27.7887C80.0169 27.7887 79.4807 27.626 79.0246 27.3213C78.5685 27.0165 78.213 26.5833 78.0031 26.0766C77.7932 25.5698 77.7383 25.0121 77.8453 24.4741C77.9523 23.9361 78.2165 23.4419 78.6043 23.054C78.9922 22.6661 79.4864 22.402 80.0244 22.295C80.5624 22.188 81.1201 22.2429 81.6268 22.4528C82.1336 22.6627 82.5668 23.0182 82.8716 23.4743C83.1763 23.9304 83.3389 24.4666 83.3389 25.0152C83.3389 25.7508 83.0468 26.4562 82.5266 26.9763C82.0065 27.4965 81.301 27.7887 80.5655 27.7887ZM80.5655 23.4898C80.2583 23.4898 79.958 23.5808 79.7026 23.7515C79.4472 23.9222 79.2481 24.1648 79.1305 24.4486C79.013 24.7324 78.9822 25.0447 79.0422 25.3459C79.1021 25.6472 79.25 25.9239 79.4672 26.1412C79.6844 26.3584 79.9612 26.5063 80.2624 26.5662C80.5637 26.6262 80.8761 26.5954 81.1599 26.4779C81.4437 26.3603 81.6862 26.1612 81.8569 25.9058C82.0276 25.6504 82.1186 25.3501 82.1186 25.0429C82.1186 24.839 82.0784 24.637 82.0004 24.4486C81.9223 24.2601 81.8079 24.0889 81.6637 23.9447C81.5195 23.8004 81.3483 23.686 81.1599 23.608C80.9714 23.5299 80.7694 23.4898 80.5655 23.4898Z" fill="white"/>
<path d="M25.4007 45.1878C25.8271 45.1859 26.2445 45.3107 26.5999 45.5463C26.9554 45.7819 27.2329 46.1176 27.3974 46.5111C27.5619 46.9045 27.6058 47.3379 27.5238 47.7564C27.4417 48.1749 27.2373 48.5595 26.9364 48.8617C26.6355 49.1639 26.2517 49.37 25.8336 49.4538C25.4155 49.5377 24.9819 49.4956 24.5878 49.3328C24.1936 49.1701 23.8567 48.894 23.6196 48.5395C23.3825 48.1851 23.2559 47.7683 23.2559 47.3419C23.2559 46.7722 23.4815 46.2256 23.8835 45.8219C24.2855 45.4182 24.831 45.1902 25.4007 45.1878Z" fill="white"/>
<path d="M25.4004 50.0968C24.8519 50.0968 24.3157 49.9341 23.8596 49.6294C23.4035 49.3246 23.048 48.8915 22.8381 48.3847C22.6282 47.8779 22.5732 47.3202 22.6802 46.7822C22.7873 46.2442 23.0514 45.75 23.4393 45.3621C23.8272 44.9743 24.3214 44.7101 24.8594 44.6031C25.3974 44.4961 25.955 44.551 26.4618 44.7609C26.9686 44.9709 27.4018 45.3263 27.7065 45.7824C28.0113 46.2385 28.1739 46.7748 28.1739 47.3233C28.1739 48.0589 27.8817 48.7643 27.3616 49.2845C26.8415 49.8046 26.136 50.0968 25.4004 50.0968ZM25.4004 45.7886C25.0929 45.7868 24.7917 45.8764 24.5351 46.0459C24.2784 46.2154 24.0779 46.4574 23.9589 46.741C23.84 47.0246 23.8079 47.3372 23.8668 47.6391C23.9256 47.941 24.0728 48.2186 24.2897 48.4367C24.5065 48.6549 24.7832 48.8037 25.0848 48.8644C25.3863 48.9251 25.6991 48.8949 25.9834 48.7776C26.2678 48.6603 26.5109 48.4612 26.682 48.2056C26.853 47.95 26.9444 47.6494 26.9444 47.3418C26.9444 46.9315 26.782 46.5378 26.4927 46.2468C26.2035 45.9558 25.8108 45.7911 25.4004 45.7886Z" fill="white"/>
<path d="M15.4827 40.3062C15.9091 40.3043 16.3265 40.4291 16.682 40.6647C17.0374 40.9003 17.3149 41.2361 17.4794 41.6295C17.6439 42.0229 17.6878 42.4564 17.6058 42.8748C17.5237 43.2933 17.3193 43.6779 17.0184 43.9801C16.7175 44.2823 16.3337 44.4884 15.9156 44.5722C15.4975 44.6561 15.0639 44.614 14.6698 44.4512C14.2756 44.2885 13.9387 44.0124 13.7016 43.658C13.4645 43.3035 13.3379 42.8867 13.3379 42.4603C13.3379 41.8906 13.5636 41.3441 13.9655 40.9404C14.3675 40.5367 14.913 40.3086 15.4827 40.3062Z" fill="white"/>
<path d="M15.4825 45.2152C14.9339 45.2152 14.3977 45.0525 13.9416 44.7478C13.4855 44.443 13.13 44.0099 12.9201 43.5031C12.7102 42.9963 12.6553 42.4386 12.7623 41.9006C12.8693 41.3626 13.1335 40.8684 13.5213 40.4806C13.9092 40.0927 14.4034 39.8285 14.9414 39.7215C15.4794 39.6145 16.0371 39.6694 16.5439 39.8793C17.0507 40.0893 17.4838 40.4448 17.7886 40.9009C18.0933 41.357 18.256 41.8932 18.256 42.4417C18.256 43.1773 17.9638 43.8827 17.4436 44.4029C16.9235 44.923 16.2181 45.2152 15.4825 45.2152ZM15.4825 40.9071C15.1753 40.9071 14.875 40.9981 14.6196 41.1688C14.3642 41.3395 14.1651 41.582 14.0476 41.8658C13.93 42.1496 13.8992 42.4619 13.9592 42.7632C14.0191 43.0645 14.167 43.3412 14.3842 43.5584C14.6015 43.7757 14.8782 43.9236 15.1795 43.9835C15.4808 44.0434 15.793 44.0127 16.0768 43.8951C16.3607 43.7776 16.6032 43.5785 16.7739 43.3231C16.9446 43.0677 17.0357 42.7674 17.0357 42.4602C17.0308 42.0515 16.865 41.6612 16.5743 41.3739C16.2835 41.0866 15.8912 40.9255 15.4825 40.9255V40.9071Z" fill="white"/>
<path d="M12.8929 34.0476C13.3197 34.0458 13.7375 34.1708 14.0931 34.4068C14.4488 34.6428 14.7263 34.9791 14.8905 35.3731C15.0547 35.7671 15.0981 36.201 15.0153 36.6197C14.9324 37.0384 14.7271 37.423 14.4253 37.7249C14.1235 38.0267 13.7388 38.232 13.3201 38.3148C12.9014 38.3976 12.4675 38.3542 12.0735 38.19C11.6796 38.0259 11.3432 37.7483 11.1073 37.3927C10.8713 37.037 10.7462 36.6193 10.7481 36.1925C10.7481 35.6236 10.974 35.0781 11.3763 34.6758C11.7785 34.2736 12.3241 34.0476 12.8929 34.0476Z" fill="white"/>
<path d="M12.8936 38.9474C12.3451 38.9474 11.8088 38.7847 11.3527 38.48C10.8966 38.1752 10.5412 37.7421 10.3312 37.2353C10.1213 36.7285 10.0664 36.1708 10.1734 35.6328C10.2804 35.0948 10.5446 34.6006 10.9325 34.2127C11.3203 33.8249 11.8145 33.5607 12.3525 33.4537C12.8905 33.3467 13.4482 33.4016 13.955 33.6115C14.4618 33.8214 14.8949 34.1769 15.1997 34.633C15.5044 35.0891 15.6671 35.6253 15.6671 36.1739C15.6671 36.9095 15.3749 37.6149 14.8548 38.1351C14.3346 38.6552 13.6292 38.9474 12.8936 38.9474ZM12.8936 34.6485C12.5883 34.6485 12.2898 34.739 12.0359 34.9087C11.782 35.0783 11.5841 35.3194 11.4672 35.6015C11.3504 35.8837 11.3198 36.1941 11.3794 36.4936C11.4389 36.7931 11.586 37.0682 11.8019 37.2841C12.0178 37.5 12.2929 37.6471 12.5924 37.7066C12.8919 37.7662 13.2023 37.7356 13.4844 37.6188C13.7665 37.5019 14.0077 37.304 14.1773 37.0501C14.347 36.7962 14.4375 36.4977 14.4375 36.1924C14.4375 35.7829 14.2749 35.3902 13.9853 35.1007C13.6958 34.8111 13.3031 34.6485 12.8936 34.6485Z" fill="white"/>
<path d="M16.9314 10.5466C17.3574 10.5466 17.7739 10.673 18.1282 10.9097C18.4824 11.1463 18.7585 11.4828 18.9215 11.8764C19.0846 12.27 19.1272 12.7031 19.0441 13.1209C18.961 13.5388 18.7558 13.9226 18.4546 14.2239C18.1533 14.5251 17.7695 14.7303 17.3517 14.8134C16.9338 14.8965 16.5007 14.8539 16.1071 14.6908C15.7135 14.5278 15.3771 14.2517 15.1404 13.8974C14.9037 13.5432 14.7773 13.1267 14.7773 12.7007C14.7773 12.1294 15.0043 11.5815 15.4083 11.1775C15.8122 10.7736 16.3601 10.5466 16.9314 10.5466Z" fill="white"/>
<path d="M16.9336 15.4557C16.3851 15.4557 15.8489 15.293 15.3928 14.9883C14.9367 14.6835 14.5812 14.2504 14.3713 13.7436C14.1614 13.2368 14.1064 12.6791 14.2134 12.1411C14.3205 11.6031 14.5846 11.1089 14.9725 10.721C15.3604 10.3332 15.8546 10.069 16.3926 9.96198C16.9306 9.85496 17.4882 9.90991 17.995 10.1198C18.5018 10.3298 18.935 10.6852 19.2397 11.1413C19.5445 11.5974 19.7071 12.1337 19.7071 12.6822C19.7071 13.4178 19.415 14.1232 18.8948 14.6433C18.3747 15.1635 17.6692 15.4557 16.9336 15.4557ZM16.9336 11.1475C16.6261 11.1457 16.3249 11.2352 16.0683 11.4048C15.8116 11.5743 15.6111 11.8162 15.4921 12.0999C15.3732 12.3835 15.3411 12.6961 15.4 12.998C15.4588 13.2999 15.606 13.5775 15.8229 13.7956C16.0397 14.0138 16.3165 14.1626 16.618 14.2233C16.9195 14.284 17.2323 14.2537 17.5166 14.1365C17.801 14.0192 18.0441 13.8201 18.2152 13.5645C18.3862 13.3089 18.4776 13.0083 18.4776 12.7007C18.4776 12.2904 18.3152 11.8967 18.0259 11.6057C17.7367 11.3147 17.344 11.15 16.9336 11.1475Z" fill="white"/>
<path d="M76.5452 45.6782C76.9717 45.6764 77.389 45.8012 77.7445 46.0368C78.0999 46.2723 78.3774 46.6081 78.5419 47.0016C78.7064 47.395 78.7504 47.8284 78.6683 48.2469C78.5862 48.6653 78.3818 49.05 78.0809 49.3522C77.78 49.6543 77.3962 49.8604 76.9781 49.9443C76.56 50.0282 76.1264 49.986 75.7323 49.8233C75.3381 49.6605 75.0012 49.3844 74.7641 49.03C74.527 48.6756 74.4004 48.2587 74.4004 47.8323C74.4004 47.2626 74.6261 46.7161 75.028 46.3124C75.43 45.9087 75.9755 45.6807 76.5452 45.6782Z" fill="white"/>
<path d="M76.545 50.5777C75.9965 50.5777 75.4602 50.4151 75.0041 50.1103C74.548 49.8056 74.1925 49.3724 73.9826 48.8656C73.7727 48.3588 73.7178 47.8012 73.8248 47.2632C73.9318 46.7252 74.196 46.231 74.5838 45.8431C74.9717 45.4552 75.4659 45.1911 76.0039 45.0841C76.5419 44.977 77.0996 45.032 77.6064 45.2419C78.1132 45.4518 78.5463 45.8073 78.8511 46.2634C79.1558 46.7195 79.3185 47.2557 79.3185 47.8043C79.3185 48.5398 79.0263 49.2453 78.5062 49.7654C77.986 50.2855 77.2806 50.5777 76.545 50.5777ZM76.545 46.2788C76.2378 46.2788 75.9375 46.3699 75.6821 46.5406C75.4267 46.7112 75.2276 46.9538 75.1101 47.2376C74.9925 47.5214 74.9618 47.8337 75.0217 48.135C75.0816 48.4363 75.2296 48.713 75.4468 48.9302C75.664 49.1474 75.9407 49.2954 76.242 49.3553C76.5433 49.4152 76.8555 49.3845 77.1393 49.2669C77.4232 49.1494 77.6657 48.9503 77.8364 48.6949C78.0071 48.4395 78.0982 48.1392 78.0982 47.832C78.0982 47.4201 77.9345 47.025 77.6432 46.7338C77.352 46.4425 76.9569 46.2788 76.545 46.2788Z" fill="white"/>
<path d="M74.401 48.4328H60.5336C60.3742 48.4328 60.2214 48.3695 60.1087 48.2568C59.996 48.1441 59.9326 47.9912 59.9326 47.8319V40.4359C59.9326 40.2765 59.996 40.1237 60.1087 40.011C60.2214 39.8983 60.3742 39.835 60.5336 39.835C60.6929 39.835 60.8458 39.8983 60.9585 40.011C61.0712 40.1237 61.1345 40.2765 61.1345 40.4359V47.2587H74.401C74.5604 47.2587 74.7132 47.322 74.8259 47.4347C74.9386 47.5474 75.002 47.7002 75.002 47.8596C75.002 48.019 74.9386 48.1718 74.8259 48.2845C74.7132 48.3972 74.5604 48.4605 74.401 48.4605V48.4328Z" fill="white"/>
<path d="M31.9844 21.1228C31.8242 21.1204 31.6714 21.0551 31.559 20.9409C31.4465 20.8267 31.3835 20.6729 31.3835 20.5127V13.6899H19.0785C18.9191 13.6899 18.7662 13.6266 18.6535 13.5139C18.5408 13.4012 18.4775 13.2484 18.4775 13.089C18.4775 12.9296 18.5408 12.7768 18.6535 12.6641C18.7662 12.5514 18.9191 12.488 19.0785 12.488H32.0214C32.1808 12.488 32.3337 12.5514 32.4464 12.6641C32.559 12.7768 32.6223 12.9296 32.6223 13.089V20.485C32.6263 20.5698 32.6125 20.6545 32.5818 20.7337C32.5512 20.8129 32.5044 20.8848 32.4443 20.9448C32.3843 21.0049 32.3124 21.0517 32.2332 21.0824C32.154 21.113 32.0693 21.1268 31.9844 21.1228Z" fill="white"/>
<rect x="1.45898" y="0.988281" width="90.0817" height="57.7447" rx="4" stroke="white" stroke-linecap="round" stroke-linejoin="round"/>
</svg>
