<svg width="93" height="60" viewBox="0 0 93 60" fill="none" xmlns="http://www.w3.org/2000/svg">
<rect x="0.5" y="0.932617" width="91.04" height="58.359" rx="4" stroke="white" stroke-linecap="round" stroke-linejoin="round"/>
<rect x="4.00195" y="4.43408" width="84.0369" height="7.00308" fill="white"/>
<rect x="4.50195" y="13.688" width="55.6082" height="41.6021" stroke="white" stroke-linecap="round" stroke-linejoin="round"/>
<rect x="62.8604" y="13.688" width="24.678" height="14.7569" stroke="white" stroke-linecap="round" stroke-linejoin="round"/>
<rect x="62.8604" y="31.1958" width="24.678" height="24.0944" stroke="white" stroke-linecap="round" stroke-linejoin="round"/>
<path d="M65.2783 34.781H85.1204" stroke="white" stroke-linecap="round" stroke-linejoin="round"/>
<path d="M7.50391 7.93604H27.346" stroke="#181F23" stroke-linecap="round" stroke-linejoin="round"/>
<path d="M65.2783 38.2825H85.1204" stroke="white" stroke-linecap="round" stroke-linejoin="round"/>
<path d="M65.2783 41.7839H76.9501" stroke="white" stroke-linecap="round" stroke-linejoin="round"/>
<rect x="22.6758" y="24.8596" width="18.6749" height="13.4226" fill="white"/>
<path d="M26.1777 45.2853L32.0136 38.2822M32.0136 38.2822L37.8495 45.2853M32.0136 38.2822V45.2853" stroke="white" stroke-linecap="round" stroke-linejoin="round"/>
<path fill-rule="evenodd" clip-rule="evenodd" d="M78.1185 17.8567H69.9482V24.2762H78.1185V21.7393L80.0167 22.8353V19.2975L78.1185 20.3934V17.8567Z" fill="white"/>
</svg>
