<svg width="35" height="30" viewBox="0 0 35 30" fill="none" xmlns="http://www.w3.org/2000/svg">
<path d="M24.243 10.1388C24.2395 10.4144 24.1318 10.6784 23.9414 10.8776C23.751 11.0769 23.4922 11.1965 23.2171 11.2125C22.942 11.2286 22.671 11.1397 22.4588 10.9639C22.2466 10.7881 22.1089 10.5384 22.0735 10.2651C22.0381 9.99184 22.1076 9.71528 22.2679 9.49117C22.4283 9.26707 22.6676 9.11207 22.9377 9.05741C23.2078 9.00275 23.4886 9.0525 23.7235 9.19662C23.9583 9.34073 24.1299 9.56851 24.2035 9.83406C24.2309 9.93331 24.2442 10.0359 24.243 10.1388Z" fill="#181F23"/>
<path d="M25.7671 22.0027C25.7726 22.2285 25.7103 22.4508 25.5881 22.6408C25.466 22.8308 25.2897 22.9798 25.082 23.0685C24.8743 23.1572 24.6447 23.1816 24.423 23.1385C24.2013 23.0954 23.9976 22.9867 23.8383 22.8266C23.679 22.6665 23.5714 22.4622 23.5294 22.2403C23.4875 22.0184 23.513 21.7889 23.6028 21.5817C23.6926 21.3744 23.8425 21.1989 24.0331 21.0777C24.2238 20.9566 24.4463 20.8954 24.6721 20.9021C24.9608 20.9107 25.2351 21.0296 25.4388 21.2343C25.6425 21.439 25.76 21.714 25.7671 22.0027Z" fill="#181F23"/>
<path d="M23.9043 0.594739C24.5153 0.593304 25.1206 0.712758 25.6854 0.946204C26.2501 1.17965 26.7631 1.52248 27.1948 1.95497C28.0524 2.80345 28.5428 3.95455 28.5606 5.16081H28.6453C29.0851 5.36657 29.4764 5.66304 29.7935 6.03073C30.1106 6.39842 30.3464 6.82903 30.4853 7.29428H30.5812C31.5993 7.81232 32.3894 8.68895 32.7994 9.75511C33.0124 10.294 33.1197 10.8689 33.1154 11.4483C33.1159 12.2911 32.8877 13.1182 32.4551 13.8414L32.4099 13.8866C32.8711 14.3219 33.2386 14.8467 33.4897 15.4291C33.7409 16.0114 33.8704 16.6389 33.8704 17.2731C33.8704 17.9072 33.7409 18.5347 33.4897 19.117C33.2386 19.6994 32.8711 20.2242 32.4099 20.6595L32.3083 20.6877C32.4471 21.1375 32.5175 21.6055 32.5172 22.0762C32.5179 22.5716 32.4533 23.065 32.3252 23.5436C32.1229 24.4531 31.6134 25.265 30.8825 25.8428C30.1516 26.4205 29.2439 26.7288 28.3123 26.7156C28.1008 27.4238 27.6662 28.0448 27.0733 28.4862C26.4805 28.9275 25.7609 29.1657 25.0218 29.1651C24.361 29.1622 23.7155 28.966 23.1649 28.6007C22.7239 28.7799 22.2524 28.8719 21.7764 28.8717C20.7874 28.8687 19.8396 28.4749 19.1397 27.776C18.4398 27.0772 18.0445 26.13 18.04 25.1409V4.6077C18.0444 4.11552 18.1465 3.6291 18.3403 3.17664C18.534 2.72419 18.8157 2.3147 19.1689 1.9719L20.055 1.3059L21.8047 0.871312C21.9748 0.870437 22.1447 0.883639 22.3126 0.910807C22.8204 0.712652 23.3593 0.605657 23.9043 0.594739Z" fill="white"/>
<path d="M17.9248 4.52881V25.062" stroke="#181F23" stroke-linecap="round" stroke-linejoin="round"/>
<path d="M17.9248 25.0903C17.9293 26.0794 18.3245 27.0266 19.0244 27.7254C19.7244 28.4242 20.6721 28.8181 21.6612 28.821C22.1372 28.8212 22.6086 28.7293 23.0496 28.5501C23.6003 28.9154 24.2458 29.1116 24.9065 29.1146C25.6457 29.1151 26.3652 28.8769 26.9581 28.4356C27.551 27.9942 27.9855 27.3732 28.1971 26.665C28.2993 26.3419 28.3507 26.0049 28.3494 25.666C28.3451 24.8396 28.0432 24.0424 27.499 23.4205C26.9548 22.7986 26.2048 22.3935 25.3863 22.2795" stroke="#181F23" stroke-linecap="round" stroke-linejoin="round"/>
<path d="M25.3852 4.52879C25.3832 3.62868 25.0569 2.75943 24.466 2.08042C23.8751 1.40142 23.0593 0.958152 22.1681 0.831895C22.0001 0.804726 21.8302 0.791525 21.6601 0.792399L19.9104 1.22699L19.0243 1.89299C18.6711 2.23579 18.3895 2.64528 18.1957 3.09773C18.0019 3.55018 17.8999 4.03661 17.8955 4.52879" stroke="#181F23" stroke-linecap="round" stroke-linejoin="round"/>
<path d="M28.1958 26.6257C29.1322 26.6454 30.0464 26.3402 30.7832 25.7619C31.5199 25.1836 32.0336 24.368 32.2369 23.4537C32.365 22.9751 32.4296 22.4817 32.4288 21.9863C32.4303 21.3741 32.3109 20.7676 32.0775 20.2017C31.8441 19.6358 31.5013 19.1215 31.0687 18.6884C30.6361 18.2552 30.1222 17.9118 29.5566 17.6777C28.9909 17.4436 28.3846 17.3235 27.7725 17.3242V17.3242" stroke="#181F23" stroke-linecap="round" stroke-linejoin="round"/>
<path d="M32.2936 20.575C32.9721 19.9353 33.4432 19.1069 33.646 18.1967C33.8487 17.2865 33.7739 16.3365 33.4312 15.4693C33.0884 14.6021 32.4935 13.8576 31.7232 13.332C30.953 12.8064 30.0428 12.5238 29.1104 12.5209" stroke="#181F23" stroke-linecap="round" stroke-linejoin="round"/>
<path d="M32.3465 13.7456C32.7791 13.0224 33.0074 12.1953 33.0069 11.3525C33.0111 10.7731 32.9038 10.1982 32.6908 9.65932C32.2808 8.59316 31.4907 7.71653 30.4727 7.19849" stroke="#181F23" stroke-linecap="round" stroke-linejoin="round"/>
<path d="M27.0852 1.87636C26.4539 1.24838 25.6564 0.813832 24.7864 0.623848C23.9165 0.433865 23.0104 0.49636 22.1748 0.803981" stroke="#181F23" stroke-linecap="round" stroke-linejoin="round"/>
<path d="M23.7715 9.85109C25.0045 9.84661 26.1853 9.35328 27.0551 8.4793C27.9248 7.60533 28.4124 6.42206 28.4109 5.18906V5.1044C28.3931 3.89814 27.9026 2.74704 27.0451 1.89856" stroke="#181F23" stroke-linecap="round" stroke-linejoin="round"/>
<path d="M27.084 11.6575C27.9966 11.656 28.8715 11.2928 29.5168 10.6474C30.1622 10.0021 30.5254 9.12726 30.5269 8.2146C30.529 7.8775 30.4776 7.5422 30.3745 7.22124C30.2356 6.75598 29.9998 6.32538 29.6827 5.95769C29.3656 5.59 28.9743 5.29353 28.5345 5.08777" stroke="#181F23" stroke-linecap="round" stroke-linejoin="round"/>
<path d="M22.7501 9.03836C22.5225 9.04087 22.3014 9.11461 22.1179 9.24922C21.9344 9.38382 21.7976 9.57253 21.7269 9.78884C21.6561 10.0052 21.6548 10.2382 21.7233 10.4553C21.7918 10.6723 21.9265 10.8625 22.1086 10.999C22.2907 11.1356 22.5109 11.2117 22.7385 11.2167C22.966 11.2216 23.1894 11.1552 23.3773 11.0266C23.5651 10.8981 23.708 10.714 23.7858 10.5001C23.8636 10.2862 23.8725 10.0534 23.8112 9.83418C23.7458 9.60371 23.6065 9.40106 23.4149 9.25731C23.2232 9.11357 22.9897 9.03666 22.7501 9.03836Z" fill="#181F23" stroke="#181F23" stroke-linecap="round" stroke-linejoin="round"/>
<path d="M26.6495 16.246C26.4235 16.2393 26.2007 16.3006 26.0099 16.4221C25.8192 16.5435 25.6693 16.7194 25.5797 16.927C25.4901 17.1346 25.4649 17.3643 25.5074 17.5863C25.5499 17.8084 25.658 18.0126 25.8179 18.1725C25.9778 18.3324 26.182 18.4406 26.4041 18.483C26.6262 18.5255 26.8559 18.5003 27.0635 18.4107C27.2711 18.3211 27.4469 18.1712 27.5684 17.9805C27.6898 17.7897 27.7511 17.5669 27.7444 17.3409C27.7452 17.1969 27.7174 17.0542 27.6626 16.921C27.6079 16.7879 27.5272 16.6668 27.4254 16.565C27.3236 16.4632 27.2026 16.3826 27.0694 16.3278C26.9362 16.273 26.7935 16.2452 26.6495 16.246Z" fill="#181F23" stroke="#181F23" stroke-linecap="round" stroke-linejoin="round"/>
<path d="M24.2786 20.9021C24.0528 20.8954 23.8302 20.9566 23.6396 21.0777C23.4489 21.1989 23.299 21.3744 23.2092 21.5817C23.1194 21.7889 23.0939 22.0184 23.1359 22.2403C23.1779 22.4622 23.2855 22.6665 23.4448 22.8266C23.6041 22.9867 23.8077 23.0954 24.0295 23.1385C24.2512 23.1816 24.4807 23.1572 24.6884 23.0685C24.8961 22.9798 25.0725 22.8308 25.1946 22.6408C25.3167 22.4508 25.3791 22.2285 25.3735 22.0027C25.3664 21.714 25.2489 21.439 25.0453 21.2343C24.8416 21.0296 24.5672 20.9107 24.2786 20.9021Z" fill="#181F23" stroke="#181F23" stroke-linecap="round" stroke-linejoin="round"/>
<path d="M10.6281 10.1388C10.6316 10.4144 10.7393 10.6784 10.9297 10.8776C11.1201 11.0769 11.3789 11.1965 11.654 11.2125C11.9291 11.2286 12.2001 11.1397 12.4123 10.9639C12.6245 10.7881 12.7622 10.5384 12.7976 10.2651C12.833 9.99184 12.7635 9.71528 12.6032 9.49117C12.4428 9.26707 12.2035 9.11207 11.9334 9.05741C11.6633 9.00275 11.3825 9.0525 11.1476 9.19662C10.9128 9.34073 10.7412 9.56851 10.6676 9.83406C10.6402 9.93331 10.6269 10.0359 10.6281 10.1388Z" fill="#181F23"/>
<path d="M9.10402 22.0027C9.09848 22.2285 9.16082 22.4508 9.28295 22.6408C9.40508 22.8308 9.58139 22.9798 9.78911 23.0685C9.99682 23.1572 10.2264 23.1816 10.4481 23.1385C10.6698 23.0954 10.8735 22.9867 11.0328 22.8266C11.1921 22.6665 11.2997 22.4622 11.3416 22.2403C11.3836 22.0184 11.3581 21.7889 11.2683 21.5817C11.1785 21.3744 11.0286 21.1989 10.838 21.0777C10.6473 20.9566 10.4247 20.8954 10.199 20.9021C9.91032 20.9107 9.63596 21.0296 9.43229 21.2343C9.22861 21.439 9.11111 21.714 9.10402 22.0027Z" fill="#181F23"/>
<path d="M10.9659 0.594739C10.3548 0.593304 9.74947 0.712758 9.18475 0.946204C8.62002 1.17965 8.10703 1.52248 7.67533 1.95497C6.81774 2.80345 6.32732 3.95455 6.30947 5.16081H6.2248C5.785 5.36657 5.39373 5.66304 5.07662 6.03073C4.75951 6.39842 4.52376 6.82903 4.38485 7.29428H4.28888C3.27085 7.81232 2.48069 8.68895 2.07075 9.75511C1.85772 10.294 1.75041 10.8689 1.75468 11.4483C1.75418 12.2911 1.98241 13.1182 2.41503 13.8414L2.4602 13.8866C1.99898 14.3219 1.63154 14.8467 1.3804 15.4291C1.12926 16.0114 0.999702 16.6389 0.999702 17.2731C0.999702 17.9072 1.12926 18.5347 1.3804 19.117C1.63154 19.6994 1.99898 20.2242 2.4602 20.6595L2.56178 20.6877C2.42299 21.1375 2.35259 21.6055 2.35296 22.0762C2.35224 22.5716 2.41677 23.065 2.54487 23.5436C2.7472 24.4531 3.2567 25.265 3.98762 25.8428C4.71854 26.4205 5.62623 26.7288 6.55782 26.7156C6.76934 27.4238 7.20388 28.0448 7.79677 28.4862C8.38965 28.9275 9.1092 29.1657 9.84833 29.1651C10.5091 29.1622 11.1546 28.966 11.7052 28.6007C12.1462 28.7799 12.6177 28.8719 13.0937 28.8717C14.0828 28.8687 15.0305 28.4749 15.7304 27.776C16.4303 27.0772 16.8256 26.13 16.8301 25.1409V4.6077C16.8257 4.11552 16.7236 3.6291 16.5299 3.17664C16.3361 2.72419 16.0545 2.3147 15.7013 1.9719L14.8151 1.3059L13.0654 0.871312C12.8953 0.870437 12.7254 0.883639 12.5575 0.910807C12.0497 0.712652 11.5109 0.605657 10.9659 0.594739Z" fill="white"/>
<path d="M16.9453 4.52881V25.062" stroke="#181F23" stroke-linecap="round" stroke-linejoin="round"/>
<path d="M16.9453 25.0903C16.9408 26.0794 16.5456 27.0266 15.8457 27.7254C15.1458 28.4242 14.198 28.8181 13.2089 28.821C12.733 28.8212 12.2615 28.7293 11.8205 28.5501C11.2698 28.9154 10.6243 29.1116 9.96357 29.1146C9.22444 29.1151 8.50489 28.8769 7.912 28.4356C7.31912 27.9942 6.88458 27.3732 6.67305 26.665C6.57085 26.3419 6.51946 26.0049 6.52068 25.666C6.525 24.8396 6.8269 24.0424 7.37109 23.4205C7.91528 22.7986 8.66533 22.3935 9.48383 22.2795" stroke="#181F23" stroke-linecap="round" stroke-linejoin="round"/>
<path d="M9.48492 4.52879C9.48688 3.62868 9.81322 2.75943 10.4041 2.08042C10.995 1.40142 11.8108 0.958152 12.7021 0.831895C12.87 0.804726 13.0399 0.791525 13.21 0.792399L14.9597 1.22699L15.8458 1.89299C16.199 2.23579 16.4807 2.64528 16.6744 3.09773C16.8682 3.55018 16.9702 4.03661 16.9746 4.52879" stroke="#181F23" stroke-linecap="round" stroke-linejoin="round"/>
<path d="M6.67435 26.6257C5.73796 26.6454 4.82368 26.3402 4.08693 25.7619C3.35019 25.1836 2.83648 24.368 2.63319 23.4537C2.50509 22.9751 2.44056 22.4817 2.44128 21.9863C2.43979 21.3741 2.55918 20.7676 2.79259 20.2017C3.026 19.6358 3.36885 19.1215 3.80145 18.6884C4.23406 18.2552 4.74791 17.9118 5.31355 17.6777C5.87919 17.4436 6.48549 17.3235 7.09766 17.3242V17.3242" stroke="#181F23" stroke-linecap="round" stroke-linejoin="round"/>
<path d="M2.57652 20.575C1.89804 19.9353 1.42695 19.1069 1.22416 18.1967C1.02138 17.2865 1.0962 16.3365 1.43895 15.4693C1.7817 14.6021 2.37664 13.8576 3.14689 13.332C3.91714 12.8064 4.82729 12.5238 5.75977 12.5209" stroke="#181F23" stroke-linecap="round" stroke-linejoin="round"/>
<path d="M2.52362 13.7456C2.09099 13.0224 1.86277 12.1953 1.86327 11.3525C1.859 10.7731 1.9663 10.1982 2.17934 9.65932C2.58927 8.59316 3.37944 7.71653 4.39746 7.19849" stroke="#181F23" stroke-linecap="round" stroke-linejoin="round"/>
<path d="M7.78494 1.87636C8.41622 1.24838 9.21375 0.813832 10.0837 0.623848C10.9536 0.433865 11.8597 0.49636 12.6953 0.803981" stroke="#181F23" stroke-linecap="round" stroke-linejoin="round"/>
<path d="M11.0986 9.85109C9.86564 9.84661 8.68478 9.35328 7.81504 8.4793C6.9453 7.60533 6.4577 6.42206 6.4592 5.18906V5.1044C6.47705 3.89814 6.96747 2.74704 7.82506 1.89856" stroke="#181F23" stroke-linecap="round" stroke-linejoin="round"/>
<path d="M7.78613 11.6575C6.87348 11.656 5.99863 11.2928 5.35329 10.6474C4.70794 10.0021 4.34474 9.12726 4.34325 8.2146C4.34113 7.8775 4.39254 7.5422 4.49562 7.22124C4.63453 6.75598 4.87027 6.32538 5.18738 5.95769C5.50449 5.59 5.8958 5.29353 6.3356 5.08777" stroke="#181F23" stroke-linecap="round" stroke-linejoin="round"/>
<path d="M12.12 9.03836C12.3476 9.04087 12.5687 9.11461 12.7522 9.24922C12.9357 9.38382 13.0725 9.57253 13.1433 9.78884C13.214 10.0052 13.2153 10.2382 13.1468 10.4553C13.0783 10.6723 12.9436 10.8625 12.7615 10.999C12.5795 11.1356 12.3592 11.2117 12.1316 11.2167C11.9041 11.2216 11.6807 11.1552 11.4929 11.0266C11.305 10.8981 11.1622 10.714 11.0843 10.5001C11.0065 10.2862 10.9976 10.0534 11.0589 9.83418C11.1243 9.60371 11.2636 9.40106 11.4552 9.25731C11.6469 9.11357 11.8804 9.03666 12.12 9.03836Z" fill="#181F23" stroke="#181F23" stroke-linecap="round" stroke-linejoin="round"/>
<path d="M8.22064 16.246C8.44664 16.2393 8.66945 16.3006 8.86018 16.4221C9.05092 16.5435 9.20077 16.7194 9.29038 16.927C9.37998 17.1346 9.40519 17.3643 9.36272 17.5863C9.32025 17.8084 9.21208 18.0126 9.0522 18.1725C8.89232 18.3324 8.6881 18.4406 8.46602 18.483C8.24394 18.5255 8.01422 18.5003 7.80663 18.4107C7.59904 18.3211 7.42317 18.1712 7.30175 17.9805C7.18033 17.7897 7.119 17.5669 7.12568 17.3409C7.12494 17.1969 7.15274 17.0542 7.2075 16.921C7.26226 16.7879 7.34289 16.6668 7.44471 16.565C7.54654 16.4632 7.66752 16.3826 7.80071 16.3278C7.93389 16.273 8.07664 16.2452 8.22064 16.246Z" fill="#181F23" stroke="#181F23" stroke-linecap="round" stroke-linejoin="round"/>
<path d="M10.5916 20.9021C10.8173 20.8954 11.0399 20.9566 11.2305 21.0777C11.4212 21.1989 11.5711 21.3744 11.6609 21.5817C11.7507 21.7889 11.7762 22.0184 11.7342 22.2403C11.6922 22.4622 11.5847 22.6665 11.4254 22.8266C11.2661 22.9867 11.0624 23.0954 10.8407 23.1385C10.6189 23.1816 10.3894 23.1572 10.1817 23.0685C9.97397 22.9798 9.79766 22.8308 9.67553 22.6408C9.5534 22.4508 9.49105 22.2285 9.4966 22.0027C9.50369 21.714 9.62119 21.439 9.82486 21.2343C10.0285 21.0296 10.3029 20.9107 10.5916 20.9021Z" fill="#181F23" stroke="#181F23" stroke-linecap="round" stroke-linejoin="round"/>
</svg>
