<svg width="298" height="392" viewBox="0 0 298 392" fill="none" xmlns="http://www.w3.org/2000/svg">
<g clip-path="url(#clip0)">
<path d="M153.283 226.189C131.864 226.168 110.709 228.916 91.3751 234.23C72.0411 239.543 55.0196 247.288 41.5628 256.894L46.1618 259.045C58.7439 250.048 74.5873 242.746 92.5815 237.652C110.576 232.557 130.285 229.793 150.328 229.552V239.271C84.977 240.232 32.3074 271.156 32.3074 309.049C32.2844 320.853 37.4925 332.465 47.438 342.784L32.888 347.86C21.5291 336.065 15.5414 322.802 15.4841 309.311C15.4268 295.82 21.3018 282.54 32.5604 270.712L27.3865 269.056C17.5477 279.357 11.6234 290.747 10.0069 302.469C8.39043 314.191 11.1188 325.978 18.0108 337.046C24.9028 348.114 35.8008 358.21 49.981 366.663C64.1613 375.117 81.2993 381.735 100.257 386.078L102.436 382.91C74.8118 376.637 51.4589 365.371 35.8774 350.803L50.4273 345.72C71.7837 365.556 109.892 378.791 153.277 378.791C219.962 378.791 274.241 347.469 274.241 309.049C274.285 297.335 269.19 285.803 259.43 275.528C249.669 265.253 235.561 256.566 218.416 250.276L215.208 253.143C231.665 259.206 245.173 267.584 254.461 277.487C263.749 287.391 268.51 298.495 268.296 309.753C268.082 321.01 262.9 332.051 253.238 341.835C243.576 351.619 229.753 359.825 213.07 365.678L205.487 358.72C219.481 353.806 231.187 347.001 239.594 338.893L234.529 337.137C217.203 353.706 186.815 363.647 153.26 363.647C138.926 363.667 124.773 361.803 111.875 358.197C98.9779 354.592 87.6752 349.34 78.8259 342.84L74.1867 344.951C82.2349 350.7 91.1626 355.273 100.631 358.537L93.3356 365.632C76.5144 359.708 62.6143 351.392 52.9671 341.483C43.3199 331.574 38.249 320.403 38.2401 309.039C38.2401 272.459 89.8577 242.711 153.3 242.711C169.31 242.641 185.263 244.616 200.733 248.583L203.17 245.511C187.862 241.581 172.087 239.517 156.238 239.371V229.645C230.891 230.53 291.074 265.808 291.074 309.049C291.074 352.854 229.258 388.494 153.277 388.494C143.97 388.484 134.688 387.939 125.569 386.867L124.419 390.2C133.918 391.316 143.588 391.877 153.283 391.877C232.517 391.877 297.001 354.71 297.001 309.033C297.001 263.356 232.512 226.189 153.283 226.189ZM105.741 360.244C120.297 364.707 136.52 367.059 153.007 367.096C169.494 367.134 185.748 364.856 200.365 360.459L207.965 367.418C191.142 372.666 172.314 375.41 153.186 375.401C134.058 375.392 115.237 372.631 98.429 367.368L105.741 360.244Z" fill="white"/>
<path d="M246.469 331.053C251.432 324.071 253.971 316.595 253.942 309.049C253.942 277.038 208.775 250.992 153.265 250.992C129.623 250.997 106.737 255.794 88.6098 264.542L92.4097 267.15C109.478 258.916 131.025 254.403 153.283 254.402C167.844 254.339 182.331 256.347 196.277 260.367L188.062 270.444C176.795 267.13 165.067 265.473 153.277 265.53C148.454 265.531 143.642 265.793 138.905 266.315L140.02 269.662C144.392 269.181 148.832 268.938 153.283 268.936C171.426 268.945 188.846 273.037 201.832 280.341C214.817 287.645 222.342 297.584 222.802 308.039H202.957C202.643 302.528 199.566 297.187 194.098 292.663L189.252 294.615C194.385 298.846 197.125 303.887 197.099 309.049C197.099 322.116 179.422 333.177 156.858 334.234L157.33 337.631C163.583 337.336 169.681 336.354 175.294 334.738L185.608 344.563C175.128 347.662 164.205 349.216 153.248 349.163C141.739 349.162 130.41 347.515 120.276 344.369C110.143 341.224 101.522 336.678 95.1863 331.139L112.553 325.549C117.907 329.941 125.296 333.376 133.875 335.464L136.174 332.325C134.707 331.963 133.277 331.553 131.892 331.096L140.722 323.173C146.576 324.892 153.304 325.35 159.692 324.462L158.307 321.148C156.627 321.385 154.903 321.503 153.173 321.499C148.278 321.476 143.543 320.491 139.75 318.707C135.958 316.923 133.334 314.447 132.312 311.687C131.291 308.927 131.933 306.049 134.133 303.528C136.332 301.007 139.958 298.994 144.41 297.821C148.863 296.648 153.876 296.386 158.622 297.078C163.368 297.769 167.563 299.373 170.514 301.624C173.465 303.876 174.996 306.64 174.853 309.461C174.711 312.282 172.903 314.99 169.73 317.138L174.219 319.345C178.355 316.543 180.673 313.001 180.78 309.323C180.886 305.644 178.773 302.059 174.802 299.179C170.832 296.3 165.249 294.304 159.009 293.534C152.769 292.763 146.258 293.266 140.59 294.956L131.639 287.066C138.952 284.677 147.304 283.552 155.696 283.825C164.089 284.098 172.168 285.758 178.968 288.607L182.446 285.85C176.992 283.565 170.789 281.944 164.214 281.085C157.639 280.226 150.829 280.146 144.2 280.852C137.57 281.557 131.258 283.033 125.649 285.189C120.039 287.344 115.249 290.135 111.57 293.392L116.52 295.234C119.272 292.817 122.718 290.688 126.712 288.938L135.657 296.818C132.526 298.312 130.007 300.187 128.282 302.309C126.558 304.43 125.67 306.746 125.682 309.089C125.695 311.432 126.608 313.744 128.355 315.86C130.103 317.975 132.642 319.841 135.789 321.324L126.948 329.277C121.497 326.927 117.073 323.876 114.03 320.367C110.987 316.857 109.408 312.986 109.42 309.063C109.419 306.976 109.863 304.897 110.742 302.873L105.045 302.041C102.022 308.99 103.602 316.339 109.478 322.653L92.1567 328.23C86.5924 322.347 83.6918 315.75 83.7234 309.049C83.7629 301.491 87.4858 294.091 94.4675 287.693C101.449 281.295 111.409 276.156 123.211 272.863L120.647 269.791C108.301 273.241 97.806 278.554 90.2747 285.164C82.7435 291.775 78.4574 299.438 77.8712 307.34H58.5556C59.1008 296.036 65.7752 285.115 77.6412 276.111L72.9331 274.056C61.6727 282.659 54.7832 292.897 53.0341 303.627C51.285 314.357 54.7451 325.156 63.0281 334.817L68.3226 333.306C62.2708 326.292 58.9363 318.603 58.5498 310.773H77.8712C79.4291 333.969 112.651 352.589 153.283 352.589C194.903 352.589 228.763 333.064 228.763 309.069C228.758 301.682 225.492 294.417 219.271 287.958C213.051 281.5 204.082 276.06 193.207 272.151L201.474 262.01C221.067 268.69 235.839 279.209 243.094 291.647C250.349 304.084 249.602 317.611 240.991 329.757L246.469 331.053ZM190.707 342.833L180.405 333.005C186.724 330.62 192.024 327.441 195.907 323.706C199.79 319.972 202.155 315.779 202.825 311.442H222.715C222.056 317.759 218.812 323.897 213.249 329.353C207.686 334.809 199.961 339.428 190.707 342.833Z" fill="white"/>
<path d="M119.55 315.505C118.822 315.578 118.074 315.526 117.397 315.356C116.72 315.186 116.145 314.905 115.743 314.548C115.342 314.191 115.131 313.774 115.137 313.348C115.143 312.923 115.366 312.507 115.778 312.154L116.928 312.599C116.73 312.749 116.593 312.923 116.526 313.109C116.459 313.294 116.465 313.485 116.543 313.669C116.695 313.983 117.052 314.251 117.539 314.417C118.026 314.582 118.606 314.633 119.156 314.558C119.707 314.483 120.185 314.289 120.492 314.015C120.799 313.741 120.911 313.409 120.803 313.089C120.731 312.904 120.587 312.73 120.382 312.581C120.177 312.433 119.916 312.313 119.619 312.231L120.297 311.538C120.947 311.744 121.476 312.057 121.818 312.436C122.161 312.815 122.301 313.245 122.221 313.67C122.141 314.095 121.845 314.497 121.369 314.825C120.894 315.153 120.261 315.393 119.55 315.515V315.505Z" fill="white"/>
<path d="M115.664 308.102L115.738 309.364L121.286 309.252L121.338 310.153L115.796 310.262L115.871 311.518L114.583 311.545L114.376 308.128L115.664 308.102Z" fill="white"/>
<path d="M119.993 304.003C121.534 304.185 122.109 304.877 121.753 305.868L121.126 307.611L114.429 306.806L114.751 305.921L116.947 306.183L117.303 305.189C117.642 304.271 118.551 303.827 119.993 304.003ZM115.808 302.985L116.13 302.1L122.816 302.902L122.5 303.79L115.808 302.985ZM119.695 304.904C118.959 304.814 118.545 305.053 118.39 305.517L118.096 306.322L120.298 306.587L120.586 305.782C120.643 305.691 120.664 305.593 120.649 305.497C120.633 305.4 120.581 305.307 120.496 305.223C120.411 305.139 120.295 305.067 120.157 305.012C120.018 304.957 119.861 304.92 119.695 304.904Z" fill="white"/>
<path d="M125.443 298.283L127.851 298.995L127.184 299.754L125.92 299.38L123.712 301.855L124.977 302.23L124.304 302.982L121.901 302.263L122.028 302.124C122.407 301.66 121.206 301.156 119.533 300.616L117.642 300.006L120.045 297.312L124.983 298.773L125.443 298.283ZM122.896 301.143L124.293 299.575L120.516 298.452L119.441 299.655L120.315 299.933C121.574 300.348 122.614 300.748 122.896 301.143Z" fill="white"/>
<path d="M186.763 297.554L181.181 299.837L180.302 299.092L184.832 297.242L183.044 295.791L178.514 297.64L177.605 296.901L183.187 294.618L186.763 297.554Z" fill="white"/>
<path d="M184.9 302.68L183.751 300.98H182.164L181.555 300.112L189.028 300.268L189.603 301.103L184.4 304.215L183.779 303.327L184.9 302.68ZM185.832 302.153L187.855 301.01L185.021 300.994L185.832 302.153Z" fill="white"/>
<path d="M189.69 307.518C188.184 307.661 187.068 307.098 186.775 306.057L186.551 305.272L184.688 305.447L184.436 304.546L191.19 303.913L191.667 305.596C191.961 306.637 191.225 307.376 189.69 307.518ZM189.437 306.607C190.179 306.538 190.535 306.216 190.38 305.666L190.173 304.934L187.827 305.152L188.034 305.888C188.189 306.438 188.701 306.673 189.437 306.607Z" fill="white"/>
<path d="M186.626 310.855L186.781 309.026L185.344 308.639L185.424 307.704L192.104 309.653L192.03 310.551L185.051 312.118L185.131 311.164L186.626 310.855ZM187.85 310.604L190.518 310.054L187.954 309.364L187.85 310.604Z" fill="white"/>
<path d="M189.702 317.009L183.131 315.912L183.574 315.034L186.27 315.485L187.132 313.762L184.436 313.314L184.878 312.436L191.449 313.533L191.007 314.411L188.42 313.977L187.552 315.7L190.144 316.131L189.702 317.009Z" fill="white"/>
<path d="M185.821 317.377C187.586 317.963 188.091 319.19 187.011 320.267C186.778 320.499 186.469 320.702 186.1 320.865C185.731 321.029 185.31 321.148 184.86 321.218C184.411 321.287 183.943 321.305 183.482 321.27C183.02 321.235 182.576 321.148 182.173 321.014C181.77 320.88 181.417 320.701 181.134 320.489C180.851 320.276 180.643 320.033 180.523 319.774C180.403 319.515 180.372 319.245 180.433 318.979C180.493 318.714 180.644 318.457 180.877 318.225C181.969 317.148 184.062 316.79 185.821 317.377ZM182.877 320.3C183.246 320.416 183.667 320.467 184.086 320.447C184.505 320.426 184.904 320.335 185.234 320.184C185.564 320.033 185.809 319.83 185.939 319.599C186.069 319.369 186.078 319.121 185.965 318.888C185.852 318.654 185.622 318.445 185.304 318.286C184.985 318.127 184.593 318.026 184.176 317.996C183.758 317.965 183.335 318.006 182.957 318.113C182.58 318.221 182.266 318.39 182.055 318.6C181.905 318.741 181.806 318.898 181.766 319.062C181.726 319.226 181.745 319.394 181.822 319.553C181.899 319.713 182.033 319.861 182.215 319.99C182.396 320.118 182.622 320.224 182.877 320.3Z" fill="white"/>
<path d="M183.47 323.229L182.383 323.892L179.153 322.102L180.101 325.237L179.072 325.854L174.146 323.12L175.226 322.457L178.428 324.236L177.491 321.102L178.526 320.482L183.47 323.229ZM183.993 324.528L183.24 324.979C183.17 324.935 183.083 324.9 182.986 324.878C182.889 324.856 182.785 324.848 182.681 324.852C182.578 324.857 182.477 324.876 182.388 324.906C182.298 324.937 182.222 324.978 182.165 325.028C182.081 325.064 182.012 325.109 181.963 325.162C181.914 325.215 181.886 325.273 181.881 325.333C181.876 325.393 181.894 325.452 181.935 325.507C181.975 325.562 182.036 325.612 182.113 325.651L181.36 326.102C180.682 325.714 180.711 325.247 181.602 324.717C182.493 324.187 183.297 324.147 183.993 324.528Z" fill="white"/>
<path d="M172.254 328.624L168.506 325.327L169.817 324.833L170.811 325.708L172.018 325.25V323.991L173.415 323.464L173.352 324.909C173.818 324.852 174.303 324.882 174.738 324.994C175.173 325.106 175.535 325.294 175.772 325.532C176.64 326.298 176.209 327.123 174.697 327.693L172.254 328.624ZM174.462 326.046C174.379 325.956 174.261 325.878 174.117 325.818C173.973 325.758 173.808 325.719 173.633 325.702C173.458 325.685 173.279 325.692 173.11 325.722C172.94 325.752 172.785 325.803 172.656 325.873L171.507 326.311L172.863 327.507L174.013 327.083C174.743 326.798 174.921 326.443 174.467 326.046H174.462Z" fill="white"/>
<path d="M194.374 281.26L190.172 284.372L188.924 283.818L190.04 282.99L188.89 282.48L186.814 282.874L185.498 282.284L187.89 281.85C187.645 281.614 187.537 281.34 187.58 281.067C187.623 280.793 187.816 280.535 188.131 280.329C189.108 279.603 190.597 279.573 192.023 280.216L194.374 281.26ZM189.43 280.889C188.942 281.247 189.028 281.615 189.729 281.93L190.821 282.423L192.35 281.293L191.287 280.816C190.574 280.498 189.93 280.515 189.43 280.889Z" fill="white"/>
<path d="M198.576 285.595C197.495 286.218 196.018 286.135 194.724 285.392L193.753 284.842L192.419 285.611L191.298 284.965L196.138 282.178L198.231 283.388C199.524 284.12 199.656 284.972 198.576 285.595ZM197.426 284.932C197.955 284.627 197.92 284.249 197.242 283.851L196.328 283.328L194.672 284.305L195.581 284.829C196.259 285.223 196.914 285.243 197.443 284.942L197.426 284.932Z" fill="white"/>
<path d="M198.547 286.367C200.163 285.654 202.318 285.853 203.629 286.844C204.94 287.835 204.716 289.084 203.089 289.8C202.296 290.119 201.32 290.249 200.365 290.163C199.41 290.077 198.549 289.781 197.963 289.338C197.377 288.895 197.11 288.338 197.219 287.785C197.328 287.231 197.804 286.723 198.547 286.367ZM202.117 289.064C202.447 288.912 202.692 288.708 202.821 288.476C202.95 288.244 202.958 287.996 202.843 287.762C202.728 287.527 202.496 287.318 202.175 287.16C201.855 287.001 201.46 286.901 201.041 286.871C200.622 286.841 200.197 286.884 199.82 286.993C199.442 287.102 199.129 287.272 198.919 287.484C198.709 287.695 198.612 287.937 198.64 288.18C198.668 288.423 198.82 288.655 199.076 288.849C199.244 288.986 199.46 289.101 199.71 289.187C199.96 289.273 200.239 289.328 200.528 289.349C200.817 289.369 201.111 289.354 201.389 289.305C201.668 289.256 201.926 289.174 202.146 289.064H202.117Z" fill="white"/>
<path d="M203.606 290.29C204.268 290.102 205.011 290.029 205.743 290.082C206.475 290.135 207.164 290.311 207.725 290.588C208.285 290.864 208.692 291.23 208.895 291.639C209.098 292.048 209.088 292.482 208.866 292.888L207.544 292.65C207.661 292.473 207.707 292.283 207.681 292.094C207.654 291.906 207.554 291.723 207.389 291.559C207.089 291.282 206.615 291.083 206.065 291.003C205.516 290.923 204.935 290.969 204.443 291.131C203.951 291.293 203.587 291.559 203.428 291.872C203.269 292.186 203.327 292.523 203.589 292.812C203.749 292.978 203.973 293.121 204.243 293.23C204.512 293.339 204.822 293.411 205.147 293.442L204.836 294.217C204.116 294.123 203.46 293.909 202.95 293.602C202.439 293.294 202.097 292.907 201.966 292.488C201.835 292.07 201.92 291.638 202.212 291.247C202.504 290.856 202.989 290.523 203.606 290.29Z" fill="white"/>
<path d="M211.344 296.46L210.476 295.301L205.383 296.57L204.762 295.741L209.855 294.472L208.993 293.322L210.177 293.027L212.528 296.165L211.344 296.46Z" fill="white"/>
<path d="M210.511 301.027C209.005 301.292 207.924 300.845 207.413 299.874L206.521 298.17L213.069 297.027L213.523 297.895L211.373 298.27L211.874 299.231C212.351 300.142 211.92 300.782 210.511 301.027ZM210.022 300.155C210.741 300.029 210.902 299.705 210.661 299.254L210.247 298.465L208.097 298.84L208.511 299.628C208.536 299.724 208.598 299.816 208.691 299.897C208.785 299.978 208.908 300.046 209.052 300.096C209.197 300.146 209.358 300.178 209.526 300.188C209.694 300.198 209.863 300.187 210.022 300.155Z" fill="white"/>
<path d="M166.32 344.762L164.596 340.951L166.125 340.716L166.838 342.28L169.844 341.823L169.126 340.262L170.661 340.026L172.385 343.837L170.856 344.073L170.166 342.568L167.165 343.025L167.849 344.527L166.32 344.762Z" fill="white"/>
<path d="M157.979 342.22L157.812 341.495L163.061 341.094L163.958 345.004L158.836 345.395L158.669 344.669L162.233 344.397L162.038 343.549L158.887 343.788L158.727 343.085L161.906 342.833L161.699 341.929L157.979 342.22Z" fill="white"/>
<path d="M150.5 345.508L150.466 341.564H152.052V343.181H155.162V341.564H156.749L156.784 345.511H155.197V343.957H152.087V345.514L150.5 345.508Z" fill="white"/>
<path d="M144.182 341.992L147.332 342.234L148.109 341.442L149.712 341.564L145.809 345.242L144.263 345.123L142.13 340.984L143.774 341.11L144.182 341.992ZM144.521 342.717L145.251 344.295L146.671 342.88L144.521 342.717Z" fill="white"/>
<path d="M135.128 341.041C135.438 340.378 136.519 340.106 138.192 340.378L141.451 340.878L139.686 344.689L136.611 344.202C135.082 343.967 134.34 343.473 134.633 342.843C134.709 342.665 134.875 342.503 135.11 342.379C135.346 342.255 135.64 342.174 135.956 342.147C135.614 342.048 135.344 341.883 135.192 341.681C135.041 341.478 135.018 341.252 135.128 341.041ZM138.899 342.863L137.473 342.644C136.812 342.542 136.387 342.644 136.249 342.953C136.111 343.261 136.381 343.47 137.042 343.569L138.468 343.788L138.899 342.863ZM136.645 341.352C136.496 341.683 136.795 341.882 137.502 341.988L139.181 342.25L139.629 341.286L137.945 341.027C137.237 340.918 136.795 341.017 136.645 341.352Z" fill="white"/>
<path d="M132.012 343.417L130.557 343.069L132.282 340.696L127.562 342.353L126.188 342.021L128.804 338.376L130.247 338.708L128.522 341.077L133.242 339.42L134.622 339.752L132.012 343.417Z" fill="white"/>
<path d="M126.154 339.828C125.745 340.178 125.168 340.452 124.493 340.616C123.818 340.78 123.074 340.827 122.353 340.751C121.633 340.675 120.966 340.479 120.435 340.188C119.905 339.897 119.533 339.523 119.365 339.112L120.716 338.936C120.77 339.123 120.896 339.301 121.085 339.456C121.274 339.61 121.521 339.739 121.808 339.831C122.058 339.923 122.338 339.985 122.63 340.014C122.923 340.042 123.223 340.035 123.511 339.995C123.799 339.954 124.07 339.88 124.307 339.778C124.544 339.675 124.743 339.545 124.891 339.397C125.038 339.249 125.132 339.085 125.167 338.915C125.201 338.745 125.175 338.573 125.091 338.409C125.006 338.245 124.865 338.093 124.675 337.961C124.485 337.83 124.251 337.722 123.987 337.644C123.704 337.548 123.387 337.49 123.059 337.474C122.732 337.459 122.402 337.486 122.096 337.554L121.682 336.792C122.386 336.663 123.141 336.657 123.852 336.773C124.563 336.89 125.199 337.125 125.679 337.449C126.159 337.773 126.463 338.172 126.553 338.595C126.643 339.018 126.514 339.447 126.183 339.828H126.154Z" fill="white"/>
<path d="M114.071 336.749L115.836 337.498L119.13 334.923L120.389 335.457L117.095 338.035L118.819 338.781L118.055 339.38L113.277 337.349L114.071 336.749Z" fill="white"/>
<path d="M110.806 332.561C111.881 331.898 113.203 331.971 114.491 332.663L116.75 333.876L112.082 336.759L110.932 336.143L112.467 335.195L111.197 334.509C109.984 333.846 109.8 333.17 110.806 332.561ZM111.99 333.177C111.478 333.492 111.622 333.817 112.22 334.138L113.266 334.701L114.795 333.754L113.755 333.194C113.651 333.117 113.519 333.055 113.369 333.011C113.218 332.968 113.053 332.943 112.885 332.941C112.716 332.938 112.549 332.956 112.394 332.995C112.24 333.033 112.102 333.091 111.99 333.164V333.177Z" fill="white"/>
<path d="M93.329 308.629C92.3493 308.576 91.4446 308.304 90.8101 307.87C90.1757 307.437 89.8623 306.877 89.9378 306.312C90.0133 305.746 90.4715 305.22 91.2135 304.848C91.9555 304.475 92.9218 304.286 93.9039 304.321C95.9389 304.407 97.3129 305.388 97.1519 306.624C97.1456 306.903 97.0398 307.179 96.8409 307.434C96.6421 307.688 96.3544 307.917 95.9959 308.105C95.6374 308.293 95.2157 308.436 94.7569 308.526C94.2981 308.617 93.8121 308.651 93.329 308.629ZM93.7717 305.249C93.3516 305.236 92.9346 305.296 92.5727 305.419C92.2109 305.543 91.9203 305.725 91.7374 305.943C91.5544 306.162 91.4872 306.406 91.5442 306.647C91.6011 306.887 91.7797 307.112 92.0576 307.294C92.3354 307.476 92.7002 307.607 93.1064 307.67C93.5125 307.733 93.9418 307.726 94.3408 307.649C94.7397 307.572 95.0904 307.429 95.3491 307.238C95.6078 307.047 95.763 306.816 95.7952 306.574C95.8255 306.409 95.7961 306.242 95.7088 306.084C95.6214 305.926 95.4782 305.78 95.288 305.655C95.0978 305.531 94.8648 305.43 94.6038 305.36C94.3429 305.29 94.0595 305.252 93.7717 305.249Z" fill="white"/>
<path d="M97.6866 299.874L100.331 300.205L100.021 301.03L98.6351 300.858L97.6176 303.578L99.0031 303.751L98.6926 304.579L96.0482 304.248L96.1057 304.092C96.2667 303.588 94.8812 303.283 93.0186 303.012L90.9434 302.707L92.0529 299.741L97.4854 300.404L97.6866 299.874ZM96.5369 303.022L97.1807 301.295L93.0129 300.778L92.5185 302.104L93.49 302.24C94.8697 302.448 96.0597 302.687 96.5081 303.022H96.5369Z" fill="white"/>
<path d="M92.7998 298.213L93.3747 297.362L97.5597 298.247L94.4957 295.596L95.0073 294.79L101.429 296.146L100.894 296.994L96.6859 296.109L99.7385 298.76L99.2268 299.569L92.7998 298.213Z" fill="white"/>
<path d="M98.9053 290.32L104.947 292.169L104.206 292.978L101.728 292.219L100.268 293.789L102.745 294.548L102.004 295.357L95.9619 293.504L96.7035 292.699L99.0892 293.428L100.544 291.848L98.1637 291.138L98.9053 290.32Z" fill="white"/>
<path d="M102.694 290.506C102.303 290.343 101.973 290.135 101.726 289.896C101.479 289.657 101.32 289.391 101.257 289.116C101.195 288.84 101.231 288.559 101.363 288.292C101.496 288.024 101.721 287.775 102.027 287.56C103.286 286.566 105.436 286.317 107.086 287.01C108.736 287.702 109.017 288.951 107.753 289.955C107.492 290.189 107.152 290.39 106.752 290.545C106.353 290.701 105.902 290.807 105.429 290.859C104.955 290.91 104.468 290.906 103.998 290.845C103.528 290.784 103.084 290.669 102.694 290.506ZM106.143 287.758C105.796 287.619 105.386 287.542 104.964 287.537C104.542 287.532 104.126 287.599 103.769 287.729C103.413 287.86 103.131 288.048 102.959 288.27C102.787 288.493 102.733 288.74 102.804 288.98C102.875 289.22 103.067 289.442 103.356 289.62C103.645 289.797 104.019 289.921 104.43 289.977C104.842 290.032 105.272 290.016 105.668 289.931C106.064 289.846 106.407 289.695 106.655 289.498C106.831 289.367 106.958 289.216 107.027 289.055C107.097 288.895 107.108 288.727 107.06 288.564C107.012 288.4 106.906 288.244 106.748 288.106C106.59 287.967 106.384 287.849 106.143 287.758Z" fill="white"/>
<path d="M109.357 282.738L114.318 285.452L113.243 286.115L111.455 285.137C111.239 285.438 110.933 285.715 110.553 285.956C109.288 286.721 107.931 286.781 106.736 286.128L105.184 285.276L106.259 284.614L107.684 285.392C107.811 285.48 107.971 285.549 108.152 285.595C108.332 285.641 108.529 285.662 108.726 285.658C108.923 285.653 109.116 285.622 109.289 285.567C109.462 285.513 109.612 285.436 109.725 285.343C110.073 285.133 110.342 284.884 110.513 284.61L108.282 283.388L109.357 282.738Z" fill="white"/>
<path d="M118.715 282.36L119.526 282.924L115.439 284.869L111.081 281.83L115.071 279.931L115.875 280.495L113.105 281.82L114.053 282.483L116.502 281.316L117.284 281.863L114.835 283.03L115.847 283.732L118.715 282.36Z" fill="white"/>
<path d="M118.152 281.051C117.888 280.82 117.71 280.559 117.628 280.286C117.546 280.013 117.562 279.733 117.675 279.464C117.788 279.195 117.996 278.942 118.286 278.72C118.575 278.499 118.941 278.315 119.359 278.178C119.793 278.003 120.29 277.885 120.814 277.835C121.337 277.784 121.873 277.802 122.383 277.887L122.038 278.659C121.724 278.602 121.392 278.586 121.066 278.611C120.74 278.637 120.428 278.704 120.152 278.808C119.902 278.895 119.684 279.011 119.513 279.148C119.341 279.284 119.219 279.44 119.153 279.604C119.087 279.769 119.079 279.939 119.129 280.106C119.18 280.272 119.288 280.431 119.447 280.573C119.605 280.714 119.812 280.836 120.054 280.931C120.296 281.027 120.569 281.093 120.856 281.126C121.143 281.159 121.439 281.159 121.726 281.125C122.013 281.091 122.285 281.024 122.527 280.929C122.805 280.828 123.04 280.692 123.215 280.532C123.389 280.371 123.498 280.189 123.533 280.001L124.895 280.137C124.771 280.557 124.435 280.947 123.929 281.257C123.423 281.568 122.769 281.786 122.05 281.883C121.33 281.981 120.577 281.954 119.883 281.806C119.19 281.658 118.588 281.396 118.152 281.051Z" fill="white"/>
<path d="M128.482 276.283L126.51 276.826L128.913 279.713L127.505 280.104L125.113 277.221L123.147 277.767L122.572 277.105L127.919 275.623L128.482 276.283Z" fill="white"/>
<path d="M136.674 276.74C137.082 277.403 136.455 277.966 134.822 278.304L131.655 278.967L129.355 275.256L132.351 274.636C133.839 274.328 134.937 274.49 135.323 275.103C135.433 275.273 135.454 275.458 135.382 275.635C135.311 275.812 135.15 275.973 134.92 276.097C135.297 276.069 135.679 276.118 135.999 276.235C136.32 276.353 136.558 276.532 136.674 276.74ZM131.781 276.478L133.167 276.193C133.811 276.061 134.058 275.835 133.874 275.531C133.69 275.226 133.253 275.153 132.609 275.285L131.218 275.57L131.781 276.478ZM135.127 276.985C134.932 276.671 134.478 276.598 133.788 276.74L132.155 277.072L132.73 278.009L134.368 277.678C135.064 277.552 135.328 277.307 135.127 276.985Z" fill="white"/>
<path d="M137.139 275.749C136.941 275.332 136.964 274.891 137.206 274.481C137.448 274.072 137.898 273.714 138.496 273.453C139.095 273.193 139.816 273.042 140.565 273.02C141.314 272.998 142.058 273.107 142.699 273.331C143.34 273.556 143.85 273.886 144.162 274.279C144.474 274.672 144.575 275.11 144.45 275.537C144.326 275.963 143.982 276.358 143.464 276.671C142.945 276.983 142.276 277.199 141.543 277.29C139.427 277.552 137.565 276.889 137.139 275.749ZM142.888 275.037C142.79 274.8 142.574 274.585 142.266 274.419C141.957 274.253 141.571 274.143 141.154 274.103C140.738 274.063 140.311 274.095 139.925 274.195C139.54 274.294 139.215 274.457 138.989 274.662C138.764 274.868 138.649 275.107 138.658 275.351C138.668 275.594 138.801 275.83 139.043 276.029C139.284 276.229 139.622 276.383 140.015 276.472C140.407 276.562 140.837 276.582 141.25 276.531C141.534 276.502 141.805 276.439 142.044 276.347C142.284 276.254 142.488 276.133 142.642 275.993C142.797 275.852 142.899 275.695 142.943 275.53C142.986 275.365 142.969 275.198 142.894 275.037H142.888Z" fill="white"/>
<path d="M85.2296 279.739C86.4828 280.24 86.6208 281.091 85.5803 281.959L84.8042 282.622L86.3564 283.238L85.4481 283.981L79.8086 281.747L81.4872 280.339C82.5392 279.471 83.9649 279.239 85.2296 279.739ZM84.2983 280.501C83.6775 280.256 83.0394 280.342 82.4932 280.803L81.7574 281.416L83.7235 282.191L84.4535 281.578C85.0169 281.121 84.9307 280.743 84.2983 280.501Z" fill="white"/>
<path d="M91.7715 277.927L92.7545 278.39L89.4087 280.757L84.1084 278.265L87.3737 275.945L88.3625 276.409L86.063 278.013L87.2127 278.556L89.2248 277.138L90.1791 277.585L88.167 279.004L89.3972 279.58L91.7715 277.927Z" fill="white"/>
<path d="M96.3247 274.629C97.1813 275.106 97.0605 275.786 95.8533 276.502L93.4963 277.883L88.5869 275.136L90.8059 273.811C91.9039 273.148 93.0134 273.022 93.8297 273.479C94.0578 273.604 94.2179 273.765 94.2904 273.941C94.3628 274.118 94.3446 274.303 94.2379 274.474C94.5606 274.352 94.9485 274.3 95.3313 274.329C95.7141 274.357 96.0665 274.464 96.3247 274.629ZM91.7257 275.623L92.7547 275.014C93.2319 274.729 93.2779 274.467 92.887 274.248C92.496 274.03 92.0361 274.063 91.559 274.348L90.5357 274.957L91.7257 275.623ZM95.1175 275.229C94.7036 274.997 94.2437 275.044 93.732 275.348L92.519 276.068L93.7608 276.76L94.9737 276.041C95.4854 275.753 95.5429 275.481 95.1175 275.232V275.229Z" fill="white"/>
<path d="M98.8311 269.626L103.275 272.608L102.068 273.201L100.251 271.972L97.8883 273.135L99.7107 274.364L98.5035 274.957L94.0654 271.975L95.2669 271.382L96.9915 272.562L99.3485 271.398L97.6239 270.219L98.8311 269.626Z" fill="white"/>
<path d="M102.166 270.593C101.016 269.632 101.447 268.399 103.218 267.687C104.988 266.974 107.144 267.163 108.311 268.128C108.821 268.598 108.998 269.163 108.805 269.707C108.612 270.25 108.064 270.73 107.274 271.046C106.484 271.363 105.514 271.493 104.563 271.409C103.612 271.324 102.753 271.032 102.166 270.593ZM106.995 268.658C106.746 268.462 106.403 268.313 106.008 268.229C105.614 268.145 105.185 268.13 104.775 268.186C104.366 268.242 103.994 268.366 103.707 268.543C103.419 268.72 103.229 268.942 103.159 269.182C103.089 269.421 103.144 269.667 103.315 269.888C103.487 270.109 103.768 270.297 104.124 270.427C104.479 270.557 104.893 270.623 105.314 270.618C105.734 270.613 106.143 270.536 106.489 270.398C106.727 270.307 106.93 270.189 107.086 270.051C107.241 269.913 107.346 269.758 107.394 269.596C107.441 269.434 107.43 269.268 107.362 269.108C107.293 268.948 107.168 268.799 106.995 268.668V268.658Z" fill="white"/>
<path d="M109.11 267.879C108.781 267.498 108.654 267.07 108.744 266.647C108.834 266.225 109.137 265.827 109.616 265.503C110.095 265.18 110.729 264.944 111.438 264.826C112.147 264.708 112.901 264.713 113.606 264.84L113.192 265.599C112.885 265.533 112.557 265.507 112.23 265.524C111.904 265.54 111.588 265.599 111.306 265.695C111.042 265.773 110.808 265.881 110.618 266.013C110.429 266.144 110.287 266.296 110.203 266.46C110.118 266.624 110.093 266.796 110.127 266.966C110.161 267.136 110.255 267.3 110.403 267.449C110.551 267.597 110.749 267.726 110.986 267.829C111.224 267.932 111.495 268.006 111.783 268.046C112.071 268.087 112.37 268.093 112.663 268.065C112.956 268.037 113.235 267.975 113.485 267.882C113.773 267.79 114.021 267.66 114.209 267.504C114.397 267.348 114.521 267.169 114.572 266.981L115.923 267.16C115.762 267.576 115.393 267.955 114.86 268.25C114.328 268.546 113.657 268.744 112.93 268.821C112.203 268.898 111.453 268.849 110.774 268.682C110.095 268.514 109.516 268.235 109.11 267.879Z" fill="white"/>
<path d="M119.624 263.349L117.641 263.886L119.992 266.782L118.572 267.163L116.227 264.267L114.249 264.797L113.703 264.135L119.078 262.687L119.624 263.349Z" fill="white"/>
<path d="M127.489 263.585C128.035 264.436 127.334 265.086 125.684 265.44L122.81 266.06L120.424 262.362L121.901 262.047L122.683 263.263L124.316 262.912C125.839 262.58 126.977 262.786 127.489 263.585ZM126.006 263.916C125.741 263.512 125.178 263.439 124.408 263.604L123.068 263.893L123.85 265.106L125.189 264.821C125.354 264.8 125.508 264.759 125.642 264.7C125.776 264.641 125.885 264.566 125.963 264.48C126.041 264.394 126.085 264.299 126.092 264.202C126.1 264.105 126.07 264.009 126.006 263.919V263.916Z" fill="white"/>
<path d="M225.107 286.257L223.526 284.67L221.951 284.789L221.117 283.977L228.59 283.537L229.372 284.319L224.969 287.825L224.135 286.996L225.107 286.257ZM225.9 285.664L227.625 284.368L224.814 284.577L225.9 285.664Z" fill="white"/>
<path d="M232.339 289.376L230.954 287.679L225.935 289.048L225.263 288.229L231.466 286.546L233.524 289.064L232.339 289.376Z" fill="white"/>
<path d="M233.834 293.508C232.408 293.819 231.115 293.398 230.465 292.411L229.976 291.669L228.212 292.053L227.637 291.201L234.052 289.813L235.098 291.41C235.748 292.384 235.265 293.193 233.834 293.508ZM233.259 292.643C233.96 292.491 234.202 292.136 233.834 291.616L233.374 290.92L231.155 291.404L231.615 292.099C231.983 292.623 232.569 292.795 233.265 292.643H233.259Z" fill="white"/>
<path d="M232.695 297.63L231.471 297.832L230.005 294.9L236.581 293.809L238.013 296.673L236.788 296.875L235.794 294.886L234.368 295.122L235.248 296.881L234.063 297.077L233.19 295.314L231.666 295.569L232.695 297.63Z" fill="white"/>
<path d="M234.994 297.822C235.726 297.765 236.471 297.832 237.137 298.017C237.802 298.201 238.359 298.495 238.738 298.86C239.117 299.226 239.3 299.647 239.266 300.073C239.232 300.498 238.982 300.908 238.547 301.252L237.432 300.782C237.639 300.635 237.786 300.464 237.864 300.281C237.941 300.097 237.947 299.906 237.88 299.721C237.75 299.403 237.411 299.126 236.934 298.949C236.457 298.772 235.879 298.708 235.322 298.772C234.766 298.835 234.274 299.021 233.95 299.29C233.626 299.558 233.495 299.889 233.586 300.212C233.65 300.399 233.786 300.576 233.985 300.728C234.184 300.881 234.441 301.006 234.736 301.093L234.017 301.756C233.383 301.536 232.875 301.214 232.558 300.828C232.241 300.443 232.129 300.012 232.235 299.59C232.341 299.168 232.662 298.774 233.156 298.456C233.65 298.139 234.295 297.913 235.011 297.806L234.994 297.822Z" fill="white"/>
<path d="M236.345 301.839C237.082 301.817 237.814 301.921 238.449 302.138C239.085 302.354 239.596 302.673 239.919 303.055C240.242 303.438 240.364 303.866 240.268 304.288C240.172 304.71 239.864 305.106 239.381 305.428L238.363 304.904C238.592 304.769 238.765 304.606 238.87 304.427C238.974 304.248 239.007 304.057 238.967 303.87C238.903 303.538 238.612 303.234 238.16 303.025C237.707 302.816 237.129 302.72 236.552 302.757C235.976 302.794 235.449 302.961 235.086 303.222C234.724 303.483 234.557 303.816 234.621 304.148C234.653 304.337 234.759 304.52 234.931 304.682C235.103 304.844 235.337 304.981 235.615 305.083L234.77 305.719C234.173 305.469 233.716 305.123 233.459 304.724C233.201 304.324 233.153 303.89 233.321 303.476C233.489 303.061 233.866 302.684 234.404 302.393C234.942 302.101 235.617 301.907 236.345 301.835V301.839Z" fill="white"/>
<path d="M240.56 306.246L240.589 307.151L236.134 307.197L240.663 309.033V309.888L233.828 309.961L233.8 309.059L238.243 309.013L233.765 307.177L233.736 306.316L240.56 306.246Z" fill="white"/>
<path d="M240.192 314.282L233.374 314.004L233.489 313.106L235.3 313.182L235.403 312.35L233.679 311.578L233.799 310.617L235.748 311.525C235.951 311.276 236.286 311.071 236.705 310.94C237.123 310.808 237.604 310.756 238.076 310.793C239.669 310.862 240.537 311.558 240.405 312.599L240.192 314.282ZM237.984 311.7C237.197 311.667 236.714 311.913 236.651 312.423L236.547 313.222L239.019 313.328L239.123 312.552C239.186 312.035 238.807 311.737 237.984 311.7Z" fill="white"/>
<path d="M147.638 357.334C147.516 357.754 147.182 358.144 146.678 358.456C146.175 358.767 145.523 358.986 144.805 359.086C144.087 359.185 143.334 359.161 142.64 359.016C141.945 358.871 141.341 358.611 140.9 358.269L142.01 357.792C142.191 357.95 142.431 358.083 142.713 358.181C142.994 358.279 143.31 358.339 143.637 358.358C144.201 358.379 144.756 358.274 145.189 358.064C145.621 357.854 145.895 357.557 145.956 357.233C146.016 356.909 145.856 356.584 145.511 356.327C145.166 356.069 144.661 355.898 144.102 355.85C143.775 355.828 143.443 355.848 143.132 355.91C142.82 355.972 142.537 356.074 142.303 356.208L141.395 355.608C141.949 355.326 142.634 355.145 143.366 355.086C144.097 355.028 144.843 355.095 145.509 355.279C146.175 355.463 146.732 355.756 147.11 356.122C147.489 356.487 147.672 356.909 147.638 357.334Z" fill="white"/>
<path d="M137.503 356.155L138.578 356.274L139.101 354.713L140.647 354.886L139.342 358.759L137.796 358.587L138.325 357.02L137.209 356.897L134.91 358.262L133.277 358.077L136.106 356.453L134.513 354.196L136.278 354.395L137.503 356.155Z" fill="white"/>
<path d="M133.467 356.088C133.148 356.609 132.496 357.039 131.644 357.291C130.792 357.543 129.805 357.597 128.886 357.443C127.967 357.288 127.185 356.937 126.7 356.461C126.216 355.985 126.066 355.42 126.282 354.882C126.856 353.752 128.794 353.182 130.881 353.527C131.349 353.591 131.789 353.709 132.175 353.874C132.562 354.039 132.886 354.248 133.128 354.488C133.37 354.727 133.524 354.993 133.583 355.268C133.641 355.543 133.602 355.822 133.467 356.088ZM127.817 355.141C127.708 355.375 127.722 355.623 127.856 355.852C127.99 356.082 128.239 356.284 128.572 356.433C128.904 356.582 129.306 356.67 129.725 356.688C130.145 356.706 130.564 356.652 130.931 356.533C131.298 356.414 131.595 356.236 131.787 356.02C131.978 355.804 132.055 355.56 132.007 355.319C131.96 355.078 131.79 354.85 131.519 354.665C131.248 354.479 130.888 354.344 130.484 354.276C130.211 354.226 129.923 354.208 129.637 354.225C129.352 354.242 129.076 354.292 128.826 354.373C128.576 354.454 128.357 354.563 128.183 354.695C128.01 354.826 127.885 354.977 127.817 355.137V355.141Z" fill="white"/>
<path d="M119.112 353.845C119.687 353.03 121.084 352.761 122.786 353.149L124.068 353.437L124.758 352.427L126.229 352.758L123.723 356.42L120.969 355.793C119.268 355.426 118.555 354.67 119.112 353.845ZM120.607 354.176C120.331 354.581 120.607 354.922 121.521 355.124L122.723 355.396L123.591 354.123L122.395 353.852C121.492 353.653 120.877 353.785 120.607 354.183V354.176Z" fill="white"/>
<path d="M116.841 354.816L111.897 353.401L112.472 352.738L116.008 353.752L116.634 353.023L114.939 352.539C113.461 352.115 112.972 351.522 113.559 350.846C114.145 350.17 115.421 349.991 117.008 350.442L119.911 351.274L116.841 354.816ZM116.537 351.078C115.807 350.873 115.272 350.926 114.996 351.244C114.72 351.562 114.996 351.814 115.72 352.029L117.134 352.433L117.957 351.486L116.537 351.078Z" fill="white"/>
<path d="M107.293 348.835C108.109 348.059 109.432 347.98 110.932 348.503L113.571 349.431L110.006 352.795L108.667 352.324L109.817 351.217L108.334 350.697C106.954 350.203 106.534 349.56 107.293 348.835ZM108.667 349.299C108.276 349.67 108.529 349.961 109.242 350.216L110.455 350.644L111.605 349.537L110.386 349.11C110.256 349.051 110.106 349.009 109.946 348.986C109.786 348.964 109.619 348.961 109.457 348.979C109.295 348.997 109.142 349.035 109.008 349.09C108.873 349.145 108.761 349.216 108.678 349.299H108.667Z" fill="white"/>
<path d="M92.4265 257.504C92.0729 257.139 91.9132 256.721 91.9674 256.304C92.0215 255.887 92.2871 255.488 92.7312 255.158C93.1752 254.827 93.7781 254.579 94.465 254.444C95.1518 254.309 95.8923 254.293 96.5943 254.399L96.2552 255.158C95.9476 255.101 95.6219 255.084 95.3018 255.109C94.9817 255.133 94.675 255.199 94.4041 255.3C93.976 255.489 93.6861 255.763 93.5915 256.069C93.4968 256.375 93.6044 256.69 93.893 256.952C94.1816 257.215 94.6302 257.405 95.1504 257.487C95.6706 257.568 96.2248 257.534 96.7036 257.391C96.9777 257.291 97.2094 257.157 97.3816 256.999C97.5537 256.841 97.6619 256.662 97.6981 256.476L99.0375 256.616C98.9136 257.028 98.5813 257.411 98.0822 257.716C97.5831 258.02 96.9394 258.233 96.2315 258.328C95.5235 258.423 94.7828 258.395 94.102 258.248C93.4212 258.102 92.8304 257.843 92.4035 257.504H92.4265Z" fill="white"/>
<path d="M102.217 252.715L100.337 253.318L102.999 256.069L101.654 256.5L98.998 253.749L97.1239 254.356L96.5088 253.716L101.602 252.079L102.217 252.715Z" fill="white"/>
<path d="M109.082 251.552C109.731 252.331 109.116 253.096 107.495 253.54L106.276 253.872L107.075 254.836L105.673 255.224L102.764 251.725L105.391 251.002C107.012 250.561 108.443 250.767 109.082 251.552ZM107.662 251.943C107.34 251.559 106.719 251.453 105.862 251.691L104.712 252.006L105.719 253.222L106.868 252.891C107.731 252.669 107.972 252.324 107.662 251.943Z" fill="white"/>
<path d="M115.157 251.9L112.283 252.563V253.464L110.8 253.796L111.076 249.551L112.507 249.219L117.807 252.172L116.29 252.523L115.157 251.9ZM114.261 251.373L112.312 250.223V251.831L114.261 251.373Z" fill="white"/>
<path d="M117.261 248.222L119.221 249.09L119.94 247.728L121.665 247.397L120.515 249.561L123.907 251.052L122.182 251.383L120.003 250.442L119.221 251.94L117.497 252.271L118.71 249.952L115.554 248.553L117.261 248.222Z" fill="white"/>
<path d="M213.362 258.233C212.73 258.803 211.574 258.869 210.137 258.342L207.32 257.312L210.948 254.044L213.586 255.018C214.903 255.502 215.34 256.092 214.736 256.632C214.572 256.786 214.333 256.908 214.048 256.984C213.764 257.059 213.447 257.084 213.138 257.056C213.411 257.205 213.584 257.405 213.625 257.621C213.666 257.836 213.573 258.053 213.362 258.233ZM212.103 257.669C212.408 257.394 212.235 257.149 211.632 256.924L210.189 256.394L209.269 257.219L210.712 257.749C211.344 258.001 211.787 257.968 212.103 257.669ZM210.769 255.877L211.988 256.331C212.563 256.539 213.006 256.513 213.299 256.251C213.592 255.989 213.437 255.744 212.873 255.535L211.649 255.085L210.769 255.877Z" fill="white"/>
<path d="M217.272 256.407L218.513 256.94L215.898 258.965L221.072 258.044L222.221 258.548L218.243 261.646L217.007 261.116L219.623 259.094L214.449 260.012L213.271 259.505L217.272 256.407Z" fill="white"/>
<path d="M228.521 261.609L224.123 264.545L222.945 263.966L224.75 262.763L222.45 261.609L220.645 262.812L219.467 262.226L223.865 259.293L225.043 259.88L223.318 261.036L225.618 262.186L227.343 261.03L228.521 261.609Z" fill="white"/>
<path d="M229.516 266.438L227.308 265.165L225.866 265.497L224.716 264.834L231.614 263.316L232.701 263.942L230.074 267.919L228.924 267.256L229.516 266.438ZM230.005 265.755L231.074 264.27L228.498 264.887L230.005 265.755Z" fill="white"/>
<path d="M251.494 335.149C251.917 335.272 252.292 335.443 252.596 335.653C252.901 335.862 253.127 336.105 253.263 336.367C253.399 336.629 253.44 336.904 253.385 337.175C253.33 337.447 253.179 337.709 252.942 337.946C251.988 339.036 249.97 339.46 248.177 338.94C247.355 338.67 246.745 338.229 246.472 337.707C246.199 337.185 246.285 336.623 246.711 336.137C247.137 335.65 247.871 335.277 248.761 335.094C249.651 334.91 250.629 334.931 251.494 335.152V335.149ZM248.884 338.131C249.257 338.232 249.674 338.268 250.082 338.234C250.49 338.2 250.872 338.097 251.18 337.938C251.488 337.78 251.708 337.573 251.813 337.343C251.919 337.113 251.904 336.871 251.772 336.645C251.64 336.42 251.396 336.222 251.07 336.076C250.745 335.93 250.352 335.843 249.94 335.824C249.529 335.806 249.117 335.858 248.757 335.974C248.396 336.089 248.102 336.263 247.912 336.474C247.776 336.618 247.693 336.776 247.668 336.94C247.643 337.103 247.678 337.267 247.769 337.422C247.86 337.578 248.007 337.72 248.198 337.841C248.39 337.962 248.624 338.058 248.884 338.124V338.131Z" fill="white"/>
<path d="M250.39 340.597L247.608 343.284L246.544 342.916L248.533 340.994L247.349 340.587L246.412 341.508C245.578 342.313 244.538 342.542 243.434 342.171C242.33 341.799 242.118 341.05 243.003 340.182L244.641 338.605L250.39 340.597ZM244.015 340.484C243.606 340.878 243.658 341.186 244.176 341.365C244.693 341.544 245.147 341.422 245.567 341.017L246.366 340.249L244.814 339.715L244.015 340.484Z" fill="white"/>
<path d="M246.527 344.262L245.642 344.994L242.043 343.549L243.802 346.512L242.963 347.201L237.444 344.984L238.324 344.258L241.911 345.7L240.158 342.741L241.003 342.045L246.527 344.262Z" fill="white"/>
<path d="M233.149 349.249L231.085 348.281L231.993 347.635L233.074 348.135L236.069 346.011L234.988 345.504L235.897 344.858L237.96 345.832L237.788 345.952C237.259 346.356 238.236 346.979 239.656 347.691L241.237 348.5L237.978 350.819L233.741 348.831L233.149 349.249ZM236.598 346.793L234.718 348.135L237.966 349.66L239.426 348.629L238.679 348.258C237.604 347.714 236.747 347.198 236.638 346.81L236.598 346.793Z" fill="white"/>
<path d="M229.419 351.688L231.563 350.362L230.919 349.544L232.017 348.881L234.851 352.798L233.799 353.461L226.866 352.052L227.987 351.366L229.419 351.688ZM230.614 351.95L233.218 352.519L232.069 351.055L230.614 351.95Z" fill="white"/>
<path d="M170.626 368.817L170.5 368.402L171.908 368.26L172.035 368.681C174.305 368.532 175.714 369.012 176.013 370.006C176.312 371 175.265 371.726 173.041 372.028L173.161 372.419L171.747 372.561L171.632 372.173C169.373 372.319 167.959 371.842 167.66 370.848C167.361 369.854 168.396 369.105 170.626 368.817ZM169.137 370.695C169.315 371.285 170.086 371.537 171.437 371.471L170.862 369.509C169.517 369.715 168.959 370.102 169.137 370.695ZM172.242 369.37L172.816 371.328C174.139 371.123 174.69 370.749 174.512 370.152C174.334 369.556 173.546 369.317 172.253 369.37H172.242Z" fill="white"/>
<path d="M166.809 370.901C166.911 371.323 166.79 371.753 166.463 372.135C166.135 372.517 165.616 372.833 164.974 373.043C164.331 373.253 163.593 373.347 162.856 373.313C162.12 373.279 161.418 373.118 160.842 372.851C160.266 372.584 159.842 372.224 159.625 371.816C159.408 371.409 159.409 370.974 159.626 370.566C159.844 370.159 160.268 369.799 160.845 369.533C161.421 369.266 162.123 369.106 162.86 369.072C163.33 369.034 163.808 369.053 164.265 369.125C164.723 369.198 165.149 369.324 165.519 369.496C165.889 369.667 166.194 369.88 166.416 370.121C166.638 370.363 166.772 370.628 166.809 370.901ZM161.061 371.169C161.101 371.407 161.262 371.633 161.523 371.818C161.785 372.004 162.136 372.14 162.532 372.211C162.928 372.282 163.352 372.284 163.75 372.216C164.148 372.149 164.502 372.015 164.768 371.831C165.034 371.648 165.201 371.424 165.246 371.186C165.292 370.948 165.215 370.708 165.024 370.496C164.834 370.284 164.539 370.108 164.176 369.992C163.814 369.876 163.4 369.825 162.987 369.844C162.704 369.851 162.426 369.891 162.172 369.963C161.918 370.035 161.692 370.136 161.509 370.261C161.326 370.385 161.19 370.53 161.109 370.687C161.028 370.843 161.003 371.007 161.038 371.169H161.061Z" fill="white"/>
<path d="M158.238 373.227L152.805 373.294V372.581L156.686 372.535L156.657 371.736L154.795 371.756C153.168 371.776 152.282 371.388 152.254 370.646C152.225 369.904 153.196 369.41 154.932 369.39L158.123 369.35L158.238 373.227ZM155.019 370.053C154.22 370.053 153.794 370.251 153.806 370.599C153.817 370.947 154.237 371.103 155.053 371.093H156.611L156.577 370.049L155.019 370.053Z" fill="white"/>
<path d="M150.788 373.287L149.242 373.24L149.46 370.719L146.011 373.151L144.551 373.111L144.878 369.237L146.413 369.281L146.201 371.799L149.621 369.37L151.093 369.413L150.788 373.287Z" fill="white"/>
<path d="M137.227 372.634L138.026 368.783L139.555 368.889L139.342 369.913L140.751 370.01L142.147 369.068L143.78 369.181L142.147 370.245C142.563 370.371 142.899 370.57 143.105 370.813C143.312 371.056 143.379 371.33 143.297 371.597C143.113 372.492 141.883 372.955 140.118 372.833L137.227 372.634ZM141.722 371.501C141.814 371.053 141.417 370.772 140.572 370.712L139.216 370.616L138.928 372.014L140.245 372.104C141.095 372.163 141.624 371.961 141.722 371.501Z" fill="white"/>
<path d="M65.2465 347.264L66.5859 348.235L70.8572 346.273L71.8172 346.969L67.546 348.931L68.8796 349.895L67.8909 350.352L64.252 347.721L65.2465 347.264Z" fill="white"/>
<path d="M62.1257 343.552C63.3559 343.055 64.7643 343.277 65.7991 344.126L66.5752 344.765L68.0928 344.152L68.9896 344.888L63.4766 347.111L61.8038 345.74C60.7747 344.888 60.8955 344.049 62.1257 343.552ZM63.034 344.295C62.4246 344.54 62.3499 344.911 62.896 345.358L63.6203 345.958L65.5347 345.186L64.8046 344.586C64.2584 344.139 63.6318 344.053 63.0282 344.295H63.034Z" fill="white"/>
<path d="M61.3613 339.493L62.4306 339.115L65.1497 341.68L59.401 343.705L56.7451 341.203L57.8144 340.825L59.6597 342.565L60.9072 342.128L59.2745 340.59L60.3093 340.225L61.9419 341.763L63.2699 341.292L61.3613 339.493Z" fill="white"/>
<path d="M57.4287 336.024C58.4635 335.709 59.527 335.98 60.3031 336.849L61.8437 338.542L55.8938 340.345L54.4394 338.747C53.7093 337.955 53.8358 337.316 54.8188 337.018C55.0927 336.93 55.4059 336.891 55.7183 336.906C56.0306 336.922 56.3279 336.99 56.5721 337.104C56.4697 336.894 56.4996 336.671 56.6564 336.473C56.8133 336.275 57.087 336.116 57.4287 336.024ZM57.6587 338.807L56.9803 338.068C56.6699 337.737 56.256 337.617 55.7788 337.763C55.3017 337.909 55.204 338.164 55.5374 338.505L56.21 339.248L57.6587 338.807ZM58.0496 336.862C57.5494 337.014 57.4747 337.276 57.8196 337.644L58.6187 338.519L60.1536 338.061L59.3258 337.2C59.0038 336.822 58.5727 336.703 58.0496 336.869V336.862Z" fill="white"/>
<path d="M55.7218 335.964C54.8407 336.147 53.8718 336.13 53.0116 335.916C52.1513 335.703 51.4641 335.309 51.089 334.814C50.714 334.32 50.6793 333.761 50.992 333.252C51.3046 332.743 51.9412 332.322 52.7727 332.074C54.6181 331.61 56.5899 332.097 57.4407 333.217C57.6546 333.461 57.7799 333.727 57.8088 334C57.8376 334.273 57.7695 334.547 57.6086 334.804C57.4477 335.061 57.1973 335.297 56.8729 335.496C56.5484 335.696 56.1567 335.855 55.7218 335.964ZM53.4223 332.905C53.0451 333.006 52.7277 333.168 52.5099 333.372C52.2921 333.576 52.1836 333.812 52.1981 334.052C52.2126 334.291 52.3493 334.523 52.5912 334.718C52.8331 334.912 53.1694 335.061 53.5579 335.146C53.9463 335.231 54.3697 335.248 54.7748 335.195C55.1799 335.142 55.5488 335.021 55.8352 334.848C56.1216 334.674 56.3127 334.456 56.3846 334.22C56.4564 333.984 56.4059 333.741 56.2392 333.522C56.1358 333.368 55.9778 333.228 55.7754 333.112C55.573 332.996 55.3306 332.905 55.0638 332.845C54.7969 332.786 54.5115 332.76 54.2259 332.768C53.9403 332.776 53.6607 332.818 53.4051 332.892L53.4223 332.905Z" fill="white"/>
<path d="M48.7543 329.197L49.8408 330.934L54.9744 329.857L55.4976 330.698L49.174 332.024L47.5586 329.449L48.7543 329.197Z" fill="white"/>
<path d="M51.3066 326.092L52.2149 327.815L53.7727 327.902L54.2384 328.78L46.9318 328.253L46.4834 327.404L52.0424 324.614L52.5195 325.516L51.3066 326.092ZM50.3178 326.563L48.1678 327.59L50.9386 327.746L50.3178 326.563Z" fill="white"/>
<path d="M70.0649 250.608L67.5009 251.874L71.2606 254.389L70.0189 255.018L65.4199 251.913L69.2198 250.034L70.0649 250.608Z" fill="white"/>
<path d="M75.3878 247.261L79.6936 250.508L78.3886 251.085L76.6238 249.759L74.0599 250.886L75.8305 252.212L74.5255 252.785L70.2197 249.537L71.5247 248.961L73.2205 250.243L75.7787 249.117L74.0541 247.834L75.3878 247.261Z" fill="white"/>
<path d="M84.8737 247.559L85.6095 248.189L81.0508 249.955L77.0957 246.562L81.5395 244.839L82.2753 245.468L79.1825 246.668L80.0448 247.403L82.7754 246.343L83.4883 246.956L80.7576 248.016L81.6717 248.802L84.8737 247.559Z" fill="white"/>
<path d="M91.0191 244.981C91.6457 245.594 91.2088 246.253 89.6682 246.784L86.6616 247.811L83.0342 244.295L85.8798 243.324C87.2882 242.84 88.461 242.88 89.0646 243.463C89.2374 243.625 89.3231 243.813 89.3108 244.003C89.2985 244.193 89.1888 244.376 88.9956 244.53C89.371 244.457 89.7794 244.461 90.1493 244.544C90.5193 244.626 90.8272 244.781 91.0191 244.981ZM85.943 245.273L87.2537 244.822C87.8688 244.613 88.0356 244.358 87.7481 244.076C87.4607 243.795 86.9835 243.745 86.3742 243.967L85.0635 244.414L85.943 245.273ZM89.5187 245.405C89.214 245.11 88.7312 245.074 88.0758 245.309L86.5236 245.839L87.4434 246.727L88.9956 246.197C89.6452 245.975 89.8349 245.713 89.5187 245.408V245.405Z" fill="white"/>
<path d="M169.604 236.219C169.46 236.988 167.931 237.339 166.235 237.237C165.249 237.177 164.307 236.972 163.499 236.64L164.131 235.997C164.732 236.254 165.441 236.414 166.184 236.461C167.115 236.518 167.908 236.369 167.977 235.987C168.035 235.683 167.575 235.5 166.827 235.454L165.103 235.348L165.235 234.639L166.839 234.738C167.506 234.778 167.92 234.635 167.989 234.367C168.052 234.036 167.46 233.824 166.661 233.774C165.996 233.737 165.325 233.797 164.712 233.949L164.356 233.184C165.148 233.013 165.998 232.951 166.839 233.002C168.472 233.104 169.8 233.621 169.667 234.357C169.634 234.544 169.504 234.721 169.294 234.865C169.083 235.008 168.803 235.112 168.489 235.162C168.848 235.246 169.15 235.394 169.351 235.584C169.552 235.775 169.641 235.997 169.604 236.219Z" fill="white"/>
<path d="M175.571 237.041L172.323 236.73L171.455 237.535L169.794 237.376L174.077 233.638L175.681 233.79L177.647 238.118L175.922 237.956L175.571 237.041ZM175.267 236.282L174.606 234.626L173.048 236.064L175.267 236.282Z" fill="white"/>
<path d="M184.999 237.923C184.723 238.619 183.614 238.917 181.866 238.691L178.457 238.237L180.044 234.261L183.269 234.688C184.867 234.9 185.666 235.398 185.407 236.057C185.335 236.241 185.171 236.409 184.935 236.54C184.699 236.67 184.401 236.758 184.079 236.793C184.44 236.888 184.731 237.053 184.899 237.26C185.068 237.467 185.103 237.702 184.999 237.923ZM183.412 237.634C183.545 237.303 183.223 237.088 182.481 236.991L180.722 236.76L180.32 237.754L182.079 237.986C182.82 238.098 183.269 237.982 183.412 237.634ZM180.981 236.13L182.47 236.329C183.16 236.422 183.619 236.302 183.723 235.997C183.826 235.692 183.55 235.464 182.855 235.374L181.366 235.176L180.981 236.13Z" fill="white"/>
<path d="M187.712 235.302L189.276 235.57L187.959 238.118L192.518 236.13L193.995 236.382L191.983 240.302L190.426 240.037L191.736 237.489L187.183 239.477L185.694 239.222L187.712 235.302Z" fill="white"/>
<path d="M194.317 238.589C194.624 238.185 195.129 237.841 195.771 237.601C196.413 237.361 197.162 237.235 197.927 237.238C198.692 237.241 199.439 237.374 200.075 237.619C200.71 237.864 201.207 238.212 201.503 238.619L200.181 238.95C200.067 238.765 199.882 238.598 199.642 238.459C199.401 238.32 199.11 238.214 198.79 238.148C198.507 238.083 198.205 238.051 197.901 238.054C197.597 238.058 197.297 238.097 197.019 238.168C196.741 238.24 196.491 238.343 196.284 238.471C196.076 238.6 195.916 238.751 195.812 238.916C195.708 239.08 195.662 239.256 195.678 239.431C195.694 239.606 195.77 239.777 195.903 239.935C196.036 240.093 196.223 240.234 196.452 240.349C196.682 240.465 196.949 240.552 197.238 240.607C197.557 240.676 197.899 240.703 198.238 240.685C198.578 240.668 198.906 240.606 199.198 240.504L199.848 241.226C199.166 241.432 198.394 241.517 197.628 241.47C196.863 241.423 196.139 241.247 195.546 240.964C194.954 240.681 194.52 240.303 194.3 239.878C194.079 239.453 194.081 239 194.306 238.575L194.317 238.589Z" fill="white"/>
<path d="M207.546 240.232L205.459 239.719L203.2 242.767L201.711 242.403L203.97 239.351L201.889 238.841L202.412 238.131L208.069 239.523L207.546 240.232Z" fill="white"/>
<path d="M212.731 243.791C212.012 244.636 210.655 244.785 209.017 244.328L206.143 243.513L209.276 239.841L210.77 240.259L209.741 241.465L211.345 241.922C212.869 242.36 213.403 242.999 212.731 243.791ZM211.236 243.387C211.581 242.983 211.265 242.688 210.506 242.469L209.178 242.095L208.143 243.298L209.477 243.675C209.619 243.736 209.783 243.778 209.957 243.796C210.131 243.815 210.31 243.81 210.48 243.782C210.65 243.754 210.807 243.704 210.938 243.636C211.069 243.567 211.171 243.482 211.236 243.387Z" fill="white"/>
<path d="M279.887 300.967C278.559 301.07 277.587 300.304 277.38 299.31C277.245 298.744 277.368 298.167 277.737 297.637L278.967 297.836C278.679 298.234 278.58 298.67 278.68 299.098C278.8 299.628 279.255 300.039 279.898 299.986C280.427 299.947 280.628 299.655 280.525 299.224L280.295 298.23L281.525 298.134L281.738 299.055C281.824 299.436 282.169 299.635 282.629 299.599C283.204 299.555 283.422 299.171 283.313 298.714C283.217 298.333 282.958 297.972 282.56 297.663L283.779 297.302C284.257 297.703 284.563 298.165 284.67 298.648C284.888 299.585 284.336 300.454 283.06 300.553C282.738 300.578 282.41 300.547 282.119 300.464C281.828 300.381 281.587 300.249 281.427 300.086C281.374 300.31 281.194 300.517 280.916 300.677C280.637 300.836 280.276 300.938 279.887 300.967Z" fill="white"/>
<path d="M285.601 305.133L278.525 305.441L278.404 304.51L284.153 304.258L283.969 302.859L282.491 302.896C279.703 302.965 278.076 302.806 277.95 301.852C277.934 301.693 277.952 301.534 278.001 301.378H279.393C279.376 301.434 279.376 301.491 279.393 301.547C279.456 302.024 280.542 302.104 282.336 302.064L285.21 301.998L285.601 305.133Z" fill="white"/>
<path d="M282.146 306.094C284.256 306.094 285.831 307.018 285.854 308.311C285.877 309.603 284.336 310.557 282.221 310.57C280.105 310.584 278.536 309.636 278.513 308.35C278.49 307.065 280.036 306.104 282.146 306.094ZM282.204 309.609C282.64 309.6 283.061 309.517 283.416 309.371C283.771 309.224 284.043 309.021 284.197 308.785C284.352 308.55 284.384 308.294 284.287 308.049C284.191 307.803 283.971 307.58 283.656 307.406C283.34 307.232 282.943 307.116 282.513 307.072C282.083 307.028 281.641 307.058 281.24 307.158C280.84 307.258 280.5 307.424 280.262 307.635C280.024 307.845 279.9 308.092 279.904 308.344C279.899 308.516 279.955 308.687 280.07 308.846C280.185 309.005 280.356 309.148 280.572 309.267C280.789 309.386 281.045 309.478 281.326 309.537C281.607 309.596 281.905 309.621 282.204 309.609Z" fill="white"/>
<path d="M282.175 311.084C282.938 311.134 283.657 311.312 284.245 311.596C284.833 311.881 285.263 312.258 285.481 312.682C285.699 313.106 285.696 313.558 285.472 313.981C285.248 314.403 284.814 314.779 284.222 315.061L283.302 314.421C283.576 314.306 283.802 314.157 283.963 313.985C284.123 313.813 284.213 313.622 284.228 313.427C284.258 313.251 284.227 313.073 284.135 312.904C284.043 312.735 283.893 312.579 283.693 312.445C283.494 312.31 283.249 312.201 282.974 312.122C282.699 312.044 282.399 311.999 282.092 311.989C281.786 311.979 281.479 312.006 281.191 312.066C280.902 312.127 280.638 312.22 280.414 312.342C280.191 312.463 280.012 312.609 279.888 312.771C279.765 312.933 279.7 313.107 279.698 313.284C279.675 313.481 279.731 313.678 279.859 313.86C279.987 314.043 280.186 314.206 280.439 314.338L279.416 314.915C278.877 314.6 278.512 314.2 278.366 313.766C278.219 313.332 278.298 312.883 278.593 312.475C278.887 312.066 279.385 311.717 280.022 311.471C280.659 311.225 281.408 311.093 282.175 311.091V311.084Z" fill="white"/>
<path d="M283.307 318.858L283.549 317.556L277.8 317.201L277.972 316.27L283.692 316.628L283.939 315.332L285.267 315.415L284.606 318.941L283.307 318.858Z" fill="white"/>
<path d="M278.903 322.755C277.288 322.603 276.638 321.9 276.932 320.863L277.449 319.04L284.451 319.703L284.187 320.631L281.887 320.416L281.594 321.443C281.318 322.414 280.415 322.898 278.903 322.755ZM279.139 321.811C279.909 321.884 280.289 321.625 280.45 321.148L280.686 320.306L278.386 320.088L278.145 320.933C278.03 321.403 278.346 321.738 279.139 321.811Z" fill="white"/>
<path d="M197.456 377.893C196.996 377.23 197.606 376.617 199.273 376.236L202.521 375.487L205.153 379.285L202.089 379.994C200.566 380.345 199.416 380.199 198.979 379.57C198.85 379.395 198.814 379.201 198.877 379.014C198.939 378.827 199.097 378.654 199.33 378.519C198.94 378.559 198.537 378.518 198.194 378.404C197.851 378.289 197.59 378.108 197.456 377.893ZM199.048 377.608C199.273 377.939 199.744 377.996 200.451 377.83L202.124 377.446L201.457 376.485L199.784 376.872C199.077 377.035 198.818 377.277 199.048 377.608ZM202.549 378.059L201.129 378.39C200.468 378.543 200.233 378.778 200.44 379.083C200.647 379.388 201.112 379.464 201.768 379.311L203.187 378.98L202.549 378.059Z" fill="white"/>
<path d="M197.18 378.914C197.841 380.067 196.772 381.233 194.639 381.624C192.506 382.015 190.466 381.475 189.805 380.315C189.144 379.156 190.224 377.996 192.346 377.605C194.467 377.214 196.519 377.761 197.18 378.914ZM191.385 380.014C191.535 380.249 191.802 380.454 192.153 380.603C192.503 380.752 192.922 380.838 193.357 380.851C193.792 380.864 194.223 380.802 194.598 380.674C194.973 380.547 195.274 380.358 195.465 380.132C195.655 379.907 195.726 379.654 195.668 379.405C195.611 379.156 195.428 378.923 195.142 378.733C194.856 378.544 194.48 378.408 194.061 378.341C193.641 378.274 193.196 378.279 192.782 378.357C192.494 378.406 192.226 378.489 191.997 378.601C191.767 378.713 191.581 378.852 191.449 379.008C191.318 379.164 191.244 379.334 191.233 379.507C191.222 379.68 191.274 379.853 191.385 380.014Z" fill="white"/>
<path d="M183.447 383.391L181.659 379.434L183.229 379.199L184.677 382.41L187.034 382.055L186.707 381.223C186.097 379.656 186.074 378.705 187.684 378.463C187.95 378.427 188.221 378.408 188.494 378.407L188.747 379.195C188.649 379.195 188.55 379.202 188.454 379.215C187.649 379.338 187.707 379.958 188.098 380.978L188.724 382.599L183.447 383.391Z" fill="white"/>
<path d="M174.979 384.371L173.64 380.355L175.255 380.176L175.801 381.833L178.969 381.482L178.394 379.825L180.009 379.646L181.343 383.666L179.733 383.841L179.204 382.257L176.043 382.609L176.566 384.192L174.979 384.371Z" fill="white"/>
<path d="M166.706 381.661L166.533 380.909L171.983 380.498L172.897 384.554L167.579 384.955L167.413 384.199L171.103 383.924L170.908 383.043L167.637 383.291L167.47 382.559L170.741 382.314L170.529 381.373L166.706 381.661Z" fill="white"/>
<path d="M159.319 385.326L158.824 381.247L160.463 381.18L160.664 382.837L163.877 382.708L163.676 381.051L165.315 380.985L165.809 385.064L164.171 385.13L163.975 383.52L160.762 383.652L160.957 385.26L159.319 385.326Z" fill="white"/>
<path d="M157.192 385.372H155.583V382.721L152.22 385.395H150.639V381.306H152.26V383.957L155.623 381.29H157.175L157.192 385.372Z" fill="white"/>
<path d="M143.39 381.843L143.465 381.084L148.943 381.26L148.552 385.346L143.2 385.173L143.275 384.415L146.994 384.534L147.081 383.646L143.792 383.543L143.861 382.807L147.15 382.913L147.242 381.969L143.39 381.843Z" fill="white"/>
<path d="M30.957 338.343L37.4186 336.66L38.0912 337.521L35.4353 338.211L36.7632 339.904L39.4076 339.211L40.086 340.076L33.6244 341.76L32.9461 340.898L35.4985 340.235L34.1706 338.542L31.6181 339.205L30.957 338.343Z" fill="white"/>
<path d="M33.6643 333.071L34.8945 332.803L36.8319 335.765L30.1921 337.2L28.3008 334.307L29.5368 334.039L30.836 336.057L32.2789 335.745L31.1291 333.969L32.3249 333.711L33.4746 335.487L35.0095 335.155L33.6643 333.071Z" fill="white"/>
<path d="M25.834 329.867L32.0943 330.572C32.6066 330.6 33.0947 330.711 33.5019 330.892C33.909 331.073 34.2183 331.318 34.3938 331.596C34.5069 331.817 34.544 332.047 34.503 332.276H33.1808C33.188 332.137 33.159 331.998 33.0946 331.865C33.0327 331.752 32.9179 331.651 32.7626 331.573C32.6074 331.495 32.4179 331.444 32.215 331.424L32.1231 331.404L27.9897 333.84L27.4609 332.875L30.5364 331.182L26.3169 330.771L25.834 329.867Z" fill="white"/>
<path d="M28.9617 325.045C30.1575 324.873 31.1347 325.303 31.5717 326.304L32.4282 328.259L25.5298 329.253L24.7192 327.408C24.3168 326.49 24.7192 325.85 25.8689 325.685C26.187 325.633 26.5243 325.637 26.8384 325.696C27.1525 325.755 27.4292 325.866 27.6338 326.016C27.6249 325.79 27.7527 325.57 27.995 325.393C28.2373 325.216 28.5792 325.093 28.9617 325.045ZM28.0017 327.921L27.628 327.066C27.4498 326.669 27.0532 326.503 26.5243 326.583C25.9954 326.662 25.7827 326.914 25.9494 327.312L26.3231 328.167L28.0017 327.921ZM29.2377 325.979C28.6628 326.066 28.4846 326.327 28.6628 326.752L29.1055 327.746L30.8301 327.494L30.3874 326.5C30.2207 326.085 29.8413 325.907 29.2377 325.993V325.979Z" fill="white"/>
<path d="M28.3288 321.122L29.6223 320.976L30.6628 324.087L23.6954 324.859L22.6836 321.824L23.9771 321.682L24.6784 323.792L26.1903 323.623L25.5694 321.761L26.8112 321.625L27.4378 323.488L29.0474 323.309L28.3288 321.122Z" fill="white"/>
<path d="M24.1275 317.112C25.6911 316.989 26.8236 317.589 27.0766 318.673L27.2663 319.488L29.2093 319.339L29.4278 320.276L22.3971 320.823L21.989 319.07C21.736 317.98 22.5466 317.234 24.1275 317.112ZM24.346 318.06C23.5756 318.119 23.1962 318.444 23.3227 319.017L23.5066 319.783L25.9441 319.59L25.7659 318.828C25.6279 318.255 25.0875 318 24.346 318.06Z" fill="white"/>
<path d="M26.7715 313.092L28.088 313.033L28.5364 316.191L21.4654 316.522L21.04 313.44L22.3565 313.381L22.6497 315.525L24.1846 315.455L23.9374 313.553L25.2079 313.493L25.4723 315.385L27.1049 315.312L26.7715 313.092Z" fill="white"/>
<path d="M20.793 308.662L27.8869 308.579L27.9214 309.527L25.0125 309.56L25.0758 311.415L27.9846 311.382V312.33L20.8907 312.41V311.465L23.6846 311.432L23.6213 309.576L20.8275 309.606L20.793 308.662Z" fill="white"/>
<path d="M21.1269 303.684L28.2151 303.873L28.1404 304.821L25.2315 304.741L25.082 306.597L27.9909 306.677L27.9162 307.621L20.8223 307.432L20.9027 306.485L23.6966 306.561L23.8461 304.705L21.0637 304.629L21.1269 303.684Z" fill="white"/>
<path d="M24.7599 302.975C22.6674 302.839 21.3107 301.799 21.5522 300.513C21.5795 300.225 21.7087 299.943 21.9317 299.685C22.1547 299.427 22.4669 299.198 22.849 299.012C23.2312 298.825 23.6754 298.686 24.1542 298.603C24.6331 298.519 25.1365 298.492 25.6337 298.525C27.7378 298.661 29.0829 299.708 28.8415 300.987C28.6001 302.266 26.8525 303.111 24.7599 302.975ZM25.444 299.479C25.0091 299.457 24.5723 299.509 24.1884 299.629C23.8045 299.749 23.4905 299.931 23.2857 300.153C23.0809 300.376 22.9944 300.628 23.0371 300.878C23.0798 301.129 23.2498 301.367 23.5258 301.562C23.8017 301.757 24.1714 301.9 24.5884 301.975C25.0055 302.05 25.4515 302.052 25.8705 301.981C26.2894 301.91 26.6628 301.769 26.9439 301.576C27.2249 301.384 27.4011 301.148 27.4503 300.898C27.4912 300.727 27.4709 300.554 27.3905 300.389C27.3102 300.224 27.1715 300.07 26.9832 299.936C26.795 299.803 26.5611 299.694 26.2963 299.615C26.0314 299.537 25.7413 299.49 25.444 299.479Z" fill="white"/>
<path d="M25.7825 298.018C23.6728 297.803 22.454 296.716 22.8392 295.46C22.91 295.147 23.1017 294.847 23.4002 294.583C23.6987 294.318 24.0963 294.096 24.5638 293.932L25.3399 294.628C25.0406 294.724 24.782 294.856 24.5831 295.017C24.3842 295.177 24.25 295.362 24.1902 295.556C24.0816 295.737 24.0424 295.929 24.0754 296.12C24.1084 296.311 24.2126 296.495 24.381 296.66C24.5494 296.825 24.778 296.968 25.0509 297.077C25.3238 297.186 25.6347 297.26 25.9619 297.294C26.2892 297.327 26.6252 297.319 26.9468 297.271C27.2683 297.222 27.5677 297.134 27.8244 297.012C28.0811 296.891 28.289 296.738 28.4337 296.566C28.5784 296.393 28.6565 296.205 28.6626 296.013C28.7254 295.82 28.7115 295.62 28.6219 295.431C28.5323 295.241 28.3694 295.065 28.1453 294.916L29.295 294.416C29.7603 294.767 30.0363 295.189 30.0886 295.629C30.1408 296.07 29.9671 296.509 29.5889 296.893C29.2108 297.277 28.645 297.589 27.962 297.789C27.279 297.989 26.5091 298.068 25.7481 298.018H25.7825Z" fill="white"/>
<path d="M26.2894 290.217L25.772 291.49L31.4114 292.245L31.0435 293.157L25.4328 292.401L24.9212 293.67L23.6162 293.498L25.0131 290.042L26.2894 290.217Z" fill="white"/>
<path d="M31.4802 286.662C33.0439 286.923 33.5497 287.656 33.0381 288.676L32.1413 290.449L25.3291 289.306L25.789 288.401L28.0252 288.779L28.5311 287.785C29.0083 286.831 30.0085 286.416 31.4802 286.662ZM31.0491 287.58C30.296 287.454 29.8418 287.682 29.6061 288.156L29.1922 288.975L31.4112 289.349L31.8194 288.531C32.0781 288.063 31.8136 287.709 31.0491 287.58Z" fill="white"/>
<path d="M85.7823 230.258C86.5066 231.06 85.9145 231.872 84.2531 232.375L82.9941 232.753L83.8909 233.747L82.448 234.181L79.1885 230.586L81.8904 229.774C83.5575 229.267 85.0522 229.453 85.7823 230.258ZM84.2991 230.699C83.9369 230.304 83.2816 230.205 82.402 230.473L81.2465 230.828L82.3963 232.074L83.5748 231.719C84.4371 231.454 84.6728 231.09 84.2991 230.699Z" fill="white"/>
<path d="M92.123 230.45L89.1566 231.239L89.2256 232.18L87.708 232.584L87.6045 228.144L89.0647 227.753L94.8708 230.672L93.3187 231.086L92.123 230.45ZM91.1399 229.927L88.9957 228.787L89.1106 230.467L91.1399 229.927Z" fill="white"/>
<path d="M99.8543 228.299C100.349 229.009 99.2794 229.731 97.7273 230.096C96.8169 230.308 95.8268 230.381 94.853 230.308L94.8874 229.575C95.62 229.64 96.3691 229.588 97.0547 229.426C97.917 229.227 98.4861 228.883 98.2447 228.531C98.0435 228.246 97.4974 228.2 96.819 228.369L95.2209 228.74L94.761 228.077L96.2441 227.746C96.8592 227.604 97.1064 227.365 96.934 227.12C96.7213 226.812 96.0257 226.788 95.2899 226.957C94.6804 227.099 94.1427 227.327 93.7262 227.62L92.7949 227.05C93.3463 226.686 94.0398 226.402 94.8185 226.222C96.3304 225.871 97.9113 225.963 98.3884 226.646C98.5125 226.818 98.5426 227.008 98.4749 227.19C98.4071 227.373 98.2446 227.539 98.009 227.667C98.394 227.643 98.7821 227.691 99.1148 227.806C99.4476 227.92 99.7071 228.093 99.8543 228.299Z" fill="white"/>
<path d="M108.144 227.01L109.052 228.525L107.632 228.81L107.155 228.018L102.458 228.952L102.935 229.748L101.51 230.033L100.613 228.508L100.877 228.455C101.728 228.266 101.452 227.401 100.877 226.318L100.233 225.102L105.344 224.081L107.212 227.183L108.144 227.01ZM102.694 228.091L105.695 227.514L104.257 225.128L101.958 225.582L102.263 226.146C102.694 226.957 102.987 227.69 102.694 228.091Z" fill="white"/>
<path d="M114.192 224.114C114.629 224.982 113.766 225.711 111.961 226.013L110.599 226.238L111.139 227.312L109.576 227.574L107.621 223.677L110.518 223.206C112.324 222.875 113.726 223.239 114.192 224.114ZM112.605 224.379C112.393 223.949 111.783 223.78 110.829 223.939L109.553 224.151L110.231 225.503L111.507 225.291C112.433 225.132 112.789 224.8 112.576 224.379H112.605Z" fill="white"/>
<path d="M120.309 225.029L117.136 225.463L116.871 226.391L115.25 226.613L116.681 222.249L118.245 222.036L122.93 225.566L121.263 225.791L120.309 225.029ZM119.527 224.402L117.802 223.041L117.337 224.697L119.527 224.402Z" fill="white"/>
<path d="M129.196 223.259L128.19 223.362L128.673 224.972L127.098 225.128L126.615 223.518L125.58 223.62L124.54 225.387L122.689 225.572L124.143 223.276L121.585 221.549L123.281 221.38L125.322 222.842L126.379 222.736L125.896 221.119L127.472 220.963L127.955 222.577L128.984 222.474L130.064 220.701L131.76 220.532L130.392 222.633L133.088 224.532L131.237 224.717L129.196 223.259Z" fill="white"/>
<path d="M139.049 223.415L139.199 224.164L133.783 224.532L132.984 220.489L138.267 220.158L138.417 220.906L134.743 221.148L134.916 222.023L138.164 221.811L138.308 222.537L135.06 222.749L135.244 223.683L139.049 223.415Z" fill="white"/>
<path d="M146.385 219.806L146.856 223.869L145.23 223.929L145.046 222.272L141.855 222.391L142.039 224.048L140.412 224.111L139.958 220.061L141.585 219.998L141.786 221.582L144.977 221.463L144.798 219.866L146.385 219.806Z" fill="white"/>
<path d="M148.42 219.777H150.041L150.116 222.428L153.398 219.754H154.922L155.042 223.81H153.433L153.358 221.159L150.076 223.83H148.535L148.42 219.777Z" fill="white"/>
<path d="M162.194 223.18L162.142 223.932L156.698 223.81L156.974 219.757L162.292 219.876L162.24 220.629L158.544 220.556L158.457 221.427L161.723 221.5L161.671 222.229L158.457 222.156L158.388 223.094L162.194 223.18Z" fill="white"/>
<path d="M255.369 241.849L250.833 244.954L249.597 244.355L253.277 241.833L250.845 240.656L247.166 243.175L245.93 242.572L250.437 239.47L255.369 241.849Z" fill="white"/>
<path d="M259.589 246.101C258.519 246.764 256.996 246.711 255.616 245.969L254.582 245.412L253.259 246.23L252.069 245.591L256.869 242.608L259.094 243.805C260.474 244.56 260.664 245.435 259.589 246.101ZM258.381 245.438C258.91 245.107 258.853 244.723 258.123 244.331L257.157 243.811L255.49 244.839L256.456 245.362C257.186 245.766 257.864 245.773 258.381 245.452V245.438Z" fill="white"/>
<path d="M261.98 250.117L261.049 250.644L257.237 248.391L262.262 245.551L265.987 247.741L265.05 248.268L262.463 246.744L261.371 247.36L263.67 248.706L262.762 249.219L260.462 247.871L259.313 248.533L261.98 250.117Z" fill="white"/>
<path d="M266.889 252.699C265.9 253.209 264.365 252.881 263.238 252.155C262.579 251.735 262.123 251.222 261.916 250.667L263.117 250.435C263.263 250.855 263.603 251.244 264.101 251.562C264.716 251.96 265.474 252.152 265.957 251.894C266.354 251.691 266.228 251.383 265.739 251.068L264.589 250.329L265.503 249.859L266.567 250.545C267.009 250.83 267.481 250.876 267.826 250.704C268.171 250.532 268.061 250.101 267.532 249.759C267.086 249.478 266.525 249.265 265.9 249.14L266.515 248.441C267.296 248.617 267.993 248.897 268.55 249.259C269.637 249.958 270.022 250.846 269.067 251.337C268.829 251.463 268.529 251.543 268.208 251.568C267.888 251.593 267.562 251.561 267.274 251.476C267.451 251.676 267.509 251.904 267.44 252.125C267.37 252.346 267.177 252.548 266.889 252.699Z" fill="white"/>
<path d="M273.534 255.075C272.321 255.645 270.82 255.476 269.636 254.637L268.739 254.004L267.233 254.71L266.204 253.981L271.66 251.42L273.58 252.778C274.77 253.62 274.758 254.501 273.534 255.075ZM272.493 254.356C273.068 254.074 273.126 253.693 272.493 253.239L271.654 252.646L269.763 253.537L270.596 254.13C271.234 254.558 271.901 254.617 272.493 254.356Z" fill="white"/>
<path d="M274.96 259.244L273.908 259.694L270.66 257.169L276.305 254.753L279.473 257.215L278.432 257.669L276.231 255.956L275 256.483L276.949 257.994L275.932 258.432L274.006 256.911L272.695 257.471L274.96 259.244Z" fill="white"/>
<path d="M284.06 261.119L278.203 263.369L277.3 262.587L279.703 261.666L277.927 260.132L275.524 261.053L274.621 260.274L280.479 258.021L281.382 258.803L279.082 259.691L280.858 261.225L283.158 260.337L284.06 261.119Z" fill="white"/>
<path d="M285.153 262.126L285.975 262.928L282.025 264.254L287.676 264.585L288.452 265.344L282.393 267.405L281.577 266.617L285.515 265.291L279.87 264.96L279.088 264.194L285.153 262.126Z" fill="white"/>
<path d="M286.872 270.686L285.722 271.037L283.192 268.254L289.424 266.371L291.896 269.085L290.746 269.437L289.022 267.548L287.653 267.942L289.171 269.599L288.021 269.93L286.504 268.274L285.061 268.711L286.872 270.686Z" fill="white"/>
<path d="M294.633 345.64L292.213 348.599L291.063 348.268L292.788 346.15L291.46 345.816L290.632 346.81C289.907 347.698 288.861 347.996 287.642 347.665C286.424 347.333 286.079 346.578 286.849 345.637L288.275 343.897L294.633 345.64ZM287.976 345.898C287.619 346.333 287.729 346.651 288.303 346.806C288.878 346.962 289.321 346.806 289.683 346.362L290.379 345.514L288.654 345.05L287.976 345.898Z" fill="white"/>
<path d="M288.447 348.437C290.287 349.007 290.879 350.26 289.821 351.386C289.612 351.645 289.312 351.877 288.941 352.067C288.57 352.257 288.136 352.401 287.665 352.491C287.194 352.581 286.696 352.614 286.202 352.589C285.707 352.563 285.228 352.48 284.791 352.344C282.94 351.767 282.365 350.518 283.417 349.395C284.469 348.271 286.608 347.864 288.447 348.437ZM285.573 351.505C285.959 351.619 286.395 351.664 286.825 351.636C287.255 351.607 287.662 351.506 287.993 351.345C288.324 351.184 288.566 350.97 288.687 350.731C288.809 350.491 288.805 350.236 288.676 349.997C288.547 349.759 288.299 349.548 287.962 349.39C287.626 349.233 287.217 349.136 286.785 349.112C286.354 349.088 285.92 349.138 285.538 349.255C285.155 349.373 284.842 349.553 284.636 349.772C284.488 349.92 284.395 350.084 284.363 350.253C284.33 350.423 284.359 350.594 284.447 350.757C284.535 350.92 284.68 351.07 284.874 351.199C285.068 351.328 285.306 351.432 285.573 351.505Z" fill="white"/>
<path d="M283.928 357.059L277.921 354.942L278.76 354.15L283.635 355.866L284.894 354.68L283.67 354.216C281.37 353.338 280.22 352.669 281.065 351.857C281.212 351.726 281.384 351.605 281.577 351.496L282.727 351.959C282.651 351.996 282.587 352.04 282.537 352.089C282.106 352.496 282.894 352.914 284.388 353.49L286.774 354.398L283.928 357.059Z" fill="white"/>
<path d="M275.604 359.439C274.27 358.912 274.19 358.113 275.213 357.262L277.006 355.75L282.819 358.04L281.904 358.809L279.996 358.057L278.984 358.908C278.03 359.734 276.88 359.932 275.604 359.439ZM276.506 358.647C277.144 358.899 277.691 358.766 278.168 358.365L278.996 357.666L277.087 356.914L276.259 357.613C276.138 357.685 276.046 357.772 275.992 357.868C275.938 357.963 275.922 358.065 275.946 358.164C275.97 358.264 276.033 358.359 276.13 358.443C276.227 358.526 276.356 358.596 276.506 358.647Z" fill="white"/>
<path d="M69.9268 380.491L72.6517 381.528L74.0027 380.998L75.3996 381.528L68.8921 383.924L67.5469 383.414L68.7771 379.026L70.2028 379.567L69.9268 380.491ZM69.6739 381.25L69.1278 382.907L71.5365 381.962L69.6739 381.25Z" fill="white"/>
<path d="M58.7637 379.805L62.9487 376.541L64.2479 377.094L60.8562 379.745L63.4144 380.836L66.8061 378.185L68.1053 378.738L63.926 382.002L58.7637 379.805Z" fill="white"/>
<path d="M57.0039 374.871L59.5218 376.07L60.9648 375.63L62.2525 376.243L55.354 378.231L54.1123 377.628L56.1646 373.343L57.4868 373.97L57.0039 374.871ZM56.613 375.61L55.7564 377.217L58.3319 376.428L56.613 375.61Z" fill="white"/>
<path d="M47.9838 373.499L49.651 374.37L53.4853 371.928L54.6753 372.551L50.8467 374.993L52.5081 375.858L51.617 376.428L47.0928 374.066L47.9838 373.499Z" fill="white"/>
<path d="M46.1565 373.555L45.0067 372.893L48.249 371.02L42.6325 371.524L41.5518 370.901L46.5244 368.031L47.6741 368.694L44.4434 370.563L50.0483 370.063L51.1406 370.689L46.1565 373.555Z" fill="white"/>
<path d="M36.4004 367.653L41.626 364.933L42.7067 365.622L41.3155 366.361L42.3101 366.997L44.5348 366.808L45.6845 367.544L43.1264 367.736C43.3041 368 43.3308 368.29 43.2025 368.563C43.0742 368.836 42.7978 369.078 42.4135 369.254C41.1948 369.887 39.6771 369.764 38.4297 368.969L36.4004 367.653ZM41.2983 368.542C41.8731 368.227 41.9306 367.846 41.2983 367.455L40.344 366.842L38.4469 367.836L39.3782 368.429C40.0336 368.82 40.6717 368.866 41.2983 368.542Z" fill="white"/>
<path d="M3.54093 289.22L3.08103 290.492L8.67452 291.155L8.34684 292.063L2.75336 291.4L2.29921 292.663L1 292.51L2.24172 289.064L3.54093 289.22Z" fill="white"/>
<path d="M6.52475 285.306C8.04816 285.532 8.69776 286.327 8.24936 287.377L7.8757 288.156L9.75553 288.434L9.35312 289.342L2.53516 288.332L3.29398 286.632C3.75963 285.598 5.00135 285.081 6.52475 285.306ZM6.1166 286.227C5.36927 286.115 4.80589 286.33 4.5587 286.89L4.22527 287.629L6.59374 287.98L6.92142 287.242C7.16861 286.681 6.85818 286.337 6.1166 286.227Z" fill="white"/>
<path d="M11.5034 282.191L12.7509 282.41L11.1527 285.416L4.42676 284.226L5.98466 281.293L7.23212 281.515L6.15137 283.553L7.61154 283.812L8.57157 282.012L9.7788 282.225L8.82451 284.027L10.3824 284.302L11.5034 282.191Z" fill="white"/>
<path d="M13.3768 277.966C14.5265 278.205 14.9232 278.871 14.3195 279.839L13.1698 281.721L6.51855 280.346L7.62805 278.566C8.20292 277.685 9.12272 277.287 10.2207 277.516C10.5369 277.573 10.8157 277.684 11.0207 277.834C11.2258 277.984 11.3477 278.167 11.3705 278.357C11.5745 278.168 11.8861 278.026 12.2521 277.955C12.618 277.883 13.0155 277.887 13.3768 277.966ZM9.81256 280.037L10.3242 279.212C10.5656 278.831 10.4162 278.573 9.88729 278.463C9.35841 278.354 8.956 278.496 8.73755 278.881L8.22592 279.703L9.81256 280.037ZM12.6869 278.838C12.112 278.722 11.7326 278.878 11.4739 279.288L10.8703 280.259L12.5432 280.607L13.1526 279.633C13.417 279.225 13.2733 278.957 12.6984 278.838H12.6869Z" fill="white"/>
<path d="M12.2443 277.188C10.3185 276.717 9.52515 275.504 10.3932 274.324C11.2613 273.145 13.3078 272.625 15.2394 273.095C17.1709 273.566 17.9585 274.782 17.0962 275.958C16.9295 276.228 16.6691 276.475 16.331 276.684C15.9929 276.893 15.5842 277.061 15.13 277.176C14.6757 277.291 14.1854 277.351 13.6892 277.353C13.193 277.355 12.7013 277.299 12.2443 277.188ZM14.6013 273.973C14.1983 273.881 13.7572 273.86 13.3333 273.912C12.9095 273.964 12.5216 274.087 12.2184 274.265C11.9151 274.444 11.71 274.67 11.6287 274.915C11.5474 275.161 11.5935 275.414 11.7612 275.645C11.9289 275.875 12.2109 276.072 12.5717 276.21C12.9325 276.348 13.3561 276.422 13.7894 276.423C14.2228 276.423 14.6466 276.349 15.0078 276.211C15.369 276.073 15.6516 275.877 15.82 275.647C15.9424 275.492 16.0079 275.323 16.0123 275.153C16.0166 274.983 15.9598 274.814 15.8454 274.656C15.7309 274.499 15.5613 274.357 15.3472 274.24C15.1331 274.122 14.8791 274.031 14.6013 273.973Z" fill="white"/>
<path d="M15.9981 269.268L14.5494 271.007L19.7233 272.426L19.0277 273.267L12.7041 271.511L14.8081 268.936L15.9981 269.268Z" fill="white"/>
<path d="M21.845 268.081L20.3215 269.738L21.3621 270.464L20.586 271.316L15.8203 267.82L16.5734 267.001L24.2709 267.289L23.4718 268.161L21.845 268.081ZM20.4883 268.008L17.6139 267.853L19.4765 269.148L20.4883 268.008Z" fill="white"/>
</g>
<path d="M124.135 138.262L131.249 144.197C131.249 144.197 132.636 146.374 131.65 147.565C130.889 148.553 130.225 149.612 129.668 150.728C129.668 150.728 128.523 153.099 127.297 153.5C126.071 153.901 124.719 154.096 123.928 152.71C123.138 151.323 119.185 144.002 119.185 144.002L124.135 138.262Z" fill="white" stroke="#181F23" stroke-width="3" stroke-linecap="round" stroke-linejoin="round"/>
<path d="M193.939 304.616C193.939 304.616 199.358 316.382 199.598 321.56C199.839 326.739 198.647 332.158 192.724 328.858C186.801 325.559 184.303 317.115 183.066 311.673C182.344 308.911 182.028 306.059 182.127 303.206L193.939 304.616Z" fill="white" stroke="#181F23" stroke-linecap="round" stroke-linejoin="round"/>
<path d="M128.266 277.784C128.266 277.784 119.559 282.722 115.32 285.082C111.081 287.443 109.672 290.96 111.551 292.85C113.43 294.741 118.608 295.909 122.847 294.488C127.086 293.068 128.965 289.551 131.325 289.081C133.685 288.611 138.623 288.141 139.345 281.783C140.067 275.424 128.266 277.784 128.266 277.784Z" fill="white" stroke="#181F23" stroke-linecap="round" stroke-linejoin="round"/>
<path d="M128.733 137.83C128.727 138.01 128.72 138.225 128.712 138.475C128.686 139.329 128.648 140.584 128.604 142.188C128.514 145.396 128.397 149.997 128.286 155.57C128.064 166.716 127.867 181.749 127.964 197.296C128.061 212.854 127.864 233.237 127.642 249.728C127.531 257.974 127.414 265.248 127.324 270.46C127.28 273.067 127.242 275.157 127.215 276.597C127.202 277.316 127.192 277.873 127.184 278.25L127.176 278.678L127.175 278.738C127.187 278.773 127.203 278.819 127.224 278.876C127.276 279.018 127.356 279.223 127.467 279.473C127.688 279.975 128.03 280.653 128.51 281.357C129.475 282.771 130.961 284.237 133.106 284.659L133.106 284.659C135.714 285.174 137.143 284.898 137.892 284.557C138.266 284.388 138.48 284.198 138.596 284.067C138.655 284.001 138.69 283.948 138.709 283.918C138.714 283.909 138.717 283.902 138.72 283.898C142.673 272.266 146.019 260.436 148.745 248.457C151.011 238.479 153.085 221.038 154.593 206.065C155.347 198.584 155.959 191.728 156.382 186.743C156.593 184.25 156.758 182.225 156.87 180.823C156.925 180.122 156.968 179.577 156.996 179.208L157.029 178.787L157.037 178.68L157.039 178.653L157.04 178.646L157.04 178.644C157.04 178.644 157.04 178.644 157.538 178.681L157.04 178.644C157.059 178.394 157.26 178.196 157.51 178.182C157.76 178.168 157.982 178.341 158.029 178.588L182.352 306.029C182.381 306.06 182.421 306.103 182.475 306.153C182.621 306.289 182.871 306.485 183.259 306.686C184.036 307.087 185.386 307.518 187.613 307.518L187.629 307.518C189.979 307.594 192.268 306.776 194.036 305.235L194.018 304.683C194 304.17 193.975 303.416 193.943 302.453C193.879 300.525 193.788 297.759 193.681 294.404C193.467 287.694 193.188 278.628 192.927 269.203C192.406 250.368 191.958 230.059 192.257 224.3C192.554 218.593 192.011 198.59 191.392 179.977C191.083 170.679 190.755 161.738 190.504 155.123C190.379 151.815 190.273 149.088 190.198 147.189C190.161 146.239 190.131 145.496 190.111 144.99L190.105 144.83C181.636 146.903 172.859 147.42 164.203 146.354C156.65 145.433 147.619 143.248 140.49 141.299C136.923 140.323 133.826 139.405 131.621 138.731C130.518 138.394 129.638 138.118 129.034 137.926C128.924 137.891 128.824 137.859 128.733 137.83ZM182.3 305.964C182.3 305.964 182.3 305.965 182.302 305.967L182.301 305.966L182.3 305.964L182.3 305.964Z" fill="#181F23" stroke="white" stroke-linecap="round" stroke-linejoin="round"/>
<path d="M132.42 51.9916C129.428 52.1054 126.488 52.811 123.771 54.0676C121.053 55.3242 118.611 57.1068 116.587 59.3126C109.712 66.8397 94.8185 103.639 92.2522 106.606C89.6859 109.574 90.6368 115.36 94.2571 118.407C95.4028 119.404 119.164 144.002 119.164 144.002L124.114 138.273L110.056 108.989L126.875 80.1526" fill="white"/>
<path d="M132.42 51.9916C129.428 52.1054 126.488 52.811 123.771 54.0676C121.053 55.3242 118.611 57.1068 116.587 59.3126C109.712 66.8397 94.8185 103.639 92.2522 106.606C89.6859 109.574 90.6368 115.36 94.2571 118.407C95.4028 119.404 119.164 144.002 119.164 144.002L124.114 138.273L110.056 108.989L126.875 80.1526" stroke="#181F23" stroke-linecap="round" stroke-linejoin="round"/>
<path d="M124.864 77.5635L124.234 72.4537L122.321 87.3362L124.658 84.5751L124.864 77.5635Z" fill="#181F23" stroke="#181F23" stroke-linecap="round" stroke-linejoin="round"/>
<path d="M102.039 113.378C107.034 113.653 110.059 108.944 110.059 108.944C109.476 110.772 108.335 112.371 106.795 113.516C105.256 114.661 103.396 115.294 101.477 115.326" stroke="#181F23" stroke-linecap="round" stroke-linejoin="round"/>
<path d="M124.788 78.9038C125.223 96.5359 127.331 134.481 127.87 137.666C128.465 141.229 132.613 143.394 149.042 148.355C165.471 153.316 188.213 151.517 189.794 147.954C191.375 144.391 194.548 126.988 194.548 118.671C194.548 110.353 202.454 78.1133 195.534 70.7923C188.614 63.4714 169.618 53.6071 169.618 53.6071C154.381 47.661 137.757 49.8378 131.032 52.4614C129.983 52.8395 129.001 53.3808 128.122 54.0653" fill="white"/>
<path d="M124.788 78.9038C125.223 96.5359 127.331 134.481 127.87 137.666C128.465 141.229 132.613 143.394 149.042 148.355C165.471 153.316 188.213 151.517 189.794 147.954C191.375 144.391 194.548 126.988 194.548 118.671C194.548 110.353 202.454 78.1133 195.534 70.7923C188.614 63.4714 169.618 53.6071 169.618 53.6071C154.381 47.661 137.757 49.8378 131.032 52.4614C129.983 52.8395 129.001 53.3808 128.122 54.0653" stroke="#181F23" stroke-linecap="round" stroke-linejoin="round"/>
<path d="M163.478 73.3578L156.947 78.9029L161.507 135.488L150.623 146.773L143.302 130.344L153.189 78.1124L148.446 70.3905L155.962 63.2758L163.478 73.3578Z" fill="white" stroke="#181F23" stroke-linecap="round" stroke-linejoin="round"/>
<path d="M145.286 119.851L161.188 131.595L161.509 135.49L157.888 139.236L143.613 128.696L145.286 119.851Z" fill="#181F23"/>
<path d="M151.285 88.1724L152.957 79.3277L157.242 82.4783L158.102 93.202L151.285 88.1724Z" fill="#181F23"/>
<path d="M149.12 99.5837L159.213 107.042L160.072 117.766L147.447 108.44L149.12 99.5837Z" fill="#181F23"/>
<path d="M169.616 49.8143C169.616 49.8143 175.345 55.9552 175.345 57.9258C175.345 59.8963 170.006 74.9506 168.62 76.3369C167.233 77.7232 156.361 69.016 156.361 69.016C156.361 69.016 144.904 75.7412 144.09 74.7444C143.277 73.7477 145.076 62.8751 147.253 57.3414C149.429 51.8078 161.104 44.2806 169.616 49.8143Z" fill="white" stroke="#181F23" stroke-linecap="round" stroke-linejoin="round"/>
<path d="M167.042 57.927C167.042 57.927 161.107 73.1646 155.173 73.9666C149.238 74.7686 148.047 61.7077 148.448 57.927C148.849 54.1462 161.944 48.8302 167.042 57.927Z" fill="white" stroke="#181F23" stroke-linecap="round" stroke-linejoin="round"/>
<path d="M140.1 26.1475C140.1 26.1475 141.018 42.2396 142.854 49.1299C144.69 56.0202 146.991 63.375 150.895 64.3041C154.799 65.2331 163.061 61.3068 166.987 57.6681C170.913 54.0294 175.027 35.836 175.027 30.5493C175.027 25.2627 160.55 20.6618 152.509 20.4406C150.143 20.3847 147.795 20.8697 145.645 21.8587C143.494 22.8477 141.598 24.3146 140.1 26.1475Z" fill="white" stroke="#181F23" stroke-linecap="round" stroke-linejoin="round"/>
<path d="M186.83 63.6662C193.472 67.3323 199.649 71.7826 205.23 76.9218C212.952 84.4489 201.472 130.941 200.086 136.681C198.081 144.964 195.136 148.745 190.989 148.55C186.842 148.355 172.784 124.021 168.43 113.526C165.492 105.949 163.192 98.1385 161.556 90.1774C161.556 90.1774 156.011 88.0006 155.026 86.03C154.377 84.6933 153.848 83.3016 153.445 81.8711C153.445 81.8711 152.448 84.8385 150.672 84.0479C148.897 83.2574 148.095 78.709 147.705 75.5355C147.316 72.3619 155.416 69.6008 155.416 69.6008C155.416 69.6008 154.43 65.4535 152.059 64.8577C149.687 64.2619 146.915 62.0851 147.705 60.8936C148.496 59.7021 155.221 63.8724 155.221 63.8724C155.221 63.8724 160.56 72.1786 162.542 75.9365C163.836 78.3997 166.987 85.2509 169.015 89.6847C170.248 92.3965 171.74 94.9825 173.472 97.4066L183.118 110.949C183.118 110.949 183.508 86.6143 183.508 85.6175" fill="white"/>
<path d="M186.83 63.6662C193.472 67.3323 199.649 71.7826 205.23 76.9218C212.952 84.4489 201.472 130.941 200.086 136.681C198.081 144.964 195.136 148.745 190.989 148.55C186.842 148.355 172.784 124.021 168.43 113.526C165.492 105.949 163.192 98.1385 161.556 90.1774C161.556 90.1774 156.011 88.0006 155.026 86.03C154.377 84.6933 153.848 83.3016 153.445 81.8711C153.445 81.8711 152.448 84.8385 150.672 84.0479C148.897 83.2574 148.095 78.709 147.705 75.5355C147.316 72.3619 155.416 69.6008 155.416 69.6008C155.416 69.6008 154.43 65.4535 152.059 64.8577C149.687 64.2619 146.915 62.0851 147.705 60.8936C148.496 59.7021 155.221 63.8724 155.221 63.8724C155.221 63.8724 160.56 72.1786 162.542 75.9365C163.836 78.3997 166.987 85.2509 169.015 89.6847C170.248 92.3965 171.74 94.9825 173.472 97.4066L183.118 110.949C183.118 110.949 183.508 86.6143 183.508 85.6175" stroke="#181F23" stroke-linecap="round" stroke-linejoin="round"/>
<path d="M183.141 93.0766L179.738 84.5757" stroke="#181F23" stroke-linecap="round" stroke-linejoin="round"/>
<path d="M195.683 126.255C195.683 123.963 183.081 110.96 183.081 110.96C183.081 110.96 196.967 119.873 198.456 122.417" stroke="#181F23" stroke-linecap="round" stroke-linejoin="round"/>
<path d="M154.976 86.0298C154.327 84.6931 153.798 83.3014 153.395 81.871C153.395 81.871 152.398 84.8383 150.622 84.0478C148.847 83.2572 148.045 78.7089 147.655 75.5353C147.266 72.3618 154.77 69.4059 154.77 69.4059C154.77 69.4059 153.624 65.8428 152.009 64.8232C149.923 63.5285 146.865 62.0506 147.655 60.8591C148.102 60.1831 150.485 60.8591 152.444 61.5694C154.164 62.1819 155.599 63.4051 156.477 65.0065C158.195 68.0654 161.128 73.3471 162.492 75.9248C163.637 78.2162 166.433 84.1394 168.449 88.5274C167.578 90.0397 165.745 91.8499 161.93 92.1707C161.655 90.899 161.506 90.1543 161.506 90.1543C161.506 90.1543 155.961 88.0004 154.976 86.0298Z" fill="white" stroke="#181F23" stroke-linecap="round" stroke-linejoin="round"/>
<path d="M155.17 76.5322C153.144 77.3501 151.163 78.2756 149.235 79.3048C149.077 79.3791 148.935 79.4848 148.818 79.6155C148.702 79.7462 148.613 79.8992 148.557 80.0652C148.502 80.2312 148.48 80.4068 148.494 80.5813C148.509 80.7558 148.558 80.9257 148.64 81.0806" fill="white"/>
<path d="M155.17 76.5322C153.144 77.3501 151.163 78.2756 149.235 79.3048C149.077 79.3791 148.935 79.4848 148.818 79.6155C148.702 79.7462 148.613 79.8992 148.557 80.0652C148.502 80.2312 148.48 80.4068 148.494 80.5813C148.509 80.7558 148.558 80.9257 148.64 81.0806" stroke="#181F23" stroke-linecap="round" stroke-linejoin="round"/>
<path d="M155.561 72.7741C155.561 72.7741 148.835 75.9362 147.85 76.9215L155.561 72.7741Z" fill="white"/>
<path d="M155.561 72.7741C155.561 72.7741 148.835 75.9362 147.85 76.9215" stroke="#181F23" stroke-linecap="round" stroke-linejoin="round"/>
<path d="M150.135 44.6778V54.0306L153.737 54.5842" stroke="#181F23" stroke-linecap="round" stroke-linejoin="round"/>
<path d="M163.646 44.6778C163.646 44.6778 161.322 48.0115 154.641 45.6081" stroke="#181F23" stroke-linecap="round" stroke-linejoin="round"/>
<path d="M148.583 43.7827C148.583 43.7827 146.228 45.6955 143.175 42.6431" stroke="#181F23" stroke-linecap="round" stroke-linejoin="round"/>
<path d="M150.139 43.7772C150.139 43.7772 148.784 40.3581 142.934 39.2743" stroke="#181F23" stroke-linecap="round" stroke-linejoin="round"/>
<path d="M153.74 44.6778C155.037 43.1554 156.625 42.063 158.358 41.5028C160.09 40.9427 161.91 40.9331 163.646 41.475" stroke="#181F23" stroke-linecap="round" stroke-linejoin="round"/>
<path d="M153.737 59.9876L150.135 59.0871" stroke="#181F23" stroke-linecap="round" stroke-linejoin="round"/>
<path d="M160.943 46.479C160.387 47.0708 159.826 47.6033 159.2 47.6033C158.573 47.6033 157.898 47.0708 157.341 46.479" stroke="#181F23" stroke-linecap="round" stroke-linejoin="round"/>
<path d="M146.993 44.5509C146.612 44.9325 146.702 45.314 145.849 45.314C145.086 45.314 144.323 44.5509 144.323 43.7878" stroke="#181F23" stroke-linecap="round" stroke-linejoin="round"/>
<path d="M173.857 39.2878C173.911 39.2542 173.972 39.2313 174.035 39.2204C175.941 38.891 176.809 38.1328 177.257 37.3648C177.646 36.697 177.748 35.9891 177.845 35.3252C177.866 35.1766 177.888 35.0303 177.912 34.8871C177.946 34.6828 178.039 34.3141 178.156 33.8479L178.157 33.8468L178.168 33.8011C178.287 33.3286 178.438 32.7325 178.601 32.0343C178.938 30.5926 179.33 28.7193 179.61 26.6273C180.174 22.4281 180.281 17.4116 178.66 13.2457C177.056 9.12177 173.246 5.8398 168.816 3.73771C164.387 1.63616 159.428 0.757296 155.626 1.35676C151.822 1.95656 146.666 4.64657 142.444 7.98728C140.34 9.65234 138.492 11.4607 137.174 13.2216C135.847 14.9958 135.105 16.6599 135.105 18.0481C135.105 21.06 136.059 25.3762 138.135 29.4393C140.21 33.5001 143.378 37.2554 147.767 39.2224C152.29 41.2489 154.581 41.9416 156.193 42.0909C156.989 42.1645 157.631 42.1067 158.318 41.9979C158.552 41.9608 158.801 41.9158 159.066 41.8677C159.561 41.7783 160.113 41.6785 160.733 41.6C161.204 41.5404 161.555 41.4862 161.814 41.4313C161.969 41.3983 162.077 41.3678 162.149 41.3423C162.148 41.3391 162.146 41.3359 162.145 41.3327C162.109 41.2597 162.062 41.1745 162.008 41.0764C161.684 40.4925 161.106 39.4502 161.213 37.7792C161.331 35.9455 161.875 34.6034 162.667 33.9972C163.085 33.6772 163.592 33.5546 164.093 33.7351C164.571 33.907 164.948 34.3199 165.218 34.8609C165.633 35.6904 165.664 36.3562 165.689 36.8985C165.696 37.0481 165.702 37.1884 165.716 37.3201C165.779 37.9054 165.975 38.6117 167.111 39.8573C168.094 40.9344 169.668 40.8912 171.186 40.4529C171.922 40.2401 172.592 39.948 173.081 39.7071C173.325 39.5871 173.521 39.4808 173.655 39.4051C173.723 39.3673 173.774 39.3372 173.808 39.317L173.846 39.2943L173.855 39.289L173.857 39.288L173.857 39.2879L173.857 39.2878Z" fill="#181F23" stroke="white" stroke-linecap="round" stroke-linejoin="round"/>
<path d="M170.617 40.3859C170.617 40.3859 173.218 32.1026 177.388 32.0109C181.559 31.9193 179.187 40.6952 177.388 43.6969C176.924 44.5146 176.165 45.1241 175.266 45.4009C174.368 45.6777 173.397 45.601 172.553 45.1863" fill="white"/>
<path d="M170.617 40.3859C170.617 40.3859 173.218 32.1026 177.388 32.0109C181.559 31.9193 179.187 40.6952 177.388 43.6969C176.924 44.5146 176.165 45.1241 175.266 45.4009C174.368 45.6777 173.397 45.601 172.553 45.1863" stroke="white" stroke-linecap="round" stroke-linejoin="round"/>
<path d="M176.835 39.7446C176.835 39.7446 177.797 35.7347 175.872 36.5367C173.947 37.3387 172.985 40.2143 172.985 40.2143C172.985 40.2143 174.589 40.0539 174.429 41.0163C174.268 41.9787 173.145 41.9787 173.145 41.9787" stroke="#181F23" stroke-linecap="round" stroke-linejoin="round"/>
<rect x="201.23" y="158.539" width="95.9868" height="22.6996" rx="4" fill="white"/>
<path d="M220.349 167.359L218.691 170.558L217.08 167.359H215.998L218.169 171.422L218.084 171.554C217.858 171.912 217.594 172.06 217.274 172.06C217.111 172.06 216.94 172.021 216.745 171.959L216.496 172.753C216.769 172.869 217.041 172.924 217.298 172.924C217.959 172.924 218.559 172.55 218.979 171.756L221.345 167.359H220.349Z" fill="#181F23"/>
<path d="M225.877 167.359V169.608H223.06V167.359H222.048V172.807H223.06V170.472H225.877V172.807H226.889V167.359H225.877Z" fill="#181F23"/>
<path d="M228.425 172.807H229.367L232.293 168.947V172.807H233.289V167.359H232.348L229.421 171.227V167.359H228.425V172.807Z" fill="#181F23"/>
<path d="M240.95 172.807H242.117L240.413 169.974L242 167.359H240.926L239.588 169.639H238.646V167.359H237.658V169.639H236.7L235.369 167.359H234.295L235.891 169.966L234.179 172.807H235.346L236.724 170.511H237.658V172.807H238.646V170.511H239.58L240.95 172.807Z" fill="#181F23"/>
<path d="M243.832 171.959V170.457H246.462V169.624H243.832V168.207H246.797V167.359H242.82V172.807H246.906V171.959H243.832Z" fill="#181F23"/>
<path d="M251.863 167.359V169.608H249.046V167.359H248.034V172.807H249.046V170.472H251.863V172.807H252.875V167.359H251.863Z" fill="#181F23"/>
<path d="M258.232 167.359V169.608H255.415V167.359H254.403V172.807H255.415V170.472H258.232V172.807H259.244V167.359H258.232Z" fill="#181F23"/>
<path d="M263.294 172.885C264.982 172.885 266.228 171.702 266.228 170.083C266.228 168.464 264.982 167.281 263.294 167.281C261.605 167.281 260.359 168.472 260.359 170.083C260.359 171.694 261.605 172.885 263.294 172.885ZM263.294 171.998C262.196 171.998 261.379 171.196 261.379 170.083C261.379 168.97 262.196 168.169 263.294 168.169C264.391 168.169 265.208 168.97 265.208 170.083C265.208 171.196 264.391 171.998 263.294 171.998Z" fill="#181F23"/>
<path d="M269.852 172.885C270.747 172.885 271.51 172.566 272.016 171.974L271.362 171.352C270.965 171.788 270.475 171.998 269.907 171.998C268.778 171.998 267.961 171.204 267.961 170.083C267.961 168.962 268.778 168.169 269.907 168.169C270.475 168.169 270.965 168.379 271.362 168.807L272.016 168.192C271.51 167.6 270.747 167.281 269.86 167.281C268.187 167.281 266.942 168.457 266.942 170.083C266.942 171.71 268.187 172.885 269.852 172.885Z" fill="#181F23"/>
<path d="M276.848 167.359H272.241V168.215H274.038V172.807H275.042V168.215H276.848V167.359Z" fill="#181F23"/>
<path d="M280.234 169.204H278.725V167.359H277.728V172.807H280.071C281.449 172.807 282.266 172.169 282.266 170.947C282.266 169.787 281.534 169.204 280.234 169.204ZM280.024 172.029H278.725V169.974H280.024C280.81 169.974 281.254 170.278 281.254 170.963C281.254 171.663 280.803 172.029 280.024 172.029Z" fill="#181F23"/>
<rect x="0.5" y="137.876" width="92.6294" height="22.044" rx="4" fill="white"/>
<path d="M15.0922 151.808C16.722 151.808 17.9237 150.659 17.9237 149.087C17.9237 147.515 16.722 146.366 15.0922 146.366C13.4624 146.366 12.2607 147.522 12.2607 149.087C12.2607 150.651 13.4624 151.808 15.0922 151.808ZM15.0922 150.946C14.0332 150.946 13.2446 150.168 13.2446 149.087C13.2446 148.006 14.0332 147.228 15.0922 147.228C16.1512 147.228 16.9398 148.006 16.9398 149.087C16.9398 150.168 16.1512 150.946 15.0922 150.946Z" fill="#181F23"/>
<path d="M21.4215 151.808C22.2852 151.808 23.0212 151.498 23.5094 150.923L22.8785 150.319C22.4955 150.742 22.0223 150.946 21.4741 150.946C20.385 150.946 19.5964 150.175 19.5964 149.087C19.5964 147.998 20.385 147.228 21.4741 147.228C22.0223 147.228 22.4955 147.432 22.8785 147.847L23.5094 147.25C23.0212 146.676 22.2852 146.366 21.429 146.366C19.8142 146.366 18.6126 147.507 18.6126 149.087C18.6126 150.666 19.8142 151.808 21.4215 151.808Z" fill="#181F23"/>
<path d="M28.1726 146.442H23.7264V147.273H25.4613V151.732H26.4302V147.273H28.1726V146.442Z" fill="#181F23"/>
<path d="M31.3747 151.808C33.0045 151.808 34.2062 150.659 34.2062 149.087C34.2062 147.515 33.0045 146.366 31.3747 146.366C29.7449 146.366 28.5433 147.522 28.5433 149.087C28.5433 150.651 29.7449 151.808 31.3747 151.808ZM31.3747 150.946C30.3157 150.946 29.5271 150.168 29.5271 149.087C29.5271 148.006 30.3157 147.228 31.3747 147.228C32.4337 147.228 33.2223 148.006 33.2223 149.087C33.2223 150.168 32.4337 150.946 31.3747 150.946Z" fill="#181F23"/>
<path d="M37.4486 146.442H35.2856V151.732H36.262V150.205H37.4486C38.8306 150.205 39.6868 149.487 39.6868 148.323C39.6868 147.152 38.8306 146.442 37.4486 146.442ZM37.4036 149.374H36.262V147.273H37.4036C38.2598 147.273 38.7029 147.658 38.7029 148.323C38.7029 148.989 38.2598 149.374 37.4036 149.374Z" fill="#181F23"/>
<path d="M43.1172 151.808C44.747 151.808 45.9486 150.659 45.9486 149.087C45.9486 147.515 44.747 146.366 43.1172 146.366C41.4874 146.366 40.2857 147.522 40.2857 149.087C40.2857 150.651 41.4874 151.808 43.1172 151.808ZM43.1172 150.946C42.0582 150.946 41.2696 150.168 41.2696 149.087C41.2696 148.006 42.0582 147.228 43.1172 147.228C44.1762 147.228 44.9648 148.006 44.9648 149.087C44.9648 150.168 44.1762 150.946 43.1172 150.946Z" fill="#181F23"/>
<path d="M52.7557 151.732H53.8822L52.2374 148.981L53.7696 146.442H52.7331L51.4413 148.656H50.5326V146.442H49.5787V148.656H48.6549L47.3706 146.442H46.3342L47.8738 148.973L46.2215 151.732H47.3481L48.6775 149.503H49.5787V151.732H50.5326V149.503H51.4338L52.7557 151.732Z" fill="#181F23"/>
<path d="M58.2558 146.442V148.626H55.537V146.442H54.5606V151.732H55.537V149.465H58.2558V151.732H59.2321V146.442H58.2558Z" fill="#181F23"/>
<path d="M63.1403 151.808C64.7701 151.808 65.9717 150.659 65.9717 149.087C65.9717 147.515 64.7701 146.366 63.1403 146.366C61.5105 146.366 60.3088 147.522 60.3088 149.087C60.3088 150.651 61.5105 151.808 63.1403 151.808ZM63.1403 150.946C62.0813 150.946 61.2927 150.168 61.2927 149.087C61.2927 148.006 62.0813 147.228 63.1403 147.228C64.1993 147.228 64.9879 148.006 64.9879 149.087C64.9879 150.168 64.1993 150.946 63.1403 150.946Z" fill="#181F23"/>
<path d="M69.4696 151.808C70.3333 151.808 71.0693 151.498 71.5575 150.923L70.9266 150.319C70.5436 150.742 70.0704 150.946 69.5221 150.946C68.4331 150.946 67.6445 150.175 67.6445 149.087C67.6445 147.998 68.4331 147.228 69.5221 147.228C70.0704 147.228 70.5436 147.432 70.9266 147.847L71.5575 147.25C71.0693 146.676 70.3333 146.366 69.4771 146.366C67.8623 146.366 66.6606 147.507 66.6606 149.087C66.6606 150.666 67.8623 151.808 69.4696 151.808Z" fill="#181F23"/>
<path d="M76.2207 146.442H71.7745V147.273H73.5094V151.732H74.4782V147.273H76.2207V146.442Z" fill="#181F23"/>
<path d="M79.4886 148.233H78.0316V146.442H77.0702V151.732H79.3309C80.6603 151.732 81.4489 151.112 81.4489 149.926C81.4489 148.8 80.7429 148.233 79.4886 148.233ZM79.2858 150.976H78.0316V148.981H79.2858C80.0444 148.981 80.4725 149.276 80.4725 149.941C80.4725 150.621 80.0369 150.976 79.2858 150.976Z" fill="#181F23"/>
<path d="M47.4443 295.267V160.439" stroke="white" stroke-linecap="round" stroke-linejoin="round"/>
<path d="M249.465 259.65L249.465 180.919" stroke="white" stroke-linecap="round" stroke-linejoin="round"/>
<defs>
<clipPath id="clip0">
<rect width="296.001" height="172.164" fill="white" transform="translate(1 219.714)"/>
</clipPath>
</defs>
</svg>
