<svg width="35" height="32" viewBox="0 0 35 32" fill="none" xmlns="http://www.w3.org/2000/svg">
<path d="M24.6432 30.9256C23.9564 30.9277 23.2828 30.7365 22.6997 30.3736C22.2357 30.5451 21.7454 30.6346 21.2507 30.6381C20.7418 30.6366 20.2381 30.5349 19.7685 30.3387C19.2989 30.1425 18.8725 29.8558 18.5137 29.4949C18.1549 29.1339 17.8707 28.7058 17.6773 28.2351C17.484 27.7643 17.3852 27.26 17.3867 26.7511V5.40725C17.3898 4.38233 17.7975 3.40007 18.5211 2.67426C19.2448 1.94845 20.2258 1.53784 21.2507 1.53178C21.4304 1.51372 21.6115 1.51372 21.7912 1.53178C22.3373 1.3357 22.913 1.23458 23.4932 1.23279C24.7604 1.23261 25.9768 1.73041 26.8804 2.61886C27.7839 3.50732 28.3021 4.71526 28.3232 5.98225H28.4152C28.8716 6.19891 29.278 6.50809 29.6086 6.89017C29.9392 7.27225 30.1868 7.7189 30.3357 8.20174H30.3931C31.1896 8.60278 31.8587 9.21744 32.3258 9.97699C32.7929 10.7365 33.0395 11.611 33.0381 12.5027C33.0431 13.3823 32.8043 14.2461 32.3482 14.9982C32.8285 15.4498 33.2114 15.995 33.4731 16.6002C33.7347 17.2054 33.8697 17.8578 33.8697 18.5172C33.8697 19.1765 33.7347 19.8289 33.4731 20.4341C33.2114 21.0393 32.8285 21.5845 32.3482 22.0362H32.2446C32.3833 22.5027 32.4531 22.9869 32.4516 23.4736C32.4516 26.1531 30.7611 28.3151 28.0932 28.3151C27.8839 29.0683 27.4328 29.7318 26.8094 30.2035C26.186 30.6752 25.4249 30.9289 24.6432 30.9256Z" fill="white"/>
<path d="M6.52357 5.99185C6.54468 4.72486 7.06287 3.5169 7.96639 2.62845C8.86991 1.73999 10.0864 1.24219 11.3535 1.24237C11.9298 1.24722 12.5011 1.34827 13.044 1.54136C13.2199 1.52384 13.3971 1.52384 13.573 1.54136C14.0835 1.53833 14.5895 1.63588 15.0622 1.82842C15.535 2.02097 15.9652 2.30475 16.3283 2.66356C16.6914 3.02236 16.9802 3.44917 17.1783 3.91961C17.3765 4.39005 17.48 4.89489 17.483 5.40534V26.7492C17.4845 27.2591 17.3854 27.7643 17.1913 28.2358C16.9972 28.7073 16.712 29.1359 16.352 29.497C15.9919 29.8581 15.5642 30.1446 15.0933 30.3401C14.6223 30.5356 14.1174 30.6362 13.6075 30.6362C13.1167 30.6316 12.6304 30.5421 12.17 30.3717C11.5861 30.7328 10.9131 30.924 10.2265 30.9237C9.45518 30.932 8.70192 30.6899 8.07985 30.2337C7.45779 29.7775 7.00048 29.1319 6.77657 28.3937C4.10858 28.3937 2.40661 26.2317 2.40661 23.5522C2.40904 23.065 2.48262 22.5807 2.62507 22.1147H2.52158C2.04119 21.6631 1.65836 21.1179 1.39668 20.5127C1.13499 19.9075 1 19.2551 1 18.5958C1 17.9364 1.13499 17.284 1.39668 16.6788C1.65836 16.0736 2.04119 15.5284 2.52158 15.0768C2.07556 14.3203 1.83754 13.4594 1.83161 12.5813C1.83303 11.6916 2.07954 10.8196 2.54411 10.0608C3.00868 9.30212 3.67331 8.68605 4.46507 8.28032H4.56856C4.71546 7.79653 4.96231 7.349 5.29313 6.96666C5.62396 6.58433 6.03141 6.27573 6.48907 6.06084L6.52357 5.99185Z" fill="white"/>
<path d="M17.4244 26.7096C17.4259 27.2195 17.3662 27.7669 17.1721 28.2384C16.978 28.7099 16.6928 29.1385 16.3328 29.4996C15.9727 29.8607 15.545 30.1472 15.0741 30.3427C14.6031 30.5382 14.0982 30.6388 13.5883 30.6388C13.0975 30.6342 12.6112 30.5447 12.1508 30.3743C11.567 30.7354 10.8939 30.9266 10.2074 30.9263C9.26068 30.9202 8.35449 30.5415 7.68508 29.8721C7.01566 29.2027 6.63689 28.2965 6.63086 27.3498C6.63292 26.4863 6.94534 25.6523 7.51111 25C8.07689 24.3477 8.85834 23.9205 9.71287 23.7963" stroke="#181F23" stroke-linecap="round" stroke-linejoin="round"/>
<path d="M9.67871 5.40781C9.68106 4.47328 10.021 3.57108 10.6359 2.86739C11.2509 2.16369 12.0994 1.70589 13.0252 1.57833C13.2011 1.5608 13.3783 1.5608 13.5542 1.57833C14.5792 1.57215 15.5651 1.97109 16.2974 2.6883C17.0297 3.4055 17.449 4.38292 17.4641 5.40781" stroke="#181F23" stroke-linecap="round" stroke-linejoin="round"/>
<path d="M6.75961 28.3964C4.09162 28.3964 2.38965 26.2344 2.38965 23.5549C2.39208 23.0676 2.46566 22.5834 2.60811 22.1174C2.9055 21.1262 3.51263 20.2564 4.34047 19.6356C5.16832 19.0147 6.17331 18.6754 7.20809 18.6674" stroke="#181F23" stroke-linecap="round" stroke-linejoin="round"/>
<path d="M2.51412 22.0827C1.81221 21.4162 1.32567 20.5549 1.11702 19.6097C0.908372 18.6645 0.987129 17.6785 1.34321 16.7784C1.69929 15.8783 2.31642 15.1053 3.11526 14.5586C3.9141 14.012 4.85815 13.7167 5.8261 13.7108" stroke="#181F23" stroke-linecap="round" stroke-linejoin="round"/>
<path d="M2.44196 14.9985C1.99594 14.2421 1.75789 13.3812 1.75195 12.503C1.75337 11.6134 1.99988 10.7413 2.46445 9.9826C2.92902 9.22387 3.59369 8.60782 4.38545 8.20209" stroke="#181F23" stroke-linecap="round" stroke-linejoin="round"/>
<path d="M11.3358 10.9279C10.0538 10.9248 8.8253 10.4134 7.91984 9.50577C7.01437 8.59815 6.50586 7.36844 6.50586 6.08639V5.99441C6.52698 4.72742 7.04517 3.51947 7.94868 2.63101C8.8522 1.74255 10.0687 1.24476 11.3358 1.24493C11.9121 1.24979 12.4834 1.35084 13.0263 1.54393" stroke="#181F23" stroke-linecap="round" stroke-linejoin="round"/>
<path d="M7.91927 12.8255C6.96967 12.8225 6.05998 12.4431 5.38959 11.7706C4.7192 11.098 4.34277 10.1871 4.34277 9.23754C4.34478 8.89108 4.3951 8.5466 4.49228 8.21404C4.63917 7.73026 4.88602 7.28272 5.21685 6.90039C5.54768 6.51805 5.95512 6.20945 6.41278 5.99457" stroke="#181F23" stroke-linecap="round" stroke-linejoin="round"/>
<path d="M17.4297 5.40778V26.7516" stroke="#181F23" stroke-linecap="round" stroke-linejoin="round"/>
<path d="M17.3877 26.843C17.3862 27.352 17.4861 27.7651 17.6795 28.2359C17.8729 28.7066 18.1571 29.1347 18.5159 29.4957C18.8747 29.8566 19.3011 30.1434 19.7707 30.3395C20.2403 30.5357 20.7439 30.6374 21.2529 30.6389C21.7476 30.6354 22.2379 30.5459 22.7019 30.3744C23.285 30.7373 23.9586 30.9286 24.6454 30.9264C25.4167 30.9347 26.17 30.6926 26.7921 30.2364C27.4141 29.7803 27.8714 29.1346 28.0953 28.3964C28.1916 28.0558 28.2419 27.7039 28.2449 27.3499C28.2448 26.484 27.9316 25.6474 27.3631 24.9943C26.7945 24.3412 26.009 23.9158 25.1514 23.7964" stroke="#181F23" stroke-linecap="round" stroke-linejoin="round"/>
<path d="M25.1281 5.4079C25.1286 4.47443 24.7911 3.57235 24.178 2.8684C23.565 2.16445 22.7178 1.70622 21.7931 1.57843C21.6134 1.56036 21.4323 1.56036 21.2526 1.57843C20.2277 1.58449 19.2467 1.99512 18.523 2.72093C17.7994 3.44674 17.3917 4.42899 17.3887 5.45391" stroke="#181F23" stroke-linecap="round" stroke-linejoin="round"/>
<path d="M28.093 28.3966C30.761 28.3966 32.4515 26.2346 32.4515 23.5551C32.453 23.0684 32.3832 22.5841 32.2445 22.1176C31.9455 21.1274 31.338 20.2587 30.5105 19.638C29.683 19.0174 28.6788 18.6774 27.6445 18.6677" stroke="#181F23" stroke-linecap="round" stroke-linejoin="round"/>
<path d="M32.3274 22.0825C32.8078 21.6309 33.1906 21.0857 33.4523 20.4805C33.714 19.8753 33.8489 19.2229 33.8489 18.5635C33.8489 17.9042 33.714 17.2518 33.4523 16.6466C33.1906 16.0414 32.8078 15.4962 32.3274 15.0446C31.4301 14.1925 30.2413 13.7153 29.0039 13.7106" stroke="#181F23" stroke-linecap="round" stroke-linejoin="round"/>
<path d="M32.371 14.9987C32.8271 14.2465 33.066 13.3828 33.061 12.5032C33.0624 11.6115 32.8158 10.737 32.3487 9.97745C31.8816 9.21791 31.2124 8.60325 30.416 8.20221" stroke="#181F23" stroke-linecap="round" stroke-linejoin="round"/>
<path d="M23.494 10.9277C24.776 10.9246 26.0045 10.4132 26.91 9.50558C27.8155 8.59796 28.324 7.36826 28.324 6.08621V5.99423C28.3029 4.72724 27.7847 3.51928 26.8812 2.63083C25.9776 1.74237 24.7612 1.24458 23.494 1.24475C22.9138 1.24654 22.3381 1.34766 21.792 1.54374" stroke="#181F23" stroke-linecap="round" stroke-linejoin="round"/>
<path d="M26.9453 12.825C27.8949 12.822 28.8046 12.4426 29.475 11.7701C30.1454 11.0975 30.5218 10.1867 30.5218 9.23705C30.514 8.89106 30.4638 8.54732 30.3723 8.21356C30.2235 7.73071 29.9759 7.28408 29.6453 6.902C29.3147 6.51992 28.9082 6.21074 28.4518 5.99408" stroke="#181F23" stroke-linecap="round" stroke-linejoin="round"/>
<path d="M17.3887 5.40759V26.7515" stroke="#181F23" stroke-linecap="round" stroke-linejoin="round"/>
<path d="M18.3622 12.0184C19.1736 12.1579 19.9435 12.4757 20.6156 12.9486L22.2654 11.2983L23.6537 12.6686L21.9536 14.3289C22.4259 14.9905 22.7422 15.7495 22.8791 16.5494H25.223V18.4698H22.9595C22.8208 19.2722 22.5047 20.034 22.034 20.7002L23.6939 22.3505L22.3057 23.7308L20.6558 22.0705C19.9837 22.5434 19.2138 22.8612 18.4024 23.0007V25.3312H16.4508V23.0007C15.6431 22.8591 14.877 22.5415 14.2075 22.0705L12.5476 23.7308L11.1795 22.3505L12.8192 20.7002C12.3528 20.0316 12.0371 19.2708 11.8937 18.4698H9.5498V16.5194H11.8937C12.0351 15.7208 12.3511 14.9628 12.8192 14.2989L11.1795 12.6386L12.5476 11.2683L14.2075 12.9186C14.878 12.4494 15.6437 12.1319 16.4508 11.9884V9.65796H18.4024L18.3622 12.0184Z" fill="white" stroke="#181F23" stroke-linecap="round" stroke-linejoin="round"/>
<path d="M17.3878 14.6449C17.9514 14.6449 18.5023 14.812 18.9709 15.1252C19.4396 15.4383 19.8048 15.8833 20.0205 16.4041C20.2362 16.9248 20.2926 17.4977 20.1827 18.0505C20.0727 18.6033 19.8013 19.1111 19.4028 19.5096C19.0042 19.9081 18.4965 20.1795 17.9437 20.2895C17.3909 20.3994 16.818 20.343 16.2973 20.1273C15.7766 19.9116 15.3315 19.5464 15.0184 19.0778C14.7053 18.6091 14.5381 18.0582 14.5381 17.4946C14.5367 17.12 14.6095 16.7488 14.7522 16.4024C14.8949 16.056 15.1048 15.7413 15.3696 15.4764C15.6345 15.2116 15.9492 15.0017 16.2956 14.859C16.642 14.7163 17.0132 14.6435 17.3878 14.6449Z" fill="white" stroke="#181F23" stroke-linecap="round" stroke-linejoin="round"/>
</svg>
