<svg width="33" height="34" viewBox="0 0 33 34" fill="none" xmlns="http://www.w3.org/2000/svg">
<circle cx="16.4346" cy="17.0854" r="16.4346" fill="white"/>
<circle cx="16.4338" cy="17.0851" r="2.19648" fill="#181F23"/>
<path d="M5.85387 24.5025C4.89575 23.119 4.225 21.5687 3.87891 19.938" stroke="#181F23" stroke-linecap="round" stroke-linejoin="round"/>
<path d="M13.7739 29.9229C11.6784 29.4643 9.73122 28.4868 8.11035 27.0799L11.1521 23.9319C12.6276 25.1374 14.4642 25.8123 16.3681 25.8486C18.2719 25.8848 20.1328 25.2803 21.6529 24.1318" stroke="#181F23" stroke-linecap="round" stroke-linejoin="round"/>
<path d="M8.72633 21.0791C8.17721 19.9729 7.87255 18.7595 7.83342 17.5228C7.79429 16.286 8.02161 15.0555 8.49968 13.9161C8.97775 12.7768 9.69517 11.7558 10.6024 10.9238C11.5095 10.0918 12.5849 9.46855 13.754 9.09717" stroke="#181F23" stroke-linecap="round" stroke-linejoin="round"/>
<path d="M23.6348 21.9898C24.5216 20.6172 24.9936 19.0119 24.9926 17.3711H29.2708C29.2714 19.9748 28.4884 22.5167 27.0265 24.6576C25.5645 26.7985 23.4932 28.4365 21.0889 29.353" stroke="#181F23" stroke-linecap="round" stroke-linejoin="round"/>
<path d="M24.1945 13.9977C23.5789 12.3845 22.5078 10.9999 21.1204 10.0242C19.7331 9.04843 18.0936 8.52662 16.4154 8.52661V12.9574C17.386 12.958 18.3245 13.3172 19.0612 13.9701C19.798 14.6231 20.2846 15.5267 20.4331 16.5178C20.5816 17.5089 20.3822 18.5223 19.871 19.3748C19.3598 20.2274 18.5704 20.863 17.6454 21.1668C16.7204 21.4707 15.7207 21.4228 14.8269 21.0318C13.933 20.6408 13.204 19.9325 12.7713 19.0347C12.3386 18.1369 12.2308 17.1089 12.4675 16.1362C12.7041 15.1635 13.2695 14.3103 14.0616 13.7306" stroke="#181F23" stroke-linecap="round" stroke-linejoin="round"/>
<path d="M23.9111 6.81531C26.1935 8.43922 27.8762 10.7412 28.7075 13.3769" stroke="#181F23" stroke-linecap="round" stroke-linejoin="round"/>
<path d="M3.59668 17.3708C3.5978 15.2656 4.09487 13.1915 5.04598 11.3235C5.99709 9.45548 7.37436 7.84824 9.06164 6.63732C10.7489 5.42639 12.6968 4.64728 14.7409 4.36568C16.7851 4.08408 18.8656 4.30825 20.8071 5.01928" stroke="#181F23" stroke-linecap="round" stroke-linejoin="round"/>
</svg>
