<svg width="125" height="408" viewBox="0 0 125 408" fill="none" xmlns="http://www.w3.org/2000/svg">
<path d="M10.0401 126.161C10.0401 126.161 6.5603 132.548 6.5603 135.373C6.5603 138.198 22.7789 173.387 23.0701 174.584C23.3614 175.782 21.3379 182.138 22.4876 186.774C23.6373 191.411 27.9909 196.416 27.9909 196.416L33.4941 172.634C31.7205 170.723 30.4896 168.371 29.929 165.823C29.3683 163.274 29.4983 160.622 30.3056 158.141C33.2029 149.728 33.2029 131.75 33.2029 131.75L10.0401 126.161Z" fill="white" stroke="#181F23" stroke-linecap="round" stroke-linejoin="round"/>
<path d="M38.1221 390.584C38.1221 390.584 39.5631 405.308 38.4134 406.183C37.2636 407.058 31.3465 406.92 27.2689 406.183C21.7043 405.17 18.669 406.429 14.6067 406.429C10.5444 406.429 1.86796 407.534 0.948196 405.676C-0.830021 402.114 9.74732 398.706 15.5419 395.236C21.3364 391.767 26.8243 388.849 26.8243 388.849L38.1221 390.584Z" fill="white" stroke="#181F23" stroke-linecap="round" stroke-linejoin="round"/>
<path d="M82.1339 169.656C82.1339 169.656 87.3459 197.506 87.6372 202.711C87.9284 207.915 102.399 384.505 102.399 384.505L89.0781 385.656L55.7826 218.309L53.4678 217.741L38.1384 390.523L25.6909 388.205L25.1084 197.721L28.8794 169.027L82.1339 169.656Z" fill="#181F23" stroke="white" stroke-linecap="round" stroke-linejoin="round"/>
<path d="M68.8127 80.9316C68.8127 80.9316 91.9755 76.0033 97.4788 74.5601C102.982 73.1169 104.484 86.1515 106.155 90.4811C107.826 94.8106 124.397 124.994 123.248 127.328C122.098 129.662 117.744 135.741 109.052 129.646C100.361 123.551 95.164 113.403 95.164 113.403C95.164 113.403 83.575 146.181 82.9924 149.943C82.4099 153.704 84.5254 169.38 82.9924 172.558C81.4595 175.736 67.0805 177.778 55.2002 177.486C43.3198 177.194 30.3052 176.918 28.5729 172.558C26.8407 168.197 28.8642 136.033 28.8642 136.033C28.8642 136.033 10.9134 132.84 8.01614 128.495C5.11887 124.15 11.4806 118.055 17.2138 106.74C22.947 95.4247 24.4493 81.8067 28.8029 79.1967C33.1564 76.5867 61.5159 81.515 64.0606 81.515C65.6632 81.5271 67.2605 81.331 68.8127 80.9316Z" fill="white" stroke="#181F23" stroke-linecap="round" stroke-linejoin="round"/>
<path d="M64.4744 88.7615L60.4274 99.2015L65.9307 162.701L52.6094 185.316L44.7914 159.231L56.3651 98.3263L50.0034 85.8598L58.6798 82.0983L65.3481 87.3183L64.4744 88.7615Z" fill="#181F23" stroke="#181F23" stroke-linecap="round" stroke-linejoin="round"/>
<path d="M75.1894 79.1967L76.0479 97.7584L56.6561 88.1781L39.5637 98.3264L48.8381 78.905C53.1932 76.5237 58.0569 75.2282 63.0178 75.1282C67.4273 75.003 71.7389 76.4442 75.1894 79.1967Z" fill="white" stroke="#181F23" stroke-linecap="round" stroke-linejoin="round"/>
<path d="M71.1279 58.9001C70.3848 63.7912 70.0923 68.7403 70.2541 73.685C70.5454 81.8067 69.3957 80.0718 65.6553 86.1515C61.9149 92.2313 59.2936 94.5649 56.105 91.0798C52.9165 87.5947 52.9165 80.3328 52.334 78.905C51.7515 77.4771 51.1843 60.635 51.1843 60.635C51.1843 60.635 55.2006 63.5367 71.1279 58.9001Z" fill="white" stroke="#181F23" stroke-linecap="round" stroke-linejoin="round"/>
<path d="M50.3244 24.6938C47.906 32.1799 46.6496 39.9935 46.5993 47.8614C46.5993 60.5736 46.5993 64.7496 50.8303 67.0525C55.0612 69.3555 61.5609 69.5397 65.5006 67.0525C69.5017 64.6198 73.1793 61.6897 76.4458 58.3321C79.1897 55.3383 86.6552 46.1265 87.6516 39.9086C88.648 33.6907 76.691 25.7072 66.7422 21.7154C64.0174 20.5351 61.0048 20.1881 58.0836 20.7181C55.1623 21.2481 52.4628 22.6313 50.3244 24.6938Z" fill="white" stroke="#181F23" stroke-linecap="round" stroke-linejoin="round"/>
<path d="M63.0943 41.1982C62.8183 42.6413 63.2169 43.931 63.9834 44.0845C64.7498 44.2381 65.5163 43.1787 65.8689 41.7202C66.2214 40.2617 65.7462 38.9874 64.9798 38.8338C64.2133 38.6803 63.4162 39.8164 63.0943 41.1982Z" fill="#181F23"/>
<path d="M54.0352 37.5442C53.6299 36.9551 53.0445 36.5138 52.3672 36.2867C51.6898 36.0597 50.9571 36.0591 50.2795 36.2852" stroke="#181F23" stroke-linecap="round" stroke-linejoin="round"/>
<path d="M54.0352 54.8009L49.9729 51.9759" stroke="#181F23" stroke-linecap="round" stroke-linejoin="round"/>
<path d="M69.7021 37.5442C69.7021 37.5442 68.4451 33.1532 62.8039 34.7192" stroke="#181F23" stroke-linecap="round" stroke-linejoin="round"/>
<path d="M57.4844 34.0898C57.4844 34.0898 57.1624 30.9424 52.7782 30.9424" stroke="#181F23" stroke-linecap="round" stroke-linejoin="round"/>
<path d="M56.3786 37.145C56.3786 37.145 51.3965 45.1285 51.6418 46.3567C51.8871 47.5849 56.8691 51.0854 56.8691 51.0854" stroke="#181F23" stroke-linecap="round" stroke-linejoin="round"/>
<path d="M80.1879 51.8531C79.4671 51.6256 78.8485 51.1525 78.4397 50.5159C78.0309 49.8792 77.8575 49.1193 77.9498 48.3681C77.9498 45.3742 79.4827 43.6393 79.4827 39.4019C79.4827 35.1645 66.2994 28.4246 59.5545 29.1769C52.8095 29.9292 46.6164 29.9292 42.876 26.1831C39.1356 22.437 38.3998 18.2149 39.8868 18.5066C41.6804 19.0286 43.4287 19.6961 45.1141 20.5025C44.5237 17.9005 44.4846 15.2034 44.9995 12.5854C45.5144 9.96732 46.5718 7.48653 48.1034 5.30314C53.3307 -2.17373 54.5724 2.81597 53.8213 4.05955C53.0701 5.30314 50.8474 11.0298 50.8474 11.0298C50.8474 11.0298 59.0486 4.81184 64.2759 5.30314C69.5033 5.79443 86.1664 13.2713 90.152 19.0133C94.1377 24.7553 94.383 33.706 93.3865 38.6957C92.3901 43.6854 89.4009 44.1767 89.4009 44.1767L82.6866 52.6515L80.1879 51.8531Z" fill="#181F23" stroke="white" stroke-linecap="round" stroke-linejoin="round"/>
<path d="M89.1533 38.5575C89.1533 38.5575 88.2182 30.7121 81.0134 28.1943C73.8086 25.6764 67.2169 25.6918 58.1419 25.6918C49.0669 25.6918 53.7577 16.9099 57.2068 16.2804" stroke="white" stroke-linecap="round" stroke-linejoin="round"/>
<path d="M89.7979 27.8872C89.7979 27.8872 88.2649 21.3008 74.7597 20.6713" stroke="white" stroke-linecap="round" stroke-linejoin="round"/>
<path d="M76.4465 54.3403C76.4465 54.3403 79.681 46.6638 84.9083 48.8593C90.1357 51.0548 84.4178 61.5715 78.9452 61.3258C73.4726 61.0802 72.7214 57.8407 72.7214 57.8407" fill="white"/>
<path d="M76.4465 54.3403C76.4465 54.3403 79.681 46.6638 84.9083 48.8593C90.1357 51.0548 84.4178 61.5715 78.9452 61.3258C73.4726 61.0802 72.7214 57.8407 72.7214 57.8407" stroke="#181F23" stroke-linecap="round" stroke-linejoin="round"/>
<path d="M75.6501 91.1873C75.6501 91.1873 75.6501 75.7576 74.0251 72.7638C72.4002 69.77 67.2648 67.3442 64.2909 65.7168C61.317 64.0894 59.968 65.7168 61.317 68.1579C62.7044 70.2436 64.3415 72.1513 66.1918 73.8385C66.1918 73.8385 51.8588 67.0679 50.5098 68.9716C49.1608 70.8754 48.8848 73.3011 50.5098 74.6522C51.9528 75.6144 53.3071 76.7036 54.5567 77.907C55.3692 78.9817 53.7443 87.1188 55.3692 89.8209C56.9941 92.523 64.2909 95.5014 68.0773 97.9426C71.8637 100.384 98.9048 130.184 106.202 133.684C113.498 137.185 117.837 139.38 121.623 134.498C125.409 129.616 124.597 124.749 119.722 118.792C114.847 112.835 75.6501 91.1873 75.6501 91.1873Z" fill="white" stroke="#181F23" stroke-linecap="round" stroke-linejoin="round"/>
<path d="M102.401 384.505C102.401 384.505 106.739 392.918 109.636 395.804C112.533 398.691 118.481 404.479 117.899 405.922C117.316 407.365 90.0603 405.922 90.0603 405.922C90.0603 405.922 87.7762 406.935 88.5274 400.165C88.8646 396.987 89.1099 385.656 89.1099 385.656L102.401 384.505Z" fill="white" stroke="#181F23" stroke-linecap="round" stroke-linejoin="round"/>
<path d="M28.8638 136.033C28.8638 136.033 28.5725 103.255 30.3047 99.1861L28.8638 136.033Z" fill="white"/>
<path d="M28.8638 136.033C28.8638 136.033 28.5725 103.255 30.3047 99.1861" stroke="#181F23" stroke-linecap="round" stroke-linejoin="round"/>
</svg>
