<svg width="153" height="241" viewBox="0 0 153 241" fill="none" xmlns="http://www.w3.org/2000/svg">
<path d="M73.1747 48.0992C73.1747 48.0992 65.4534 69.9734 61.612 79.1851C57.7706 88.3968 60.6671 96.2716 63.1486 97.1475C65.7531 98.0694 84.6066 91.3623 89.0857 89.626C93.342 87.9742 93.3881 88.0895 93.3881 88.0895C93.3881 88.0895 92.5944 103.374 92.5944 105.064C92.5944 106.754 91.6049 112.576 91.9122 114.42C92.2195 116.264 95.3856 119.105 107.663 120.326C119.94 121.548 126.231 119.427 127.452 117.737C128.674 116.046 128.23 112.598 128.23 109.226C128.23 105.853 127.769 87.1675 125.318 72.0862C122.867 57.0049 116.413 50.5744 113.34 48.9072C110.267 47.2401 105.051 49.5218 99.8339 53.0482C94.6173 56.5746 91.6979 63.4892 90.9296 65.3407C90.1613 67.1923 75.4257 79.4617 74.3501 80.5373C73.2745 81.6129 76.3838 51.2139 76.3838 51.2139L73.1747 48.0992Z" fill="white"/>
<path d="M96.6219 53.7013C96.6219 53.7013 92.1736 64.4572 93.0955 64.4572C94.0174 64.4572 96.015 61.0768 96.015 61.0768L98.6194 66.3011C98.6194 66.3011 99.0804 54.0086 98.7731 53.5553C98.4658 53.102 97.2365 52.0418 96.6219 53.7013Z" fill="white" stroke="#181F23" stroke-linecap="round" stroke-linejoin="round"/>
<path d="M93.3463 47.5311C94.6119 47.3978 95.8636 47.1313 97.0849 46.735C97.8726 46.5005 98.843 46.0018 99.8321 45.4111C100.833 44.8137 101.885 44.102 102.841 43.4214C103.797 42.7402 104.662 42.0865 105.287 41.6034C105.489 41.4472 105.666 41.3087 105.814 41.1928C105.86 41.2878 105.912 41.393 105.967 41.5069C106.223 42.0334 106.561 42.7432 106.895 43.4788C107.23 44.2161 107.556 44.9718 107.787 45.5923C107.903 45.9033 107.992 46.1708 108.047 46.3801C108.075 46.4848 108.091 46.5668 108.099 46.6274C108.103 46.6561 108.105 46.6748 108.105 46.6852C108.102 46.6929 108.098 46.7042 108.092 46.7195C108.075 46.7643 108.049 46.826 108.014 46.9058C107.943 47.065 107.841 47.2793 107.71 47.544C107.45 48.0726 107.084 48.7859 106.646 49.6271C105.945 50.9741 105.063 52.6406 104.139 54.3865C103.909 54.8206 103.676 55.2596 103.443 55.6999C102.275 57.9089 101.095 60.1482 100.178 61.9433C99.7194 62.8406 99.3252 63.63 99.0305 64.2509C99.0171 64.2792 99.0038 64.3072 98.9907 64.335C98.933 63.8181 98.8754 63.1995 98.8172 62.5308C98.7815 62.1202 98.7456 61.6915 98.7094 61.2593C98.647 60.5145 98.5837 59.7592 98.5189 59.0675C98.4174 57.9829 98.3085 57.01 98.1852 56.4553C98.0537 55.8638 97.6385 54.9578 97.1314 53.9802C96.6146 52.9841 95.9716 51.857 95.3462 50.8001C94.7203 49.7422 94.1092 48.7501 93.6548 48.0227C93.5416 47.8414 93.438 47.6765 93.3463 47.5311Z" fill="white" stroke="#181F23"/>
<path d="M58.3536 224.974L57.0706 226.894L58.9913 228.177L57.7159 230.313L59.4215 231.804L56.2178 233.94L57.9234 235.007L57.5008 236.506L59.2064 237.358L57.5008 239.917H5.19636L4.12845 237.358L5.41148 235.86L3.49078 234.792L6.47939 233.94L4.55869 232.657L6.68683 231.804L3.91334 230.736L10.9585 228.6L3.06055 227.325L5.61892 207.895L57.5392 216.822L58.3536 224.974Z" fill="white" stroke="#181F23" stroke-miterlimit="10" stroke-linecap="round"/>
<path d="M47.5583 228.884C46.5586 229.077 45.728 229.234 45.1356 229.345C44.8167 229.404 44.5668 229.45 44.3968 229.482L44.2029 229.517L44.1534 229.526L44.1409 229.529L44.1378 229.529L44.1371 229.529L44.1369 229.529L44.2261 230.021L44.1369 229.529L44.2028 230.521L48.7629 230.734L44.9676 231.114L44.9942 232.111L49.2916 232.312L45.2315 232.697L45.1928 233.687L48.3239 234.232L44.6776 234.813L44.6396 235.793L51.608 237.465H19.0801L20.4814 237.35L20.5428 236.362L12.4292 234.661L23.3904 233.646L23.4218 232.654L14.6493 231.279L24.1702 230.766L24.2605 229.781L22.8395 229.439C29.1111 229.736 36.0507 229.547 41.9555 229.234C43.9627 229.127 45.8525 229.006 47.5583 228.884Z" stroke="#181F23"/>
<path d="M1.29395 227.209C1.29395 227.209 32.9471 228.615 58.354 224.989L57.5397 212.612L4.1289 207.511L1.29395 227.209Z" fill="white"/>
<path d="M1.29395 227.209C1.29395 227.209 32.947 228.615 58.354 224.989L57.5397 212.612L4.1289 207.511L1.29395 227.209Z" stroke="#181F23" stroke-miterlimit="10" stroke-linecap="round"/>
<path d="M13.8257 210.937L12.873 221.025" stroke="#181F23" stroke-linecap="round" stroke-linejoin="round"/>
<path d="M21.7076 211.567L21.3926 221.977" stroke="#181F23" stroke-linecap="round" stroke-linejoin="round"/>
<path d="M29.5894 212.512L29.2744 222.607" stroke="#181F23" stroke-linecap="round" stroke-linejoin="round"/>
<path d="M36.8496 214.717V222.922" stroke="#181F23" stroke-linecap="round" stroke-linejoin="round"/>
<path d="M45.3623 216.615L45.6773 222.922" stroke="#181F23" stroke-linecap="round" stroke-linejoin="round"/>
<path d="M52.9375 217.875L53.2525 222.922" stroke="#181F23" stroke-linecap="round" stroke-linejoin="round"/>
<path d="M58.5848 203.554C58.5848 203.554 16.4677 222.146 1.30957 227.194L4.14452 207.472L46.6304 189.894L58.5848 203.554Z" fill="white"/>
<path d="M58.5848 203.554C58.5848 203.554 16.4677 222.146 1.30957 227.194L4.14452 207.472L46.6304 189.894L58.5848 203.554Z" stroke="#181F23" stroke-linecap="round" stroke-linejoin="round"/>
<path d="M17.789 205.26L58.5692 203.554L50.4562 185.838L10.3213 186.053L17.789 205.26Z" fill="white"/>
<path d="M17.789 205.26L58.5692 203.554L50.4562 185.838L10.3213 186.053L17.789 205.26Z" stroke="#181F23" stroke-linecap="round" stroke-linejoin="round"/>
<path d="M21.0771 188.857L24.8648 201.472" stroke="#181F23" stroke-linecap="round" stroke-linejoin="round"/>
<path d="M28.3291 188.219L32.1167 201.472" stroke="#181F23" stroke-linecap="round" stroke-linejoin="round"/>
<path d="M35.5898 187.904L39.0548 200.527" stroke="#181F23" stroke-linecap="round" stroke-linejoin="round"/>
<path d="M43.1582 187.904L46.9458 200.212" stroke="#181F23" stroke-linecap="round" stroke-linejoin="round"/>
<path d="M60.3667 136.214L72.5824 178.777L67.6961 180.391L45.416 132.081C45.416 132.081 53.8671 129.323 60.3667 136.214Z" fill="#181F23" stroke="white" stroke-linecap="round" stroke-linejoin="round"/>
<path d="M72.5823 178.808C72.5823 178.808 75.74 184.124 75.74 185.899C75.74 187.674 70.024 187.474 67.4656 187.866C64.9072 188.258 59.3526 191.976 57.0477 190.993C57.0477 190.993 55.6725 190.224 57.0477 188.626C58.423 187.028 64.815 183.971 67.7268 180.391L72.5823 178.808Z" fill="white" stroke="#181F23" stroke-linecap="round" stroke-linejoin="round"/>
<path d="M71.0947 54.3212L75.7852 55.6112" stroke="#181F23" stroke-linecap="round" stroke-linejoin="round"/>
<path d="M74.365 80.568C74.1303 83.05 73.7195 85.5121 73.1357 87.9358L74.365 80.568Z" fill="white"/>
<path d="M74.365 80.568C74.1303 83.05 73.7195 85.5121 73.1357 87.9358" stroke="#181F23" stroke-linecap="round" stroke-linejoin="round"/>
<path d="M93.4034 88.0895L91.5596 75.3437" stroke="#181F23" stroke-linecap="round" stroke-linejoin="round"/>
<path d="M99.3884 59.2252L98.6201 66.2934L102.308 61.3764L99.3884 59.2252Z" fill="white" stroke="#181F23" stroke-linecap="round" stroke-linejoin="round"/>
<path d="M99.3877 59.2252L102.461 63.6812L113.209 48.4847L109.06 44.9506L99.3877 59.2252Z" fill="white" stroke="#181F23" stroke-linecap="round" stroke-linejoin="round"/>
<path d="M69.0255 82.0815C69.0255 82.0815 66.8897 105.99 58.139 129.907C49.3883 153.823 10.3213 186.053 10.3213 186.053L17.789 205.26C17.789 205.26 45.7543 184.132 58.9918 152.963C72.2292 121.794 72.6595 82.7269 72.6595 82.7269L69.0255 82.0815Z" fill="white"/>
<path d="M69.0255 82.0815C69.0255 82.0815 66.8897 105.99 58.139 129.907C49.3883 153.823 10.3213 186.053 10.3213 186.053L17.789 205.26C17.789 205.26 45.7543 184.132 58.9918 152.963C72.2292 121.794 72.6595 82.7269 72.6595 82.7269L69.0255 82.0815Z" stroke="#181F23" stroke-linecap="round" stroke-linejoin="round"/>
<path d="M33.9991 124.836C33.9991 124.836 30.6494 128.025 32.2474 132.181C33.8455 136.337 61.2961 182.304 61.2961 182.304L67.6805 180.867C67.6805 180.867 54.9117 139.042 52.5146 133.933C50.1176 128.824 48.2046 125.635 46.6143 124.514" fill="#181F23"/>
<path d="M33.9991 124.836C33.9991 124.836 30.6494 128.025 32.2474 132.181C33.8455 136.337 61.2961 182.304 61.2961 182.304L67.6805 180.867C67.6805 180.867 54.9117 139.042 52.5146 133.933C50.1176 128.824 48.2046 125.635 46.6143 124.514" stroke="white" stroke-linecap="round" stroke-linejoin="round"/>
<path d="M61.3111 182.304C61.3111 182.304 53.175 187.889 49.6563 189.326C46.1376 190.762 47.267 192.522 49.6563 192.522C52.0457 192.522 61.1805 191.4 65.0219 190.924C68.8633 190.447 70.93 190.762 71.0913 188.688C71.2526 186.614 67.7339 180.391 67.7339 180.391L61.3111 182.304Z" fill="white" stroke="#181F23" stroke-linecap="round" stroke-linejoin="round"/>
<path d="M107.676 120.326C97.7808 119.335 93.1711 116.854 91.5961 114.948L90.2055 116.685L90.3669 117.96C90.3669 117.96 71.3673 115.087 56.5242 116.846C41.681 118.605 32.7075 123.069 32.1006 128.501L39.7834 132.012C51.1155 138.719 76.3381 140.156 85.1118 140.793C93.8856 141.431 110.657 140.793 117.042 139.833C123.426 138.873 126.299 136.161 126.937 130.89C127.467 126.542 127.559 119.804 127.575 117.584C125.262 119.274 118.509 121.41 107.676 120.326Z" fill="#181F23" stroke="white" stroke-linecap="round" stroke-linejoin="round"/>
<path d="M91.0049 118.767L100.9 127.548" stroke="white" stroke-linecap="round" stroke-linejoin="round"/>
<path d="M92.6035 119.251L99.7869 121.963" stroke="white" stroke-linecap="round" stroke-linejoin="round"/>
<path d="M57.6389 82.5656C57.6389 82.5656 45.3465 86.5529 41.5051 91.7849L26.4775 65.1026C33.8915 63.2043 41.557 62.4785 49.1955 62.9514C61.0117 63.8733 68.8404 72.1707 72.0672 77.5487L57.6389 82.5656Z" fill="white" stroke="#181F23" stroke-linecap="round" stroke-linejoin="round"/>
<path d="M38.1094 67.7301L45.6769 81.6052" stroke="#181F23" stroke-linecap="round" stroke-linejoin="round"/>
<path d="M45.3623 66.4701L51.9849 79.0852" stroke="#181F23" stroke-linecap="round" stroke-linejoin="round"/>
<path d="M52.623 66.1551L58.3006 77.1953" stroke="#181F23" stroke-linecap="round" stroke-linejoin="round"/>
<path d="M108.752 63.8349C108.752 63.8349 107.062 68.1296 107.369 70.7494C107.677 73.3692 108.599 90.5556 108.599 90.5556C108.599 90.5556 94.6312 89.6337 89.0996 87.6362C83.568 85.6387 78.8201 83.3338 78.8201 83.3338L77.5908 88.2508C77.5908 88.2508 87.4171 97.0015 95.7068 100.374C103.997 103.747 119.954 106.974 121.828 106.205C123.703 105.437 125.362 88.4045 125.209 81.8049C125.055 75.2054 125.362 68.1373 122.289 63.228" fill="white"/>
<path d="M108.752 63.8349C108.752 63.8349 107.062 68.1296 107.369 70.7494C107.677 73.3692 108.599 90.5556 108.599 90.5556C108.599 90.5556 94.6312 89.6337 89.0996 87.6362C83.568 85.6387 78.8201 83.3338 78.8201 83.3338L77.5908 88.2508C77.5908 88.2508 87.4171 97.0015 95.7068 100.374C103.997 103.747 119.954 106.974 121.828 106.205C123.703 105.437 125.362 88.4045 125.209 81.8049C125.055 75.2054 125.362 68.1373 122.289 63.228" stroke="#181F23" stroke-linecap="round" stroke-linejoin="round"/>
<path d="M82.2091 84.9626L80.9414 90.8783" stroke="#181F23" stroke-linecap="round" stroke-linejoin="round"/>
<path d="M108.6 90.548C108.6 90.548 112.28 94.9963 114.277 96.2255L108.6 90.548Z" fill="white"/>
<path d="M108.6 90.548C108.6 90.548 112.28 94.9963 114.277 96.2255" stroke="#181F23" stroke-linecap="round" stroke-linejoin="round"/>
<path d="M78.8203 83.3261C77.0129 82.159 75.3608 80.7676 73.9033 79.1851C71.9134 76.8803 70.6842 76.8803 67.9184 76.7266C65.1526 76.573 62.2408 74.1222 61.4725 74.2758C60.7042 74.4295 60.5506 75.8124 61.3189 76.5807C62.0871 77.3489 65.9285 79.3465 65.9285 79.3465L57.6465 82.5732C58.0645 83.0485 58.5918 83.415 59.183 83.6411C60.2586 84.1021 61.3342 83.6411 61.7952 84.1021C62.2562 84.5631 65.022 85.485 66.7045 86.0996C68.387 86.7143 73.9186 85.7923 73.9186 85.7923L77.6064 88.2508L78.8203 83.3261Z" fill="white"/>
<path d="M78.8203 83.3261C77.0129 82.159 75.3608 80.7676 73.9033 79.1851C71.9134 76.8803 70.6842 76.8803 67.9184 76.7266C65.1526 76.573 62.2408 74.1222 61.4725 74.2758C60.7042 74.4295 60.5506 75.8124 61.3189 76.5807C62.0871 77.3489 65.9285 79.3465 65.9285 79.3465L57.6465 82.5732C58.0645 83.0485 58.5918 83.415 59.183 83.6411C60.2586 84.1021 61.3342 83.6411 61.7952 84.1021C62.2562 84.5631 65.022 85.485 66.7045 86.0996C68.387 86.7143 73.9186 85.7923 73.9186 85.7923L77.6064 88.2508L78.8203 83.3261Z" stroke="#181F23" stroke-linecap="round" stroke-linejoin="round"/>
<path d="M71.1602 142.699C72.5418 145.863 73.255 149.279 73.255 152.732C73.255 156.186 72.5418 159.602 71.1602 162.766H142.034C142.034 162.766 150.777 160.6 150.777 152.686C150.777 152.686 149.279 145.641 142.234 142.868L71.1602 142.699Z" fill="white" stroke="#181F23" stroke-linecap="round" stroke-linejoin="round"/>
<path d="M143.764 144.95V160.723" stroke="#181F23" stroke-linecap="round" stroke-linejoin="round"/>
<path d="M73.0898 147.577H83.9687" stroke="#181F23" stroke-linecap="round" stroke-linejoin="round"/>
<path d="M76.5 149.075H88.6695" stroke="#181F23" stroke-linecap="round" stroke-linejoin="round"/>
<path d="M73.082 156.336H93.3646" stroke="#181F23" stroke-linecap="round" stroke-linejoin="round"/>
<path d="M143.533 148.43H134.353" stroke="#181F23" stroke-linecap="round" stroke-linejoin="round"/>
<path d="M143.103 150.996H123.035" stroke="#181F23" stroke-linecap="round" stroke-linejoin="round"/>
<path d="M120.899 150.996H114.069" stroke="#181F23" stroke-linecap="round" stroke-linejoin="round"/>
<path d="M130.933 155.268H143.532" stroke="#181F23" stroke-linecap="round" stroke-linejoin="round"/>
<path d="M72.6592 159.109H80.7722" stroke="#181F23" stroke-linecap="round" stroke-linejoin="round"/>
<path d="M68.1721 165.009H68.1571L68.1421 165.01C67.9194 165.023 67.6964 164.991 67.4866 164.915C67.2769 164.839 67.0849 164.721 66.9225 164.568C66.7601 164.415 66.6307 164.23 66.5423 164.026C66.4538 163.821 66.4082 163.6 66.4082 163.377C66.4082 163.154 66.4538 162.933 66.5423 162.728C66.6307 162.524 66.7601 162.339 66.9225 162.186C67.0849 162.033 67.2769 161.915 67.4866 161.839C67.6963 161.763 67.9194 161.731 68.1421 161.744L68.1571 161.745H68.1721H139.368C144.495 161.745 148.727 157.868 148.727 153.024C148.727 148.181 144.495 144.304 139.368 144.304H68.8097C68.3759 144.304 67.9598 144.131 67.653 143.825C67.3463 143.518 67.1739 143.102 67.1739 142.668C67.1739 142.234 67.3463 141.818 67.653 141.511C67.9598 141.205 68.3759 141.032 68.8097 141.032H139.368C146.353 141.032 151.998 146.44 151.998 153.024C151.998 159.609 146.354 165.009 139.368 165.009H68.1721Z" fill="#181F23" stroke="white"/>
<path d="M147.374 167.437C145.992 170.602 145.279 174.018 145.279 177.471C145.279 180.924 145.992 184.34 147.374 187.505H76.5007C76.5007 187.505 67.75 185.369 67.75 177.471C67.75 177.471 69.2405 170.426 76.2856 167.645L147.374 167.437Z" fill="white" stroke="#181F23" stroke-linecap="round" stroke-linejoin="round"/>
<path d="M74.5801 170.818V184.678" stroke="#181F23" stroke-linecap="round" stroke-linejoin="round"/>
<path d="M145.453 172.347H134.566" stroke="#181F23" stroke-linecap="round" stroke-linejoin="round"/>
<path d="M142.035 173.837H129.873" stroke="#181F23" stroke-linecap="round" stroke-linejoin="round"/>
<path d="M145.454 181.097H125.172" stroke="#181F23" stroke-linecap="round" stroke-linejoin="round"/>
<path d="M75.0029 173.199H84.1839" stroke="#181F23" stroke-linecap="round" stroke-linejoin="round"/>
<path d="M75.4326 175.758H95.5001" stroke="#181F23" stroke-linecap="round" stroke-linejoin="round"/>
<path d="M97.6367 175.758H104.467" stroke="#181F23" stroke-linecap="round" stroke-linejoin="round"/>
<path d="M87.6027 180.029H75.0029" stroke="#181F23" stroke-linecap="round" stroke-linejoin="round"/>
<path d="M145.884 183.871H137.771" stroke="#181F23" stroke-linecap="round" stroke-linejoin="round"/>
<path d="M79.167 190.278H150.363C150.93 190.278 151.473 190.053 151.874 189.653C152.274 189.252 152.499 188.709 152.499 188.142C152.499 187.576 152.274 187.033 151.874 186.632C151.473 186.232 150.93 186.007 150.363 186.007H79.167C74.2807 186.007 70.3087 182.319 70.3087 177.786C70.3087 173.253 74.2807 169.565 79.167 169.565H149.726C150.016 169.583 150.308 169.541 150.582 169.441C150.855 169.342 151.106 169.188 151.318 168.988C151.53 168.789 151.699 168.548 151.815 168.28C151.93 168.013 151.99 167.725 151.99 167.433C151.99 167.142 151.93 166.854 151.815 166.587C151.699 166.319 151.53 166.078 151.318 165.879C151.106 165.679 150.855 165.525 150.582 165.425C150.308 165.326 150.016 165.284 149.726 165.302H79.167C71.9298 165.302 66.0371 170.902 66.0371 177.786C66.0371 184.67 71.9298 190.278 79.167 190.278Z" fill="white" stroke="#181F23" stroke-linecap="round" stroke-linejoin="round"/>
<path d="M71.1602 192.314C72.5418 195.479 73.255 198.895 73.255 202.348C73.255 205.801 72.5418 209.217 71.1602 212.382H142.034C142.034 212.382 150.792 210.246 150.792 202.348C150.792 202.348 149.294 195.303 142.249 192.522L71.1602 192.314Z" fill="white" stroke="#181F23" stroke-linecap="round" stroke-linejoin="round"/>
<path d="M143.764 194.588V210.369" stroke="#181F23" stroke-linecap="round" stroke-linejoin="round"/>
<path d="M73.0898 197.224H83.9687" stroke="#181F23" stroke-linecap="round" stroke-linejoin="round"/>
<path d="M76.5 198.714H88.6695" stroke="#181F23" stroke-linecap="round" stroke-linejoin="round"/>
<path d="M73.082 205.974H93.3646" stroke="#181F23" stroke-linecap="round" stroke-linejoin="round"/>
<path d="M143.533 198.076H134.353" stroke="#181F23" stroke-linecap="round" stroke-linejoin="round"/>
<path d="M143.103 200.635H123.035" stroke="#181F23" stroke-linecap="round" stroke-linejoin="round"/>
<path d="M120.899 200.635H114.069" stroke="#181F23" stroke-linecap="round" stroke-linejoin="round"/>
<path d="M130.933 204.906H143.532" stroke="#181F23" stroke-linecap="round" stroke-linejoin="round"/>
<path d="M72.6592 208.748H80.7722" stroke="#181F23" stroke-linecap="round" stroke-linejoin="round"/>
<path d="M139.369 214.655H68.1729C67.7391 214.655 67.323 214.483 67.0162 214.176C66.7095 213.869 66.5371 213.453 66.5371 213.019C66.5371 212.585 66.7095 212.169 67.0162 211.863C67.323 211.556 67.7391 211.384 68.1729 211.384H139.369C144.496 211.384 148.728 207.506 148.728 202.663C148.728 197.819 144.495 193.95 139.369 193.95H68.8106C68.3767 193.95 67.9607 193.778 67.6539 193.471C67.3471 193.164 67.1748 192.748 67.1748 192.314C67.1748 191.88 67.3471 191.464 67.6539 191.158C67.9607 190.851 68.3768 190.678 68.8106 190.678H139.369C146.354 190.678 151.999 196.079 151.999 202.663C151.999 209.247 146.354 214.655 139.369 214.655Z" fill="#181F23" stroke="white"/>
<path d="M147.374 217.076C145.993 220.241 145.28 223.656 145.28 227.11C145.28 230.563 145.993 233.979 147.374 237.143H76.5007C76.5007 237.143 67.75 235.007 67.75 227.11C67.75 227.11 69.2405 220.064 76.2856 217.291L147.374 217.076Z" fill="white" stroke="#181F23" stroke-linecap="round" stroke-linejoin="round"/>
<path d="M74.5801 220.456V234.316" stroke="#181F23" stroke-linecap="round" stroke-linejoin="round"/>
<path d="M145.453 221.985H134.566" stroke="#181F23" stroke-linecap="round" stroke-linejoin="round"/>
<path d="M142.035 223.483H129.873" stroke="#181F23" stroke-linecap="round" stroke-linejoin="round"/>
<path d="M145.454 230.736H125.172" stroke="#181F23" stroke-linecap="round" stroke-linejoin="round"/>
<path d="M75.0029 222.838H84.1839" stroke="#181F23" stroke-linecap="round" stroke-linejoin="round"/>
<path d="M75.4326 225.404H95.5001" stroke="#181F23" stroke-linecap="round" stroke-linejoin="round"/>
<path d="M97.6367 225.404H104.467" stroke="#181F23" stroke-linecap="round" stroke-linejoin="round"/>
<path d="M87.6027 229.668H75.0029" stroke="#181F23" stroke-linecap="round" stroke-linejoin="round"/>
<path d="M145.884 233.517H137.771" stroke="#181F23" stroke-linecap="round" stroke-linejoin="round"/>
<path d="M79.167 239.917H150.363C150.93 239.917 151.473 239.692 151.874 239.291C152.274 238.891 152.499 238.347 152.499 237.781C152.499 237.215 152.274 236.671 151.874 236.271C151.473 235.87 150.93 235.645 150.363 235.645H79.167C74.2807 235.645 70.3087 231.965 70.3087 227.432C70.3087 222.899 74.2807 219.212 79.167 219.212H149.726C150.292 219.212 150.835 218.987 151.236 218.586C151.637 218.186 151.862 217.642 151.862 217.076C151.862 216.509 151.637 215.966 151.236 215.566C150.835 215.165 150.292 214.94 149.726 214.94H79.167C71.9298 214.94 66.0371 220.541 66.0371 227.432C66.0371 234.324 71.9298 239.917 79.167 239.917Z" fill="white" stroke="#181F23" stroke-linecap="round" stroke-linejoin="round"/>
<path d="M82.762 35.0781C82.762 35.0781 81.5052 32.8882 79.8656 33.4151C78.226 33.942 78.3782 35.8926 80.0799 37.6293C81.7817 39.366 85.1323 39.7207 84.913 38.4569C84.6937 37.1931 82.762 35.0781 82.762 35.0781Z" fill="white" stroke="#181F23" stroke-linecap="round" stroke-linejoin="round"/>
<path d="M105.991 27.6136C105.991 27.6136 105.734 25.1026 107.373 24.5757C109.013 24.0488 110.026 25.7229 109.657 28.1247C109.289 30.5266 106.769 32.7678 106.208 31.614C105.646 30.4601 105.991 27.6136 105.991 27.6136Z" fill="white" stroke="#181F23" stroke-linecap="round" stroke-linejoin="round"/>
<path d="M104.238 21.3863C104.238 21.3863 106.615 28.7847 107.04 33.3872C107.466 37.9896 106.708 42.1798 102.468 45.7809C98.2287 49.382 91.538 48.6355 88.0341 46.3381C84.5301 44.0406 81.9729 35.2573 81.3589 33.3467C80.745 31.4361 78.6713 25.3901 78.6713 25.3901C78.6713 25.3901 78.7067 22.2206 82.0007 18.131C85.2948 14.0414 89.0448 11.3825 95.333 12.9235C101.621 14.4645 104.238 21.3863 104.238 21.3863Z" fill="white" stroke="#181F23" stroke-linecap="round" stroke-linejoin="round"/>
<path d="M92.0176 41.3758C92.0176 41.3758 92.4339 42.8631 94.6329 43.2189" stroke="#181F23" stroke-linecap="round" stroke-linejoin="round"/>
<path d="M94.0849 33.48L94.6804 35.333C94.507 35.5872 94.3929 35.8769 94.3464 36.181C94.2998 36.4851 94.3221 36.7957 94.4116 37.09C94.6785 38.2115 95.8538 38.4729 96.5602 37.461" fill="white"/>
<path d="M94.0849 33.48L94.6804 35.333C94.507 35.5872 94.3929 35.8769 94.3464 36.181C94.2998 36.4851 94.3221 36.7957 94.4116 37.09C94.6785 38.2115 95.8538 38.4729 96.5602 37.461" stroke="#181F23" stroke-linecap="round" stroke-linejoin="round"/>
<path d="M87.3589 33.7852C87.6197 34.5967 88.1719 35.1403 88.5974 35.0036C89.0229 34.8669 89.155 34.1034 88.8942 33.2919C88.6334 32.4804 88.0827 31.9411 87.6572 32.0779C87.2317 32.2146 87.0996 32.9781 87.3589 33.7852Z" fill="#181F23"/>
<path d="M90.961 28.6199C90.961 28.6199 88.3026 28.0465 82.942 30.625" stroke="#181F23" stroke-linecap="round" stroke-linejoin="round"/>
<path d="M94.8817 26.5976C95.2185 25.2508 95.8816 24.0077 96.8126 22.9778C97.7435 21.948 98.9137 21.1632 100.22 20.6926" stroke="#181F23" stroke-linecap="round" stroke-linejoin="round"/>
<path d="M99.2574 30.4053C99.5182 31.2168 100.07 31.7604 100.496 31.6237C100.921 31.4869 101.053 30.7234 100.793 29.9119C100.532 29.1004 99.9811 28.5612 99.5556 28.6979C99.1301 28.8346 98.998 29.5982 99.2574 30.4053Z" fill="#181F23"/>
<mask id="path-103-inside-1" fill="white">
<path fill-rule="evenodd" clip-rule="evenodd" d="M82.4427 6.40285C76.9091 8.4427 73.0313 15.2165 72.515 18.9366C72.0009 22.6636 71.5697 26.2181 71.5697 26.2181C71.5697 26.2181 73.4591 27.4879 77.4696 27.8139C77.647 28.7509 78.0205 30.0314 78.8058 31.1397C79.6065 32.3031 80.602 33.3196 81.7485 34.1445L79.7374 27.8861C84.9502 27.7821 87.4583 25.1572 89.1663 22.406C90.9025 19.6094 91.0671 15.2136 91.0671 15.2136L91.4811 15.4319C91.7119 17.0807 92.0047 20.8062 90.5374 23.8117C90.5266 23.8322 90.52 23.8547 90.518 23.8778C90.516 23.9009 90.5186 23.9242 90.5257 23.9463C90.5328 23.9683 90.5442 23.9888 90.5593 24.0064C90.5744 24.024 90.5929 24.0384 90.6136 24.0488C90.6341 24.0595 90.6565 24.0659 90.6795 24.0675C90.7026 24.0691 90.7257 24.0659 90.7474 24.0581C90.7932 24.0433 90.8311 24.011 90.853 23.9681C92.2903 21.0321 92.0907 17.4336 91.8648 15.6375C94.2166 16.885 101.063 20.4778 102.496 20.8883C104.235 21.3797 104.27 21.8954 104.27 21.8954L106.023 28.1788C106.023 28.1788 105.49 26.1115 106.138 24.8492C106.786 23.587 107.881 17.9691 105.24 12.6326C102.598 7.29614 98.2292 5.14574 94.8192 5.1876C92.709 5.2154 91.4031 5.68738 90.7117 6.04786C91.6824 5.14915 94.2236 3.45049 98.8834 4.16934C98.9102 4.17399 98.9378 4.17157 98.9634 4.16233C99.0007 4.14973 99.0328 4.1251 99.0546 4.09232C99.0764 4.05953 99.0867 4.02043 99.0839 3.98115C99.0811 3.94187 99.0654 3.90463 99.0392 3.87526C99.0129 3.84589 98.9777 3.82605 98.939 3.81885C92.6175 2.86035 90.1123 6.11339 89.9513 6.33332C89.393 5.93344 87.1731 4.65474 82.4427 6.40285Z"/>
</mask>
<path fill-rule="evenodd" clip-rule="evenodd" d="M82.4427 6.40285C76.9091 8.4427 73.0313 15.2165 72.515 18.9366C72.0009 22.6636 71.5697 26.2181 71.5697 26.2181C71.5697 26.2181 73.4591 27.4879 77.4696 27.8139C77.647 28.7509 78.0205 30.0314 78.8058 31.1397C79.6065 32.3031 80.602 33.3196 81.7485 34.1445L79.7374 27.8861C84.9502 27.7821 87.4583 25.1572 89.1663 22.406C90.9025 19.6094 91.0671 15.2136 91.0671 15.2136L91.4811 15.4319C91.7119 17.0807 92.0047 20.8062 90.5374 23.8117C90.5266 23.8322 90.52 23.8547 90.518 23.8778C90.516 23.9009 90.5186 23.9242 90.5257 23.9463C90.5328 23.9683 90.5442 23.9888 90.5593 24.0064C90.5744 24.024 90.5929 24.0384 90.6136 24.0488C90.6341 24.0595 90.6565 24.0659 90.6795 24.0675C90.7026 24.0691 90.7257 24.0659 90.7474 24.0581C90.7932 24.0433 90.8311 24.011 90.853 23.9681C92.2903 21.0321 92.0907 17.4336 91.8648 15.6375C94.2166 16.885 101.063 20.4778 102.496 20.8883C104.235 21.3797 104.27 21.8954 104.27 21.8954L106.023 28.1788C106.023 28.1788 105.49 26.1115 106.138 24.8492C106.786 23.587 107.881 17.9691 105.24 12.6326C102.598 7.29614 98.2292 5.14574 94.8192 5.1876C92.709 5.2154 91.4031 5.68738 90.7117 6.04786C91.6824 5.14915 94.2236 3.45049 98.8834 4.16934C98.9102 4.17399 98.9378 4.17157 98.9634 4.16233C99.0007 4.14973 99.0328 4.1251 99.0546 4.09232C99.0764 4.05953 99.0867 4.02043 99.0839 3.98115C99.0811 3.94187 99.0654 3.90463 99.0392 3.87526C99.0129 3.84589 98.9777 3.82605 98.939 3.81885C92.6175 2.86035 90.1123 6.11339 89.9513 6.33332C89.393 5.93344 87.1731 4.65474 82.4427 6.40285Z" fill="#181F23"/>
<path d="M72.515 18.9366L71.5244 18.8L71.5245 18.7992L72.515 18.9366ZM82.4427 6.40285L82.7894 7.34085L82.7886 7.34113L82.4427 6.40285ZM71.5697 26.2181L71.012 27.0481L70.5032 26.7062L70.577 26.0977L71.5697 26.2181ZM77.4696 27.8139L77.5506 26.8171L78.3104 26.8789L78.4521 27.6279L77.4696 27.8139ZM78.8058 31.1397L79.6218 30.5615L79.6296 30.5727L78.8058 31.1397ZM81.7485 34.1445L82.7005 33.8385L83.6297 36.7299L81.1645 34.9562L81.7485 34.1445ZM79.7374 27.8861L78.7853 28.1921L78.3743 26.9131L79.7174 26.8863L79.7374 27.8861ZM89.1663 22.406L88.3167 21.8786L89.1663 22.406ZM91.0671 15.2136L90.0678 15.1762L90.1273 13.5876L91.5335 14.3291L91.0671 15.2136ZM91.4811 15.4319L91.9475 14.5473L92.4004 14.7862L92.4714 15.2933L91.4811 15.4319ZM90.5374 23.8117L91.436 24.2504L91.4293 24.2641L91.4222 24.2776L90.5374 23.8117ZM90.518 23.8778L91.5142 23.9645L91.5142 23.9646L90.518 23.8778ZM90.5593 24.0064L91.3185 23.3555L91.3185 23.3555L90.5593 24.0064ZM90.6136 24.0488L91.0614 23.1547L91.0694 23.1587L91.0773 23.1628L90.6136 24.0488ZM90.6795 24.0675L90.6101 25.0651L90.61 25.0651L90.6795 24.0675ZM90.7474 24.0581L90.411 23.1164L90.425 23.1114L90.4391 23.1068L90.7474 24.0581ZM90.853 23.9681L91.7512 24.4078L91.7474 24.4157L91.7434 24.4235L90.853 23.9681ZM91.8648 15.6375L90.8726 15.7623L90.6324 13.8518L92.3334 14.7541L91.8648 15.6375ZM102.496 20.8883L102.224 21.8506L102.22 21.8496L102.496 20.8883ZM104.27 21.8954L103.306 22.1643L103.279 22.0654L103.272 21.963L104.27 21.8954ZM106.023 28.1788L106.992 27.9289L105.06 28.4476L106.023 28.1788ZM105.24 12.6326L104.343 13.0763L105.24 12.6326ZM94.8192 5.1876L94.806 4.18769L94.8069 4.18768L94.8192 5.1876ZM90.7117 6.04786L91.174 6.93459L90.0323 5.31407L90.7117 6.04786ZM98.8834 4.16934L99.0359 3.18103L99.0452 3.18246L99.0544 3.18406L98.8834 4.16934ZM98.9634 4.16233L98.6236 3.22183L98.6335 3.21826L98.6434 3.2149L98.9634 4.16233ZM99.0546 4.09232L99.8872 4.64623L99.8872 4.64624L99.0546 4.09232ZM99.0839 3.98115L100.081 3.91025L100.081 3.91025L99.0839 3.98115ZM99.0392 3.87526L98.2933 4.54138L98.2933 4.54137L99.0392 3.87526ZM98.939 3.81885L99.0889 2.83015L99.1054 2.83265L99.1217 2.83569L98.939 3.81885ZM89.9513 6.33332L90.7581 6.92411L90.1735 7.72252L89.369 7.1463L89.9513 6.33332ZM71.5245 18.7992C71.8109 16.7353 72.9936 13.9618 74.7839 11.458C76.5783 8.94844 79.0772 6.57768 82.0969 5.46457L82.7886 7.34113C80.2746 8.26787 78.0678 10.3039 76.4108 12.6213C74.7497 14.9443 73.7354 17.4178 73.5055 19.0741L71.5245 18.7992ZM71.5697 26.2181C70.577 26.0977 70.577 26.0977 70.577 26.0977C70.577 26.0976 70.577 26.0976 70.5771 26.0975C70.5771 26.0974 70.5771 26.0972 70.5771 26.097C70.5772 26.0965 70.5772 26.0959 70.5774 26.095C70.5776 26.0932 70.5779 26.0906 70.5783 26.0871C70.5792 26.0802 70.5804 26.0699 70.5821 26.0563C70.5854 26.0292 70.5903 25.989 70.5967 25.9366C70.6095 25.8317 70.6284 25.6779 70.6527 25.4817C70.7013 25.0893 70.7714 24.5274 70.8576 23.849C71.0299 22.4924 71.2667 20.6682 71.5244 18.8L73.5056 19.0733C73.2492 20.932 73.0134 22.7486 72.8416 24.101C72.7558 24.7771 72.6859 25.3368 72.6376 25.7273C72.6134 25.9226 72.5946 26.0756 72.5819 26.1797C72.5755 26.2317 72.5706 26.2715 72.5674 26.2983C72.5657 26.3117 72.5645 26.3218 72.5637 26.3285C72.5633 26.3319 72.563 26.3344 72.5628 26.3361C72.5627 26.3369 72.5626 26.3376 72.5625 26.338C72.5625 26.3382 72.5625 26.3383 72.5625 26.3384C72.5625 26.3385 72.5625 26.3385 72.5625 26.3385C72.5625 26.3386 72.5625 26.3386 71.5697 26.2181ZM77.3886 28.8106C75.2902 28.64 73.7265 28.2208 72.6705 27.8323C72.1429 27.6382 71.7432 27.4522 71.4679 27.3097C71.3303 27.2384 71.2237 27.1781 71.1479 27.133C71.11 27.1105 71.0797 27.0917 71.0571 27.0774C71.0458 27.0703 71.0363 27.0642 71.0288 27.0593C71.0251 27.0568 71.0218 27.0547 71.019 27.0528C71.0176 27.0519 71.0163 27.051 71.0151 27.0502C71.0145 27.0498 71.014 27.0495 71.0134 27.0491C71.0132 27.0489 71.0128 27.0487 71.0127 27.0486C71.0123 27.0484 71.012 27.0481 71.5697 26.2181C72.1275 25.3882 72.1272 25.3879 72.1269 25.3877C72.1268 25.3876 72.1264 25.3874 72.1262 25.3873C72.1258 25.387 72.1254 25.3867 72.1251 25.3865C72.1244 25.386 72.1238 25.3856 72.1233 25.3853C72.1223 25.3847 72.1218 25.3843 72.1218 25.3843C72.1216 25.3842 72.1233 25.3853 72.1268 25.3875C72.1338 25.392 72.1481 25.4009 72.1696 25.4137C72.2128 25.4393 72.2852 25.4807 72.3873 25.5336C72.5916 25.6393 72.9149 25.7911 73.361 25.9553C74.2523 26.2831 75.6385 26.6617 77.5506 26.8171L77.3886 28.8106ZM78.4521 27.6279C78.6158 28.4925 78.9522 29.6165 79.6217 30.5615L77.9899 31.7178C77.0888 30.4462 76.6781 29.0093 76.487 27.9999L78.4521 27.6279ZM79.6296 30.5727C80.3651 31.6414 81.2795 32.5751 82.3325 33.3327L81.1645 34.9562C79.9246 34.0641 78.848 32.9648 77.9821 31.7066L79.6296 30.5727ZM80.7964 34.4504L78.7853 28.1921L80.6894 27.5802L82.7005 33.8385L80.7964 34.4504ZM90.0159 22.9335C89.1236 24.3708 87.9811 25.8436 86.3279 26.9661C84.6622 28.0971 82.5403 28.8304 79.7573 28.8859L79.7174 26.8863C82.1473 26.8379 83.8859 26.2067 85.2044 25.3115C86.5355 24.4077 87.501 23.1925 88.3167 21.8786L90.0159 22.9335ZM91.0671 15.2136C92.0664 15.251 92.0664 15.2512 92.0664 15.2515C92.0663 15.2516 92.0663 15.2518 92.0663 15.252C92.0663 15.2523 92.0663 15.2528 92.0663 15.2533C92.0662 15.2543 92.0662 15.2556 92.0661 15.2572C92.066 15.2603 92.0658 15.2644 92.0656 15.2697C92.0652 15.2801 92.0645 15.2946 92.0636 15.3132C92.0617 15.3503 92.0589 15.4032 92.0546 15.4707C92.0462 15.6054 92.0322 15.7982 92.0099 16.0371C91.9653 16.5142 91.8872 17.1793 91.7522 17.9366C91.4865 19.4273 90.9841 21.3738 90.0159 22.9335L88.3167 21.8786C89.0846 20.6416 89.5326 18.9919 89.7833 17.5856C89.9065 16.8943 89.978 16.2857 90.0186 15.8512C90.0388 15.6343 90.0513 15.4618 90.0586 15.3453C90.0622 15.287 90.0646 15.2429 90.066 15.2142C90.0667 15.1998 90.0672 15.1894 90.0675 15.183C90.0676 15.1798 90.0677 15.1776 90.0678 15.1765C90.0678 15.1759 90.0678 15.1756 90.0678 15.1756C90.0678 15.1755 90.0678 15.1756 90.0678 15.1757C90.0678 15.1757 90.0678 15.1759 90.0678 15.1759C90.0678 15.176 90.0678 15.1762 91.0671 15.2136ZM91.0146 16.3165L90.6007 16.0982L91.5335 14.3291L91.9475 14.5473L91.0146 16.3165ZM89.6388 23.373C90.966 20.6543 90.7174 17.1894 90.4907 15.5706L92.4714 15.2933C92.7064 16.9719 93.0433 20.9581 91.436 24.2504L89.6388 23.373ZM89.5218 23.7911C89.5353 23.6354 89.5798 23.484 89.6526 23.3458L91.4222 24.2776C91.4734 24.1804 91.5047 24.074 91.5142 23.9645L89.5218 23.7911ZM89.5736 24.2522C89.5258 24.1034 89.5082 23.9466 89.5218 23.7909L91.5142 23.9646C91.5237 23.8552 91.5114 23.745 91.4777 23.6403L89.5736 24.2522ZM89.8002 24.6573C89.6985 24.5387 89.6215 24.401 89.5736 24.2522L91.4777 23.6403C91.4441 23.5357 91.3899 23.4388 91.3185 23.3555L89.8002 24.6573ZM90.1658 24.943C90.0261 24.873 89.9018 24.7759 89.8001 24.6572L91.3185 23.3555C91.247 23.2721 91.1596 23.2039 91.0614 23.1547L90.1658 24.943ZM90.61 25.0651C90.4492 25.0539 90.2926 25.0095 90.1499 24.9348L91.0773 23.1628C90.9756 23.1096 90.8638 23.0779 90.7491 23.0699L90.61 25.0651ZM91.0838 24.9999C90.932 25.0541 90.7708 25.0763 90.6101 25.0651L90.749 23.0699C90.6344 23.0619 90.5193 23.0777 90.411 23.1164L91.0838 24.9999ZM91.7434 24.4235C91.6008 24.7022 91.3535 24.9129 91.0557 25.0094L90.4391 23.1068C90.2329 23.1737 90.0615 23.3197 89.9627 23.5128L91.7434 24.4235ZM92.857 15.5127C93.0876 17.3465 93.3237 21.1954 91.7512 24.4078L89.9549 23.5285C91.2568 20.8689 91.0937 17.5207 90.8726 15.7623L92.857 15.5127ZM102.22 21.8496C101.77 21.7206 100.998 21.3809 100.135 20.975C99.2427 20.555 98.1694 20.0236 97.0735 19.469C94.8805 18.3594 92.5745 17.1459 91.3962 16.5209L92.3334 14.7541C93.5069 15.3765 95.8001 16.5832 97.9765 17.6845C99.0653 18.2354 100.119 18.7571 100.987 19.1652C101.884 19.5874 102.505 19.8507 102.771 19.927L102.22 21.8496ZM104.27 21.8954C103.272 21.963 103.272 21.9646 103.272 21.9662C103.272 21.9668 103.272 21.9684 103.272 21.9694C103.272 21.9715 103.273 21.9737 103.273 21.9758C103.273 21.98 103.273 21.9842 103.274 21.9884C103.275 21.9968 103.276 22.0051 103.277 22.0133C103.279 22.0298 103.281 22.0458 103.284 22.0615C103.289 22.0929 103.296 22.1223 103.304 22.1499C103.32 22.2054 103.34 22.2502 103.358 22.2846C103.396 22.3542 103.423 22.3685 103.391 22.3411C103.315 22.2776 103.022 22.0761 102.224 21.8506L102.768 19.926C103.709 20.1919 104.302 20.494 104.679 20.8112C104.872 20.9742 105.017 21.1481 105.116 21.3298C105.165 21.4202 105.201 21.5092 105.225 21.5948C105.238 21.6374 105.247 21.6784 105.254 21.7176C105.257 21.7371 105.26 21.7561 105.262 21.7746C105.263 21.7838 105.264 21.7928 105.265 21.8017C105.266 21.8062 105.266 21.8106 105.266 21.8149C105.266 21.8171 105.267 21.8193 105.267 21.8214C105.267 21.8225 105.267 21.8241 105.267 21.8247C105.267 21.8263 105.267 21.8279 104.27 21.8954ZM105.06 28.4476L103.306 22.1643L105.233 21.6266L106.987 27.9099L105.06 28.4476ZM107.028 25.3061C106.835 25.6809 106.786 26.2794 106.835 26.91C106.857 27.2033 106.898 27.4647 106.933 27.6524C106.951 27.7456 106.966 27.819 106.977 27.8672C106.983 27.8913 106.987 27.9089 106.989 27.9194C106.991 27.9247 106.991 27.9282 106.992 27.9298C106.992 27.9306 106.992 27.9309 106.992 27.9308C106.992 27.9307 106.992 27.9305 106.992 27.9302C106.992 27.93 106.992 27.9299 106.992 27.9296C106.992 27.9295 106.992 27.9293 106.992 27.9293C106.992 27.9291 106.992 27.9289 106.023 28.1788C105.055 28.4287 105.055 28.4285 105.055 28.4282C105.055 28.4281 105.055 28.4279 105.055 28.4277C105.055 28.4274 105.055 28.427 105.055 28.4266C105.054 28.4258 105.054 28.4249 105.054 28.4238C105.053 28.4216 105.053 28.419 105.052 28.4159C105.05 28.4096 105.048 28.4013 105.046 28.3911C105.041 28.3707 105.034 28.3427 105.026 28.3078C105.01 28.238 104.99 28.14 104.967 28.0197C104.922 27.7803 104.87 27.446 104.841 27.0647C104.785 26.3461 104.793 25.2798 105.249 24.3924L107.028 25.3061ZM106.136 12.189C107.542 15.0302 107.948 17.9326 107.923 20.2798C107.897 22.5862 107.451 24.4811 107.028 25.3061L105.249 24.3924C105.473 23.9551 105.899 22.41 105.923 20.2577C105.946 18.1463 105.579 15.5715 104.343 13.0763L106.136 12.189ZM94.8069 4.18768C98.6418 4.1406 103.342 6.54542 106.136 12.189L104.343 13.0763C101.854 8.04687 97.8166 6.15088 94.8315 6.18752L94.8069 4.18768ZM90.2494 5.16113C91.0863 4.72481 92.5471 4.21745 94.806 4.18769L94.8324 6.18751C92.871 6.21335 91.7199 6.64995 91.174 6.93459L90.2494 5.16113ZM98.731 5.15765C94.4088 4.4909 92.1661 6.0641 91.391 6.78166L90.0323 5.31407C91.1987 4.23421 94.0384 2.41009 99.0359 3.18103L98.731 5.15765ZM99.3032 5.10282C99.1141 5.17113 98.9105 5.18898 98.7125 5.15461L99.0544 3.18406C98.9099 3.15899 98.7615 3.17202 98.6236 3.22183L99.3032 5.10282ZM99.8872 4.64624C99.7427 4.86335 99.5303 5.02634 99.2834 5.10975L98.6434 3.2149C98.4711 3.27311 98.3228 3.38686 98.222 3.53839L99.8872 4.64624ZM100.081 3.91025C100.1 4.17033 100.032 4.42918 99.8872 4.64623L98.222 3.5384C98.1212 3.68989 98.0735 3.87054 98.0865 4.05205L100.081 3.91025ZM99.785 3.20914C99.9586 3.40354 100.063 3.6501 100.081 3.91025L98.0865 4.05206C98.0994 4.23365 98.1722 4.40572 98.2933 4.54138L99.785 3.20914ZM99.1217 2.83569C99.3781 2.88335 99.6114 3.01472 99.785 3.20915L98.2933 4.54137C98.4145 4.67706 98.5773 4.76875 98.7562 4.80201L99.1217 2.83569ZM89.1444 5.74254C89.4563 5.31661 92.2964 1.80023 99.0889 2.83015L98.7891 4.80755C92.9386 3.92047 90.7683 6.91017 90.7581 6.92411L89.1444 5.74254ZM82.0961 5.46485C87.1232 3.60708 89.6932 4.91845 90.5336 5.52035L89.369 7.1463C89.0927 6.94842 87.223 5.7024 82.7894 7.34085L82.0961 5.46485Z" fill="white" mask="url(#path-103-inside-1)"/>
<path d="M94.7399 29.4834C96.1457 28.2193 97.8029 27.2667 99.6029 26.6883C101.403 26.1099 103.305 25.9187 105.184 26.1273C105.184 26.1273 106.208 25.9066 106.464 26.7026C106.72 27.4987 105.992 27.6203 105.992 27.6203C105.992 27.6203 107.066 31.4274 105.865 33.0393C104.793 34.4827 101.803 35.7725 100.022 35.6868C98.2419 35.6012 96.8898 34.8247 96.2728 33.928C95.6557 33.0312 94.7399 29.4834 94.7399 29.4834Z" stroke="#181F23" stroke-linecap="round" stroke-linejoin="round"/>
<path d="M92.3851 30.2402C90.5067 30.0316 88.6053 30.2226 86.806 30.8008C85.0066 31.3791 83.3499 32.3314 81.9446 33.5953C81.9446 33.5953 80.9802 34.0136 81.2361 34.8097C81.4919 35.6058 82.1515 35.2742 82.1515 35.2742C82.1515 35.2742 83.4964 38.9943 85.4118 39.6046C87.1241 40.1532 90.3026 39.4606 91.7032 38.3528C93.1038 37.2449 93.7436 35.8284 93.7228 34.74C93.7019 33.6517 92.3851 30.2402 92.3851 30.2402Z" stroke="#181F23" stroke-linecap="round" stroke-linejoin="round"/>
<path d="M94.7407 29.4836C93.8816 29.4221 93.0319 29.6951 92.3694 30.2456" stroke="#181F23" stroke-linecap="round" stroke-linejoin="round"/>
<path d="M94.9219 31.0698L93.2315 31.613" stroke="#181F23" stroke-linecap="round" stroke-linejoin="round"/>
<path d="M74.6216 33.7735C74.6216 33.7735 79.1384 32.4192 81.7308 31.2983C84.3232 30.1775 83.0615 33.1131 81.9456 33.5951C80.6107 34.2094 79.231 34.7214 77.8185 35.1269C76.7748 35.4193 75.8035 35.9262 74.9667 36.6151C74.9667 36.6151 72.9696 35.448 74.6216 33.7735Z" fill="white" stroke="#181F23" stroke-linecap="round" stroke-linejoin="round"/>
<path d="M80.0522 41.1814C80.5761 39.8615 80.9649 38.4918 81.2127 37.0935C81.5225 35.0917 81.5306 34.2332 79.9455 34.9294C78.3603 35.6257 78.17 37.4061 78.1556 38.8384C78.1413 40.2707 77.1047 40.6038 77.1047 40.6038L74.2793 36.8474L72.1739 40.3794L77.7555 48.5721C77.7555 48.5721 80.7978 45.5949 81.0668 44.6526C81.3358 43.7103 80.1819 41.8873 80.0522 41.1814Z" fill="white" stroke="#181F23" stroke-linecap="round" stroke-linejoin="round"/>
<path d="M70.16 38.2534C70.16 38.2534 69.9744 36.7919 71.0999 36.1424C72.2255 35.4929 73.825 33.3644 74.5988 33.3997C75.3726 33.4351 77.9991 37.1657 78.2168 37.8432C78.4346 38.5207 77.8852 39.4746 77.6244 39.5584C77.3635 39.6423 73.845 36.4039 73.845 36.4039L70.16 38.2534Z" fill="white" stroke="#181F23" stroke-linecap="round" stroke-linejoin="round"/>
<path d="M70.405 39.3183C70.405 39.3183 69.67 38.508 69.9619 37.9395C70.2539 37.371 72.7395 35.6155 73.6325 35.138C74.5255 34.6604 74.8093 34.9504 75.7445 36.0813C76.6798 37.2122 78.3824 38.6608 78.0023 39.2576C77.6223 39.8544 77.1011 40.5937 77.1011 40.5937L74.0968 37.4667L70.405 39.3183Z" fill="white" stroke="#181F23" stroke-linecap="round" stroke-linejoin="round"/>
<path d="M75.9954 42.1897C75.9954 42.1897 77.502 40.9581 77.5919 40.3424C77.6818 39.7267 74.5716 35.9797 74.2836 35.9788C73.9955 35.9779 72.9876 36.6793 72.6975 36.9631C72.4075 37.2469 69.8696 38.5372 70.0582 39.7174C70.2469 40.8976 73.0774 46.6399 73.1267 47.3865C73.1761 48.1331 72.0932 51.1839 72.0932 51.1839L76.2942 52.4242C76.2942 52.4242 78.6504 48.3815 79.6649 47.3865C80.6794 46.3915 78.3996 44.9377 77.6363 44.0394C76.8729 43.141 75.9954 42.1897 75.9954 42.1897Z" fill="white" stroke="#181F23" stroke-linecap="round" stroke-linejoin="round"/>
<path d="M75.9971 42.1897L74.066 40.3324" stroke="#181F23" stroke-linecap="round" stroke-linejoin="round"/>
<path d="M74.9014 39.9701L73.3173 40.6697" stroke="#181F23" stroke-linecap="round" stroke-linejoin="round"/>
</svg>
