<svg width="117" height="154" viewBox="0 0 117 154" fill="none" xmlns="http://www.w3.org/2000/svg">
<path d="M63.0118 6.52674C63.0118 6.52674 63.0118 0.255764 53.6607 1.50996C44.3096 2.76416 40.3913 12.2751 37.566 14.2777C34.7407 16.2802 29.5186 18.0403 29.3007 21.0378C29.0828 24.0353 31.4796 25.2937 29.0828 27.5471C26.686 29.8004 23.0109 31.8155 23.8643 34.8214C24.7177 37.8273 27.1327 40.829 26.0432 42.8357C24.9538 44.8424 21.9106 46.8408 24.7359 49.1067C27.5612 51.3726 28.8685 51.8617 28.8685 54.8634C28.8685 57.8652 27.7791 59.8802 30.3938 60.8752C33.0084 61.8702 34.5228 59.8719 36.048 63.6261C37.5732 67.3803 39.0912 68.3837 41.7022 67.6312C44.3133 66.8786 48.0065 65.6286 49.3284 66.632C50.6502 67.6353 54.7756 70.3946 56.5042 68.8854C58.2328 67.3761 59.7725 65.1228 62.3763 66.377C64.9801 67.6312 67.1626 69.3829 68.2484 67.1295C69.3342 64.8761 68.2484 64.3744 72.3811 63.3669C76.5137 62.3594 78.0353 62.6186 78.0353 58.6135C78.0353 54.6084 77.8174 53.5967 79.7748 51.8534C81.7322 50.1101 83.4716 50.85 82.8216 46.5941C82.1716 42.3382 80.8642 41.3349 81.5143 37.079C82.1643 32.823 80.4248 31.3222 79.1211 30.068C77.8174 28.8138 76.2958 26.5646 76.7316 24.3112C77.1674 22.0579 80.4284 21.8028 77.1637 17.802C73.899 13.8011 72.3811 15.0469 71.7165 12.041C71.0519 9.03514 68.8839 2.52168 63.0118 6.52674Z" fill="#181F23" stroke="#181F23" stroke-linecap="round" stroke-linejoin="round"/>
<path d="M54.6644 14.0645C53.3244 16.506 52.2894 19.261 50.1323 21.5897C47.0165 24.9342 39.0344 27.8606 38.6459 31.0045C38.2573 34.1483 39.6191 35.9335 36.8955 38.6216C34.1719 41.3098 29.8867 41.9662 29.8867 44.6752C29.8867 47.3843 31.0524 48.2622 30.4714 50.2773" stroke="white" stroke-miterlimit="10" stroke-linecap="round"/>
<path d="M60.4501 11.0545C60.4501 11.0545 59.4768 8.12804 56.7496 11.0545C56.539 11.2802 56.3392 11.5144 56.1504 11.7527" stroke="white" stroke-miterlimit="10" stroke-linecap="round"/>
<path d="M38.4579 23.8639C36.0611 24.5328 34.1691 25.0136 33.973 26.9701C33.5808 30.7787 34.1655 33.2411 31.8304 34.3657C29.4954 35.4903 26.3832 37.2922 27.3528 39.5204C28.3224 41.7487 28.5185 42.4469 28.326 43.329" stroke="white" stroke-miterlimit="10" stroke-linecap="round"/>
<path d="M60.0515 7.4675C60.0515 7.4675 54.6043 3.43735 51.6991 7.02017C48.7939 10.603 50.1412 15.0888 45.6635 20.022C44.5263 21.241 43.1841 22.1787 41.7197 22.777" stroke="white" stroke-miterlimit="10" stroke-linecap="round"/>
<path d="M78.998 39.253C79.3248 39.837 79.7761 40.3149 80.309 40.6409" stroke="white" stroke-miterlimit="10" stroke-linecap="round"/>
<path d="M63.9551 13.0822C63.9551 13.0822 68.8213 11.2887 69.987 14.4241C71.1527 17.5596 71.741 23.1659 73.8836 24.0647C76.0262 24.9636 76.9958 26.3056 76.9958 31.2346C76.9932 32.8232 77.1989 34.4031 77.6059 35.9211" stroke="white" stroke-miterlimit="10" stroke-linecap="round"/>
<path d="M32.415 52.9655C33.9729 50.0391 36.1119 51.1762 36.308 48.0365C36.5041 44.8969 34.9462 44.0022 36.5005 41.9871C38.0547 39.9721 40.5895 39.0607 40.5895 39.0607" stroke="white" stroke-miterlimit="10" stroke-linecap="round"/>
<path d="M34.5542 59.2448C33.8349 58.559 33.2104 57.7513 32.7021 56.8492" stroke="white" stroke-miterlimit="10" stroke-linecap="round"/>
<path d="M82.7259 152.754C80.4288 138.907 76.0535 130.721 76.0535 119.08C76.0535 104.882 81.424 108.206 82.7259 91.2079C82.7259 91.2079 93.9478 111.177 100.474 112.18C106.999 113.184 109.981 107.41 107.588 97.895C105.195 88.3798 94.7546 80.6205 90.6256 74.3579C86.4966 68.0953 77.1382 68.0869 72.3556 68.0869C67.5729 68.0869 65.1797 66.0844 64.3082 62.3301C63.4366 58.5759 63.4403 51.0424 63.4403 51.0424C63.4403 51.0424 57.7824 55.0475 48.2134 50.5407C48.2134 50.5407 49.085 64.3118 47.9955 66.3143C46.9061 68.3168 45.3954 70.357 38.8696 70.357C32.3438 70.357 26.9074 71.862 23.8643 75.3738C20.8211 78.8855 8.20527 92.8991 4.94419 98.4092C1.68311 103.919 3.41896 109.927 7.33371 112.18C11.2485 114.434 14.0641 111.207 16.893 108.206C19.722 105.204 30.7284 91.2079 30.7284 91.2079C30.7284 108.206 38.8696 107.259 38.8696 119.08C36.8328 128.096 26.9763 139.05 30.7284 153.243" fill="#181F23"/>
<path d="M82.7259 152.754C80.4288 138.907 76.0535 130.721 76.0535 119.08C76.0535 104.882 81.424 108.206 82.7259 91.2079C82.7259 91.2079 93.9478 111.177 100.474 112.18C106.999 113.184 109.981 107.41 107.588 97.895C105.195 88.3798 94.7546 80.6205 90.6256 74.3579C86.4966 68.0953 77.1382 68.0869 72.3556 68.0869C67.5729 68.0869 65.1797 66.0844 64.3082 62.3301C63.4366 58.5759 63.4403 51.0424 63.4403 51.0424C63.4403 51.0424 57.7824 55.0475 48.2134 50.5407C48.2134 50.5407 49.085 64.3118 47.9955 66.3143C46.9061 68.3168 45.3954 70.357 38.8696 70.357C32.3438 70.357 26.9074 71.862 23.8643 75.3738C20.8211 78.8855 8.20527 92.8991 4.94419 98.4092C1.68311 103.919 3.41896 109.927 7.33371 112.18C11.2485 114.434 14.0641 111.207 16.893 108.206C19.722 105.204 30.7284 91.2079 30.7284 91.2079C30.7284 108.206 38.8696 107.259 38.8696 119.08C36.8328 128.096 26.9763 139.05 30.7284 153.243" stroke="#181F23" stroke-linecap="round" stroke-linejoin="round"/>
<path d="M51.1123 123.159L66.8296 118.104" stroke="#181F23" stroke-linecap="round" stroke-linejoin="round"/>
<path d="M58.2305 118.995C61.9023 117.512 65.7339 116.464 69.6476 115.872" stroke="#181F23" stroke-linecap="round" stroke-linejoin="round"/>
<path d="M48.7678 51.3665C53.2916 53.332 56.9364 53.4347 59.5049 53.0038C60.8572 52.777 61.9043 52.4035 62.6184 52.0831C62.7402 52.0284 62.8524 51.9753 62.9547 51.9247C62.9564 52.0443 62.9584 52.1747 62.9609 52.315C62.9745 53.0827 63.0018 54.1458 63.0563 55.3275C63.1647 57.6786 63.3827 60.5415 63.828 62.4717L63.8281 62.4723C64.2217 64.1691 64.925 65.5666 66.0391 66.6007C67.0522 67.5411 68.3698 68.1484 70.0149 68.4316C69.27 73.0621 67.8834 78.1279 65.4463 81.7937C64.1879 83.6866 62.6642 85.1837 60.826 86.0676C58.9954 86.9478 56.8149 87.2383 54.2011 86.6583C49.4573 85.6034 46.9074 82.4999 45.5404 79.0992C44.2421 75.8698 44.0238 72.3949 44.0442 70.2314C45.2796 69.8599 46.1701 69.3381 46.8498 68.7237C47.591 68.0538 48.0554 67.2966 48.442 66.5819C48.4419 66.5821 48.4418 66.5822 48.4417 66.5824L48.7678 51.3665Z" fill="white" stroke="#181F23" stroke-linecap="round" stroke-linejoin="round"/>
<path d="M69.1357 35.7457C69.1357 35.7457 70.5033 31.3338 73.1658 32.3626C75.8282 33.3913 73.5799 39.4244 72.1222 41.0222C70.6645 42.62 68.9925 42.9012 68.8803 41.0753C68.7681 39.2493 69.1357 35.7457 69.1357 35.7457Z" fill="white" stroke="#181F23" stroke-linecap="round" stroke-linejoin="round"/>
<path d="M50.5539 27.6393L50.5542 27.6389C53.9844 23.9952 57.2061 20.1229 60.2012 16.0443C60.3988 16.1085 60.6768 16.2024 61.014 16.3261C61.7207 16.5853 62.6836 16.9739 63.7095 17.4912C65.7876 18.5389 68.0171 20.0622 68.9955 22.0219C70.012 24.0582 70.3371 25.7825 70.4085 27.8413C70.4445 28.8799 70.4159 30.0005 70.3774 31.2972C70.3745 31.3943 70.3715 31.4923 70.3686 31.5913C70.3321 32.8108 70.2911 34.1782 70.2911 35.7495C70.2911 42.3911 68.4052 46.9455 65.366 51.5311C63.8678 53.7915 61.7945 55.6419 59.2356 56.2881C56.6952 56.9297 53.5732 56.4102 49.9064 53.7282C46.2768 51.0735 44.3477 47.02 43.3284 43.5829C42.8202 41.8697 42.5426 40.3241 42.3921 39.2075C42.3169 38.6496 42.2736 38.1998 42.2492 37.891C42.2391 37.7628 42.2322 37.659 42.2276 37.5819C42.2367 37.5688 42.2465 37.5547 42.2569 37.5398C42.34 37.4205 42.466 37.2422 42.6354 37.0086C42.9744 36.5415 43.4875 35.8532 44.1809 34.9736C45.5678 33.2144 47.6758 30.6901 50.5539 27.6393Z" fill="white" stroke="#181F23"/>
<path d="M52.2918 33.9521C52.2918 35.0808 51.7876 35.9964 51.1668 35.9964C50.5459 35.9964 50.0459 35.0808 50.0459 33.9521C50.0459 32.8233 50.5459 31.9077 51.1668 31.9077C51.7876 31.9077 52.2918 32.8233 52.2918 33.9521Z" fill="#181F23"/>
<path d="M61.8537 33.9521C61.8537 35.0808 62.3579 35.9964 62.9787 35.9964C63.5996 35.9964 64.0996 35.0808 64.0996 33.9521C64.0996 32.8233 63.5996 31.9077 62.9787 31.9077C62.3579 31.9077 61.8537 32.8233 61.8537 33.9521Z" fill="#181F23"/>
<path d="M54.8203 41.0924C55.5749 41.5673 56.4628 41.7834 57.3504 41.708C58.238 41.6326 59.0771 41.2698 59.7413 40.6743" stroke="#181F23" stroke-linecap="round" stroke-linejoin="round"/>
<path d="M53.1331 46.7042C53.1331 46.7042 55.9461 50.5105 61.1325 46.7084" stroke="#181F23" stroke-linecap="round" stroke-linejoin="round"/>
<path d="M54.5412 27.5347C54.5412 27.5347 52.0119 24.9971 48.4951 27.3968" stroke="#181F23" stroke-linecap="round" stroke-linejoin="round"/>
<path d="M65.9972 27.5347C65.9972 27.5347 63.468 24.9971 59.9512 27.3968" stroke="#181F23" stroke-linecap="round" stroke-linejoin="round"/>
<path d="M5.10024 98.4132C5.10024 98.4132 0.608398 103.43 0.608398 108.677C0.608398 113.923 3.60018 118.71 11.8588 126.202C20.1175 133.694 27.8262 139.221 31.0721 140.976C34.3181 142.732 37.5599 140.475 37.5599 140.475C37.5599 140.475 42.9268 145.855 43.5476 144.605C44.1685 143.355 41.6767 141.474 41.1767 140.726C40.7378 140.131 40.2363 139.586 39.6808 139.099C39.6808 139.099 42.3017 139.471 43.3018 140.354C44.3018 141.236 45.9185 142.732 46.6686 142.607C47.4186 142.481 47.4186 141.854 46.2936 140.354C45.3866 139.178 44.291 138.162 43.0518 137.348C42.3017 136.85 39.8058 135.471 39.8058 135.471C39.8058 135.471 43.4226 135.22 44.6727 135.972C45.9227 136.725 49.2895 138.978 49.5395 137.975C49.7895 136.971 49.7895 136.348 48.5395 135.22C47.2894 134.091 44.7893 132.711 43.3018 132.465C42.2763 132.275 41.2726 131.983 40.3058 131.591C40.3058 131.591 43.1768 130.588 44.1726 130.588C45.1685 130.588 49.1728 132.59 50.2854 132.343C51.3979 132.097 50.7854 131.089 49.9145 130.462C49.0437 129.835 45.1727 128.334 43.5476 128.209C41.9226 128.083 32.818 131.215 31.6971 131.215C30.5763 131.215 27.7053 127.21 24.7094 121.825C21.7134 116.44 20.5925 108.054 14.2298 105.178" fill="#181F23"/>
<path d="M5.10024 98.4132C5.10024 98.4132 0.608398 103.43 0.608398 108.677C0.608398 113.923 3.60018 118.71 11.8588 126.202C20.1175 133.694 27.8262 139.221 31.0721 140.976C34.3181 142.732 37.5599 140.475 37.5599 140.475C37.5599 140.475 42.9268 145.855 43.5476 144.605C44.1685 143.355 41.6767 141.474 41.1767 140.726C40.7378 140.131 40.2363 139.586 39.6808 139.099C39.6808 139.099 42.3017 139.471 43.3018 140.354C44.3018 141.236 45.9185 142.732 46.6686 142.607C47.4186 142.481 47.4186 141.854 46.2936 140.354C45.3866 139.178 44.291 138.162 43.0518 137.348C42.3017 136.85 39.8058 135.471 39.8058 135.471C39.8058 135.471 43.4226 135.22 44.6727 135.972C45.9227 136.725 49.2895 138.978 49.5395 137.975C49.7895 136.971 49.7895 136.348 48.5395 135.22C47.2894 134.091 44.7893 132.711 43.3018 132.465C42.2763 132.275 41.2726 131.983 40.3058 131.591C40.3058 131.591 43.1768 130.588 44.1726 130.588C45.1685 130.588 49.1728 132.59 50.2854 132.343C51.3979 132.097 50.7854 131.089 49.9145 130.462C49.0437 129.835 45.1727 128.334 43.5476 128.209C41.9226 128.083 32.818 131.215 31.6971 131.215C30.5763 131.215 27.7053 127.21 24.7094 121.825C21.7134 116.44 20.5925 108.054 14.2298 105.178" stroke="#181F23"/>
<g opacity="0.2">
<path opacity="0.2" d="M4.5459 107.673C5.34176 106.465 4.71674 106.039 4.5459 106.039C4.71674 106.039 5.34176 106.465 4.5459 107.673Z" fill="#181F23"/>
<path opacity="0.2" d="M4.5459 116.072C4.71674 116.072 5.34176 116.49 4.5459 117.707C5.34176 116.499 4.71674 116.072 4.5459 116.072Z" fill="#181F23"/>
<path opacity="0.2" d="M14.5462 111.056C14.3754 111.056 13.7503 111.474 14.5462 112.69C15.3421 111.482 14.717 111.056 14.5462 111.056Z" fill="#181F23"/>
<path opacity="0.2" d="M6.3869 107.101C6.2994 106.95 5.61604 106.624 4.97852 107.937C6.42024 108.004 6.47441 107.247 6.3869 107.101Z" fill="#181F23"/>
<path opacity="0.2" d="M6.24523 117.632C6.28684 117.587 6.32191 117.536 6.3494 117.481C6.39003 117.433 6.41484 117.374 6.42043 117.311C6.42601 117.248 6.4121 117.185 6.3806 117.131C6.3491 117.076 6.30155 117.033 6.24448 117.006C6.18742 116.98 6.12363 116.972 6.06189 116.984C5.87959 116.98 5.70208 117.042 5.56187 117.159C5.47696 117.227 5.39881 117.302 5.32853 117.385C5.24481 117.486 5.16955 117.594 5.10352 117.707H6.16189C6.1915 117.684 6.21936 117.659 6.24523 117.632Z" fill="#181F23"/>
<path opacity="0.2" d="M16.3879 112.117C16.3004 111.967 15.617 111.641 14.9795 112.954C16.4212 113.02 16.4712 112.264 16.3879 112.117Z" fill="#181F23"/>
<path opacity="0.2" d="M14.114 112.941C13.4765 111.641 12.7931 111.967 12.7056 112.105C12.6181 112.243 12.6765 113.02 14.114 112.941Z" fill="#181F23"/>
<path opacity="0.2" d="M4.5459 106.039V107.673C5.34176 106.465 4.71674 106.039 4.5459 106.039Z" fill="#181F23"/>
<path opacity="0.2" d="M4.5459 116.072V117.707C5.34176 116.499 4.71674 116.072 4.5459 116.072Z" fill="#181F23"/>
<path opacity="0.2" d="M24.547 136.139C24.4731 136.155 24.4042 136.188 24.3467 136.237C24.2892 136.286 24.2449 136.349 24.2178 136.42L24.922 136.938C25.0261 136.361 24.672 136.139 24.547 136.139Z" fill="#181F23"/>
<path opacity="0.2" d="M34.5474 141.156C34.4423 141.182 34.3484 141.241 34.2793 141.325C34.2103 141.409 34.1699 141.513 34.1641 141.621C34.4143 141.601 34.6633 141.568 34.9099 141.521C34.89 141.432 34.8454 141.35 34.7812 141.286C34.717 141.221 34.636 141.176 34.5474 141.156Z" fill="#181F23"/>
<path opacity="0.2" d="M24.5462 126.106C24.3754 126.106 23.7503 126.524 24.5462 127.741C25.3421 126.532 24.717 126.106 24.5462 126.106Z" fill="#181F23"/>
<path opacity="0.2" d="M34.5461 132.757C35.3419 131.549 34.7169 131.123 34.5461 131.123C34.3752 131.123 33.746 131.549 34.5461 132.757Z" fill="#181F23"/>
<path opacity="0.2" d="M14.5461 122.724C15.3419 121.515 14.7169 121.089 14.5461 121.089C14.3752 121.089 13.746 121.515 14.5461 122.724Z" fill="#181F23"/>
<path opacity="0.2" d="M26.3882 137.201C26.3215 137.088 25.9215 136.875 25.459 137.323C25.684 137.49 25.909 137.649 26.1298 137.803C26.2344 137.747 26.3168 137.657 26.3637 137.547C26.4106 137.438 26.4192 137.316 26.3882 137.201Z" fill="#181F23"/>
<path opacity="0.2" d="M24.9951 127.991C26.4327 128.071 26.4868 127.314 26.4035 127.155C26.3202 126.996 25.616 126.691 24.9951 127.991Z" fill="#181F23"/>
<path opacity="0.2" d="M34.9971 133.008C36.4346 133.088 36.4888 132.331 36.4055 132.172C36.3221 132.013 35.6179 131.708 34.9971 133.008Z" fill="#181F23"/>
<path opacity="0.2" d="M14.9961 122.975C16.4378 123.054 16.4878 122.297 16.4045 122.138C16.3211 121.98 15.617 121.674 14.9961 122.975Z" fill="#181F23"/>
<path opacity="0.2" d="M43.9675 138.029C43.6091 137.745 43.2799 137.515 43.0299 137.343L42.7383 137.16L42.7049 137.201C42.6216 137.343 42.6757 138.05 43.9675 138.029Z" fill="#181F23"/>
<path opacity="0.2" d="M24.113 127.991C23.4755 126.691 22.7921 127.017 22.7046 127.155C22.6171 127.293 22.6755 128.071 24.113 127.991Z" fill="#181F23"/>
<path opacity="0.2" d="M32.7046 132.185C32.6171 132.331 32.6755 133.088 34.113 133.021C33.4755 131.708 32.7921 132.034 32.7046 132.185Z" fill="#181F23"/>
<path opacity="0.2" d="M12.7051 122.151C12.6218 122.297 12.676 123.054 14.1135 122.987C13.476 121.674 12.7926 122 12.7051 122.151Z" fill="#181F23"/>
<path opacity="0.2" d="M6.17114 117.707H5.11276C5.11396 117.715 5.11396 117.724 5.11276 117.732C5.07526 117.799 5.0336 117.875 4.99609 117.958C5.40503 118.017 5.8215 117.928 6.17114 117.707Z" fill="#181F23"/>
<path opacity="0.2" d="M4.54522 106.039C4.37438 106.039 3.74936 106.457 4.54522 107.673V106.039Z" fill="#181F23"/>
<path opacity="0.2" d="M4.54608 117.707V116.072C4.37524 116.072 3.74605 116.499 4.54608 117.707Z" fill="#181F23"/>
<path opacity="0.2" d="M4.11206 107.924C3.47453 106.624 2.79117 106.95 2.70367 107.088C2.61616 107.226 2.6745 108.004 4.11206 107.924Z" fill="#181F23"/>
<path opacity="0.2" d="M3.74591 117.385C3.67562 117.303 3.59747 117.227 3.51257 117.159L3.4834 117.138C3.61257 117.327 3.74174 117.519 3.90008 117.708H3.99175C3.91907 117.594 3.83682 117.486 3.74591 117.385Z" fill="#181F23"/>
<path opacity="0.2" d="M3.99339 117.732C3.9922 117.724 3.9922 117.715 3.99339 117.707H3.90234L4.08444 117.957H4.12582C4.07202 117.873 4.03064 117.799 3.99339 117.732Z" fill="#181F23"/>
</g>
<path d="M49.8935 130.458C49.0185 129.835 45.1517 128.33 43.5266 128.205C41.9015 128.079 32.797 131.211 31.6761 131.211C30.5552 131.211 27.6843 127.206 24.6883 121.821C23.0216 118.832 21.9382 114.914 20.209 111.532C11.042 110.278 7.11264 115.654 5.2959 119.521C7.31866 121.901 9.50462 124.136 11.8378 126.211C20.0715 133.736 27.8051 139.229 31.0511 140.985C34.2971 142.741 37.5389 140.483 37.5389 140.483C37.5389 140.483 42.9057 145.864 43.5266 144.614C44.1475 143.364 41.6557 141.482 41.1557 140.734C40.7168 140.14 40.2153 139.594 39.6598 139.108C39.6598 139.108 42.2807 139.48 43.2808 140.362C44.2808 141.244 45.8975 142.741 46.6476 142.615C47.3976 142.49 47.3976 141.863 46.2725 140.362C45.3655 139.187 44.27 138.171 43.0307 137.356C42.2807 136.859 39.7848 135.479 39.7848 135.479C39.7848 135.479 43.4016 135.228 44.6516 135.981C45.9017 136.733 49.2685 138.987 49.5185 137.983C49.7685 136.98 49.7685 136.357 48.5185 135.228C47.2684 134.099 44.7683 132.72 43.2808 132.473C42.2553 132.284 41.2516 131.991 40.2848 131.599C40.2848 131.599 43.1557 130.596 44.1516 130.596C45.1475 130.596 49.1518 132.599 50.2644 132.352C51.3769 132.105 50.7644 131.085 49.8935 130.458Z" fill="white" stroke="#181F23" stroke-linecap="round" stroke-linejoin="round"/>
<path d="M90.6917 103.112C89.65 100.725 90.5417 95.4994 91.5834 88.037C92.6251 80.5745 93.6668 72.9615 93.6668 68.9314C93.6668 64.9012 94.3293 59.3159 93.0209 57.514C91.7125 55.7122 86.9498 50.825 86.5957 48.5591C86.2415 46.2932 89.4499 42.8274 89.4499 42.8274C89.4499 42.8274 90.4042 41.0339 91.2375 41.9913C92.0709 42.9486 91.7125 44.1401 91.2375 45.8124C90.7625 47.4846 90.2833 48.7974 90.2833 48.7974C90.2833 48.7974 94.4502 50.1101 95.521 49.3952C96.5919 48.6803 96.4961 44.5916 96.4211 42.5891C96.2669 38.6844 94.7085 40.3524 93.6293 42.2003C93.1084 43.0866 90.0583 42.5598 91.8417 40.2897C93.6251 38.0196 95.2835 36.0171 96.9502 37.8106C98.617 39.6041 99.8045 43.0657 99.8045 43.0657C99.8045 43.0657 100.996 37.3758 102.08 34.0313C103.163 30.6868 105.105 29.3615 105.805 29.5956C106.505 29.8297 106.426 30.9961 105.726 32.6308C105.026 34.2654 103.476 38.7763 103.088 40.2563C102.7 41.7362 102.625 43.4461 103.401 43.2914C104.176 43.1368 106.888 38.3875 107.667 36.3641C108.447 34.3407 109.605 32.4761 110.922 31.6191C112.238 30.762 113.326 31.8532 112.784 33.2537C111.708 35.7864 110.487 38.2543 109.126 40.6451C108.27 42.1902 107.544 43.8039 106.955 45.4696C108.232 44.104 109.578 42.8049 110.988 41.5774C112.851 40.0222 114.868 39.7128 115.484 40.2563C116.101 40.7998 115.563 40.8792 114.013 42.125C112.463 43.3709 110.147 44.855 108.292 47.8818C106.856 50.1012 105.734 52.51 104.959 55.0391C104.383 56.6992 103.628 58.2917 102.709 59.7883C102.709 59.7883 104.163 71.6363 106.684 78.1539C109.205 84.6715 113.663 94.2034 112.305 101.014C110.947 107.824 108.33 111.323 104.646 112.393C103.578 112.706 102.452 112.764 101.358 112.561C100.264 112.359 99.2325 111.902 98.3461 111.227" fill="#181F23"/>
<path d="M90.6917 103.112C89.65 100.725 90.5417 95.4994 91.5834 88.037C92.6251 80.5745 93.6668 72.9615 93.6668 68.9314C93.6668 64.9012 94.3293 59.3159 93.0209 57.514C91.7125 55.7122 86.9498 50.825 86.5957 48.5591C86.2415 46.2932 89.4499 42.8274 89.4499 42.8274C89.4499 42.8274 90.4042 41.0339 91.2375 41.9913C92.0709 42.9486 91.7125 44.1401 91.2375 45.8124C90.7625 47.4846 90.2833 48.7974 90.2833 48.7974C90.2833 48.7974 94.4502 50.1101 95.521 49.3952C96.5919 48.6803 96.4961 44.5916 96.4211 42.5891C96.2669 38.6844 94.7085 40.3524 93.6293 42.2003C93.1084 43.0866 90.0583 42.5598 91.8417 40.2897C93.6251 38.0196 95.2835 36.0171 96.9502 37.8106C98.617 39.6041 99.8045 43.0657 99.8045 43.0657C99.8045 43.0657 100.996 37.3758 102.08 34.0313C103.163 30.6868 105.105 29.3615 105.805 29.5956C106.505 29.8297 106.426 30.9961 105.726 32.6308C105.026 34.2654 103.476 38.7763 103.088 40.2563C102.7 41.7362 102.625 43.4461 103.401 43.2914C104.176 43.1368 106.888 38.3875 107.667 36.3641C108.447 34.3407 109.605 32.4761 110.922 31.6191C112.238 30.762 113.326 31.8532 112.784 33.2537C111.708 35.7864 110.487 38.2543 109.126 40.6451C108.27 42.1902 107.544 43.8039 106.955 45.4696C108.232 44.104 109.578 42.8049 110.988 41.5774C112.851 40.0222 114.868 39.7128 115.484 40.2563C116.101 40.7998 115.563 40.8792 114.013 42.125C112.463 43.3709 110.147 44.855 108.292 47.8818C106.856 50.1012 105.734 52.51 104.959 55.0391C104.383 56.6992 103.628 58.2917 102.709 59.7883C102.709 59.7883 104.163 71.6363 106.684 78.1539C109.205 84.6715 113.663 94.2034 112.305 101.014C110.947 107.824 108.33 111.323 104.646 112.393C103.578 112.706 102.452 112.764 101.358 112.561C100.264 112.359 99.2325 111.902 98.3461 111.227" stroke="#181F23"/>
<path d="M108.293 47.8819C110.155 44.8467 112.485 43.3668 114.035 42.1251C115.585 40.8835 116.118 40.7998 115.506 40.2564C114.893 39.7129 112.872 40.0222 111.01 41.5774C109.6 42.8049 108.253 44.104 106.976 45.4696C107.559 43.8046 108.278 42.191 109.126 40.6452C110.483 38.2541 111.7 35.7862 112.772 33.2538C113.314 31.8532 112.23 30.7454 110.91 31.6191C109.589 32.4929 108.43 34.3407 107.655 36.3642C106.88 38.3876 104.163 43.1368 103.388 43.2915C102.613 43.4462 102.688 41.7321 103.076 40.2564C103.463 38.7806 105.018 34.2655 105.713 32.6308C106.409 30.9962 106.489 29.8298 105.793 29.5957C105.097 29.3616 103.155 30.6827 102.068 34.0314C100.98 37.3801 99.7924 43.0658 99.7924 43.0658C99.7924 43.0658 98.6049 39.6 96.9381 37.8107C95.2714 36.0214 93.6047 38.0197 91.8296 40.2898C90.0545 42.5599 93.0797 43.0867 93.6172 42.2004C94.6964 40.3525 96.2548 38.6844 96.409 42.5892C96.484 44.5917 96.5798 48.6762 95.5089 49.3953C94.438 50.1143 90.2712 48.7974 90.2712 48.7974C90.2712 48.7974 90.7462 47.4847 91.2254 45.8124C91.7046 44.1402 92.0588 42.9445 91.2254 41.9913C90.3921 41.0381 89.4378 42.8275 89.4378 42.8275C89.4378 42.8275 86.2252 46.289 86.5836 48.5591C86.9419 50.8292 91.7004 55.7206 93.0088 57.5141C94.3172 59.3076 93.6547 64.9013 93.6547 68.9314C93.6547 72.9616 92.613 80.5746 91.5713 88.037C91.5713 88.1374 91.5421 88.2293 91.5296 88.3255C93.1755 90.0605 96.5298 92.5479 102.201 92.3556C106.001 92.226 108.693 90.3071 110.514 88.1959C109.305 84.588 107.789 81.0888 106.664 78.1623C104.143 71.6447 102.688 59.7967 102.688 59.7967C103.608 58.3001 104.362 56.7077 104.938 55.0475C105.72 52.5144 106.849 50.1027 108.293 47.8819Z" fill="white" stroke="#181F23" stroke-linecap="round" stroke-linejoin="round"/>
<path d="M96.8834 59.3201C96.8834 59.3201 96.1875 56.3643 97.1959 54.4956C97.7262 53.433 98.6003 52.5825 99.6752 52.0833" stroke="#181F23" stroke-linecap="round" stroke-linejoin="round"/>
<ellipse cx="56.3559" cy="100.938" rx="1.43012" ry="1.43487" fill="white"/>
<path d="M48.6296 106.21C47.9329 105.21 47.4451 104.09 47.1934 102.912" stroke="white" stroke-linecap="round" stroke-linejoin="round"/>
<path d="M54.3893 110.125C52.8654 109.794 51.4493 109.088 50.2705 108.071L52.4826 105.797C53.5556 106.668 54.8913 107.156 56.2759 107.182C57.6605 107.208 59.0138 106.771 60.1193 105.942" stroke="white" stroke-linecap="round" stroke-linejoin="round"/>
<path d="M50.7179 103.736C50.3186 102.937 50.097 102.06 50.0686 101.167C50.0401 100.273 50.2054 99.3843 50.5531 98.5612C50.9008 97.7381 51.4225 97.0005 52.0823 96.3994C52.742 95.7982 53.524 95.348 54.3743 95.0797" stroke="white" stroke-linecap="round" stroke-linejoin="round"/>
<path d="M61.5605 104.394C62.2055 103.402 62.5487 102.242 62.548 101.057H65.6593C65.6597 102.938 65.0903 104.774 64.0271 106.321C62.9639 107.868 61.4575 109.051 59.709 109.713" stroke="white" stroke-linecap="round" stroke-linejoin="round"/>
<path d="M61.9664 98.6199C61.5187 97.4543 60.7397 96.4541 59.7308 95.7491C58.7218 95.0442 57.5295 94.6672 56.309 94.6672V97.8682C57.0149 97.8687 57.6974 98.1282 58.2332 98.5999C58.769 99.0716 59.1229 99.7245 59.2309 100.441C59.3389 101.157 59.1939 101.889 58.8221 102.505C58.4503 103.121 57.8763 103.58 57.2035 103.799C56.5308 104.019 55.8038 103.984 55.1538 103.702C54.5037 103.419 53.9735 102.907 53.6588 102.259C53.3442 101.61 53.2658 100.868 53.4379 100.165C53.61 99.4621 54.0212 98.8457 54.5972 98.4269" stroke="white" stroke-linecap="round" stroke-linejoin="round"/>
<path d="M61.7627 93.4307C63.4225 94.604 64.6463 96.2671 65.2508 98.1712" stroke="white" stroke-linecap="round" stroke-linejoin="round"/>
<path d="M46.9873 101.057C46.9881 99.536 47.3496 98.0376 48.0413 96.688C48.733 95.3384 49.7346 94.1772 50.9617 93.3024C52.1888 92.4275 53.6053 91.8646 55.0919 91.6612C56.5785 91.4577 58.0916 91.6197 59.5035 92.1334" stroke="white" stroke-linecap="round" stroke-linejoin="round"/>
</svg>
