<svg width="250" height="31" viewBox="0 0 250 31" fill="none" xmlns="http://www.w3.org/2000/svg">
<path fill-rule="evenodd" clip-rule="evenodd" d="M26.1466 8.94929C26.4353 9.41489 26.2482 10.0167 25.7656 10.276L15.9633 15.5441C15.2612 15.9214 15.2612 16.9284 15.9633 17.3058L25.351 22.351C25.8527 22.6207 26.0309 23.2568 25.7025 23.7222C23.2059 27.2607 19.0406 29.5783 14.3239 29.5783C6.68483 29.5783 0.492188 23.4993 0.492188 16.0004C0.492188 8.50154 6.68483 2.4225 14.3239 2.4225C19.3325 2.4225 23.7193 5.03586 26.1466 8.94929Z" fill="white"/>
<ellipse cx="15.9154" cy="8.03476" rx="1.66829" ry="1.63768" fill="#181F23"/>
<ellipse cx="172.32" cy="16" rx="3.19553" ry="3.13691" fill="white"/>
<ellipse cx="95.0149" cy="16" rx="3.19553" ry="3.13691" fill="white"/>
<ellipse cx="191.547" cy="16" rx="3.19553" ry="3.13691" fill="white"/>
<ellipse cx="210.717" cy="16" rx="3.19553" ry="3.13691" fill="white"/>
<ellipse cx="114.243" cy="16" rx="3.19553" ry="3.13691" fill="white"/>
<ellipse cx="133.602" cy="16" rx="3.19553" ry="3.13691" fill="white"/>
<ellipse cx="56.2971" cy="16" rx="3.19553" ry="3.13691" fill="white"/>
<ellipse cx="37.1272" cy="16" rx="3.19553" ry="3.13691" fill="white"/>
<ellipse cx="152.96" cy="16" rx="3.19553" ry="3.13691" fill="white"/>
<ellipse cx="75.6565" cy="16" rx="3.19553" ry="3.13691" fill="white"/>
<path d="M248.989 26.8429C249.884 13.9662 251.075 0.999987 238.002 1C226.801 1.00001 225.08 14.6953 228.37 28.9773C228.625 30.0843 229.817 30.7719 230.74 30.1097C233.326 28.2542 232.251 25.2384 234.024 25.2384C236.128 25.2384 235.738 30.345 238.002 30.345C240.266 30.345 239.762 25.2384 242.14 25.2384C243.932 25.2384 244.27 29.622 246.24 30.3541C247.894 30.9687 248.867 28.603 248.989 26.8429Z" fill="#181F23" stroke="white"/>
<ellipse cx="233.978" cy="12.633" rx="2.81252" ry="2.76091" fill="white"/>
<ellipse cx="242.816" cy="12.633" rx="2.81251" ry="2.76091" fill="white"/>
<ellipse cx="233.977" cy="12.6332" rx="1.15276" ry="1.13161" fill="#181F23"/>
<ellipse cx="242.817" cy="12.6332" rx="1.15276" ry="1.13161" fill="#181F23"/>
</svg>
