<svg width="387" height="398" viewBox="0 0 387 398" fill="none" xmlns="http://www.w3.org/2000/svg">
<path d="M193.532 287.617C114.511 287.617 50.4512 327.736 50.4512 377.225C50.4512 383.602 51.5148 389.823 53.5369 395.823H193.532H333.528C335.55 389.823 336.613 383.602 336.613 377.225C336.613 327.736 272.554 287.617 193.532 287.617Z" fill="#181F23"/>
<path d="M333.528 395.823V397.323C334.171 397.323 334.743 396.912 334.949 396.302L333.528 395.823ZM53.5369 395.823L52.1154 396.302C52.321 396.912 52.8931 397.323 53.5369 397.323V395.823ZM51.9512 377.225C51.9512 353.183 67.5155 331.191 93.1548 315.134C118.773 299.09 154.258 289.117 193.532 289.117V286.117C153.785 286.117 117.729 296.204 91.5625 312.591C65.4166 328.966 48.9512 351.778 48.9512 377.225H51.9512ZM193.532 289.117C232.806 289.117 268.291 299.09 293.91 315.134C319.549 331.191 335.113 353.183 335.113 377.225H338.113C338.113 351.778 321.648 328.966 295.502 312.591C269.335 296.204 233.28 286.117 193.532 286.117V289.117ZM335.113 377.225C335.113 383.433 334.078 389.492 332.106 395.344L334.949 396.302C337.021 390.154 338.113 383.771 338.113 377.225H335.113ZM54.9583 395.344C52.9862 389.492 51.9512 383.433 51.9512 377.225H48.9512C48.9512 383.771 50.0433 390.154 52.1154 396.302L54.9583 395.344ZM333.528 394.323H193.532V397.323H333.528V394.323ZM193.532 394.323H53.5369V397.323H193.532V394.323Z" fill="white"/>
<path d="M307.53 309.596C307.53 333.719 294.533 353.154 273.529 366.624C252.495 380.113 223.489 387.56 191.807 387.56C160.125 387.56 131.993 380.113 111.832 366.639C91.7077 353.191 79.5312 333.761 79.5312 309.596C79.5312 261.268 130.194 221.488 193.53 221.488C256.867 221.488 307.53 261.268 307.53 309.596Z" fill="#181F23" stroke="white" stroke-width="3"/>
<path d="M155.865 318.543L138.633 363.748M247.193 363.748L229.962 318.543M192.052 381.247V324.376" stroke="white" stroke-width="3" stroke-linecap="round" stroke-linejoin="round"/>
<ellipse cx="193.531" cy="291.186" rx="63.7831" ry="35.6841" fill="white"/>
<path d="M152.01 248.721H231.01V270.704C231.01 292.519 213.325 310.204 191.51 310.204C169.695 310.204 152.01 292.519 152.01 270.704V248.721Z" fill="white" stroke="#181F23" stroke-width="3"/>
<path d="M76.3066 151.034C76.3066 127.589 94.6946 126.325 103.889 128.623L110.555 134.646L112.427 169.741L109.06 173.444C98.1423 175.743 76.3066 174.478 76.3066 151.034Z" fill="white" stroke="white" stroke-width="3" stroke-linecap="round" stroke-linejoin="round"/>
<path d="M310.752 151.034C310.752 127.589 292.364 126.325 283.17 128.623L266.845 141.197L273.864 172.08L277.998 173.444C288.916 175.743 310.752 174.478 310.752 151.034Z" fill="white" stroke="white" stroke-width="3" stroke-linecap="round" stroke-linejoin="round"/>
<path d="M191.805 259.637C262.485 259.637 283.169 173.443 283.169 125.175V88.9739L276.275 82.0785L128.022 52.7727L121.317 62.5838L109.619 69.6028L103.887 81.3011L103.887 99.0826L103.887 125.175C103.887 182.063 126.298 259.637 191.805 259.637Z" fill="white" stroke="#181F23" stroke-width="3" stroke-linecap="round" stroke-linejoin="round"/>
<path d="M115.955 130.347H178.014V164.72C178.014 168.586 174.88 171.72 171.014 171.72H122.955C119.089 171.72 115.955 168.586 115.955 164.72V130.347Z" stroke="#181F23" stroke-width="3" stroke-linecap="round" stroke-linejoin="round"/>
<path d="M205.596 130.347H267.655V164.72C267.655 168.586 264.521 171.72 260.655 171.72H212.596C208.73 171.72 205.596 168.586 205.596 164.72V130.347Z" stroke="#181F23" stroke-width="3" stroke-linecap="round" stroke-linejoin="round"/>
<path d="M176.289 140.69C181.317 135.487 193.528 128.624 207.319 140.69" stroke="#181F23" stroke-width="3" stroke-linecap="round" stroke-linejoin="round"/>
<path d="M187.908 154.984C185.223 165.763 180.657 187.911 183.88 190.262C187.103 192.614 199.545 191.242 205.363 190.262" stroke="#181F23" stroke-width="3" stroke-linecap="round" stroke-linejoin="round"/>
<path d="M168.51 215.221H218.13C218.34 215.221 218.51 215.391 218.51 215.601C218.51 225.884 210.173 234.221 199.89 234.221H187.51C177.016 234.221 168.51 225.714 168.51 215.221Z" fill="#181F23" stroke="#181F23" stroke-width="3" stroke-linecap="round" stroke-linejoin="round"/>
<path d="M119.914 110.769C126.933 106.246 146.118 100.194 166.707 112.173" stroke="#181F23" stroke-width="3" stroke-linecap="round" stroke-linejoin="round"/>
<path d="M264.973 110.769C257.954 106.246 238.768 100.194 218.179 112.173" stroke="#181F23" stroke-width="3" stroke-linecap="round" stroke-linejoin="round"/>
<circle cx="146.985" cy="147.586" r="6.89547" fill="#181F23"/>
<circle cx="236.626" cy="147.586" r="6.89547" fill="#181F23"/>
<path d="M100.447 4.50487C140.671 2.781 224.566 0.367583 238.357 4.50487C255.595 9.67647 295.244 25.1913 295.244 92.4222C299.386 99.3177 300.989 120.004 300.411 130.347C293.515 126.9 286.045 128.049 283.172 128.623V92.4222H165.954C162.24 92.4222 130.069 79.9727 112.235 49.3255C105.238 37.3019 100.447 22.4774 100.447 4.50487Z" fill="#181F23"/>
<path d="M295.244 92.4222C295.244 25.1913 255.595 9.67647 238.357 4.50487C224.566 0.367583 140.671 2.781 100.447 4.50487C100.447 22.4774 105.238 37.3019 112.235 49.3255M295.244 92.4222C291.532 92.4222 287.479 92.4222 283.172 92.4222M295.244 92.4222C299.386 99.3177 300.989 120.004 300.411 130.347C293.515 126.9 286.045 128.049 283.172 128.623V92.4222M123.639 64.8403C117.893 63.6911 103.895 68.9776 103.895 92.4222C103.895 115.867 103.89 126.9 103.89 128.623C100.442 128.623 90.1039 128.623 90.1039 128.623C90.1039 128.623 88.375 118.28 88.375 102.765C88.375 92.4222 90.1039 68.2881 112.235 49.3255M112.235 49.3255C130.069 79.9727 162.24 92.4222 165.954 92.4222C169.72 92.4222 239.479 92.4222 283.172 92.4222" stroke="white" stroke-width="3" stroke-linecap="round" stroke-linejoin="round"/>
<path d="M2.03125 395.823H385.033" stroke="white" stroke-width="3" stroke-linecap="round" stroke-linejoin="round"/>
</svg>
