<svg width="380" height="441" viewBox="0 0 380 441" fill="none" xmlns="http://www.w3.org/2000/svg">
<path d="M242.802 159.499L235.695 195.032C235.695 195.032 220.838 201.346 191.124 195.032L177.357 150.733C177.357 150.733 190.951 148.455 192.362 112.427L178.323 87.1451C178.323 87.1451 172.231 97.9164 167.081 86.6746C161.93 75.4328 156.309 57.1835 165.669 56.7378C175.029 56.2921 182.532 58.1244 198.429 49.3093C214.326 40.4941 230.743 20.2886 230.743 20.2886L252.731 39.9494C252.731 39.9494 259.293 94.7222 232.13 115.77C235.993 116.512 233.071 151.105 230.52 152.466C226.435 154.546 242.802 159.499 242.802 159.499Z" fill="white"/>
<path d="M250.477 35.9141C250.477 35.9141 251.343 69.8128 244.905 92.2469C238.467 114.681 218.633 127.483 208.01 123.1C200.582 120.03 185.725 108.243 179.856 83.8527" stroke="#181F23" stroke-width="0.94418" stroke-linecap="round" stroke-linejoin="round"/>
<path d="M223.266 64.5873C223.092 67.0635 222.127 68.8216 221.087 68.7473C220.047 68.673 219.353 66.6921 219.527 64.3149C219.7 61.9378 220.666 60.0807 221.681 60.155C222.696 60.2293 223.414 62.2102 223.266 64.5873Z" fill="#181F23"/>
<path d="M243.344 64.5629C243.195 67.0391 242.23 68.7972 241.19 68.7229C240.15 68.6486 239.456 66.6677 239.605 64.2906C239.753 61.9134 240.744 60.0563 241.784 60.1306C242.824 60.2049 243.592 62.1858 243.344 64.5629Z" fill="#181F23"/>
<path d="M235.447 62.1123C235.019 64.2967 234.886 66.5286 235.051 68.7485C235.141 69.8628 235.458 70.947 235.982 71.9347C236.505 72.9225 237.225 73.793 238.096 74.4931C238.901 74.9468 239.642 75.5047 240.3 76.1522C240.755 76.8889 240.965 77.7512 240.898 78.6146C240.831 79.4781 240.492 80.298 239.929 80.956C238.795 82.2547 237.57 83.4711 236.264 84.5959" stroke="#181F23" stroke-width="0.94418" stroke-linecap="round" stroke-linejoin="round"/>
<path d="M216.873 91.2065C218.571 93.0491 220.522 94.6415 222.668 95.936C225.776 97.3859 229.324 97.581 232.572 96.4808" stroke="#181F23" stroke-width="0.94418" stroke-linecap="round" stroke-linejoin="round"/>
<path d="M246.316 53.8913C246.316 53.8913 244.905 46.0665 237.427 49.137" stroke="#181F23" stroke-width="0.94418" stroke-linecap="round" stroke-linejoin="round"/>
<path d="M223.041 49.6557C222.159 48.2618 220.839 47.2011 219.287 46.6407C217.736 46.0803 216.042 46.052 214.473 46.5605C212.931 47.1521 211.529 48.0588 210.356 49.2228C209.184 50.3867 208.267 51.7822 207.664 53.3204" stroke="#181F23" stroke-width="0.94418" stroke-linecap="round" stroke-linejoin="round"/>
<path d="M193.176 113.765C192.751 120.566 191.74 127.318 190.155 133.946C189.558 137.397 188.44 140.737 186.837 143.851C185.19 147.021 182.375 149.427 178.987 150.561" stroke="#181F23" stroke-width="0.94418" stroke-linecap="round" stroke-linejoin="round"/>
<path d="M242.922 161.009L232.646 155.389C232.07 155.081 231.581 154.635 231.222 154.09C230.863 153.545 230.646 152.919 230.591 152.269C230.071 145.831 228.758 127.383 232.646 114.631" stroke="#181F23" stroke-width="0.94418" stroke-linecap="round" stroke-linejoin="round"/>
<path d="M249.638 40.1066C250.137 40.1325 250.137 40.1327 250.137 40.133L250.137 40.1341L250.137 40.1387L250.136 40.157L250.132 40.229L250.117 40.5109C250.104 40.7584 250.084 41.1233 250.057 41.5925C250.004 42.5311 249.924 43.8875 249.82 45.5595C249.61 48.9033 249.3 53.5101 248.895 58.5617C248.085 68.6539 246.896 80.5577 245.378 87.7007C243.851 94.8875 240.493 101.356 237.529 106.017C236.046 108.35 234.657 110.237 233.639 111.541C233.129 112.193 232.712 112.7 232.422 113.045C232.276 113.217 232.163 113.349 232.085 113.438C232.069 113.456 232.055 113.472 232.043 113.486C229.71 121.953 228.924 132.532 229.002 141.019C229.041 145.278 229.297 148.995 229.679 151.637C229.871 152.962 230.091 153.996 230.323 154.688C230.441 155.038 230.552 155.27 230.645 155.406C230.674 155.448 230.696 155.473 230.71 155.487C230.764 155.495 230.817 155.511 230.867 155.536L241.604 160.94L245.914 159.519C245.997 159.492 246.084 159.486 246.169 159.503L246.071 159.993C246.169 159.503 246.169 159.503 246.169 159.503L246.17 159.503L246.172 159.504L246.18 159.505L246.212 159.512L246.338 159.537L246.827 159.634C247.253 159.719 247.874 159.841 248.65 159.994C250.204 160.299 252.384 160.724 254.887 161.202C259.894 162.158 266.191 163.327 271.36 164.18C276.604 165.046 278.78 166.851 279.555 168.617C279.937 169.489 279.953 170.302 279.873 170.893C279.853 171.045 279.826 171.183 279.798 171.304L290.865 173.6C301.458 158.158 309.322 129.75 286.4 102.996C274.72 89.3632 269.925 78.2059 266.218 66.5834C265.3 63.7049 264.45 60.8035 263.579 57.8321C260.935 48.8086 258.101 39.1401 252.602 27.5094C245.333 12.1359 235.902 6.75814 228.351 5.17761C224.561 4.38448 221.221 4.54249 218.829 4.89877C217.633 5.07685 216.676 5.3042 216.021 5.48601C215.783 5.55199 215.585 5.61193 215.43 5.6613C216.601 10.8398 218.926 13.8236 221.946 16.3052C223.456 17.5465 225.139 18.661 226.961 19.8675L227.16 19.9997C229.052 21.2531 231.08 22.6062 233.162 24.2814C233.215 24.3245 233.259 24.3781 233.291 24.439C237.117 31.7467 241.256 35.5359 244.405 37.4987C245.981 38.4811 247.315 39.0094 248.246 39.2916C248.712 39.4328 249.077 39.5125 249.322 39.5566C249.445 39.5786 249.537 39.5918 249.597 39.5993C249.626 39.603 249.648 39.6054 249.661 39.6067L249.675 39.608L249.675 39.608C249.675 39.608 249.676 39.608 249.676 39.6081L249.676 39.6081C249.676 39.6081 249.676 39.6081 249.677 39.6081C249.947 39.629 250.151 39.8616 250.137 40.1325L249.638 40.1066ZM230.728 155.503C230.728 155.503 230.726 155.502 230.724 155.5C230.727 155.502 230.728 155.503 230.728 155.503Z" fill="#181F23" stroke="white" stroke-linecap="round" stroke-linejoin="round"/>
<path d="M179.088 85.6664C178.813 85.8961 178.454 86.1724 178.023 86.4507C176.979 87.1251 175.486 87.8319 173.752 87.878C171.997 87.9246 170.054 87.2925 168.143 85.39C166.245 83.5011 164.384 80.3666 162.731 75.4074C159.852 66.7712 161.234 60.5892 164.529 57.548C167.8 54.5282 172.742 54.7951 176.655 58.5522C201.448 52.6051 223.862 38.8578 233.134 19.6034L214.583 5.76295C214.566 5.75479 214.544 5.74412 214.516 5.73106C214.443 5.69663 214.334 5.64564 214.189 5.58062C213.901 5.45059 213.474 5.26447 212.924 5.04243C211.823 4.59829 210.23 4.01087 208.269 3.44112C204.344 2.30077 198.959 1.23574 193.1 1.52162C187.244 1.8073 180.922 3.44115 175.098 7.6912C169.275 11.9407 163.913 18.8322 160.022 29.6946C152.218 51.4794 150.753 81.827 151.251 106.777C151.5 119.243 152.239 130.343 152.915 138.327C153.253 142.319 153.575 145.531 153.813 147.745C153.932 148.852 154.03 149.709 154.098 150.289C154.114 150.428 154.128 150.551 154.141 150.658L173.507 147.559C175.898 147.177 178.188 148.646 178.847 150.96C179.142 151.188 179.587 151.25 180.243 151.075C180.966 150.881 181.828 150.421 182.736 149.788C184.548 148.525 186.41 146.662 187.503 145.231C188.557 143.851 189.251 141.803 189.8 139.565C190.072 138.454 190.305 137.314 190.531 136.206L190.542 136.151C190.762 135.07 190.977 134.017 191.213 133.072C192.783 126.004 193.048 123.515 193.637 117.975C193.751 116.903 193.877 115.717 194.027 114.361C186.854 106.473 181.963 95.8515 179.088 85.6664Z" fill="#181F23" stroke="white" stroke-linecap="round" stroke-linejoin="round"/>
<path d="M257.562 86.5269C258.335 88.7838 259.245 90.9916 260.286 93.1382C263.728 100.146 268.705 106.287 272.444 113.17C276.547 120.836 279.047 129.257 279.792 137.92C280.537 146.583 279.511 155.307 276.777 163.56" stroke="white" stroke-width="0.47209" stroke-linecap="round" stroke-linejoin="round"/>
<path d="M247.605 97.1997C254.537 116.817 256.001 137.951 251.84 158.336" stroke="white" stroke-width="0.47209" stroke-linecap="round" stroke-linejoin="round"/>
<path d="M214.643 15.8813C214.643 15.8813 197.582 43.8868 173.34 53.7667" stroke="white" stroke-width="0.47209" stroke-linecap="round" stroke-linejoin="round"/>
<path d="M209.869 11.8203C209.869 11.8203 178.471 10.1117 167.774 53.1475" stroke="white" stroke-width="0.47209" stroke-linecap="round" stroke-linejoin="round"/>
<path d="M316.296 223.311L303.767 175.892L279.451 171.955C279.451 171.955 282.496 166.26 275.736 165.888C268.976 165.517 242.605 160.565 242.605 160.565L219.354 288.706L177.432 150.611C177.432 150.611 174.956 148.852 167.924 149.397C160.892 149.942 144.128 152.443 143.162 154.052C142.197 155.662 138.458 156.38 138.458 156.38C138.458 156.38 113.102 155.538 111.22 167.597C107.753 182.182 116.172 285.116 116.172 285.116C116.172 285.116 90.7418 309.457 84.8485 320.699L103.172 347.119L136.873 329.241L159.678 314.533L163.269 320.476L119.54 391.765L178.2 439.901L222.771 331.693L305.921 419.498L320.778 360.292L267.515 306.089L277.544 291.232C277.544 291.232 296.932 326.666 306.936 327.409C316.94 328.152 337.244 301.162 339.126 297.695C339.391 297.264 339.556 296.78 339.608 296.277C339.66 295.774 339.598 295.265 339.427 294.79C339.255 294.314 338.979 293.883 338.618 293.529C338.258 293.174 337.822 292.906 337.343 292.743C337.343 292.743 353.414 269.838 348.412 264.069C345.119 260.577 324.814 272.488 315.999 270.432C309.784 268.625 305.946 261.815 301.365 252.332C303.63 249.913 305.616 247.247 307.283 244.383L316.296 223.311Z" fill="white"/>
<path opacity="0.5" d="M312.677 267.981C312.677 267.981 302.327 255.6 301.213 252.183C301.213 252.183 295.245 249.706 293.784 255.674C292.84 261.251 290.876 266.607 287.99 271.472C284.721 276.598 289.6 282.862 294.725 288.681C299.851 294.5 302.575 302.35 307.948 302.845C313.321 303.34 334.468 293.782 334.468 293.782C336.603 292.974 338.473 291.591 339.872 289.786C341.27 287.981 342.142 285.825 342.391 283.556C343.555 275.434 350.885 268.946 348.384 263.746C345.883 258.546 330.778 270.234 324.266 269.788C322.41 270.826 320.26 271.212 318.16 270.884C316.059 270.556 314.129 269.534 312.677 267.981Z" fill="white"/>
<path opacity="0.5" d="M216.922 289.945C216.922 289.945 148.926 217.244 146.45 210.583C143.974 203.923 153.705 196.123 153.705 196.123C153.705 196.123 162.099 190.304 159.599 182.999C157.098 175.694 142.959 165.344 141.77 159.822C140.582 154.3 143.058 154.053 143.058 154.053C143.058 154.053 174.01 147.119 176.09 148.456C178.17 149.794 194.067 209.246 194.067 209.246L216.922 289.945Z" fill="white"/>
<path opacity="0.5" d="M219.651 284.769C219.651 284.769 239.461 166.111 241.566 161.505C243.67 156.899 258.676 162.817 258.676 162.817C258.676 162.817 279.005 163.337 279.921 167.918C280.838 172.499 266.129 194.166 266.129 194.166C266.129 194.166 279.5 216.451 280.986 220.537C282.472 224.623 227.377 292.148 227.377 292.148C227.377 292.148 223.242 296.753 219.949 296.753C216.655 296.753 219.651 284.769 219.651 284.769Z" fill="white"/>
<path d="M246.069 160.021L276.477 165.815C277.097 165.892 277.69 166.12 278.203 166.478C278.715 166.836 279.133 167.315 279.418 167.871C279.704 168.428 279.849 169.046 279.841 169.672C279.834 170.297 279.673 170.911 279.374 171.461L266.993 192.409C266.64 193.014 266.455 193.702 266.455 194.402C266.455 195.103 266.64 195.79 266.993 196.396L281.057 220.513C281.464 221.205 281.651 222.004 281.593 222.804C281.536 223.605 281.237 224.369 280.736 224.995L224.601 294.699C224.271 295.113 223.847 295.442 223.364 295.658C222.881 295.874 222.353 295.972 221.825 295.943C221.297 295.914 220.783 295.759 220.327 295.491C219.871 295.223 219.485 294.85 219.203 294.402V294.402C218.66 293.578 218.456 292.575 218.633 291.604L241.389 163.215C241.484 162.697 241.681 162.202 241.969 161.761C242.256 161.319 242.628 160.939 243.063 160.642C243.498 160.345 243.988 160.137 244.504 160.03C245.02 159.924 245.552 159.92 246.069 160.021V160.021Z" stroke="#181F23" stroke-width="0.94418" stroke-linecap="round" stroke-linejoin="round"/>
<path d="M218.385 293.212L178.073 151.823C177.797 150.898 177.197 150.103 176.383 149.584C175.569 149.066 174.595 148.858 173.64 149L144.298 153.507C143.622 153.615 142.985 153.898 142.452 154.328C141.919 154.757 141.507 155.319 141.256 155.956C141.006 156.594 140.927 157.286 141.026 157.964C141.125 158.641 141.399 159.281 141.822 159.821L159.65 182.998C160.174 183.684 160.458 184.524 160.458 185.387C160.458 186.251 160.174 187.09 159.65 187.777L146.279 205.605C145.745 206.329 145.471 207.212 145.502 208.111C145.534 209.011 145.869 209.873 146.452 210.557L218.385 293.212Z" stroke="#181F23" stroke-width="0.94418" stroke-linecap="round" stroke-linejoin="round"/>
<path d="M191.198 194.908C208.532 201.792 235.77 194.908 235.77 194.908L218.733 291.479L191.198 194.908Z" fill="#181F23"/>
<path d="M340.759 264.018C343.755 261.938 347.098 261.938 348.51 263.82C349.109 264.837 349.446 265.988 349.489 267.168C349.533 268.349 349.281 269.521 348.757 270.58C347.866 272.759 346.405 274.641 345.39 276.77C344.201 279.246 343.681 282.193 342.567 284.793C338.531 294.128 327.883 298.362 318.3 301.656C316.881 302.529 315.298 303.101 313.648 303.336C311.998 303.572 310.318 303.465 308.711 303.024C307.104 302.583 305.605 301.816 304.307 300.771C303.009 299.727 301.94 298.426 301.165 296.951L290.543 283.679C289.183 282.196 288.123 280.464 287.423 278.578C285.466 272.065 292.028 266.197 293.564 259.635C293.744 257.269 294.347 254.954 295.346 252.801C296.659 250.82 301.264 250.325 302.205 252.429" stroke="#181F23" stroke-width="0.94418" stroke-linecap="round" stroke-linejoin="round"/>
<path d="M218.386 293.608C221.033 296.372 223.064 299.667 224.345 303.273C225.625 306.88 226.126 310.717 225.814 314.532C225.141 322.184 223.338 329.694 220.466 336.818C208.052 371.847 193.971 406.233 178.222 439.975L119.537 391.764L163.266 320.45L159.973 314.062" stroke="#181F23" stroke-width="0.94418" stroke-linecap="round" stroke-linejoin="round"/>
<path d="M277.315 290.267L267.113 306.089L320.697 360.194L305.915 419.399L222.195 332.114" stroke="#181F23" stroke-width="0.94418" stroke-linecap="round" stroke-linejoin="round"/>
<path d="M211.551 318.296C209.158 318.296 207.218 315.17 207.218 311.313C207.218 307.457 209.158 304.331 211.551 304.331C213.945 304.331 215.885 307.457 215.885 311.313C215.885 315.17 213.945 318.296 211.551 318.296Z" fill="#181F23"/>
<path d="M281.082 392.978C281.082 392.978 237.452 425.168 192.435 410.063L222.298 333.03L281.082 392.978Z" fill="#181F23"/>
<path d="M315.92 224.574C315.92 212.342 303.762 175.893 303.762 175.893C297.646 174.085 279.149 171.708 279.149 171.708" stroke="#181F23" stroke-width="0.94418" stroke-linecap="round" stroke-linejoin="round"/>
<path d="M140.758 156.553L121.221 158.732C118.171 158.948 115.323 160.333 113.27 162.598C111.217 164.864 110.118 167.834 110.202 170.89L115.922 286.428C115.922 286.428 100.347 296.085 84.8212 320.748" stroke="#181F23" stroke-width="0.94418" stroke-linecap="round" stroke-linejoin="round"/>
<path d="M115.5 287.096C122.929 287.418 129.367 287.541 136.82 287.839" stroke="#181F23" stroke-width="0.94418" stroke-linecap="round" stroke-linejoin="round"/>
<path d="M116.763 286.75L134.096 298.215" stroke="#181F23" stroke-width="0.94418" stroke-linecap="round" stroke-linejoin="round"/>
<path d="M212.344 325.823L186.146 357.592" stroke="#181F23" stroke-width="0.94418" stroke-linecap="round" stroke-linejoin="round"/>
<path d="M204.594 325.874C201.096 327.757 197.858 330.088 194.961 332.807" stroke="#181F23" stroke-width="0.94418" stroke-linecap="round" stroke-linejoin="round"/>
<path d="M267.461 306.287C263.418 308.372 259.045 309.746 254.535 310.348" stroke="#181F23" stroke-width="0.94418" stroke-linecap="round" stroke-linejoin="round"/>
<path d="M337.437 292.469C338.205 293.037 338.767 293.84 339.04 294.755C339.312 295.671 339.28 296.65 338.947 297.545C338.238 299.313 337.147 300.903 335.753 302.201L319.188 319.955C316.068 323.322 312.403 326.913 307.822 327.086C303.241 327.259 299.329 323.867 296.283 320.4C291.288 314.405 286.792 308.012 282.837 301.284C281.127 298.741 279.683 296.027 278.529 293.187C277.39 289.621 276.691 285.929 276.449 282.193C275.508 272.982 274.559 263.77 273.601 254.559" stroke="#181F23" stroke-width="0.94418" stroke-linecap="round" stroke-linejoin="round"/>
<path d="M102.771 346.871C102.771 346.871 148.11 325.006 159.971 314.086C159.971 314.086 163.313 272.808 157.618 234.849" stroke="#181F23" stroke-width="0.94418" stroke-linecap="round" stroke-linejoin="round"/>
<path d="M170.199 247.675C169.969 254.394 167.802 260.903 163.959 266.42" stroke="#181F23" stroke-width="0.94418" stroke-linecap="round" stroke-linejoin="round"/>
<path d="M1.47195 328.349L0.40722 335.926L6.74621 345.955L10.2871 339.616L1.47195 328.349Z" fill="white"/>
<path d="M111.812 367.101L55.7025 412.564L30.3713 372.004L25.3942 375.817L54.4149 422.666L106.885 378.863L111.812 367.101Z" fill="white"/>
<path opacity="0.4" d="M1.47195 328.349L0.40722 335.926L6.74621 345.955L10.2871 339.616L1.47195 328.349Z" fill="white"/>
<path opacity="0.4" d="M111.812 367.101L55.7025 412.564L30.3713 372.004L25.3942 375.817L54.4149 422.666L106.885 378.863L111.812 367.101Z" fill="white"/>
<path d="M30.37 372.004L55.7012 412.564L113.99 364.402L58.7221 283.828L1.44833 326.393L10.2883 340.235" fill="white"/>
<path d="M30.37 372.004L55.7012 412.564L113.99 364.402L58.7221 283.828L1.44833 326.393L10.2883 340.235" stroke="#181F23" stroke-width="0.94418" stroke-linecap="round" stroke-linejoin="round"/>
<path d="M7.75977 346.524L1.14844 335.728L1.44557 326.393" stroke="#181F23" stroke-width="0.94418" stroke-linecap="round" stroke-linejoin="round"/>
<path d="M25.9129 376.312L54.4136 422.666L106.066 379.036L113.99 364.402" stroke="#181F23" stroke-width="0.94418" stroke-linecap="round" stroke-linejoin="round"/>
<path d="M57.9531 295.441L11.7973 329.216" stroke="#181F23" stroke-width="0.94418" stroke-linecap="round" stroke-linejoin="round"/>
<path d="M61.2969 300.122L15.1411 333.897" stroke="#181F23" stroke-width="0.94418" stroke-linecap="round" stroke-linejoin="round"/>
<path d="M65.627 305.495L28.8558 332.51" stroke="#181F23" stroke-width="0.94418" stroke-linecap="round" stroke-linejoin="round"/>
<path d="M69.002 310.497L19.2557 346.822" stroke="#181F23" stroke-width="0.94418" stroke-linecap="round" stroke-linejoin="round"/>
<path d="M73.3359 316.859L39.8829 341.472" stroke="#181F23" stroke-width="0.94418" stroke-linecap="round" stroke-linejoin="round"/>
<path d="M77.3418 322.876L42.6259 348.653" stroke="#181F23" stroke-width="0.94418" stroke-linecap="round" stroke-linejoin="round"/>
<path d="M80.6836 328.894L42.6249 356.701" stroke="#181F23" stroke-width="0.94418" stroke-linecap="round" stroke-linejoin="round"/>
<path d="M84.0273 334.912L37.8963 368.687" stroke="#181F23" stroke-width="0.94418" stroke-linecap="round" stroke-linejoin="round"/>
<path d="M87.373 340.929L41.242 374.704" stroke="#181F23" stroke-width="0.94418" stroke-linecap="round" stroke-linejoin="round"/>
<path d="M90.7148 346.944L44.5839 380.719" stroke="#181F23" stroke-width="0.94418" stroke-linecap="round" stroke-linejoin="round"/>
<path d="M340.832 263.623C340.832 263.623 322.483 272.141 315.946 270.284C309.409 268.427 302.377 254.015 302.377 254.015L337.241 185.995C337.241 185.995 326.816 165.492 328.104 158.163C329.392 150.833 341.203 139.394 341.203 139.394L343.432 141.597C343.432 141.597 361.037 110.447 364.429 112.156C367.822 113.864 357.471 134.218 357.471 134.218C358.827 134.48 360.054 135.193 360.953 136.24C361.852 137.287 362.371 138.608 362.424 139.988C362.424 139.988 379.559 155.563 379.187 162.967C378.816 170.37 360.344 193.325 360.344 193.325L340.832 263.623Z" fill="white"/>
<path d="M368.095 164.452L361.806 156.602C361.806 156.602 350.316 166.507 348.212 164.452C346.107 162.396 359.726 139.888 362.326 139.888C364.926 139.888 379.065 158.187 378.545 163.932C378.025 169.676 360.246 193.225 360.246 193.225L340.882 263.82C340.882 263.82 326.768 270.605 318.398 270.085C310.029 269.565 301.783 252.331 301.783 252.331L337.242 185.994C337.242 185.994 326.347 164.13 328.105 158.162C329.863 152.195 340.04 143.305 340.734 137.808C342.119 139.592 342.93 141.755 343.058 144.011C343.186 146.266 342.626 148.507 341.452 150.437" stroke="#181F23" stroke-width="0.94418" stroke-linecap="round" stroke-linejoin="round"/>
<path d="M365.148 142.166C365.148 142.166 362.251 134.218 358.636 134.936C355.021 135.654 346.255 150.14 346.255 153.755C346.392 156.385 347.004 158.969 348.063 161.381" stroke="#181F23" stroke-width="0.94418" stroke-linecap="round" stroke-linejoin="round"/>
<path d="M342.935 143.651C342.935 143.651 359.352 109.629 364.428 112.154C369.504 114.68 356.504 133.648 353.607 139.392" stroke="#181F23" stroke-width="0.94418" stroke-linecap="round" stroke-linejoin="round"/>
<path d="M340.959 151.179C342.024 151.652 342.896 152.473 343.435 153.506C346.242 158.199 347.262 163.747 346.307 169.131" stroke="#181F23" stroke-width="0.94418" stroke-linecap="round" stroke-linejoin="round"/>
<path d="M9.29675 354.077C9.29675 354.077 5.40916 345.856 10.7577 340.904C16.1062 335.951 30.567 319.906 33.266 321.812C35.9651 323.719 15.71 350.041 15.71 350.041" fill="white"/>
<path d="M15.5356 350.759C25.2175 343.801 40.5697 334.441 42.4268 336.323C45.1011 338.997 23.7318 355.761 23.7318 355.761C23.7318 355.761 42.823 340.507 45.4973 343.553C47.1316 345.435 37.4498 353.458 29.7984 360.069" fill="white"/>
<path d="M31.0877 359.004C37.5009 353.086 44.1618 347.589 45.4742 348.901C48.1237 351.575 27.9429 376.139 23.1887 377.005C17.8897 377.922 17.7412 371.186 17.7412 371.186C16.154 370.671 14.7479 369.712 13.6901 368.421C12.6323 367.131 11.9671 365.564 11.7736 363.906V363.04C10.8786 362.446 10.123 361.665 9.55895 360.751C8.9949 359.837 8.63576 358.812 8.50631 357.745C8.37685 356.679 8.48016 355.597 8.8091 354.575C9.13804 353.552 9.68477 352.614 10.4116 351.823L13.7793 349.545C13.7793 349.545 17.1221 352.714 19.0782 351.476" fill="white"/>
<path d="M9.2948 354.077C9.2948 354.077 5.40721 345.856 10.7557 340.904C16.1043 335.951 30.5651 319.906 33.2641 321.812C35.9631 323.719 15.7081 350.041 15.7081 350.041" stroke="#181F23" stroke-width="0.94418" stroke-linecap="round" stroke-linejoin="round"/>
<path d="M15.5356 350.759C25.2175 343.801 40.5697 334.441 42.4268 336.323C45.1011 338.997 23.7317 355.761 23.7317 355.761C23.7317 355.761 42.823 340.507 45.4973 343.553C47.1316 345.435 37.4498 353.458 29.7984 360.069" stroke="#181F23" stroke-width="0.94418" stroke-linecap="round" stroke-linejoin="round"/>
<path d="M31.0877 359.004C37.5009 353.086 44.1618 347.589 45.4742 348.901C48.1237 351.575 27.9429 376.139 23.1887 377.005C17.8897 377.922 17.7412 371.186 17.7412 371.186C16.154 370.671 14.7479 369.712 13.6901 368.421C12.6323 367.131 11.9671 365.564 11.7736 363.906V363.04C11.7736 363.04 4.84031 360.564 9.29741 354.571" stroke="#181F23" stroke-width="0.94418" stroke-linecap="round" stroke-linejoin="round"/>
<path d="M178.965 65.4054C178.965 65.4054 176.068 55.7979 169.58 56.9122C163.093 58.0265 161.78 62.954 163.118 70.754C164.455 78.5539 168.466 88.8548 175.177 86.1805C176.995 85.5864 178.569 84.412 179.656 82.8376C180.742 81.2631 181.283 79.3755 181.194 77.4644" stroke="#181F23" stroke-width="0.94418" stroke-linecap="round" stroke-linejoin="round"/>
</svg>
