<svg width="481" height="278" viewBox="0 0 481 278" fill="none" xmlns="http://www.w3.org/2000/svg">
<path fill-rule="evenodd" clip-rule="evenodd" d="M480.114 1.88055H480.114V276.881H480.114V231.047V185.214V139.381L480.114 93.5472V47.7139V1.88055ZM480.114 1.88055L463.457 24.7972L480.114 47.7139L463.457 70.6306L480.114 93.5472L463.457 116.464L480.114 139.381L463.457 162.297L480.114 185.214L463.457 208.131L480.114 231.047L458.332 253.964L480.114 276.881H0.90625L17.5632 253.964L0.90625 231.047L17.5632 208.131L0.90625 185.214L17.5632 162.297L0.90625 139.381L17.5632 116.464L0.90625 93.5472L17.5632 70.6306L0.90625 47.7139L22.6884 24.7972L0.90625 1.88055H480.114Z" fill="white"/>
<path d="M53.6797 1.88055V276.881M428.34 1.88055V276.881" stroke="black" stroke-width="2" stroke-linecap="round" stroke-dasharray="10 10"/>
</svg>
