<svg width="211" height="179" viewBox="0 0 211 179" fill="none" xmlns="http://www.w3.org/2000/svg">
<path d="M33.5323 29.726C33.6236 29.7971 33.7571 29.7334 33.7604 29.6177C33.8857 25.1467 35.0584 20.7661 37.1856 16.8287C39.3574 12.809 42.4609 9.3683 46.2362 6.79485C50.0114 4.2214 54.3484 2.59013 58.8838 2.03781C63.3958 1.48835 67.9733 2.02255 72.2369 3.59567C72.277 3.61043 72.3035 3.64861 72.3035 3.69125C72.3035 3.75476 72.3609 3.80283 72.4235 3.79216C73.4447 3.61812 74.48 3.5391 75.516 3.5561C81.5937 3.56462 87.4195 5.98494 91.7141 10.2855C96.0087 14.5862 98.4209 20.4154 98.4209 26.4931V152.55C98.4039 158.617 95.9842 164.43 91.6914 168.717C87.3987 173.003 81.5826 175.415 75.516 175.423C73.1167 175.439 70.7343 175.065 68.4608 174.32C67.5351 174.016 66.5217 174.11 65.6647 174.573C63.2581 175.873 60.6176 176.698 57.8884 176.994C54.6434 177.347 51.3607 176.945 48.297 175.819C45.2332 174.693 42.4713 172.874 40.2271 170.504C38.4925 168.672 37.1035 166.549 36.1202 164.238C35.6041 163.025 34.4545 162.173 33.1406 162.069C18.6614 160.922 9.66035 148.557 9.66035 133.629C9.65888 130.927 10.0412 128.24 10.795 125.648C10.8756 125.371 10.7229 125.078 10.4477 124.991C10.3735 124.968 10.3053 124.928 10.2485 124.875C7.42089 122.221 5.16372 119.018 3.6154 115.461C2.05135 111.869 1.24414 107.993 1.24414 104.074C1.24414 100.156 2.05135 96.2798 3.6154 92.6872C5.1362 89.194 7.34087 86.0419 10.0983 83.416C10.2269 83.2936 10.2307 83.089 10.1051 82.9634C10.0871 82.9453 10.0713 82.9251 10.0581 82.9032C8.05314 79.5566 6.75417 75.8351 6.24132 71.9674C5.72678 68.0871 6.01453 64.1424 7.08669 60.3778C8.15885 56.6132 9.9926 53.1089 12.4743 50.0819C14.9245 47.0935 17.9547 44.6331 21.3815 42.849C21.4687 42.8037 21.5656 42.7803 21.6638 42.7803C21.9372 42.7803 22.1772 42.6003 22.2608 42.34C23.1264 39.644 24.5278 37.1488 26.3826 35.0051C28.3192 32.7667 30.7061 30.9624 33.3871 29.7096C33.4347 29.6873 33.4908 29.6938 33.5323 29.726Z" fill="white"/>
<path d="M98.717 152.551C98.7 158.617 96.2803 164.43 91.9876 168.717C87.6948 173.004 81.8787 175.415 75.8121 175.424C73.4128 175.439 71.0305 175.065 68.757 174.32C67.8313 174.017 66.8178 174.11 65.9609 174.573C63.5543 175.874 60.9138 176.698 58.1845 176.995C54.9395 177.348 51.6569 176.945 48.5932 175.819C45.5294 174.693 42.7675 172.874 40.5233 170.504C38.279 168.134 36.6133 165.277 35.6562 162.156C34.7795 159.238 34.5422 156.164 34.9604 153.146C35.3786 150.128 36.4426 147.235 38.0797 144.665C39.7169 142.095 41.8889 139.908 44.4476 138.253C47.0064 136.598 49.8917 135.514 52.9072 135.075" stroke="#181F23" stroke-width="2" stroke-linecap="round" stroke-linejoin="round"/>
<path d="M52.9062 26.4929C52.9159 20.9619 54.9238 15.6207 58.5602 11.453C62.1965 7.28538 67.2164 4.57208 72.6951 3.81292C73.7552 3.62432 74.831 3.5383 75.9075 3.55597C81.9853 3.56448 87.8111 5.9848 92.1057 10.2854C96.4002 14.586 98.8125 20.4152 98.8125 26.4929" stroke="#181F23" stroke-width="2" stroke-linecap="round" stroke-linejoin="round"/>
<path d="M35.6607 162.156C19.8875 162.156 9.96094 149.306 9.96094 133.629C9.96021 126.291 12.7813 119.233 17.8403 113.917C22.8994 108.6 29.8088 105.433 37.1384 105.07" stroke="#181F23" stroke-width="2" stroke-linecap="round" stroke-linejoin="round"/>
<path d="M10.6622 124.955C6.90525 121.423 4.1722 116.942 2.75184 111.985C1.33148 107.028 1.27654 101.78 2.59288 96.794C3.90921 91.8084 6.54793 87.271 10.2301 83.6612C13.9123 80.0514 18.5013 77.5034 23.5121 76.2864" stroke="#181F23" stroke-width="2" stroke-linecap="round" stroke-linejoin="round"/>
<path d="M10.2488 83.065C8.23253 79.71 6.92669 75.9766 6.41215 72.0963C5.89761 68.216 6.18536 64.2713 7.25752 60.5067C8.32968 56.7421 10.1634 53.2377 12.6452 50.2107C15.1269 47.1837 18.2038 44.6985 21.6852 42.9092" stroke="#181F23" stroke-width="2" stroke-linecap="round" stroke-linejoin="round"/>
<path d="M62.7062 59.0354C55.126 59.0269 47.8587 56.012 42.4987 50.652C37.1387 45.292 34.1237 38.0246 34.1152 30.4445V29.8984C34.1985 25.3302 35.3752 20.8485 37.547 16.8287C39.7188 12.809 42.8223 9.3683 46.5976 6.79485C50.3728 4.2214 54.7098 2.59013 59.2452 2.03781C63.7806 1.48549 68.3823 2.02814 72.6649 3.62032" stroke="#181F23" stroke-width="2" stroke-linecap="round" stroke-linejoin="round"/>
<path d="M44.9667 66.8741C33.3055 66.8741 21.3872 60.7705 21.3872 49.0771C21.3726 47.019 21.676 44.971 22.2867 43.0055C23.1378 40.1408 24.5893 37.4903 26.5446 35.2303C28.4999 32.9703 30.9142 31.1528 33.6267 29.8987" stroke="#181F23" stroke-width="2" stroke-linecap="round" stroke-linejoin="round"/>
<path d="M98.7129 26.4934V152.551" stroke="#181F23" stroke-width="2" stroke-linecap="round" stroke-linejoin="round"/>
<path d="M107.033 38.6543H111.606C112.711 38.6543 113.606 39.5497 113.606 40.6543V54.5887C113.606 55.559 114.304 56.3843 115.252 56.5909C120.162 57.6613 124.841 59.6004 129.069 62.3166C129.885 62.8413 130.963 62.7512 131.649 62.0649L141.506 52.2084C142.287 51.4268 143.555 51.4275 144.336 52.21L151.888 59.7788C152.666 60.559 152.667 61.8222 151.889 62.603L142.044 72.4835C141.359 73.171 141.271 74.2483 141.797 75.064C144.519 79.2881 146.459 83.968 147.523 88.8793C147.728 89.8289 148.554 90.5284 149.526 90.5284H163.457C164.562 90.5284 165.457 91.4238 165.457 92.5284V103.232C165.457 104.336 164.562 105.232 163.457 105.232H149.641C148.669 105.232 147.843 105.932 147.638 106.881C146.574 111.8 144.634 116.487 141.911 120.718C141.386 121.534 141.475 122.612 142.16 123.299L151.999 133.156C152.779 133.937 152.778 135.202 151.998 135.983L148.166 139.814L144.381 143.599C143.6 144.38 142.334 144.38 141.553 143.599L131.696 133.742C131.009 133.055 129.931 132.966 129.114 133.492C124.881 136.217 120.193 138.164 115.274 139.237C114.327 139.444 113.629 140.27 113.629 141.24V155.174C113.629 156.279 112.734 157.174 111.629 157.174H107.033" stroke="white" stroke-width="2" stroke-linecap="round" stroke-linejoin="round"/>
<path d="M107.033 72.0464C113.885 72.0464 120.456 74.7682 125.301 79.613C130.145 84.4578 132.867 91.0288 132.867 97.8803C132.867 104.732 130.145 111.303 125.301 116.148C120.456 120.993 113.885 123.714 107.033 123.714" stroke="white" stroke-width="2" stroke-linecap="round" stroke-linejoin="round"/>
<path d="M107.033 86.9785C109.778 87.1965 112.34 88.4407 114.208 90.4633C116.076 92.4858 117.114 95.1382 117.114 97.8916C117.114 100.645 116.076 103.297 114.208 105.32C112.34 107.342 109.778 108.587 107.033 108.805" stroke="white" stroke-width="2" stroke-linecap="round" stroke-linejoin="round"/>
<path d="M119.215 15.4773L111.282 19.5845C110.613 19.931 110.196 20.6243 110.202 21.3779L110.352 38.6546" stroke="white" stroke-width="2" stroke-linecap="round" stroke-linejoin="round"/>
<path d="M126.36 3.65922C127.824 3.65922 129.254 4.09311 130.47 4.90596C131.687 5.71881 132.635 6.87415 133.195 8.22587C133.755 9.57758 133.901 11.065 133.616 12.4999C133.33 13.9349 132.626 15.253 131.591 16.2876C130.557 17.3221 129.239 18.0266 127.804 18.3121C126.369 18.5975 124.881 18.451 123.53 17.8911C122.178 17.3312 121.022 16.3831 120.21 15.1666C119.397 13.9501 118.963 12.5198 118.963 11.0567C118.96 10.0844 119.149 9.1211 119.52 8.22223C119.891 7.32336 120.435 6.5067 121.123 5.81918C121.81 5.13166 122.627 4.58688 123.526 4.21619C124.425 3.8455 125.388 3.65619 126.36 3.65922Z" fill="white" stroke="white" stroke-width="2" stroke-linecap="round" stroke-linejoin="round"/>
<path d="M175.372 49.052L169.221 49.6512C168.647 49.7071 168.126 50.0077 167.79 50.4759L160.718 60.3333C160.342 60.8569 159.737 61.1674 159.093 61.1674H151.396" stroke="white" stroke-width="2" stroke-linecap="round" stroke-linejoin="round"/>
<path d="M183.409 39.5017C184.873 39.5018 186.304 39.9362 187.521 40.75C188.738 41.5639 189.687 42.7206 190.246 44.0736C190.805 45.4267 190.95 46.9153 190.663 48.3509C190.376 49.7865 189.669 51.1045 188.632 52.1381C187.595 53.1718 186.275 53.8745 184.838 54.1573C183.402 54.4402 181.914 54.2904 180.562 53.727C179.211 53.1636 178.057 52.2118 177.247 50.9923C176.437 49.7728 176.007 48.3404 176.012 46.8763C176.012 45.906 176.203 44.9451 176.575 44.0489C176.947 43.1527 177.493 42.3387 178.18 41.6536C178.867 40.9685 179.683 40.4257 180.58 40.0565C181.477 39.6872 182.439 39.4987 183.409 39.5017Z" fill="white" stroke="white" stroke-width="2" stroke-linecap="round" stroke-linejoin="round"/>
<path d="M195.298 110.019L186.213 110.287C185.588 110.305 184.99 110.031 184.598 109.545L175.299 98.0324C174.886 97.5212 174.249 97.2455 173.594 97.2948L165.502 97.9032" stroke="white" stroke-width="2" stroke-linecap="round" stroke-linejoin="round"/>
<path d="M202.423 100.583C203.885 100.583 205.314 101.016 206.53 101.828C207.746 102.64 208.695 103.794 209.255 105.144C209.816 106.494 209.963 107.981 209.68 109.415C209.396 110.849 208.694 112.168 207.662 113.203C206.63 114.238 205.314 114.945 203.88 115.233C202.447 115.521 200.96 115.378 199.608 114.821C198.256 114.265 197.099 113.32 196.283 112.107C195.468 110.893 195.03 109.465 195.025 108.003C195.022 107.03 195.212 106.065 195.582 105.165C195.952 104.265 196.497 103.447 197.184 102.758C197.871 102.068 198.688 101.521 199.587 101.148C200.486 100.775 201.45 100.583 202.423 100.583Z" fill="white" stroke="white" stroke-width="2" stroke-linecap="round" stroke-linejoin="round"/>
<path d="M148.158 139.769L148.286 159.465C148.292 160.315 148.834 161.069 149.639 161.344L160.411 165.03" stroke="white" stroke-width="2" stroke-linecap="round" stroke-linejoin="round"/>
<path d="M167.723 161.824C169.185 161.828 170.613 162.266 171.827 163.082C173.04 163.897 173.985 165.054 174.541 166.406C175.098 167.758 175.241 169.245 174.953 170.679C174.665 172.112 173.958 173.428 172.923 174.46C171.887 175.493 170.569 176.195 169.135 176.478C167.701 176.762 166.214 176.614 164.864 176.054C163.514 175.493 162.36 174.545 161.548 173.329C160.736 172.113 160.303 170.683 160.303 169.221C160.3 168.247 160.49 167.282 160.862 166.382C161.234 165.481 161.781 164.663 162.471 163.976C163.161 163.288 163.98 162.744 164.882 162.374C165.783 162.005 166.749 161.818 167.723 161.824Z" fill="white"/>
</svg>
