<svg width="269" height="190" viewBox="0 0 269 190" fill="none" xmlns="http://www.w3.org/2000/svg">
<path d="M82.985 49.6937L137.125 6.20435L174.401 35.4931L208.128 67.4445L219.666 85.1953L212.566 110.934L132.275 180.751C131.501 181.425 130.343 181.403 129.595 180.701L59.0215 114.484L67.0093 67.4445L82.985 49.6937Z" fill="white"/>
<path d="M58.4991 66.6917C58.4681 66.8897 58.4372 67.08 58.4062 67.2547C58.4604 67.0411 58.4604 66.847 58.4991 66.6917Z" fill="url(#paint0_radial)"/>
<path d="M58.4062 67.2554C58.4081 67.2876 58.4081 67.3199 58.4062 67.3521C58.4084 67.3199 58.4084 67.2876 58.4062 67.2554Z" fill="url(#paint1_radial)"/>
<path d="M58.389 67.3521C58.389 67.3914 58.389 67.4307 58.389 67.47C58.3773 67.4307 58.3851 67.3914 58.389 67.3521Z" fill="url(#paint2_radial)"/>
<path d="M58.3609 67.5576C58.3609 67.6353 58.3339 67.7129 58.3223 67.7867C58.3339 67.7091 58.3455 67.6314 58.3609 67.5576Z" fill="url(#paint3_radial)"/>
<path d="M58.5154 66.614C58.5154 66.6419 58.5154 66.6659 58.5154 66.6938C58.5154 66.7217 58.5115 66.6419 58.5154 66.614Z" fill="url(#paint4_radial)"/>
<path d="M58.316 67.8022C58.316 67.8877 58.2889 67.9731 58.2773 68.0547C58.2889 67.9692 58.3044 67.8838 58.316 67.8022Z" fill="url(#paint5_radial)"/>
<path d="M58.5372 66.4668L58.5137 66.6163C58.5215 66.5612 58.5293 66.5101 58.5372 66.4668Z" fill="url(#paint6_radial)"/>
<path d="M58.0704 69.3911L58.0469 69.5287L58.0704 69.3911Z" fill="url(#paint7_radial)"/>
<path d="M58.0051 69.7166C57.9703 69.9223 57.9471 70.0738 57.9316 70.1553C57.9432 70.0815 57.9664 69.9418 58.0051 69.7166Z" fill="url(#paint8_radial)"/>
<path d="M117.473 7.01059L68.8092 19.789C68.0007 20.0013 67.7941 21.053 68.4621 21.5554L79.607 29.9383C80.2878 30.4505 80.0574 31.525 79.2264 31.7129L56.1608 36.9289C55.7239 37.0277 55.406 37.405 55.3827 37.8523L53.7693 68.8265C53.7339 69.5076 54.3755 70.0235 55.0331 69.8427L67.3426 66.4579C67.7189 66.3545 67.9833 66.079 68.1265 65.716C71.4288 57.3449 117.146 21.0223 135.027 7.03919C136.712 5.72105 135.415 3.01699 133.326 3.48188L117.473 7.01059Z" stroke="white" stroke-width="2" stroke-miterlimit="10" stroke-linecap="round" stroke-linejoin="round"/>
<path d="M161.735 10.9672L210.694 25.7929C211.472 26.0285 211.658 27.0449 211.015 27.5416L199.878 36.1376C199.204 36.6581 199.448 37.7296 200.281 37.9073L223.397 42.8362C223.835 42.9296 224.158 43.3027 224.187 43.7496L226.194 74.7176C226.239 75.3982 225.603 75.9224 224.943 75.7497L212.596 72.5196C212.218 72.4207 211.951 72.1544 211.801 71.7934C208.312 63.403 159.36 23.891 138.907 7.62945C137.155 6.2365 138.7 3.44379 140.827 4.13869L161.735 10.9672Z" stroke="white" stroke-width="2" stroke-miterlimit="10" stroke-linecap="round" stroke-linejoin="round"/>
<path d="M58.2782 68.0549C58.2395 68.2724 58.2047 68.4937 58.1699 68.7073C58.2009 68.5092 58.2357 68.2957 58.2782 68.0549Z" fill="url(#paint9_radial)"/>
<path d="M58.1695 68.7224C58.1695 68.8234 58.1347 68.9204 58.123 69.0136L58.1695 68.7224Z" fill="url(#paint10_radial)"/>
<path d="M58.1172 69.0217C58.1172 69.0689 58.1172 69.1121 58.0977 69.1593C58.1055 69.1121 58.1133 69.0689 58.1172 69.0217Z" fill="url(#paint11_radial)"/>
<path d="M58.0313 69.5264L58.0078 69.6798L58.0313 69.5264Z" fill="url(#paint12_radial)"/>
<path d="M58.0953 69.1577C58.0953 69.2393 58.0682 69.3169 58.0566 69.3907C58.0721 69.3208 58.0721 69.2393 58.0953 69.1577Z" fill="url(#paint13_radial)"/>
<path d="M50.8198 114.405C50.8956 114.797 51.1012 115.144 51.3949 115.415L129.529 187.507C130.276 188.196 131.42 188.216 132.19 187.553L214.49 116.7C215.239 116.056 215.405 114.962 214.882 114.124L214.126 112.915C213.476 111.875 212.051 111.659 211.123 112.461L132.198 180.578C131.425 181.245 130.273 181.223 129.527 180.527L56.1682 112.097C49.222 104.212 50.3729 112.092 50.8198 114.405Z" stroke="white" stroke-width="2" stroke-miterlimit="10" stroke-linecap="round" stroke-linejoin="round"/>
<circle cx="133.888" cy="92.7163" r="6.54809" fill="#181F23"/>
<path d="M98.5197 116.772C95.3293 112.21 93.0958 107.099 91.9434 101.722" stroke="#181F23" stroke-width="2" stroke-linecap="round" stroke-linejoin="round"/>
<path d="M124.89 134.642C117.912 133.13 111.428 129.908 106.031 125.269L116.16 114.89C121.073 118.865 127.189 121.09 133.528 121.209C139.868 121.329 146.064 119.336 151.126 115.549" stroke="#181F23" stroke-width="2" stroke-linecap="round" stroke-linejoin="round"/>
<path d="M108.077 105.485C106.249 101.838 105.235 97.837 105.104 93.7595C104.974 89.682 105.731 85.6249 107.323 81.8684C108.915 78.112 111.304 74.7459 114.324 72.0027C117.345 69.2595 120.926 67.2047 124.819 65.9802" stroke="#181F23" stroke-width="2" stroke-linecap="round" stroke-linejoin="round"/>
<path d="M157.722 108.485C160.675 103.96 162.246 98.6672 162.243 93.2576H176.489C176.491 101.842 173.883 110.223 169.015 117.281C164.147 124.34 157.25 129.74 149.244 132.762" stroke="#181F23" stroke-width="2" stroke-linecap="round" stroke-linejoin="round"/>
<path d="M159.579 82.1367C157.529 76.8178 153.963 72.253 149.343 69.0359C144.723 65.8188 139.264 64.0984 133.676 64.0984V78.7067C136.908 78.7088 140.033 79.8931 142.486 82.0457C144.939 84.1984 146.56 87.1776 147.054 90.4454C147.549 93.7131 146.885 97.0541 145.182 99.865C143.48 102.676 140.852 104.771 137.772 105.773C134.691 106.775 131.363 106.617 128.386 105.328C125.41 104.039 122.982 101.704 121.541 98.7436C120.101 95.7836 119.742 92.3941 120.53 89.1872C121.318 85.9803 123.2 83.1672 125.838 81.256" stroke="#181F23" stroke-width="2" stroke-linecap="round" stroke-linejoin="round"/>
<path d="M158.635 58.4556C166.235 63.8096 171.838 71.3992 174.606 80.089" stroke="#181F23" stroke-width="2" stroke-linecap="round" stroke-linejoin="round"/>
<path d="M90.9941 93.2569C90.9979 86.3161 92.653 79.4779 95.8201 73.319C98.9871 67.1601 103.573 61.8611 109.192 57.8686C114.81 53.8762 121.296 51.3075 128.103 50.379C134.909 49.4506 141.837 50.1897 148.302 52.534" stroke="#181F23" stroke-width="2" stroke-linecap="round" stroke-linejoin="round"/>
<path d="M43.4011 69.7857C41.0805 60.4984 43.4003 62.8195 45.143 58.7565C46.2052 56.28 45.7567 53.1564 45.2446 51.0947C44.8997 49.7063 43.5715 48.4965 42.3054 49.1626C40.4637 50.1315 39.6141 53.1791 35.4305 57.9406C34.9556 58.4811 34.5939 59.109 34.3912 59.7994C33.3431 63.3699 29.8174 75.2148 27.4329 81.2173C27.1816 81.8497 28.1953 82.6857 28.7449 82.2845C33.9851 77.8579 44.386 73.7276 43.4011 69.7857Z" fill="#181F23" stroke="white" stroke-width="2" stroke-miterlimit="10" stroke-linecap="round" stroke-linejoin="round"/>
<path d="M15.0631 98.0977C14.9297 94.2832 17.073 90.7958 20.2298 88.6503C24.0079 86.0826 28.9462 82.3505 31.7898 78.6999C32.1911 78.1847 32.6053 77.6752 33.0718 77.218C38.2704 72.123 39.4129 72.2567 42.819 70.3662C45.8248 68.6979 54.126 68.606 56.6154 68.6173C57.0923 68.6195 57.5679 68.5989 58.0421 68.547L67.9442 67.464L69.1113 67.3789C72.061 67.1638 74.0909 70.2837 72.6991 72.8933L71.4549 75.2262C71.3418 75.4382 71.3931 75.7005 71.5776 75.8543L72.2886 76.4467C73.7691 77.6805 74.3424 79.6956 73.7329 81.5239C73.2585 82.9471 73.2585 84.4858 73.7329 85.9089L74.1445 87.1438C74.901 89.4131 74.7457 91.8876 73.7114 94.0445L68.206 105.526C68.0336 105.886 67.7839 106.203 67.4749 106.455L61.3369 111.464C60.9391 111.788 60.5226 112.082 60.0854 112.351C58.1554 113.54 52.4185 117.125 49.2039 119.704C46.1302 122.17 32.5502 123.237 26.9025 123.58C25.2687 123.679 23.6158 123.374 22.4457 122.23C19.8586 119.699 15.5934 113.263 15.0631 98.0977Z" fill="#181F23" stroke="white" stroke-width="2" stroke-miterlimit="10" stroke-linecap="round" stroke-linejoin="round"/>
<path d="M2.32135 97.7972C2.12212 98.8003 1.96069 99.7788 1.83077 100.734C-0.757347 119.937 10.4189 129.986 13.6098 132.433C13.9083 132.662 14.2536 132.717 14.5939 132.597C16.6107 131.887 19.7463 130.339 22.6536 128.811C23.4847 128.374 24.2922 127.94 25.0428 127.533C25.6829 127.185 26.102 126.485 26.2094 125.584C26.3171 124.679 26.0863 123.707 25.5824 123.005C22.7804 119.1 20.3432 113.239 18.3838 107.453C16.4163 101.643 14.8996 95.8142 13.9662 91.9122C13.6142 90.4407 11.847 89.8209 10.6741 90.732L3.03123 96.6687C2.65969 96.9573 2.40853 97.3582 2.32135 97.7972Z" fill="#181F23" stroke="white" stroke-width="2" stroke-linecap="round" stroke-linejoin="round"/>
<path d="M44.4375 81.5474C44.4375 81.5474 59.8154 80.3169 62.1079 80.2345C64.4004 80.1521 66.2708 76.9217 67.4735 76.5066L71.2626 75.5899" stroke="white" stroke-width="2" stroke-linecap="round" stroke-linejoin="round"/>
<path d="M52.4023 94.3218C52.4023 94.3218 58.0574 92.7372 63.4359 91.7845C68.8143 90.8318 69.9382 91.0188 70.913 89.8156C71.8878 88.6125 73.5883 85.4251 73.5883 85.4251" stroke="white" stroke-width="2" stroke-linecap="round" stroke-linejoin="round"/>
<path d="M60.998 104.873C60.998 104.873 69.4684 98.4463 70.7022 97.8828C71.3838 97.6057 71.9574 97.1154 72.3375 96.4854" stroke="white" stroke-width="2" stroke-linecap="round" stroke-linejoin="round"/>
<path d="M38.91 86.0378C38.91 86.0378 37.6468 89.0488 38.7528 89.7381C39.5276 90.2074 40.3391 90.6132 41.1793 90.9513" stroke="white" stroke-width="2" stroke-linecap="round" stroke-linejoin="round"/>
<path d="M48.2908 98.8074C48.2908 98.8074 46.7948 101.111 47.6543 102.366C48.2048 103.144 48.9576 103.758 49.8314 104.141" stroke="white" stroke-width="2" stroke-linecap="round" stroke-linejoin="round"/>
<path d="M225.661 73.2081C227.982 63.9208 225.662 66.2419 223.92 62.1789C222.857 59.7024 223.306 56.5788 223.818 54.517C224.163 53.1286 225.491 51.9189 226.757 52.585C228.599 53.5539 229.448 56.6015 233.632 61.363C234.107 61.9035 234.469 62.5313 234.671 63.2217C235.719 66.7923 239.245 78.6371 241.63 84.6397C241.881 85.2721 240.867 86.108 240.318 85.7068C235.077 81.2802 224.676 77.15 225.661 73.2081Z" fill="#181F23" stroke="white" stroke-width="2" stroke-miterlimit="10" stroke-linecap="round" stroke-linejoin="round"/>
<path d="M253.999 101.52C254.133 97.7053 251.99 94.2179 248.833 92.0724C245.055 89.5047 240.116 85.7726 237.273 82.122C236.871 81.6068 236.457 81.0973 235.991 80.6401C230.792 75.5451 229.65 75.6788 226.244 73.7883C223.238 72.12 214.937 72.0281 212.447 72.0394C211.97 72.0416 211.495 72.021 211.02 71.9691L201.118 70.8861L199.951 70.801C197.002 70.5859 194.972 73.7058 196.363 76.3154L197.608 78.6484C197.721 78.8603 197.669 79.1226 197.485 79.2764L196.774 79.8689C195.293 81.1027 194.72 83.1177 195.33 84.946C195.804 86.3692 195.804 87.9079 195.33 89.3311L194.918 90.5659C194.162 92.8352 194.317 95.3097 195.351 97.4666L200.856 108.948C201.029 109.308 201.279 109.625 201.588 109.877L207.726 114.886C208.123 115.21 208.54 115.504 208.977 115.773C210.907 116.962 216.644 120.547 219.859 123.126C222.932 125.592 236.512 126.659 242.16 127.002C243.794 127.101 245.447 126.796 246.617 125.652C249.204 123.121 253.469 116.685 253.999 101.52Z" fill="#181F23" stroke="white" stroke-width="2" stroke-miterlimit="10" stroke-linecap="round" stroke-linejoin="round"/>
<path d="M266.741 101.219C266.94 102.222 267.102 103.2 267.232 104.156C269.82 123.358 258.644 133.407 255.453 135.855C255.154 136.084 254.809 136.138 254.469 136.019C252.452 135.308 249.316 133.761 246.409 132.233C245.578 131.795 244.77 131.362 244.02 130.954C243.38 130.606 242.96 129.906 242.853 129.005C242.745 128.1 242.976 127.129 243.48 126.426C246.282 122.522 248.719 116.66 250.679 110.875C252.646 105.065 254.163 99.2358 255.096 95.3338C255.448 93.8623 257.216 93.2426 258.388 94.1536L266.031 100.09C266.403 100.379 266.654 100.78 266.741 101.219Z" fill="#181F23" stroke="white" stroke-width="2" stroke-linecap="round" stroke-linejoin="round"/>
<path d="M224.625 84.9695C224.625 84.9695 209.247 83.739 206.955 83.6566C204.662 83.5743 202.792 80.3439 201.589 79.9287L197.8 79.012" stroke="white" stroke-width="2" stroke-linecap="round" stroke-linejoin="round"/>
<path d="M216.66 97.7439C216.66 97.7439 211.005 96.1593 205.627 95.2066C200.248 94.2539 199.124 94.4409 198.15 93.2378C197.175 92.0346 195.474 88.8473 195.474 88.8473" stroke="white" stroke-width="2" stroke-linecap="round" stroke-linejoin="round"/>
<path d="M209.229 110.617C209.229 110.617 200.758 104.19 199.524 103.627C198.843 103.35 198.269 102.86 197.889 102.23" stroke="white" stroke-width="2" stroke-linecap="round" stroke-linejoin="round"/>
<path d="M230.153 89.46C230.153 89.46 231.416 92.4709 230.31 93.1602C229.535 93.6295 228.723 94.0353 227.883 94.3734" stroke="white" stroke-width="2" stroke-linecap="round" stroke-linejoin="round"/>
<path d="M220.772 102.23C220.772 102.23 222.268 104.533 221.408 105.788C220.858 106.567 220.105 107.18 219.231 107.563" stroke="white" stroke-width="2" stroke-linecap="round" stroke-linejoin="round"/>
<defs>
<radialGradient id="paint0_radial" cx="0" cy="0" r="1" gradientUnits="userSpaceOnUse" gradientTransform="translate(58.4527 66.9751) scale(0.201114 0.20192)">
<stop stop-color="white"/>
<stop offset="0.76" stop-color="#EFEFF0"/>
<stop offset="1" stop-color="#E9E9EA"/>
</radialGradient>
<radialGradient id="paint1_radial" cx="0" cy="0" r="1" gradientUnits="userSpaceOnUse" gradientTransform="translate(58.7416 96.4961) scale(0.00014521 0.00870403)">
<stop stop-color="white"/>
<stop offset="0.76" stop-color="#EFEFF0"/>
<stop offset="1" stop-color="#E9E9EA"/>
</radialGradient>
<radialGradient id="paint2_radial" cx="0" cy="0" r="1" gradientUnits="userSpaceOnUse" gradientTransform="translate(59.6687 103.045) scale(0.00068071 0.0129739)">
<stop stop-color="white"/>
<stop offset="0.76" stop-color="#EFEFF0"/>
<stop offset="1" stop-color="#E9E9EA"/>
</radialGradient>
<radialGradient id="paint3_radial" cx="0" cy="0" r="1" gradientUnits="userSpaceOnUse" gradientTransform="translate(66.3539 137.045) scale(0.00812098 0.0481116)">
<stop stop-color="white"/>
<stop offset="0.76" stop-color="#EFEFF0"/>
<stop offset="1" stop-color="#E9E9EA"/>
</radialGradient>
<radialGradient id="paint4_radial" cx="0" cy="0" r="1" gradientUnits="userSpaceOnUse" gradientTransform="translate(58.882 92.3496) scale(0.000123902 0.0059916)">
<stop stop-color="white"/>
<stop offset="0.76" stop-color="#EFEFF0"/>
<stop offset="1" stop-color="#E9E9EA"/>
</radialGradient>
<radialGradient id="paint5_radial" cx="0" cy="0" r="1" gradientUnits="userSpaceOnUse" gradientTransform="translate(66.3061 144.528) scale(0.00889597 0.058059)">
<stop stop-color="white"/>
<stop offset="0.76" stop-color="#EFEFF0"/>
<stop offset="1" stop-color="#E9E9EA"/>
</radialGradient>
<radialGradient id="paint6_radial" cx="0" cy="0" r="1" gradientUnits="userSpaceOnUse" gradientTransform="translate(63.4072 111.373) scale(0.00329102 0.0209299)">
<stop stop-color="white"/>
<stop offset="0.76" stop-color="#EFEFF0"/>
<stop offset="1" stop-color="#E9E9EA"/>
</radialGradient>
<radialGradient id="paint7_radial" cx="0" cy="0" r="1" gradientUnits="userSpaceOnUse" gradientTransform="translate(62.907 111.759) scale(0.00281842 0.0165127)">
<stop stop-color="white"/>
<stop offset="0.76" stop-color="#EFEFF0"/>
<stop offset="1" stop-color="#E9E9EA"/>
</radialGradient>
<radialGradient id="paint8_radial" cx="0" cy="0" r="1" gradientUnits="userSpaceOnUse" gradientTransform="translate(73.12 205.348) scale(0.0293878 0.175506)">
<stop stop-color="white"/>
<stop offset="0.76" stop-color="#EFEFF0"/>
<stop offset="1" stop-color="#E9E9EA"/>
</radialGradient>
<radialGradient id="paint9_radial" cx="0" cy="0" r="1" gradientUnits="userSpaceOnUse" gradientTransform="translate(80.6235 267.095) scale(0.0649606 0.391401)">
<stop stop-color="white"/>
<stop offset="0.76" stop-color="#EFEFF0"/>
<stop offset="1" stop-color="#E9E9EA"/>
</radialGradient>
<radialGradient id="paint10_radial" cx="0" cy="0" r="1" gradientUnits="userSpaceOnUse" gradientTransform="translate(67.7389 157.929) scale(0.012531 0.0786267)">
<stop stop-color="white"/>
<stop offset="0.76" stop-color="#EFEFF0"/>
<stop offset="1" stop-color="#E9E9EA"/>
</radialGradient>
<radialGradient id="paint11_radial" cx="0" cy="0" r="1" gradientUnits="userSpaceOnUse" gradientTransform="translate(62.1523 111.25) scale(0.0023495 0.0165094)">
<stop stop-color="white"/>
<stop offset="0.76" stop-color="#EFEFF0"/>
<stop offset="1" stop-color="#E9E9EA"/>
</radialGradient>
<radialGradient id="paint12_radial" cx="0" cy="0" r="1" gradientUnits="userSpaceOnUse" gradientTransform="translate(62.875 116.824) scale(0.00329388 0.0214807)">
<stop stop-color="white"/>
<stop offset="0.76" stop-color="#EFEFF0"/>
<stop offset="1" stop-color="#E9E9EA"/>
</radialGradient>
<radialGradient id="paint13_radial" cx="0" cy="0" r="1" gradientUnits="userSpaceOnUse" gradientTransform="translate(66.0648 140.788) scale(0.00851068 0.0512607)">
<stop stop-color="white"/>
<stop offset="0.76" stop-color="#EFEFF0"/>
<stop offset="1" stop-color="#E9E9EA"/>
</radialGradient>
</defs>
</svg>
