<svg width="283" height="190" viewBox="0 0 283 190" fill="none" xmlns="http://www.w3.org/2000/svg">
<path d="M118.99 77.3043C120.177 76.1177 106.037 77.0077 99.5103 76.3155C92.06 75.4284 84.6882 73.9739 77.4593 71.9646C71.3286 70.1847 69.4498 71.0747 69.4498 71.0747L69.2283 70.8018C69.3588 70.6475 69.4498 70.5288 69.4498 70.5288C69.4498 70.5288 71.3286 71.4188 77.4593 69.6389C84.6882 67.6297 92.06 66.1752 99.5103 65.288C106.037 64.5959 120.177 65.4858 118.99 64.2992C118.99 64.2992 98.8181 63.4093 90.3141 64.8925C81.8102 66.3757 72.7129 68.3534 67.7688 69.0456C63.8134 69.5993 58.7981 69.5835 56.9391 69.5558C56.8425 69.5543 56.7466 69.5719 56.6569 69.6078C56.5672 69.6437 56.4856 69.697 56.4168 69.7648C56.3479 69.8325 56.2932 69.9133 56.2559 70.0023C56.2186 70.0914 56.1994 70.187 56.1994 70.2836L56.1994 71.3199C56.1994 71.4165 56.2186 71.5121 56.2559 71.6012C56.2932 71.6903 56.3479 71.771 56.4168 71.8388C56.4856 71.9065 56.5672 71.9599 56.6569 71.9957C56.7466 72.0316 56.8425 72.0493 56.9391 72.0477C58.7981 72.02 63.8213 72.0081 67.7688 72.5579C72.7129 73.2501 81.8102 75.2278 90.3141 76.711C98.8181 78.1943 118.99 77.3043 118.99 77.3043Z" fill="white"/>
<path d="M38.1084 186.119C38.1084 186.119 47.1385 153.892 49.0184 149.923C50.8982 145.953 60.9271 139.6 62.7818 130.864C64.6365 122.127 67.0199 118.418 69.1348 111.796C71.2496 105.175 73.1127 105.175 69.932 99.619C66.7513 94.0633 66.2226 90.6141 68.3459 87.1732C70.4691 83.7324 81.3204 79.2341 79.9944 76.5821C78.6684 73.9301 77.3424 73.1413 76.285 73.1413L75.2276 73.1413C75.2276 73.1413 77.611 64.4049 76.285 61.2242C74.959 58.0435 71.7867 55.9286 70.7293 57.5232C69.6718 59.1177 67.8171 61.4927 67.8171 61.4927C67.8171 61.4927 69.932 57.2546 67.2884 56.7259C64.6449 56.1972 64.1077 56.986 60.1382 58.8408C56.1686 60.6955 47.1637 62.5502 47.1637 62.5502C47.1637 62.5502 36.5726 58.354 33.1317 57.2546C29.6909 56.1552 25.4527 57.5232 25.4527 57.5232C25.4527 57.5232 14.0644 53.0165 12.2097 56.6839C10.355 60.3514 9.03736 75.7429 8.24009 78.655C7.44282 81.5672 4.79924 83.9506 5.32796 88.4573C5.85668 92.9639 7.18266 95.6075 7.45122 97.4538C7.71977 99.3001 14.5931 132.937 14.5931 140.347C14.5931 147.757 1.62695 184.826 1.62695 184.826" fill="#181F23"/>
<path d="M38.1084 186.119C38.1084 186.119 47.1385 153.892 49.0184 149.923C50.8982 145.953 60.9271 139.6 62.7818 130.864C64.6365 122.127 67.0199 118.418 69.1347 111.796C71.2496 105.175 73.1127 105.175 69.932 99.619C66.7513 94.0633 66.2226 90.6141 68.3459 87.1732C70.4691 83.7324 81.3204 79.2341 79.9944 76.5821C78.6684 73.9301 77.3424 73.1413 76.285 73.1413L75.2276 73.1413C75.2276 73.1413 77.611 64.4049 76.285 61.2242C74.959 58.0435 71.7867 55.9286 70.7293 57.5232C69.6718 59.1177 67.8171 61.4927 67.8171 61.4927C67.8171 61.4927 69.932 57.2546 67.2884 56.7259C64.6449 56.1972 64.1077 56.986 60.1382 58.8408C56.1686 60.6955 47.1637 62.5502 47.1637 62.5502C47.1637 62.5502 36.5726 58.354 33.1317 57.2546C29.6909 56.1552 25.4527 57.5232 25.4527 57.5232C25.4527 57.5232 14.0644 53.0165 12.2097 56.6839C10.355 60.3514 9.03736 75.7429 8.24009 78.655C7.44282 81.5672 4.79924 83.9506 5.32796 88.4573C5.85668 92.9639 7.18266 95.6075 7.45122 97.4538C7.71977 99.3001 14.5931 132.937 14.5931 140.347C14.5931 147.757 1.62695 184.826 1.62695 184.826" stroke="white" stroke-width="2" stroke-linecap="round" stroke-linejoin="round"/>
<path d="M49.5273 119.769C49.5273 119.769 53.7235 102.028 56.1489 95.9349C58.5743 89.842 60.9073 83.4891 63.5593 81.1056C66.2113 78.7222 74.1504 74.4925 75.2078 73.1665" stroke="white" stroke-width="2" stroke-linecap="round" stroke-linejoin="round"/>
<path d="M31.2559 99.905C31.2559 99.905 48.1999 75.5673 50.5582 71.8411C52.9164 68.1149 60.0919 68.1401 61.9466 66.5456L67.7708 61.5102" stroke="white" stroke-width="2" stroke-linecap="round" stroke-linejoin="round"/>
<path d="M15.123 93.0232C15.123 93.0232 22.2733 84.2868 28.0976 75.5504C33.9218 66.814 34.459 64.6907 37.3291 63.9018C40.1993 63.113 47.123 62.5758 47.123 62.5758" stroke="white" stroke-width="2" stroke-linecap="round" stroke-linejoin="round"/>
<path d="M9.54102 79.5364C9.54102 79.5364 21.7183 63.121 22.7757 60.7376C23.2943 59.4217 24.2246 58.3089 25.4277 57.5653" stroke="white" stroke-width="2" stroke-linecap="round" stroke-linejoin="round"/>
<path d="M30.9852 116.857C30.9852 116.857 25.4294 113.937 26.2267 111.562C26.8017 109.918 27.509 108.324 28.3416 106.795" stroke="white" stroke-width="2" stroke-linecap="round" stroke-linejoin="round"/>
<path d="M16.1671 107.852C16.1671 107.852 11.1317 106.266 10.8716 103.354C10.7354 101.525 11.101 99.6942 11.929 98.0582" stroke="white" stroke-width="2" stroke-linecap="round" stroke-linejoin="round"/>
<path d="M38.1084 186.119C38.1084 186.119 47.1385 153.892 49.0184 149.923C50.8982 145.953 60.9271 139.6 62.7818 130.864C64.6365 122.127 67.0199 118.418 69.1348 111.796C71.2496 105.175 73.1127 105.175 69.932 99.619C66.7513 94.0633 66.2226 90.6141 68.3459 87.1732C70.4691 83.7324 81.3204 79.2341 79.9944 76.5821C78.6684 73.9301 77.3424 73.1413 76.285 73.1413L75.2276 73.1413C75.2276 73.1413 77.611 64.4049 76.285 61.2242C74.959 58.0435 71.7867 55.9286 70.7293 57.5232C69.6718 59.1177 67.8171 61.4927 67.8171 61.4927C67.8171 61.4927 69.932 57.2546 67.2884 56.7259C64.6449 56.1972 64.1077 56.986 60.1382 58.8408C56.1686 60.6955 47.1637 62.5502 47.1637 62.5502C47.1637 62.5502 36.5726 58.354 33.1317 57.2546C29.6909 56.1552 25.4527 57.5232 25.4527 57.5232C25.4527 57.5232 14.0644 53.0165 12.2097 56.6839C10.355 60.3514 9.03736 75.7429 8.24009 78.655C7.44282 81.5672 4.79924 83.9506 5.32796 88.4573C5.85668 92.9639 7.18266 95.6075 7.45122 97.4538C7.71977 99.3001 14.5931 132.937 14.5931 140.347C14.5931 147.757 1.62695 184.826 1.62695 184.826" fill="#181F23"/>
<path d="M38.1084 186.119C38.1084 186.119 47.1385 153.892 49.0184 149.923C50.8982 145.953 60.9271 139.6 62.7818 130.864C64.6365 122.127 67.0199 118.418 69.1347 111.796C71.2496 105.175 73.1127 105.175 69.932 99.619C66.7513 94.0633 66.2226 90.6141 68.3459 87.1732C70.4691 83.7324 81.3204 79.2341 79.9944 76.5821C78.6684 73.9301 77.3424 73.1413 76.285 73.1413L75.2276 73.1413C75.2276 73.1413 77.611 64.4049 76.285 61.2242C74.959 58.0435 71.7867 55.9286 70.7293 57.5232C69.6718 59.1177 67.8171 61.4927 67.8171 61.4927C67.8171 61.4927 69.932 57.2546 67.2884 56.7259C64.6449 56.1972 64.1077 56.986 60.1382 58.8408C56.1686 60.6955 47.1637 62.5502 47.1637 62.5502C47.1637 62.5502 36.5726 58.354 33.1317 57.2546C29.6909 56.1552 25.4527 57.5232 25.4527 57.5232C25.4527 57.5232 14.0644 53.0165 12.2097 56.6839C10.355 60.3514 9.03736 75.7429 8.24009 78.655C7.44282 81.5672 4.79924 83.9506 5.32796 88.4573C5.85668 92.9639 7.18266 95.6075 7.45122 97.4538C7.71977 99.3001 14.5931 132.937 14.5931 140.347C14.5931 147.757 1.62695 184.826 1.62695 184.826" stroke="white" stroke-width="2" stroke-linecap="round" stroke-linejoin="round"/>
<path d="M49.5273 119.769C49.5273 119.769 53.7235 102.028 56.1489 95.9349C58.5743 89.842 60.9073 83.4891 63.5593 81.1056C66.2113 78.7222 74.1504 74.4925 75.2078 73.1665" stroke="white" stroke-width="2" stroke-linecap="round" stroke-linejoin="round"/>
<path d="M31.2559 99.905C31.2559 99.905 48.1999 75.5673 50.5582 71.8411C52.9164 68.1149 60.0919 68.1401 61.9466 66.5456L67.7708 61.5102" stroke="white" stroke-width="2" stroke-linecap="round" stroke-linejoin="round"/>
<path d="M15.123 93.0232C15.123 93.0232 22.2733 84.2868 28.0976 75.5504C33.9218 66.814 34.459 64.6907 37.3291 63.9018C40.1993 63.113 47.123 62.5758 47.123 62.5758" stroke="white" stroke-width="2" stroke-linecap="round" stroke-linejoin="round"/>
<path d="M9.54102 79.5364C9.54102 79.5364 21.7183 63.121 22.7757 60.7376C23.2943 59.4217 24.2246 58.3089 25.4277 57.5653" stroke="white" stroke-width="2" stroke-linecap="round" stroke-linejoin="round"/>
<path d="M30.9852 116.857C30.9852 116.857 25.4294 113.937 26.2267 111.562C26.8017 109.918 27.509 108.324 28.3416 106.795" stroke="white" stroke-width="2" stroke-linecap="round" stroke-linejoin="round"/>
<path d="M16.1671 107.852C16.1671 107.852 11.1317 106.266 10.8716 103.354C10.7354 101.525 11.101 99.6942 11.929 98.0582" stroke="white" stroke-width="2" stroke-linecap="round" stroke-linejoin="round"/>
<path d="M195.428 32.9562L195.428 109.338C195.411 113.009 193.944 116.525 191.346 119.119C188.748 121.713 185.231 123.174 181.559 123.185C179.807 123.184 178.071 122.843 176.448 122.18C174.789 123.259 172.901 123.937 170.935 124.158C168.968 124.38 166.977 124.139 165.12 123.456C163.262 122.772 161.59 121.665 160.236 120.221C158.882 118.778 157.884 117.038 157.321 115.141C147.768 115.141 141.735 107.452 141.735 97.9204C141.736 95.8915 142.09 93.8783 142.782 91.9708L142.091 92.6202C140.376 91.0062 139.01 89.0585 138.076 86.8969C137.142 84.7352 136.66 82.4053 136.66 80.0506C136.66 77.6958 137.142 75.3659 138.076 73.2043C139.01 71.0426 140.376 69.0949 142.091 67.4809L141.944 67.3343C140.329 64.6536 139.482 61.5811 139.493 58.4517C139.489 55.2726 140.36 52.1538 142.012 49.4375C143.664 46.7213 146.033 44.5125 148.857 43.0538L149.234 43.0538C149.75 41.33 150.623 39.7341 151.796 38.3697C152.969 37.0054 154.416 35.9032 156.043 35.1349L156.399 35.1349C156.452 32.3774 157.164 29.6726 158.475 27.2464C159.787 24.8202 161.66 22.7431 163.939 21.1887C166.217 19.6343 168.834 18.6477 171.571 18.3114C174.309 17.975 177.087 18.2987 179.674 19.2553C180.29 19.1545 180.914 19.1054 181.538 19.1086C185.21 19.1306 188.725 20.5988 191.321 23.1949C193.917 25.7911 195.385 29.3058 195.407 32.9772L195.428 32.9562Z" fill="white"/>
<path d="M195.225 109.224C195.209 112.896 193.742 116.411 191.144 119.005C188.546 121.599 185.028 123.061 181.357 123.072C179.604 123.071 177.868 122.729 176.245 122.067C174.587 123.146 172.699 123.823 170.732 124.045C168.766 124.266 166.774 124.026 164.917 123.342C163.06 122.659 161.388 121.551 160.034 120.108C158.68 118.664 157.682 116.925 157.118 115.027C156.739 113.828 156.548 112.577 156.553 111.319C156.568 108.255 157.686 105.299 159.701 102.991C161.717 100.683 164.496 99.1774 167.53 98.7498" stroke="#181F23" stroke-width="2" stroke-linecap="round" stroke-linejoin="round"/>
<path d="M167.551 32.9055C167.558 29.5646 168.769 26.3381 170.962 23.8178C173.156 21.2975 176.184 19.6523 179.492 19.1836C180.108 19.0828 180.732 19.0338 181.356 19.037C185.028 19.059 188.542 20.5272 191.139 23.1233C193.735 25.7194 195.203 29.2342 195.225 32.9055" stroke="#181F23" stroke-width="2" stroke-linecap="round" stroke-linejoin="round"/>
<path d="M157.12 114.922C147.567 114.922 141.533 107.234 141.533 97.702C141.535 95.673 141.889 93.6598 142.581 91.7523C143.799 88.4251 146.009 85.5521 148.913 83.5215C151.816 81.4908 155.273 80.4005 158.816 80.3977" stroke="#181F23" stroke-width="2" stroke-linecap="round" stroke-linejoin="round"/>
<path d="M141.927 92.4653C139.41 90.0902 137.664 87.0142 136.915 83.6357C136.167 80.2572 136.449 76.7317 137.727 73.5156C139.004 70.2995 141.217 67.5409 144.08 65.597C146.943 63.6531 150.324 62.6133 153.784 62.6123" stroke="#181F23" stroke-width="2" stroke-linecap="round" stroke-linejoin="round"/>
<path d="M141.742 67.1161C140.128 64.4354 139.28 61.3629 139.291 58.2335C139.287 55.0544 140.159 51.9356 141.811 49.2193C143.463 46.5031 145.831 44.2944 148.656 42.8357" stroke="#181F23" stroke-width="2" stroke-linecap="round" stroke-linejoin="round"/>
<path d="M173.437 52.6605C168.857 52.6494 164.468 50.8207 161.235 47.5762C158.002 44.3316 156.19 39.9365 156.195 35.3563L156.195 35.042C156.245 32.2827 156.954 29.5754 158.265 27.1465C159.575 24.7176 161.448 22.6377 163.726 21.0809C166.005 19.5242 168.624 18.5357 171.363 18.1983C174.102 17.8608 176.882 18.1843 179.47 19.1414" stroke="#181F23" stroke-width="2" stroke-linecap="round" stroke-linejoin="round"/>
<path d="M161.239 59.3652C157.854 59.3596 154.609 58.0108 152.217 55.6148C149.825 53.2189 148.481 49.9716 148.481 46.586C148.467 45.3359 148.651 44.0913 149.026 42.8989C149.542 41.1751 150.414 39.5791 151.587 38.2148C152.76 36.8504 154.208 35.7483 155.835 34.98" stroke="#181F23" stroke-width="2" stroke-linecap="round" stroke-linejoin="round"/>
<path d="M195.225 32.9053L195.225 109.119" stroke="#181F23" stroke-width="2" stroke-linecap="round" stroke-linejoin="round"/>
<path d="M189.422 14.6541L189.422 26.143" stroke="white" stroke-width="2" stroke-linecap="round" stroke-linejoin="round"/>
<path d="M189.021 7.11725C189.759 7.1131 190.482 7.32826 191.098 7.73548C191.714 8.14269 192.195 8.72362 192.481 9.40463C192.766 10.0856 192.843 10.8361 192.701 11.5608C192.56 12.2856 192.206 12.9519 191.686 13.4755C191.165 13.9991 190.501 14.3564 189.777 14.502C189.053 14.6476 188.302 14.575 187.619 14.2934C186.937 14.0118 186.353 13.5338 185.942 12.9201C185.532 12.3064 185.313 11.5847 185.312 10.8462C185.312 9.86087 185.703 8.91555 186.397 8.21682C187.092 7.5181 188.035 7.12278 189.021 7.11725Z" fill="white" stroke="white" stroke-width="2" stroke-linecap="round" stroke-linejoin="round"/>
<path d="M142.525 54.2626L141.918 43.0127L136.094 36.7698" stroke="white" stroke-width="2" stroke-linecap="round" stroke-linejoin="round"/>
<path d="M132.8 29.9827C132.061 29.9744 131.336 30.186 130.717 30.5907C130.098 30.9953 129.614 31.5748 129.325 32.2554C129.037 32.936 128.957 33.687 129.096 34.4131C129.235 35.1392 129.587 35.8076 130.107 36.3333C130.626 36.8591 131.291 37.2183 132.015 37.3657C132.74 37.513 133.492 37.4416 134.175 37.1606C134.859 36.8797 135.444 36.4018 135.856 35.7877C136.267 35.1736 136.487 34.451 136.487 33.7117C136.49 33.2247 136.397 32.742 136.213 32.2911C136.029 31.8401 135.758 31.4298 135.416 31.0835C135.074 30.7372 134.666 30.4619 134.218 30.273C133.769 30.0841 133.287 29.9854 132.8 29.9827Z" fill="white" stroke="white" stroke-width="2" stroke-linecap="round" stroke-linejoin="round"/>
<path d="M161.966 26.2234L161.966 14.1774L156.436 8.24878" stroke="white" stroke-width="2" stroke-linecap="round" stroke-linejoin="round"/>
<path d="M154.255 1.52399C153.522 1.52399 152.805 1.74142 152.195 2.14886C151.585 2.55631 151.11 3.13547 150.829 3.81303C150.549 4.49059 150.475 5.23612 150.618 5.95541C150.761 6.6747 151.114 7.33544 151.633 7.85402C152.151 8.3726 152.812 8.72575 153.532 8.86882C154.251 9.0119 154.996 8.93843 155.674 8.65778C156.352 8.37713 156.931 7.9019 157.338 7.29212C157.746 6.68233 157.963 5.9654 157.963 5.23201C157.966 4.74429 157.872 4.26084 157.686 3.80971C157.501 3.35857 157.228 2.94869 156.883 2.60381C156.538 2.25893 156.128 1.98592 155.677 1.80056C155.226 1.6152 154.743 1.52121 154.255 1.52399Z" fill="white" stroke="white" stroke-width="2" stroke-linecap="round" stroke-linejoin="round"/>
<path d="M139.114 76.9661L135.134 65.6325L128.053 60.877" stroke="white" stroke-width="2" stroke-linecap="round" stroke-linejoin="round"/>
<path d="M123.568 56.4568C123.092 56.5652 122.642 56.7671 122.244 57.0509C121.847 57.3346 121.509 57.6945 121.252 58.1097C120.995 58.5248 120.823 58.987 120.746 59.4693C120.668 59.9515 120.688 60.4443 120.803 60.919C121.032 61.8806 121.631 62.7128 122.471 63.2346C123.311 63.7564 124.322 63.9255 125.286 63.7053C125.962 63.5341 126.579 63.1794 127.066 62.6804C127.554 62.1814 127.895 61.5574 128.051 60.8771C128.177 60.3397 128.177 59.7805 128.051 59.2431C127.94 58.7655 127.736 58.3146 127.451 57.916C127.165 57.5174 126.804 57.179 126.387 56.9202C125.971 56.6614 125.508 56.4873 125.024 56.4078C124.54 56.3283 124.045 56.3449 123.568 56.4568Z" fill="white" stroke="white" stroke-width="2" stroke-linecap="round" stroke-linejoin="round"/>
<path d="M143.947 102.084L136.971 92.9497L128.633 91.0852" stroke="white" stroke-width="2" stroke-linecap="round" stroke-linejoin="round"/>
<path d="M123.016 86.8531C122.612 87.1282 122.268 87.48 122 87.8884C121.733 88.2968 121.549 88.7538 121.459 89.2333C121.368 89.7129 121.373 90.2055 121.473 90.6831C121.573 91.1608 121.766 91.6141 122.041 92.0171C122.316 92.4201 122.668 92.765 123.077 93.0321C123.485 93.2992 123.942 93.4832 124.422 93.5737C124.901 93.6641 125.394 93.6593 125.871 93.5593C126.349 93.4594 126.802 93.2664 127.205 92.9912C128.014 92.424 128.569 91.5637 128.753 90.5934C128.937 89.6232 128.735 88.6195 128.19 87.7958C127.624 86.9912 126.764 86.4414 125.796 86.2651C124.828 86.0887 123.829 86.2999 123.016 86.8531Z" fill="white" stroke="white" stroke-width="2" stroke-linecap="round" stroke-linejoin="round"/>
<path d="M178.198 48.8687C177.369 48.8687 176.559 49.1144 175.87 49.5748C175.181 50.0352 174.644 50.6895 174.327 51.4551C174.01 52.2207 173.927 53.0632 174.088 53.8759C174.25 54.6887 174.649 55.4353 175.235 56.0212C175.821 56.6072 176.568 57.0063 177.38 57.1679C178.193 57.3296 179.035 57.2466 179.801 56.9295C180.567 56.6124 181.221 56.0754 181.681 55.3863C182.142 54.6973 182.388 53.8872 182.388 53.0585C182.388 51.9473 181.946 50.8816 181.16 50.0958C180.375 49.3101 179.309 48.8687 178.198 48.8687Z" fill="#181F23" stroke="#181F23" stroke-width="2" stroke-linecap="round" stroke-linejoin="round"/>
<path d="M171.217 92.7159C170.38 92.6952 169.556 92.9259 168.851 93.3782C168.146 93.8305 167.593 94.4837 167.263 95.2534C166.933 96.0232 166.841 96.8742 166.999 97.6965C167.158 98.5189 167.559 99.275 168.151 99.8672C168.743 100.459 169.499 100.861 170.322 101.019C171.144 101.177 171.995 101.085 172.765 100.755C173.535 100.425 174.188 99.8722 174.64 99.1673C175.092 98.4625 175.323 97.6383 175.302 96.801C175.276 95.726 174.837 94.7022 174.076 93.9418C173.316 93.1814 172.292 92.7424 171.217 92.7159Z" stroke="#181F23" stroke-width="2" stroke-linecap="round" stroke-linejoin="round"/>
<path d="M185.785 128.029L185.785 120.215" stroke="white" stroke-width="2" stroke-linecap="round" stroke-linejoin="round"/>
<path d="M185.529 135.466C186.266 135.462 186.985 135.24 187.595 134.828C188.206 134.416 188.68 133.832 188.96 133.15C189.239 132.468 189.309 131.719 189.163 130.997C189.017 130.275 188.66 129.613 188.138 129.093C187.615 128.574 186.951 128.221 186.228 128.079C185.505 127.936 184.757 128.012 184.076 128.294C183.396 128.577 182.815 129.055 182.406 129.668C181.998 130.281 181.779 131.001 181.779 131.737C181.777 132.23 181.872 132.718 182.06 133.173C182.247 133.628 182.524 134.041 182.873 134.388C183.222 134.735 183.636 135.009 184.093 135.194C184.549 135.38 185.037 135.472 185.529 135.466Z" fill="white" stroke="white" stroke-width="2" stroke-linecap="round" stroke-linejoin="round"/>
<path d="M248.696 71.3118C248.696 71.3118 244.727 67.8709 243.141 63.9013C241.555 59.9318 241.815 55.9538 237.845 54.6698C233.876 53.3858 231.492 54.6698 231.492 54.6698C231.492 54.6698 234.664 62.6089 236.528 65.2609C238.391 67.9129 248.696 71.3118 248.696 71.3118Z" fill="#181F23"/>
<path d="M248.696 71.3118C248.696 71.3118 244.727 67.8709 243.141 63.9013C241.555 59.9318 241.815 55.9538 237.845 54.6698C233.876 53.3858 231.492 54.6698 231.492 54.6698C231.492 54.6698 234.664 62.6089 236.528 65.2609C238.391 67.9129 248.696 71.3118 248.696 71.3118Z" stroke="white" stroke-width="2" stroke-linecap="round" stroke-linejoin="round"/>
<path d="M239.064 188.166C239.064 188.166 229.111 162.394 225.141 155.243C221.171 148.093 216.136 146.012 210.312 143.595C204.488 141.178 188.072 130.889 186.478 126.911C184.883 122.933 183.037 111.024 181.442 107.055C179.848 103.085 176.675 100.97 171.909 99.6443C167.142 98.3183 162.115 97.5211 162.912 95.146C163.709 92.771 171.38 91.1681 179.059 92.2255C186.738 93.2829 189.65 95.4062 192.033 98.5869C194.417 101.768 198.386 108.658 199.972 109.438L201.567 110.277C201.567 110.277 201.298 81.9449 201.827 78.5041C202.356 75.0632 199.444 63.1461 193.62 48.8456C187.795 34.5451 192.033 25.0198 193.888 23.1651C195.743 21.3104 199.444 21.3104 200.241 22.1077C201.038 22.905 200.51 33.4961 202.096 40.3778C203.682 47.2595 212.947 65.5547 215.599 69.2389C217.622 72.2101 219.476 75.2921 221.155 78.4705C219.914 69.8543 217.695 61.4075 214.542 53.2935C209.246 39.5218 203.682 30.5252 202.624 26.5472C201.567 22.5693 205.537 20.1942 207.92 21.2517C210.303 22.3091 215.33 32.9086 217.152 36.6096C218.973 40.3106 224.344 49.324 224.344 49.324C225.791 49.1504 227.259 49.3526 228.605 49.9112C229.952 50.4698 231.132 51.3659 232.031 52.5131C235.203 56.4826 240.239 64.6903 240.239 64.6903C240.239 64.6903 247.649 68.6683 248.707 71.3119C249.764 73.9554 251.619 99.6443 253.213 108.649C254.808 117.654 259.298 136.973 261.681 144.652C264.065 152.331 281.437 185.515 281.437 185.515" fill="#181F23"/>
<path d="M239.064 188.166C239.064 188.166 229.111 162.394 225.141 155.243C221.171 148.093 216.136 146.012 210.312 143.595C204.488 141.178 188.072 130.889 186.478 126.911C184.883 122.933 183.037 111.024 181.442 107.055C179.848 103.085 176.675 100.97 171.909 99.6443C167.142 98.3183 162.115 97.5211 162.912 95.146C163.709 92.771 171.38 91.1681 179.059 92.2255C186.738 93.2829 189.65 95.4062 192.033 98.5869C194.417 101.768 198.386 108.658 199.972 109.438L201.567 110.277C201.567 110.277 201.298 81.9449 201.827 78.5041C202.356 75.0632 199.444 63.1461 193.62 48.8456C187.795 34.5451 192.033 25.0198 193.888 23.1651C195.743 21.3104 199.444 21.3104 200.241 22.1077C201.038 22.905 200.51 33.4961 202.096 40.3778C203.682 47.2595 212.947 65.5547 215.599 69.2389C217.622 72.2101 219.476 75.2921 221.155 78.4705C219.914 69.8543 217.695 61.4075 214.542 53.2935C209.246 39.5217 203.682 30.5252 202.624 26.5472C201.567 22.5693 205.537 20.1942 207.92 21.2517C210.303 22.3091 215.33 32.9086 217.152 36.6096C218.973 40.3106 224.344 49.324 224.344 49.324C225.791 49.1504 227.259 49.3526 228.605 49.9112C229.952 50.4698 231.132 51.3659 232.031 52.5131C235.203 56.4826 240.239 64.6903 240.239 64.6903C240.239 64.6903 247.649 68.6683 248.707 71.3118C249.764 73.9554 251.619 99.6443 253.213 108.649C254.808 117.654 259.298 136.973 261.681 144.652C264.065 152.331 281.437 185.515 281.437 185.515" stroke="white" stroke-width="2" stroke-linecap="round" stroke-linejoin="round"/>
<path d="M222.799 82.6168C222.799 82.6168 225.04 83.733 225.593 87.6522C225.935 90.0603 226.123 92.4878 226.156 94.9199" stroke="white" stroke-width="2" stroke-linecap="round" stroke-linejoin="round"/>
<path d="M224.344 49.3238C224.344 49.3238 232.551 64.1446 233.877 64.9419C235.203 65.7391 239.433 68.1226 239.702 71.8236C239.97 75.5246 240.23 80.0312 240.23 80.0312" stroke="white" stroke-width="2" stroke-linecap="round" stroke-linejoin="round"/>
</svg>
