<svg width="157" height="112" viewBox="0 0 157 112" fill="none" xmlns="http://www.w3.org/2000/svg">
<path d="M148.263 7.72974H9.12117C5.20552 7.72974 2.03125 10.904 2.03125 14.8197V102.507C2.03125 106.423 5.20551 109.597 9.12116 109.597H148.263C152.178 109.597 155.352 106.423 155.352 102.507V14.8197C155.352 10.904 152.178 7.72974 148.263 7.72974Z" stroke="white" stroke-width="3" stroke-miterlimit="10" stroke-linecap="round"/>
<path d="M66.6974 64.6802H48.7598V74.7435H66.6974V64.6802Z" fill="white"/>
<path d="M66.6974 76.5615H48.7598V86.6248H66.6974V76.5615Z" fill="white"/>
<path d="M86.4591 64.6802H68.5215V74.7435H86.4591V64.6802Z" fill="white"/>
<path d="M106.227 52.7927H88.2891V62.856H106.227V52.7927Z" fill="white"/>
<path d="M106.227 40.905H88.2891V50.9683H106.227V40.905Z" fill="white"/>
<path d="M88.7891 26.6934V19.436H105.727V26.6934H88.7891Z" fill="#181F23" stroke="white"/>
<path d="M69.0215 26.6934V19.436H85.9591V26.6934H69.0215Z" fill="#181F23" stroke="white"/>
<path d="M86.4591 76.5615H68.5215V86.6248H86.4591V76.5615Z" fill="white"/>
<path d="M86.4591 29.0178H68.5215V39.0811H86.4591V29.0178Z" fill="white"/>
<path d="M86.4591 40.905H68.5215V50.9683H86.4591V40.905Z" fill="white"/>
<path d="M86.4591 52.7927H68.5215V62.856H86.4591V52.7927Z" fill="white"/>
<path d="M106.227 76.5615H88.2891V86.6248H106.227V76.5615Z" fill="white"/>
<path d="M27.1702 29.0178H8.04688V39.0811H27.1702V29.0178Z" fill="white"/>
<path d="M27.1702 52.7927H8.04688V62.856H27.1702V52.7927Z" fill="white"/>
<path d="M27.1702 64.6802H8.04688V74.7435H27.1702V64.6802Z" fill="white"/>
<path d="M27.1702 40.905H8.04688V50.9683H27.1702V40.905Z" fill="white"/>
<path d="M128.318 26.6934V19.436H146.442V26.6934H128.318Z" fill="#181F23" stroke="white"/>
<path d="M27.1702 76.5615H8.04688V86.6248H27.1702V76.5615Z" fill="white"/>
<path d="M125.988 29.0178H108.051V39.0811H125.988V29.0178Z" fill="white"/>
<path d="M106.227 64.6802H88.2891V74.7435H106.227V64.6802Z" fill="white"/>
<path d="M125.988 64.6802H108.051V74.7435H125.988V64.6802Z" fill="white"/>
<path d="M125.988 40.905H108.051V50.9683H125.988V40.905Z" fill="white"/>
<path d="M125.988 52.7927H108.051V62.856H125.988V52.7927Z" fill="white"/>
<path d="M125.988 76.5615H108.051V86.6248H125.988V76.5615Z" fill="white"/>
<path d="M106.227 29.0178H88.2891V39.0811H106.227V29.0178Z" fill="white"/>
<path d="M146.942 76.5615H127.818V86.6248H146.942V76.5615Z" fill="white"/>
<path d="M108.551 26.6934V19.436H125.488V26.6934H108.551Z" fill="#181F23" stroke="white"/>
<path d="M146.942 64.6802H127.818V74.7435H146.942V64.6802Z" fill="white"/>
<path d="M125.988 88.449H108.051V99.0839H125.988V88.449Z" fill="white"/>
<path d="M146.942 52.7927H127.818V62.856H146.942V52.7927Z" fill="white"/>
<path d="M86.4591 88.449H68.5215V99.0839H86.4591V88.449Z" fill="white"/>
<path d="M106.227 88.449H88.2891V99.0839H106.227V88.449Z" fill="white"/>
<path d="M146.942 40.905H127.818V50.9683H146.942V40.905Z" fill="white"/>
<path d="M146.942 88.449H127.818V99.0839H146.942V88.449Z" fill="white"/>
<path d="M27.1702 88.449H8.04688V99.0839H27.1702V88.449Z" fill="white"/>
<path d="M146.942 29.0178H127.818V39.0811H146.942V29.0178Z" fill="white"/>
<path d="M8.54688 26.6934V19.436H26.6702V26.6934H8.54688Z" fill="#181F23" stroke="white"/>
<path d="M29.4922 26.6934V19.436H46.4298V26.6934H29.4922Z" fill="#181F23" stroke="white"/>
<path d="M46.9298 64.6802H28.9922V74.7435H46.9298V64.6802Z" fill="white"/>
<path d="M49.2598 26.6934V19.436H66.1974V26.6934H49.2598Z" fill="#181F23" stroke="white"/>
<path d="M66.6974 40.905H48.7598V50.9683H66.6974V40.905Z" fill="white"/>
<path d="M46.9298 76.5615H28.9922V86.6248H46.9298V76.5615Z" fill="white"/>
<path d="M66.6974 29.0178H48.7598V39.0811H66.6974V29.0178Z" fill="white"/>
<path d="M46.9298 29.0178H28.9922V39.0811H46.9298V29.0178Z" fill="white"/>
<path d="M66.6974 52.7927H48.7598V62.856H66.6974V52.7927Z" fill="white"/>
<path d="M46.9298 52.7927H28.9922V62.856H46.9298V52.7927Z" fill="white"/>
<path d="M46.9298 88.449H28.9922V99.0839H46.9298V88.449Z" fill="white"/>
<path d="M46.9298 40.905H28.9922V50.9683H46.9298V40.905Z" fill="white"/>
<path d="M66.6974 88.449H48.7598V99.0839H66.6974V88.449Z" fill="white"/>
<path d="M16.4846 13.3845C17.9119 13.3845 19.0689 12.2275 19.0689 10.8003C19.0689 9.37307 17.9119 8.21606 16.4846 8.21606C15.0574 8.21606 13.9004 9.37307 13.9004 10.8003C13.9004 12.2275 15.0574 13.3845 16.4846 13.3845Z" fill="white"/>
<path d="M27.8193 10.8005C27.8205 10.2877 27.6695 9.78601 27.3853 9.3591C27.1011 8.9322 26.6966 8.59925 26.2231 8.40244C25.7495 8.20563 25.2282 8.15383 24.7251 8.25358C24.2221 8.35333 23.76 8.60016 23.3974 8.96279C23.0347 9.32541 22.7879 9.78752 22.6882 10.2906C22.5884 10.7936 22.6402 11.3149 22.837 11.7885C23.0338 12.2621 23.3668 12.6665 23.7937 12.9507C24.2206 13.2349 24.7222 13.3859 25.2351 13.3847C25.9204 13.3847 26.5778 13.1125 27.0624 12.6278C27.547 12.1432 27.8193 11.4859 27.8193 10.8005Z" fill="white"/>
<path d="M16.5337 12.4847C16.1741 12.4847 15.8292 12.3418 15.5749 12.0875C15.3206 11.8332 15.1777 11.4883 15.1777 11.1287V1.95921C15.1769 1.78063 15.2114 1.60366 15.2792 1.43844C15.347 1.27322 15.4468 1.12303 15.5727 0.996469C15.6987 0.869911 15.8485 0.769487 16.0134 0.700963C16.1783 0.63244 16.3551 0.597166 16.5337 0.597168C16.8949 0.597168 17.2414 0.740669 17.4968 0.996102C17.7523 1.25154 17.8958 1.59797 17.8958 1.95921V11.1287C17.8958 11.3073 17.8605 11.4841 17.792 11.649C17.7234 11.8139 17.623 11.9637 17.4965 12.0897C17.3699 12.2157 17.2197 12.3154 17.0545 12.3832C16.8893 12.451 16.7123 12.4855 16.5337 12.4847Z" fill="white"/>
<path d="M25.2818 12.4847C24.9221 12.4847 24.5772 12.3418 24.3229 12.0875C24.0687 11.8332 23.9258 11.4883 23.9258 11.1287V1.95921C23.925 1.78063 23.9595 1.60366 24.0273 1.43844C24.095 1.27322 24.1948 1.12303 24.3208 0.996469C24.4468 0.869911 24.5965 0.769487 24.7614 0.700963C24.9264 0.63244 25.1032 0.597166 25.2818 0.597168C25.643 0.597168 25.9894 0.740669 26.2449 0.996102C26.5003 1.25154 26.6438 1.59797 26.6438 1.95921V11.1287C26.6438 11.3073 26.6085 11.4841 26.54 11.649C26.4715 11.8139 26.3711 11.9637 26.2445 12.0897C26.1179 12.2157 25.9677 12.3154 25.8025 12.3832C25.6373 12.451 25.4603 12.4855 25.2818 12.4847Z" fill="white"/>
<path d="M135.761 10.8005C135.762 10.2877 135.611 9.78601 135.327 9.3591C135.043 8.9322 134.638 8.59925 134.164 8.40244C133.691 8.20563 133.17 8.15383 132.667 8.25358C132.164 8.35333 131.701 8.60016 131.339 8.96279C130.976 9.32541 130.729 9.78752 130.63 10.2906C130.53 10.7936 130.582 11.3149 130.778 11.7885C130.975 12.2621 131.308 12.6665 131.735 12.9507C132.162 13.2349 132.664 13.3859 133.176 13.3847C133.862 13.3847 134.519 13.1125 135.004 12.6278C135.488 12.1432 135.761 11.4859 135.761 10.8005Z" fill="white"/>
<path d="M141.92 13.3845C143.347 13.3845 144.504 12.2275 144.504 10.8003C144.504 9.37307 143.347 8.21606 141.92 8.21606C140.493 8.21606 139.336 9.37307 139.336 10.8003C139.336 12.2275 140.493 13.3845 141.92 13.3845Z" fill="white"/>
<path d="M133.217 12.4847C132.858 12.4847 132.513 12.3418 132.258 12.0875C132.004 11.8332 131.861 11.4883 131.861 11.1287V1.95921C131.861 1.78063 131.895 1.60366 131.963 1.43844C132.031 1.27322 132.13 1.12303 132.256 0.996469C132.382 0.869911 132.532 0.769487 132.697 0.700963C132.862 0.63244 133.039 0.597166 133.217 0.597168C133.579 0.597168 133.925 0.740669 134.18 0.996102C134.436 1.25154 134.579 1.59797 134.579 1.95921V11.1287C134.579 11.3073 134.544 11.4841 134.476 11.649C134.407 11.8139 134.307 11.9637 134.18 12.0897C134.053 12.2157 133.903 12.3154 133.738 12.3832C133.573 12.451 133.396 12.4855 133.217 12.4847Z" fill="white"/>
<path d="M142.054 12.4847C141.874 12.4879 141.695 12.4552 141.528 12.3885C141.36 12.3218 141.208 12.2224 141.08 12.0962C140.951 11.97 140.849 11.8194 140.779 11.6533C140.71 11.4872 140.674 11.3088 140.674 11.1287V1.95921C140.674 1.59797 140.817 1.25154 141.073 0.996102C141.328 0.740669 141.675 0.597168 142.036 0.597168C142.214 0.597166 142.391 0.63244 142.556 0.700963C142.721 0.769487 142.871 0.869911 142.997 0.996469C143.123 1.12303 143.223 1.27322 143.29 1.43844C143.358 1.60366 143.393 1.78063 143.392 1.95921V11.1287C143.392 11.4852 143.252 11.8273 143.001 12.0811C142.751 12.3349 142.411 12.4799 142.054 12.4847Z" fill="white"/>
<path d="M74.8342 13.3845C76.2615 13.3845 77.4185 12.2275 77.4185 10.8003C77.4185 9.37307 76.2615 8.21606 74.8342 8.21606C73.407 8.21606 72.25 9.37307 72.25 10.8003C72.25 12.2275 73.407 13.3845 74.8342 13.3845Z" fill="white"/>
<path d="M83.5764 13.3845C85.0037 13.3845 86.1607 12.2275 86.1607 10.8003C86.1607 9.37307 85.0037 8.21606 83.5764 8.21606C82.1492 8.21606 80.9922 9.37307 80.9922 10.8003C80.9922 12.2275 82.1492 13.3845 83.5764 13.3845Z" fill="white"/>
<path d="M74.8775 12.4847C74.5178 12.4847 74.1729 12.3418 73.9187 12.0875C73.6644 11.8332 73.5215 11.4883 73.5215 11.1287V1.95921C73.5207 1.78063 73.5552 1.60366 73.623 1.43844C73.6907 1.27322 73.7905 1.12303 73.9165 0.996469C74.0425 0.869911 74.1922 0.769487 74.3571 0.700963C74.5221 0.63244 74.6989 0.597166 74.8775 0.597168C75.2387 0.597168 75.5851 0.740669 75.8406 0.996102C76.096 1.25154 76.2395 1.59797 76.2395 1.95921V11.1287C76.2395 11.3073 76.2042 11.4841 76.1357 11.649C76.0672 11.8139 75.9668 11.9637 75.8402 12.0897C75.7137 12.2157 75.5635 12.3154 75.3982 12.3832C75.233 12.451 75.056 12.4855 74.8775 12.4847Z" fill="white"/>
<path d="M83.7056 12.4847C83.346 12.4847 83.0011 12.3418 82.7468 12.0875C82.4925 11.8332 82.3496 11.4883 82.3496 11.1287V1.95921C82.3488 1.78063 82.3833 1.60366 82.4511 1.43844C82.5189 1.27322 82.6186 1.12303 82.7446 0.996469C82.8706 0.869911 83.0204 0.769487 83.1853 0.700963C83.3502 0.63244 83.527 0.597166 83.7056 0.597168C83.8845 0.597168 84.0616 0.632398 84.2268 0.700847C84.3921 0.769296 84.5422 0.869625 84.6687 0.996102C84.7952 1.12258 84.8955 1.27273 84.9639 1.43798C85.0324 1.60323 85.0676 1.78034 85.0676 1.95921V11.1287C85.0676 11.3073 85.0324 11.4841 84.9638 11.649C84.8953 11.8139 84.7949 11.9637 84.6683 12.0897C84.5418 12.2157 84.3916 12.3154 84.2264 12.3832C84.0611 12.451 83.8842 12.4855 83.7056 12.4847Z" fill="white"/>
<path d="M20.46 41.7808L11.4121 49.7585" stroke="#181F23" stroke-width="2" stroke-linecap="round" stroke-linejoin="round"/>
<path d="M14.1973 41.7808L20.4602 49.2234" stroke="#181F23" stroke-width="2" stroke-linecap="round" stroke-linejoin="round"/>
<path d="M120.601 30.4346L111.553 38.4062" stroke="#181F23" stroke-width="2" stroke-linecap="round" stroke-linejoin="round"/>
<path d="M114.338 30.4346L120.601 37.8772" stroke="#181F23" stroke-width="2" stroke-linecap="round" stroke-linejoin="round"/>
<path d="M61.3098 30.4346L52.2559 38.4062" stroke="#181F23" stroke-width="2" stroke-linecap="round" stroke-linejoin="round"/>
<path d="M55.041 30.4346L61.3101 37.8772" stroke="#181F23" stroke-width="2" stroke-linecap="round" stroke-linejoin="round"/>
<path d="M141.3 30.2095L132.246 38.1872" stroke="#181F23" stroke-width="2" stroke-linecap="round" stroke-linejoin="round"/>
<path d="M135.031 30.2095L141.3 37.6521" stroke="#181F23" stroke-width="2" stroke-linecap="round" stroke-linejoin="round"/>
</svg>
