<svg width="160" height="104" viewBox="0 0 160 104" fill="none" xmlns="http://www.w3.org/2000/svg">
<rect x="2.03125" y="1.59717" width="156" height="100" rx="8" stroke="white" stroke-width="3" stroke-linecap="round" stroke-linejoin="round"/>
<path d="M80.141 22.6802C85.9464 22.6775 91.6222 24.3966 96.4505 27.62C101.279 30.8433 105.043 35.4262 107.266 40.7889C109.49 46.1517 110.073 52.0533 108.942 57.7475C107.811 63.4417 105.017 68.6726 100.913 72.7785C96.8085 76.8845 91.5789 79.6811 85.8852 80.8147C80.1916 81.9482 74.2896 81.3678 68.9259 79.1468C63.5621 76.9258 58.9776 73.164 55.752 68.3372C52.5264 63.5103 50.8047 57.8353 50.8047 52.0299C50.8029 48.1763 51.5604 44.3601 53.0339 40.7993C54.5074 37.2385 56.668 34.0029 59.3923 31.2773C62.1166 28.5518 65.3513 26.3897 68.9114 24.9145C72.4715 23.4394 76.2873 22.6802 80.141 22.6802Z" fill="#181F23"/>
<path d="M80.1423 82.2393C74.163 82.2447 68.3166 80.4763 63.3427 77.158C58.3687 73.8397 54.4908 69.1207 52.1996 63.5978C49.9084 58.075 49.3068 51.9967 50.471 46.1319C51.6352 40.2671 54.5129 34.8794 58.7399 30.6505C62.9669 26.4216 68.3533 23.5416 74.2176 22.3748C80.0819 21.2079 86.1604 21.8068 91.6843 24.0956C97.2081 26.3843 101.929 30.2602 105.249 35.2326C108.57 40.2051 110.341 46.0507 110.338 52.03C110.328 60.0364 107.143 67.712 101.483 73.3747C95.8229 79.0374 88.1487 82.2251 80.1423 82.2393ZM80.1423 23.5533C74.509 23.548 69.0007 25.2137 64.3142 28.3395C59.6277 31.4653 55.9736 35.9109 53.8142 41.1138C51.6547 46.3168 51.087 52.0433 52.1827 57.569C53.2784 63.0947 55.9884 68.1712 59.9699 72.1565C63.9513 76.1417 69.0253 78.8565 74.55 79.9574C80.0747 81.0584 85.8018 80.496 91.0067 78.3415C96.2117 76.187 100.661 72.5371 103.791 67.8535C106.921 63.17 108.592 57.6633 108.592 52.03C108.585 44.4843 105.586 37.2494 100.253 31.9113C94.92 26.5732 87.6879 23.5676 80.1423 23.5533Z" fill="white"/>
<path d="M80.1424 76.329C75.3327 76.3317 70.6303 74.9077 66.63 72.2372C62.6298 69.5667 59.5115 65.7698 57.6697 61.3267C55.8279 56.8836 55.3452 51.994 56.2829 47.2766C57.2206 42.5592 59.5364 38.2258 62.9374 34.8249C66.3384 31.4239 70.6717 29.108 75.3892 28.1704C80.1066 27.2327 84.9961 27.7153 89.4392 29.5571C93.8823 31.399 97.6793 34.5172 100.35 38.5175C103.02 42.5177 104.444 47.2202 104.442 52.0299C104.435 58.4722 101.872 64.6487 97.3167 69.2041C92.7613 73.7595 86.5848 76.3219 80.1424 76.329ZM80.1424 29.4501C75.6786 29.4448 71.3136 30.7634 67.5993 33.2392C63.885 35.715 60.9885 39.2367 59.276 43.3589C57.5635 47.4811 57.112 52.0186 57.9786 56.3975C58.8452 60.7763 60.991 64.7998 64.1445 67.959C67.2981 71.1182 71.3177 73.2712 75.695 74.1456C80.0723 75.02 84.6106 74.5766 88.7358 72.8715C92.8611 71.1663 96.388 68.276 98.8704 64.5662C101.353 60.8564 102.679 56.4937 102.682 52.0299C102.678 46.0494 100.304 40.3143 96.0788 36.0817C91.8537 31.8491 86.1229 29.4643 80.1424 29.4501Z" fill="white"/>
<path d="M80.1426 34.3127C83.326 34.3127 86.7379 33.5739 88.699 36.1261C90.6602 38.6782 93.5884 39.5648 94.5152 42.1169C95.4421 44.6691 97.7524 47.4899 96.5972 50.6868C94.9988 55.1732 96.5972 60.0894 93.5078 62.8968C91.0497 65.1803 89.1692 68.8339 85.2872 68.9548C83.7022 68.9548 82.1171 69.8413 80.1426 69.8413V34.3127Z" fill="white"/>
<path d="M80.1426 70.7142C79.9111 70.7142 79.689 70.6223 79.5253 70.4585C79.3615 70.2948 79.2695 70.0727 79.2695 69.8411V34.3125C79.2695 34.0809 79.3615 33.8589 79.5253 33.6951C79.689 33.5314 79.9111 33.4394 80.1426 33.4394C80.7202 33.4394 81.2978 33.4394 81.8754 33.4394H83.6351C84.704 33.3281 85.784 33.475 86.7844 33.8677C87.7848 34.2604 88.6763 34.8874 89.3841 35.696C90.1711 36.6188 91.0741 37.436 92.0706 38.1273C93.524 39.0373 94.6778 40.3546 95.3884 41.9152C95.6167 42.5466 95.9391 43.2585 96.2749 43.9032C97.2958 45.9987 98.451 48.3627 97.4704 51.0895C96.9498 52.7749 96.665 54.5244 96.6242 56.2879C96.4227 59.0684 96.2346 61.6608 94.1526 63.6354C93.533 64.2351 92.9456 64.8673 92.393 65.5293C90.6199 67.5307 88.6319 69.8143 85.3678 69.9217C84.6886 69.9707 84.0171 70.0969 83.3664 70.2978C82.3149 70.5783 81.2309 70.7183 80.1426 70.7142ZM81.0158 35.1722V68.9008C81.641 68.8087 82.26 68.6786 82.8694 68.5113C83.6438 68.2816 84.4411 68.1375 85.247 68.0815C87.7588 68.0009 89.3438 66.1875 91.0229 64.2801C91.6273 63.5951 92.2452 62.9369 92.9168 62.2519C94.4884 60.8012 94.6496 58.6117 94.8242 56.073C94.8781 54.144 95.1991 52.2319 95.7779 50.3911C96.5033 48.3762 95.6033 46.5225 94.6496 44.5749C94.2957 43.8704 93.9774 43.1486 93.6959 42.4122C93.0789 41.174 92.1243 40.1356 90.9423 39.4168C89.8434 38.6341 88.854 37.708 88.0006 36.6632C87.0066 35.3199 85.529 35.0916 83.6351 35.0916C83.0843 35.0916 82.5068 35.0916 81.9426 35.0916L81.0158 35.1722Z" fill="#181F23"/>
<path d="M86.8862 42.7483H86.6713C86.5602 42.7201 86.4557 42.6702 86.3638 42.6016C86.2719 42.533 86.1945 42.447 86.1358 42.3484C86.0772 42.2499 86.0386 42.1408 86.0221 42.0274C86.0057 41.9139 86.0117 41.7982 86.04 41.6871C86.0349 41.0192 85.8884 40.3601 85.6101 39.7529C85.566 39.6471 85.5432 39.5335 85.543 39.4189C85.5427 39.3042 85.5651 39.1907 85.6087 39.0846C85.6524 38.9786 85.7165 38.8822 85.7974 38.801C85.8783 38.7197 85.9744 38.6552 86.0803 38.6111C86.1861 38.567 86.2996 38.5442 86.4142 38.5439C86.5289 38.5437 86.6425 38.5661 86.7485 38.6097C86.8545 38.6534 86.9509 38.7175 87.0321 38.7984C87.1134 38.8793 87.1779 38.9754 87.222 39.0813C87.6537 40.0314 87.8296 41.0779 87.7325 42.117C87.6817 42.3013 87.5709 42.4635 87.4176 42.5778C87.2644 42.6922 87.0774 42.7522 86.8862 42.7483Z" fill="#181F23"/>
<path d="M83.3528 48.2959C83.1604 48.2967 82.9732 48.2339 82.8202 48.1173C82.6671 48.0007 82.5569 47.8368 82.5066 47.6511C82.4108 46.5819 82.6009 45.5065 83.0573 44.5348C83.1016 44.4238 83.1683 44.323 83.2531 44.2388C83.338 44.1546 83.4393 44.0887 83.5506 44.0452C83.662 44.0017 83.7811 43.9815 83.9006 43.986C84.02 43.9904 84.1373 44.0193 84.2451 44.0709C84.353 44.1225 84.4491 44.1957 84.5275 44.286C84.6058 44.3763 84.6649 44.4817 84.7009 44.5957C84.7368 44.7097 84.749 44.8299 84.7366 44.9489C84.7243 45.0678 84.6876 45.1829 84.6289 45.287C84.3513 45.8897 84.2048 46.5444 84.1991 47.2079C84.2273 47.319 84.2334 47.4346 84.2169 47.5481C84.2005 47.6615 84.1618 47.7707 84.1032 47.8692C84.0446 47.9677 83.9671 48.0538 83.8752 48.1224C83.7834 48.191 83.6789 48.2408 83.5678 48.269C83.4984 48.2912 83.4255 48.3002 83.3528 48.2959Z" fill="#181F23"/>
<path d="M88.8992 52.567H88.6977C88.5854 52.5403 88.4795 52.4915 88.3861 52.4236C88.2927 52.3556 88.2138 52.2697 88.1538 52.171C88.0938 52.0724 88.054 51.9627 88.0367 51.8486C88.0194 51.7344 88.0249 51.6179 88.053 51.5059C88.0476 50.8481 87.9058 50.1986 87.6366 49.5985C87.588 49.4944 87.5605 49.3818 87.5555 49.2671C87.5505 49.1524 87.5682 49.0378 87.6075 48.9299C87.6468 48.822 87.7069 48.7229 87.7845 48.6383C87.8621 48.5536 87.9556 48.4851 88.0597 48.4366C88.1638 48.3881 88.2763 48.3606 88.3911 48.3556C88.5058 48.3506 88.6204 48.3682 88.7283 48.4075C88.8362 48.4468 88.9352 48.507 89.0199 48.5845C89.1045 48.6621 89.1731 48.7557 89.2216 48.8597C89.6553 49.819 89.8357 50.8734 89.7454 51.9223C89.6972 52.1092 89.5875 52.2743 89.434 52.3913C89.2805 52.5083 89.0922 52.5701 88.8992 52.567Z" fill="#181F23"/>
<path d="M85.5713 57.645C85.3753 57.6443 85.1853 57.5777 85.0318 57.4559C84.8783 57.334 84.7703 57.1641 84.725 56.9734C84.6405 55.9365 84.8256 54.8954 85.2624 53.9511C85.3046 53.841 85.3688 53.7405 85.451 53.6559C85.5332 53.5712 85.6317 53.504 85.7405 53.4585C85.8494 53.413 85.9664 53.39 86.0844 53.3909C86.2024 53.3918 86.3189 53.4167 86.4271 53.4639C86.5352 53.5112 86.6326 53.5799 86.7135 53.6658C86.7943 53.7518 86.8569 53.8532 86.8975 53.9641C86.938 54.0749 86.9556 54.1928 86.9493 54.3106C86.943 54.4284 86.9129 54.5438 86.8608 54.6496C86.5845 55.2533 86.4337 55.9068 86.4175 56.5705C86.4455 56.6825 86.4511 56.799 86.4338 56.9132C86.4164 57.0273 86.3767 57.137 86.3167 57.2356C86.2567 57.3343 86.1777 57.4201 86.0844 57.4881C85.991 57.5561 85.8851 57.6049 85.7728 57.6316L85.5713 57.645Z" fill="#181F23"/>
<path d="M86.3511 61.3118C86.1195 61.3243 85.8925 61.2443 85.7199 61.0893C85.5474 60.9344 85.4434 60.7173 85.431 60.4857C85.4185 60.2542 85.4985 60.0271 85.6534 59.8546C85.8083 59.682 86.0255 59.5781 86.257 59.5656C86.886 59.3503 87.4562 58.9916 87.9226 58.5179C88.0967 58.3657 88.3233 58.2876 88.5542 58.3001C88.7851 58.3127 89.0019 58.4149 89.1584 58.585C89.2354 58.6705 89.2948 58.7703 89.3331 58.8787C89.3714 58.9871 89.3878 59.1021 89.3816 59.2169C89.3753 59.3317 89.3465 59.4442 89.2967 59.5478C89.2469 59.6515 89.177 59.7442 89.0912 59.8208C88.3444 60.5453 87.4165 61.0556 86.4048 61.2984L86.3511 61.3118Z" fill="#181F23"/>
<path d="M92.4182 54.0584C92.2889 54.0605 92.161 54.0325 92.0444 53.9765C91.9278 53.9206 91.8258 53.8382 91.7466 53.736C91.6728 53.6472 91.6173 53.5447 91.5834 53.4343C91.5495 53.3239 91.5378 53.2079 91.5491 53.093C91.5603 52.978 91.5943 52.8664 91.6489 52.7647C91.7036 52.663 91.7779 52.5731 91.8675 52.5003C92.2831 51.9842 92.581 51.3837 92.7406 50.7407C92.8083 50.518 92.9616 50.3313 93.167 50.2218C93.3723 50.1122 93.6127 50.0887 93.8353 50.1563C94.058 50.224 94.2446 50.3774 94.3542 50.5827C94.4638 50.788 94.4873 51.0284 94.4196 51.2511C94.1624 52.2277 93.6635 53.1238 92.969 53.857C92.8153 53.9876 92.62 54.0591 92.4182 54.0584Z" fill="#181F23"/>
<path d="M85.5015 66.564C85.2699 66.5764 85.0429 66.4964 84.8703 66.3415C84.6977 66.1865 84.5938 65.9695 84.5813 65.7379C84.5689 65.5063 84.6489 65.2793 84.8038 65.1067C84.9587 64.9342 85.1759 64.8302 85.4074 64.8177C86.0389 64.585 86.6153 64.2237 87.0999 63.7566C87.1801 63.6737 87.2761 63.6078 87.3822 63.5628C87.4884 63.5178 87.6025 63.4946 87.7178 63.4946C87.8331 63.4946 87.9472 63.5178 88.0534 63.5628C88.1595 63.6078 88.2555 63.6737 88.3357 63.7566C88.4965 63.9221 88.5865 64.1437 88.5865 64.3745C88.5865 64.6052 88.4965 64.8269 88.3357 64.9924C87.5864 65.7306 86.662 66.2667 85.6492 66.5505L85.5015 66.564Z" fill="#181F23"/>
<path d="M80.1426 34.3125C76.9591 34.3125 73.5339 33.5737 71.5728 36.1258C69.6116 38.678 66.6968 39.5645 65.77 42.1167C64.8431 44.6688 62.5193 47.4896 63.6745 50.6865C65.2998 55.1729 63.6745 60.0892 66.764 62.8965C69.2355 65.18 71.1026 68.8337 74.998 68.9545C76.583 68.9545 78.1546 69.8411 80.1426 69.8411V34.3125Z" fill="white"/>
<path d="M80.1415 70.7144C79.067 70.6843 78.0011 70.5126 76.9715 70.204C76.3208 70.0031 75.6493 69.8769 74.9701 69.8279C71.706 69.7204 69.718 67.4503 67.9584 65.4489C67.3539 64.7639 66.7763 64.1057 66.1718 63.5416C64.0898 61.6207 63.9018 58.988 63.7137 56.2075C63.6682 54.439 63.3789 52.6852 62.854 50.9957C61.8735 48.3093 63.0287 45.9049 64.0629 43.8094C64.3988 43.1109 64.7211 42.4662 64.9495 41.8214C65.6639 40.2597 66.8165 38.9391 68.2673 38.0201C69.2421 37.3367 70.1188 36.5232 70.8732 35.6022C71.5837 34.7896 72.4797 34.1602 73.4851 33.7674C74.4906 33.3746 75.5759 33.2299 76.6491 33.3456H78.4221C78.9997 33.3456 79.5773 33.3456 80.1415 33.3456C80.3731 33.3456 80.5951 33.4376 80.7589 33.6013C80.9226 33.7651 81.0146 33.9871 81.0146 34.2187V69.7473C81.0279 69.8696 81.0151 69.9933 80.9772 70.1104C80.9393 70.2274 80.8771 70.3351 80.7947 70.4264C80.7122 70.5177 80.6114 70.5906 80.4989 70.6402C80.3863 70.6899 80.2645 70.7151 80.1415 70.7144ZM76.6491 35.0918C74.3925 35.0918 73.1298 35.5485 72.2701 36.6634C71.4129 37.6852 70.4237 38.5886 69.3285 39.3499C68.1717 40.0847 67.2416 41.1264 66.642 42.3587C66.3641 43.0986 66.0411 43.8209 65.6748 44.5213C64.7211 46.4824 63.8212 48.3227 64.5465 50.3375C65.1383 52.1798 65.4595 54.0983 65.5002 56.0329C65.6883 58.5716 65.836 60.7476 67.4076 62.1983C68.0793 62.8296 68.7509 63.5415 69.3285 64.24C70.9941 66.1474 72.5791 67.9474 75.0775 68.028C75.8837 68.0814 76.6812 68.2256 77.455 68.4578C78.0693 68.6238 78.6927 68.7538 79.3221 68.8473V35.1724H78.3953C77.7774 35.1052 77.1998 35.0918 76.6491 35.0918Z" fill="#181F23"/>
<path d="M73.3877 42.7485C73.1929 42.7509 73.0031 42.6871 72.8494 42.5675C72.6957 42.4479 72.5871 42.2797 72.5415 42.0904C72.4427 41.0398 72.6283 39.982 73.0788 39.0278C73.1755 38.8179 73.3505 38.6541 73.5662 38.5713C73.782 38.4885 74.0216 38.4932 74.2339 38.5845C74.4438 38.681 74.6069 38.8568 74.6875 39.0733C74.7681 39.2898 74.7595 39.5295 74.6638 39.7397C74.3873 40.3427 74.2409 40.9972 74.2339 41.6605C74.2621 41.7717 74.2682 41.8872 74.2517 42.0007C74.2353 42.1142 74.1967 42.2233 74.138 42.3219C74.0794 42.4204 74.0019 42.5064 73.9101 42.575C73.8182 42.6436 73.7137 42.6935 73.6026 42.7217L73.3877 42.7485Z" fill="#181F23"/>
<path d="M76.6233 48.269C76.5522 48.2813 76.4795 48.2813 76.4084 48.269C76.2978 48.2423 76.1936 48.1939 76.1019 48.1266C76.0101 48.0593 75.9326 47.9745 75.8739 47.8771C75.8151 47.7796 75.7764 47.6714 75.7597 47.5589C75.7431 47.4463 75.749 47.3316 75.7771 47.2213C75.7629 46.5386 75.6074 45.8663 75.3204 45.2467C75.2734 45.1418 75.2476 45.0286 75.2445 44.9137C75.2413 44.7988 75.2609 44.6844 75.3021 44.5771C75.3433 44.4697 75.4053 44.3716 75.4845 44.2883C75.5637 44.2049 75.6586 44.1381 75.7637 44.0915C75.9764 44.0037 76.2147 44.0007 76.4295 44.0832C76.6444 44.1656 76.8195 44.3273 76.9188 44.5348C77.3612 45.5061 77.5507 46.5735 77.4696 47.6377C77.4168 47.8209 77.3055 47.9818 77.1527 48.0958C76.9999 48.2097 76.814 48.2706 76.6233 48.269Z" fill="#181F23"/>
<path d="M71.5342 51.6945C71.3388 51.6914 71.15 51.6239 70.9969 51.5025C70.8439 51.381 70.7353 51.2124 70.6879 51.0229C70.5995 49.9741 70.7797 48.92 71.2118 47.9603C71.311 47.7494 71.4893 47.5861 71.708 47.5057C71.9267 47.4252 72.1682 47.4341 72.3804 47.5304C72.5879 47.6296 72.7487 47.8056 72.8289 48.0211C72.9091 48.2367 72.9024 48.4749 72.8102 48.6856C72.5319 49.288 72.3853 49.9429 72.3804 50.6065C72.4374 50.8309 72.4029 51.0688 72.2845 51.2678C72.1661 51.4668 71.9735 51.6106 71.7491 51.6676L71.5342 51.6945Z" fill="#181F23"/>
<path d="M74.6626 57.645C74.5915 57.6582 74.5187 57.6582 74.4476 57.645C74.3365 57.6168 74.232 57.567 74.1401 57.4984C74.0483 57.4298 73.9708 57.3438 73.9122 57.2452C73.8536 57.1467 73.8149 57.0376 73.7985 56.9241C73.782 56.8106 73.7881 56.695 73.8163 56.5839C73.8103 55.9248 73.6638 55.2745 73.3865 54.6765C73.2986 54.4638 73.2957 54.2255 73.3781 54.0106C73.4605 53.7958 73.6222 53.6207 73.8298 53.5213C74.0437 53.4309 74.2847 53.4281 74.5007 53.5135C74.7167 53.5989 74.8906 53.7657 74.9849 53.978C75.42 54.9273 75.6005 55.9735 75.5088 57.0137C75.458 57.1981 75.3473 57.3602 75.194 57.4746C75.0408 57.5889 74.8537 57.6489 74.6626 57.645Z" fill="#181F23"/>
<path d="M73.9219 61.3119H73.8279C72.8178 61.0574 71.8917 60.5434 71.1414 59.8209C70.9806 59.6554 70.8906 59.4337 70.8906 59.203C70.8906 58.9722 70.9806 58.7506 71.1414 58.5851C71.2225 58.5039 71.3188 58.4394 71.4248 58.3955C71.5309 58.3515 71.6445 58.3289 71.7593 58.3289C71.8741 58.3289 71.9877 58.3515 72.0937 58.3955C72.1998 58.4394 72.2961 58.5039 72.3772 58.5851C72.8495 59.0318 73.4068 59.379 74.0159 59.606C74.1306 59.6121 74.2429 59.6408 74.3465 59.6904C74.4501 59.74 74.5428 59.8095 74.6195 59.8949C74.6962 59.9804 74.7554 60.0801 74.7935 60.1884C74.8317 60.2967 74.8482 60.4114 74.842 60.5261C74.8359 60.6407 74.8071 60.753 74.7576 60.8566C74.708 60.9602 74.6385 61.053 74.553 61.1297C74.4676 61.2064 74.3679 61.2655 74.2596 61.3037C74.1513 61.3419 74.0366 61.3583 73.9219 61.3522V61.3119Z" fill="#181F23"/>
<path d="M68.8199 54.3802C68.6196 54.3858 68.4241 54.319 68.2691 54.1921C67.5576 53.4399 67.0572 52.5132 66.8185 51.5057C66.7771 51.3922 66.7597 51.2713 66.7674 51.1507C66.7752 51.0301 66.8079 50.9124 66.8634 50.8051C66.919 50.6978 66.9962 50.6032 67.0902 50.5273C67.1842 50.4514 67.293 50.3958 67.4096 50.3641C67.5262 50.3324 67.6481 50.3252 67.7676 50.3431C67.8871 50.3609 68.0016 50.4033 68.1039 50.4677C68.2061 50.5321 68.2939 50.617 68.3617 50.717C68.4294 50.8171 68.4757 50.9301 68.4975 51.0489C68.6553 51.6779 68.9486 52.2647 69.3571 52.7683C69.5383 52.9112 69.6555 53.1199 69.6832 53.349C69.7109 53.578 69.6468 53.8087 69.5049 53.9906C69.4309 54.1063 69.3299 54.2022 69.2105 54.27C69.0912 54.3379 68.9571 54.3757 68.8199 54.3802Z" fill="#181F23"/>
<path d="M74.7698 66.564H74.6623C73.645 66.2836 72.7188 65.7417 71.9758 64.9924C71.8138 64.8267 71.7241 64.6035 71.7266 64.3717C71.7291 64.1399 71.8236 63.9187 71.9893 63.7566C72.1549 63.5945 72.3782 63.5049 72.61 63.5074C72.8417 63.5099 73.063 63.6044 73.225 63.77C73.6999 64.2364 74.2673 64.5979 74.8907 64.8312C75.0053 64.8374 75.1176 64.866 75.2212 64.9156C75.3248 64.9652 75.4176 65.0347 75.4943 65.1201C75.571 65.2056 75.6301 65.3053 75.6683 65.4136C75.7064 65.5219 75.7229 65.6366 75.7168 65.7513C75.7106 65.866 75.6819 65.9783 75.6323 66.0819C75.5827 66.1854 75.5133 66.2782 75.4278 66.3549C75.3424 66.4316 75.2426 66.4907 75.1343 66.5289C75.0261 66.5671 74.9113 66.5836 74.7967 66.5774L74.7698 66.564Z" fill="#181F23"/>
<path d="M89.0215 24.9232C88.79 24.9232 88.5679 24.8312 88.4041 24.6675C88.2404 24.5037 88.1484 24.2817 88.1484 24.0501V14.9027C88.1484 14.6711 88.2404 14.449 88.4041 14.2853C88.5679 14.1216 88.79 14.0295 89.0215 14.0295H108.418C108.649 14.0295 108.872 14.1216 109.035 14.2853C109.199 14.449 109.291 14.6711 109.291 14.9027C109.291 15.1342 109.199 15.3563 109.035 15.52C108.872 15.6838 108.649 15.7758 108.418 15.7758H89.8946V24.0501C89.8946 24.2817 89.8027 24.5037 89.6389 24.6675C89.4752 24.8312 89.2531 24.9232 89.0215 24.9232Z" fill="white"/>
<path d="M71.2514 24.9232C71.0198 24.9232 70.7977 24.8312 70.634 24.6675C70.4702 24.5037 70.3783 24.2817 70.3783 24.0501V15.7758H51.8282C51.5966 15.7758 51.3745 15.6838 51.2108 15.52C51.047 15.3563 50.9551 15.1342 50.9551 14.9027C50.9551 14.6711 51.047 14.449 51.2108 14.2853C51.3745 14.1216 51.5966 14.0295 51.8282 14.0295H71.2245C71.4561 14.0295 71.6782 14.1216 71.8419 14.2853C72.0056 14.449 72.0976 14.6711 72.0976 14.9027V24.0501C72.0977 24.2771 72.0094 24.4952 71.8515 24.6582C71.6935 24.8211 71.4782 24.9162 71.2514 24.9232Z" fill="white"/>
<path d="M108.418 90.0164H89.0215C88.79 90.0164 88.5679 89.9245 88.4041 89.7607C88.2404 89.597 88.1484 89.3749 88.1484 89.1433V79.9959C88.1484 79.7643 88.2404 79.5423 88.4041 79.3785C88.5679 79.2148 88.79 79.1228 89.0215 79.1228C89.2531 79.1228 89.4752 79.2148 89.6389 79.3785C89.8027 79.5423 89.8946 79.7643 89.8946 79.9959V88.2702H108.418C108.649 88.2702 108.872 88.3622 109.035 88.526C109.199 88.6897 109.291 88.9118 109.291 89.1433C109.291 89.3749 109.199 89.597 109.035 89.7607C108.872 89.9245 108.649 90.0164 108.418 90.0164Z" fill="white"/>
<path d="M71.2514 90.0164H51.8282C51.5966 90.0164 51.3745 89.9245 51.2108 89.7607C51.047 89.597 50.9551 89.3749 50.9551 89.1433C50.9551 88.9118 51.047 88.6897 51.2108 88.526C51.3745 88.3622 51.5966 88.2702 51.8282 88.2702H70.3514V79.9959C70.3514 79.7643 70.4434 79.5423 70.6071 79.3785C70.7709 79.2148 70.993 79.1228 71.2245 79.1228C71.4561 79.1228 71.6782 79.2148 71.8419 79.3785C72.0056 79.5423 72.0976 79.7643 72.0976 79.9959V89.1433C72.0977 89.3703 72.0094 89.5884 71.8515 89.7514C71.6935 89.9144 71.4782 90.0094 71.2514 90.0164Z" fill="white"/>
<path d="M51.1703 48.0672H36.9454C36.7138 48.0672 36.4918 47.9753 36.328 47.8115C36.1643 47.6478 36.0723 47.4257 36.0723 47.1941C36.0723 46.9626 36.1643 46.7405 36.328 46.5768C36.4918 46.413 36.7138 46.321 36.9454 46.321H51.1703C51.4018 46.321 51.6239 46.413 51.7876 46.5768C51.9514 46.7405 52.0434 46.9626 52.0434 47.1941C52.0434 47.4257 51.9514 47.6478 51.7876 47.8115C51.6239 47.9753 51.4018 48.0672 51.1703 48.0672Z" fill="white"/>
<path d="M123.313 48.0672H109.102C108.87 48.0672 108.648 47.9753 108.484 47.8115C108.321 47.6478 108.229 47.4257 108.229 47.1941C108.229 46.9626 108.321 46.7405 108.484 46.5768C108.648 46.413 108.87 46.321 109.102 46.321H123.313C123.545 46.321 123.767 46.413 123.93 46.5768C124.094 46.7405 124.186 46.9626 124.186 47.1941C124.186 47.4257 124.094 47.6478 123.93 47.8115C123.767 47.9753 123.545 48.0672 123.313 48.0672Z" fill="white"/>
<path d="M52.9712 63.7027H39.7403C39.5087 63.7027 39.2866 63.6108 39.1229 63.447C38.9592 63.2833 38.8672 63.0612 38.8672 62.8296C38.8672 62.5981 38.9592 62.376 39.1229 62.2123C39.2866 62.0485 39.5087 61.9565 39.7403 61.9565H52.9846C53.2161 61.9565 53.4382 62.0485 53.602 62.2123C53.7657 62.376 53.8577 62.5981 53.8577 62.8296C53.8577 63.0612 53.7657 63.2833 53.602 63.447C53.4382 63.6108 53.2161 63.7027 52.9846 63.7027H52.9712Z" fill="white"/>
<path d="M120.736 63.7027H107.479C107.247 63.7027 107.025 63.6108 106.861 63.447C106.697 63.2833 106.605 63.0612 106.605 62.8296C106.605 62.5981 106.697 62.376 106.861 62.2123C107.025 62.0485 107.247 61.9565 107.479 61.9565H120.736C120.968 61.9565 121.19 62.0485 121.354 62.2123C121.517 62.376 121.609 62.5981 121.609 62.8296C121.609 63.0612 121.517 63.2833 121.354 63.447C121.19 63.6108 120.968 63.7027 120.736 63.7027Z" fill="white"/>
<path d="M112.972 10.3491C113.876 10.3465 114.761 10.6124 115.514 11.1132C116.267 11.614 116.854 12.3271 117.202 13.1622C117.549 13.9973 117.641 14.9167 117.465 15.8038C117.289 16.691 116.854 17.506 116.214 18.1455C115.575 18.785 114.76 19.2202 113.873 19.396C112.986 19.5718 112.066 19.4803 111.231 19.1329C110.396 18.7856 109.683 18.1981 109.182 17.445C108.681 16.6919 108.415 15.8071 108.418 14.9027C108.418 13.6951 108.898 12.5368 109.752 11.6829C110.606 10.8289 111.764 10.3491 112.972 10.3491Z" fill="white"/>
<path d="M112.972 20.3431C111.912 20.343 110.876 20.0295 109.994 19.442C109.112 18.8546 108.423 18.0193 108.015 17.0415C107.606 16.0636 107.496 14.9868 107.698 13.9464C107.9 12.906 108.405 11.9486 109.15 11.1946C109.895 10.4406 110.846 9.92357 111.883 9.70873C112.921 9.49389 113.999 9.59076 114.982 9.98715C115.965 10.3835 116.809 11.0618 117.407 11.9365C118.006 12.8112 118.332 13.8433 118.345 14.903C118.345 16.3342 117.781 17.7078 116.776 18.7261C115.77 19.7444 114.403 20.3254 112.972 20.3431ZM112.972 11.2225C112.24 11.2198 111.524 11.4346 110.915 11.8394C110.305 12.2443 109.83 12.8211 109.549 13.4966C109.267 14.1721 109.193 14.9159 109.335 15.6337C109.477 16.3515 109.829 17.0109 110.347 17.5283C110.864 18.0457 111.524 18.3978 112.241 18.5399C112.959 18.6821 113.703 18.6078 114.379 18.3265C115.054 18.0453 115.631 17.5697 116.036 16.9602C116.441 16.3507 116.655 15.6347 116.653 14.903C116.653 13.9269 116.265 12.9907 115.575 12.3005C114.884 11.6102 113.948 11.2225 112.972 11.2225Z" fill="white"/>
<path d="M127.868 42.6409C128.769 42.6409 129.649 42.9079 130.398 43.4083C131.147 43.9086 131.73 44.6198 132.075 45.4518C132.42 46.2839 132.51 47.1995 132.334 48.0828C132.158 48.9661 131.725 49.7775 131.088 50.4143C130.451 51.0511 129.64 51.4848 128.756 51.6605C127.873 51.8362 126.958 51.746 126.125 51.4014C125.293 51.0567 124.582 50.4731 124.082 49.7243C123.582 48.9754 123.314 48.095 123.314 47.1944C123.314 45.9867 123.794 44.8285 124.648 43.9746C125.502 43.1206 126.66 42.6409 127.868 42.6409Z" fill="white"/>
<path d="M127.869 52.6077C126.806 52.6077 125.768 52.2926 124.884 51.7022C124 51.1118 123.312 50.2727 122.905 49.2909C122.498 48.3091 122.392 47.2288 122.599 46.1865C122.807 45.1443 123.318 44.1869 124.07 43.4355C124.821 42.6841 125.779 42.1724 126.821 41.9651C127.863 41.7577 128.943 41.8642 129.925 42.2708C130.907 42.6775 131.746 43.3661 132.336 44.2497C132.927 45.1333 133.242 46.1721 133.242 47.2347C133.242 48.6597 132.676 50.0264 131.668 51.034C130.661 52.0416 129.294 52.6077 127.869 52.6077ZM127.869 43.514C127.141 43.514 126.43 43.7298 125.824 44.1342C125.219 44.5387 124.747 45.1135 124.469 45.786C124.19 46.4585 124.117 47.1985 124.259 47.9125C124.401 48.6264 124.752 49.2822 125.267 49.7969C125.781 50.3117 126.437 50.6622 127.151 50.8042C127.865 50.9462 128.605 50.8733 129.277 50.5948C129.95 50.3162 130.525 49.8445 130.929 49.2392C131.334 48.634 131.55 47.9224 131.55 47.1944C131.539 46.2253 131.146 45.2995 130.457 44.618C129.768 43.9365 128.838 43.5542 127.869 43.5543V43.514Z" fill="white"/>
<path d="M125.29 58.2358C126.191 58.2358 127.071 58.5029 127.82 59.0033C128.569 59.5036 129.152 60.2148 129.497 61.0468C129.842 61.8789 129.932 62.7945 129.756 63.6778C129.58 64.5611 129.147 65.3725 128.51 66.0093C127.873 66.6461 127.062 67.0798 126.178 67.2555C125.295 67.4312 124.379 67.341 123.547 66.9964C122.715 66.6517 122.004 66.0681 121.504 65.3192C121.003 64.5704 120.736 63.69 120.736 62.7894C120.74 61.5828 121.221 60.4267 122.074 59.5735C122.927 58.7203 124.083 58.2394 125.29 58.2358Z" fill="white"/>
<path d="M125.288 68.2157C124.228 68.2024 123.196 67.8761 122.322 67.2777C121.447 66.6793 120.769 65.8357 120.372 64.8528C119.976 63.8699 119.879 62.7918 120.094 61.754C120.309 60.7162 120.826 59.7651 121.58 59.0204C122.334 58.2757 123.291 57.7706 124.332 57.5687C125.372 57.3667 126.449 57.477 127.427 57.8855C128.405 58.2941 129.24 58.9827 129.827 59.8648C130.415 60.7469 130.728 61.7829 130.728 62.8427C130.728 63.554 130.587 64.2582 130.313 64.9145C130.039 65.5708 129.637 66.1661 129.131 66.6659C128.625 67.1657 128.025 67.5601 127.365 67.8261C126.705 68.0922 125.999 68.2246 125.288 68.2157ZM125.288 59.1085C124.561 59.1112 123.851 59.3293 123.247 59.7353C122.644 60.1414 122.174 60.7171 121.897 61.3898C121.621 62.0626 121.55 62.8022 121.694 63.5152C121.837 64.2283 122.189 64.8828 122.704 65.3962C123.219 65.9096 123.875 66.2588 124.589 66.3997C125.302 66.5406 126.041 66.467 126.713 66.188C127.385 65.9091 127.959 65.4373 128.363 64.8324C128.767 64.2274 128.982 63.5164 128.982 62.789C128.982 62.3046 128.886 61.8249 128.701 61.3775C128.515 60.93 128.243 60.5237 127.899 60.1818C127.556 59.8399 127.149 59.569 126.701 59.3849C126.253 59.2007 125.773 59.1068 125.288 59.1085Z" fill="white"/>
<path d="M112.972 84.5898C113.872 84.5898 114.753 84.8569 115.501 85.3573C116.25 85.8576 116.834 86.5688 117.178 87.4009C117.523 88.2329 117.613 89.1485 117.438 90.0318C117.262 90.9151 116.828 91.7265 116.191 92.3633C115.555 93.0001 114.743 93.4338 113.86 93.6095C112.977 93.7852 112.061 93.695 111.229 93.3504C110.397 93.0057 109.686 92.4221 109.185 91.6733C108.685 90.9244 108.418 90.044 108.418 89.1434C108.418 87.9358 108.898 86.7775 109.752 85.9236C110.606 85.0696 111.764 84.5898 112.972 84.5898Z" fill="white"/>
<path d="M112.973 94.597C111.91 94.597 110.871 94.2818 109.988 93.6914C109.104 93.1011 108.415 92.2619 108.009 91.2801C107.602 90.2984 107.496 89.218 107.703 88.1758C107.91 87.1335 108.422 86.1762 109.173 85.4248C109.925 84.6733 110.882 84.1616 111.924 83.9543C112.967 83.747 114.047 83.8534 115.029 84.26C116.01 84.6667 116.85 85.3554 117.44 86.2389C118.03 87.1225 118.345 88.1613 118.345 89.224C118.345 90.649 117.779 92.0156 116.772 93.0233C115.764 94.0309 114.398 94.597 112.973 94.597ZM112.973 85.4898C112.245 85.4898 111.533 85.7057 110.928 86.1101C110.323 86.5145 109.851 87.0893 109.572 87.7618C109.294 88.4343 109.221 89.1744 109.363 89.8883C109.505 90.6022 109.855 91.258 110.37 91.7728C110.885 92.2875 111.541 92.638 112.255 92.78C112.968 92.922 113.708 92.8491 114.381 92.5706C115.054 92.292 115.628 91.8203 116.033 91.215C116.437 90.6098 116.653 89.8982 116.653 89.1703C116.657 88.6847 116.564 88.2032 116.381 87.7536C116.197 87.3039 115.927 86.895 115.585 86.5504C115.242 86.2058 114.836 85.9323 114.387 85.7456C113.939 85.559 113.458 85.463 112.973 85.463V85.4898Z" fill="white"/>
<path d="M47.2997 84.5898C48.2003 84.5898 49.0807 84.8569 49.8295 85.3573C50.5784 85.8576 51.162 86.5688 51.5066 87.4009C51.8513 88.2329 51.9415 89.1485 51.7658 90.0318C51.5901 90.9151 51.1564 91.7265 50.5196 92.3633C49.8827 93.0001 49.0713 93.4338 48.188 93.6095C47.3047 93.7852 46.3892 93.695 45.5571 93.3504C44.725 93.0057 44.0139 92.4221 43.5135 91.6733C43.0132 90.9244 42.7461 90.044 42.7461 89.1434C42.7461 87.9358 43.2259 86.7775 44.0798 85.9236C44.9338 85.0696 46.092 84.5898 47.2997 84.5898Z" fill="white"/>
<path d="M47.2987 94.597C46.2361 94.597 45.1973 94.2818 44.3137 93.6914C43.4301 93.1011 42.7414 92.2619 42.3348 91.2801C41.9281 90.2984 41.8217 89.218 42.029 88.1758C42.2363 87.1335 42.7481 86.1762 43.4995 85.4248C44.2509 84.6733 45.2083 84.1616 46.2505 83.9543C47.2928 83.747 48.3731 83.8534 49.3549 84.26C50.3367 84.6667 51.1758 85.3554 51.7662 86.2389C52.3566 87.1225 52.6717 88.1613 52.6717 89.224C52.6717 90.649 52.1056 92.0156 51.098 93.0233C50.0904 94.0309 48.7237 94.597 47.2987 94.597ZM47.2987 85.4898C46.5708 85.4898 45.8592 85.7057 45.254 86.1101C44.6487 86.5145 44.177 87.0893 43.8984 87.7618C43.6199 88.4343 43.547 89.1744 43.689 89.8883C43.831 90.6022 44.1815 91.258 44.6963 91.7728C45.211 92.2875 45.8668 92.638 46.5807 92.78C47.2947 92.922 48.0347 92.8491 48.7072 92.5706C49.3797 92.292 49.9545 91.8203 50.3589 91.215C50.7634 90.6098 50.9792 89.8982 50.9792 89.1703C50.9827 88.6847 50.8902 88.2032 50.7068 87.7536C50.5234 87.3039 50.2529 86.895 49.9108 86.5504C49.5687 86.2058 49.1617 85.9323 48.7134 85.7456C48.2651 85.559 47.7843 85.463 47.2987 85.463V85.4898Z" fill="white"/>
<path d="M35.1688 58.2358C36.0694 58.2358 36.9498 58.5029 37.6986 59.0033C38.4475 59.5036 39.0311 60.2148 39.3758 61.0468C39.7204 61.8789 39.8106 62.7945 39.6349 63.6778C39.4592 64.5611 39.0255 65.3725 38.3887 66.0093C37.7519 66.6461 36.9405 67.0798 36.0572 67.2555C35.1739 67.4312 34.2583 67.341 33.4262 66.9964C32.5942 66.6517 31.883 66.0681 31.3827 65.3192C30.8823 64.5704 30.6152 63.69 30.6152 62.7894C30.6152 61.5817 31.095 60.4235 31.949 59.5696C32.8029 58.7156 33.9611 58.2358 35.1688 58.2358Z" fill="white"/>
<path d="M35.1718 68.2161C34.1091 68.2161 33.0703 67.901 32.1867 67.3106C31.3032 66.7202 30.6145 65.8811 30.2078 64.8993C29.8012 63.9175 29.6948 62.8372 29.9021 61.795C30.1094 60.7527 30.6211 59.7954 31.3725 59.0439C32.124 58.2925 33.0813 57.7808 34.1236 57.5735C35.1658 57.3661 36.2462 57.4726 37.2279 57.8792C38.2097 58.2859 39.0488 58.9745 39.6392 59.8581C40.2296 60.7417 40.5447 61.7805 40.5447 62.8431C40.5447 64.2681 39.9787 65.6348 38.971 66.6424C37.9634 67.65 36.5968 68.2161 35.1718 68.2161ZM35.1718 59.1089C34.4439 59.1089 33.7323 59.3248 33.127 59.7292C32.5218 60.1337 32.05 60.7085 31.7715 61.381C31.4929 62.0535 31.42 62.7935 31.5621 63.5075C31.7041 64.2214 32.0546 64.8772 32.5693 65.3919C33.084 65.9066 33.7398 66.2572 34.4538 66.3992C35.1677 66.5412 35.9077 66.4683 36.5803 66.1898C37.2528 65.9112 37.8276 65.4394 38.232 64.8342C38.6364 64.2289 38.8523 63.5174 38.8523 62.7894C38.8523 62.3061 38.7571 61.8275 38.5721 61.381C38.3871 60.9345 38.116 60.5287 37.7743 60.187C37.4325 59.8452 37.0268 59.5741 36.5803 59.3891C36.1337 59.2042 35.6551 59.1089 35.1718 59.1089Z" fill="white"/>
<path d="M32.4032 42.6409C33.3038 42.6409 34.1842 42.908 34.933 43.4083C35.6819 43.9087 36.2655 44.6198 36.6102 45.4519C36.9548 46.2839 37.045 47.1995 36.8693 48.0828C36.6936 48.9661 36.2599 49.7775 35.6231 50.4143C34.9863 51.0511 34.1749 51.4848 33.2916 51.6605C32.4083 51.8362 31.4927 51.746 30.6606 51.4014C29.8286 51.0568 29.1174 50.4731 28.617 49.7243C28.1167 48.9755 27.8496 48.0951 27.8496 47.1944C27.8479 46.596 27.9644 46.003 28.1927 45.4498C28.4209 44.8965 28.7562 44.3938 29.1794 43.9706C29.6026 43.5474 30.1053 43.2121 30.6585 42.9839C31.2118 42.7557 31.8047 42.6391 32.4032 42.6409Z" fill="white"/>
<path d="M32.4042 52.6077C31.3415 52.6077 30.3027 52.2926 29.4192 51.7022C28.5356 51.1118 27.8469 50.2727 27.4403 49.2909C27.0336 48.3091 26.9272 47.2288 27.1345 46.1865C27.3418 45.1443 27.8535 44.1869 28.605 43.4355C29.3564 42.6841 30.3138 42.1724 31.356 41.9651C32.3983 41.7577 33.4786 41.8642 34.4604 42.2708C35.4421 42.6775 36.2813 43.3661 36.8716 44.2497C37.462 45.1333 37.7772 46.1721 37.7772 47.2347C37.7772 48.6597 37.2111 50.0264 36.2035 51.034C35.1958 52.0416 33.8292 52.6077 32.4042 52.6077ZM32.4042 43.514C31.6757 43.5113 30.9628 43.7249 30.3558 44.1277C29.7488 44.5305 29.275 45.1044 28.9944 45.7767C28.7137 46.449 28.6389 47.1894 28.7794 47.9042C28.9199 48.6191 29.2694 49.2761 29.7835 49.7922C30.2977 50.3082 30.9535 50.6601 31.6678 50.8032C32.3821 50.9463 33.1228 50.8742 33.7961 50.596C34.4694 50.3179 35.045 49.8462 35.45 49.2406C35.855 48.6351 36.0712 47.9229 36.0712 47.1944C36.0606 46.2276 35.6701 45.3039 34.9839 44.6227C34.2977 43.9416 33.3711 43.5578 32.4042 43.5543V43.514Z" fill="white"/>
<path d="M47.2997 10.3491C48.2041 10.3465 49.089 10.6124 49.8421 11.1132C50.5951 11.614 51.1826 12.3271 51.5299 13.1622C51.8772 13.9973 51.9688 14.9167 51.793 15.8038C51.6172 16.691 51.182 17.506 50.5425 18.1455C49.903 18.785 49.088 19.2202 48.2008 19.396C47.3136 19.5718 46.3943 19.4803 45.5592 19.1329C44.7242 18.7856 44.011 18.1981 43.5102 17.445C43.0094 16.6919 42.7435 15.8071 42.7461 14.9027C42.7461 13.6951 43.2259 12.5368 44.0798 11.6829C44.9338 10.8289 46.092 10.3491 47.2997 10.3491Z" fill="white"/>
<path d="M47.2983 20.3431C46.2385 20.343 45.2024 20.0295 44.3204 19.442C43.4383 18.8546 42.7497 18.0193 42.3411 17.0415C41.9326 16.0636 41.8223 14.9868 42.0242 13.9464C42.2261 12.906 42.7312 11.9486 43.476 11.1946C44.2207 10.4406 45.1717 9.92357 46.2095 9.70873C47.2473 9.49389 48.3255 9.59076 49.3083 9.98715C50.2912 10.3835 51.1349 11.0618 51.7333 11.9365C52.3317 12.8112 52.658 13.8433 52.6713 14.903C52.6714 16.3342 52.1075 17.7078 51.1017 18.7261C50.096 19.7444 48.7295 20.3254 47.2983 20.3431ZM47.2983 11.2225C46.5666 11.2198 45.8506 11.4346 45.241 11.8394C44.6315 12.2443 44.156 12.8211 43.8748 13.4966C43.5935 14.1721 43.5192 14.9159 43.6613 15.6337C43.8034 16.3515 44.1555 17.0109 44.6729 17.5283C45.1903 18.0457 45.8498 18.3978 46.5676 18.5399C47.2854 18.6821 48.0292 18.6078 48.7047 18.3265C49.3802 18.0453 49.957 17.5697 50.3618 16.9602C50.7667 16.3507 50.9814 15.6347 50.9788 14.903C50.9788 13.9269 50.591 12.9907 49.9008 12.3005C49.2106 11.6102 48.2744 11.2225 47.2983 11.2225Z" fill="white"/>
</svg>
