<svg width="160" height="104" viewBox="0 0 160 104" fill="none" xmlns="http://www.w3.org/2000/svg">
<rect x="2.03125" y="1.59717" width="156" height="100" rx="8" stroke="white" stroke-width="3" stroke-linecap="round" stroke-linejoin="round"/>
<circle cx="80.5157" cy="31.8089" r="2.59579" fill="white"/>
<path d="M66.4917 41.3453C65.227 39.5369 64.3416 37.5108 63.8848 35.3794" stroke="white" stroke-width="2" stroke-linecap="round" stroke-linejoin="round"/>
<path d="M76.9447 48.4293C75.1951 48.0502 73.5238 47.3997 71.9902 46.5075C70.5392 45.6633 70.4605 43.6973 71.633 42.4958V42.4958C72.6819 41.421 74.3651 41.3629 75.721 42.0086C77.164 42.6959 78.7481 43.0737 80.369 43.1042C82.8821 43.1516 85.3386 42.3615 87.3451 40.8604" stroke="white" stroke-width="2" stroke-linecap="round" stroke-linejoin="round"/>
<path d="M70.282 36.8706C69.5572 35.4248 69.155 33.8388 69.1034 32.2224C69.0517 30.606 69.3518 28.9977 69.9828 27.5086C70.6139 26.0195 71.5609 24.6851 72.7584 23.5976C73.9559 22.5102 75.3753 21.6956 76.9186 21.2102" stroke="white" stroke-width="2" stroke-linecap="round" stroke-linejoin="round"/>
<path d="M89.9622 38.0595C90.6154 37.0586 91.0981 35.9629 91.3969 34.8173C91.7907 33.308 93.0195 32.0229 94.5793 32.0229V32.0229C96.1383 32.0229 97.4263 33.2953 97.1657 34.8323C96.7588 37.2323 95.8327 39.526 94.4393 41.5464C92.5095 44.3446 89.7753 46.4854 86.6016 47.6833" stroke="white" stroke-width="2" stroke-linecap="round" stroke-linejoin="round"/>
<path d="M90.6985 27.6153C89.8859 25.5068 88.4721 23.6972 86.6407 22.4219C85.6127 21.706 84.4798 21.1771 83.2918 20.8508C81.7493 20.4271 80.43 21.7614 80.43 23.361V23.361C80.43 24.96 81.8164 26.1993 83.1807 27.0332C83.4412 27.1924 83.6895 27.3748 83.9225 27.5793C84.8951 28.4326 85.5374 29.6136 85.7334 30.909C85.9294 32.2045 85.6663 33.5289 84.9915 34.6432C84.3166 35.7575 83.2746 36.5882 82.0536 36.9853C80.8326 37.3825 79.513 37.3199 78.3331 36.8089C77.1532 36.2978 76.1908 35.372 75.6197 34.1986C75.0486 33.0252 74.9063 31.6816 75.2187 30.4103C75.531 29.139 76.2773 28.0239 77.3229 27.2662" stroke="white" stroke-width="2" stroke-linecap="round" stroke-linejoin="round"/>
<path d="M90.3242 18.2268C93.337 20.3493 95.5581 23.3579 96.6554 26.8027" stroke="white" stroke-width="2" stroke-linecap="round" stroke-linejoin="round"/>
<path d="M63.5117 32.0234C63.5132 29.272 64.1693 26.5612 65.4248 24.1197C66.6803 21.6782 68.4983 19.5775 70.7255 17.9948C72.9528 16.4122 75.524 15.3939 78.2223 15.0258C80.9206 14.6578 83.6669 14.9507 86.2296 15.8801" stroke="white" stroke-width="2" stroke-linecap="round" stroke-linejoin="round"/>
<path d="M20.0312 60.5972H141.031" stroke="white" stroke-width="2" stroke-linecap="round" stroke-linejoin="round"/>
<path d="M20.0312 69.5972H141.031" stroke="white" stroke-width="2" stroke-linecap="round" stroke-linejoin="round"/>
<path d="M20.0312 78.5972H141.031" stroke="white" stroke-width="2" stroke-linecap="round" stroke-linejoin="round"/>
<path d="M20.0312 88.5972H141.031" stroke="white" stroke-width="2" stroke-linecap="round" stroke-linejoin="round"/>
</svg>
