<svg width="160" height="104" viewBox="0 0 160 104" fill="none" xmlns="http://www.w3.org/2000/svg">
<rect x="2.03125" y="1.59717" width="156" height="100" rx="8" stroke="white" stroke-width="3" stroke-linecap="round" stroke-linejoin="round"/>
<path d="M40.3957 10.6292H18.0645V32.325H40.3957V10.6292Z" fill="#181F23"/>
<path d="M40.3948 33.3578H18.0636C17.7898 33.3578 17.5272 33.2491 17.3336 33.0555C17.14 32.8619 17.0312 32.5993 17.0312 32.3255V10.6296C17.0312 10.3558 17.14 10.0932 17.3336 9.89955C17.5272 9.70594 17.7898 9.59717 18.0636 9.59717H40.3948C40.6686 9.59717 40.9312 9.70594 41.1248 9.89955C41.3185 10.0932 41.4272 10.3558 41.4272 10.6296V32.3255C41.4272 32.5993 41.3185 32.8619 41.1248 33.0555C40.9312 33.2491 40.6686 33.3578 40.3948 33.3578ZM19.096 31.2931H39.3625V11.6619H19.096V31.2931Z" fill="white"/>
<path d="M40.3957 71.8264H18.0645V93.5223H40.3957V71.8264Z" fill="#181F23"/>
<path d="M40.3948 94.5703H18.0636C17.7898 94.5703 17.5272 94.4615 17.3336 94.2679C17.14 94.0743 17.0312 93.8117 17.0312 93.5379V71.8261C17.0312 71.5523 17.14 71.2897 17.3336 71.0961C17.5272 70.9025 17.7898 70.7937 18.0636 70.7937H40.3948C40.6686 70.7937 40.9312 70.9025 41.1248 71.0961C41.3185 71.2897 41.4272 71.5523 41.4272 71.8261V93.5379C41.4272 93.8117 41.3185 94.0743 41.1248 94.2679C40.9312 94.4615 40.6686 94.5703 40.3948 94.5703ZM19.096 92.5055H39.3625V72.8585H19.096V92.5055Z" fill="white"/>
<path d="M141.712 10.6292H119.396V32.325H141.712V10.6292Z" fill="#181F23"/>
<path d="M141.71 33.3578H119.474C119.2 33.3578 118.937 33.2491 118.744 33.0555C118.55 32.8619 118.441 32.5993 118.441 32.3255V10.6296C118.441 10.3558 118.55 10.0932 118.744 9.89955C118.937 9.70594 119.2 9.59717 119.474 9.59717H141.71C141.984 9.59717 142.246 9.70594 142.44 9.89955C142.633 10.0932 142.742 10.3558 142.742 10.6296V32.3255C142.742 32.5993 142.633 32.8619 142.44 33.0555C142.246 33.2491 141.984 33.3578 141.71 33.3578ZM120.427 31.2931H140.677V11.6619H120.427V31.2931Z" fill="white"/>
<path d="M141.712 71.8264H119.396V93.5223H141.712V71.8264Z" fill="#181F23"/>
<path d="M141.71 94.5703H119.474C119.2 94.5703 118.937 94.4615 118.744 94.2679C118.55 94.0743 118.441 93.8117 118.441 93.5379V71.8261C118.441 71.5523 118.55 71.2897 118.744 71.0961C118.937 70.9025 119.2 70.7937 119.474 70.7937H141.71C141.984 70.7937 142.246 70.9025 142.44 71.0961C142.633 71.2897 142.742 71.5523 142.742 71.8261V93.5379C142.742 93.8117 142.633 94.0743 142.44 94.2679C142.246 94.4615 141.984 94.5703 141.71 94.5703ZM120.427 92.5055H140.677V72.8585H120.427V92.5055Z" fill="white"/>
<path d="M101.242 33.2942H58.5176V70.857H101.242V33.2942Z" fill="white"/>
<path d="M101.257 71.8895H58.5168C58.243 71.8895 57.9804 71.7808 57.7868 71.5872C57.5932 71.3936 57.4844 71.131 57.4844 70.8572V33.2943C57.4844 33.1588 57.5111 33.0245 57.563 32.8993C57.6149 32.774 57.691 32.6602 57.7868 32.5643C57.8827 32.4685 57.9965 32.3924 58.1218 32.3405C58.247 32.2887 58.3812 32.262 58.5168 32.262H101.257C101.53 32.2661 101.79 32.3762 101.983 32.5689C102.176 32.7616 102.286 33.0218 102.29 33.2943V70.8572C102.286 71.1297 102.176 71.3899 101.983 71.5826C101.79 71.7754 101.53 71.8854 101.257 71.8895ZM59.5492 69.8248H100.225V34.3267H59.5492V69.8248Z" fill="white"/>
<path d="M58.5153 40.4735H29.2433C28.9695 40.4735 28.7069 40.3647 28.5133 40.1711C28.3197 39.9775 28.2109 39.7149 28.2109 39.4411V32.3097C28.2109 32.0359 28.3197 31.7733 28.5133 31.5797C28.7069 31.3861 28.9695 31.2773 29.2433 31.2773C29.5171 31.2773 29.7797 31.3861 29.9733 31.5797C30.1669 31.7733 30.2757 32.0359 30.2757 32.3097V38.4087H58.5153C58.7891 38.4087 59.0517 38.5175 59.2453 38.7111C59.4389 38.9047 59.5477 39.1673 59.5477 39.4411C59.5477 39.7149 59.4389 39.9775 59.2453 40.1711C59.0517 40.3647 58.7891 40.4735 58.5153 40.4735Z" fill="white"/>
<path d="M29.2433 72.8582C28.9695 72.8582 28.7069 72.7494 28.5133 72.5558C28.3197 72.3622 28.2109 72.0997 28.2109 71.8258V63.8844C28.2109 63.6106 28.3197 63.348 28.5133 63.1544C28.7069 62.9608 28.9695 62.8521 29.2433 62.8521H58.5153C58.7891 62.8521 59.0517 62.9608 59.2453 63.1544C59.4389 63.348 59.5477 63.6106 59.5477 63.8844C59.5477 64.1583 59.4389 64.4208 59.2453 64.6144C59.0517 64.808 58.7891 64.9168 58.5153 64.9168H30.2757V71.8099C30.2778 71.9469 30.2527 72.0828 30.2017 72.2099C30.1508 72.337 30.0751 72.4527 29.979 72.5502C29.8829 72.6478 29.7684 72.7253 29.6421 72.7781C29.5158 72.831 29.3802 72.8582 29.2433 72.8582Z" fill="white"/>
<path d="M130.594 39.9975H101.259C100.985 39.9975 100.723 39.8887 100.529 39.6951C100.335 39.5015 100.227 39.2389 100.227 38.9651C100.227 38.6913 100.335 38.4287 100.529 38.2351C100.723 38.0415 100.985 37.9327 101.259 37.9327H129.514V32.3261C129.514 32.0523 129.623 31.7897 129.817 31.5961C130.01 31.4025 130.273 31.2937 130.547 31.2937C130.821 31.2937 131.083 31.4025 131.277 31.5961C131.47 31.7897 131.579 32.0523 131.579 32.3261V38.9651C131.576 39.2297 131.472 39.4832 131.29 39.6747C131.107 39.8661 130.859 39.9815 130.594 39.9975Z" fill="white"/>
<path d="M130.594 72.8586C130.321 72.8586 130.058 72.7498 129.865 72.5562C129.671 72.3626 129.562 72.1 129.562 71.8262V65.0919H101.259C100.985 65.0919 100.723 64.9831 100.529 64.7895C100.335 64.5959 100.227 64.3333 100.227 64.0595C100.227 63.7857 100.335 63.5231 100.529 63.3295C100.723 63.1359 100.985 63.0271 101.259 63.0271H130.594C130.868 63.0271 131.131 63.1359 131.324 63.3295C131.518 63.5231 131.627 63.7857 131.627 64.0595V71.8262C131.627 72.1 131.518 72.3626 131.324 72.5562C131.131 72.7498 130.868 72.8586 130.594 72.8586Z" fill="white"/>
<path d="M70.3192 38.8853C71.1869 38.8853 72.0351 39.1428 72.7563 39.6252C73.4776 40.1076 74.0394 40.7931 74.3707 41.5951C74.702 42.397 74.7879 43.2792 74.6175 44.13C74.4471 44.9808 74.028 45.7618 73.4133 46.3743C72.7987 46.9867 72.0161 47.4029 71.1647 47.5703C70.3133 47.7376 69.4314 47.6485 68.6306 47.3143C67.8299 46.9801 67.1465 46.4158 66.6667 45.6928C66.1869 44.9698 65.9324 44.1207 65.9356 43.2531C65.9356 42.6781 66.0491 42.1089 66.2696 41.5779C66.4901 41.047 66.8133 40.5647 67.2205 40.1589C67.6278 39.7531 68.1112 39.4318 68.6429 39.2132C69.1747 38.9946 69.7443 38.8832 70.3192 38.8853Z" fill="#181F23"/>
<path d="M70.3205 48.6687C69.2487 48.6719 68.2 48.3569 67.3072 47.7637C66.4145 47.1705 65.7179 46.3257 65.3055 45.3363C64.8931 44.347 64.7836 43.2575 64.9908 42.2058C65.198 41.1542 65.7126 40.1877 66.4694 39.4286C67.2262 38.6696 68.1911 38.1522 69.2422 37.9419C70.2932 37.7316 71.3831 37.838 72.3736 38.2474C73.3642 38.6569 74.211 39.3511 74.8069 40.2421C75.4027 41.1331 75.7207 42.1808 75.7207 43.2527C75.7207 44.6864 75.1523 46.0615 74.14 47.0768C73.1277 48.092 71.7542 48.6645 70.3205 48.6687ZM70.3205 39.9173C69.6564 39.9142 69.0063 40.1084 68.4528 40.4755C67.8992 40.8425 67.4672 41.3657 67.2115 41.9787C66.9559 42.5917 66.8883 43.2669 67.0171 43.9185C67.1459 44.57 67.4654 45.1686 67.935 45.6382C68.4047 46.1079 69.0033 46.4274 69.6548 46.5562C70.3064 46.685 70.9815 46.6173 71.5945 46.3617C72.2075 46.106 72.7308 45.674 73.0978 45.1205C73.4648 44.567 73.6591 43.9168 73.656 43.2527C73.6518 42.3694 73.2991 41.5234 72.6745 40.8988C72.0499 40.2742 71.2038 39.9215 70.3205 39.9173Z" fill="#181F23"/>
<path d="M58.5184 45.5721H54.0871C53.8133 45.5721 53.5507 45.4633 53.357 45.2697C53.1634 45.0761 53.0547 44.8135 53.0547 44.5397C53.0547 44.2659 53.1634 44.0033 53.357 43.8097C53.5507 43.6161 53.8133 43.5073 54.0871 43.5073H58.5184C58.7922 43.5073 59.0547 43.6161 59.2483 43.8097C59.4419 44.0033 59.5508 44.2659 59.5508 44.5397C59.5508 44.8135 59.4419 45.0761 59.2483 45.2697C59.0547 45.4633 58.7922 45.5721 58.5184 45.5721Z" fill="white"/>
<path d="M58.5184 49.3516H54.0871C53.8133 49.3516 53.5507 49.2429 53.357 49.0493C53.1634 48.8556 53.0547 48.5931 53.0547 48.3193C53.0547 48.0455 53.1634 47.7829 53.357 47.5892C53.5507 47.3956 53.8133 47.2869 54.0871 47.2869H58.5184C58.7922 47.2869 59.0547 47.3956 59.2483 47.5892C59.4419 47.7829 59.5508 48.0455 59.5508 48.3193C59.5508 48.5931 59.4419 48.8556 59.2483 49.0493C59.0547 49.2429 58.7922 49.3516 58.5184 49.3516Z" fill="white"/>
<path d="M58.5184 53.1795H54.0871C53.8133 53.1795 53.5507 53.0707 53.357 52.8771C53.1634 52.6835 53.0547 52.4209 53.0547 52.1471C53.0547 51.8733 53.1634 51.6107 53.357 51.4171C53.5507 51.2235 53.8133 51.1147 54.0871 51.1147H58.5184C58.7922 51.1147 59.0547 51.2235 59.2483 51.4171C59.4419 51.6107 59.5508 51.8733 59.5508 52.1471C59.5508 52.4209 59.4419 52.6835 59.2483 52.8771C59.0547 53.0707 58.7922 53.1795 58.5184 53.1795Z" fill="white"/>
<path d="M58.5184 56.8807H54.0871C53.8133 56.8807 53.5507 56.7719 53.357 56.5783C53.1634 56.3847 53.0547 56.1221 53.0547 55.8483C53.0547 55.5745 53.1634 55.3119 53.357 55.1183C53.5507 54.9247 53.8133 54.8159 54.0871 54.8159H58.5184C58.7922 54.8159 59.0547 54.9247 59.2483 55.1183C59.4419 55.3119 59.5508 55.5745 59.5508 55.8483C59.5508 56.1221 59.4419 56.3847 59.2483 56.5783C59.0547 56.7719 58.7922 56.8807 58.5184 56.8807Z" fill="white"/>
<path d="M58.5184 60.6441H54.0871C53.8133 60.6441 53.5507 60.5353 53.357 60.3417C53.1634 60.1481 53.0547 59.8855 53.0547 59.6117C53.0547 59.3379 53.1634 59.0753 53.357 58.8817C53.5507 58.6881 53.8133 58.5793 54.0871 58.5793H58.5184C58.7922 58.5793 59.0547 58.6881 59.2483 58.8817C59.4419 59.0753 59.5508 59.3379 59.5508 59.6117C59.5508 59.8855 59.4419 60.1481 59.2483 60.3417C59.0547 60.5353 58.7922 60.6441 58.5184 60.6441Z" fill="white"/>
<path d="M105.706 45.5721H101.259C100.985 45.5721 100.723 45.4633 100.529 45.2697C100.335 45.0761 100.227 44.8135 100.227 44.5397C100.227 44.2659 100.335 44.0033 100.529 43.8097C100.723 43.6161 100.985 43.5073 101.259 43.5073H105.706C105.98 43.5073 106.243 43.6161 106.436 43.8097C106.63 44.0033 106.738 44.2659 106.738 44.5397C106.738 44.8135 106.63 45.0761 106.436 45.2697C106.243 45.4633 105.98 45.5721 105.706 45.5721Z" fill="white"/>
<path d="M105.706 49.3516H101.259C100.985 49.3516 100.723 49.2429 100.529 49.0493C100.335 48.8556 100.227 48.5931 100.227 48.3193C100.227 48.0455 100.335 47.7829 100.529 47.5892C100.723 47.3956 100.985 47.2869 101.259 47.2869H105.706C105.98 47.2869 106.243 47.3956 106.436 47.5892C106.63 47.7829 106.738 48.0455 106.738 48.3193C106.738 48.5931 106.63 48.8556 106.436 49.0493C106.243 49.2429 105.98 49.3516 105.706 49.3516Z" fill="white"/>
<path d="M105.706 53.1795H101.259C100.985 53.1795 100.723 53.0707 100.529 52.8771C100.335 52.6835 100.227 52.4209 100.227 52.1471C100.227 51.8733 100.335 51.6107 100.529 51.4171C100.723 51.2235 100.985 51.1147 101.259 51.1147H105.706C105.98 51.1147 106.243 51.2235 106.436 51.4171C106.63 51.6107 106.738 51.8733 106.738 52.1471C106.738 52.4209 106.63 52.6835 106.436 52.8771C106.243 53.0707 105.98 53.1795 105.706 53.1795Z" fill="white"/>
<path d="M105.706 56.8807H101.259C100.985 56.8807 100.723 56.7719 100.529 56.5783C100.335 56.3847 100.227 56.1221 100.227 55.8483C100.227 55.5745 100.335 55.3119 100.529 55.1183C100.723 54.9247 100.985 54.8159 101.259 54.8159H105.706C105.98 54.8159 106.243 54.9247 106.436 55.1183C106.63 55.3119 106.738 55.5745 106.738 55.8483C106.738 56.1221 106.63 56.3847 106.436 56.5783C106.243 56.7719 105.98 56.8807 105.706 56.8807Z" fill="white"/>
<path d="M105.706 60.6441H101.259C100.985 60.6441 100.723 60.5353 100.529 60.3417C100.335 60.1481 100.227 59.8855 100.227 59.6117C100.227 59.3379 100.335 59.0753 100.529 58.8817C100.723 58.6881 100.985 58.5793 101.259 58.5793H105.706C105.98 58.5793 106.243 58.6881 106.436 58.8817C106.63 59.0753 106.738 59.3379 106.738 59.6117C106.738 59.8855 106.63 60.1481 106.436 60.3417C106.243 60.5353 105.98 60.6441 105.706 60.6441Z" fill="white"/>
<path d="M34.9301 16.6495H23.5421C23.2683 16.6495 23.0057 16.5407 22.8121 16.3471C22.6185 16.1535 22.5098 15.8909 22.5098 15.6171C22.5098 15.3433 22.6185 15.0807 22.8121 14.8871C23.0057 14.6935 23.2683 14.5847 23.5421 14.5847H34.9301C35.2039 14.5847 35.4665 14.6935 35.6601 14.8871C35.8537 15.0807 35.9625 15.3433 35.9625 15.6171C35.9625 15.8909 35.8537 16.1535 35.6601 16.3471C35.4665 16.5407 35.2039 16.6495 34.9301 16.6495Z" fill="white"/>
<path d="M34.9301 22.5101H23.5421C23.2683 22.5101 23.0057 22.4013 22.8121 22.2077C22.6185 22.0141 22.5098 21.7515 22.5098 21.4777C22.5098 21.2039 22.6185 20.9413 22.8121 20.7477C23.0057 20.5541 23.2683 20.4453 23.5421 20.4453H34.9301C35.2039 20.4453 35.4665 20.5541 35.6601 20.7477C35.8537 20.9413 35.9625 21.2039 35.9625 21.4777C35.9625 21.7515 35.8537 22.0141 35.6601 22.2077C35.4665 22.4013 35.2039 22.5101 34.9301 22.5101Z" fill="white"/>
<path d="M34.9311 28.3707H32.6281C32.3543 28.3707 32.0917 28.2619 31.8981 28.0683C31.7045 27.8747 31.5957 27.6121 31.5957 27.3383C31.5957 27.0645 31.7045 26.8019 31.8981 26.6083C32.0917 26.4147 32.3543 26.3059 32.6281 26.3059H34.9311C35.2049 26.3059 35.4675 26.4147 35.6611 26.6083C35.8547 26.8019 35.9635 27.0645 35.9635 27.3383C35.9635 27.6121 35.8547 27.8747 35.6611 28.0683C35.4675 28.2619 35.2049 28.3707 34.9311 28.3707Z" fill="white"/>
<path d="M28.3421 28.3707H23.5773C23.3035 28.3707 23.0409 28.2619 22.8473 28.0683C22.6537 27.8747 22.5449 27.6121 22.5449 27.3383C22.5449 27.0645 22.6537 26.8019 22.8473 26.6083C23.0409 26.4147 23.3035 26.3059 23.5773 26.3059H28.3421C28.6159 26.3059 28.8785 26.4147 29.0721 26.6083C29.2658 26.8019 29.3745 27.0645 29.3745 27.3383C29.3745 27.6121 29.2658 27.8747 29.0721 28.0683C28.8785 28.2619 28.6159 28.3707 28.3421 28.3707Z" fill="white"/>
<path d="M34.9301 77.845H23.5421C23.2683 77.845 23.0057 77.7363 22.8121 77.5427C22.6185 77.3491 22.5098 77.0865 22.5098 76.8127C22.5098 76.5389 22.6185 76.2763 22.8121 76.0827C23.0057 75.889 23.2683 75.7803 23.5421 75.7803H34.9301C35.2039 75.7803 35.4665 75.889 35.6601 76.0827C35.8537 76.2763 35.9625 76.5389 35.9625 76.8127C35.9625 77.0865 35.8537 77.3491 35.6601 77.5427C35.4665 77.7363 35.2039 77.845 34.9301 77.845Z" fill="white"/>
<path d="M34.9301 83.7056H23.5421C23.2683 83.7056 23.0057 83.5969 22.8121 83.4033C22.6185 83.2096 22.5098 82.9471 22.5098 82.6733C22.5098 82.3995 22.6185 82.1369 22.8121 81.9433C23.0057 81.7496 23.2683 81.6409 23.5421 81.6409H34.9301C35.2039 81.6409 35.4665 81.7496 35.6601 81.9433C35.8537 82.1369 35.9625 82.3995 35.9625 82.6733C35.9625 82.9471 35.8537 83.2096 35.6601 83.4033C35.4665 83.5969 35.2039 83.7056 34.9301 83.7056Z" fill="white"/>
<path d="M34.9311 89.5982H32.6281C32.3543 89.5982 32.0917 89.4894 31.8981 89.2958C31.7045 89.1022 31.5957 88.8396 31.5957 88.5658C31.5957 88.292 31.7045 88.0294 31.8981 87.8358C32.0917 87.6422 32.3543 87.5334 32.6281 87.5334H34.9311C35.2049 87.5334 35.4675 87.6422 35.6611 87.8358C35.8547 88.0294 35.9635 88.292 35.9635 88.5658C35.9635 88.8396 35.8547 89.1022 35.6611 89.2958C35.4675 89.4894 35.2049 89.5982 34.9311 89.5982Z" fill="white"/>
<path d="M28.3421 89.5982H23.5773C23.3035 89.5982 23.0409 89.4894 22.8473 89.2958C22.6537 89.1022 22.5449 88.8396 22.5449 88.5658C22.5449 88.292 22.6537 88.0294 22.8473 87.8358C23.0409 87.6422 23.3035 87.5334 23.5773 87.5334H28.3421C28.6159 87.5334 28.8785 87.6422 29.0721 87.8358C29.2658 88.0294 29.3745 88.292 29.3745 88.5658C29.3745 88.8396 29.2658 89.1022 29.0721 89.2958C28.8785 89.4894 28.6159 89.5982 28.3421 89.5982Z" fill="white"/>
<path d="M136.265 77.845H124.845C124.571 77.845 124.309 77.7363 124.115 77.5427C123.921 77.3491 123.812 77.0865 123.812 76.8127C123.812 76.5389 123.921 76.2763 124.115 76.0827C124.309 75.889 124.571 75.7803 124.845 75.7803H136.265C136.538 75.7803 136.801 75.889 136.995 76.0827C137.188 76.2763 137.297 76.5389 137.297 76.8127C137.297 77.0865 137.188 77.3491 136.995 77.5427C136.801 77.7363 136.538 77.845 136.265 77.845Z" fill="white"/>
<path d="M136.265 83.7056H124.845C124.571 83.7056 124.309 83.5969 124.115 83.4033C123.921 83.2096 123.812 82.9471 123.812 82.6733C123.812 82.3995 123.921 82.1369 124.115 81.9433C124.309 81.7496 124.571 81.6409 124.845 81.6409H136.265C136.538 81.6409 136.801 81.7496 136.995 81.9433C137.188 82.1369 137.297 82.3995 137.297 82.6733C137.297 82.9471 137.188 83.2096 136.995 83.4033C136.801 83.5969 136.538 83.7056 136.265 83.7056Z" fill="white"/>
<path d="M136.265 89.5982H133.946C133.673 89.5982 133.41 89.4894 133.216 89.2958C133.023 89.1022 132.914 88.8396 132.914 88.5658C132.914 88.292 133.023 88.0294 133.216 87.8358C133.41 87.6422 133.673 87.5334 133.946 87.5334H136.265C136.539 87.5334 136.802 87.6422 136.995 87.8358C137.189 88.0294 137.298 88.292 137.298 88.5658C137.298 88.8396 137.189 89.1022 136.995 89.2958C136.802 89.4894 136.539 89.5982 136.265 89.5982Z" fill="white"/>
<path d="M129.67 89.5982H124.905C124.632 89.5982 124.369 89.4894 124.175 89.2958C123.982 89.1022 123.873 88.8396 123.873 88.5658C123.873 88.292 123.982 88.0294 124.175 87.8358C124.369 87.6422 124.632 87.5334 124.905 87.5334H129.67C129.944 87.5334 130.207 87.6422 130.4 87.8358C130.594 88.0294 130.703 88.292 130.703 88.5658C130.703 88.8396 130.594 89.1022 130.4 89.2958C130.207 89.4894 129.944 89.5982 129.67 89.5982Z" fill="white"/>
<path d="M136.265 16.6495H124.845C124.571 16.6495 124.309 16.5407 124.115 16.3471C123.921 16.1535 123.812 15.8909 123.812 15.6171C123.812 15.3433 123.921 15.0807 124.115 14.8871C124.309 14.6935 124.571 14.5847 124.845 14.5847H136.265C136.538 14.5847 136.801 14.6935 136.995 14.8871C137.188 15.0807 137.297 15.3433 137.297 15.6171C137.297 15.8909 137.188 16.1535 136.995 16.3471C136.801 16.5407 136.538 16.6495 136.265 16.6495Z" fill="white"/>
<path d="M136.265 22.5101H124.845C124.571 22.5101 124.309 22.4013 124.115 22.2077C123.921 22.0141 123.812 21.7515 123.812 21.4777C123.812 21.2039 123.921 20.9413 124.115 20.7477C124.309 20.5541 124.571 20.4453 124.845 20.4453H136.265C136.538 20.4453 136.801 20.5541 136.995 20.7477C137.188 20.9413 137.297 21.2039 137.297 21.4777C137.297 21.7515 137.188 22.0141 136.995 22.2077C136.801 22.4013 136.538 22.5101 136.265 22.5101Z" fill="white"/>
<path d="M136.265 28.3707H133.946C133.673 28.3707 133.41 28.2619 133.216 28.0683C133.023 27.8747 132.914 27.6121 132.914 27.3383C132.914 27.0645 133.023 26.8019 133.216 26.6083C133.41 26.4147 133.673 26.3059 133.946 26.3059H136.265C136.539 26.3059 136.802 26.4147 136.995 26.6083C137.189 26.8019 137.298 27.0645 137.298 27.3383C137.298 27.6121 137.189 27.8747 136.995 28.0683C136.802 28.2619 136.539 28.3707 136.265 28.3707Z" fill="white"/>
<path d="M129.67 28.3707H124.905C124.632 28.3707 124.369 28.2619 124.175 28.0683C123.982 27.8747 123.873 27.6121 123.873 27.3383C123.873 27.0645 123.982 26.8019 124.175 26.6083C124.369 26.4147 124.632 26.3059 124.905 26.3059H129.67C129.944 26.3059 130.207 26.4147 130.4 26.6083C130.594 26.8019 130.703 27.0645 130.703 27.3383C130.703 27.6121 130.594 27.8747 130.4 28.0683C130.207 28.2619 129.944 28.3707 129.67 28.3707Z" fill="white"/>
</svg>
