<svg width="160" height="104" viewBox="0 0 160 104" fill="none" xmlns="http://www.w3.org/2000/svg">
<path d="M79.5996 77.7556C62.9491 77.7556 47.0831 69.0621 34.9154 53.2761C34.7752 53.0921 34.6992 52.8671 34.6992 52.6357C34.6992 52.4043 34.7752 52.1794 34.9154 51.9953C47.0831 36.2094 62.9491 27.5159 79.5996 27.5159C96.2501 27.5159 112.132 36.2094 124.316 51.9953C124.456 52.1794 124.532 52.4043 124.532 52.6357C124.532 52.8671 124.456 53.0921 124.316 53.2761C112.132 69.0621 96.3301 77.7556 79.5996 77.7556ZM37.0928 52.6357C48.7801 67.4931 63.8617 75.6743 79.6316 75.6743C95.4016 75.6743 110.483 67.4931 122.202 52.6357C110.483 37.7783 95.4016 29.5972 79.6316 29.5972C63.8617 29.5972 48.7481 37.7783 37.0928 52.6357Z" fill="white"/>
<path d="M86.4953 76.2021C81.9258 76.8851 77.2801 76.8851 72.7106 76.2021C67.6264 74.6988 63.1646 71.5915 59.9914 67.3442C56.8181 63.0968 55.1035 57.9371 55.1035 52.6352C55.1035 47.3334 56.8181 42.1737 59.9914 37.9263C63.1646 33.679 67.6264 30.5717 72.7106 29.0684C77.2809 28.3958 81.925 28.3958 86.4953 29.0684C91.5885 30.5621 96.0607 33.6656 99.2422 37.9141C102.424 42.1627 104.143 47.3275 104.143 52.6352C104.143 57.9429 102.424 63.1078 99.2422 67.3563C96.0607 71.6049 91.5885 74.7084 86.4953 76.2021Z" fill="white"/>
<path d="M79.5972 77.7556C77.2446 77.7531 74.8954 77.5765 72.5688 77.2273C67.2561 75.6819 62.5865 72.458 59.2587 68.0377C55.9309 63.6175 54.1238 58.2386 54.1075 52.7057C54.0913 47.1728 55.867 41.7834 59.1688 37.3438C62.4707 32.9041 67.1212 29.6528 72.4247 28.0763C77.1417 27.3561 81.9408 27.3561 86.6577 28.0763C91.9425 29.6482 96.579 32.8833 99.8783 37.3008C103.178 41.7182 104.964 47.0823 104.971 52.5959C104.978 58.1095 103.206 63.4783 99.9183 67.9043C96.6305 72.3304 92.0024 75.5776 86.7218 77.1632C84.3654 77.5415 81.9837 77.7395 79.5972 77.7556ZM79.5972 29.6132C77.3472 29.6127 75.1001 29.7732 72.873 30.0936C68.017 31.5546 63.7629 34.5451 60.744 38.6196C57.7252 42.694 56.1031 47.6346 56.1193 52.7055C56.1354 57.7765 57.7891 62.7066 60.8339 66.7617C63.8788 70.8168 68.1519 73.78 73.0171 75.21C77.4407 75.8342 81.93 75.8342 86.3536 75.21C91.2032 73.7445 95.4504 70.7533 98.464 66.6809C101.478 62.6084 103.097 57.6723 103.08 52.6061C103.064 47.5399 101.414 42.6142 98.3741 38.5612C95.3346 34.5081 91.0683 31.544 86.2094 30.1096C84.02 29.7867 81.8103 29.6209 79.5972 29.6132Z" fill="white"/>
<path d="M81.9188 39.2827C83.8588 39.6289 85.7 40.3938 87.3142 41.5241L91.3167 37.5376L94.6629 40.8677L90.6604 44.8702C91.7905 46.4904 92.5552 48.3368 92.9017 50.2816H98.5373V54.9886H92.9017C92.5552 56.9334 91.7905 58.7798 90.6604 60.4L94.7269 64.3545L91.3807 67.6846L87.3782 63.6981C85.7503 64.8497 83.8847 65.6212 81.9188 65.9555V71.6071H77.1958V65.9555C75.2541 65.6248 73.4107 64.8644 71.8004 63.7301L67.7979 67.7166L64.5158 64.3545L68.5184 60.352C67.3766 58.7364 66.6057 56.8886 66.2609 54.9406H60.6094V50.2336H66.2609C66.6057 48.2856 67.3766 46.4377 68.5184 44.8222L64.5158 40.8196L67.846 37.4896L71.8485 41.4761C73.4612 40.343 75.303 39.5779 77.2439 39.2347V33.5991H81.9188V39.2827Z" fill="#181F23"/>
<path d="M81.9196 72.6641H77.1966C76.9206 72.6641 76.6559 72.5545 76.4608 72.3593C76.2656 72.1642 76.156 71.8994 76.156 71.6234V66.8204C74.664 66.4648 73.2376 65.8759 71.9293 65.0753L68.5352 68.4695C68.3406 68.6601 68.0791 68.7669 67.8067 68.7669C67.5343 68.7669 67.2727 68.6601 67.0782 68.4695L63.7321 65.1393C63.6353 65.0427 63.5585 64.9279 63.5061 64.8015C63.4537 64.6751 63.4267 64.5397 63.4267 64.4029C63.4267 64.2661 63.4537 64.1306 63.5061 64.0042C63.5585 63.8779 63.6353 63.7631 63.7321 63.6664L67.1263 60.2723C66.3217 58.9585 65.7274 57.527 65.3651 56.0296H60.5621C60.2861 56.0296 60.0214 55.92 59.8263 55.7248C59.6311 55.5296 59.5215 55.2649 59.5215 54.9889V50.282C59.5215 50.006 59.6311 49.7413 59.8263 49.5461C60.0214 49.3509 60.2861 49.2413 60.5621 49.2413H65.3651C65.7244 47.748 66.3189 46.3213 67.1263 45.0147L63.7321 41.6045C63.6353 41.5079 63.5585 41.393 63.5061 41.2667C63.4537 41.1403 63.4267 41.0048 63.4267 40.868C63.4267 40.7312 63.4537 40.5957 63.5061 40.4694C63.5585 40.343 63.6353 40.2282 63.7321 40.1316L67.0782 36.8015C67.2727 36.6108 67.5343 36.504 67.8067 36.504C68.0791 36.504 68.3406 36.6108 68.5352 36.8015L71.9293 40.1956C73.2383 39.3928 74.6642 38.7986 76.156 38.4345V33.6315C76.156 33.3555 76.2656 33.0908 76.4608 32.8956C76.6559 32.7004 76.9206 32.5908 77.1966 32.5908H81.9196C82.1943 32.595 82.4566 32.7059 82.6509 32.9002C82.8452 33.0945 82.9562 33.3568 82.9603 33.6315V38.4345C84.4534 38.7946 85.8799 39.389 87.1869 40.1956L90.581 36.8015C90.7782 36.6098 91.0425 36.5025 91.3175 36.5025C91.5926 36.5025 91.8568 36.6098 92.054 36.8015L95.4001 40.1316C95.4969 40.2282 95.5737 40.343 95.6261 40.4694C95.6785 40.5957 95.7055 40.7312 95.7055 40.868C95.7055 41.0048 95.6785 41.1403 95.6261 41.2667C95.5737 41.393 95.4969 41.5079 95.4001 41.6045L91.9899 45.0147C92.7944 46.3228 93.3887 47.749 93.7511 49.2413H98.5541C98.8301 49.2413 99.0948 49.3509 99.2899 49.5461C99.4851 49.7413 99.5947 50.006 99.5947 50.282V54.9889C99.5947 55.2649 99.4851 55.5296 99.2899 55.7248C99.0948 55.92 98.8301 56.0296 98.5541 56.0296H93.7511C93.3858 57.526 92.7917 58.9571 91.9899 60.2723L95.4001 63.6664C95.5937 63.8628 95.7029 64.1271 95.7043 64.4029C95.7053 64.5397 95.6789 64.6754 95.6267 64.8019C95.5744 64.9284 95.4974 65.0431 95.4001 65.1393L92.054 68.4695C91.8568 68.6611 91.5926 68.7684 91.3175 68.7684C91.0425 68.7684 90.7782 68.6611 90.581 68.4695L87.1869 65.0753C85.8806 65.8798 84.4536 66.469 82.9603 66.8204V71.6234C82.9562 71.8982 82.8452 72.1604 82.6509 72.3547C82.4566 72.549 82.1943 72.66 81.9196 72.6641ZM78.2373 70.5828H80.8789V65.9559C80.8759 65.7097 80.9616 65.4707 81.1204 65.2825C81.2791 65.0944 81.5003 64.9696 81.7435 64.9312C83.5356 64.629 85.237 63.9287 86.7226 62.8819C86.9222 62.742 87.1645 62.6766 87.4073 62.6971C87.6502 62.7176 87.8782 62.8227 88.0515 62.994L91.2535 66.196L93.1267 64.3388L89.9246 61.1368C89.7533 60.9635 89.6483 60.7355 89.6278 60.4927C89.6073 60.2499 89.6727 60.0076 89.8126 59.808C90.8485 58.3088 91.5526 56.6059 91.8778 54.8128C91.9193 54.5711 92.045 54.3517 92.2324 54.1936C92.4199 54.0354 92.6572 53.9485 92.9025 53.9483H97.4974V51.3226H92.9025C92.6572 51.3224 92.4199 51.2355 92.2324 51.0773C92.045 50.9192 91.9193 50.6998 91.8778 50.4581C91.5866 48.6739 90.921 46.9715 89.9246 45.463C89.7848 45.2634 89.7194 45.021 89.7399 44.7782C89.7603 44.5354 89.8654 44.3074 90.0367 44.1341L93.2387 40.9321L91.3656 39.0749L88.1636 42.2769C87.9902 42.4482 87.7623 42.5533 87.5194 42.5738C87.2766 42.5943 87.0343 42.5289 86.8347 42.389C85.3472 41.3426 83.647 40.6374 81.8556 40.3237C81.6124 40.2852 81.3912 40.1605 81.2324 39.9724C81.0737 39.7842 80.988 39.5452 80.991 39.2991V34.7042H78.3494V39.2991C78.3491 39.5443 78.2622 39.7817 78.104 39.9692C77.9458 40.1566 77.7265 40.2822 77.4848 40.3237C75.6954 40.6444 73.9967 41.349 72.5056 42.389C72.3061 42.5289 72.0638 42.5943 71.8209 42.5738C71.5781 42.5533 71.3501 42.4482 71.1768 42.2769L67.9748 39.0749L66.1176 40.9321L69.3197 44.1341C69.4895 44.3115 69.5933 44.5419 69.6137 44.7867C69.6341 45.0315 69.5699 45.2758 69.4317 45.4789C68.3706 46.96 67.659 48.6624 67.3504 50.4581C67.306 50.6985 67.1795 50.916 66.9927 51.0737C66.8059 51.2313 66.5702 51.3193 66.3258 51.3226H61.7149V53.9483H66.3258C66.5702 53.9516 66.8059 54.0396 66.9927 54.1973C67.1795 54.3549 67.306 54.5725 67.3504 54.8128C67.6621 56.6126 68.3733 58.3195 69.4317 59.808C69.5716 60.0076 69.637 60.2499 69.6165 60.4927C69.596 60.7355 69.491 60.9635 69.3197 61.1368L66.1176 64.3388L67.9748 66.196L71.1768 62.994C71.3501 62.8227 71.5781 62.7176 71.8209 62.6971C72.0638 62.6766 72.3061 62.742 72.5056 62.8819C73.9933 63.9249 75.6939 64.6249 77.4848 64.9312C77.7265 64.9727 77.9458 65.0983 78.104 65.2858C78.2622 65.4732 78.3491 65.7106 78.3494 65.9559L78.2373 70.5828Z" fill="white"/>
<path d="M79.5995 44.3421C81.2404 44.3389 82.8454 44.8226 84.2114 45.7319C85.5773 46.6413 86.6427 47.9354 87.2729 49.4505C87.903 50.9656 88.0695 52.6336 87.7513 54.2434C87.4331 55.8532 86.6446 57.3324 85.4854 58.4938C84.3262 59.6552 82.8485 60.4467 81.2394 60.768C79.6302 61.0893 77.9618 60.926 76.4455 60.2988C74.9292 59.6715 73.633 58.6086 72.721 57.2444C71.809 55.8803 71.3223 54.2762 71.3223 52.6353C71.3223 50.4385 72.1938 48.3316 73.7457 46.7767C75.2975 45.2219 77.4027 44.3463 79.5995 44.3421Z" fill="white"/>
<path d="M79.5995 61.9693C77.7534 61.9693 75.9489 61.4218 74.4139 60.3962C72.879 59.3706 71.6825 57.9128 70.9761 56.2073C70.2696 54.5018 70.0848 52.625 70.445 50.8144C70.8051 49.0039 71.6941 47.3407 72.9994 46.0353C74.3048 44.7299 75.9679 43.841 77.7785 43.4809C79.5891 43.1207 81.4659 43.3056 83.1715 44.012C84.877 44.7185 86.3347 45.9148 87.3603 47.4498C88.386 48.9847 88.9334 50.7893 88.9334 52.6354C88.9334 53.8611 88.692 55.0749 88.2229 56.2073C87.7538 57.3397 87.0663 58.3687 86.1996 59.2354C85.3328 60.1022 84.3039 60.7897 83.1715 61.2588C82.039 61.7278 80.8252 61.9693 79.5995 61.9693ZM79.5995 45.3828C78.1651 45.3828 76.7629 45.8082 75.5702 46.6051C74.3775 47.402 73.4479 48.5347 72.899 49.8599C72.3501 51.1852 72.2065 52.6434 72.4863 54.0503C72.7662 55.4571 73.4569 56.7494 74.4712 57.7637C75.4855 58.778 76.7778 59.4688 78.1846 59.7486C79.5915 60.0284 81.0497 59.8848 82.375 59.3359C83.7002 58.787 84.8328 57.8574 85.6298 56.6647C86.4267 55.472 86.8521 54.0698 86.8521 52.6354C86.8521 50.7119 86.0879 48.8672 84.7278 47.507C83.3677 46.1469 81.523 45.3828 79.5995 45.3828Z" fill="white"/>
<path d="M79.5996 57.1826C78.7003 57.1826 77.8212 56.916 77.0734 56.4163C76.3257 55.9167 75.743 55.2066 75.3989 54.3757C75.0547 53.5449 74.9647 52.6307 75.1401 51.7487C75.3155 50.8667 75.7485 50.0565 76.3844 49.4206C77.0203 48.7847 77.8306 48.3517 78.7126 48.1762C79.5946 48.0008 80.5088 48.0908 81.3396 48.435C82.1704 48.7791 82.8805 49.3619 83.3802 50.1096C83.8798 50.8574 84.1465 51.7364 84.1465 52.6357C84.1465 53.8416 83.6674 54.9981 82.8147 55.8508C81.962 56.7036 80.8055 57.1826 79.5996 57.1826ZM79.5996 50.1702C79.1119 50.1702 78.6352 50.3148 78.2297 50.5857C77.8243 50.8566 77.5083 51.2417 77.3217 51.6922C77.135 52.1427 77.0863 52.6385 77.1814 53.1168C77.2766 53.595 77.5114 54.0344 77.8562 54.3792C78.201 54.724 78.6403 54.9588 79.1186 55.0539C79.5969 55.149 80.0926 55.1002 80.5431 54.9136C80.9936 54.727 81.3787 54.411 81.6496 54.0055C81.9205 53.6001 82.0652 53.1234 82.0652 52.6357C82.0652 51.9818 81.8053 51.3547 81.3429 50.8923C80.8806 50.43 80.2535 50.1702 79.5996 50.1702Z" fill="#181F23"/>
<path d="M78.8941 29.597C78.6181 29.597 78.3535 29.4873 78.1583 29.2921C77.9631 29.097 77.8535 28.8323 77.8535 28.5563V22.7286C77.8535 22.4526 77.9631 22.1879 78.1583 21.9928C78.3535 21.7976 78.6181 21.688 78.8941 21.688H112.836C113.112 21.688 113.376 21.7976 113.571 21.9928C113.767 22.1879 113.876 22.4526 113.876 22.7286C113.876 23.0046 113.767 23.2693 113.571 23.4645C113.376 23.6597 113.112 23.7693 112.836 23.7693H79.9348V28.5723C79.9306 28.8455 79.8191 29.1062 79.6244 29.2979C79.4297 29.4896 79.1674 29.597 78.8941 29.597Z" fill="white"/>
<path d="M107.81 38.7386C107.534 38.7386 107.269 38.629 107.074 38.4338C106.879 38.2387 106.77 37.974 106.77 37.698V32.3346C106.77 32.0586 106.879 31.7939 107.074 31.5987C107.269 31.4036 107.534 31.2939 107.81 31.2939H129.776C130.052 31.2939 130.317 31.4036 130.512 31.5987C130.707 31.7939 130.817 32.0586 130.817 32.3346C130.817 32.6106 130.707 32.8753 130.512 33.0705C130.317 33.2656 130.052 33.3752 129.776 33.3752H108.851V37.5539C108.872 37.7021 108.86 37.8531 108.817 37.9965C108.774 38.1399 108.701 38.2723 108.602 38.3848C108.503 38.4973 108.381 38.5871 108.245 38.6481C108.108 38.7092 107.96 38.7401 107.81 38.7386Z" fill="white"/>
<path d="M120.199 49.514C119.923 49.514 119.658 49.4043 119.463 49.2091C119.268 49.014 119.158 48.7493 119.158 48.4733V43.254C119.158 42.978 119.268 42.7133 119.463 42.5182C119.658 42.323 119.923 42.2134 120.199 42.2134H134.256C134.532 42.2134 134.796 42.323 134.992 42.5182C135.187 42.7133 135.296 42.978 135.296 43.254C135.296 43.53 135.187 43.7947 134.992 43.9899C134.796 44.1851 134.532 44.2947 134.256 44.2947H121.239V48.4733C121.239 48.7493 121.13 49.014 120.935 49.2091C120.74 49.4043 120.475 49.514 120.199 49.514Z" fill="white"/>
<path d="M80.9458 84.2077H46.9723C46.6963 84.2077 46.4316 84.0981 46.2365 83.9029C46.0413 83.7077 45.9316 83.443 45.9316 83.167C45.9316 82.891 46.0413 82.6263 46.2365 82.4312C46.4316 82.236 46.6963 82.1264 46.9723 82.1264H79.9051V77.2433C79.9051 76.9673 80.0147 76.7026 80.2099 76.5075C80.405 76.3123 80.6698 76.2026 80.9458 76.2026C81.2218 76.2026 81.4864 76.3123 81.6816 76.5075C81.8767 76.7026 81.9864 76.9673 81.9864 77.2433V83.167C81.9864 83.443 81.8767 83.7077 81.6816 83.9029C81.4864 84.0981 81.2218 84.2077 80.9458 84.2077Z" fill="white"/>
<path d="M52.0143 74.4578H30.0485C29.7725 74.4578 29.5078 74.3482 29.3126 74.153C29.1174 73.9579 29.0078 73.6932 29.0078 73.4172C29.0078 73.1412 29.1174 72.8765 29.3126 72.6813C29.5078 72.4862 29.7725 72.3765 30.0485 72.3765H50.9737V68.1979C50.9737 67.9219 51.0833 67.6572 51.2785 67.462C51.4736 67.2668 51.7383 67.1572 52.0143 67.1572C52.2903 67.1572 52.555 67.2668 52.7501 67.462C52.9453 67.6572 53.0549 67.9219 53.0549 68.1979V73.4172C53.0508 73.6919 52.9399 73.9542 52.7456 74.1485C52.5514 74.3427 52.289 74.4537 52.0143 74.4578Z" fill="white"/>
<path d="M39.6373 63.6026H25.5485C25.2725 63.6026 25.0078 63.493 24.8126 63.2978C24.6174 63.1027 24.5078 62.838 24.5078 62.562C24.5078 62.286 24.6174 62.0213 24.8126 61.8261C25.0078 61.6309 25.2725 61.5213 25.5485 61.5213H38.5967V57.3426C38.5967 57.0666 38.7063 56.8019 38.9015 56.6068C39.0966 56.4116 39.3613 56.302 39.6373 56.302C39.9133 56.302 40.178 56.4116 40.3732 56.6068C40.5683 56.8019 40.678 57.0666 40.678 57.3426V62.562C40.678 62.838 40.5683 63.1027 40.3732 63.2978C40.178 63.493 39.9133 63.6026 39.6373 63.6026Z" fill="white"/>
<path d="M118.104 17.6541C119.054 17.6541 119.982 17.9358 120.772 18.4635C121.562 18.9913 122.178 19.7414 122.541 20.6191C122.905 21.4967 123 22.4625 122.815 23.3941C122.629 24.3258 122.172 25.1816 121.5 25.8534C120.828 26.5251 119.973 26.9825 119.041 27.1679C118.109 27.3532 117.143 27.258 116.266 26.8945C115.388 26.531 114.638 25.9154 114.11 25.1255C113.583 24.3357 113.301 23.407 113.301 22.4571C113.301 21.1832 113.807 19.9616 114.708 19.0608C115.608 18.1601 116.83 17.6541 118.104 17.6541Z" fill="white"/>
<path d="M118.104 28.2524C116.95 28.2588 115.82 27.9223 114.858 27.2859C113.895 26.6494 113.143 25.7415 112.697 24.6772C112.251 23.6129 112.131 22.4401 112.352 21.3076C112.573 20.175 113.126 19.1336 113.94 18.3154C114.753 17.4972 115.792 16.939 116.923 16.7115C118.054 16.484 119.228 16.5976 120.295 17.0377C121.361 17.4778 122.273 18.2247 122.915 19.1838C123.557 20.1428 123.899 21.2708 123.899 22.4247C123.899 23.9648 123.29 25.4423 122.204 26.5343C121.118 27.6262 119.644 28.244 118.104 28.2524ZM118.104 18.6464C117.361 18.64 116.633 18.8547 116.012 19.2632C115.392 19.6717 114.906 20.2555 114.618 20.9404C114.33 21.6254 114.253 22.3804 114.395 23.1097C114.537 23.8389 114.893 24.5094 115.417 25.036C115.941 25.5625 116.61 25.9212 117.339 26.0665C118.068 26.2119 118.823 26.1373 119.509 25.8523C120.195 25.5672 120.781 25.0846 121.192 24.4657C121.604 23.8469 121.821 23.1197 121.818 22.3767C121.806 21.3985 121.409 20.4643 120.714 19.7756C120.02 19.0868 119.082 18.6985 118.104 18.6944V18.6464Z" fill="white"/>
<path d="M134.544 28.6687C135.283 28.6656 136.006 28.8817 136.621 29.2896C137.237 29.6976 137.717 30.2791 138.002 30.9604C138.287 31.6418 138.363 32.3923 138.221 33.117C138.079 33.8417 137.725 34.5078 137.204 35.0311C136.683 35.5544 136.018 35.9113 135.294 36.0565C134.57 36.2018 133.819 36.1289 133.137 35.847C132.454 35.5651 131.87 35.087 131.46 34.4732C131.049 33.8594 130.83 33.1376 130.83 32.3991C130.83 31.4125 131.221 30.4661 131.917 29.767C132.613 29.0679 133.558 28.673 134.544 28.6687Z" fill="white"/>
<path d="M134.545 37.1383C133.595 37.1383 132.667 36.8566 131.877 36.3288C131.087 35.8011 130.471 35.0509 130.108 34.1733C129.744 33.2956 129.649 32.3299 129.834 31.3982C130.02 30.4665 130.477 29.6107 131.149 28.939C131.821 28.2673 132.676 27.8098 133.608 27.6245C134.54 27.4392 135.506 27.5343 136.383 27.8978C137.261 28.2614 138.011 28.877 138.539 29.6668C139.066 30.4567 139.348 31.3853 139.348 32.3353C139.348 33.6091 138.842 34.8307 137.941 35.7315C137.041 36.6322 135.819 37.1383 134.545 37.1383ZM134.545 29.6936C134.013 29.6936 133.493 29.8513 133.051 30.1469C132.609 30.4424 132.264 30.8625 132.06 31.354C131.857 31.8454 131.803 32.3863 131.907 32.908C132.011 33.4298 132.267 33.909 132.643 34.2852C133.019 34.6613 133.499 34.9175 134.02 35.0213C134.542 35.1251 135.083 35.0718 135.574 34.8682C136.066 34.6647 136.486 34.3199 136.782 33.8776C137.077 33.4353 137.235 32.9153 137.235 32.3833C137.231 31.6727 136.945 30.9927 136.441 30.4917C135.938 29.9907 135.256 29.7096 134.545 29.7096V29.6936Z" fill="white"/>
<path d="M139.027 39.5242C139.765 39.521 140.488 39.7371 141.104 40.1451C141.719 40.5531 142.2 41.1345 142.485 41.8159C142.769 42.4972 142.846 43.2478 142.703 43.9725C142.561 44.6971 142.207 45.3633 141.686 45.8866C141.165 46.4099 140.501 46.7668 139.777 46.912C139.052 47.0573 138.302 46.9843 137.619 46.7025C136.936 46.4206 136.353 45.9425 135.942 45.3287C135.532 44.7149 135.313 43.9931 135.312 43.2546C135.317 42.2693 135.709 41.3253 136.404 40.627C137.099 39.9288 138.042 39.5326 139.027 39.5242Z" fill="white"/>
<path d="M139.028 48.0091C138.078 48.0091 137.149 47.7274 136.359 47.1997C135.569 46.6719 134.954 45.9218 134.59 45.0441C134.227 44.1665 134.132 43.2008 134.317 42.2691C134.502 41.3374 134.96 40.4815 135.631 39.8098C136.303 39.1381 137.159 38.6807 138.091 38.4954C139.022 38.31 139.988 38.4052 140.866 38.7687C141.743 39.1322 142.493 39.7478 143.021 40.5377C143.549 41.3275 143.831 42.2562 143.831 43.2061C143.831 44.4799 143.325 45.7016 142.424 46.6023C141.523 47.5031 140.301 48.0091 139.028 48.0091ZM139.028 40.5644C138.496 40.5644 137.976 40.7222 137.533 41.0177C137.091 41.3133 136.746 41.7333 136.543 42.2248C136.339 42.7163 136.286 43.2571 136.39 43.7789C136.493 44.3006 136.75 44.7799 137.126 45.156C137.502 45.5322 137.981 45.7883 138.503 45.8921C139.025 45.9959 139.565 45.9427 140.057 45.7391C140.548 45.5355 140.969 45.1908 141.264 44.7484C141.56 44.3061 141.717 43.7861 141.717 43.2541C141.717 42.9009 141.648 42.5511 141.513 42.2248C141.377 41.8985 141.179 41.602 140.929 41.3522C140.68 41.1024 140.383 40.9043 140.057 40.7692C139.731 40.634 139.381 40.5644 139.028 40.5644Z" fill="white"/>
<path d="M43.4937 78.1402C44.2321 78.137 44.9549 78.3531 45.5704 78.7611C46.186 79.169 46.6666 79.7505 46.9514 80.4319C47.2362 81.1132 47.3124 81.8638 47.1703 82.5884C47.0282 83.3131 46.6741 83.9793 46.1531 84.5026C45.632 85.0259 44.9674 85.3827 44.2433 85.528C43.5193 85.6732 42.7684 85.6003 42.0858 85.3184C41.4033 85.0366 40.8197 84.5585 40.4091 83.9447C39.9985 83.3309 39.7793 82.609 39.7793 81.8706C39.7793 80.884 40.1701 79.9375 40.8662 79.2384C41.5623 78.5393 42.5071 78.1444 43.4937 78.1402Z" fill="white"/>
<path d="M43.4944 86.6415C42.5445 86.6415 41.6159 86.3598 40.826 85.832C40.0361 85.3042 39.4205 84.5541 39.057 83.6765C38.6935 82.7988 38.5984 81.8331 38.7837 80.9014C38.969 79.9697 39.4265 79.1139 40.0982 78.4422C40.7699 77.7705 41.6257 77.313 42.5574 77.1277C43.4891 76.9424 44.4548 77.0375 45.3325 77.401C46.2101 77.7646 46.9603 78.3802 47.488 79.17C48.0158 79.9599 48.2975 80.8885 48.2975 81.8385C48.2975 83.1123 47.7914 84.334 46.8907 85.2347C45.9899 86.1354 44.7683 86.6415 43.4944 86.6415ZM43.4944 79.1808C42.9618 79.1776 42.4402 79.3327 41.9958 79.6263C41.5514 79.9199 41.2041 80.3388 40.9981 80.83C40.792 81.3212 40.7365 81.8625 40.8385 82.3853C40.9404 82.9081 41.1953 83.3889 41.5709 83.7666C41.9464 84.1444 42.4256 84.4021 42.9478 84.5072C43.4699 84.6123 44.0116 84.56 44.504 84.3569C44.9964 84.1538 45.4174 83.8091 45.7137 83.3664C46.01 82.9238 46.1681 82.4031 46.1681 81.8705C46.1682 81.1599 45.887 80.4782 45.386 79.9742C44.885 79.4702 44.205 79.185 43.4944 79.1808Z" fill="white"/>
<path d="M26.3178 69.6861C27.0563 69.6829 27.7791 69.899 28.3947 70.307C29.0102 70.7149 29.4908 71.2964 29.7756 71.9777C30.0604 72.6591 30.1366 73.4097 29.9945 74.1343C29.8523 74.859 29.4983 75.5252 28.9773 76.0485C28.4562 76.5718 27.7916 76.9286 27.0675 77.0739C26.3435 77.2191 25.5926 77.1462 24.91 76.8643C24.2275 76.5825 23.6439 76.1044 23.2333 75.4906C22.8227 74.8768 22.6035 74.1549 22.6035 73.4164C22.6035 72.4299 22.9943 71.4834 23.6904 70.7843C24.3865 70.0852 25.3312 69.6903 26.3178 69.6861Z" fill="white"/>
<path d="M26.3187 78.1876C25.3687 78.1876 24.4401 77.9059 23.6503 77.3782C22.8604 76.8504 22.2448 76.1003 21.8812 75.2226C21.5177 74.345 21.4226 73.3792 21.6079 72.4476C21.7932 71.5159 22.2507 70.6601 22.9224 69.9883C23.5941 69.3166 24.4499 68.8592 25.3816 68.6738C26.3133 68.4885 27.2791 68.5836 28.1567 68.9472C29.0344 69.3107 29.7845 69.9263 30.3122 70.7162C30.84 71.506 31.1217 72.4347 31.1217 73.3846C31.1217 74.6585 30.6157 75.8801 29.7149 76.7809C28.8142 77.6816 27.5925 78.1876 26.3187 78.1876ZM26.3187 70.7269C25.7867 70.7269 25.2667 70.8847 24.8243 71.1802C24.382 71.4757 24.0373 71.8958 23.8337 72.3873C23.6302 72.8788 23.5769 73.4196 23.6807 73.9414C23.7844 74.4631 24.0406 74.9423 24.4168 75.3185C24.7929 75.6947 25.2722 75.9508 25.794 76.0546C26.3157 76.1584 26.8565 76.1052 27.348 75.9016C27.8394 75.698 28.2595 75.3532 28.5551 74.9109C28.8506 74.4686 29.0084 73.9486 29.0084 73.4166C29 72.7088 28.7129 72.0329 28.2093 71.5354C27.7058 71.0378 27.0265 70.7589 26.3187 70.7589V70.7269Z" fill="white"/>
<path d="M21.8355 58.8479C22.5746 58.8448 23.298 59.0613 23.9139 59.47C24.5298 59.8786 25.0105 60.461 25.2948 61.1433C25.5791 61.8256 25.6543 62.577 25.5109 63.3021C25.3675 64.0272 25.0119 64.6934 24.4892 65.216C23.9665 65.7387 23.3004 66.0943 22.5753 66.2377C21.8502 66.3811 21.0988 66.3059 20.4165 66.0216C19.7342 65.7373 19.1518 65.2566 18.7432 64.6407C18.3345 64.0248 18.118 63.3014 18.1211 62.5623C18.1211 61.5772 18.5124 60.6324 19.209 59.9358C19.9056 59.2393 20.8504 58.8479 21.8355 58.8479Z" fill="white"/>
<path d="M21.8343 67.3331C20.8843 67.3331 19.9557 67.0514 19.1658 66.5237C18.376 65.9959 17.7604 65.2458 17.3969 64.3682C17.0333 63.4905 16.9382 62.5248 17.1235 61.5931C17.3089 60.6614 17.7663 59.8056 18.438 59.1338C19.1098 58.4621 19.9656 58.0047 20.8973 57.8193C21.829 57.634 22.7947 57.7291 23.6723 58.0927C24.5499 58.4562 25.3001 59.0718 25.8279 59.8617C26.3556 60.6515 26.6373 61.5801 26.6373 62.5301C26.6373 63.8039 26.1313 65.0256 25.2305 65.9264C24.3298 66.8271 23.1081 67.3331 21.8343 67.3331ZM21.8343 59.8884C21.3055 59.8884 20.7886 60.0453 20.3489 60.339C19.9092 60.6328 19.5665 61.0504 19.3641 61.5389C19.1618 62.0275 19.1088 62.5651 19.212 63.0837C19.3151 63.6024 19.5698 64.0788 19.9437 64.4527C20.3176 64.8266 20.794 65.0813 21.3127 65.1844C21.8313 65.2876 22.3689 65.2347 22.8574 65.0323C23.346 64.8299 23.7636 64.4872 24.0574 64.0475C24.3511 63.6079 24.508 63.0909 24.508 62.5621C24.508 61.853 24.2263 61.1729 23.7249 60.6715C23.2235 60.1701 22.5434 59.8884 21.8343 59.8884Z" fill="white"/>
<path d="M28.828 18.1499C29.5658 18.1499 30.287 18.3687 30.9005 18.7786C31.5139 19.1885 31.9921 19.771 32.2744 20.4527C32.5567 21.1343 32.6306 21.8844 32.4867 22.608C32.3428 23.3316 31.9874 23.9963 31.4657 24.518C30.944 25.0397 30.2794 25.395 29.5557 25.5389C28.8321 25.6828 28.0821 25.609 27.4004 25.3266C26.7188 25.0443 26.1362 24.5661 25.7263 23.9527C25.3164 23.3392 25.0977 22.618 25.0977 21.8802C25.0977 20.8909 25.4907 19.9421 26.1902 19.2425C26.8898 18.5429 27.8386 18.1499 28.828 18.1499Z" fill="white"/>
<path d="M28.8284 26.6513C27.8785 26.6513 26.9498 26.3695 26.16 25.8418C25.3701 25.314 24.7545 24.5639 24.391 23.6863C24.0275 22.8086 23.9324 21.8429 24.1177 20.9112C24.303 19.9795 24.7605 19.1237 25.4322 18.4519C26.1039 17.7802 26.9597 17.3228 27.8914 17.1374C28.8231 16.9521 29.7888 17.0473 30.6664 17.4108C31.5441 17.7743 32.2942 18.3899 32.822 19.1798C33.3498 19.9697 33.6314 20.8983 33.6314 21.8482C33.6314 23.1221 33.1254 24.3437 32.2247 25.2445C31.324 26.1452 30.1023 26.6513 28.8284 26.6513ZM28.8284 19.1905C28.2958 19.1874 27.7742 19.3424 27.3298 19.636C26.8853 19.9297 26.5381 20.3486 26.3321 20.8398C26.126 21.331 26.0705 21.8723 26.1724 22.3951C26.2744 22.9179 26.5293 23.3986 26.9048 23.7764C27.2804 24.1542 27.7596 24.4119 28.2818 24.517C28.804 24.6221 29.3456 24.5698 29.838 24.3667C30.3304 24.1636 30.7514 23.8189 31.0477 23.3762C31.3439 22.9335 31.5021 22.4129 31.5021 21.8802C31.5021 21.1696 31.2209 20.4879 30.72 19.984C30.219 19.48 29.539 19.1948 28.8284 19.1905Z" fill="white"/>
<path d="M132.062 78.989C132.8 78.9859 133.523 79.2019 134.139 79.6099C134.754 80.0179 135.235 80.5994 135.52 81.2807C135.805 81.9621 135.881 82.7126 135.739 83.4373C135.597 84.1619 135.242 84.8281 134.721 85.3514C134.2 85.8747 133.536 86.2316 132.812 86.3769C132.088 86.5221 131.337 86.4491 130.654 86.1673C129.972 85.8854 129.388 85.4073 128.977 84.7935C128.567 84.1797 128.348 83.4579 128.348 82.7194C128.348 81.7328 128.738 80.7864 129.435 80.0873C130.131 79.3881 131.075 78.9933 132.062 78.989Z" fill="white"/>
<path d="M132.063 87.474C131.113 87.474 130.184 87.1923 129.394 86.6645C128.605 86.1368 127.989 85.3866 127.625 84.509C127.262 83.6313 127.167 82.6656 127.352 81.7339C127.537 80.8022 127.995 79.9464 128.667 79.2747C129.338 78.6029 130.194 78.1455 131.126 77.9602C132.058 77.7749 133.023 77.87 133.901 78.2335C134.779 78.5971 135.529 79.2127 136.056 80.0025C136.584 80.7924 136.866 81.721 136.866 82.6709C136.866 83.9448 136.36 85.1664 135.459 86.0672C134.558 86.9679 133.337 87.474 132.063 87.474ZM132.063 80.0293C131.531 80.0293 131.011 80.187 130.569 80.4826C130.126 80.7781 129.781 81.1982 129.578 81.6897C129.374 82.1811 129.321 82.722 129.425 83.2437C129.529 83.7655 129.785 84.2447 130.161 84.6209C130.537 84.997 131.016 85.2532 131.538 85.357C132.06 85.4607 132.601 85.4075 133.092 85.2039C133.584 85.0004 134.004 84.6556 134.299 84.2133C134.595 83.771 134.753 83.2509 134.753 82.719C134.753 82.0056 134.469 81.3215 133.965 80.8171C133.46 80.3127 132.776 80.0293 132.063 80.0293Z" fill="white"/>
<path d="M128.351 83.7592H104.336C104.06 83.7592 103.795 83.6496 103.6 83.4545C103.405 83.2593 103.295 82.9946 103.295 82.7186V69.9105C103.295 69.6345 103.405 69.3698 103.6 69.1747C103.795 68.9795 104.06 68.8699 104.336 68.8699C104.612 68.8699 104.876 68.9795 105.071 69.1747C105.267 69.3698 105.376 69.6345 105.376 69.9105V81.726H128.351C128.627 81.726 128.891 81.8356 129.087 82.0308C129.282 82.2259 129.391 82.4906 129.391 82.7666C129.391 83.0426 129.282 83.3073 129.087 83.5025C128.891 83.6977 128.627 83.8073 128.351 83.8073V83.7592Z" fill="white"/>
<path d="M54.8927 36.4654C54.6152 36.4612 54.3506 36.348 54.1559 36.1503C53.9612 35.9526 53.852 35.6863 53.852 35.4088V23.5933H32.5426C32.2666 23.5933 32.0019 23.4836 31.8067 23.2885C31.6116 23.0933 31.502 22.8287 31.502 22.5527C31.502 22.2767 31.6116 22.012 31.8067 21.8168C32.0019 21.6216 32.2666 21.512 32.5426 21.512H54.9567C55.2327 21.512 55.4974 21.6216 55.6926 21.8168C55.8878 22.012 55.9974 22.2767 55.9974 22.5527V35.3607C56.0042 35.5076 55.9803 35.6543 55.9272 35.7914C55.8741 35.9286 55.7931 36.0531 55.6891 36.1571C55.5851 36.2611 55.4605 36.3422 55.3234 36.3953C55.1863 36.4484 55.0396 36.4722 54.8927 36.4654Z" fill="white"/>
<rect x="2.03125" y="1.59717" width="156" height="100" rx="8" stroke="white" stroke-width="3" stroke-linecap="round" stroke-linejoin="round"/>
</svg>
