<svg width="83" height="75" viewBox="0 0 83 75" fill="none" xmlns="http://www.w3.org/2000/svg">
<path d="M58.9248 73.9811C57.2431 73.9864 55.5938 73.518 54.1659 72.6295C53.0297 73.0495 51.8291 73.2686 50.6178 73.2772C49.3716 73.2735 48.1383 73.0244 46.9884 72.544C45.8385 72.0637 44.7944 71.3616 43.9159 70.4778C43.0373 69.594 42.3413 68.5457 41.8678 67.393C41.3944 66.2402 41.1526 65.0055 41.1563 63.7593V11.4955C41.1637 8.98582 42.162 6.58061 43.934 4.80336C45.706 3.0261 48.1081 2.02065 50.6178 2.00581C51.0579 1.96158 51.5012 1.96158 51.9413 2.00581C53.2785 1.52568 54.6881 1.27807 56.1089 1.27368C59.2118 1.27325 62.1905 2.49218 64.4029 4.66771C66.6153 6.84323 67.8842 9.80106 67.9359 12.9035H68.1611C69.2788 13.434 70.274 14.1911 71.0835 15.1267C71.8931 16.0622 72.4993 17.1559 72.8638 18.3382H73.0045C74.9547 19.3203 76.5932 20.8253 77.737 22.6852C78.8808 24.5451 79.4846 26.6864 79.4811 28.8698C79.4933 31.0237 78.9085 33.1387 77.7917 34.9804C78.968 36.0863 79.9054 37.4213 80.5462 38.9033C81.1869 40.3852 81.5175 41.9827 81.5175 43.5972C81.5175 45.2117 81.1869 46.8092 80.5462 48.2911C79.9054 49.773 78.968 51.1081 77.7917 52.214H77.5381C77.8778 53.3563 78.0486 54.5421 78.0451 55.7339C78.0451 62.295 73.9056 67.589 67.3727 67.589C66.8602 69.4333 65.7557 71.058 64.2292 72.213C62.7028 73.368 60.839 73.9893 58.9248 73.9811Z" fill="white"/>
<path d="M14.5566 12.927C14.6083 9.82454 15.8771 6.86667 18.0895 4.69114C20.3019 2.51562 23.2807 1.29669 26.3835 1.29712C27.7945 1.309 29.1935 1.55644 30.523 2.02925C30.9537 1.98634 31.3876 1.98634 31.8183 2.02925C33.0682 2.02183 34.3073 2.26068 35.4649 2.73216C36.6225 3.20363 37.6759 3.89853 38.565 4.77712C39.454 5.65571 40.1613 6.70082 40.6464 7.85276C41.1316 9.0047 41.3851 10.2409 41.3924 11.4908V63.7546C41.3961 65.0031 41.1534 66.2402 40.6781 67.3948C40.2029 68.5494 39.5045 69.5988 38.6229 70.483C37.7413 71.3672 36.694 72.0687 35.5408 72.5474C34.3876 73.0261 33.1513 73.2725 31.9027 73.2725C30.7009 73.2612 29.51 73.0421 28.3828 72.6248C26.9531 73.5091 25.305 73.9772 23.6239 73.9764C21.7351 73.9968 19.8906 73.404 18.3674 72.287C16.8441 71.17 15.7244 69.589 15.1761 67.7814C8.6431 67.7814 4.47555 62.4874 4.47555 55.9263C4.48151 54.7332 4.66168 53.5473 5.0105 52.4063H4.75707C3.58077 51.3004 2.64336 49.9654 2.00258 48.4835C1.3618 47.0015 1.03125 45.4041 1.03125 43.7896C1.03125 42.1751 1.3618 40.5776 2.00258 39.0957C2.64336 37.6138 3.58077 36.2787 4.75707 35.1728C3.66493 33.3206 3.08211 31.2125 3.06758 29.0623C3.07104 26.8838 3.67467 24.7484 4.81224 22.8905C5.94981 21.0327 7.57728 19.5241 9.51601 18.5306H9.76944C10.1291 17.346 10.7336 16.2501 11.5437 15.3139C12.3537 14.3777 13.3514 13.6221 14.4721 13.0959L14.5566 12.927Z" fill="white"/>
<path d="M41.2499 63.6577C41.2536 64.9062 41.1074 66.2466 40.6322 67.4012C40.1569 68.5558 39.4585 69.6053 38.5769 70.4894C37.6954 71.3736 36.648 72.0752 35.4949 72.5538C34.3417 73.0325 33.1054 73.2789 31.8568 73.2789C30.6549 73.2676 29.464 73.0485 28.3369 72.6312C26.9071 73.5155 25.2591 73.9836 23.5779 73.9828C21.2598 73.9681 19.0409 73.0407 17.4017 71.4015C15.7626 69.7623 14.8351 67.5434 14.8203 65.2253C14.8254 63.1109 15.5904 61.0688 16.9757 59.4714C18.3611 57.8741 20.2746 56.828 22.3671 56.524" stroke="#181F23" stroke-width="2" stroke-linecap="round" stroke-linejoin="round"/>
<path d="M22.2812 11.4969C22.287 9.20857 23.1194 6.9994 24.6251 5.27629C26.1309 3.55317 28.2087 2.43218 30.4756 2.11983C30.9063 2.07692 31.3402 2.07692 31.7709 2.11983C34.2808 2.1047 36.695 3.08157 38.4881 4.83776C40.2812 6.59395 41.308 8.98731 41.3451 11.4969" stroke="#181F23" stroke-width="2" stroke-linecap="round" stroke-linejoin="round"/>
<path d="M15.1322 67.7879C8.59919 67.7879 4.43164 62.494 4.43164 55.9328C4.43761 54.7397 4.61777 53.5539 4.96659 52.4129C5.69478 49.9859 7.18144 47.8561 9.20854 46.3357C11.2356 44.8154 13.6965 43.9846 16.2303 43.9651" stroke="#181F23" stroke-width="2" stroke-linecap="round" stroke-linejoin="round"/>
<path d="M4.73749 52.328C3.01876 50.6959 1.8274 48.587 1.31649 46.2725C0.80557 43.958 0.99842 41.5437 1.87034 39.3396C2.74226 37.1356 4.25341 35.2427 6.20949 33.9041C8.16556 32.5656 10.4772 31.8426 12.8474 31.828" stroke="#181F23" stroke-width="2" stroke-linecap="round" stroke-linejoin="round"/>
<path d="M4.56458 34.9813C3.47244 33.129 2.88953 31.0209 2.875 28.8707C2.87846 26.6922 3.48209 24.5568 4.61966 22.699C5.75724 20.8411 7.38478 19.3326 9.32352 18.3391" stroke="#181F23" stroke-width="2" stroke-linecap="round" stroke-linejoin="round"/>
<path d="M26.3367 25.0136C23.1974 25.0062 20.1893 23.7539 17.9721 21.5314C15.7549 19.309 14.5098 16.2978 14.5098 13.1585V12.9333C14.5615 9.83089 15.8303 6.87302 18.0427 4.69749C20.2551 2.52197 23.2339 1.30304 26.3367 1.30347C27.7477 1.31535 29.1467 1.56279 30.4762 2.03559" stroke="#181F23" stroke-width="2" stroke-linecap="round" stroke-linejoin="round"/>
<path d="M17.9725 29.6603C15.6472 29.6529 13.4197 28.724 11.7781 27.0772C10.1366 25.4303 9.21483 23.1999 9.21484 20.8746C9.21975 20.0263 9.34298 19.1828 9.58093 18.3685C9.94062 17.1838 10.5451 16.088 11.3552 15.1518C12.1652 14.2156 13.1629 13.4599 14.2836 12.9337" stroke="#181F23" stroke-width="2" stroke-linecap="round" stroke-linejoin="round"/>
<path d="M41.2617 11.4968V63.7606" stroke="#181F23" stroke-width="2" stroke-linecap="round" stroke-linejoin="round"/>
<path d="M41.1622 63.9843C41.1584 65.2306 41.4032 66.2422 41.8767 67.3949C42.3501 68.5477 43.0461 69.5959 43.9247 70.4798C44.8033 71.3636 45.8473 72.0657 46.9972 72.546C48.1471 73.0263 49.3804 73.2754 50.6266 73.2791C51.8379 73.2705 53.0385 73.0514 54.1747 72.6315C55.6026 73.5199 57.2519 73.9884 58.9337 73.9831C60.8225 74.0035 62.6669 73.4107 64.1902 72.2936C65.7134 71.1766 66.8332 69.5956 67.3815 67.788C67.6172 66.954 67.7404 66.0922 67.7475 65.2255C67.7474 63.1053 66.9805 61.0566 65.5883 59.4574C64.1962 57.8583 62.2727 56.8165 60.1727 56.5243" stroke="#181F23" stroke-width="2" stroke-linecap="round" stroke-linejoin="round"/>
<path d="M60.1193 11.4972C60.1204 9.2114 59.294 7.00251 57.7928 5.27877C56.2917 3.55504 54.2172 2.43302 51.953 2.12008C51.5129 2.07586 51.0695 2.07586 50.6295 2.12008C48.1198 2.13492 45.7176 3.14041 43.9457 4.91767C42.1737 6.69493 41.1754 9.10013 41.168 11.6098" stroke="#181F23" stroke-width="2" stroke-linecap="round" stroke-linejoin="round"/>
<path d="M67.3776 67.7885C73.9105 67.7885 78.05 62.4946 78.05 55.9334C78.0535 54.7417 77.8827 53.5558 77.543 52.4135C76.8109 49.9888 75.3233 47.8615 73.2971 46.3418C71.2708 44.8221 68.812 43.9896 66.2793 43.9657" stroke="#181F23" stroke-width="2" stroke-linecap="round" stroke-linejoin="round"/>
<path d="M77.7415 52.3275C78.9178 51.2216 79.8552 49.8866 80.496 48.4047C81.1368 46.9227 81.4674 45.3253 81.4674 43.7108C81.4674 42.0962 81.1368 40.4988 80.496 39.0169C79.8552 37.535 78.9178 36.1999 77.7415 35.094C75.5445 33.0075 72.6334 31.839 69.6035 31.8275" stroke="#181F23" stroke-width="2" stroke-linecap="round" stroke-linejoin="round"/>
<path d="M77.8496 34.9816C78.9665 33.14 79.5513 31.0249 79.5392 28.8711C79.5427 26.6876 78.9387 24.5463 77.795 22.6864C76.6512 20.8266 75.0126 19.3215 73.0625 18.3395" stroke="#181F23" stroke-width="2" stroke-linecap="round" stroke-linejoin="round"/>
<path d="M56.1149 25.0132C59.2542 25.0057 62.2623 23.7534 64.4795 21.5309C66.6967 19.3085 67.9419 16.2973 67.9419 13.158V12.9328C67.8901 9.8304 66.6213 6.87253 64.4089 4.697C62.1965 2.52148 59.2177 1.30255 56.1149 1.30298C54.6941 1.30736 53.2845 1.55497 51.9473 2.03511" stroke="#181F23" stroke-width="2" stroke-linecap="round" stroke-linejoin="round"/>
<path d="M64.5684 29.6591C66.8936 29.6517 69.121 28.7228 70.7626 27.0759C72.4042 25.4291 73.3259 23.1987 73.3259 20.8734C73.3068 20.0262 73.1839 19.1845 72.9599 18.3672C72.5955 17.1849 71.9892 16.0913 71.1796 15.1557C70.3701 14.2201 69.3749 13.463 68.2572 12.9325" stroke="#181F23" stroke-width="2" stroke-linecap="round" stroke-linejoin="round"/>
<path d="M41.168 11.4963V63.7601" stroke="#181F23" stroke-width="2" stroke-linecap="round" stroke-linejoin="round"/>
<path d="M43.5473 27.6839C45.5341 28.0255 47.4192 28.8036 49.0651 29.9616L53.1049 25.9205L56.5043 29.2759L52.3413 33.3415C53.4978 34.9616 54.2725 36.82 54.6075 38.7786H60.347V43.481H54.8046C54.465 45.4458 53.6909 47.3112 52.5383 48.9426L56.6028 52.9837L53.2034 56.3635L49.1636 52.298C47.5177 53.456 45.6326 54.2341 43.6458 54.5757V60.2822H38.867V54.5757C36.8892 54.2291 35.0132 53.4512 33.3738 52.298L29.3094 56.3635L25.9593 52.9837L29.9745 48.9426C28.8324 47.3055 28.0594 45.4425 27.7082 43.481H21.9688V38.7051H27.7082C28.0544 36.7497 28.8281 34.8937 29.9745 33.268L25.9593 29.2024L29.3094 25.8471L33.3738 29.8882C35.0156 28.7392 36.8906 27.9617 38.867 27.6105V21.9039H43.6458L43.5473 27.6839Z" fill="white" stroke="#181F23" stroke-width="2" stroke-linecap="round" stroke-linejoin="round"/>
<path d="M41.1615 34.1153C42.5416 34.1153 43.8906 34.5245 45.0381 35.2913C46.1856 36.058 47.08 37.1478 47.6081 38.4228C48.1363 39.6978 48.2745 41.1009 48.0052 42.4544C47.736 43.808 47.0714 45.0513 46.0955 46.0272C45.1197 47.0031 43.8763 47.6676 42.5228 47.9369C41.1692 48.2061 39.7662 48.0679 38.4912 47.5398C37.2162 47.0117 36.1264 46.1173 35.3597 44.9698C34.5929 43.8223 34.1836 42.4732 34.1836 41.0931C34.1802 40.1758 34.3584 39.2669 34.7079 38.4188C35.0573 37.5706 35.5712 36.8 36.2198 36.1514C36.8684 35.5028 37.639 34.9889 38.4871 34.6395C39.3352 34.29 40.2442 34.1119 41.1615 34.1153Z" fill="white" stroke="#181F23" stroke-width="2" stroke-linecap="round" stroke-linejoin="round"/>
</svg>
