<svg width="83" height="73" viewBox="0 0 83 73" fill="none" xmlns="http://www.w3.org/2000/svg">
<path d="M57.9185 25.2146C57.91 25.8893 57.6461 26.5357 57.1799 27.0236C56.7138 27.5115 56.08 27.8045 55.4064 27.8437C54.7328 27.883 54.0693 27.6654 53.5497 27.2349C53.0301 26.8044 52.6929 26.193 52.6061 25.5238C52.5194 24.8546 52.6895 24.1774 53.0822 23.6287C53.4749 23.0799 54.0609 22.7004 54.7223 22.5666C55.3837 22.4327 56.0712 22.5545 56.6463 22.9074C57.2215 23.2603 57.6415 23.8181 57.8218 24.4683C57.8888 24.7113 57.9213 24.9625 57.9185 25.2146Z" fill="#181F23"/>
<path d="M61.6504 54.2652C61.664 54.8181 61.5113 55.3624 61.2123 55.8276C60.9132 56.2929 60.4815 56.6577 59.9729 56.875C59.4643 57.0922 58.9022 57.1519 58.3593 57.0463C57.8164 56.9407 57.3176 56.6746 56.9276 56.2826C56.5375 55.8905 56.2741 55.3904 56.1712 54.8469C56.0684 54.3035 56.131 53.7417 56.3508 53.2342C56.5707 52.7267 56.9378 52.2969 57.4046 52.0002C57.8714 51.7036 58.4164 51.5538 58.9692 51.5702C59.6761 51.5912 60.3479 51.8823 60.8466 52.3836C61.3453 52.8849 61.6331 53.5583 61.6504 54.2652Z" fill="#181F23"/>
<path d="M57.0861 1.84439C58.5824 1.84088 60.0646 2.13338 61.4474 2.70501C62.8302 3.27664 64.0864 4.1161 65.1434 5.17513C67.2434 7.25278 68.4443 10.0714 68.488 13.0252H68.6953C69.7722 13.529 70.7303 14.2549 71.5068 15.1553C72.2833 16.0556 72.8606 17.11 73.2007 18.2493H73.4357C75.9285 19.5178 77.8634 21.6644 78.8672 24.275C79.3888 25.5946 79.6516 27.0023 79.6411 28.4212C79.6423 30.4848 79.0835 32.5101 78.0241 34.2811L77.9135 34.3916C79.0429 35.4575 79.9426 36.7427 80.5576 38.1686C81.1726 39.5945 81.4898 41.1311 81.4898 42.6839C81.4898 44.2368 81.1726 45.7733 80.5576 47.1992C79.9426 48.6251 79.0429 49.9104 77.9135 50.9762L77.6648 51.0453C78.0046 52.1465 78.177 53.2926 78.1761 54.4451C78.1779 55.6583 78.0199 56.8665 77.7062 58.0385C77.2107 60.2654 75.9632 62.2536 74.1734 63.6683C72.3836 65.083 70.161 65.8378 67.8799 65.8056C67.3619 67.5397 66.2979 69.0603 64.8461 70.1411C63.3943 71.2218 61.6324 71.8049 59.8225 71.8036C58.2045 71.7964 56.6239 71.316 55.2756 70.4216C54.1958 70.8602 53.0412 71.0855 51.8757 71.085C49.4538 71.0777 47.133 70.1134 45.4192 68.4021C43.7054 66.6909 42.7375 64.3715 42.7266 61.9497V11.6708C42.7373 10.4656 42.9872 9.2745 43.4617 8.1666C43.9362 7.0587 44.6258 6.056 45.4907 5.21659L47.6605 3.58579L51.9449 2.52162C52.3615 2.51948 52.7774 2.55181 53.1887 2.61833C54.4322 2.13312 55.7515 1.87112 57.0861 1.84439Z" fill="white"/>
<path d="M42.4453 11.4775V61.7564" stroke="#181F23" stroke-width="2" stroke-linecap="round" stroke-linejoin="round"/>
<path d="M42.4453 61.8257C42.4562 64.2476 43.4241 66.5669 45.138 68.2782C46.8518 69.9894 49.1726 70.9538 51.5945 70.961C52.7599 70.9615 53.9144 70.7363 54.9942 70.2977C56.3426 71.1921 57.9232 71.6725 59.5412 71.6797C61.3511 71.681 63.1131 71.0979 64.5648 70.0172C66.0166 68.9364 67.0806 67.4158 67.5986 65.6817C67.8489 64.8905 67.9747 64.0652 67.9717 63.2354C67.9611 61.2118 67.2219 59.2598 65.8893 57.7369C64.5568 56.214 62.7202 55.2222 60.7159 54.9431" stroke="#181F23" stroke-width="2" stroke-linecap="round" stroke-linejoin="round"/>
<path d="M60.7128 11.4775C60.708 9.27344 59.9089 7.14494 58.462 5.48228C57.0151 3.81963 55.0174 2.73422 52.8351 2.42506C52.4238 2.35853 52.0079 2.32621 51.5913 2.32835L47.3069 3.39251L45.1371 5.02331C44.2723 5.86272 43.5826 6.86542 43.1081 7.97333C42.6336 9.08123 42.3838 10.2723 42.373 11.4775" stroke="#181F23" stroke-width="2" stroke-linecap="round" stroke-linejoin="round"/>
<path d="M67.5951 65.5854C69.888 65.6337 72.1268 64.8862 73.9308 63.4702C75.7349 62.0542 76.9928 60.057 77.4906 57.8183C77.8042 56.6463 77.9623 55.4381 77.9605 54.2249C77.9641 52.7259 77.6718 51.241 77.1002 49.8552C76.5287 48.4695 75.6892 47.2102 74.6299 46.1496C73.5706 45.089 72.3123 44.248 70.9273 43.6748C69.5422 43.1015 68.0576 42.8074 66.5586 42.8092V42.8092" stroke="#181F23" stroke-width="2" stroke-linecap="round" stroke-linejoin="round"/>
<path d="M77.6287 50.7692C79.29 49.2028 80.4436 47.1742 80.9401 44.9455C81.4367 42.7168 81.2535 40.3905 80.4142 38.267C79.5749 36.1435 78.1181 34.3205 76.232 33.0335C74.346 31.7465 72.1173 31.0546 69.834 31.0474" stroke="#181F23" stroke-width="2" stroke-linecap="round" stroke-linejoin="round"/>
<path d="M77.7564 34.0464C78.8157 32.2754 79.3746 30.2502 79.3734 28.1865C79.3838 26.7676 79.1211 25.36 78.5994 24.0404C77.5956 21.4297 75.6608 19.2832 73.168 18.0146" stroke="#181F23" stroke-width="2" stroke-linecap="round" stroke-linejoin="round"/>
<path d="M64.8754 4.98257C63.3296 3.44488 61.3767 2.38081 59.2466 1.91561C57.1164 1.4504 54.8977 1.60343 52.8516 2.35669" stroke="#181F23" stroke-width="2" stroke-linecap="round" stroke-linejoin="round"/>
<path d="M56.7578 24.51C59.777 24.4991 62.6685 23.2911 64.7982 21.151C66.9279 19.0109 68.1219 16.1135 68.1182 13.0943V12.887C68.0745 9.93328 66.8736 7.11463 64.7737 5.03699" stroke="#181F23" stroke-width="2" stroke-linecap="round" stroke-linejoin="round"/>
<path d="M64.875 28.9334C67.1098 28.9297 69.252 28.0403 70.8322 26.4601C72.4124 24.8799 73.3018 22.7377 73.3055 20.5029C73.3107 19.6774 73.1848 18.8564 72.9324 18.0705C72.5922 16.9312 72.015 15.8768 71.2385 14.9765C70.462 14.0761 69.5038 13.3502 68.4269 12.8463" stroke="#181F23" stroke-width="2" stroke-linecap="round" stroke-linejoin="round"/>
<path d="M54.2609 22.52C53.7036 22.5261 53.1623 22.7067 52.7129 23.0363C52.2635 23.3659 51.9286 23.828 51.7553 24.3576C51.582 24.8873 51.579 25.458 51.7466 25.9895C51.9142 26.521 52.2442 26.9866 52.69 27.321C53.1359 27.6554 53.6752 27.8418 54.2324 27.8539C54.7896 27.866 55.3366 27.7033 55.7966 27.3886C56.2565 27.0739 56.6063 26.623 56.7969 26.0993C56.9875 25.5756 57.0093 25.0054 56.8592 24.4687C56.6989 23.9043 56.358 23.4081 55.8887 23.0561C55.4194 22.7041 54.8476 22.5158 54.2609 22.52Z" fill="#181F23" stroke="#181F23" stroke-width="2" stroke-linecap="round" stroke-linejoin="round"/>
<path d="M63.8087 40.1689C63.2553 40.1526 62.7097 40.3028 62.2426 40.6001C61.7756 40.8974 61.4086 41.3281 61.1892 41.8364C60.9698 42.3447 60.9081 42.9072 61.0121 43.451C61.1161 43.9948 61.381 44.4949 61.7724 44.8864C62.1639 45.2778 62.664 45.5427 63.2078 45.6467C63.7516 45.7507 64.3141 45.689 64.8224 45.4696C65.3307 45.2502 65.7614 44.8832 66.0587 44.4161C66.356 43.9491 66.5062 43.4035 66.4898 42.8501C66.4917 42.4975 66.4236 42.148 66.2895 41.8219C66.1554 41.4958 65.958 41.1995 65.7086 40.9502C65.4593 40.7008 65.163 40.5034 64.8369 40.3693C64.5108 40.2352 64.1613 40.1671 63.8087 40.1689Z" fill="#181F23" stroke="#181F23" stroke-width="2" stroke-linecap="round" stroke-linejoin="round"/>
<path d="M58.0024 51.5702C57.4496 51.5538 56.9046 51.7036 56.4378 52.0002C55.971 52.2969 55.6039 52.7267 55.384 53.2342C55.1642 53.7417 55.1016 54.3035 55.2044 54.8469C55.3073 55.3904 55.5707 55.8905 55.9608 56.2826C56.3508 56.6746 56.8496 56.9407 57.3925 57.0463C57.9354 57.1519 58.4975 57.0922 59.0061 56.875C59.5147 56.6577 59.9464 56.2929 60.2455 55.8276C60.5445 55.3624 60.6972 54.8181 60.6836 54.2652C60.6663 53.5583 60.3786 52.8849 59.8798 52.3836C59.3811 51.8823 58.7093 51.5912 58.0024 51.5702Z" fill="#181F23" stroke="#181F23" stroke-width="2" stroke-linecap="round" stroke-linejoin="round"/>
<path d="M24.5756 25.2147C24.5841 25.8895 24.848 26.5359 25.3142 27.0237C25.7804 27.5116 26.4141 27.8047 27.0877 27.8439C27.7614 27.8831 28.4248 27.6655 28.9444 27.235C29.4641 26.8046 29.8013 26.1931 29.888 25.5239C29.9748 24.8548 29.8046 24.1776 29.4119 23.6288C29.0193 23.0801 28.4332 22.7005 27.7718 22.5667C27.1105 22.4328 26.423 22.5547 25.8478 22.9075C25.2727 23.2604 24.8526 23.8182 24.6724 24.4684C24.6054 24.7114 24.5728 24.9627 24.5756 25.2147Z" fill="#181F23"/>
<path d="M20.8437 54.2652C20.8301 54.8181 20.9828 55.3624 21.2818 55.8276C21.5809 56.2929 22.0126 56.6577 22.5213 56.875C23.0299 57.0922 23.592 57.1519 24.1349 57.0463C24.6778 56.9407 25.1765 56.6746 25.5666 56.2826C25.9567 55.8905 26.2201 55.3904 26.3229 54.8469C26.4257 54.3035 26.3632 53.7417 26.1433 53.2342C25.9234 52.7267 25.5564 52.2969 25.0896 52.0002C24.6228 51.7036 24.0777 51.5538 23.5249 51.5702C22.8181 51.5912 22.1463 51.8823 21.6475 52.3836C21.1488 52.8849 20.8611 53.5583 20.8437 54.2652Z" fill="#181F23"/>
<path d="M25.4042 1.84439C23.9079 1.84088 22.4257 2.13338 21.0428 2.70501C19.66 3.27664 18.4039 4.1161 17.3468 5.17513C15.2469 7.25278 14.046 10.0714 14.0023 13.0252H13.7949C12.718 13.529 11.7599 14.2549 10.9834 15.1553C10.2069 16.0556 9.62968 17.11 9.28953 18.2493H9.05452C6.56173 19.5178 4.62688 21.6644 3.62308 24.275C3.10144 25.5946 2.83868 27.0023 2.84914 28.4212C2.84792 30.4848 3.40675 32.5101 4.46611 34.2811L4.5767 34.3916C3.44734 35.4575 2.54759 36.7427 1.93264 38.1686C1.31768 39.5945 1.00045 41.1311 1.00045 42.6839C1.00045 44.2368 1.31768 45.7733 1.93264 47.1992C2.54759 48.6251 3.44734 49.9104 4.5767 50.9762L4.82546 51.0453C4.48559 52.1465 4.31321 53.2926 4.31411 54.4451C4.31234 55.6583 4.47037 56.8665 4.78404 58.0385C5.27949 60.2654 6.52708 62.2536 8.31685 63.6683C10.1066 65.083 12.3292 65.8378 14.6104 65.8056C15.1283 67.5397 16.1924 69.0603 17.6442 70.1411C19.0959 71.2218 20.8579 71.8049 22.6677 71.8036C24.2858 71.7964 25.8663 71.316 27.2147 70.4216C28.2945 70.8602 29.449 71.0855 30.6145 71.085C33.0364 71.0777 35.3572 70.1134 37.071 68.4021C38.7849 66.6909 39.7527 64.3715 39.7637 61.9497V11.6708C39.7529 10.4656 39.503 9.2745 39.0285 8.1666C38.5541 7.0587 37.8644 6.056 36.9996 5.21659L34.8298 3.58579L30.5454 2.52162C30.1288 2.51948 29.7128 2.55181 29.3016 2.61833C28.0581 2.13312 26.7387 1.87112 25.4042 1.84439Z" fill="white"/>
<path d="M40.0469 11.4775V61.7564" stroke="#181F23" stroke-width="2" stroke-linecap="round" stroke-linejoin="round"/>
<path d="M40.0469 61.8257C40.0359 64.2476 39.0681 66.5669 37.3542 68.2782C35.6404 69.9894 33.3196 70.9538 30.8977 70.961C29.7322 70.9615 28.5778 70.7363 27.4979 70.2977C26.1496 71.1921 24.569 71.6725 22.9509 71.6797C21.1411 71.681 19.3791 71.0979 17.9274 70.0172C16.4756 68.9364 15.4115 67.4158 14.8936 65.6817C14.6433 64.8905 14.5175 64.0652 14.5205 63.2354C14.5311 61.2118 15.2703 59.2598 16.6028 57.7369C17.9354 56.214 19.772 55.2222 21.7762 54.9431" stroke="#181F23" stroke-width="2" stroke-linecap="round" stroke-linejoin="round"/>
<path d="M21.7794 11.4775C21.7842 9.27344 22.5833 7.14494 24.0302 5.48228C25.4771 3.81963 27.4748 2.73422 29.6571 2.42506C30.0683 2.35853 30.4843 2.32621 30.9009 2.32835L35.1853 3.39251L37.355 5.02331C38.2199 5.86272 38.9096 6.86542 39.3841 7.97333C39.8586 9.08123 40.1084 10.2723 40.1191 11.4775" stroke="#181F23" stroke-width="2" stroke-linecap="round" stroke-linejoin="round"/>
<path d="M14.8971 65.5854C12.6042 65.6337 10.3654 64.8862 8.56135 63.4702C6.75731 62.0542 5.49941 60.057 5.00163 57.8183C4.68796 56.6463 4.52994 55.4381 4.5317 54.2249C4.52806 52.7259 4.8204 51.241 5.39194 49.8552C5.96348 48.4695 6.80301 47.2102 7.86231 46.1496C8.92162 45.089 10.1799 44.248 11.5649 43.6748C12.95 43.1015 14.4346 42.8074 15.9336 42.8092V42.8092" stroke="#181F23" stroke-width="2" stroke-linecap="round" stroke-linejoin="round"/>
<path d="M4.86352 50.7692C3.20214 49.2028 2.0486 47.1742 1.55205 44.9455C1.0555 42.7168 1.23871 40.3905 2.07799 38.267C2.91728 36.1435 4.37408 34.3205 6.26016 33.0335C8.14623 31.7465 10.3749 31.0546 12.6582 31.0474" stroke="#181F23" stroke-width="2" stroke-linecap="round" stroke-linejoin="round"/>
<path d="M4.73581 34.0464C3.67645 32.2754 3.11761 30.2502 3.11884 28.1865C3.10838 26.7676 3.37114 25.36 3.89278 24.0404C4.89658 21.4297 6.83142 19.2832 9.32422 18.0146" stroke="#181F23" stroke-width="2" stroke-linecap="round" stroke-linejoin="round"/>
<path d="M17.6168 4.98257C19.1626 3.44488 21.1155 2.38081 23.2456 1.91561C25.3758 1.4504 27.5945 1.60343 29.6406 2.35669" stroke="#181F23" stroke-width="2" stroke-linecap="round" stroke-linejoin="round"/>
<path d="M25.7344 24.51C22.7152 24.4991 19.8237 23.2911 17.694 21.151C15.5643 19.0109 14.3703 16.1135 14.374 13.0943V12.887C14.4177 9.93328 15.6186 7.11463 17.7185 5.03699" stroke="#181F23" stroke-width="2" stroke-linecap="round" stroke-linejoin="round"/>
<path d="M17.6172 28.9334C15.3824 28.9297 13.2402 28.0403 11.66 26.4601C10.0797 24.8799 9.19038 22.7377 9.18673 20.5029C9.18153 19.6774 9.30743 18.8564 9.55982 18.0705C9.89998 16.9312 10.4772 15.8768 11.2537 14.9765C12.0302 14.0761 12.9884 13.3502 14.0653 12.8463" stroke="#181F23" stroke-width="2" stroke-linecap="round" stroke-linejoin="round"/>
<path d="M28.2313 22.52C28.7885 22.5261 29.3299 22.7067 29.7793 23.0363C30.2287 23.3659 30.5636 23.828 30.7369 24.3576C30.9102 24.8873 30.9132 25.458 30.7456 25.9895C30.5779 26.521 30.248 26.9866 29.8022 27.321C29.3563 27.6554 28.817 27.8418 28.2598 27.8539C27.7026 27.866 27.1556 27.7033 26.6956 27.3886C26.2356 27.0739 25.8858 26.623 25.6953 26.0993C25.5047 25.5756 25.4829 25.0054 25.633 24.4687C25.7933 23.9043 26.1342 23.4081 26.6035 23.0561C27.0728 22.7041 27.6446 22.5158 28.2313 22.52Z" fill="#181F23" stroke="#181F23" stroke-width="2" stroke-linecap="round" stroke-linejoin="round"/>
<path d="M18.6835 40.1689C19.2369 40.1526 19.7825 40.3028 20.2496 40.6001C20.7166 40.8974 21.0835 41.3281 21.303 41.8364C21.5224 42.3447 21.5841 42.9072 21.4801 43.451C21.3761 43.9948 21.1112 44.4949 20.7197 44.8864C20.3282 45.2778 19.8282 45.5427 19.2844 45.6467C18.7406 45.7507 18.1781 45.689 17.6698 45.4696C17.1615 45.2502 16.7308 44.8832 16.4335 44.4161C16.1362 43.9491 15.986 43.4035 16.0024 42.8501C16.0005 42.4975 16.0686 42.148 16.2027 41.8219C16.3368 41.4958 16.5342 41.1995 16.7836 40.9502C17.0329 40.7008 17.3291 40.5034 17.6553 40.3693C17.9814 40.2352 18.3309 40.1671 18.6835 40.1689Z" fill="#181F23" stroke="#181F23" stroke-width="2" stroke-linecap="round" stroke-linejoin="round"/>
<path d="M24.4897 51.5702C25.0426 51.5538 25.5876 51.7036 26.0544 52.0002C26.5212 52.2969 26.8883 52.7267 27.1082 53.2342C27.328 53.7417 27.3906 54.3035 27.2877 54.8469C27.1849 55.3904 26.9215 55.8905 26.5314 56.2826C26.1414 56.6746 25.6426 56.9407 25.0997 57.0463C24.5568 57.1519 23.9947 57.0922 23.4861 56.875C22.9775 56.6577 22.5457 56.2929 22.2467 55.8276C21.9476 55.3624 21.795 54.8181 21.8086 54.2652C21.8259 53.5583 22.1136 52.8849 22.6124 52.3836C23.1111 51.8823 23.7829 51.5912 24.4897 51.5702Z" fill="#181F23" stroke="#181F23" stroke-width="2" stroke-linecap="round" stroke-linejoin="round"/>
</svg>
