<svg width="81" height="81" viewBox="0 0 81 81" fill="none" xmlns="http://www.w3.org/2000/svg">
<circle cx="40.3265" cy="40.7688" r="40.1839" fill="white"/>
<circle cx="40.3276" cy="40.7683" r="5.37055" fill="#181F23"/>
<path d="M14.4559 58.9045C12.1132 55.5215 10.4732 51.731 9.62695 47.7438" stroke="#181F23" stroke-width="2" stroke-linecap="round" stroke-linejoin="round"/>
<path d="M33.8243 72.1575C28.7008 71.0362 23.9397 68.6463 19.9766 65.2063L27.4139 57.5092C31.0215 60.4568 35.5122 62.107 40.1673 62.1956C44.8223 62.2843 49.3724 60.8062 53.0892 57.998" stroke="#181F23" stroke-width="2" stroke-linecap="round" stroke-linejoin="round"/>
<path d="M21.4829 50.5338C20.1402 47.8291 19.3953 44.8622 19.2996 41.8383C19.2039 38.8144 19.7598 35.8056 20.9287 33.0198C22.0976 30.234 23.8517 27.7377 26.0699 25.7034C28.288 23.669 30.9172 22.1451 33.7759 21.2371" stroke="#181F23" stroke-width="2" stroke-linecap="round" stroke-linejoin="round"/>
<path d="M57.9359 52.7605C60.1043 49.4044 61.2582 45.4793 61.2558 41.4675H71.7165C71.7177 47.8338 69.8033 54.049 66.2288 59.2837C62.6543 64.5183 57.5897 68.5234 51.7109 70.7643" stroke="#181F23" stroke-width="2" stroke-linecap="round" stroke-linejoin="round"/>
<path d="M59.3037 33.2193C57.7986 29.2748 55.1796 25.8895 51.7874 23.5037C48.3952 21.1179 44.3866 19.8421 40.2831 19.842V30.6757C42.6564 30.6772 44.951 31.5554 46.7525 33.1519C48.554 34.7483 49.7437 36.9577 50.1068 39.3811C50.4699 41.8045 49.9824 44.2822 48.7325 46.3667C47.4825 48.4513 45.5524 50.0054 43.2907 50.7484C41.0289 51.4913 38.5846 51.3742 36.3991 50.4182C34.2136 49.4622 32.431 47.7302 31.373 45.5351C30.3151 43.34 30.0516 40.8263 30.6302 38.448C31.2087 36.0697 32.5912 33.9836 34.5279 32.5662" stroke="#181F23" stroke-width="2" stroke-linecap="round" stroke-linejoin="round"/>
<path d="M58.6113 15.6578C64.1919 19.6284 68.3062 25.2569 70.3387 31.7013" stroke="#181F23" stroke-width="2" stroke-linecap="round" stroke-linejoin="round"/>
<path d="M8.94141 41.4667C8.94415 36.3194 10.1595 31.2482 12.4851 26.6807C14.8106 22.1132 18.1781 18.1834 22.3037 15.2226C26.4292 12.2618 31.1918 10.3568 36.1899 9.66828C41.188 8.97975 46.275 9.52786 51.0221 11.2664" stroke="#181F23" stroke-width="2" stroke-linecap="round" stroke-linejoin="round"/>
</svg>
