<svg width="441" height="698" viewBox="0 0 441 698" fill="none" xmlns="http://www.w3.org/2000/svg">
<path d="M209.603 139.753C209.603 139.753 187.186 203.262 176.033 230.006C164.88 256.751 173.289 279.615 180.494 282.158C188.056 284.834 242.794 265.361 255.799 260.32C268.156 255.524 268.29 255.859 268.29 255.859C268.29 255.859 265.986 300.235 265.986 305.142C265.986 310.049 263.113 326.953 264.005 332.307C264.897 337.66 274.09 345.908 309.734 349.454C345.379 353.001 363.644 346.842 367.19 341.935C370.737 337.028 369.447 327.017 369.447 317.225C369.447 307.432 368.109 253.182 360.993 209.396C353.878 165.609 335.141 146.939 326.218 142.099C317.296 137.258 302.15 143.883 287.005 154.122C271.859 164.36 263.383 184.435 261.152 189.811C258.922 195.187 216.139 230.809 213.016 233.932C209.893 237.055 218.921 148.796 218.921 148.796L209.603 139.753Z" fill="white"/>
<path d="M277.678 156.018C277.678 156.018 264.763 187.246 267.439 187.246C270.116 187.246 275.916 177.431 275.916 177.431L283.477 192.599C283.477 192.599 284.816 156.91 283.923 155.594C283.031 154.278 279.462 151.2 277.678 156.018Z" fill="white" stroke="#181F23" stroke-linecap="round" stroke-linejoin="round"/>
<path d="M266.534 137.296C270.669 136.985 274.763 136.176 278.744 134.883C280.914 134.239 283.652 132.841 286.515 131.131C289.389 129.415 292.422 127.364 295.186 125.396C297.95 123.428 300.45 121.538 302.258 120.14C303.162 119.441 303.894 118.865 304.4 118.464C304.511 118.375 304.612 118.295 304.701 118.224C304.722 118.267 304.745 118.311 304.768 118.359C304.986 118.799 305.298 119.431 305.67 120.197C306.415 121.73 307.402 123.799 308.376 125.945C309.35 128.093 310.307 130.31 310.991 132.141C311.333 133.058 311.604 133.869 311.775 134.521C311.86 134.847 311.918 135.125 311.949 135.352C311.98 135.586 311.978 135.735 311.964 135.816C311.959 135.843 311.935 135.927 311.873 136.088C311.815 136.24 311.732 136.436 311.626 136.676C311.412 137.154 311.11 137.789 310.729 138.562C309.969 140.106 308.903 142.185 307.631 144.628C305.594 148.543 303.03 153.385 300.346 158.455C299.679 159.714 299.004 160.988 298.329 162.265C294.935 168.68 291.512 175.175 288.854 180.38C287.525 182.982 286.385 185.265 285.535 187.055C284.864 188.468 284.36 189.602 284.091 190.347C284.051 190.15 284.01 189.926 283.968 189.677C283.675 187.907 283.393 185.005 283.108 181.735C283.004 180.536 282.899 179.289 282.794 178.033C282.613 175.874 282.43 173.691 282.243 171.686C281.946 168.524 281.635 165.761 281.292 164.22C280.941 162.642 279.796 160.117 278.317 157.266C276.828 154.396 274.971 151.141 273.159 148.079C271.347 145.016 269.577 142.143 268.261 140.035C267.602 138.981 267.057 138.118 266.676 137.519C266.626 137.44 266.579 137.366 266.534 137.296Z" fill="white" stroke="#181F23"/>
<path d="M166.571 653.283L162.846 658.859L168.422 662.585L164.719 668.786L169.671 673.113L160.37 679.314L165.322 682.414L164.095 686.764L169.047 689.24L164.095 696.668H12.2362L9.13567 689.24L12.8608 684.89L7.28428 681.79L15.9613 679.314L10.3848 675.589L16.5635 673.113L8.51111 670.012L28.9656 663.811L6.03516 660.109L13.463 603.697L164.206 629.616L166.571 653.283Z" fill="white" stroke="#181F23" stroke-miterlimit="10" stroke-linecap="round"/>
<path d="M151.301 662.389C145.643 663.563 140.371 664.609 136.083 665.44C132.877 666.061 130.221 666.563 128.368 666.909C127.441 667.082 126.715 667.216 126.22 667.307C125.973 667.353 125.783 667.388 125.656 667.411L125.512 667.437L125.475 667.444L125.466 667.445L125.464 667.446L125.463 667.446C125.463 667.446 125.463 667.446 125.552 667.938L125.463 667.446L125.529 668.437L151.717 669.659L127.8 672.058L127.827 673.055L153.752 674.264L128.561 676.653L128.522 677.643L143.235 680.206L127.013 682.791L126.975 683.771L155.03 690.502H29.4551L56.5345 688.266L56.596 687.278L26.8548 681.045L64.9711 677.514L65.0025 676.522L30.5811 671.126L67.2717 669.151L67.362 668.166L52.4108 664.562C73.1125 666.367 98.1835 665.802 118.909 664.701C130.571 664.082 140.865 663.292 148.244 662.657C149.328 662.564 150.348 662.474 151.301 662.389Z" stroke="#181F23"/>
<path d="M0.90625 659.774C0.90625 659.774 92.8066 663.856 166.572 653.328L164.208 617.393L9.13713 602.582L0.90625 659.774Z" fill="white"/>
<path d="M0.90625 659.774C0.90625 659.774 92.8066 663.856 166.572 653.328L164.208 617.393L9.13713 602.582L0.90625 659.774Z" stroke="#181F23" stroke-miterlimit="10" stroke-linecap="round"/>
<path d="M37.2874 612.53L34.5215 641.818" stroke="#181F23" stroke-linecap="round" stroke-linejoin="round"/>
<path d="M60.1743 614.359L59.2598 644.584" stroke="#181F23" stroke-linecap="round" stroke-linejoin="round"/>
<path d="M83.0571 617.103L82.1426 646.413" stroke="#181F23" stroke-linecap="round" stroke-linejoin="round"/>
<path d="M104.139 623.505V647.327" stroke="#181F23" stroke-linecap="round" stroke-linejoin="round"/>
<path d="M128.855 629.014L129.77 647.327" stroke="#181F23" stroke-linecap="round" stroke-linejoin="round"/>
<path d="M150.846 632.672L151.76 647.327" stroke="#181F23" stroke-linecap="round" stroke-linejoin="round"/>
<path d="M167.24 591.094C167.24 591.094 44.9587 645.074 0.949219 659.729L9.1801 602.47L132.532 551.434L167.24 591.094Z" fill="white"/>
<path d="M167.24 591.094C167.24 591.094 44.9587 645.074 0.949219 659.729L9.1801 602.47L132.532 551.434L167.24 591.094Z" stroke="#181F23" stroke-linecap="round" stroke-linejoin="round"/>
<path d="M48.7966 596.046L167.196 591.094L143.641 539.657L27.1152 540.281L48.7966 596.046Z" fill="white"/>
<path d="M48.7966 596.046L167.196 591.094L143.641 539.657L27.1152 540.281L48.7966 596.046Z" stroke="#181F23" stroke-linecap="round" stroke-linejoin="round"/>
<path d="M58.3438 548.423L69.3406 585.049" stroke="#181F23" stroke-linecap="round" stroke-linejoin="round"/>
<path d="M79.4004 546.572L90.3972 585.049" stroke="#181F23" stroke-linecap="round" stroke-linejoin="round"/>
<path d="M100.48 545.657L110.54 582.306" stroke="#181F23" stroke-linecap="round" stroke-linejoin="round"/>
<path d="M122.451 545.657L133.448 581.391" stroke="#181F23" stroke-linecap="round" stroke-linejoin="round"/>
<path d="M172.417 395.583L207.883 519.158L193.697 523.842L129.01 383.582C129.01 383.582 153.546 375.575 172.417 395.583Z" fill="#181F23" stroke="white" stroke-linecap="round" stroke-linejoin="round"/>
<path d="M207.885 519.247C207.885 519.247 217.053 534.683 217.053 539.835C217.053 544.988 200.457 544.408 193.029 545.546C185.601 546.683 169.474 557.479 162.782 554.624C162.782 554.624 158.79 552.393 162.782 547.754C166.775 543.114 185.334 534.236 193.788 523.842L207.885 519.247Z" fill="white" stroke="#181F23" stroke-linecap="round" stroke-linejoin="round"/>
<path d="M203.564 157.817L217.182 161.563" stroke="#181F23" stroke-linecap="round" stroke-linejoin="round"/>
<path d="M213.053 234.021C212.372 241.227 211.179 248.376 209.484 255.413L213.053 234.021Z" fill="white"/>
<path d="M213.053 234.021C212.372 241.227 211.179 248.376 209.484 255.413" stroke="#181F23" stroke-linecap="round" stroke-linejoin="round"/>
<path d="M268.334 255.859L262.98 218.853" stroke="#181F23" stroke-linecap="round" stroke-linejoin="round"/>
<path d="M285.705 172.056L283.475 192.577L294.181 178.301L285.705 172.056Z" fill="white" stroke="#181F23" stroke-linecap="round" stroke-linejoin="round"/>
<path d="M285.707 172.056L294.629 184.993L325.835 140.872L313.79 130.611L285.707 172.056Z" fill="white" stroke="#181F23" stroke-linecap="round" stroke-linejoin="round"/>
<path d="M197.555 238.416C197.555 238.416 191.354 307.832 165.947 377.27C140.541 446.708 27.1152 540.281 27.1152 540.281L48.7966 596.046C48.7966 596.046 129.99 534.705 168.423 444.21C206.856 353.715 208.105 240.289 208.105 240.289L197.555 238.416Z" fill="white"/>
<path d="M197.555 238.416C197.555 238.416 191.354 307.832 165.947 377.27C140.541 446.708 27.1152 540.281 27.1152 540.281L48.7966 596.046C48.7966 596.046 129.99 534.705 168.423 444.21C206.856 353.715 208.105 240.289 208.105 240.289L197.555 238.416Z" stroke="#181F23" stroke-linecap="round" stroke-linejoin="round"/>
<path d="M95.8635 362.548C95.8635 362.548 86.1381 371.805 90.7777 383.872C95.4174 395.94 175.116 529.396 175.116 529.396L193.652 525.225C193.652 525.225 156.58 403.792 149.621 388.958C142.661 374.125 137.107 364.868 132.49 361.611" fill="#181F23"/>
<path d="M95.8635 362.548C95.8635 362.548 86.1381 371.805 90.7777 383.872C95.4174 395.94 175.116 529.396 175.116 529.396L193.652 525.225C193.652 525.225 156.58 403.792 149.621 388.958C142.661 374.125 137.107 364.868 132.49 361.611" stroke="white" stroke-linecap="round" stroke-linejoin="round"/>
<path d="M175.158 529.396C175.158 529.396 151.536 545.612 141.32 549.784C131.104 553.955 134.383 559.063 141.32 559.063C148.257 559.063 174.779 555.806 185.932 554.423C197.085 553.04 203.085 553.955 203.554 547.932C204.022 541.91 193.806 523.842 193.806 523.842L175.158 529.396Z" fill="white" stroke="#181F23" stroke-linecap="round" stroke-linejoin="round"/>
<path d="M309.775 349.454C281.045 346.577 267.661 339.372 263.088 333.84L259.051 338.881L259.519 342.584C259.519 342.584 204.357 334.242 161.262 339.35C118.167 344.458 92.1137 357.418 90.3516 373.188L112.657 383.382C145.559 402.855 218.789 407.026 244.262 408.877C269.736 410.729 318.429 408.877 336.966 406.089C355.502 403.301 363.844 395.427 365.696 380.125C367.235 367.5 367.502 347.938 367.547 341.491C360.833 346.398 341.226 352.6 309.775 349.454Z" fill="#181F23" stroke="white" stroke-linecap="round" stroke-linejoin="round"/>
<path d="M261.371 344.926L290.101 370.422" stroke="white" stroke-linecap="round" stroke-linejoin="round"/>
<path d="M266.01 346.332L286.866 354.206" stroke="white" stroke-linecap="round" stroke-linejoin="round"/>
<path d="M164.498 239.821C164.498 239.821 128.809 251.398 117.656 266.588L74.0254 189.12C95.5509 183.608 117.807 181.501 139.984 182.874C174.29 185.551 197.02 209.641 206.389 225.255L164.498 239.821Z" fill="white" stroke="#181F23" stroke-linecap="round" stroke-linejoin="round"/>
<path d="M107.797 196.748L129.768 237.033" stroke="#181F23" stroke-linecap="round" stroke-linejoin="round"/>
<path d="M128.855 193.09L148.083 229.716" stroke="#181F23" stroke-linecap="round" stroke-linejoin="round"/>
<path d="M149.934 192.176L166.418 224.229" stroke="#181F23" stroke-linecap="round" stroke-linejoin="round"/>
<path d="M312.898 185.439C312.898 185.439 307.991 197.908 308.883 205.514C309.776 213.121 312.452 263.019 312.452 263.019C312.452 263.019 271.9 260.342 255.84 254.543C239.78 248.743 225.995 242.052 225.995 242.052L222.426 256.327C222.426 256.327 250.955 281.734 275.023 291.526C299.091 301.318 345.42 310.687 350.863 308.456C356.306 306.226 361.124 256.773 360.678 237.613C360.232 218.452 361.124 197.93 352.201 183.677" fill="white"/>
<path d="M312.898 185.439C312.898 185.439 307.991 197.908 308.883 205.514C309.776 213.121 312.452 263.019 312.452 263.019C312.452 263.019 271.9 260.342 255.84 254.543C239.78 248.743 225.995 242.052 225.995 242.052L222.426 256.327C222.426 256.327 250.955 281.734 275.023 291.526C299.091 301.318 345.42 310.687 350.863 308.456C356.306 306.226 361.124 256.773 360.678 237.613C360.232 218.452 361.124 197.93 352.201 183.677" stroke="#181F23" stroke-linecap="round" stroke-linejoin="round"/>
<path d="M235.831 246.78L232.15 263.956" stroke="#181F23" stroke-linecap="round" stroke-linejoin="round"/>
<path d="M312.451 262.997C312.451 262.997 323.136 275.912 328.935 279.481L312.451 262.997Z" fill="white"/>
<path d="M312.451 262.997C312.451 262.997 323.136 275.912 328.935 279.481" stroke="#181F23" stroke-linecap="round" stroke-linejoin="round"/>
<path d="M225.997 242.029C220.749 238.641 215.952 234.601 211.721 230.006C205.944 223.315 202.375 223.315 194.344 222.869C186.314 222.422 177.86 215.307 175.63 215.753C173.399 216.199 172.953 220.214 175.184 222.445C177.414 224.675 188.567 230.475 188.567 230.475L164.521 239.843C165.735 241.223 167.266 242.287 168.983 242.944C172.105 244.282 175.228 242.944 176.567 244.282C177.905 245.621 185.935 248.297 190.82 250.082C195.705 251.866 211.765 249.189 211.765 249.189L222.472 256.327L225.997 242.029Z" fill="white"/>
<path d="M225.997 242.029C220.749 238.641 215.952 234.601 211.721 230.006C205.944 223.315 202.375 223.315 194.344 222.869C186.314 222.422 177.86 215.307 175.63 215.753C173.399 216.199 172.953 220.214 175.184 222.445C177.414 224.675 188.567 230.475 188.567 230.475L164.521 239.843C165.735 241.223 167.266 242.287 168.983 242.944C172.105 244.282 175.228 242.944 176.567 244.282C177.905 245.621 185.935 248.297 190.82 250.082C195.705 251.866 211.765 249.189 211.765 249.189L222.472 256.327L225.997 242.029Z" stroke="#181F23" stroke-linecap="round" stroke-linejoin="round"/>
<path d="M203.756 414.409C207.767 423.597 209.838 433.515 209.838 443.541C209.838 453.566 207.767 463.484 203.756 472.672H409.528C409.528 472.672 434.912 466.382 434.912 443.407C434.912 443.407 430.562 422.952 410.108 414.9L203.756 414.409Z" fill="white" stroke="#181F23" stroke-linecap="round" stroke-linejoin="round"/>
<path d="M414.545 420.945V466.739" stroke="#181F23" stroke-linecap="round" stroke-linejoin="round"/>
<path d="M209.352 428.573H240.937" stroke="#181F23" stroke-linecap="round" stroke-linejoin="round"/>
<path d="M219.258 432.923H254.59" stroke="#181F23" stroke-linecap="round" stroke-linejoin="round"/>
<path d="M209.332 454.002H268.22" stroke="#181F23" stroke-linecap="round" stroke-linejoin="round"/>
<path d="M413.876 431.049H387.221" stroke="#181F23" stroke-linecap="round" stroke-linejoin="round"/>
<path d="M412.626 438.5H354.363" stroke="#181F23" stroke-linecap="round" stroke-linejoin="round"/>
<path d="M348.164 438.5H328.334" stroke="#181F23" stroke-linecap="round" stroke-linejoin="round"/>
<path d="M377.295 450.902H413.877" stroke="#181F23" stroke-linecap="round" stroke-linejoin="round"/>
<path d="M208.105 462.055H231.66" stroke="#181F23" stroke-linecap="round" stroke-linejoin="round"/>
<path d="M195.079 480.135H195.064L195.049 480.136C194.273 480.183 193.495 480.07 192.764 479.805C192.033 479.54 191.364 479.129 190.798 478.596C190.232 478.063 189.781 477.42 189.473 476.706C189.165 475.992 189.006 475.223 189.006 474.446C189.006 473.668 189.165 472.899 189.473 472.185C189.781 471.471 190.232 470.828 190.798 470.295C191.364 469.762 192.033 469.351 192.764 469.086C193.495 468.821 194.273 468.708 195.049 468.755L195.064 468.756H195.079H401.787C416.214 468.756 428.006 457.859 428.006 444.388C428.006 430.917 416.214 420.021 401.787 420.021H196.93C195.418 420.021 193.968 419.42 192.899 418.351C191.83 417.282 191.229 415.832 191.229 414.32C191.229 412.808 191.83 411.358 192.899 410.289C193.968 409.22 195.418 408.619 196.93 408.619H401.787C422.547 408.619 439.408 424.701 439.408 444.388C439.408 464.075 422.547 480.135 401.787 480.135H195.079Z" fill="#181F23" stroke="white"/>
<path d="M425.028 486.234C421.015 495.422 418.944 505.34 418.944 515.366C418.944 525.392 421.015 535.309 425.028 544.497H219.256C219.256 544.497 193.85 538.296 193.85 515.366C193.85 515.366 198.177 494.911 218.631 486.836L425.028 486.234Z" fill="white" stroke="#181F23" stroke-linecap="round" stroke-linejoin="round"/>
<path d="M213.68 496.049V536.289" stroke="#181F23" stroke-linecap="round" stroke-linejoin="round"/>
<path d="M419.451 500.488H387.844" stroke="#181F23" stroke-linecap="round" stroke-linejoin="round"/>
<path d="M409.525 504.815H374.215" stroke="#181F23" stroke-linecap="round" stroke-linejoin="round"/>
<path d="M419.452 525.894H360.564" stroke="#181F23" stroke-linecap="round" stroke-linejoin="round"/>
<path d="M214.91 502.964H241.566" stroke="#181F23" stroke-linecap="round" stroke-linejoin="round"/>
<path d="M216.158 510.391H274.421" stroke="#181F23" stroke-linecap="round" stroke-linejoin="round"/>
<path d="M280.621 510.391H300.451" stroke="#181F23" stroke-linecap="round" stroke-linejoin="round"/>
<path d="M251.492 522.793H214.91" stroke="#181F23" stroke-linecap="round" stroke-linejoin="round"/>
<path d="M420.7 533.946H397.145" stroke="#181F23" stroke-linecap="round" stroke-linejoin="round"/>
<path d="M226.998 552.55H433.706C435.351 552.55 436.928 551.896 438.091 550.733C439.254 549.57 439.907 547.993 439.907 546.349C439.907 544.704 439.254 543.127 438.091 541.964C436.928 540.801 435.351 540.148 433.706 540.148H226.998C212.811 540.148 201.279 529.441 201.279 516.28C201.279 503.12 212.811 492.413 226.998 492.413H431.855C432.699 492.464 433.545 492.341 434.34 492.053C435.135 491.765 435.862 491.317 436.478 490.737C437.094 490.158 437.584 489.458 437.92 488.682C438.255 487.905 438.428 487.069 438.428 486.223C438.428 485.377 438.255 484.541 437.92 483.764C437.584 482.988 437.094 482.288 436.478 481.709C435.862 481.129 435.135 480.681 434.34 480.393C433.545 480.105 432.699 479.982 431.855 480.033H226.998C205.986 480.033 188.877 496.294 188.877 516.28C188.877 536.266 205.986 552.55 226.998 552.55Z" fill="white" stroke="#181F23" stroke-linecap="round" stroke-linejoin="round"/>
<path d="M203.756 558.461C207.767 567.649 209.838 577.567 209.838 587.592C209.838 597.618 207.767 607.536 203.756 616.724H409.528C409.528 616.724 434.956 610.523 434.956 587.592C434.956 587.592 430.607 567.138 410.152 559.063L203.756 558.461Z" fill="white" stroke="#181F23" stroke-linecap="round" stroke-linejoin="round"/>
<path d="M414.545 565.063V610.879" stroke="#181F23" stroke-linecap="round" stroke-linejoin="round"/>
<path d="M209.352 572.714H240.937" stroke="#181F23" stroke-linecap="round" stroke-linejoin="round"/>
<path d="M219.258 577.042H254.59" stroke="#181F23" stroke-linecap="round" stroke-linejoin="round"/>
<path d="M209.332 598.121H268.22" stroke="#181F23" stroke-linecap="round" stroke-linejoin="round"/>
<path d="M413.876 575.19H387.221" stroke="#181F23" stroke-linecap="round" stroke-linejoin="round"/>
<path d="M412.626 582.618H354.363" stroke="#181F23" stroke-linecap="round" stroke-linejoin="round"/>
<path d="M348.164 582.618H328.334" stroke="#181F23" stroke-linecap="round" stroke-linejoin="round"/>
<path d="M377.295 595.02H413.877" stroke="#181F23" stroke-linecap="round" stroke-linejoin="round"/>
<path d="M208.105 606.173H231.66" stroke="#181F23" stroke-linecap="round" stroke-linejoin="round"/>
<path d="M401.787 624.276H195.078C193.566 624.276 192.116 623.675 191.047 622.606C189.978 621.537 189.377 620.087 189.377 618.575C189.377 617.063 189.978 615.613 191.047 614.544C192.116 613.475 193.566 612.874 195.078 612.874H401.787C416.214 612.874 428.005 601.978 428.005 588.507C428.005 575.035 416.213 564.162 401.787 564.162H196.929C195.417 564.162 193.967 563.561 192.898 562.492C191.829 561.423 191.228 559.973 191.228 558.461C191.228 556.949 191.829 555.499 192.898 554.429C193.967 553.36 195.417 552.76 196.929 552.76H401.787C422.547 552.76 439.407 568.82 439.407 588.507C439.407 608.193 422.546 624.276 401.787 624.276Z" fill="#181F23" stroke="white"/>
<path d="M425.028 630.353C421.016 639.541 418.946 649.458 418.946 659.484C418.946 669.51 421.016 679.427 425.028 688.616H219.256C219.256 688.616 193.85 682.415 193.85 659.484C193.85 659.484 198.177 639.03 218.631 630.977L425.028 630.353Z" fill="white" stroke="#181F23" stroke-linecap="round" stroke-linejoin="round"/>
<path d="M213.68 640.167V680.407" stroke="#181F23" stroke-linecap="round" stroke-linejoin="round"/>
<path d="M419.451 644.606H387.844" stroke="#181F23" stroke-linecap="round" stroke-linejoin="round"/>
<path d="M409.525 648.956H374.215" stroke="#181F23" stroke-linecap="round" stroke-linejoin="round"/>
<path d="M419.452 670.012H360.564" stroke="#181F23" stroke-linecap="round" stroke-linejoin="round"/>
<path d="M214.91 647.082H241.566" stroke="#181F23" stroke-linecap="round" stroke-linejoin="round"/>
<path d="M216.158 654.532H274.421" stroke="#181F23" stroke-linecap="round" stroke-linejoin="round"/>
<path d="M280.621 654.532H300.451" stroke="#181F23" stroke-linecap="round" stroke-linejoin="round"/>
<path d="M251.492 666.912H214.91" stroke="#181F23" stroke-linecap="round" stroke-linejoin="round"/>
<path d="M420.7 678.087H397.145" stroke="#181F23" stroke-linecap="round" stroke-linejoin="round"/>
<path d="M226.998 696.668H433.706C435.351 696.668 436.928 696.015 438.091 694.852C439.254 693.689 439.907 692.112 439.907 690.467C439.907 688.822 439.254 687.245 438.091 686.082C436.928 684.919 435.351 684.266 433.706 684.266H226.998C212.811 684.266 201.279 673.581 201.279 660.421C201.279 647.261 212.811 636.554 226.998 636.554H431.855C433.5 636.554 435.077 635.9 436.24 634.737C437.403 633.574 438.056 631.997 438.056 630.353C438.056 628.708 437.403 627.131 436.24 625.968C435.077 624.805 433.5 624.152 431.855 624.152H226.998C205.986 624.152 188.877 640.413 188.877 660.421C188.877 680.429 205.986 696.668 226.998 696.668Z" fill="white" stroke="#181F23" stroke-linecap="round" stroke-linejoin="round"/>
<path d="M237.436 101.948C237.436 101.948 233.787 95.5899 229.027 97.1196C224.266 98.6494 224.708 104.313 229.649 109.355C234.59 114.397 244.318 115.427 243.681 111.758C243.044 108.089 237.436 101.948 237.436 101.948Z" fill="white" stroke="#181F23" stroke-linecap="round" stroke-linejoin="round"/>
<path d="M304.879 80.2757C304.879 80.2757 304.131 72.9853 308.891 71.4556C313.652 69.9259 316.592 74.7864 315.523 81.7598C314.454 88.7332 307.138 95.2404 305.508 91.8903C303.878 88.5403 304.879 80.2757 304.879 80.2757Z" fill="white" stroke="#181F23" stroke-linecap="round" stroke-linejoin="round"/>
<path d="M299.79 62.1956C299.79 62.1956 306.693 83.676 307.927 97.0385C309.161 110.401 306.961 122.567 294.652 133.022C282.343 143.477 262.918 141.31 252.745 134.64C242.571 127.969 235.147 102.468 233.364 96.9209C231.582 91.3737 225.561 73.82 225.561 73.82C225.561 73.82 225.664 64.6179 235.228 52.7443C244.792 40.8708 255.679 33.151 273.936 37.6252C292.193 42.0994 299.79 62.1956 299.79 62.1956Z" fill="white" stroke="#181F23" stroke-linecap="round" stroke-linejoin="round"/>
<path d="M264.309 120.232C264.309 120.232 265.517 124.55 271.902 125.584" stroke="#181F23" stroke-linecap="round" stroke-linejoin="round"/>
<path d="M270.314 97.3082L272.042 102.688C271.539 103.426 271.208 104.267 271.073 105.15C270.938 106.033 271.002 106.935 271.262 107.789C272.037 111.045 275.449 111.804 277.5 108.866" fill="white"/>
<path d="M270.314 97.3082L272.042 102.688C271.539 103.426 271.208 104.267 271.073 105.15C270.938 106.033 271.002 106.935 271.262 107.789C272.037 111.045 275.449 111.804 277.5 108.866" stroke="#181F23" stroke-linecap="round" stroke-linejoin="round"/>
<path d="M250.782 98.1942C251.539 100.55 253.143 102.129 254.378 101.732C255.613 101.335 255.997 99.1178 255.24 96.7618C254.483 94.4057 252.884 92.8401 251.648 93.2371C250.413 93.6341 250.029 95.8509 250.782 98.1942Z" fill="#181F23"/>
<path d="M261.24 83.1975C261.24 83.1975 253.522 81.5328 237.958 89.019" stroke="#181F23" stroke-linecap="round" stroke-linejoin="round"/>
<path d="M272.625 77.326C273.603 73.4159 275.528 69.8066 278.231 66.8166C280.934 63.8266 284.331 61.5479 288.123 60.1816" stroke="#181F23" stroke-linecap="round" stroke-linejoin="round"/>
<path d="M285.331 88.3811C286.088 90.7371 287.691 92.3155 288.927 91.9185C290.162 91.5215 290.546 89.3047 289.789 86.9487C289.031 84.5926 287.432 83.027 286.197 83.424C284.962 83.8209 284.578 86.0377 285.331 88.3811Z" fill="#181F23"/>
<mask id="path-103-inside-1" fill="white">
<path fill-rule="evenodd" clip-rule="evenodd" d="M236.509 18.6933C220.443 24.6158 209.184 44.2824 207.685 55.0834C206.192 65.9041 204.941 76.2242 204.941 76.2242C204.941 76.2242 210.425 79.9102 222.067 80.857C222.582 83.5775 223.667 87.2953 225.947 90.5131C228.272 93.891 231.162 96.8423 234.491 99.2372L228.652 81.0671C243.788 80.7659 251.071 73.1444 256.03 65.1563C261.07 57.0366 261.548 44.2742 261.548 44.2742L262.75 44.9079C263.42 49.6949 264.27 60.5115 260.011 69.2374C259.979 69.297 259.96 69.3623 259.954 69.4294C259.948 69.4964 259.956 69.564 259.976 69.6281C259.997 69.6923 260.03 69.7516 260.074 69.8027C260.118 69.8539 260.172 69.8957 260.232 69.9259C260.291 69.957 260.356 69.9754 260.423 69.9801C260.49 69.9847 260.557 69.9755 260.62 69.953C260.753 69.9099 260.863 69.816 260.927 69.6917C265.1 61.1673 264.52 50.7196 263.864 45.5048C270.693 49.1267 290.571 59.5579 294.73 60.7497C299.778 62.1765 299.88 63.6739 299.88 63.6739L304.972 81.9167C304.972 81.9167 303.423 75.9147 305.305 72.2498C307.187 68.5849 310.366 52.2743 302.696 36.7806C295.026 21.2869 282.343 15.0435 272.442 15.165C266.315 15.2457 262.524 16.6161 260.516 17.6627C263.335 15.0534 270.713 10.1216 284.242 12.2086C284.32 12.2222 284.4 12.2151 284.474 12.1883C284.582 12.1517 284.676 12.0802 284.739 11.985C284.802 11.8898 284.832 11.7763 284.824 11.6623C284.816 11.5482 284.77 11.4401 284.694 11.3548C284.618 11.2696 284.516 11.212 284.403 11.1911C266.05 8.40818 258.776 17.8529 258.309 18.4915C256.688 17.3305 250.243 13.618 236.509 18.6933Z"/>
</mask>
<path fill-rule="evenodd" clip-rule="evenodd" d="M236.509 18.6933C220.443 24.6158 209.184 44.2824 207.685 55.0834C206.192 65.9041 204.941 76.2242 204.941 76.2242C204.941 76.2242 210.425 79.9102 222.067 80.857C222.582 83.5775 223.667 87.2953 225.947 90.5131C228.272 93.891 231.162 96.8423 234.491 99.2372L228.652 81.0671C243.788 80.7659 251.071 73.1444 256.03 65.1563C261.07 57.0366 261.548 44.2742 261.548 44.2742L262.75 44.9079C263.42 49.6949 264.27 60.5115 260.011 69.2374C259.979 69.297 259.96 69.3623 259.954 69.4294C259.948 69.4964 259.956 69.564 259.976 69.6281C259.997 69.6923 260.03 69.7516 260.074 69.8027C260.118 69.8539 260.172 69.8957 260.232 69.9259C260.291 69.957 260.356 69.9754 260.423 69.9801C260.49 69.9847 260.557 69.9755 260.62 69.953C260.753 69.9099 260.863 69.816 260.927 69.6917C265.1 61.1673 264.52 50.7196 263.864 45.5048C270.693 49.1267 290.571 59.5579 294.73 60.7497C299.778 62.1765 299.88 63.6739 299.88 63.6739L304.972 81.9167C304.972 81.9167 303.423 75.9147 305.305 72.2498C307.187 68.5849 310.366 52.2743 302.696 36.7806C295.026 21.2869 282.343 15.0435 272.442 15.165C266.315 15.2457 262.524 16.6161 260.516 17.6627C263.335 15.0534 270.713 10.1216 284.242 12.2086C284.32 12.2222 284.4 12.2151 284.474 12.1883C284.582 12.1517 284.676 12.0802 284.739 11.985C284.802 11.8898 284.832 11.7763 284.824 11.6623C284.816 11.5482 284.77 11.4401 284.694 11.3548C284.618 11.2696 284.516 11.212 284.403 11.1911C266.05 8.40818 258.776 17.8529 258.309 18.4915C256.688 17.3305 250.243 13.618 236.509 18.6933Z" fill="#181F23"/>
<path d="M207.685 55.0834L206.694 54.9468L206.695 54.946L207.685 55.0834ZM236.509 18.6933L236.855 19.6313L236.855 19.6316L236.509 18.6933ZM204.941 76.2242L204.383 77.0542L203.874 76.7123L203.948 76.1038L204.941 76.2242ZM222.067 80.857L222.149 79.8603L222.908 79.922L223.05 80.671L222.067 80.857ZM225.947 90.5131L226.763 89.9349L226.771 89.9462L225.947 90.5131ZM234.491 99.2372L235.443 98.9312L236.372 101.823L233.907 100.049L234.491 99.2372ZM228.652 81.0671L227.7 81.373L227.289 80.094L228.632 80.0673L228.652 81.0671ZM256.03 65.1563L256.879 65.6837L256.03 65.1563ZM261.548 44.2742L260.549 44.2368L260.608 42.6481L262.015 43.3896L261.548 44.2742ZM262.75 44.9079L263.217 44.0234L263.67 44.2622L263.741 44.7693L262.75 44.9079ZM260.011 69.2374L260.909 69.6761L260.902 69.6898L260.895 69.7033L260.011 69.2374ZM259.954 69.4294L258.958 69.3426L258.958 69.3426L259.954 69.4294ZM260.074 69.8027L259.315 70.4536L259.315 70.4536L260.074 69.8027ZM260.232 69.9259L260.68 69.0317L260.688 69.0358L260.696 69.0399L260.232 69.9259ZM260.423 69.9801L260.493 68.9825L260.493 68.9825L260.423 69.9801ZM260.62 69.953L260.284 69.0112L260.298 69.0062L260.312 69.0017L260.62 69.953ZM260.927 69.6917L261.825 70.1313L261.821 70.1392L261.817 70.147L260.927 69.6917ZM263.864 45.5048L262.872 45.6296L262.632 43.7191L264.333 44.6214L263.864 45.5048ZM294.73 60.7497L294.458 61.712L294.454 61.711L294.73 60.7497ZM299.88 63.6739L298.917 63.9427L298.889 63.8439L298.882 63.7415L299.88 63.6739ZM304.972 81.9167L305.94 81.6668L304.008 82.1855L304.972 81.9167ZM305.305 72.2498L304.415 71.7929L304.415 71.7929L305.305 72.2498ZM302.696 36.7806L301.8 37.2242L302.696 36.7806ZM272.442 15.165L272.429 14.1651L272.43 14.1651L272.442 15.165ZM260.516 17.6627L260.979 18.5494L259.837 16.9289L260.516 17.6627ZM284.242 12.2086L284.394 11.2203L284.404 11.2218L284.413 11.2234L284.242 12.2086ZM284.474 12.1883L284.134 11.2478L284.144 11.2442L284.154 11.2409L284.474 12.1883ZM284.824 11.6623L283.827 11.7332L283.827 11.7332L284.824 11.6623ZM284.694 11.3548L283.948 12.021L283.948 12.0209L284.694 11.3548ZM284.403 11.1911L284.553 10.2024L284.57 10.2049L284.586 10.2079L284.403 11.1911ZM258.309 18.4915L259.116 19.0823L258.531 19.8807L257.726 19.3045L258.309 18.4915ZM206.695 54.946C207.472 49.3417 210.746 41.5747 215.821 34.4773C220.9 27.3741 227.877 20.8094 236.163 17.755L236.855 19.6316C229.074 22.4996 222.389 28.7296 217.448 35.6406C212.502 42.5573 209.397 50.0242 208.676 55.2209L206.695 54.946ZM204.941 76.2242C203.948 76.1038 203.948 76.1037 203.948 76.1037C203.948 76.1036 203.948 76.1035 203.948 76.1033C203.948 76.103 203.948 76.1025 203.948 76.1018C203.948 76.1006 203.948 76.0987 203.949 76.0961C203.949 76.0911 203.95 76.0836 203.952 76.0736C203.954 76.0536 203.958 76.0239 203.962 75.9847C203.972 75.9063 203.986 75.79 204.005 75.6381C204.042 75.3344 204.097 74.8885 204.167 74.3198C204.308 73.1823 204.511 71.5531 204.761 69.5856C205.261 65.6508 205.947 60.3618 206.694 54.9468L208.676 55.2201C207.93 60.6257 207.244 65.9071 206.745 69.8376C206.496 71.8027 206.293 73.4298 206.152 74.5655C206.082 75.1333 206.027 75.5783 205.99 75.8812C205.971 76.0327 205.957 76.1486 205.948 76.2266C205.943 76.2657 205.939 76.2952 205.937 76.315C205.936 76.3249 205.935 76.3323 205.934 76.3373C205.934 76.3397 205.934 76.3416 205.934 76.3428C205.933 76.3434 205.933 76.3439 205.933 76.3442C205.933 76.3444 205.933 76.3445 205.933 76.3445C205.933 76.3446 205.933 76.3446 204.941 76.2242ZM221.986 81.8537C216.072 81.3727 211.702 80.1942 208.793 79.1241C207.339 78.5892 206.251 78.0818 205.52 77.703C205.154 77.5136 204.877 77.3565 204.688 77.2441C204.594 77.1879 204.521 77.143 204.47 77.1108C204.445 77.0947 204.425 77.0818 204.41 77.0723C204.403 77.0676 204.397 77.0637 204.392 77.0606C204.39 77.0591 204.388 77.0578 204.387 77.0568C204.386 77.0562 204.385 77.0557 204.384 77.0553C204.384 77.0551 204.384 77.0548 204.384 77.0547C204.383 77.0544 204.383 77.0542 204.941 76.2242C205.498 75.3942 205.498 75.394 205.498 75.3938C205.498 75.3938 205.497 75.3936 205.497 75.3935C205.497 75.3933 205.497 75.3931 205.497 75.393C205.496 75.3929 205.496 75.3929 205.497 75.3932C205.498 75.3937 205.5 75.3951 205.503 75.3973C205.51 75.4018 205.522 75.4098 205.54 75.4209C205.575 75.4432 205.632 75.4783 205.71 75.5248C205.866 75.6177 206.109 75.7559 206.439 75.9269C207.1 76.2688 208.111 76.7421 209.483 77.2471C212.228 78.2566 216.421 79.3945 222.149 79.8603L221.986 81.8537ZM223.05 80.671C223.551 83.3191 224.599 86.8805 226.763 89.935L225.131 91.0913C222.735 87.7101 221.614 83.8359 221.085 81.043L223.05 80.671ZM226.771 89.9462C229.03 93.2293 231.84 96.0978 235.075 98.4254L233.907 100.049C230.485 97.5868 227.513 94.5527 225.123 91.0801L226.771 89.9462ZM233.539 99.5431L227.7 81.373L229.604 80.7611L235.443 98.9312L233.539 99.5431ZM256.879 65.6837C254.361 69.7395 251.213 73.7707 246.719 76.8216C242.213 79.881 236.416 81.9128 228.672 82.0669L228.632 80.0673C236.023 79.9202 241.436 77.9906 245.595 75.1669C249.767 72.3348 252.739 68.5612 255.18 64.6288L256.879 65.6837ZM261.548 44.2742C262.548 44.3116 262.548 44.3118 262.548 44.3121C262.548 44.3123 262.548 44.3126 262.548 44.3129C262.548 44.3135 262.547 44.3144 262.547 44.3154C262.547 44.3174 262.547 44.3202 262.547 44.3238C262.547 44.331 262.546 44.3412 262.546 44.3544C262.545 44.3808 262.543 44.4192 262.54 44.469C262.536 44.5686 262.528 44.7141 262.516 44.9011C262.492 45.2751 262.453 45.8155 262.391 46.4882C262.265 47.8328 262.044 49.7101 261.664 51.8458C260.907 56.0936 259.5 61.4625 256.879 65.6837L255.18 64.6288C257.6 60.7304 258.953 55.6583 259.695 51.4949C260.064 49.4251 260.278 47.6043 260.399 46.3022C260.46 45.6516 260.498 45.1315 260.52 44.7757C260.531 44.5979 260.538 44.4612 260.543 44.37C260.545 44.3244 260.547 44.2901 260.548 44.2677C260.548 44.2565 260.549 44.2483 260.549 44.2431C260.549 44.2405 260.549 44.2387 260.549 44.2376C260.549 44.2371 260.549 44.2368 260.549 44.2366C260.549 44.2365 260.549 44.2366 260.549 44.2365C260.549 44.2366 260.549 44.2368 261.548 44.2742ZM262.284 45.7925L261.082 45.1587L262.015 43.3896L263.217 44.0234L262.284 45.7925ZM259.112 68.7987C263.232 60.3596 262.426 49.8036 261.76 45.0466L263.741 44.7693C264.415 49.5861 265.309 60.6634 260.909 69.6761L259.112 68.7987ZM258.958 69.3426C258.975 69.143 259.032 68.9488 259.126 68.7715L260.895 69.7033C260.926 69.6452 260.945 69.5816 260.95 69.5161L258.958 69.3426ZM259.024 69.9341C258.963 69.7432 258.941 69.5421 258.958 69.3426L260.95 69.5161C260.956 69.4508 260.949 69.3848 260.929 69.3222L259.024 69.9341ZM259.315 70.4536C259.185 70.3015 259.086 70.125 259.024 69.9341L260.929 69.3222C260.908 69.2596 260.876 69.2017 260.833 69.1519L259.315 70.4536ZM259.784 70.82C259.605 70.7303 259.445 70.6057 259.315 70.4536L260.833 69.1519C260.791 69.102 260.738 69.0612 260.68 69.0317L259.784 70.82ZM260.354 70.9777C260.149 70.9634 259.95 70.9069 259.768 70.8119L260.696 69.0399C260.633 69.007 260.564 68.9874 260.493 68.9825L260.354 70.9777ZM260.957 70.8947C260.764 70.9637 260.558 70.9919 260.354 70.9777L260.493 68.9825C260.422 68.9776 260.351 68.9874 260.284 69.0112L260.957 70.8947ZM261.817 70.147C261.633 70.5072 261.313 70.7796 260.929 70.9043L260.312 69.0017C260.193 69.0403 260.094 69.1247 260.037 69.2363L261.817 70.147ZM264.857 45.38C265.517 50.6325 266.133 61.3306 261.825 70.1313L260.029 69.252C264.066 61.0041 263.523 50.8067 262.872 45.6296L264.857 45.38ZM294.454 61.711C293.323 61.3867 291.225 60.4731 288.687 59.2791C286.119 58.0711 283.022 56.5374 279.847 54.9308C273.495 51.7171 266.812 48.2004 263.396 46.3882L264.333 44.6214C267.745 46.4311 274.415 49.9409 280.749 53.1463C283.917 54.7492 286.996 56.2732 289.538 57.4694C292.111 58.6796 294.058 59.5168 295.005 59.7884L294.454 61.711ZM299.88 63.6739C298.882 63.7415 298.882 63.7431 298.882 63.7446C298.882 63.7452 298.882 63.7468 298.882 63.7478C298.883 63.7499 298.883 63.752 298.883 63.754C298.883 63.7582 298.884 63.7622 298.884 63.7662C298.885 63.7741 298.886 63.7817 298.886 63.7889C298.888 63.8035 298.89 63.8167 298.892 63.8287C298.896 63.8526 298.901 63.8711 298.905 63.8843C298.913 63.9111 298.917 63.914 298.906 63.895C298.886 63.858 298.802 63.7203 298.554 63.5118C298.048 63.0859 296.911 62.4052 294.458 61.712L295.002 59.7874C297.598 60.521 299.035 61.3023 299.842 61.9819C300.251 62.326 300.507 62.6519 300.664 62.9402C300.742 63.0839 300.793 63.2149 300.826 63.3292C300.843 63.3861 300.854 63.4382 300.862 63.4848C300.867 63.508 300.87 63.5298 300.872 63.5501C300.873 63.5603 300.874 63.5701 300.875 63.5794C300.876 63.5841 300.876 63.5887 300.877 63.5932C300.877 63.5954 300.877 63.5976 300.877 63.5998C300.877 63.6009 300.877 63.6025 300.877 63.6031C300.877 63.6047 300.877 63.6063 299.88 63.6739ZM304.008 82.1855L298.917 63.9427L300.843 63.405L305.935 81.6478L304.008 82.1855ZM306.195 72.7067C305.385 74.2828 305.281 76.4656 305.429 78.3802C305.502 79.3155 305.631 80.1439 305.742 80.738C305.797 81.0344 305.848 81.2709 305.884 81.4313C305.902 81.5115 305.917 81.5726 305.927 81.6125C305.931 81.6325 305.935 81.6472 305.937 81.6563C305.938 81.6609 305.939 81.664 305.94 81.6658C305.94 81.6667 305.94 81.6672 305.94 81.6674C305.94 81.6674 305.94 81.6674 305.94 81.6673C305.94 81.6673 305.94 81.6672 305.94 81.6671C305.94 81.667 305.94 81.6668 304.972 81.9167C304.003 82.1665 304.003 82.1663 304.003 82.1661C304.003 82.1659 304.003 82.1657 304.003 82.1654C304.003 82.165 304.003 82.1644 304.003 82.1638C304.002 82.1625 304.002 82.1608 304.001 82.1588C304 82.1548 303.999 82.1493 303.997 82.1424C303.994 82.1286 303.989 82.1091 303.983 82.0842C303.971 82.0344 303.954 81.963 303.933 81.8719C303.892 81.6898 303.836 81.4287 303.776 81.1052C303.655 80.4594 303.515 79.5582 303.435 78.5349C303.28 76.5323 303.343 73.8817 304.415 71.7929L306.195 72.7067ZM303.592 36.3369C307.513 44.2568 308.655 52.3717 308.583 58.962C308.511 65.5116 307.235 70.6804 306.195 72.7067L304.415 71.7929C305.257 70.1544 306.512 65.3354 306.583 58.94C306.653 52.5854 305.549 44.7981 301.8 37.2242L303.592 36.3369ZM272.43 14.1651C282.755 14.0383 295.77 20.5362 303.592 36.3369L301.8 37.2242C294.282 22.0376 281.93 16.0486 272.454 16.165L272.43 14.1651ZM260.054 16.7759C262.207 15.6535 266.154 14.2478 272.429 14.1651L272.455 16.1649C266.477 16.2437 262.841 17.5786 260.979 18.5494L260.054 16.7759ZM284.09 13.197C270.898 11.162 263.818 15.9683 261.196 18.3965L259.837 16.9289C262.851 14.1385 270.528 9.08119 284.394 11.2203L284.09 13.197ZM284.814 13.1288C284.576 13.2147 284.32 13.2371 284.071 13.1939L284.413 11.2234C284.32 11.2072 284.224 11.2156 284.134 11.2478L284.814 13.1288ZM285.572 12.539C285.386 12.8185 285.112 13.0283 284.794 13.1357L284.154 11.2409C284.053 11.2751 283.966 11.342 283.906 11.4311L285.572 12.539ZM285.822 11.5914C285.845 11.9262 285.757 12.2595 285.572 12.539L283.906 11.4311C283.847 11.5202 283.819 11.6264 283.827 11.7332L285.822 11.5914ZM285.44 10.6887C285.664 10.939 285.798 11.2565 285.822 11.5914L283.827 11.7332C283.834 11.84 283.877 11.9412 283.948 12.021L285.44 10.6887ZM284.586 10.2079C284.916 10.2693 285.216 10.4384 285.44 10.6887L283.948 12.0209C284.02 12.1007 284.115 12.1547 284.221 12.1742L284.586 10.2079ZM257.502 17.9007C258.12 17.0561 265.729 7.34807 284.553 10.2024L284.253 12.1798C266.371 9.4683 259.432 18.6497 259.116 19.0823L257.502 17.9007ZM236.162 17.7553C250.193 12.5703 256.988 16.3155 258.891 17.6785L257.726 19.3045C256.388 18.3454 250.293 14.6656 236.855 19.6313L236.162 17.7553Z" fill="white" mask="url(#path-103-inside-1)"/>
<path d="M272.213 85.7046C276.295 82.0343 281.106 79.2687 286.332 77.5894C291.558 75.9101 297.08 75.3549 302.535 75.9605C302.535 75.9605 305.509 75.3197 306.252 77.631C306.994 79.9423 304.883 80.2951 304.883 80.2951C304.883 80.2951 308.001 91.3487 304.514 96.0285C301.401 100.219 292.719 103.964 287.55 103.715C282.381 103.467 278.455 101.212 276.664 98.6086C274.872 96.005 272.213 85.7046 272.213 85.7046Z" stroke="#181F23" stroke-linecap="round" stroke-linejoin="round"/>
<path d="M265.375 87.9018C259.921 87.296 254.401 87.8507 249.177 89.5295C243.952 91.2083 239.142 93.9733 235.063 97.6428C235.063 97.6428 232.263 98.8573 233.005 101.169C233.748 103.48 235.663 102.517 235.663 102.517C235.663 102.517 239.568 113.318 245.129 115.09C250.101 116.683 259.329 114.672 263.395 111.455C267.462 108.239 269.319 104.126 269.259 100.966C269.198 97.8064 265.375 87.9018 265.375 87.9018Z" stroke="#181F23" stroke-linecap="round" stroke-linejoin="round"/>
<path d="M272.216 85.7049C269.722 85.5263 267.255 86.3191 265.331 87.9173" stroke="#181F23" stroke-linecap="round" stroke-linejoin="round"/>
<path d="M272.738 90.3103L267.83 91.8874" stroke="#181F23" stroke-linecap="round" stroke-linejoin="round"/>
<path d="M213.799 98.16C213.799 98.16 226.913 94.2279 234.44 90.9737C241.966 87.7195 238.303 96.2428 235.063 97.642C231.187 99.4255 227.182 100.912 223.081 102.089C220.05 102.939 217.23 104.41 214.801 106.41C214.801 106.41 209.003 103.022 213.799 98.16Z" fill="white" stroke="#181F23" stroke-linecap="round" stroke-linejoin="round"/>
<path d="M229.568 119.668C231.089 115.836 232.218 111.859 232.938 107.799C233.837 101.987 233.861 99.4945 229.258 101.516C224.656 103.538 224.104 108.707 224.062 112.865C224.02 117.024 221.01 117.991 221.01 117.991L212.807 107.085L206.695 117.339L222.9 141.126C222.9 141.126 231.733 132.482 232.514 129.746C233.295 127.01 229.945 121.717 229.568 119.668Z" fill="white" stroke="#181F23" stroke-linecap="round" stroke-linejoin="round"/>
<path d="M200.846 111.167C200.846 111.167 200.307 106.923 203.575 105.038C206.843 103.152 211.487 96.9721 213.733 97.0748C215.98 97.1776 223.606 108.009 224.238 109.976C224.87 111.943 223.275 114.712 222.518 114.956C221.76 115.199 211.545 105.797 211.545 105.797L200.846 111.167Z" fill="white" stroke="#181F23" stroke-linecap="round" stroke-linejoin="round"/>
<path d="M201.557 114.258C201.557 114.258 199.423 111.906 200.271 110.255C201.119 108.605 208.335 103.508 210.928 102.122C213.521 100.735 214.345 101.577 217.06 104.86C219.775 108.144 224.718 112.35 223.615 114.082C222.512 115.815 220.999 117.961 220.999 117.961L212.276 108.883L201.557 114.258Z" fill="white" stroke="#181F23" stroke-linecap="round" stroke-linejoin="round"/>
<path d="M217.791 122.595C217.791 122.595 222.165 119.019 222.426 117.232C222.687 115.444 213.657 104.565 212.821 104.563C211.985 104.56 209.058 106.597 208.216 107.421C207.374 108.245 200.006 111.991 200.553 115.417C201.101 118.844 209.319 135.516 209.462 137.683C209.606 139.851 206.462 148.709 206.462 148.709L218.659 152.31C218.659 152.31 225.5 140.572 228.445 137.683C231.39 134.795 224.771 130.574 222.555 127.966C220.339 125.357 217.791 122.595 217.791 122.595Z" fill="white" stroke="#181F23" stroke-linecap="round" stroke-linejoin="round"/>
<path d="M217.791 122.595L212.184 117.203" stroke="#181F23" stroke-linecap="round" stroke-linejoin="round"/>
<path d="M214.613 116.151L210.014 118.182" stroke="#181F23" stroke-linecap="round" stroke-linejoin="round"/>
</svg>
