<svg width="391" height="394" viewBox="0 0 391 394" fill="none" xmlns="http://www.w3.org/2000/svg">
<path d="M2.03125 391.823H389.342" stroke="white" stroke-width="3" stroke-linecap="round" stroke-linejoin="round"/>
<path d="M43.2637 351.106C43.2637 311.894 75.0515 280.106 114.264 280.106H278.177C317.389 280.106 349.177 311.894 349.177 351.106V391.822H43.2637V351.106Z" fill="#181F23" stroke="white" stroke-width="3" stroke-linecap="round" stroke-linejoin="round"/>
<path d="M138.031 280.384H252.031V296.384C252.031 327.864 226.511 353.384 195.031 353.384C163.551 353.384 138.031 327.864 138.031 296.384V280.384Z" fill="white"/>
<path d="M80.6426 152.552C80.6426 127.8 98.6038 127.322 106.847 127.322L111.058 173.647C102.257 174.197 80.6426 174.004 80.6426 152.552Z" fill="white" stroke="white" stroke-width="3" stroke-linecap="round" stroke-linejoin="round"/>
<path d="M308.527 152.552C308.527 127.8 290.566 127.322 282.323 127.322L278.112 173.647C286.913 174.197 308.527 174.004 308.527 152.552Z" fill="white" stroke="white" stroke-width="3" stroke-linecap="round" stroke-linejoin="round"/>
<path d="M154.969 233.409H234.176V279.613C234.176 301.485 216.445 319.216 194.572 319.216C172.7 319.216 154.969 301.485 154.969 279.613V233.409Z" fill="white" stroke="#181F23" stroke-width="3" stroke-linecap="round" stroke-linejoin="round"/>
<ellipse cx="194.575" cy="137.701" rx="89.1078" ry="118.81" fill="white" stroke="#181F23" stroke-width="3" stroke-linecap="round" stroke-linejoin="round"/>
<path d="M107.118 127.795L95.5632 127.799C85.66 86.5506 108.771 2.38354 197.878 2.38354C277.085 2.38354 306.788 81.5953 293.587 127.795H282.034C280.39 111.298 273.783 88.1959 268.835 74.9899C209.429 106.673 145.074 88.191 120.322 74.9899C112.069 94.7965 108.769 112.948 107.118 127.795Z" fill="#181F23" stroke="white" stroke-width="3" stroke-linecap="round" stroke-linejoin="round"/>
<path d="M194.57 126.15C198.42 143.202 205.791 177.965 204.471 180.605C203.15 183.245 190.719 181.705 184.669 180.605M182.186 221.844C184.669 227.46 212.601 227.928 215.409 221.844M138.465 126.15H166.517M219.62 122.643L244.074 111.299" stroke="#181F23" stroke-width="3" stroke-linecap="round" stroke-linejoin="round"/>
<circle cx="154.969" cy="144.301" r="9.90086" fill="#263238"/>
<circle cx="234.176" cy="144.301" r="9.90086" fill="#263238"/>
<path d="M234.031 211.675C203.009 171.01 172.739 192.677 158.973 211.881C157.718 213.631 158.818 215.996 160.96 216.22C165.784 216.723 173.013 217.174 175.023 215.661C178.118 213.33 189.188 208.202 197.078 208.202C204.969 208.202 214.491 213.796 218.747 215.661C221.358 216.805 227.605 216.546 232.048 216.174C234.285 215.987 235.393 213.46 234.031 211.675Z" fill="#263238"/>
</svg>
