<svg width="538" height="442" viewBox="0 0 538 442" fill="none" xmlns="http://www.w3.org/2000/svg">
<path fill-rule="evenodd" clip-rule="evenodd" d="M321.759 330.557L294.791 327.666L294.79 330.557V360.64C294.79 362.376 295.673 364.04 297.245 365.268C298.009 365.865 298.906 366.334 299.88 366.659V381.142C299.88 382.015 300.027 382.854 300.296 383.636C281.481 386.441 196.718 399.105 195.262 399.842C193.623 400.67 190.365 402.695 191.58 404.333C192.794 405.972 209.566 404.333 209.566 404.333L215.349 401.885L297.087 398.203L262.387 434.58C262.387 434.58 259.938 438.262 261.153 439.477C262.367 440.691 267.283 441.52 268.112 440.305C268.941 439.091 270.965 435.39 270.965 435.39L316.326 400.69L398.083 413.355C398.083 413.355 397.254 414.994 400.126 415.823C400.555 415.947 401.174 416.142 401.92 416.378L401.921 416.378C406.167 417.721 414.491 420.354 414.835 418.271C415.24 415.823 414.835 412.488 411.558 411.736C408.676 411.075 334.003 390.059 316.001 384.991C316.66 383.86 317.037 382.545 317.037 381.142V366.528C317.87 366.212 318.637 365.789 319.304 365.268C320.876 364.04 321.759 362.376 321.759 360.64V330.557Z" fill="#181F23"/>
<path d="M294.791 327.666L294.844 327.169C294.703 327.153 294.562 327.199 294.457 327.294C294.351 327.389 294.291 327.524 294.291 327.666L294.791 327.666ZM321.759 330.557H322.259C322.259 330.302 322.067 330.088 321.813 330.06L321.759 330.557ZM294.79 330.557L294.29 330.557V330.557H294.79ZM297.245 365.268L296.937 365.662L297.245 365.268ZM299.88 366.659H300.38C300.38 366.444 300.243 366.253 300.038 366.185L299.88 366.659ZM300.296 383.636L300.37 384.131C300.517 384.109 300.646 384.023 300.723 383.896C300.8 383.769 300.817 383.614 300.769 383.473L300.296 383.636ZM195.262 399.842L195.487 400.288H195.487L195.262 399.842ZM209.566 404.333L209.614 404.831C209.665 404.826 209.714 404.813 209.761 404.794L209.566 404.333ZM215.349 401.885L215.327 401.385C215.267 401.388 215.209 401.401 215.154 401.425L215.349 401.885ZM297.087 398.203L297.448 398.548C297.589 398.4 297.626 398.182 297.542 397.996C297.457 397.81 297.268 397.694 297.064 397.703L297.087 398.203ZM262.387 434.58L262.025 434.235C262.005 434.256 261.987 434.279 261.97 434.303L262.387 434.58ZM268.112 440.305L268.525 440.587L268.525 440.587L268.112 440.305ZM270.965 435.39L270.662 434.993C270.606 435.035 270.56 435.089 270.527 435.15L270.965 435.39ZM316.326 400.69L316.402 400.196C316.268 400.175 316.13 400.21 316.022 400.293L316.326 400.69ZM398.083 413.355L398.529 413.581C398.601 413.438 398.601 413.269 398.527 413.127C398.454 412.984 398.317 412.886 398.159 412.861L398.083 413.355ZM400.126 415.823L399.987 416.303L399.987 416.303L400.126 415.823ZM401.92 416.378L402.075 415.903L402.07 415.901L401.92 416.378ZM401.921 416.378L401.766 416.854L401.77 416.855L401.921 416.378ZM414.835 418.271L414.342 418.189L414.835 418.271ZM411.558 411.736L411.446 412.223L411.558 411.736ZM316.001 384.991L315.569 384.739C315.491 384.873 315.479 385.035 315.537 385.178C315.595 385.322 315.716 385.43 315.865 385.472L316.001 384.991ZM317.037 366.528L316.86 366.06C316.666 366.134 316.537 366.32 316.537 366.528H317.037ZM319.304 365.268L318.996 364.874L319.304 365.268ZM294.737 328.163L321.706 331.055L321.813 330.06L294.844 327.169L294.737 328.163ZM295.29 330.558L295.291 327.666L294.291 327.666L294.29 330.557L295.29 330.558ZM295.29 360.64V330.557H294.29V360.64H295.29ZM297.553 364.874C296.082 363.725 295.29 362.197 295.29 360.64H294.29C294.29 362.554 295.265 364.356 296.937 365.662L297.553 364.874ZM300.038 366.185C299.113 365.876 298.268 365.432 297.553 364.874L296.937 365.662C297.75 366.297 298.698 366.792 299.722 367.133L300.038 366.185ZM300.38 381.142V366.659H299.38V381.142H300.38ZM300.769 383.473C300.517 382.743 300.38 381.959 300.38 381.142H299.38C299.38 382.072 299.536 382.966 299.823 383.799L300.769 383.473ZM195.487 400.288C195.46 400.302 195.457 400.299 195.523 400.281C195.575 400.266 195.649 400.248 195.747 400.226C195.943 400.182 196.217 400.127 196.568 400.06C197.268 399.927 198.259 399.753 199.505 399.542C201.996 399.12 205.498 398.554 209.72 397.887C218.164 396.552 229.482 394.813 241.345 393.009C265.068 389.4 290.962 385.533 300.37 384.131L300.222 383.142C290.814 384.544 264.92 388.411 241.194 392.02C229.332 393.824 218.011 395.564 209.564 396.899C205.341 397.567 201.835 398.133 199.338 398.556C198.09 398.767 197.092 398.943 196.381 399.078C196.027 399.145 195.74 399.203 195.528 399.25C195.423 399.274 195.332 399.296 195.258 399.316C195.198 399.333 195.109 399.358 195.036 399.395L195.487 400.288ZM191.981 404.035C191.792 403.779 191.771 403.527 191.881 403.23C192.002 402.903 192.282 402.534 192.693 402.148C193.509 401.382 194.683 400.695 195.487 400.288L195.036 399.395C194.202 399.817 192.928 400.556 192.009 401.419C191.552 401.848 191.143 402.344 190.943 402.883C190.733 403.453 190.761 404.068 191.178 404.631L191.981 404.035ZM209.566 404.333C209.517 403.836 209.517 403.836 209.517 403.836C209.517 403.836 209.517 403.836 209.516 403.836C209.516 403.836 209.515 403.836 209.514 403.836C209.512 403.836 209.509 403.836 209.505 403.837C209.497 403.838 209.486 403.839 209.47 403.84C209.438 403.843 209.391 403.848 209.33 403.853C209.208 403.865 209.028 403.882 208.798 403.902C208.338 403.944 207.68 404.001 206.886 404.065C205.298 404.193 203.17 404.346 201.005 404.448C198.837 404.55 196.644 404.601 194.924 404.525C194.062 404.487 193.336 404.418 192.797 404.313C192.527 404.26 192.32 404.202 192.172 404.141C192.014 404.076 191.977 404.03 191.981 404.035L191.178 404.631C191.334 404.842 191.571 404.975 191.792 405.066C192.023 405.161 192.301 405.235 192.606 405.294C193.216 405.413 193.999 405.485 194.88 405.524C196.646 405.602 198.875 405.55 201.052 405.447C203.231 405.344 205.372 405.19 206.966 405.062C207.764 404.998 208.425 404.94 208.888 404.898C209.119 404.878 209.3 404.861 209.424 404.849C209.486 404.843 209.533 404.839 209.565 404.836C209.581 404.834 209.594 404.833 209.602 404.832C209.606 404.832 209.609 404.831 209.611 404.831C209.612 404.831 209.613 404.831 209.614 404.831C209.614 404.831 209.614 404.831 209.614 404.831C209.614 404.831 209.614 404.831 209.566 404.333ZM215.154 401.425L209.371 403.873L209.761 404.794L215.544 402.345L215.154 401.425ZM297.064 397.703L215.327 401.385L215.372 402.384L297.109 398.702L297.064 397.703ZM262.749 434.925L297.448 398.548L296.725 397.858L262.025 434.235L262.749 434.925ZM261.507 439.123C261.363 438.979 261.278 438.713 261.33 438.256C261.381 437.81 261.552 437.288 261.774 436.77C261.994 436.258 262.251 435.778 262.456 435.425C262.558 435.248 262.646 435.105 262.708 435.006C262.739 434.957 262.763 434.919 262.779 434.893C262.788 434.88 262.794 434.871 262.798 434.865C262.8 434.862 262.801 434.86 262.802 434.858C262.803 434.858 262.803 434.857 262.803 434.857C262.803 434.857 262.803 434.857 262.803 434.857C262.803 434.857 262.803 434.857 262.803 434.857C262.803 434.857 262.803 434.857 262.387 434.58C261.97 434.303 261.97 434.303 261.97 434.303C261.97 434.303 261.97 434.303 261.97 434.304C261.97 434.304 261.97 434.304 261.97 434.304C261.969 434.305 261.969 434.306 261.968 434.307C261.966 434.309 261.964 434.312 261.962 434.316C261.957 434.324 261.949 434.335 261.94 434.35C261.921 434.379 261.894 434.421 261.86 434.475C261.793 434.582 261.699 434.736 261.59 434.924C261.374 435.299 261.095 435.815 260.855 436.376C260.617 436.93 260.403 437.556 260.337 438.143C260.271 438.718 260.336 439.367 260.799 439.83L261.507 439.123ZM267.699 440.024C267.668 440.07 267.593 440.139 267.431 440.208C267.27 440.275 267.054 440.329 266.784 440.363C266.245 440.43 265.562 440.407 264.846 440.307C264.134 440.207 263.413 440.035 262.804 439.818C262.179 439.596 261.73 439.346 261.507 439.123L260.799 439.83C261.183 440.214 261.804 440.524 262.468 440.76C263.148 441.002 263.936 441.189 264.708 441.297C265.477 441.404 266.254 441.437 266.908 441.355C267.234 441.315 267.548 441.244 267.819 441.129C268.089 441.015 268.349 440.845 268.525 440.587L267.699 440.024ZM270.965 435.39C270.527 435.15 270.527 435.15 270.527 435.15C270.527 435.15 270.527 435.15 270.527 435.15C270.526 435.15 270.526 435.15 270.526 435.15C270.526 435.151 270.526 435.151 270.525 435.152C270.524 435.154 270.523 435.157 270.521 435.16C270.517 435.167 270.511 435.178 270.504 435.191C270.489 435.218 270.467 435.259 270.439 435.31C270.382 435.413 270.3 435.562 270.199 435.745C269.996 436.11 269.718 436.609 269.414 437.146C268.802 438.228 268.1 439.437 267.699 440.024L268.525 440.587C268.954 439.959 269.678 438.711 270.285 437.638C270.591 437.098 270.87 436.596 271.073 436.229C271.175 436.046 271.258 435.896 271.315 435.792C271.343 435.74 271.366 435.7 271.381 435.672C271.388 435.658 271.394 435.648 271.398 435.64C271.4 435.637 271.401 435.634 271.402 435.632C271.403 435.631 271.403 435.631 271.404 435.63C271.404 435.63 271.404 435.63 271.404 435.63C271.404 435.63 271.404 435.63 271.404 435.63C271.404 435.63 271.404 435.63 270.965 435.39ZM316.022 400.293L270.662 434.993L271.269 435.787L316.63 401.087L316.022 400.293ZM398.159 412.861L316.402 400.196L316.249 401.184L398.006 413.849L398.159 412.861ZM400.265 415.342C398.921 414.955 398.592 414.426 398.507 414.136C398.459 413.975 398.467 413.829 398.489 413.721C398.499 413.667 398.512 413.625 398.522 413.6C398.527 413.587 398.53 413.579 398.532 413.575C398.532 413.574 398.533 413.573 398.532 413.574C398.532 413.574 398.532 413.575 398.531 413.576C398.531 413.577 398.53 413.578 398.53 413.578C398.53 413.579 398.53 413.579 398.529 413.58C398.529 413.58 398.529 413.58 398.529 413.58C398.529 413.581 398.529 413.581 398.083 413.355C397.636 413.13 397.636 413.13 397.636 413.13C397.636 413.13 397.636 413.131 397.636 413.131C397.635 413.132 397.635 413.132 397.635 413.133C397.634 413.134 397.634 413.135 397.633 413.136C397.632 413.139 397.63 413.142 397.628 413.146C397.625 413.153 397.621 413.162 397.616 413.172C397.607 413.193 397.596 413.221 397.583 413.255C397.559 413.322 397.53 413.415 397.507 413.528C397.463 413.753 397.444 414.068 397.548 414.42C397.766 415.157 398.459 415.862 399.987 416.303L400.265 415.342ZM402.07 415.901C401.328 415.667 400.701 415.468 400.265 415.342L399.987 416.303C400.409 416.425 401.021 416.618 401.769 416.855L402.07 415.901ZM402.076 415.903L402.075 415.903L401.765 416.853L401.766 416.854L402.076 415.903ZM414.342 418.189C414.332 418.247 414.304 418.315 414.145 418.389C413.966 418.472 413.675 418.531 413.255 418.543C412.422 418.566 411.264 418.401 409.945 418.12C407.319 417.561 404.2 416.575 402.071 415.902L401.77 416.855C403.888 417.525 407.054 418.527 409.737 419.098C411.073 419.383 412.326 419.569 413.283 419.543C413.758 419.529 414.207 419.463 414.566 419.296C414.944 419.121 415.252 418.816 415.328 418.353L414.342 418.189ZM411.446 412.223C412.901 412.557 413.7 413.445 414.109 414.542C414.528 415.666 414.536 417.016 414.342 418.189L415.328 418.353C415.539 417.078 415.547 415.537 415.046 414.193C414.534 412.822 413.492 411.667 411.67 411.249L411.446 412.223ZM315.865 385.472C333.853 390.537 408.549 411.559 411.446 412.223L411.67 411.249C408.804 410.591 334.153 389.582 316.136 384.51L315.865 385.472ZM316.537 381.142C316.537 382.454 316.185 383.683 315.569 384.739L316.433 385.243C317.135 384.038 317.537 382.636 317.537 381.142H316.537ZM316.537 366.528V381.142H317.537V366.528H316.537ZM318.996 364.874C318.372 365.361 317.65 365.761 316.86 366.06L317.215 366.995C318.09 366.664 318.902 366.216 319.612 365.662L318.996 364.874ZM321.259 360.64C321.259 362.197 320.467 363.725 318.996 364.874L319.612 365.662C321.285 364.356 322.259 362.554 322.259 360.64H321.259ZM321.259 330.557V360.64H322.259V330.557H321.259Z" fill="white"/>
<path d="M423.717 263.336C419.553 270.102 417.356 277.91 413.288 284.811C404.929 299.007 392.931 310.713 378.535 318.721C364.139 326.729 347.865 330.749 331.396 330.365C299.511 329.94 278.672 324.581 255.789 315.232C232.906 305.882 214.496 295.202 206.746 283.77C198.997 272.339 171.14 243.808 158.07 228.597C145 213.387 146.214 211.016 136.865 207.739C127.515 204.462 131.968 193.859 144.229 185.261C156.489 176.663 170.793 183.218 177.329 191.044C183.864 198.871 202.679 208.221 228.01 222.101C253.341 235.981 284.416 239.277 304.022 233.147C323.627 227.017 330.182 206.987 330.606 186.148C331.03 165.309 324.456 145.665 305.256 119.929C286.055 94.1932 269.707 79.0602 273.794 59.4547C277.881 39.8493 305.66 5.47712 317.516 8.77361C329.372 12.0701 346.124 40.2349 392.314 51.1846C438.503 62.1343 474.456 59.7632 477.733 56.9679C481.011 54.1726 500.616 21.015 512.877 15.2895C525.137 9.56401 537.803 20.5909 536.993 29.1887C536.183 37.7866 493.194 125.192 487.546 140.306C481.897 155.419 430.31 252.714 430.31 252.714L423.717 263.336Z" fill="#181F23" stroke="white" stroke-linecap="round" stroke-linejoin="round"/>
<path d="M477.676 56.9294C477.676 56.9294 459.285 90.4534 458.398 93.7113L477.676 56.9294Z" fill="white"/>
<path d="M477.676 56.9294C477.676 56.9294 459.285 90.4534 458.398 93.7113" stroke="white" stroke-linecap="round" stroke-linejoin="round"/>
<path d="M245.937 131.515C245.937 131.515 243.681 131.515 237.358 128.874C231.035 126.233 227.334 123.341 221.936 123.091C216.538 122.84 202.523 134.522 202.523 140.865C202.523 147.207 223.555 147.4 230.727 147.612C237.898 147.824 246.053 148.421 247.672 147.824C249.291 147.226 249.118 132.402 247.884 131.881C247.288 131.561 246.608 131.433 245.937 131.515Z" fill="white" stroke="#181F23" stroke-linecap="round" stroke-linejoin="round"/>
<path d="M253.498 130.069L244.302 130.898C245.54 135.351 246.093 139.966 245.941 144.585C245.907 150.179 245.148 155.745 243.686 161.145L255.946 160.933C255.946 160.933 261.729 146.629 261.729 140.691C261.729 134.754 253.498 130.069 253.498 130.069Z" fill="white" stroke="#181F23" stroke-linecap="round" stroke-linejoin="round"/>
<path d="M352.817 75.3204C352.817 75.3204 331.977 101.885 324.825 111.081C317.673 120.276 303.157 126.001 301.519 126.618C299.88 127.235 253.498 130.088 253.498 130.088C255.783 134.707 256.635 139.903 255.946 145.009C254.924 154.012 252.881 163.4 252.881 163.4C252.881 163.4 263.522 164.229 281.084 160.547C298.646 156.865 308.671 159.93 318.888 150.908C329.105 141.886 348.113 95.1186 351.795 86.9448C355.477 78.7711 357.308 73.701 352.817 75.3204Z" fill="white" stroke="#181F23" stroke-linecap="round" stroke-linejoin="round"/>
<path d="M108.197 347.522C108.197 347.522 96.3408 357.739 84.0802 368.361C71.8195 378.983 46.4886 387.176 32.5894 390.029C18.6901 392.882 3.17156 394.116 1.93779 396.564C0.704014 399.013 -0.510502 402.695 10.1115 405.567C21.8217 408.768 33.6944 411.342 45.6789 413.278C56.7058 414.917 62.0264 414.107 67.3278 412.468C71.3466 411.342 75.4453 410.524 79.5884 410.02L78.3739 415.803C78.3739 415.803 84.1573 417.018 99.5794 416.613C115.002 416.208 119.204 415.803 120.785 413.336C121.817 411.581 122.375 409.588 122.404 407.553C122.404 407.553 129.768 391.61 128.959 384.246C128.623 380.258 127.51 376.374 125.681 372.814L134.761 357.739L108.197 347.522Z" fill="white" stroke="#263238" stroke-linecap="round" stroke-linejoin="round"/>
<path d="M128.981 384.304C128.625 380.694 127.687 377.166 126.205 373.855C117.673 375.588 109.038 376.76 100.353 377.364C100.353 377.364 105.269 369.653 101.992 364.274C98.7148 358.896 90.5604 363.06 90.5604 363.06H90.0591L84.0059 368.284C71.7453 378.925 46.4144 387.099 32.5152 389.952C18.6159 392.805 3.09734 394.039 1.86356 396.487C0.629788 398.936 -0.584698 402.618 10.0373 405.49C21.7475 408.691 33.6202 411.265 45.6047 413.201C56.6316 414.84 61.9522 414.03 67.2536 412.391C71.2724 411.265 75.3711 410.447 79.5142 409.943L78.2997 415.726C78.2997 415.726 84.083 416.941 99.5052 416.536C114.927 416.131 119.13 415.726 120.711 413.259C121.743 411.504 122.301 409.511 122.33 407.476C122.33 407.476 129.868 391.668 128.981 384.304Z" fill="#181F23" stroke="white" stroke-linecap="round" stroke-linejoin="round"/>
<path d="M3.98242 399.437C18.847 405.83 34.8042 409.299 50.9815 409.654C75.9076 409.654 73.4593 408.015 82.462 408.015C91.4647 408.015 109.027 410.464 118.82 406.377" stroke="white" stroke-linecap="round" stroke-linejoin="round"/>
<path d="M177.273 190.987C177.273 190.987 172.376 188.538 167.885 200.799C163.393 213.06 115.488 300.927 107.777 313.593C101.413 323.411 94.4539 332.83 86.9375 341.796C86.9375 341.796 101.646 354.057 112.673 360.187C119.917 364.129 127.436 367.544 135.17 370.404C135.17 370.404 162.159 321.362 175.21 295.626C188.261 269.89 212.821 226.959 212.821 226.959C212.821 226.959 218.951 214.293 202.604 202.033C186.256 189.772 177.273 190.987 177.273 190.987Z" fill="white" stroke="#263238" stroke-linecap="round" stroke-linejoin="round"/>
<path d="M322.782 219.595C322.782 219.595 306.434 217.147 287.214 196.307C267.995 175.468 260.65 170.36 260.65 170.36C260.65 170.36 244.302 149.713 228.36 141.539C212.417 133.366 194.45 134.58 184.233 158.697C174.016 182.813 147.856 263.741 144.983 279.279C142.111 294.817 139.682 304.61 140.897 307.463C142.111 310.316 157.668 314.827 168.695 318.104C179.722 321.381 179.722 320.147 182.189 316.061C184.657 311.974 213.246 238.815 213.246 238.815C213.246 238.815 233.68 271.105 265.97 277.64C298.261 284.175 315.823 279.279 334.638 271.105C353.453 262.931 372.229 249.899 367.41 235.537C362.59 221.176 322.782 219.595 322.782 219.595Z" fill="white" stroke="#181F23" stroke-linecap="round" stroke-linejoin="round"/>
<path d="M156.84 282.132C156.84 282.132 181.766 231.451 187.896 205.696" stroke="white" stroke-linecap="round" stroke-linejoin="round"/>
<path d="M213.242 238.815C213.242 238.815 232.038 176.278 233.272 166.87" stroke="white" stroke-linecap="round" stroke-linejoin="round"/>
<path d="M226.314 195.902C226.314 195.902 279.039 210.207 310.095 220" stroke="white" stroke-linecap="round" stroke-linejoin="round"/>
<path d="M268.412 184.259C268.412 184.259 312.751 225.802 329.792 232.453" stroke="white" stroke-linecap="round" stroke-linejoin="round"/>
<path d="M418.415 84.9399L417.2 84.805C411.031 84.111 383.078 80.9494 373.652 78.3855C363.03 75.5324 355.878 71.8504 352.812 75.3203C349.747 78.7903 311.115 156.055 310.922 159.93C310.729 163.805 320.734 178.938 319.713 182.813C318.691 186.688 310.71 192.452 310.074 195.69C309.85 197.231 309.442 198.739 308.859 200.182C308.647 200.799 308.242 202.63 308.242 202.63C308.242 202.63 285.36 187.922 274.314 179.96C263.267 171.998 259.817 169.743 260.626 170.321C261.436 170.899 270.844 191.97 290.063 204.847C309.283 217.725 317.65 222.429 331.125 227.981C344.6 233.533 378.336 246.564 382.423 247.258C386.51 247.952 395.493 251.345 406.539 241.957C417.586 232.569 490.937 130.146 490.725 126.907C490.513 123.669 453.943 97.4704 446.791 94.6173C439.639 91.7642 417.875 84.9784 417.875 84.9784" fill="white"/>
<path d="M418.415 84.9399L417.2 84.805C411.031 84.111 383.078 80.9494 373.652 78.3855C363.03 75.5324 355.878 71.8504 352.812 75.3203C349.747 78.7903 311.115 156.055 310.922 159.93C310.729 163.805 320.734 178.938 319.713 182.813C318.691 186.688 310.71 192.452 310.074 195.69C309.85 197.231 309.442 198.739 308.859 200.182C308.647 200.799 308.242 202.63 308.242 202.63C308.242 202.63 285.36 187.922 274.314 179.96C263.267 171.998 259.817 169.743 260.626 170.321C261.436 170.899 270.844 191.97 290.063 204.847C309.283 217.725 317.65 222.429 331.125 227.981C344.6 233.533 378.336 246.564 382.423 247.258C386.51 247.952 395.493 251.345 406.539 241.957C417.586 232.569 490.937 130.146 490.725 126.907C490.513 123.669 453.943 97.4704 446.791 94.6173C439.639 91.7642 417.875 84.9784 417.875 84.9784" stroke="#181F23" stroke-linecap="round" stroke-linejoin="round"/>
<path d="M342.811 198.756C343.057 199.654 343.015 200.607 342.691 201.48C342.367 202.353 341.778 203.103 341.006 203.623C340.233 204.144 339.317 204.41 338.386 204.383C337.456 204.356 336.557 204.038 335.816 203.473C335.075 202.908 334.53 202.126 334.258 201.235C333.985 200.345 333.998 199.391 334.296 198.509C334.594 197.626 335.16 196.859 335.917 196.315C336.673 195.772 337.58 195.479 338.512 195.478C339.515 195.352 340.528 195.624 341.332 196.237C342.136 196.85 342.667 197.755 342.811 198.756Z" fill="white" stroke="#263238" stroke-linecap="round" stroke-linejoin="round"/>
<path d="M333.805 207.739C334.055 208.635 334.018 209.587 333.699 210.461C333.38 211.335 332.795 212.087 332.027 212.611C331.259 213.136 330.345 213.407 329.415 213.386C328.485 213.365 327.585 213.053 326.841 212.495C326.097 211.936 325.547 211.158 325.268 210.271C324.989 209.383 324.994 208.431 325.284 207.547C325.574 206.663 326.133 205.892 326.884 205.342C327.634 204.792 328.538 204.491 329.468 204.481C330.474 204.343 331.494 204.608 332.307 205.218C333.119 205.828 333.657 206.734 333.805 207.739Z" fill="white" stroke="#263238" stroke-linecap="round" stroke-linejoin="round"/>
<path d="M403.09 98.6271C403.09 98.6271 380.188 114.57 364.534 130.493C348.881 146.417 330.625 164.229 330.201 168.104C329.777 171.979 338.374 180.769 338.587 182.813C339.543 186.555 340.702 190.242 342.057 193.859L369.045 176.895L446.715 96.3715C446.715 96.3715 426.262 95.3499 415.235 95.7547C404.208 96.1595 403.09 98.6271 403.09 98.6271Z" fill="#181F23" stroke="#181F23" stroke-linecap="round" stroke-linejoin="round"/>
<path d="M394.707 118.502L394.09 125.867C394.09 125.867 364.672 150.928 360.18 155.284C355.689 159.641 347.708 166.523 347.091 169.184C346.474 171.844 347.303 176.74 345.047 181.039C343.769 183.509 342.34 185.898 340.768 188.191L341.982 193.975L362.821 180.48C362.821 180.48 377.954 159.641 385.106 149.424C389.954 142.295 394.321 134.85 398.177 127.139L410.842 122.03L410.032 106.704L394.707 118.502Z" fill="white" stroke="#181F23" stroke-linecap="round" stroke-linejoin="round"/>
<path d="M404.654 114.146L386.688 124.17L398.736 99.109C398.736 99.109 407.932 91.5521 407.932 96.2559C407.932 100.96 404.654 114.146 404.654 114.146Z" fill="#181F23" stroke="#181F23" stroke-linecap="round" stroke-linejoin="round"/>
<path d="M402.996 48.4087H406.119" stroke="#263238" stroke-linecap="round" stroke-linejoin="round"/>
<path d="M396.746 16.4654C396.746 16.4654 389.035 26.2777 388.572 28.726C388.11 31.1743 390.828 36.4371 391.021 38.3649C391.213 40.2926 393.681 38.9818 394.876 34.8756C396.071 30.7694 401.604 17.7184 401.604 17.7184C401.604 17.7184 400.216 12.5906 396.746 16.4654Z" fill="#181F23" stroke="white" stroke-linecap="round" stroke-linejoin="round"/>
<path d="M395.596 22.9621C395.596 22.9621 392.087 34.0853 390.333 42.2398C388.58 51.0054 388.281 59.9995 389.446 68.8623C390.622 76.7662 392.087 97.5283 392.955 99.8802C393.822 102.232 398.738 103.389 401.437 103.736C402.834 103.96 404.267 103.751 405.543 103.138C405.543 103.138 403.268 114.184 404.714 114.184C406.16 114.184 439.414 94.9065 442.093 93.2101C444.773 91.5137 447.645 73.6047 447.645 73.6047L454.932 67.2237C456.533 66.1498 457.754 64.5982 458.422 62.7899C459.039 59.5898 460.928 53.5365 460.349 50.6642C460.176 49.4704 459.695 48.3421 458.955 47.3893C458.215 46.4365 457.241 45.6918 456.128 45.2278C456.128 45.2278 462.836 23.2898 461.68 16.851C461.68 16.851 464.012 9.25561 447.626 4.28196C431.24 -0.691693 407.278 -0.40252 399.663 6.03624C392.048 12.475 393.88 16.851 395.268 18.3161L396.733 19.7812L395.596 22.9621Z" fill="white" stroke="#181F23" stroke-linecap="round" stroke-linejoin="round"/>
<path d="M447.642 4.24335C431.275 -0.730298 407.293 -0.441125 399.679 5.99763C392.064 12.4364 393.623 16.7932 395.011 18.2583L396.748 19.7427C401.362 23.4805 407.207 25.3577 413.134 25.0055C423.082 24.4271 437.116 18.2775 444.731 18.2775C452.345 18.2775 447.95 25.9886 442.379 29.9791C436.808 33.9696 438.87 35.7624 443.266 39.0396C447.661 42.3169 445.887 44.823 444.731 48.4086C443.574 51.9943 448.586 53.0931 450.283 51.3388C451.529 49.7998 452.608 48.1325 453.502 46.3652C453.837 45.9975 454.245 45.7033 454.7 45.5009C455.154 45.2985 455.646 45.1924 456.143 45.1892C456.143 45.1892 462.483 25.0055 462.483 17.2944C462.483 17.2944 464.028 9.21701 447.642 4.24335Z" fill="#181F23" stroke="white" stroke-linecap="round" stroke-linejoin="round"/>
<path d="M405.522 77.3638L396.172 75.0312L403.864 57.8547V47.5026" stroke="#181F23" stroke-linecap="round" stroke-linejoin="round"/>
<path d="M398.502 85.846L406.984 86.7328" stroke="#181F23" stroke-linecap="round" stroke-linejoin="round"/>
<path d="M405.539 103.08C405.539 103.08 434.456 90.222 438.003 87.658C441.55 85.0941 445.02 74.7998 445.02 74.7998" stroke="#181F23" stroke-linecap="round" stroke-linejoin="round"/>
<path d="M458.052 56.5245C458.052 56.5245 458.322 50.9147 455.855 50.3942C453.387 49.8737 449.223 56.5245 448.664 57.2956C448.105 58.0667 450.881 57.045 451.151 59.339C451.421 61.6331 449.782 61.6331 449.223 62.6548" stroke="#181F23" stroke-linecap="round" stroke-linejoin="round"/>
<path d="M448.664 57.2957C448.664 57.2957 451.151 53.2088 453.908 56.2739C454.684 57.131 455.159 58.2184 455.26 59.3704C455.361 60.5224 455.082 61.6759 454.467 62.6549" stroke="#181F23" stroke-linecap="round" stroke-linejoin="round"/>
<path d="M410.244 46.7123C410.244 46.7123 419.439 41.8158 424.548 42.0278C429.656 42.2399 430.871 44.8809 430.871 44.8809C430.871 44.8809 426.167 42.4327 423.314 43.4544C420.461 44.4761 415.603 47.5412 412.692 47.734C409.781 47.9268 410.244 46.7123 410.244 46.7123Z" fill="#181F23" stroke="#181F23" stroke-linecap="round" stroke-linejoin="round"/>
<path d="M401.453 46.5195C399.554 45.7166 397.557 45.1657 395.515 44.8809C390.002 43.6471 388.98 44.0712 390.214 44.6688C393.284 45.809 396.419 46.7681 399.602 47.5412C402.995 48.4087 401.453 46.5195 401.453 46.5195Z" fill="#181F23" stroke="#181F23" stroke-linecap="round" stroke-linejoin="round"/>
<path d="M407.678 112.912L409.22 132.749L448.643 95.1572L443.958 90.0486L407.678 112.912Z" fill="#181F23" stroke="#181F23" stroke-linecap="round" stroke-linejoin="round"/>
<path d="M199.135 130.493C199.135 130.493 194.643 133.983 194.45 136.026C194.257 138.069 199.964 147.882 202.161 149.308C204.359 150.735 203.8 150.947 204.629 149.096C205.458 147.246 200.947 130.917 200.542 129.819C200.137 128.72 199.135 130.493 199.135 130.493Z" fill="white" stroke="#181F23" stroke-linecap="round" stroke-linejoin="round"/>
<path d="M206.091 123.553C206.091 123.553 200.578 123.553 198.939 125.809C197.301 128.064 198.535 131.11 199.749 134.792C200.964 138.474 203.219 147.053 204.665 149.096C206.111 151.14 209.773 151.756 210.178 148.479C210.583 145.202 208.752 128.45 208.251 125.809C207.749 123.168 206.091 123.553 206.091 123.553Z" fill="white" stroke="#181F23" stroke-linecap="round" stroke-linejoin="round"/>
<path d="M220.592 122.358C220.592 122.358 211.204 117.674 209.16 117.674C207.117 117.674 204.861 120.527 204.861 124.401C204.861 128.276 207.117 141.751 207.31 144.643C207.502 147.535 208.755 150.426 210.587 149.752C212.418 149.077 213.44 148.518 214.442 144.431C215.307 138.883 215.854 133.289 216.081 127.679" fill="white"/>
<path d="M220.592 122.358C220.592 122.358 211.204 117.674 209.16 117.674C207.117 117.674 204.861 120.527 204.861 124.401C204.861 128.276 207.117 141.751 207.31 144.643C207.502 147.535 208.755 150.426 210.587 149.752C212.418 149.077 213.44 148.518 214.442 144.431C215.307 138.883 215.854 133.289 216.081 127.679" stroke="#181F23" stroke-linecap="round" stroke-linejoin="round"/>
<path d="M236.125 137.048L225.368 152.778C225.368 152.778 226.39 156.865 229.224 155.631C232.057 154.398 236.164 149.848 239.229 146.648C242.294 143.448 244.145 143.178 242.911 140.113C241.829 138.005 240.118 136.287 238.014 135.197C238.014 135.197 233.099 126.618 227.797 123.148C222.496 119.678 220.221 119.466 218.158 122.744C216.096 126.021 213.262 145.009 213.262 148.691C213.262 152.373 215.189 154.475 216.732 153.395C218.274 152.316 220.819 148.074 221.628 144.817C222.438 141.559 227.412 129.394 227.412 129.394" fill="white"/>
<path d="M236.125 137.048L225.368 152.778C225.368 152.778 226.39 156.865 229.224 155.631C232.057 154.398 236.164 149.848 239.229 146.648C242.294 143.448 244.145 143.178 242.911 140.113C241.829 138.005 240.118 136.287 238.014 135.197C238.014 135.197 233.099 126.618 227.797 123.148C222.496 119.678 220.221 119.466 218.158 122.744C216.096 126.021 213.262 145.009 213.262 148.691C213.262 152.373 215.189 154.475 216.732 153.395C218.274 152.316 220.819 148.074 221.628 144.817C222.438 141.559 227.412 129.394 227.412 129.394" stroke="#181F23" stroke-linecap="round" stroke-linejoin="round"/>
<path d="M140.896 307.424L156.839 282.093L175.23 309.082C173.523 313.33 172.156 317.707 171.143 322.172C170.333 327.068 169.928 336.476 168.29 337.594C166.651 338.712 152.752 337.594 144.578 333.912C136.404 330.23 137.233 324.119 138.043 319.203C138.853 314.287 140.896 307.424 140.896 307.424Z" fill="white" stroke="#263238" stroke-linecap="round" stroke-linejoin="round"/>
<path d="M163.796 325.044C163.796 325.044 165.415 315.232 157.241 313.188C149.067 311.145 140.084 311.145 137.636 314.827C135.187 318.509 129.057 328.321 126.59 328.726C124.122 329.131 95.5331 321.362 88.5932 319.318C81.6532 317.275 81.6339 328.321 83.6773 335.261C85.7208 342.201 101.259 353.247 110.666 356.467C120.074 359.686 129.481 362.25 129.481 362.25L128.652 365.122C128.652 365.122 158.899 373.296 161.771 373.296C164.644 373.296 165.434 367.513 165.434 367.513C165.434 367.513 174.032 363.831 174.032 355.657C174.032 347.483 174.437 331.945 174.437 331.945C174.437 331.945 169.463 325.449 163.796 325.044Z" fill="#181F23" stroke="white" stroke-linecap="round" stroke-linejoin="round"/>
<path d="M160.114 363.464C156.663 361.878 153.115 360.513 149.492 359.378C149.492 359.378 145.405 360.611 143.361 361.016C141.318 361.421 139.274 361.016 129.867 353.652C120.459 346.288 96.3429 329.131 89.3837 325.449C85.2004 323.232 83.3883 326.663 82.6172 329.728C82.7916 331.601 83.1402 333.453 83.6582 335.261C85.7016 342.201 101.239 353.247 110.647 356.467C120.055 359.686 129.462 362.25 129.462 362.25L128.633 365.122C128.633 365.122 158.88 373.296 161.752 373.296C164.625 373.296 165.415 367.513 165.415 367.513C164.03 365.726 162.202 364.33 160.114 363.464Z" fill="white" stroke="#263238" stroke-linecap="round" stroke-linejoin="round"/>
<path d="M143.764 369.19L144.978 362.231H129.46L128.631 365.103L143.764 369.19Z" fill="#263238" stroke="#263238" stroke-linecap="round" stroke-linejoin="round"/>
<path d="M212.84 262.102C212.84 262.102 221.014 277.64 245.94 279.279C270.866 280.917 292.534 276.406 304.795 264.146C317.055 251.885 323.59 236.347 338.299 228.173C353.008 220 364.054 226.959 386.127 232.684C408.2 238.41 417.993 235.133 417.993 235.133C417.993 235.133 432.722 234.304 437.271 227.769C441.821 221.233 442.592 212.25 447.084 216.742C451.575 221.233 457.301 250.246 451.17 262.102C445.04 273.958 444.635 276.406 406.62 267.886C368.604 259.365 366.927 256.165 356.305 262.7C345.683 269.235 333.808 288.918 310.983 299.52C284.534 311.8 259.897 310.393 237.014 305.477C214.132 300.561 201.852 278.103 201.852 278.103" fill="#181F23"/>
<path d="M212.84 262.102C212.84 262.102 221.014 277.64 245.94 279.279C270.866 280.917 292.534 276.406 304.795 264.146C317.055 251.885 323.59 236.347 338.299 228.173C353.008 220 364.054 226.959 386.127 232.684C408.2 238.41 417.993 235.133 417.993 235.133C417.993 235.133 432.722 234.304 437.271 227.769C441.821 221.233 442.592 212.25 447.084 216.742C451.575 221.233 457.301 250.246 451.17 262.102C445.04 273.958 444.635 276.406 406.62 267.886C368.604 259.365 366.927 256.165 356.305 262.7C345.683 269.235 333.808 288.918 310.983 299.52C284.534 311.8 259.897 310.393 237.014 305.477C214.132 300.561 201.852 278.103 201.852 278.103" stroke="white" stroke-linecap="round" stroke-linejoin="round"/>
<path d="M369.181 156.942C369.181 156.942 363.051 151.043 358.81 146.108C355.185 142.152 352.387 137.511 350.578 132.459C347.995 126.098 345.161 121.144 341.865 122.319C338.568 123.495 327.04 122.088 325.614 124.44C324.187 126.792 316.437 137.626 315.743 139.978C315.049 142.33 319.734 145.626 321.623 147.515C323.512 149.405 325.614 151.275 327.271 151.275C328.929 151.275 330.799 148.229 330.799 148.229C332.729 150.526 334.858 152.648 337.161 154.571C339.347 155.743 341.746 156.464 344.217 156.692L357.711 171.304L369.181 156.942Z" fill="white" stroke="#181F23" stroke-linecap="round" stroke-linejoin="round"/>
<path d="M347.76 160.933L360.926 148.691L364.454 151.988L351.037 163.998L347.76 160.933Z" fill="#181F23" stroke="#181F23" stroke-linecap="round" stroke-linejoin="round"/>
<path d="M330.799 148.229L325.15 146.339" stroke="#263238" stroke-linecap="round" stroke-linejoin="round"/>
<path d="M366.097 151.41C366.12 152.395 365.848 153.365 365.317 154.195C364.786 155.025 364.02 155.678 363.116 156.07C362.211 156.463 361.211 156.576 360.242 156.397C359.273 156.217 358.379 155.753 357.675 155.063C356.972 154.373 356.49 153.489 356.291 152.523C356.092 151.558 356.186 150.555 356.561 149.643C356.935 148.732 357.573 147.952 358.392 147.405C359.212 146.858 360.176 146.567 361.162 146.571C361.804 146.563 362.441 146.682 363.037 146.922C363.633 147.161 364.176 147.516 364.634 147.965C365.093 148.415 365.458 148.95 365.709 149.541C365.96 150.133 366.092 150.767 366.097 151.41Z" fill="white" stroke="#181F23" stroke-linecap="round" stroke-linejoin="round"/>
<path d="M475.982 115.379C475.982 115.379 484.561 119.466 488.243 123.091C491.925 126.715 494.373 129.221 491.52 137.799C488.667 146.378 437.542 237.118 434.285 242.015C431.027 246.911 424.067 250.189 418.361 246.931C412.655 243.673 349.289 172.943 349.289 172.943L370.128 152.932L412.366 189.83L447.509 137.105" fill="white"/>
<path d="M475.982 115.379C475.982 115.379 484.561 119.466 488.243 123.091C491.925 126.715 494.373 129.221 491.52 137.799C488.667 146.378 437.542 237.118 434.285 242.015C431.027 246.911 424.067 250.189 418.361 246.931C412.655 243.673 349.289 172.943 349.289 172.943L370.128 152.932L412.366 189.83L447.509 137.105" stroke="#181F23" stroke-linecap="round" stroke-linejoin="round"/>
<path d="M436.749 207.315L412.285 189.772L438.638 196.018" stroke="#181F23" stroke-linecap="round" stroke-linejoin="round"/>
<ellipse cx="421.038" cy="54.886" rx="2.89166" ry="3.85554" fill="#181F23"/>
<ellipse cx="395.976" cy="54.886" rx="2.89166" ry="3.85554" fill="#181F23"/>
</svg>
