<svg width="119" height="86" viewBox="0 0 119 86" fill="none" xmlns="http://www.w3.org/2000/svg">
<path d="M1.03007 71.7941C0.346373 72.2711 0.171473 73.2068 0.63942 73.884L8.26505 84.9196C8.733 85.5968 9.66659 85.7591 10.3503 85.282C11.034 84.805 11.2089 83.8693 10.7409 83.1921L3.9626 73.3827L13.8661 66.4726C14.5498 65.9956 14.7247 65.0599 14.2568 64.3827C13.7889 63.7055 12.8553 63.5432 12.1716 64.0203L1.03007 71.7941ZM118.526 2.92732C118.82 2.14883 118.43 1.28828 117.655 1.00522C116.881 0.722157 116.014 1.12378 115.721 1.90227L118.526 2.92732ZM1.60113 74.4981C29.7431 79.3892 92.5127 71.9057 118.526 2.92732L115.721 1.90227C90.4088 69.0202 29.4567 76.2878 2.1536 71.5425L1.60113 74.4981Z" fill="white"/>
</svg>
