<svg width="195" height="75" viewBox="0 0 195 75" fill="none" xmlns="http://www.w3.org/2000/svg">
<path d="M0.507812 65.3354H194.034" stroke="white"/>
<path d="M66.9636 69.5L63.0714 72.6333L63.8717 72.855C63.7392 72.6489 63.9831 72.3532 64.1054 72.1906C64.4101 71.7873 64.7576 71.4128 65.0818 71.0276L66.9106 68.8544L70.6507 64.4094C71.846 62.9893 73.0374 61.5635 74.239 60.1484C75.3719 58.8129 76.5353 57.4963 77.8404 56.344C79.0615 55.2648 80.4375 54.331 81.9406 53.7528C83.2746 53.2403 84.9016 52.8583 86.3096 53.2649C86.908 53.4374 87.4239 53.8144 87.5813 54.4763C87.7371 55.1211 87.5314 55.8217 87.1917 56.3654C86.7888 57.0101 86.1639 57.4783 85.5507 57.8791C84.8494 58.339 84.113 58.7546 83.3868 59.176C77.3726 62.6744 71.0967 65.648 64.622 68.0667C61.3987 69.2714 58.1318 70.3306 54.8212 71.2444C51.4551 72.175 48.0196 72.9799 44.5225 72.9791C41.5849 72.9791 38.5515 72.359 35.9661 70.8354C34.1989 69.794 32.8041 68.323 31.9672 66.3773C31.1304 64.4316 30.9597 62.1245 31.082 59.9381C31.16 58.4877 31.347 57.0298 31.7124 55.627C32.1573 53.9162 32.8446 52.2933 33.6417 50.7344C36.3308 45.4714 40.3218 41.0001 45.0602 37.7296C50.3587 34.0715 56.5316 31.9705 62.8377 31.4547C69.1804 30.9356 75.5753 31.9902 81.5448 34.271C84.077 35.2357 86.5248 36.4306 88.8607 37.8421C90.1628 38.6298 91.5692 39.4166 92.537 40.6601C93.3162 41.658 93.8009 43.3828 92.6656 44.3026C91.9752 44.862 90.8048 44.9277 90.3334 44.1384C89.9337 43.4698 88.9215 44.0875 89.3204 44.7601C90.0505 45.9798 91.5435 46.2048 92.7365 45.6636C94.1795 45.0065 94.7873 43.2645 94.3728 41.7138C93.9107 39.9891 92.5222 38.7768 91.1492 37.8462C89.9088 37.0161 88.6284 36.2543 87.3132 35.5638C81.6593 32.552 75.4397 30.6769 69.1165 30.2047C62.1582 29.684 55.048 30.9513 48.7403 34.1289C43.282 36.8853 38.4751 41.0642 34.9329 46.2484C33.0262 49.0367 31.3548 52.1857 30.5311 55.5293C30.1641 57.0167 29.9857 58.5739 29.9078 60.1073C29.8405 61.3768 29.8995 62.6502 30.0839 63.9068C30.4252 66.1564 31.3446 68.2852 32.8734 69.9147C34.6562 71.8161 37.0811 72.9323 39.5052 73.5819C43.1254 74.5503 46.9076 74.2735 50.5457 73.5515C54.1215 72.8411 57.6474 71.7668 61.1125 70.6071C68.0125 68.2933 74.7121 65.3617 81.138 61.8444C82.7206 60.9787 84.3008 60.0934 85.8382 59.139C87.2454 58.2651 88.5802 57.0988 88.7797 55.2788C88.8724 54.4361 88.6449 53.5762 88.0893 52.9512C87.5805 52.3762 86.8426 52.0814 86.1226 51.9656C84.4863 51.7036 82.7533 52.0756 81.2354 52.7253C77.9285 54.1412 75.4428 56.8746 73.1146 59.6326C70.5172 62.7087 67.9259 65.7881 65.3405 68.8708C64.7031 69.6281 64.0641 70.3829 63.4291 71.1426C62.9094 71.7643 62.3429 72.6604 62.8649 73.4751C63.0255 73.7215 63.4003 73.9088 63.6644 73.6961L67.5604 70.5619C67.8105 70.3599 67.943 70.0313 67.77 69.7192C67.6259 69.4589 67.2246 69.2946 66.9706 69.4983L66.9636 69.5Z" fill="white" stroke="white" stroke-linecap="round" stroke-linejoin="round"/>
<path d="M51.9658 61.7706C53.758 58.9691 56.1548 56.5848 58.6608 54.4608C61.335 52.1956 64.2173 50.2277 67.0676 48.2188C70.16 46.0472 73.2487 43.868 76.3339 41.6811C77.8969 40.5685 79.4553 39.4498 81.0091 38.3252C82.4116 37.3133 83.7939 36.2029 85.3586 35.4834C86.0116 35.1828 86.8126 34.9085 87.5193 34.892C87.5972 34.892 87.6751 34.892 87.7531 34.892C87.7912 34.892 87.831 34.8978 87.8684 34.9027C87.8403 34.9027 87.7726 34.8797 87.884 34.9076C87.9564 34.9257 88.0289 34.9471 88.1014 34.9668C88.1201 34.9717 88.2058 35.0103 88.1138 34.9668C88.1542 34.9864 88.1935 35.0083 88.2315 35.0325C88.2463 35.0407 88.3328 35.1089 88.279 35.0629C88.2253 35.0169 88.3055 35.0933 88.3164 35.1048C88.3796 35.1721 88.2666 35.0333 88.3219 35.1048C88.3312 35.1179 88.385 35.2181 88.3554 35.1549C88.3258 35.0916 88.3718 35.2115 88.3764 35.2288C88.4037 35.3273 88.3764 35.1549 88.3819 35.2542C88.3819 35.269 88.3741 35.3963 88.3819 35.3273C88.3897 35.2583 88.3577 35.4095 88.3531 35.4284C88.3772 35.352 88.3476 35.4456 88.3406 35.4587C88.3211 35.4982 88.3001 35.5359 88.2783 35.5737C88.2253 35.6624 88.2377 35.6411 88.2564 35.6148C88.2299 35.6518 88.1988 35.6871 88.1699 35.7207C88.0515 35.858 87.9172 35.9792 87.7702 36.0813C87.682 36.1414 87.5907 36.1962 87.4967 36.2456L87.4484 36.2686C87.3705 36.3129 87.5045 36.2374 87.5092 36.2423C87.4587 36.2575 87.4097 36.2776 87.3627 36.3022C86.9237 36.463 86.4759 36.5958 86.0217 36.6998C84.2903 37.1318 82.5309 37.425 80.7948 37.8324C79.1605 38.2156 77.5144 38.5299 75.8562 38.7752L75.4728 38.8319L75.3513 38.8492C75.2625 38.8623 75.4495 38.8352 75.3599 38.8492L75.1362 38.8795C74.8479 38.9201 74.5588 38.9581 74.269 38.9937C73.6726 39.0676 73.0752 39.1339 72.4768 39.1925C71.1335 39.3239 69.7873 39.4153 68.4382 39.4668C65.309 39.5902 62.1755 39.4871 59.0597 39.158C55.5137 38.7851 52.0063 38.0792 48.5794 37.0488C47.6917 36.7794 46.8106 36.4876 45.9364 36.1733C45.6379 36.0665 45.2982 36.2965 45.218 36.6037C45.1796 36.7612 45.2007 36.9282 45.2768 37.0696C45.353 37.2111 45.4783 37.3158 45.6263 37.3617C49.1902 38.6358 52.8612 39.5486 56.5896 40.0877C59.9103 40.5713 63.2605 40.7951 66.6125 40.7571C69.3292 40.7278 72.0421 40.5358 74.738 40.1822C76.6572 39.93 78.5686 39.6072 80.4613 39.1851C81.0278 39.0594 81.5904 38.9108 82.1576 38.7884C83.2119 38.5617 84.2724 38.372 85.3259 38.1404C85.8775 38.0196 86.4292 37.894 86.9731 37.7363C87.3837 37.6196 87.8139 37.4899 88.1879 37.2739C88.8821 36.8681 89.6356 36.0846 89.5468 35.1737C89.4533 34.2112 88.6515 33.7512 87.8146 33.6757C87.0198 33.6034 86.1612 33.8572 85.4225 34.1463C84.6045 34.4763 83.8196 34.8912 83.0794 35.3848C81.5117 36.4074 80.0187 37.5646 78.4954 38.6586C75.3323 40.9255 72.1584 43.1745 68.9735 45.4058C65.9572 47.5297 62.8887 49.5945 59.969 51.8638C57.234 53.9927 54.5925 56.3203 52.4193 59.0914C51.902 59.7485 51.4111 60.4376 50.9568 61.1448C50.7799 61.4207 50.9061 61.8273 51.1664 61.9874C51.4539 62.1648 51.7897 62.0433 51.9658 61.7665V61.7706Z" fill="white" stroke="white" stroke-linecap="round" stroke-linejoin="round"/>
<path d="M90.2662 52.5493C90.2662 52.5493 90.3565 52.5058 90.3106 52.5239C90.2646 52.5419 90.249 52.5148 90.2895 52.5387C90.2958 52.5387 90.309 52.5387 90.3223 52.5526C90.3355 52.5666 90.3565 52.5781 90.3932 52.6134C90.4315 52.647 90.4623 52.6891 90.4836 52.7366C90.5346 52.8119 90.5583 52.904 90.5506 52.9961C90.5568 52.937 90.5249 53.1037 90.5155 53.1308C90.4867 53.2076 90.4496 53.2807 90.4049 53.3485C90.2295 53.6212 89.9592 53.8265 89.7036 54.0055C89.3303 54.2708 88.9485 54.523 88.5683 54.7768C86.9787 55.8368 85.3632 56.8517 83.7216 57.8214C83.5268 57.9364 83.332 58.062 83.1349 58.1647C83.0718 58.1967 82.9346 58.2107 83.057 58.2394C83.1793 58.2682 83.117 58.2674 83.11 58.1951C83.092 58.021 82.9954 57.8107 82.9541 57.6341C82.8988 57.405 82.8536 57.1725 82.8185 56.9393C82.6993 56.0726 82.7009 55.1921 82.8232 54.3258C83.057 52.5625 83.6959 50.9009 84.3318 49.2649C84.906 47.7865 85.5161 46.3262 86.2018 44.9061C86.727 43.8203 87.3286 42.7707 87.9317 41.7342C89.1535 39.6299 90.503 37.6161 91.8978 35.6359C93.9378 32.7432 95.9995 29.8661 98.3052 27.1993C100.457 24.7076 102.775 22.3804 105.24 20.2353C109.465 16.5346 114.175 13.4972 119.224 11.2172C122.273 9.82667 125.583 8.72117 128.915 8.49203C130.153 8.40989 131.285 8.45835 132.441 8.82795C132.554 8.86409 132.666 8.90269 132.777 8.9454C132.827 8.96347 132.876 8.98318 132.925 9.00371C132.974 9.02424 133.128 9.09159 133.024 9.04395C133.226 9.13614 133.424 9.24006 133.615 9.35524C133.793 9.46285 133.965 9.58047 134.131 9.70758C134.175 9.74126 134.23 9.78971 134.152 9.72237C134.191 9.7544 134.23 9.78807 134.268 9.82175C134.346 9.88745 134.417 9.95562 134.488 10.0263C134.621 10.156 134.747 10.2931 134.865 10.4369C134.89 10.4681 134.916 10.4993 134.943 10.5305C134.971 10.5618 135.051 10.6726 134.994 10.5954C134.937 10.5182 135.016 10.6266 135.028 10.6447C135.057 10.6874 135.087 10.7268 135.115 10.7737C135.294 11.0513 135.45 11.3445 135.582 11.65C135.592 11.6722 135.64 11.7855 135.599 11.6894C135.559 11.5933 135.613 11.7231 135.62 11.7436C135.648 11.8167 135.674 11.8898 135.698 11.9646C135.742 12.0952 135.781 12.2282 135.816 12.3613C135.881 12.6077 135.92 12.8541 135.965 13.1054C135.98 13.1966 135.947 12.9321 135.958 13.0512C135.958 13.075 135.963 13.098 135.966 13.1218C135.97 13.1736 135.976 13.2253 135.98 13.277C135.987 13.3641 135.991 13.452 135.994 13.539C135.997 13.6808 135.989 13.8226 135.97 13.9628C135.758 15.433 135.19 16.8449 134.247 17.9594C133.724 18.5762 133.106 19.0657 132.476 19.5536C131.749 20.1154 131.01 20.6588 130.258 21.1839C128.752 22.2319 127.201 23.2008 125.608 24.0906C122.965 25.5632 119.997 27.0021 118.811 30.1141C117.54 33.4405 118.868 37.1717 120.662 39.97C121.632 41.482 122.76 42.8725 123.823 44.3115C124.894 45.7607 125.856 47.2963 126.699 48.9043C127.479 50.3884 128.227 51.9432 128.547 53.6154C128.825 55.0741 128.655 56.6067 127.579 57.6629C127.009 58.2222 126.294 58.6049 125.598 58.9565C124.829 59.3392 124.039 59.6708 123.232 59.9494C121.576 60.5244 119.866 60.9096 118.145 61.1921C114.499 61.7917 110.787 62.052 107.106 62.2713C103.259 62.5002 99.4065 62.5946 95.5499 62.5547C93.6939 62.535 91.8388 62.4843 89.9849 62.4027C89.2329 62.3699 89.2345 63.6018 89.9849 63.6347C93.9604 63.8088 97.9385 63.8406 101.919 63.73C105.9 63.6194 109.87 63.3645 113.831 62.9653C117.433 62.6031 121.091 62.144 124.496 60.7806C126.073 60.149 127.86 59.3844 128.919 57.9306C129.931 56.5344 129.984 54.7193 129.629 53.0668C129.248 51.2952 128.428 49.6287 127.589 48.0567C126.679 46.3713 125.647 44.7622 124.502 43.2438C122.439 40.471 119.997 37.6473 119.556 34.0047C119.356 32.353 119.626 30.6841 120.544 29.3068C121.394 28.0296 122.693 27.1524 123.964 26.4034C125.445 25.5312 126.967 24.7517 128.427 23.8442C130.038 22.8432 131.6 21.7565 133.107 20.5884C133.789 20.0587 134.475 19.5306 135.046 18.8637C135.556 18.2726 135.986 17.6091 136.321 16.8925C136.665 16.1518 136.912 15.3655 137.055 14.555C137.118 14.2443 137.154 13.9282 137.163 13.6105C137.145 12.4298 136.813 11.2781 136.206 10.2858C135.168 8.59798 133.422 7.65264 131.565 7.36682C130.041 7.13192 128.526 7.25183 127.009 7.49659C125.262 7.78465 123.541 8.23203 121.867 8.8337C118.68 9.96712 115.615 11.5441 112.692 13.2902C110.493 14.6166 108.384 16.1009 106.379 17.7327C103.85 19.772 101.461 21.9973 99.2293 24.392C96.6525 27.159 94.371 30.165 92.1549 33.254C90.5778 35.4519 89.0132 37.6637 87.6036 39.9889C86.9803 41.0196 86.3826 42.0701 85.8029 43.1296C85.0946 44.4248 84.4993 45.7849 83.9328 47.1541C82.5302 50.5281 80.922 54.2659 81.8477 58.0185C81.9552 58.4546 82.0767 58.945 82.4289 59.2349C82.8653 59.5946 83.3726 59.4427 83.8144 59.1873C84.6543 58.7027 85.485 58.2017 86.3078 57.6859C87.1478 57.1635 87.981 56.6291 88.8075 56.0827C89.5516 55.5899 90.3869 55.1275 91.022 54.4803C91.6095 53.8815 91.922 53.0265 91.5441 52.2134C91.2067 51.4874 90.3807 51.0701 89.6786 51.489C89.0241 51.88 89.6124 52.9452 90.2685 52.5567L90.2662 52.5493Z" fill="white" stroke="white" stroke-linecap="round" stroke-linejoin="round"/>
<path d="M35.4599 67.1485C31.5888 68.3173 26.8513 68.7674 23.235 66.5252C19.512 64.2164 18.693 59.3099 19.1574 55.1375C19.4151 52.7357 20.156 50.4195 21.3306 48.3436C22.1208 46.9588 22.9615 45.6053 23.8366 44.2789C25.76 41.3771 27.8449 38.5981 30.0803 35.9564C40.4188 23.685 53.6177 13.7939 68.2083 7.99453C84.2848 1.60547 101.958 0.631381 118.443 5.89112C131.853 10.1702 143.877 18.1658 154.599 27.5338C161.59 33.6427 167.741 41.1767 172.022 49.6347C174.138 53.8128 176.585 58.9058 175.074 63.731C174.465 65.6743 173.191 67.4861 171.349 68.2697C169.069 69.2396 166.362 68.6918 164.043 68.1818C162.387 67.8171 159.956 67.5806 159.141 65.7539C159.015 65.4706 158.583 65.3531 158.342 65.533C157.314 66.314 156.134 66.8425 154.887 67.0796C154.263 67.1945 151.147 67.5181 151.57 66.1917C151.699 65.781 151.258 65.2513 150.851 65.4336C149.095 66.2106 147.227 66.2944 145.348 66.2229C144.116 66.1753 140.832 66.0587 141.534 63.8583C141.714 63.2966 141.1 62.9631 140.676 63.1627C138.696 64.0932 136.496 64.7232 134.353 65.0517C133.302 65.211 132.149 65.3252 131.105 65.0575C129.834 64.7289 129.079 63.4058 129.624 62.0662C129.829 61.5603 129.496 61.0609 128.964 61.1628C125.913 61.7404 122.856 62.2828 119.793 62.7898C119.047 62.9122 118.088 63.2522 117.338 63.1693C116.489 63.0756 116.792 62.4079 116.963 61.7541C117.243 60.6864 117.275 59.6778 116.472 58.8466C114.516 56.8237 111.264 58.7834 109.199 59.5793L107.173 60.3595C106.616 60.5739 105.594 61.1964 105.256 60.3677C104.733 59.0832 106.398 58.2733 107.241 57.8495L106.651 56.7818C103.627 58.9091 100.464 61.1291 96.8331 61.8502C96.0539 62.0046 95.111 62.1943 94.3272 61.9816C94.01 61.8995 93.6017 61.7673 93.6461 61.373C93.6968 60.9254 94.3264 60.4753 94.6139 60.1796L99.1769 55.4891L98.3502 54.6185C94.543 59.3 88.9218 62.0925 83.0692 62.1566L83.6334 62.9368C84.9261 59.0865 87.933 56.3301 90.9018 53.885C94.356 51.04 97.7915 48.2179 100.994 45.0558C107.719 38.4097 113.313 30.6589 119.732 23.7015C122.594 20.6018 125.76 17.4504 129.735 16.0574C133.361 14.7877 137.635 15.2542 140.65 17.8602C143.434 20.2667 144.722 24.4924 143.492 28.1136C142.08 32.2728 137.434 34.3902 133.923 36.1322C129.749 38.1992 125.373 39.7813 120.874 40.8507C116.949 41.787 112.959 42.329 109.008 43.12C104.021 44.1187 99.0982 45.4911 94.2111 46.9334C82.5503 50.3747 71.0337 54.3614 59.5638 58.4491C51.8294 61.2063 44.1527 64.1548 36.395 66.8373C36.0833 66.9449 35.7716 67.0516 35.4599 67.1485C34.7399 67.3711 35.0462 68.5604 35.7716 68.3362C38.2191 67.5789 40.6206 66.6221 43.0291 65.7408C47.6654 64.0467 52.3045 62.3616 56.9465 60.6856C68.7981 56.4311 80.695 52.2785 92.7352 48.654C97.9029 47.0993 103.106 45.6151 108.377 44.5014C112.129 43.7089 115.928 43.1939 119.675 42.3808C124.227 41.4004 128.669 39.9183 132.927 37.9588C135.035 36.9855 137.12 35.9121 139.098 34.6686C140.821 33.5861 142.464 32.2867 143.617 30.5299C145.648 27.4245 145.513 23.2087 143.823 19.9768C142.023 16.5346 138.498 14.5667 134.862 14.2004C130.837 13.7955 127.046 15.5359 123.894 18.0532C120.294 20.9279 117.251 24.586 114.26 28.1268C111.095 31.8736 108.026 35.7092 104.754 39.3575C101.527 42.966 98.0733 46.341 94.416 49.4598C91.3163 52.097 87.8707 54.4287 85.2689 57.6533C84.0752 59.1316 83.1207 60.7743 82.5035 62.6107C82.3765 62.9902 82.7085 63.3943 83.0669 63.3902C89.2101 63.3195 95.1741 60.4113 99.1746 55.4907C99.6585 54.8953 98.8933 54.0592 98.3478 54.6201L95.4547 57.5941C94.5874 58.4853 93.516 59.3452 92.8054 60.38C91.6428 62.0711 93.442 63.2662 94.9155 63.2908C99.4465 63.3655 103.636 60.385 107.242 57.8471C107.872 57.4036 107.33 56.4426 106.653 56.7794C105.137 57.5415 103.224 59.0791 104.299 61.0905C104.767 61.9693 105.672 62.1582 106.545 61.8921C107.891 61.4814 109.207 60.8778 110.519 60.3702C111.72 59.9078 113.105 59.1382 114.415 59.1916C115.003 59.2162 115.74 59.5439 115.951 60.1772C116.135 60.7168 115.839 61.3525 115.717 61.8716C115.506 62.7438 115.517 63.7318 116.379 64.2008C117.303 64.7035 118.698 64.2008 119.652 64.0456C122.869 63.5183 126.079 62.951 129.283 62.3438L128.623 61.4404C128.028 62.9105 128.282 64.738 129.595 65.6965C130.608 66.4356 131.981 66.4808 133.162 66.4085C135.918 66.2393 138.757 65.4073 141.274 64.2246L140.417 63.529C139.686 65.818 141.965 67.1485 143.763 67.3522C146.197 67.629 148.883 67.6331 151.172 66.6196L150.452 65.8624C149.829 67.845 152.131 68.4167 153.485 68.4282C155.44 68.4325 157.348 67.7914 158.939 66.595L158.14 66.374C158.967 68.2302 161.004 68.7353 162.737 69.1386C165.091 69.6864 167.561 70.2466 169.979 69.8967C174.103 69.2996 176.569 65.2414 176.707 61.0724C176.793 58.4491 176.058 55.88 175.097 53.4892C174.107 51.0252 172.907 48.6434 171.614 46.3387C169.153 41.9775 166.146 37.9703 162.916 34.216C157.758 28.227 151.631 23.1594 145.328 18.5731C139.124 14.0559 132.513 10.1571 125.508 7.20359C117.706 3.91338 109.441 1.88061 101.048 1.34839C91.7753 0.760329 82.4092 1.9956 73.5185 4.80369C65.2489 7.41467 57.3688 11.3611 50.1222 16.2866C43.3524 20.8815 37.1223 26.3046 31.5616 32.4428C29.0777 35.183 26.7479 38.0738 24.5838 41.1003C22.508 44.0086 20.2398 47.1428 19.0094 50.5677C17.5289 54.699 17.2445 59.8437 19.2798 63.8238C21.3151 67.804 25.4028 69.3144 29.5037 69.3152C31.6208 69.3152 33.7379 68.9505 35.7708 68.3362C36.4924 68.1185 36.1854 66.9293 35.4599 67.1485Z" fill="white"/>
<path d="M35.4599 67.1485C31.5888 68.3173 26.8513 68.7674 23.235 66.5252C19.512 64.2164 18.693 59.3099 19.1574 55.1375C19.4151 52.7357 20.156 50.4195 21.3306 48.3436C22.1208 46.9588 22.9615 45.6053 23.8366 44.2789C25.76 41.3771 27.8449 38.5981 30.0803 35.9564C40.4188 23.685 53.6177 13.7939 68.2083 7.99453C84.2848 1.60547 101.958 0.631381 118.443 5.89112C131.853 10.1702 143.877 18.1658 154.599 27.5338C161.59 33.6428 167.741 41.1767 172.022 49.6347C174.138 53.8128 176.585 58.9058 175.074 63.731C174.465 65.6743 173.191 67.4861 171.349 68.2697C169.069 69.2396 166.362 68.6918 164.043 68.1818C162.387 67.8171 159.956 67.5806 159.141 65.7539C159.015 65.4706 158.583 65.3531 158.342 65.533C157.314 66.314 156.134 66.8425 154.887 67.0796C154.263 67.1945 151.147 67.5181 151.57 66.1917C151.699 65.781 151.258 65.2513 150.851 65.4336C149.095 66.2106 147.227 66.2944 145.348 66.2229C144.116 66.1753 140.832 66.0587 141.534 63.8583C141.714 63.2966 141.1 62.9631 140.676 63.1627C138.696 64.0932 136.496 64.7232 134.353 65.0517C133.302 65.211 132.149 65.3252 131.105 65.0575C129.834 64.7289 129.079 63.4058 129.624 62.0662C129.829 61.5603 129.496 61.0609 128.964 61.1628C125.913 61.7404 122.856 62.2828 119.793 62.7898C119.047 62.9122 118.088 63.2522 117.338 63.1692C116.489 63.0756 116.792 62.4079 116.963 61.7541C117.243 60.6864 117.275 59.6778 116.472 58.8466C114.516 56.8237 111.264 58.7834 109.199 59.5793L107.173 60.3595C106.616 60.5739 105.594 61.1964 105.256 60.3677C104.733 59.0832 106.398 58.2734 107.241 57.8495L106.651 56.7818C103.627 58.9091 100.464 61.1291 96.8331 61.8502C96.0539 62.0046 95.111 62.1943 94.3272 61.9816C94.01 61.8995 93.6017 61.7673 93.6461 61.373C93.6968 60.9254 94.3264 60.4753 94.6139 60.1796L99.1769 55.4891L98.3502 54.6185C94.543 59.3 88.9218 62.0925 83.0692 62.1566L83.6334 62.9368C84.9261 59.0865 87.933 56.3301 90.9018 53.885C94.356 51.04 97.7915 48.2179 100.994 45.0558C107.719 38.4097 113.313 30.6589 119.732 23.7015C122.594 20.6018 125.76 17.4504 129.735 16.0574C133.361 14.7877 137.635 15.2542 140.65 17.8602C143.434 20.2667 144.722 24.4924 143.492 28.1136C142.08 32.2728 137.434 34.3902 133.923 36.1322C129.749 38.1992 125.373 39.7813 120.874 40.8507C116.949 41.787 112.959 42.329 109.008 43.12C104.021 44.1187 99.0982 45.4911 94.2111 46.9334C82.5503 50.3747 71.0337 54.3614 59.5638 58.4491C51.8294 61.2063 44.1527 64.1548 36.395 66.8373C36.0833 66.9449 35.7716 67.0516 35.4599 67.1485C34.7399 67.3711 35.0462 68.5604 35.7716 68.3362C38.2191 67.5789 40.6206 66.6221 43.0291 65.7408C47.6654 64.0467 52.3045 62.3616 56.9465 60.6856C68.7981 56.4311 80.695 52.2785 92.7352 48.654C97.9029 47.0993 103.106 45.6151 108.377 44.5014C112.129 43.7089 115.928 43.1939 119.675 42.3808C124.227 41.4004 128.669 39.9183 132.927 37.9588C135.035 36.9855 137.12 35.9121 139.098 34.6686C140.821 33.5861 142.464 32.2867 143.617 30.5299C145.648 27.4245 145.513 23.2087 143.823 19.9768C142.023 16.5346 138.498 14.5667 134.862 14.2004C130.837 13.7955 127.046 15.5359 123.894 18.0532C120.294 20.9279 117.251 24.586 114.26 28.1268C111.095 31.8736 108.026 35.7092 104.754 39.3575C101.527 42.966 98.0734 46.341 94.416 49.4598C91.3163 52.097 87.8707 54.4287 85.2689 57.6533C84.0752 59.1316 83.1207 60.7743 82.5035 62.6107C82.3765 62.9902 82.7085 63.3943 83.0669 63.3902C89.2101 63.3195 95.1742 60.4113 99.1746 55.4907C99.6585 54.8953 98.8933 54.0592 98.3478 54.6201L95.4547 57.5941C94.5874 58.4853 93.516 59.3452 92.8054 60.38C91.6428 62.0711 93.442 63.2662 94.9155 63.2908C99.4465 63.3655 103.636 60.385 107.242 57.8471C107.872 57.4036 107.33 56.4426 106.653 56.7794C105.137 57.5416 103.224 59.0791 104.299 61.0905C104.767 61.9693 105.672 62.1582 106.545 61.8921C107.891 61.4814 109.207 60.8778 110.519 60.3702C111.72 59.9078 113.105 59.1382 114.415 59.1916C115.003 59.2162 115.74 59.5439 115.951 60.1772C116.135 60.7168 115.839 61.3525 115.717 61.8716C115.506 62.7438 115.517 63.7318 116.379 64.2008C117.303 64.7035 118.698 64.2008 119.652 64.0456C122.869 63.5183 126.079 62.951 129.283 62.3438L128.623 61.4404C128.028 62.9105 128.282 64.738 129.595 65.6965C130.608 66.4356 131.981 66.4808 133.162 66.4085C135.918 66.2393 138.757 65.4073 141.274 64.2246L140.417 63.529C139.686 65.818 141.965 67.1485 143.763 67.3522C146.197 67.629 148.883 67.6331 151.172 66.6196L150.452 65.8624C149.829 67.845 152.131 68.4167 153.485 68.4282C155.44 68.4325 157.348 67.7914 158.939 66.595L158.14 66.374C158.967 68.2302 161.004 68.7353 162.737 69.1386C165.091 69.6864 167.561 70.2466 169.979 69.8967C174.103 69.2996 176.569 65.2414 176.707 61.0724C176.793 58.4491 176.058 55.88 175.097 53.4892C174.107 51.0252 172.907 48.6434 171.614 46.3387C169.153 41.9775 166.146 37.9703 162.916 34.216C157.758 28.227 151.631 23.1594 145.328 18.5731C139.124 14.0559 132.513 10.1571 125.508 7.20359C117.706 3.91338 109.441 1.88061 101.048 1.34839C91.7753 0.760329 82.4092 1.9956 73.5185 4.80369C65.2489 7.41467 57.3688 11.3611 50.1222 16.2866C43.3524 20.8815 37.1223 26.3046 31.5616 32.4428C29.0777 35.183 26.7479 38.0738 24.5838 41.1003C22.508 44.0086 20.2398 47.1428 19.0094 50.5677C17.5289 54.699 17.2445 59.8437 19.2798 63.8238C21.3151 67.804 25.4028 69.3144 29.5037 69.3152C31.6208 69.3152 33.7379 68.9505 35.7708 68.3362C36.4924 68.1185 36.1854 66.9293 35.4599 67.1485Z" stroke="white" stroke-linecap="round" stroke-linejoin="round"/>
</svg>
