<svg width="181" height="238" viewBox="0 0 181 238" fill="none" xmlns="http://www.w3.org/2000/svg">
<path d="M97.8358 8.96556C97.8358 8.96556 97.8358 -0.814564 83.2036 1.14146C68.5714 3.09748 62.4401 17.9307 58.0192 21.0538C53.5983 24.1769 45.427 26.9219 45.086 31.5968C44.7451 36.2717 48.4955 38.2342 44.7451 41.7485C40.9947 45.2629 35.2441 48.4055 36.5795 53.0935C37.9148 57.7814 41.6936 62.4628 39.9889 65.5925C38.2842 68.7221 33.5223 71.8387 37.9433 75.3726C42.3642 78.9065 44.4098 79.6693 44.4098 84.3507C44.4098 89.0322 42.7051 92.1748 46.7964 93.7266C50.8878 95.2784 53.2573 92.1618 55.6439 98.0168C58.0305 103.872 60.4058 105.437 64.4914 104.263C68.5771 103.089 74.3561 101.14 76.4245 102.705C78.4929 104.27 84.9481 108.573 87.6529 106.219C90.3577 103.865 92.7671 100.351 96.8413 102.307C100.916 104.263 104.331 106.995 106.03 103.481C107.729 99.9663 106.03 99.1839 112.496 97.6126C118.963 96.0412 121.344 96.4455 121.344 90.1993C121.344 83.953 121.003 82.3752 124.066 79.6563C127.129 76.9374 129.85 78.0915 128.833 71.454C127.816 64.8166 125.77 63.2518 126.788 56.6143C127.805 49.9769 125.083 47.6362 123.043 45.6801C121.003 43.7241 118.622 40.2163 119.304 36.702C119.986 33.1877 125.089 32.7899 119.98 26.5502C114.872 20.3105 112.496 22.2535 111.456 17.5655C110.417 12.8776 107.024 2.71932 97.8358 8.96556Z" fill="#181F23" stroke="#181F23" stroke-linecap="round" stroke-linejoin="round"/>
<path d="M84.773 20.7212C82.6762 24.5289 81.0567 28.8257 77.6813 32.4573C72.8058 37.6734 60.3159 42.2375 59.7079 47.1406C59.0999 52.0437 61.2308 54.8277 56.969 59.0202C52.7072 63.2126 46.002 64.2362 46.002 68.4612C46.002 72.6862 47.826 74.0555 46.9168 77.1981" stroke="white" stroke-miterlimit="10" stroke-linecap="round"/>
<path d="M93.8295 16.027C93.8295 16.027 92.3066 11.4629 88.0392 16.027C87.7096 16.3791 87.397 16.7442 87.1016 17.1159" stroke="white" stroke-miterlimit="10" stroke-linecap="round"/>
<path d="M59.4173 36.0044C55.6669 37.0476 52.7063 37.7974 52.3995 40.8488C51.7858 46.7886 52.7007 50.6289 49.0469 52.3828C45.3931 54.1367 40.5233 56.9469 42.0405 60.4221C43.5577 63.8973 43.8645 64.9862 43.5634 66.3619" stroke="white" stroke-miterlimit="10" stroke-linecap="round"/>
<path d="M93.2062 10.4327C93.2062 10.4327 84.6826 4.14732 80.1367 9.73503C75.5908 15.3227 77.699 22.3188 70.6926 30.0125C68.9131 31.9137 66.8128 33.376 64.5215 34.3092" stroke="white" stroke-miterlimit="10" stroke-linecap="round"/>
<path d="M122.85 60.0049C123.361 60.9158 124.067 61.661 124.901 62.1695" stroke="white" stroke-miterlimit="10" stroke-linecap="round"/>
<path d="M99.3125 19.1889C99.3125 19.1889 106.927 16.3918 108.751 21.2819C110.575 26.172 111.496 34.9154 114.848 36.3172C118.201 37.719 119.718 39.812 119.718 47.4991C119.714 49.9767 120.036 52.4408 120.673 54.8082" stroke="white" stroke-miterlimit="10" stroke-linecap="round"/>
<path d="M49.9609 81.3909C52.3987 76.8268 55.7456 78.6003 56.0525 73.7037C56.3593 68.8071 53.9216 67.4118 56.3536 64.2691C58.7857 61.1265 62.752 59.7051 62.752 59.7051" stroke="white" stroke-miterlimit="10" stroke-linecap="round"/>
<path d="M53.3101 91.1838C52.1846 90.1143 51.2074 88.8546 50.4121 87.4478" stroke="white" stroke-miterlimit="10" stroke-linecap="round"/>
<path d="M128.685 237.019C125.091 215.424 118.245 202.658 118.245 184.502C118.245 162.358 126.648 167.542 128.685 141.033C128.685 141.033 146.245 172.176 156.456 173.741C166.667 175.306 171.334 166.302 167.589 151.462C163.844 136.622 147.507 124.521 141.046 114.754C134.585 104.987 119.942 104.974 112.458 104.974C104.974 104.974 101.23 101.851 99.866 95.9955C98.5022 90.1405 98.5079 78.3913 98.5079 78.3913C98.5079 78.3913 89.6547 84.6375 74.6816 77.6089C74.6816 77.6089 76.0454 99.086 74.3407 102.209C72.6359 105.332 70.2721 108.514 60.0608 108.514C49.8495 108.514 41.343 110.861 36.5811 116.338C31.8193 121.815 12.0786 143.67 6.9758 152.264C1.873 160.857 4.58919 170.227 10.7148 173.741C16.8404 177.255 21.2462 172.223 25.6728 167.542C30.0994 162.861 47.3218 141.033 47.3218 141.033C47.3218 167.542 60.0608 166.066 60.0608 184.502C56.8737 198.562 41.4506 215.647 47.3218 237.781" fill="#181F23"/>
<path d="M79.2188 190.863L103.812 182.98" stroke="#181F23" stroke-linecap="round" stroke-linejoin="round"/>
<path d="M90.3535 184.369C96.0991 182.057 102.095 180.422 108.219 179.499" stroke="#181F23" stroke-linecap="round" stroke-linejoin="round"/>
<path d="M75.2408 78.4558C82.4646 81.678 88.2588 81.851 92.3026 81.1749C94.3919 80.8256 96.0073 80.2508 97.1052 79.7598C97.4688 79.5972 97.7757 79.4438 98.0244 79.3107C98.0276 79.6024 98.0324 79.9597 98.0397 80.3716C98.061 81.5669 98.1035 83.2222 98.1887 85.0619C98.3584 88.7289 98.699 93.1711 99.3894 96.1542L99.3895 96.1547C99.9965 98.763 101.075 100.887 102.767 102.452C104.359 103.925 106.457 104.868 109.118 105.281C107.961 112.59 105.777 120.666 101.882 126.505C99.8937 129.486 97.4744 131.862 94.5398 133.268C91.6126 134.671 88.1349 135.128 83.9887 134.211C76.4521 132.54 72.4003 127.618 70.2363 122.253C68.1432 117.063 67.8294 111.482 67.8775 108.109C69.8794 107.537 71.293 106.719 72.3574 105.76C73.4818 104.747 74.1904 103.599 74.7904 102.494C75.0506 102.017 75.2242 101.26 75.3503 100.372C75.4793 99.4633 75.5668 98.3505 75.6231 97.1165C75.7357 94.6472 75.7248 91.6567 75.6608 88.7727C75.5967 85.8869 75.4793 83.0999 75.3779 81.0349C75.3273 80.0022 75.2806 79.1497 75.2465 78.5552C75.2446 78.5212 75.2427 78.4881 75.2408 78.4558Z" fill="white" stroke="#181F23" stroke-linecap="round" stroke-linejoin="round"/>
<path d="M107.418 54.5351C107.418 54.5351 109.558 47.6543 113.724 49.2588C117.89 50.8632 114.372 60.2722 112.091 62.7641C109.81 65.2561 107.194 65.6947 107.018 62.847C106.843 59.9992 107.418 54.5351 107.418 54.5351Z" fill="white" stroke="#181F23" stroke-linecap="round" stroke-linejoin="round"/>
<path d="M78.1388 41.701L78.1391 41.7006C83.5445 35.9776 88.6188 29.8925 93.3328 23.4807C93.3791 23.4953 93.43 23.5115 93.4852 23.5292C93.7995 23.6304 94.2539 23.7826 94.8101 23.986C95.9231 24.393 97.4404 25.0032 99.0578 25.816C102.319 27.4549 105.88 29.865 107.454 33.0073C109.066 36.226 109.582 38.9561 109.695 42.1978C109.751 43.828 109.706 45.5844 109.646 47.6055C109.641 47.7568 109.637 47.9095 109.632 48.0637C109.575 49.9659 109.511 52.0946 109.511 54.5409C109.511 64.965 106.537 72.1206 101.758 79.3077C99.3899 82.8686 96.0939 85.8131 91.9991 86.8439C87.9226 87.87 82.952 87.0248 77.1643 82.8056C71.4141 78.6137 68.3709 72.2249 66.7677 66.837C65.9677 64.1482 65.5306 61.7232 65.2937 59.9711C65.1753 59.0955 65.1071 58.3889 65.0685 57.9027C65.0492 57.6596 65.0373 57.4718 65.0303 57.3455C65.0298 57.3363 65.0293 57.3275 65.0288 57.319C65.0563 57.2792 65.09 57.2307 65.1299 57.1737C65.261 56.9862 65.4591 56.7067 65.7253 56.341C66.2578 55.6095 67.063 54.5331 68.1504 53.1583C70.3254 50.4086 73.6293 46.4655 78.1388 41.701Z" fill="white" stroke="#181F23"/>
<path d="M81.0632 51.7376C81.0632 53.4981 80.2742 54.926 79.3027 54.926C78.3312 54.926 77.5488 53.4981 77.5488 51.7376C77.5488 49.9772 78.3312 48.5493 79.3027 48.5493C80.2742 48.5493 81.0632 49.9772 81.0632 51.7376Z" fill="#181F23"/>
<path d="M96.0228 51.7376C96.0228 53.4981 96.8117 54.926 97.7832 54.926C98.7547 54.926 99.5371 53.4981 99.5371 51.7376C99.5371 49.9772 98.7547 48.5493 97.7832 48.5493C96.8117 48.5493 96.0228 49.9772 96.0228 51.7376Z" fill="#181F23"/>
<path d="M85.0215 62.8737C86.2022 63.6144 87.5916 63.9514 88.9805 63.8338C90.3694 63.7162 91.6824 63.1504 92.7217 62.2217" stroke="#181F23" stroke-linecap="round" stroke-linejoin="round"/>
<path d="M82.3795 71.6256C82.3795 71.6256 86.7813 77.562 94.8967 71.6322" stroke="#181F23" stroke-linecap="round" stroke-linejoin="round"/>
<path d="M84.5837 41.7293C84.5837 41.7293 80.626 37.7716 75.123 41.5141" stroke="#181F23" stroke-width="2" stroke-linecap="round" stroke-linejoin="round"/>
<path d="M102.511 41.7293C102.511 41.7293 98.5537 37.7716 93.0508 41.5141" stroke="#181F23" stroke-width="2" stroke-linecap="round" stroke-linejoin="round"/>
<path d="M7.22005 152.271C7.22005 152.271 0.191406 160.095 0.191406 168.277C0.191406 176.46 4.87283 183.926 17.7956 195.609C30.7184 207.293 42.7806 215.913 47.8597 218.651C52.9389 221.39 58.0115 217.869 58.0115 217.869C58.0115 217.869 66.4094 226.26 67.3809 224.311C68.3523 222.361 64.4533 219.427 63.6709 218.26C62.9842 217.333 62.1994 216.483 61.3302 215.724C61.3302 215.724 65.4313 216.304 66.9962 217.68C68.561 219.056 71.0908 221.39 72.2644 221.194C73.438 220.999 73.438 220.021 71.6776 217.68C70.2584 215.847 68.5441 214.263 66.605 212.992C65.4313 212.216 61.5258 210.065 61.5258 210.065C61.5258 210.065 67.1852 209.673 69.1413 210.847C71.0973 212.021 76.3655 215.535 76.7567 213.97C77.1479 212.405 77.1479 211.434 75.1919 209.673C73.2359 207.913 69.3238 205.761 66.9962 205.377C65.3916 205.081 63.821 204.625 62.3082 204.014C62.3082 204.014 66.8006 202.449 68.3589 202.449C69.9172 202.449 76.183 205.572 77.9238 205.187C79.6647 204.803 78.7062 203.231 77.3435 202.253C75.9808 201.275 69.9237 198.935 67.3809 198.739C64.838 198.544 50.5916 203.427 48.8377 203.427C47.0838 203.427 42.5915 197.181 37.9036 188.783C33.2156 180.385 31.4617 167.306 21.5056 162.82" fill="#181F23"/>
<g opacity="0.2">
<path opacity="0.2" d="M6.35156 166.712C7.5969 164.828 6.61889 164.163 6.35156 164.163C6.61889 164.163 7.5969 164.828 6.35156 166.712Z" fill="#181F23"/>
<path opacity="0.2" d="M6.35156 179.812C6.61889 179.812 7.5969 180.464 6.35156 182.361C7.5969 180.477 6.61889 179.812 6.35156 179.812Z" fill="#181F23"/>
<path opacity="0.2" d="M22.0006 171.987C21.7333 171.987 20.7553 172.639 22.0006 174.537C23.246 172.652 22.2679 171.987 22.0006 171.987Z" fill="#181F23"/>
<path opacity="0.2" d="M9.23308 165.819C9.09616 165.584 8.02687 165.076 7.0293 167.123C9.28525 167.227 9.37 166.047 9.23308 165.819Z" fill="#181F23"/>
<path opacity="0.2" d="M9.01306 182.243C9.07817 182.173 9.13305 182.094 9.17607 182.009C9.23964 181.934 9.27847 181.841 9.28721 181.743C9.29595 181.645 9.27418 181.547 9.22489 181.462C9.1756 181.377 9.10119 181.309 9.0119 181.268C8.92261 181.227 8.8228 181.215 8.72618 181.233C8.44094 181.227 8.16317 181.324 7.94377 181.506C7.81091 181.612 7.68863 181.73 7.57865 181.859C7.44766 182.016 7.32989 182.184 7.22656 182.361H8.88266C8.929 182.325 8.97259 182.286 9.01306 182.243V182.243Z" fill="#181F23"/>
<path opacity="0.2" d="M24.8815 173.643C24.7446 173.408 23.6753 172.9 22.6777 174.947C24.9337 175.051 25.0119 173.871 24.8815 173.643Z" fill="#181F23"/>
<path opacity="0.2" d="M21.3225 174.928C20.3249 172.9 19.2556 173.409 19.1187 173.624C18.9818 173.839 19.0731 175.052 21.3225 174.928Z" fill="#181F23"/>
<path opacity="0.2" d="M6.35156 164.163V166.712C7.5969 164.828 6.61889 164.163 6.35156 164.163Z" fill="#181F23"/>
<path opacity="0.2" d="M6.35156 179.812V182.361C7.5969 180.477 6.61889 179.812 6.35156 179.812Z" fill="#181F23"/>
<path opacity="0.2" d="M37.6479 211.108C37.5323 211.132 37.4246 211.184 37.3346 211.261C37.2446 211.337 37.1752 211.435 37.1328 211.545L38.2347 212.353C38.3977 211.453 37.8435 211.108 37.6479 211.108Z" fill="#181F23"/>
<path opacity="0.2" d="M53.2971 218.932C53.1327 218.972 52.9857 219.064 52.8776 219.194C52.7696 219.325 52.7064 219.486 52.6973 219.655C53.0889 219.625 53.4785 219.572 53.8644 219.499C53.8332 219.36 53.7634 219.233 53.663 219.133C53.5625 219.033 53.4357 218.963 53.2971 218.932V218.932Z" fill="#181F23"/>
<path opacity="0.2" d="M37.6491 195.459C37.3817 195.459 36.4037 196.111 37.6491 198.009C38.8944 196.125 37.9164 195.459 37.6491 195.459Z" fill="#181F23"/>
<path opacity="0.2" d="M53.2965 205.833C54.5418 203.949 53.5638 203.284 53.2965 203.284C53.0291 203.284 52.0446 203.949 53.2965 205.833Z" fill="#181F23"/>
<path opacity="0.2" d="M22.0015 190.185C23.2469 188.3 22.2689 187.635 22.0015 187.635C21.7342 187.635 20.7497 188.3 22.0015 190.185Z" fill="#181F23"/>
<path opacity="0.2" d="M40.5301 212.764C40.4258 212.588 39.7999 212.255 39.0762 212.953C39.4283 213.213 39.7803 213.461 40.1259 213.702C40.2894 213.615 40.4184 213.474 40.4918 213.304C40.5652 213.133 40.5787 212.943 40.5301 212.764V212.764Z" fill="#181F23"/>
<path opacity="0.2" d="M38.3535 198.4C40.6029 198.524 40.6877 197.344 40.5573 197.096C40.4269 196.849 39.325 196.373 38.3535 198.4Z" fill="#181F23"/>
<path opacity="0.2" d="M54.002 206.224C56.2514 206.348 56.3361 205.168 56.2057 204.92C56.0753 204.672 54.9734 204.196 54.002 206.224Z" fill="#181F23"/>
<path opacity="0.2" d="M22.7051 190.576C24.961 190.7 25.0393 189.52 24.9089 189.272C24.7785 189.024 23.6766 188.548 22.7051 190.576Z" fill="#181F23"/>
<path opacity="0.2" d="M68.0385 214.055C67.4778 213.612 66.9627 213.253 66.5715 212.986L66.1151 212.699L66.0629 212.764C65.9325 212.986 66.0173 214.087 68.0385 214.055Z" fill="#181F23"/>
<path opacity="0.2" d="M36.9709 198.4C35.9734 196.372 34.9041 196.881 34.7671 197.096C34.6302 197.311 34.7215 198.524 36.9709 198.4Z" fill="#181F23"/>
<path opacity="0.2" d="M50.4156 204.94C50.2787 205.168 50.3699 206.348 52.6194 206.244C51.6218 204.196 50.5525 204.705 50.4156 204.94Z" fill="#181F23"/>
<path opacity="0.2" d="M19.1184 189.292C18.988 189.52 19.0727 190.7 21.3221 190.596C20.3246 188.548 19.2553 189.057 19.1184 189.292Z" fill="#181F23"/>
<path opacity="0.2" d="M8.8953 182.361H7.2392C7.24107 182.374 7.24107 182.387 7.2392 182.4C7.18052 182.504 7.11532 182.622 7.05664 182.752C7.69653 182.844 8.34821 182.705 8.8953 182.361Z" fill="#181F23"/>
<path opacity="0.2" d="M6.35219 164.163C6.08486 164.163 5.10685 164.815 6.35219 166.712V164.163Z" fill="#181F23"/>
<path opacity="0.2" d="M6.35311 182.361V179.812C6.08578 179.812 5.10125 180.477 6.35311 182.361Z" fill="#181F23"/>
<path opacity="0.2" d="M5.67405 167.103C4.67648 165.076 3.60719 165.584 3.47027 165.799C3.33335 166.015 3.42463 167.227 5.67405 167.103Z" fill="#181F23"/>
<path opacity="0.2" d="M5.10022 181.858C4.99024 181.729 4.86795 181.611 4.73509 181.506L4.68945 181.474C4.89158 181.767 5.0937 182.067 5.34146 182.36H5.4849C5.37117 182.182 5.24248 182.014 5.10022 181.858V181.858Z" fill="#181F23"/>
<path opacity="0.2" d="M5.4911 182.4C5.48923 182.387 5.48923 182.374 5.4911 182.361H5.34766L5.63454 182.752H5.69974C5.61498 182.622 5.54978 182.504 5.4911 182.4Z" fill="#181F23"/>
</g>
<path d="M62.2765 204.027L62.112 203.555C61.9153 203.623 61.7817 203.807 61.7766 204.015C61.7715 204.223 61.8961 204.413 62.0892 204.491C63.6332 205.114 65.2363 205.58 66.874 205.882L66.874 205.882L66.8829 205.883C67.9666 206.062 69.4698 206.666 70.9666 207.464C72.457 208.257 73.887 209.213 74.8257 210.058C75.7784 210.916 76.1868 211.523 76.3435 212.051C76.4983 212.572 76.4322 213.093 76.2399 213.862C76.2389 213.866 76.2441 213.865 76.245 213.863C76.2455 213.863 76.2449 213.862 76.2419 213.862C76.2398 213.863 76.2367 213.863 76.2321 213.865C76.1641 213.884 76.0142 213.89 75.7527 213.832C75.2405 213.719 74.5327 213.416 73.733 213.004C72.5415 212.39 71.2484 211.591 70.2532 210.975C69.9191 210.768 69.6186 210.583 69.3668 210.431C68.7933 210.087 67.9951 209.88 67.1731 209.749C66.3383 209.616 65.4242 209.554 64.583 209.529C63.7401 209.504 62.9607 209.517 62.3926 209.535C62.1082 209.545 61.8761 209.555 61.7146 209.564C61.6807 209.566 61.6498 209.567 61.6223 209.569C61.5843 209.571 61.5525 209.573 61.5274 209.575L61.4777 209.578L61.4646 209.579L61.4611 209.579L61.4601 209.579L61.4598 209.579C61.4597 209.579 61.4597 209.579 61.4622 209.616C61.4656 209.665 61.4732 209.776 61.4908 210.031L61.4596 209.579C61.2383 209.594 61.0536 209.753 61.0058 209.97C60.958 210.186 61.0586 210.409 61.2528 210.516L61.4941 210.078L61.2528 210.516L61.2529 210.516L61.2535 210.516L61.2555 210.517L61.2639 210.522L61.2966 210.54L61.4221 210.609C61.5309 210.669 61.6877 210.756 61.8796 210.863C62.2634 211.076 62.7872 211.369 63.3475 211.686C64.4753 212.323 65.7282 213.046 66.2975 213.422L66.2992 213.423C68.1909 214.663 69.8634 216.208 71.2482 217.996C71.6786 218.569 71.9925 219.046 72.2054 219.44C72.4216 219.84 72.5184 220.126 72.5437 220.32C72.5675 220.501 72.5248 220.556 72.5088 220.574C72.4789 220.608 72.3889 220.675 72.1504 220.714C72.0217 220.736 71.7659 220.691 71.3576 220.487C70.97 220.294 70.5224 219.997 70.0452 219.64C69.2311 219.029 68.3812 218.278 67.6574 217.638C67.5324 217.527 67.4112 217.42 67.2945 217.318C66.843 216.921 66.2348 216.601 65.6086 216.345C64.9763 216.085 64.2938 215.877 63.6703 215.715C63.0456 215.553 62.472 215.435 62.0549 215.358C61.8461 215.319 61.6759 215.29 61.5572 215.271C61.4979 215.262 61.4514 215.254 61.4194 215.25L61.3825 215.244L61.3726 215.243L61.3698 215.242L61.369 215.242L61.3687 215.242C61.3686 215.242 61.3685 215.242 61.2985 215.737L61.3685 215.242C61.1493 215.211 60.9359 215.328 60.8438 215.529C60.7517 215.73 60.8029 215.968 60.9696 216.114C61.809 216.847 62.5671 217.667 63.2309 218.562C63.4604 218.901 63.8878 219.338 64.3285 219.787L64.3898 219.85C64.8374 220.306 65.329 220.807 65.7703 221.329C66.2348 221.877 66.6173 222.418 66.8291 222.916C67.0402 223.413 67.0536 223.796 66.9016 224.101C66.8998 224.105 66.8983 224.107 66.8972 224.109C66.8841 224.114 66.8365 224.125 66.7335 224.111C66.5061 224.081 66.1651 223.951 65.7178 223.703C64.8374 223.214 63.7265 222.374 62.6205 221.45C61.5206 220.532 60.4485 219.552 59.65 218.799C59.2511 218.423 58.9213 218.105 58.6915 217.881C58.5765 217.769 58.4866 217.681 58.4256 217.62L58.3563 217.552L58.3388 217.534L58.3344 217.53L58.3334 217.529L58.3332 217.529L57.9797 217.882L58.3332 217.529C58.1622 217.358 57.8935 217.334 57.6949 217.471L57.6946 217.472L57.6937 217.472L57.6854 217.478C57.6822 217.48 57.6782 217.483 57.6735 217.486C57.6665 217.49 57.658 217.496 57.6478 217.503C57.6134 217.525 57.5607 217.559 57.4909 217.602C57.3513 217.687 57.1437 217.808 56.8779 217.946C56.3455 218.221 55.5844 218.561 54.6725 218.819C52.8473 219.335 50.4535 219.512 48.0653 218.225C43.036 215.513 30.9688 206.975 18.1006 195.253L18.1006 195.253L18.0955 195.248C14.5429 192.101 11.2095 188.714 8.11862 185.113C9.52643 182.201 11.6999 178.828 15.1706 176.374C18.7006 173.878 23.6158 172.303 30.5364 173.192C31.7559 175.606 32.7711 178.193 33.7758 180.752C33.8301 180.89 33.8843 181.028 33.9386 181.166C35.0247 183.931 36.1121 186.655 37.4352 189.02C39.785 193.23 42.0916 196.911 44.0369 199.545C45.0083 200.86 45.8996 201.928 46.6692 202.673C47.0536 203.045 47.4194 203.347 47.7601 203.56C48.0915 203.767 48.4493 203.921 48.806 203.921C49.0937 203.921 49.5657 203.828 50.1172 203.698C50.6896 203.562 51.4077 203.37 52.2207 203.142C53.3597 202.823 54.6979 202.43 56.1005 202.017C56.6994 201.841 57.31 201.662 57.9218 201.483C59.971 200.885 62.0367 200.296 63.7469 199.868C64.6023 199.654 65.3622 199.482 65.983 199.37C66.6179 199.256 67.0628 199.212 67.3107 199.231C68.5062 199.323 70.5965 199.936 72.5987 200.669C73.59 201.031 74.5429 201.418 75.3299 201.772C76.127 202.13 76.722 202.442 77.0214 202.654C77.6669 203.118 78.1488 203.683 78.2922 204.107C78.3594 204.305 78.3312 204.404 78.3009 204.454C78.266 204.511 78.1498 204.632 77.7842 204.712C77.6538 204.741 77.4356 204.744 77.1157 204.698C76.8044 204.654 76.4337 204.57 76.0165 204.453C75.1818 204.221 74.2038 203.873 73.2147 203.507C72.9368 203.404 72.6576 203.299 72.3811 203.196C71.682 202.934 70.9995 202.679 70.3969 202.471C69.9749 202.326 69.582 202.201 69.2405 202.112C68.9082 202.025 68.5887 201.962 68.3271 201.962C67.8764 201.962 67.2557 202.072 66.6126 202.219C65.958 202.369 65.2392 202.568 64.5751 202.765C63.9101 202.963 63.295 203.16 62.8464 203.308C62.6219 203.382 62.4388 203.443 62.3116 203.486C62.248 203.508 62.1984 203.525 62.1645 203.537L62.1257 203.55L62.1157 203.554L62.113 203.555L62.1123 203.555L62.1121 203.555C62.112 203.555 62.112 203.555 62.2765 204.027Z" fill="white" stroke="#181F23" stroke-linecap="round" stroke-linejoin="round"/>
<path d="M141.147 159.599C139.517 155.876 140.913 147.726 142.543 136.088C144.173 124.45 145.803 112.576 145.803 106.291C145.803 100.006 146.839 91.2949 144.792 88.4847C142.745 85.6746 135.292 78.0526 134.738 74.5187C134.184 70.9849 139.204 65.5797 139.204 65.5797C139.204 65.5797 140.697 62.7826 142.001 64.2757C143.305 65.7688 142.745 67.627 142.001 70.235C141.258 72.8431 140.508 74.8904 140.508 74.8904C140.508 74.8904 147.028 76.9377 148.704 75.8228C150.38 74.7078 150.23 68.3312 150.112 65.2081C149.871 59.1183 147.433 61.7198 145.744 64.6017C144.929 65.9839 140.156 65.1624 142.947 61.622C145.737 58.0816 148.332 54.9585 150.94 57.7556C153.548 60.5527 155.407 65.9513 155.407 65.9513C155.407 65.9513 157.271 57.0775 158.967 51.8615C160.662 46.6454 163.7 44.5785 164.796 44.9436C165.891 45.3088 165.767 47.1279 164.672 49.6772C163.576 52.2266 161.151 59.2617 160.545 61.5699C159.938 63.878 159.821 66.5447 161.034 66.3034C162.246 66.0622 166.491 58.6554 167.71 55.4997C168.929 52.3439 170.742 49.436 172.802 48.0994C174.863 46.7627 176.564 48.4645 175.717 50.6487C174.033 54.5987 172.122 58.4477 169.992 62.1762C168.654 64.586 167.517 67.1027 166.595 69.7004C168.594 67.5706 170.701 65.5446 172.907 63.6302C175.821 61.2047 178.977 60.7222 179.942 61.5699C180.907 62.4175 180.066 62.5413 177.64 64.4843C175.215 66.4273 171.59 68.7419 168.688 73.4625C166.441 76.9239 164.686 80.6805 163.472 84.6249C162.57 87.214 161.39 89.6975 159.951 92.0317C159.951 92.0317 162.227 110.51 166.171 120.674C170.116 130.839 177.092 145.705 174.967 156.326C172.841 166.947 168.747 172.405 162.983 174.074C161.312 174.562 159.55 174.651 157.838 174.336C156.126 174.02 154.512 173.307 153.125 172.255" fill="#181F23"/>
<path d="M139.552 65.9205C139.581 65.889 139.606 65.8539 139.626 65.8159M139.552 65.9205L139.626 65.8159M139.552 65.9205L139.551 65.921L139.549 65.9234L139.539 65.9339L139.5 65.9774C139.464 66.0161 139.412 66.0741 139.346 66.1495C139.213 66.3004 139.022 66.5207 138.795 66.7966C138.34 67.3489 137.74 68.1201 137.159 68.9977C136.577 69.8773 136.021 70.8514 135.646 71.8105C135.269 72.7769 135.093 73.6811 135.213 74.4406C135.336 75.2149 135.855 76.2802 136.659 77.5307C137.454 78.7649 138.488 80.1214 139.577 81.4658C140.57 82.6907 141.602 83.8968 142.531 84.9837C142.621 85.0888 142.71 85.1928 142.798 85.2956C143.788 86.454 144.651 87.4716 145.177 88.1895C145.763 88.9902 146.096 90.1602 146.29 91.4912C146.486 92.8361 146.548 94.4133 146.546 96.0804C146.545 97.7493 146.479 99.5257 146.414 101.269L146.413 101.299C146.348 103.037 146.284 104.74 146.284 106.291C146.284 112.615 144.649 124.517 143.023 136.127M139.552 65.9205L143.023 136.127M139.626 65.8159L139.627 65.8157L139.627 65.8157M139.626 65.8159L139.627 65.8157M143.023 136.127C143.021 136.221 143.008 136.306 142.996 136.375C145.557 138.992 150.639 142.611 159.14 142.324C164.78 142.132 168.816 139.357 171.598 136.223C170.328 132.475 168.853 128.818 167.492 125.442C166.85 123.848 166.232 122.317 165.673 120.867C163.682 115.737 162.121 108.536 161.058 102.643C160.526 99.6912 160.117 97.0581 159.842 95.1628C159.704 94.215 159.6 93.4515 159.529 92.9246C159.494 92.6612 159.468 92.4569 159.45 92.3183L159.43 92.1604L159.425 92.1199L159.424 92.1096L159.423 92.1069L159.423 92.1062C159.423 92.106 159.423 92.1059 159.92 92.0448L159.423 92.1059C159.409 91.9932 159.434 91.8792 159.494 91.7825C160.912 89.4817 162.076 87.0337 162.965 84.4817C164.201 80.492 165.985 76.6933 168.267 73.1949C170.774 69.1247 173.826 66.8003 176.152 65.0284C176.583 64.7004 176.989 64.3914 177.362 64.0937C177.946 63.6273 178.439 63.2641 178.833 62.9741L178.895 62.9287C179.31 62.6229 179.579 62.4213 179.745 62.2601C179.796 62.2106 179.827 62.1748 179.845 62.1509C179.819 62.1156 179.762 62.049 179.644 61.9445C179.519 61.8336 179.265 61.7237 178.844 61.6918C178.433 61.6607 177.911 61.7085 177.312 61.8579C176.117 62.1559 174.666 62.8451 173.264 64.0113C171.072 65.9135 168.979 67.9266 166.993 70.0427C166.832 70.215 166.571 70.2505 166.369 70.1279C166.167 70.0052 166.079 69.7579 166.157 69.5349C167.078 66.9121 168.214 64.3702 169.555 61.9352L169.559 61.9289L169.559 61.929C171.671 58.2191 173.566 54.39 175.235 50.4609C175.601 49.5106 175.381 48.7701 174.994 48.4106C174.629 48.0723 173.953 47.9271 173.059 48.5169C171.123 49.7935 169.358 52.5571 168.158 55.6791C167.537 57.2959 166.154 59.9648 164.782 62.2518C164.094 63.3975 163.401 64.4614 162.798 65.259C162.497 65.6567 162.211 65.9994 161.952 66.2552C161.822 66.3831 161.691 66.4974 161.562 66.5874C161.439 66.6735 161.285 66.7596 161.112 66.7939C160.871 66.842 160.626 66.8228 160.402 66.7131C160.181 66.6056 160.023 66.432 159.912 66.2447C159.699 65.8858 159.613 65.4032 159.589 64.9154C159.539 63.9194 159.732 62.6208 160.042 61.4426C160.655 59.1156 163.096 52.0509 164.193 49.4809C164.728 48.2281 165.004 47.2019 165.032 46.4726C165.046 46.109 164.996 45.8566 164.919 45.6937C164.849 45.5463 164.753 45.4631 164.618 45.4178C164.53 45.3883 164.284 45.3841 163.863 45.5868C163.462 45.7796 162.972 46.1277 162.448 46.6586C161.402 47.7179 160.254 49.4681 159.423 52.0165C158.579 54.6067 157.693 58.112 157.017 60.9798C156.679 62.4116 156.394 63.6807 156.193 64.5917C156.093 65.0472 156.014 65.4131 155.96 65.665C155.933 65.7909 155.912 65.8883 155.899 65.9542L155.883 66.0289L155.879 66.0478L155.878 66.0525L155.878 66.0537L155.877 66.0539L155.388 65.9515L155.877 66.054C155.831 66.2742 155.644 66.4365 155.419 66.4505C155.195 66.4645 154.988 66.3268 154.915 66.114L154.915 66.1135L154.914 66.1111L154.911 66.1005L154.895 66.0568C154.881 66.018 154.861 65.9601 154.833 65.8851C154.779 65.735 154.697 65.5165 154.591 65.2452C154.379 64.7023 154.069 63.9494 153.68 63.1109C152.894 61.4218 151.804 59.4324 150.557 58.0971C149.966 57.4652 149.425 57.2175 148.929 57.1835C148.423 57.1488 147.874 57.33 147.264 57.7323C146.02 58.5512 144.726 60.1412 143.322 61.9307C142.666 62.7658 142.528 63.3498 142.572 63.7162C142.613 64.0602 142.831 64.3276 143.195 64.5116C143.568 64.6998 144.051 64.7725 144.483 64.7208C144.933 64.667 145.201 64.4989 145.297 64.3446C145.726 63.6119 146.211 62.8839 146.705 62.301C147.183 61.7378 147.735 61.2299 148.312 61.0608C148.622 60.9698 148.959 60.9718 149.278 61.1351C149.587 61.293 149.819 61.5706 149.992 61.9122C150.333 62.5811 150.533 63.6522 150.593 65.1884L150.593 65.1894C150.652 66.7516 150.72 69.1495 150.561 71.3031C150.481 72.3783 150.343 73.4137 150.111 74.2623C149.888 75.0804 149.545 75.8496 148.964 76.2384C148.668 76.4359 148.302 76.5425 147.927 76.5992C147.546 76.6567 147.12 76.6681 146.677 76.6499C145.792 76.6135 144.791 76.4562 143.86 76.2672C142.926 76.0776 142.047 75.8529 141.402 75.676C141.08 75.5875 140.815 75.5106 140.631 75.4558C140.538 75.4284 140.466 75.4065 140.417 75.3913L140.36 75.3738L140.345 75.3691L140.341 75.3679L140.34 75.3675L140.34 75.3674C140.34 75.3674 140.339 75.3674 140.49 74.8905L140.339 75.3674C140.209 75.3264 140.102 75.2341 140.041 75.1119C139.981 74.9896 139.973 74.848 140.02 74.7198M143.023 136.127L140.02 74.7198M140.02 74.7198L140.02 74.7198L140.02 74.7196L140.02 74.7187L140.022 74.7145L140.028 74.6975L140.052 74.6294C140.074 74.5692 140.105 74.4801 140.146 74.3647C140.226 74.1341 140.342 73.799 140.481 73.3826C140.759 72.5495 141.13 71.3926 141.502 70.097L141.513 70.0584C141.889 68.7535 142.19 67.7045 142.254 66.7996C142.317 65.9167 142.149 65.2229 141.607 64.6055C141.377 64.3432 141.204 64.3251 141.076 64.3459C140.9 64.3745 140.681 64.5024 140.44 64.732C140.209 64.9533 140.004 65.2232 139.854 65.4461C139.78 65.5559 139.722 65.6506 139.683 65.7172C139.663 65.7503 139.648 65.7763 139.639 65.7933L139.629 65.8119L139.627 65.8157M140.02 74.7198L139.627 65.8157M179.869 62.1133C179.869 62.1133 179.869 62.1141 179.868 62.1156C179.869 62.1141 179.869 62.1133 179.869 62.1133Z" fill="white" stroke="#181F23" stroke-linecap="round" stroke-linejoin="round"/>
<path d="M150.837 91.3009C150.837 91.3009 149.748 86.6912 151.326 83.7767C152.156 82.1196 153.523 80.7932 155.205 80.0146" stroke="#181F23" stroke-linecap="round" stroke-linejoin="round"/>
<circle cx="87.4214" cy="156.208" r="2.2378" fill="white"/>
<path d="M75.3299 164.429C74.2396 162.87 73.4763 161.124 73.0825 159.286M84.3434 170.537C81.9589 170.02 79.743 168.918 77.8985 167.333L81.36 163.786C83.039 165.145 85.129 165.905 87.2955 165.946C89.462 165.987 91.5797 165.306 93.3095 164.011M78.5987 160.572C77.9738 159.326 77.6271 157.958 77.5826 156.565C77.538 155.171 77.7967 153.785 78.3408 152.501C78.8848 151.217 79.7012 150.067 80.7335 149.13C81.7659 148.192 82.9895 147.49 84.32 147.071M95.5646 161.597C96.5739 160.051 97.1109 158.242 97.1098 156.393H101.978C101.979 159.327 101.088 162.191 99.4243 164.603C97.7606 167.015 95.4035 168.861 92.6675 169.894M96.1992 152.593C95.4987 150.775 94.2798 149.215 92.701 148.115C91.1222 147.016 89.2566 146.428 87.3468 146.428V151.42C88.4514 151.421 89.5193 151.826 90.3577 152.562C91.1962 153.297 91.7499 154.315 91.9188 155.432C92.0878 156.549 91.861 157.691 91.2792 158.651C90.6975 159.612 89.7992 160.328 88.7465 160.67C87.6939 161.013 86.5563 160.959 85.5392 160.518C84.522 160.078 83.6923 159.28 83.1999 158.268C82.7076 157.256 82.585 156.098 82.8542 155.002C83.1235 153.906 83.7669 152.945 84.6683 152.292M95.8776 144.5C98.4749 146.33 100.39 148.923 101.336 151.893M72.7617 156.393C72.763 154.021 73.3286 151.684 74.411 149.58C75.4933 147.475 77.0606 145.664 78.9807 144.299C80.9007 142.935 83.1173 142.057 85.4435 141.74C87.7697 141.423 90.1372 141.675 92.3465 142.476" stroke="white" stroke-linecap="round" stroke-linejoin="round"/>
</svg>
