<svg width="153" height="442" viewBox="0 0 153 442" fill="none" xmlns="http://www.w3.org/2000/svg">
<path d="M113.635 43.5676C113.635 43.5676 113.635 34.0903 100.362 20.8407C87.0898 7.59096 78.5787 0 78.5787 0C78.5787 0 71.9309 21.7838 84.2604 35.0565C93.3169 44.406 103.143 52.978 113.635 60.6818V43.5676Z" fill="white"/>
<path d="M94.3801 102.754C94.3801 102.754 94.3802 93.2769 81.1075 80.0042C67.8348 66.7315 59.3237 59.1635 59.3237 59.1635C59.3237 59.1635 52.6988 80.9473 65.0054 94.22C74.0729 103.565 83.898 112.144 94.3801 119.868V102.754Z" fill="white"/>
<path d="M112.783 59.7156C112.783 59.7156 113.795 50.2844 128.378 38.4839C142.962 26.6834 152.256 20.0815 152.256 20.0815C152.256 20.0815 156.534 42.5094 142.893 54.3329C132.899 62.6537 122.227 70.1249 110.988 76.6688L112.783 59.7156Z" fill="white"/>
<path d="M89.5273 129.599C89.5273 129.599 91.5286 120.397 107.263 110.138C122.997 99.8788 132.911 94.3121 132.911 94.3121C132.911 94.3121 134.82 117.016 120.075 127.413C109.268 134.637 97.8717 140.939 86.0078 146.253L89.5273 129.599Z" fill="white"/>
<path d="M93.9258 205.761C93.9258 205.761 93.9258 196.284 107.175 183.034C120.425 169.785 128.959 162.194 128.959 162.194C128.959 162.194 135.607 184.001 123.278 197.25C114.235 206.613 104.416 215.193 93.9258 222.898V205.761Z" fill="white"/>
<path d="M93.6925 224.371C93.6925 224.371 95.0266 214.985 83.7781 199.988C72.5297 184.99 65.1918 176.249 65.1918 176.249C65.1918 176.249 55.5766 196.951 65.8589 211.765C73.5027 222.287 82.0127 232.151 91.3001 241.255L93.6925 224.371Z" fill="white"/>
<path d="M80.6016 279.463C80.6016 279.463 80.6015 270.008 93.8742 256.736C107.147 243.463 115.658 236.033 115.658 236.033C115.658 236.033 122.306 257.817 109.976 271.067C100.921 280.424 91.0946 289.004 80.6016 296.715V279.463Z" fill="white"/>
<path d="M89.4551 329.448C89.4551 329.448 87.1549 320.247 96.5631 304.145C105.971 288.043 112.366 278.497 112.366 278.497C112.366 278.497 124.282 297.911 115.748 313.852C109.345 325.181 102.005 335.954 93.8027 346.056L89.4551 329.448Z" fill="white"/>
<path d="M114.828 41.2212C114.159 51.0799 112.945 60.894 111.194 70.619C105.949 97.7164 92.7916 115.199 87.593 139.628C82.3943 164.057 97.4153 195.64 93.3898 227.039C89.3642 258.438 77.1036 275.943 80.5541 296.922C84.0045 317.901 102.407 374.672 102.407 374.672" stroke="white" stroke-width="1.17749" stroke-linecap="round" stroke-linejoin="round"/>
<path d="M112.672 66.0184L126.957 55.023" stroke="#181F23" stroke-width="1.17749" stroke-linecap="round" stroke-linejoin="round"/>
<path d="M113.317 53.3899L107.359 42.7395" stroke="#181F23" stroke-width="1.17749" stroke-linecap="round" stroke-linejoin="round"/>
<path d="M88.3984 138.524C88.3984 138.524 100.36 129.53 112.667 120.558" stroke="#181F23" stroke-width="1.17749" stroke-linecap="round" stroke-linejoin="round"/>
<path d="M94.3832 119.753C94.3832 119.753 84.3999 100.201 73.1055 87.2271" stroke="#181F23" stroke-width="1.17749" stroke-linecap="round" stroke-linejoin="round"/>
<path d="M94.3867 219.241C101.24 206.654 109.879 195.125 120.035 185.013" stroke="#181F23" stroke-width="1.17749" stroke-linecap="round" stroke-linejoin="round"/>
<path d="M92.0551 232.537C88.3866 223.978 84.0165 215.738 78.9894 207.901C72.0885 197.595 70.9844 196.261 70.9844 196.261" stroke="#181F23" stroke-width="1.17749" stroke-linecap="round" stroke-linejoin="round"/>
<path d="M80.6016 296.899C83.6392 289.367 87.2458 282.077 91.3899 275.092C95.5279 268.589 100.19 262.434 105.33 256.69" stroke="#181F23" stroke-width="1.17749" stroke-linecap="round" stroke-linejoin="round"/>
<path d="M93.7775 345.941C93.0835 338.753 94.3223 331.511 97.3659 324.962C102.358 315.324 107.993 302.673 110.34 297.704" stroke="#181F23" stroke-width="1.17749" stroke-linecap="round" stroke-linejoin="round"/>
<path d="M26.782 170.13C26.782 170.13 25.7469 164.218 32.6247 154.442C39.5026 144.665 44.1262 138.984 44.1262 138.984C44.1262 138.984 50.636 151.911 44.3562 161.573C39.6908 168.41 34.4583 174.843 28.7143 180.803L26.782 170.13Z" fill="white"/>
<path d="M45.2742 205.232C45.2742 205.232 44.239 199.274 51.1169 189.521C57.9948 179.768 62.6184 174.086 62.6184 174.086C62.6184 174.086 69.1282 187.037 62.8484 196.675C58.1888 203.517 52.9559 209.95 47.2064 215.906L45.2742 205.232Z" fill="white"/>
<path d="M29.0533 180.159C29.0533 180.159 27.4431 174.362 16.9768 168.658C6.51044 162.953 0.000602215 159.686 0.000602215 159.686C0.000602215 159.686 -0.252447 174.109 9.61581 180.159C16.7831 184.293 24.2855 187.818 32.0437 190.694L29.0533 180.159Z" fill="white"/>
<path d="M51.2332 221.449C51.2332 221.449 48.9329 215.86 37.9835 211.19C27.0341 206.52 20.1562 204.059 20.1562 204.059C20.1562 204.059 21.4214 218.482 31.8417 223.405C39.4073 226.759 47.2403 229.476 55.2587 231.525L51.2332 221.449Z" fill="white"/>
<path d="M56.7501 269.64C56.7501 269.64 55.715 263.706 45.9617 256.828C36.2085 249.95 30.0207 246.108 30.0207 246.108C30.0207 246.108 28.2265 260.531 37.4046 267.478C44.0936 272.337 51.1807 276.623 58.5903 280.291L56.7501 269.64Z" fill="white"/>
<path d="M58.8829 281.349C58.8829 281.349 57.0197 275.621 62.4484 264.994C67.877 254.366 71.6495 248.087 71.6495 248.087C71.6495 248.087 79.9306 259.956 75.1 270.423C71.4163 277.85 67.1231 284.959 62.2644 291.677L58.8829 281.349Z" fill="white"/>
<path d="M75.5395 329.264C75.5395 329.264 76.2295 323.283 85.5687 315.853C94.9079 308.423 100.866 304.352 100.866 304.352C100.866 304.352 103.488 318.614 94.7239 326.113C88.3232 331.347 81.4985 336.04 74.3203 340.144L75.5395 329.264Z" fill="white"/>
<path d="M73.0791 314.496C73.0791 314.496 72.044 308.538 62.2907 301.661C52.5375 294.783 46.3727 290.964 46.3727 290.964C46.3727 290.964 44.5785 305.387 53.7336 312.334C60.4328 317.19 67.5272 321.476 74.9424 325.147L73.0791 314.496Z" fill="white"/>
<path d="M72.9484 346.792C72.9484 346.792 73.4774 340.765 65.7715 331.656C58.0655 322.547 53.0739 317.233 53.0739 317.233C53.0739 317.233 47.6912 330.69 54.7991 339.776C60.049 346.184 65.8193 352.147 72.0513 357.604L72.9484 346.792Z" fill="white"/>
<path d="M25.7461 168.75C27.2433 174.866 29.0786 180.894 31.2438 186.807C37.4546 203.208 47.5759 212.754 53.5107 227.522C59.4454 242.29 53.5106 263.706 59.3764 282.959C65.2421 302.213 74.9034 311.805 74.9724 325.399C75.0414 338.994 69.7967 376.558 69.7967 376.558" stroke="white" stroke-width="1.17749" stroke-linecap="round" stroke-linejoin="round"/>
<path d="M29.8123 184.093L19.668 178.779" stroke="#181F23" stroke-width="1.17749" stroke-linecap="round" stroke-linejoin="round"/>
<path d="M28.0156 176.249L30.615 168.934" stroke="#181F23" stroke-width="1.17749" stroke-linecap="round" stroke-linejoin="round"/>
<path d="M52.9024 226.901C52.9024 226.901 44.4143 222.576 35.7422 218.275" stroke="#181F23" stroke-width="1.17749" stroke-linecap="round" stroke-linejoin="round"/>
<path d="M47.1133 215.906C49.6083 208.031 52.8994 200.432 56.9355 193.225" stroke="#181F23" stroke-width="1.17749" stroke-linecap="round" stroke-linejoin="round"/>
<path d="M57.9271 278.198C52.2668 271.051 45.6038 264.76 38.1445 259.519" stroke="#181F23" stroke-width="1.17749" stroke-linecap="round" stroke-linejoin="round"/>
<path d="M60.8242 286.295C62.1677 280.547 63.9913 274.922 66.2759 269.479C69.4733 262.233 70.0254 261.29 70.0254 261.29" stroke="#181F23" stroke-width="1.17749" stroke-linecap="round" stroke-linejoin="round"/>
<path d="M74.5273 335.659C77.819 331.57 81.4678 327.783 85.4307 324.341C87.9544 322.472 90.3237 320.403 92.5157 318.154" stroke="#181F23" stroke-width="1.17749" stroke-linecap="round" stroke-linejoin="round"/>
<path d="M74.9748 325.4C72.2255 321.011 69.1497 316.836 65.7737 312.909C62.4704 309.302 58.8776 305.97 55.0312 302.949" stroke="#181F23" stroke-width="1.17749" stroke-linecap="round" stroke-linejoin="round"/>
<path d="M72.0904 357.604C71.7245 352.999 70.1363 348.576 67.4898 344.791C63.3032 339.27 58.2886 331.955 56.4023 329.08" stroke="#181F23" stroke-width="1.17749" stroke-linecap="round" stroke-linejoin="round"/>
<path d="M43.1081 370.502H128.737L120.138 436.784L120.135 436.81L120.134 436.837C120.109 437.879 119.688 438.872 118.957 439.614C118.228 440.355 117.245 440.791 116.207 440.834H55.8118H55.8116C54.7416 440.835 53.7138 440.417 52.9477 439.67C52.1816 438.923 51.7378 437.906 51.7111 436.836L51.7104 436.81L51.7071 436.784L43.1081 370.502Z" fill="#181F23" stroke="white"/>
<path d="M128.616 380.797H128.615L42.6296 380.797L42.6279 380.797C40.9706 380.802 39.3786 380.151 38.2007 378.985C37.0241 377.82 36.3566 376.237 36.3438 374.582C36.3725 372.927 37.0414 371.348 38.21 370.175C39.3787 369.002 40.9564 368.328 42.6117 368.294L128.615 368.294L128.616 368.294C129.441 368.291 130.257 368.451 131.02 368.765C131.782 369.078 132.475 369.539 133.059 370.121C133.642 370.703 134.106 371.394 134.422 372.155C134.738 372.916 134.9 373.731 134.9 374.555C134.898 375.378 134.733 376.191 134.416 376.95C134.098 377.709 133.635 378.398 133.051 378.977C132.468 379.557 131.776 380.016 131.015 380.328C130.254 380.64 129.439 380.8 128.616 380.797Z" fill="#181F23" stroke="white"/>
</svg>
