<svg width="262" height="377" viewBox="0 0 262 377" fill="none" xmlns="http://www.w3.org/2000/svg">
<path d="M5.25803 146.666C5.25803 146.666 0.257086 141.88 1.09456 145.828C1.93203 149.776 7.19612 153.868 9.68461 155.806C12.1731 157.744 18.0115 156.643 18.0115 156.643L5.25803 146.666Z" fill="white" stroke="#181F23" stroke-linecap="round" stroke-linejoin="round"/>
<path d="M59.0701 157.193C59.0701 157.193 52.4185 148.316 48.5185 144.153C44.6184 139.99 39.5939 136.975 35.4546 137.214C31.3153 137.454 26.195 138.698 22.8692 138.698C19.5434 138.698 16.1937 136.473 15.6913 138.698C15.1888 140.923 16.2177 141.091 18.9931 142.287C21.7686 143.483 27.6306 145.086 27.6306 145.086C27.6306 145.086 20.2851 147.479 18.06 148.603C15.8348 149.728 11.1213 147.479 11.1213 147.479C11.1213 147.479 3.08203 141.115 3.08203 144.44C3.08203 147.766 8.633 151.929 11.6956 154.154C14.7582 156.38 15.8588 158.294 19.9981 157.48C24.1374 156.667 41.3645 152.192 41.3645 152.192L50.5283 163.031L59.0701 157.193Z" fill="white" stroke="#181F23" stroke-linecap="round" stroke-linejoin="round"/>
<path d="M24.3988 155.805C24.3988 155.805 18.8479 157.48 16.6227 155.805C14.3975 154.131 6.6453 147.479 5.80787 143.316C4.97044 139.153 19.6853 151.092 19.6853 151.092C19.6853 151.092 31.6485 145.541 34.3761 144.703C35.2397 144.489 36.1414 144.479 37.0095 144.674C37.8777 144.869 38.6882 145.264 39.3768 145.828" fill="white"/>
<path d="M24.3988 155.805C24.3988 155.805 18.8479 157.48 16.6227 155.805C14.3975 154.131 6.6453 147.479 5.80787 143.316C4.97044 139.153 19.6853 151.092 19.6853 151.092C19.6853 151.092 31.6485 145.541 34.3761 144.703C35.2397 144.489 36.1414 144.479 37.0095 144.674C37.8777 144.869 38.6882 145.264 39.3768 145.828" stroke="#181F23" stroke-linecap="round" stroke-linejoin="round"/>
<path d="M141.451 118.097C141.451 118.097 113.146 125.849 112.596 128.625C112.046 131.4 92.6412 192.7 90.6792 193.801C88.7173 194.901 87.6406 194.088 87.6406 194.088L58.522 154.202L42.1562 165.567C47.3034 176.91 53.1364 187.928 59.6227 198.562C70.4374 216.316 89.3154 229.667 93.4547 228.255C97.594 226.843 125.636 182.196 125.636 182.196C125.636 182.196 135.063 199.95 132.814 205.237C131.167 209.413 128.927 213.33 126.162 216.866C124.775 218.254 100.106 247.97 100.657 280.941C101.207 313.912 124.583 375.81 124.583 375.81H194.76C194.76 375.81 211.389 336.977 212.489 304.245C213.59 271.514 207.225 240.17 203.062 228.255C198.899 216.339 195.884 205.237 195.884 205.237L206.986 174.707C206.986 174.707 234.167 211.339 239.43 212.726C244.694 214.114 256.059 211.052 256.346 200.763C256.634 190.475 226.869 147.024 223.83 137.454C220.792 127.883 219.93 125.251 215.791 124.151C211.652 123.05 189.161 118.049 180.547 116.973C170.697 115.879 160.787 115.416 150.878 115.585C147.566 115.552 144.308 116.42 141.451 118.097Z" fill="#181F23" stroke="white" stroke-linecap="round" stroke-linejoin="round"/>
<path d="M155.059 356.381C155.059 356.381 156.829 296.087 174.559 267.71" stroke="#181F23" stroke-linecap="round" stroke-linejoin="round"/>
<path d="M154.195 111.422C149.869 111.593 147.709 112.084 143.794 113.934C142.519 114.504 139.566 116.483 138.902 118.916C136.453 127.89 148.964 148.485 151.276 153.867C156.755 166.62 163.239 176.334 167.642 173.009C172.044 169.683 187.07 136.664 189.176 127.237C191.281 117.81 189.75 117.26 185.587 113.934C182.331 110.95 178.039 109.353 173.624 109.484C169.125 109.484 154.195 111.422 154.195 111.422Z" fill="white" stroke="#181F23" stroke-linecap="round" stroke-linejoin="round"/>
<path fill-rule="evenodd" clip-rule="evenodd" d="M159.315 174.659H176.137V177.912H190.124V239.738H145.328V177.912H159.315V174.659Z" fill="white"/>
<path d="M176.137 174.659H176.637C176.637 174.383 176.413 174.159 176.137 174.159V174.659ZM159.315 174.659V174.159C159.039 174.159 158.815 174.383 158.815 174.659H159.315ZM176.137 177.912H175.637C175.637 178.188 175.861 178.412 176.137 178.412V177.912ZM190.124 177.912H190.624C190.624 177.636 190.4 177.412 190.124 177.412V177.912ZM190.124 239.738V240.238C190.4 240.238 190.624 240.014 190.624 239.738H190.124ZM145.328 239.738H144.828C144.828 240.014 145.052 240.238 145.328 240.238V239.738ZM145.328 177.912V177.412C145.052 177.412 144.828 177.636 144.828 177.912H145.328ZM159.315 177.912V178.412C159.592 178.412 159.815 178.188 159.815 177.912H159.315ZM176.137 174.159H159.315V175.159H176.137V174.159ZM176.637 177.912V174.659H175.637V177.912H176.637ZM190.124 177.412H176.137V178.412H190.124V177.412ZM190.624 239.738V177.912H189.624V239.738H190.624ZM145.328 240.238H190.124V239.238H145.328V240.238ZM144.828 177.912V239.738H145.828V177.912H144.828ZM159.315 177.412H145.328V178.412H159.315V177.412ZM158.815 174.659V177.912H159.815V174.659H158.815Z" fill="#181F23"/>
<path d="M182.426 208.998C182.398 208.793 182.246 208.626 182.044 208.579C178.205 207.682 174.442 206.486 170.789 205.004C166.943 202.689 163.767 199.412 161.574 195.494L161.574 195.494L161.572 195.49C160.432 193.505 159.441 192.537 157.97 192.14C157.264 191.949 156.476 191.897 155.561 191.887C155.092 191.883 154.56 191.89 153.977 191.898C153.446 191.905 152.872 191.913 152.261 191.913H141.71C140.981 191.913 140.317 192.308 140.156 193.079C140.008 193.789 140.33 194.638 141.064 195.51C141.071 195.519 141.078 195.527 141.086 195.535C142.268 196.765 143.807 197.592 145.484 197.899C145.928 198.048 146.681 198.255 147.315 198.423C147.644 198.51 147.947 198.589 148.168 198.645C148.278 198.673 148.368 198.696 148.43 198.712L148.502 198.73L148.508 198.731L148.652 198.779C147.693 198.871 146.541 199.001 145.361 199.18C143.876 199.406 142.327 199.713 141.054 200.127C140.417 200.334 139.833 200.572 139.355 200.85C138.884 201.123 138.471 201.459 138.234 201.884C137.484 203.229 137.256 204.805 137.481 206.132C137.703 207.439 138.4 208.646 139.635 208.996C140.125 209.135 140.474 209.235 140.739 209.324C141.006 209.415 141.149 209.483 141.24 209.546C141.395 209.652 141.46 209.77 141.702 210.357C141.787 210.563 141.855 210.901 141.909 211.369C141.96 211.806 141.994 212.311 142.031 212.858L142.036 212.937C142.113 214.068 142.205 215.375 142.497 216.404L142.497 216.404L142.498 216.408C142.748 217.258 143.172 218.046 143.745 218.722C144.312 219.391 145.013 219.936 145.801 220.32C145.895 220.377 145.989 220.437 146.085 220.497C146.677 220.871 147.367 221.307 148.76 221.649C150.365 222.044 152.907 222.319 157.406 222.319C161.915 222.319 166.444 221.97 170.012 221.622C171.567 221.471 172.942 221.319 174.053 221.197C174.218 221.179 174.376 221.161 174.529 221.145C175.733 221.013 176.522 220.931 176.834 220.931H183.485C183.63 220.931 183.767 220.868 183.862 220.76C183.957 220.651 184 220.506 183.981 220.363L182.426 208.998Z" fill="white" stroke="#181F23" stroke-linecap="round" stroke-linejoin="round"/>
<path d="M241.294 195.188C241.294 195.188 218.564 204.065 200.811 206.003C183.057 207.941 180.832 207.965 180.832 207.965V228.375C197.459 228.748 214.06 226.889 230.192 222.847C255.985 216.172 259.698 214.308 261.277 208.757C262.857 203.206 251.367 187.071 251.367 187.071" fill="#181F23"/>
<path d="M241.294 195.188C241.294 195.188 218.564 204.065 200.811 206.003C183.057 207.941 180.832 207.965 180.832 207.965V228.375C197.459 228.748 214.06 226.889 230.192 222.847C255.985 216.172 259.698 214.308 261.278 208.757C262.857 203.206 251.367 187.071 251.367 187.071" stroke="white" stroke-linecap="round" stroke-linejoin="round"/>
<path d="M213.691 96.1431L213.691 96.1432C209.269 103.233 201.51 107.251 193.494 109.158C193.401 109.179 193.272 109.21 193.11 109.249C192.016 109.511 189.449 110.126 186.913 110.567C185.454 110.821 184.025 111.014 182.903 111.052C182.34 111.071 181.877 111.05 181.536 110.987C181.182 110.922 181.067 110.832 181.045 110.806C181.043 110.802 181.04 110.799 181.039 110.796C181.032 110.787 181.025 110.777 181.016 110.765C181 110.742 180.976 110.709 180.945 110.668C180.885 110.586 180.796 110.466 180.68 110.311C180.447 110 180.106 109.548 179.666 108.971C178.785 107.816 177.506 106.161 175.905 104.14C172.704 100.1 168.217 94.5975 163.058 88.7221C152.757 76.9903 139.72 63.7043 128.882 57.645C107.583 45.7367 108.474 25.0531 116.996 18.074C121.379 14.4846 132.117 8.16758 144.817 4.16373C157.524 0.157727 172.085 -1.49797 184.18 4.08811C193.012 8.18693 199.444 15.9169 203.439 24.7547C204.817 27.8088 205.763 31.0673 206.597 34.4002C206.898 35.6025 207.185 36.8194 207.473 38.0395C207.979 40.1836 208.488 42.3376 209.077 44.4398L209.077 44.4419C211.184 51.8418 213.25 59.3036 215.132 66.8164C217.702 77.0844 219.561 86.7388 213.691 96.1431Z" fill="#181F23" stroke="white"/>
<path d="M176.412 76.4827L176.414 76.4829L176.427 76.4837C176.439 76.4844 176.457 76.4855 176.482 76.4867C176.532 76.4892 176.608 76.4921 176.707 76.4936C176.904 76.4966 177.191 76.4943 177.544 76.4719C178.251 76.4272 179.214 76.3028 180.24 75.9865C182.28 75.3576 184.54 73.984 185.597 70.9751L185.602 70.9507C185.606 70.9286 185.612 70.9002 185.618 70.8657C185.623 70.8408 185.628 70.8128 185.634 70.7817C185.661 70.6337 185.7 70.4173 185.743 70.1466C185.83 69.6047 185.937 68.847 186.017 67.9846C186.179 66.2448 186.223 64.137 185.805 62.5146C185.597 61.7048 185.285 61.0647 184.86 60.6454C184.453 60.2435 183.911 60.0116 183.143 60.0654C182.352 60.1208 181.309 60.4817 179.954 61.3189C178.604 62.1532 176.975 63.4409 175.02 65.3052L174.818 65.4975L174.548 65.4271C154.984 60.3164 141.6 48.1428 134.348 32.4524C134.127 32.6399 133.843 32.8853 133.512 33.1779C132.706 33.8907 131.63 34.8812 130.548 35.994C129.463 37.1087 128.381 38.3362 127.557 39.5232C126.721 40.7272 126.199 41.8208 126.139 42.68C126.026 44.3258 126.186 46.0224 126.378 48.0536C126.413 48.4299 126.45 48.8177 126.486 49.2188C126.716 51.7696 126.919 54.7979 126.666 58.6802C126.173 66.2657 128.156 74.6694 131.754 83.4642C131.754 83.4653 131.755 83.4664 131.755 83.4675L131.758 83.4734L131.774 83.5115C131.789 83.5453 131.811 83.5962 131.84 83.6628C131.899 83.7961 131.987 83.9928 132.103 84.2441C132.334 84.7467 132.676 85.4677 133.118 86.338C134.002 88.0794 135.284 90.4134 136.875 92.7885C138.467 95.1659 140.359 97.5697 142.46 99.4613C144.565 101.356 146.843 102.705 149.211 103.037L149.641 103.098V103.532V111.248L149.642 111.264L149.644 111.335C149.646 111.397 149.649 111.49 149.652 111.612C149.66 111.856 149.669 112.215 149.68 112.676C149.702 113.598 149.728 114.93 149.745 116.571C149.78 119.851 149.78 124.364 149.641 129.298C149.641 129.298 149.641 129.298 149.641 129.298L149.141 129.284C148.957 136.238 154.942 145.513 172.056 139.809L176.412 76.4827ZM176.412 76.4827L176.412 76.4827L176.412 76.4827L175.929 76.4452L175.877 76.9275L174.559 89.1103L174.55 89.1991L174.572 89.2857L181.445 116.673L181.455 116.713L181.471 116.75L176.412 76.4827ZM182.677 125.119C182.284 129.758 179.918 135.403 171.867 139.345L181.471 116.75L181.472 116.751L181.474 116.757L181.486 116.786C181.497 116.812 181.514 116.852 181.535 116.906C181.577 117.013 181.637 117.174 181.709 117.383C181.853 117.801 182.042 118.41 182.219 119.167C182.573 120.683 182.875 122.781 182.677 125.119Z" fill="white" stroke="#181F23"/>
<path d="M142.931 89.0613C144.829 90.1084 147.035 90.4533 149.162 90.0355C151.289 89.6177 153.201 88.4638 154.561 86.7766" stroke="#181F23" stroke-linecap="round" stroke-linejoin="round"/>
<path d="M141.922 60.6388C141.922 60.6388 140.704 73.8148 140.699 75.4786C140.695 77.1424 142.488 79.5527 147.282 78.9337" stroke="#181F23" stroke-linecap="round" stroke-linejoin="round"/>
<path d="M152.68 67.3489C153.843 67.3489 154.786 65.7259 154.786 63.7238C154.786 61.7218 153.843 60.0988 152.68 60.0988C151.517 60.0988 150.574 61.7218 150.574 63.7238C150.574 65.7259 151.517 67.3489 152.68 67.3489Z" fill="#181F23"/>
<path d="M137.145 63.9938C137.145 65.8391 136.272 67.3489 135.199 67.3489C134.125 67.3489 133.27 65.8727 133.27 63.9938C133.27 62.115 134.142 60.6388 135.199 60.6388C136.256 60.6388 137.145 62.1653 137.145 63.9938Z" fill="#181F23"/>
<path d="M148.387 56.0707C148.387 56.0707 153.444 52.0566 160.126 56.4585" stroke="#181F23" stroke-linecap="round" stroke-linejoin="round"/>
<path d="M136.92 55.0183C136.92 55.0183 131.646 52.8394 129.511 56.92" stroke="#181F23" stroke-linecap="round" stroke-linejoin="round"/>
</svg>
