<svg width="140" height="155" viewBox="0 0 140 155" fill="none" xmlns="http://www.w3.org/2000/svg">
<path d="M1.12305 153.529L138.541 153.529" stroke="white" stroke-linecap="round" stroke-linejoin="round"/>
<path d="M10.7207 153.529C10.7207 129.435 30.2529 109.903 54.3472 109.903H86.5573C110.652 109.903 130.184 129.435 130.184 153.529H10.7207Z" fill="#181F23" stroke="white" stroke-linecap="round" stroke-linejoin="round"/>
<path d="M47.7285 110.011H92.247V116.259C92.247 128.552 82.2812 138.518 69.9878 138.518C57.6943 138.518 47.7285 128.552 47.7285 116.259V110.011Z" fill="white"/>
<path d="M25.3184 60.091C25.3184 50.4249 32.3325 50.2383 35.5515 50.2383L37.1961 68.329C33.7591 68.5438 25.3184 68.4682 25.3184 60.091Z" fill="white" stroke="white" stroke-linecap="round" stroke-linejoin="round"/>
<path d="M114.31 60.091C114.31 50.4249 107.295 50.2383 104.076 50.2383L102.432 68.329C105.869 68.5438 114.31 68.4682 114.31 60.091Z" fill="white" stroke="white" stroke-linecap="round" stroke-linejoin="round"/>
<path d="M54.3418 91.666H85.2731V109.709C85.2731 118.251 78.3489 125.175 69.8075 125.175C61.266 125.175 54.3418 118.251 54.3418 109.709V91.666Z" fill="white" stroke="#181F23" stroke-linecap="round" stroke-linejoin="round"/>
<ellipse cx="69.8085" cy="54.2906" rx="34.7977" ry="46.397" fill="white" stroke="#181F23" stroke-linecap="round" stroke-linejoin="round"/>
<path d="M35.6559 50.4224L31.1434 50.4243C27.276 34.3161 36.3011 1.44775 71.0988 1.44775C102.03 1.44775 113.629 32.381 108.474 50.4224H103.963C103.321 43.9802 100.741 34.9586 98.8081 29.8015C75.6096 42.174 50.4779 34.9567 40.8119 29.8015C37.5891 37.5362 36.3003 44.6246 35.6559 50.4224Z" fill="#181F23" stroke="white" stroke-linecap="round" stroke-linejoin="round"/>
<path d="M69.8081 49.7801C71.3117 56.4389 74.1901 70.0143 73.6745 71.0454C73.159 72.0764 68.3045 71.475 65.9417 71.0454M64.9719 87.15C65.9417 89.3428 76.8497 89.5255 77.9461 87.15M47.8984 49.7801H58.8533M79.5907 48.4103L89.1402 43.9805" stroke="#181F23" stroke-linecap="round" stroke-linejoin="round"/>
<circle cx="54.343" cy="56.8684" r="3.86642" fill="#263238"/>
<circle cx="85.2746" cy="56.8684" r="3.86642" fill="#263238"/>
<path d="M83.3019 80.8629C73.0331 69.476 63.2124 74.7508 57.6307 81.0912C56.2079 82.7075 57.296 85.1015 59.4491 85.1372C60.6488 85.1571 61.7331 85.0673 62.174 84.7352C63.3829 83.825 67.7057 81.8223 70.7871 81.8223C73.8685 81.8223 77.587 84.007 79.2491 84.7352C79.7356 84.9484 80.5458 85.0368 81.4485 85.0552C83.6931 85.1009 84.8055 82.5301 83.3019 80.8629Z" fill="#263238"/>
</svg>
