<svg width="174" height="52" viewBox="0 0 174 52" fill="none" xmlns="http://www.w3.org/2000/svg">
<path d="M117.21 4.9933C113.701 3.75079 109.94 3.35887 106.245 3.85108C102.549 4.34329 99.0291 5.70495 95.9812 7.8198C92.9335 9.93458 90.4477 12.7401 88.7318 15.9985C87.0159 19.2567 86.1198 22.8731 86.1177 26.5428L83.1177 26.5412C83.12 22.3834 84.1355 18.2881 86.0773 14.6006C88.0191 10.9132 90.8299 7.74273 94.271 5.35504C97.712 2.96741 101.683 1.43218 105.849 0.877344C110.014 0.322512 114.254 0.764101 118.212 2.16535L117.21 4.9933Z" fill="white"/>
<path d="M122.828 8.15422C126.955 10.9933 129.982 15.0065 131.474 19.5822L134.326 18.6518C132.622 13.4276 129.178 8.88155 124.528 5.68258L122.828 8.15422Z" fill="white"/>
<path d="M107.763 8.6007L109.263 8.60071C112.79 8.60072 116.237 9.66121 119.153 11.6445C122.07 13.6277 124.322 16.442 125.616 19.7214L122.826 20.8227C121.753 18.1038 119.885 15.77 117.466 14.1252C115.463 12.7629 113.158 11.9255 110.763 11.678V16.9601C112.44 17.2343 114.021 17.9636 115.326 19.0817C117.015 20.5284 118.13 22.5308 118.471 24.7274C118.811 26.9241 118.354 29.1699 117.182 31.0592C116.01 32.9485 114.201 34.3567 112.082 35.0298C109.962 35.703 107.672 35.5969 105.624 34.7307C103.576 33.8645 101.905 32.2951 100.913 30.3055C99.9214 28.3159 99.6743 26.0374 100.217 23.8817C100.759 21.726 102.055 19.8353 103.87 18.551L105.603 21C104.372 21.871 103.494 23.1528 103.126 24.6137C102.758 26.0746 102.926 27.6186 103.598 28.9671C104.27 30.3157 105.403 31.38 106.793 31.9677C108.182 32.5553 109.736 32.6273 111.174 32.1706C112.612 31.7139 113.838 30.7588 114.633 29.4781C115.427 28.1974 115.737 26.6754 115.506 25.1869C115.275 23.6983 114.519 22.3409 113.374 21.3599C112.229 20.3788 110.771 19.8389 109.262 19.838L107.763 19.8371V8.6007Z" fill="white"/>
<path d="M104.586 12.5952C102.541 13.2232 100.663 14.2764 99.0808 15.6796C97.4985 17.0827 96.2497 18.802 95.4184 20.7175C94.5872 22.6328 94.1925 24.6999 94.2605 26.7763C94.3285 28.8528 94.8575 30.8915 95.8127 32.7519L93.1439 34.1221C91.9872 31.8693 91.3446 29.3964 91.2621 26.8745C91.1796 24.3525 91.6591 21.8441 92.6664 19.5231C93.6737 17.2022 95.1839 15.1255 97.0904 13.4349C98.9967 11.7445 101.254 10.4803 103.705 9.72742L104.586 12.5952Z" fill="white"/>
<path d="M90.1769 38.9281C88.4507 36.5179 87.246 33.823 86.625 30.9939L83.6948 31.6371C84.4047 34.8714 85.7795 37.9406 87.738 40.6749L90.1769 38.9281Z" fill="white"/>
<path d="M100.074 37.5637L99.0265 36.7363L91.0774 44.6904L92.3309 45.7423C95.6384 48.518 99.6078 50.4432 103.875 51.3461L104.496 48.4111C101.248 47.7239 98.2006 46.3714 95.5544 44.4546L99.2975 40.7092C102.188 42.6585 105.614 43.7388 109.146 43.8038C113.13 43.8772 117.03 42.6545 120.22 40.3237L118.451 37.9012C115.796 39.8408 112.539 40.8658 109.201 40.8043C105.864 40.7429 102.65 39.5988 100.074 37.5637Z" fill="white"/>
<path d="M124.26 25.0422L124.261 26.5431C124.263 29.2945 123.444 31.9889 121.903 34.2953L124.397 35.9622C125.986 33.5847 126.944 30.8623 127.195 28.0422H132.436C132.161 32.042 130.789 35.9074 128.447 39.2232C125.813 42.9524 122.078 45.8103 117.736 47.4104L118.773 50.2253C123.678 48.4176 127.909 45.1851 130.897 40.9539C133.886 36.7224 135.489 31.6946 135.488 26.5419L135.487 25.0422H124.26Z" fill="white"/>
<path d="M112.628 25.9415C112.628 27.7982 111.123 29.3035 109.266 29.3035C107.409 29.3035 105.904 27.7982 105.904 25.9415C105.904 24.0847 107.409 22.5795 109.266 22.5795C111.123 22.5795 112.628 24.0847 112.628 25.9415Z" fill="white"/>
<path d="M35.0688 6.34814V41.3481H27.0688V12.9481H15.0688L14.8188 20.2481C14.6521 25.2148 14.2521 29.2481 13.6188 32.3481C12.9854 35.4148 11.9188 37.7815 10.4188 39.4481C8.95208 41.0815 6.88542 41.8981 4.21875 41.8981C3.11875 41.8981 1.78542 41.7148 0.21875 41.3481L0.71875 34.4981C1.15208 34.6315 1.63542 34.6981 2.16875 34.6981C4.10208 34.6981 5.45208 33.5648 6.21875 31.2981C6.98542 28.9981 7.46875 25.4148 7.66875 20.5481L8.16875 6.34814H35.0688Z" fill="white"/>
<path d="M79.666 34.7481V48.5981H72.166V41.3481H47.466V48.5981H39.966L40.016 34.7481H41.416C43.516 34.6815 44.9993 33.1481 45.866 30.1481C46.7327 27.1481 47.266 22.8648 47.466 17.2981L47.866 6.34814H74.766V34.7481H79.666ZM54.616 18.0481C54.4493 22.2148 54.0994 25.7148 53.566 28.5481C53.0327 31.3481 52.216 33.4148 51.116 34.7481H66.766V12.9481H54.766L54.616 18.0481Z" fill="white"/>
<path d="M173.359 6.34814L158.459 34.0481C157.026 36.7148 155.293 38.7315 153.259 40.0981C151.259 41.4648 149.076 42.1481 146.709 42.1481C144.876 42.1481 142.976 41.7481 141.009 40.9481L142.959 34.7981C144.359 35.2315 145.526 35.4481 146.459 35.4481C147.459 35.4481 148.359 35.2148 149.159 34.7481C149.959 34.2481 150.693 33.4815 151.359 32.4481L151.659 32.0481L137.859 6.34814H146.509L155.809 25.1481L165.409 6.34814H173.359Z" fill="white"/>
</svg>
