<svg width="245" height="202" viewBox="0 0 245 202" fill="none" xmlns="http://www.w3.org/2000/svg">
<path fill-rule="evenodd" clip-rule="evenodd" d="M146.505 151.108L134.229 149.792L134.229 151.108V164.802C134.229 165.592 134.631 166.35 135.346 166.909C135.694 167.181 136.103 167.395 136.547 167.543V174.135C136.547 174.533 136.614 174.915 136.736 175.271C128.172 176.547 89.5859 182.312 88.9228 182.648C88.1769 183.025 86.6938 183.946 87.2467 184.692C87.7996 185.438 95.4343 184.692 95.4343 184.692L98.0669 183.578L135.275 181.902L119.479 198.461C119.479 198.461 118.365 200.137 118.918 200.69C119.471 201.243 121.708 201.62 122.086 201.067C122.463 200.515 123.384 198.83 123.384 198.83L144.033 183.034L181.25 188.799C181.25 188.799 180.873 189.545 182.181 189.922C182.376 189.979 182.658 190.068 182.998 190.175C184.931 190.787 188.72 191.985 188.876 191.037C189.061 189.922 188.876 188.404 187.384 188.062C186.073 187.761 152.08 178.195 143.885 175.887C144.185 175.373 144.357 174.774 144.357 174.135V167.482C144.736 167.338 145.085 167.146 145.388 166.909C146.103 166.35 146.505 165.592 146.505 164.802V151.108Z" fill="#181F23"/>
<path d="M134.229 149.792L134.282 149.295C134.141 149.28 134 149.325 133.895 149.42C133.789 149.515 133.729 149.65 133.729 149.792L134.229 149.792ZM146.505 151.108H147.005C147.005 150.853 146.813 150.638 146.559 150.611L146.505 151.108ZM134.229 151.108L133.729 151.108V151.108H134.229ZM135.346 166.909L135.654 166.515L135.346 166.909ZM136.547 167.543H137.047C137.047 167.327 136.909 167.136 136.705 167.068L136.547 167.543ZM136.736 175.271L136.81 175.765C136.957 175.743 137.087 175.657 137.164 175.53C137.241 175.403 137.257 175.248 137.209 175.108L136.736 175.271ZM88.9228 182.648L89.1485 183.094H89.1485L88.9228 182.648ZM87.2467 184.692L86.845 184.99L87.2467 184.692ZM95.4343 184.692L95.4829 185.19C95.5333 185.185 95.5826 185.172 95.6292 185.153L95.4343 184.692ZM98.0669 183.578L98.0444 183.078C97.9851 183.081 97.9267 183.094 97.872 183.117L98.0669 183.578ZM135.275 181.902L135.637 182.247C135.778 182.099 135.815 181.88 135.73 181.695C135.646 181.509 135.457 181.393 135.253 181.402L135.275 181.902ZM119.479 198.461L119.117 198.116C119.097 198.137 119.079 198.16 119.063 198.184L119.479 198.461ZM122.086 201.067L121.673 200.786V200.786L122.086 201.067ZM123.384 198.83L123.081 198.432C123.025 198.475 122.979 198.528 122.946 198.59L123.384 198.83ZM144.033 183.034L144.11 182.54C143.975 182.519 143.838 182.554 143.729 182.637L144.033 183.034ZM181.25 188.799L181.696 189.025C181.769 188.882 181.768 188.713 181.695 188.571C181.622 188.428 181.485 188.33 181.327 188.305L181.25 188.799ZM182.181 189.922L182.042 190.403H182.042L182.181 189.922ZM182.998 190.175L182.847 190.652L182.998 190.175ZM188.876 191.037L188.383 190.955L188.876 191.037ZM187.384 188.062L187.496 187.575L187.384 188.062ZM143.885 175.887L143.453 175.635C143.376 175.769 143.364 175.931 143.422 176.075C143.48 176.218 143.601 176.327 143.75 176.369L143.885 175.887ZM144.357 167.482L144.18 167.015C143.986 167.088 143.857 167.274 143.857 167.482H144.357ZM145.388 166.909L145.695 167.303V167.303L145.388 166.909ZM134.176 150.289L146.452 151.605L146.559 150.611L134.282 149.295L134.176 150.289ZM134.729 151.108L134.729 149.792L133.729 149.792L133.729 151.108L134.729 151.108ZM134.729 164.802V151.108H133.729V164.802H134.729ZM135.654 166.515C135.039 166.035 134.729 165.414 134.729 164.802H133.729C133.729 165.77 134.222 166.665 135.038 167.303L135.654 166.515ZM136.705 167.068C136.31 166.937 135.953 166.749 135.654 166.515L135.038 167.303C135.436 167.613 135.896 167.853 136.389 168.017L136.705 167.068ZM137.047 174.135V167.543H136.047V174.135H137.047ZM137.209 175.108C137.104 174.804 137.047 174.477 137.047 174.135H136.047C136.047 174.589 136.123 175.026 136.264 175.433L137.209 175.108ZM89.1485 183.094C89.1083 183.114 89.0823 183.119 89.1138 183.11C89.1316 183.105 89.1606 183.098 89.2034 183.088C89.2882 183.069 89.4096 183.045 89.5682 183.015C89.8844 182.955 90.3332 182.876 90.8999 182.78C92.0324 182.588 93.6253 182.33 95.5471 182.027C99.3901 181.419 104.542 180.628 109.942 179.806C120.741 178.164 132.528 176.403 136.81 175.765L136.663 174.776C132.38 175.414 120.592 177.175 109.791 178.818C104.391 179.639 99.2369 180.431 95.391 181.039C93.4683 181.343 91.871 181.601 90.7329 181.794C90.1643 181.89 89.7078 181.97 89.3817 182.032C89.2192 182.063 89.0853 182.09 88.9847 182.113C88.9347 182.124 88.8885 182.135 88.8491 182.146C88.8234 182.153 88.7581 182.171 88.6971 182.201L89.1485 183.094ZM87.6484 184.394C87.624 184.362 87.6169 184.345 87.6394 184.285C87.6732 184.193 87.7656 184.06 87.94 183.896C88.2831 183.574 88.7905 183.275 89.1485 183.094L88.6971 182.201C88.3092 182.398 87.7021 182.748 87.2555 183.167C87.035 183.374 86.8137 183.634 86.7015 183.938C86.5782 184.271 86.593 184.65 86.845 184.99L87.6484 184.394ZM95.4343 184.692C95.3857 184.195 95.3857 184.195 95.3856 184.195C95.3856 184.195 95.3855 184.195 95.3854 184.195C95.3852 184.195 95.3849 184.195 95.3845 184.195C95.3836 184.195 95.3823 184.195 95.3805 184.195C95.377 184.195 95.3717 184.196 95.3646 184.197C95.3504 184.198 95.3292 184.2 95.3015 184.203C95.2461 184.208 95.1644 184.215 95.0602 184.225C94.8517 184.244 94.553 184.27 94.1926 184.299C93.4714 184.357 92.5057 184.426 91.5243 184.472C90.5399 184.519 89.5518 184.541 88.7813 184.507C88.3941 184.49 88.0789 184.46 87.8529 184.416C87.7393 184.393 87.6643 184.371 87.6201 184.353C87.565 184.33 87.6026 184.333 87.6484 184.394L86.845 184.99C86.9599 185.145 87.122 185.229 87.2395 185.278C87.3678 185.33 87.5135 185.368 87.6616 185.397C87.959 185.455 88.331 185.489 88.7372 185.506C89.5537 185.542 90.5779 185.518 91.5714 185.471C92.5677 185.424 93.5452 185.354 94.2728 185.295C94.6369 185.266 94.9389 185.24 95.1501 185.221C95.2557 185.211 95.3386 185.204 95.3953 185.198C95.4236 185.196 95.4454 185.193 95.4601 185.192C95.4675 185.191 95.4731 185.191 95.477 185.19C95.4789 185.19 95.4803 185.19 95.4813 185.19C95.4818 185.19 95.4822 185.19 95.4824 185.19C95.4826 185.19 95.4827 185.19 95.4828 185.19C95.4828 185.19 95.4829 185.19 95.4343 184.692ZM97.872 183.117L95.2394 184.232L95.6292 185.153L98.2619 184.038L97.872 183.117ZM135.253 181.402L98.0444 183.078L98.0894 184.077L135.298 182.401L135.253 181.402ZM119.841 198.806L135.637 182.247L134.913 181.556L119.117 198.116L119.841 198.806ZM119.271 200.336C119.293 200.358 119.249 200.341 119.269 200.165C119.288 200.001 119.354 199.791 119.451 199.565C119.545 199.346 119.657 199.137 119.747 198.982C119.791 198.905 119.829 198.842 119.856 198.8C119.87 198.778 119.88 198.762 119.887 198.752C119.89 198.746 119.893 198.742 119.894 198.74C119.895 198.739 119.895 198.738 119.896 198.738C119.896 198.738 119.896 198.738 119.896 198.738C119.896 198.738 119.896 198.738 119.896 198.738C119.896 198.738 119.896 198.738 119.896 198.738C119.896 198.738 119.896 198.738 119.479 198.461C119.063 198.184 119.063 198.184 119.063 198.184C119.063 198.184 119.063 198.185 119.063 198.185C119.063 198.185 119.062 198.185 119.062 198.185C119.062 198.186 119.062 198.186 119.061 198.187C119.06 198.188 119.059 198.19 119.058 198.192C119.055 198.196 119.052 198.201 119.047 198.208C119.038 198.223 119.025 198.243 119.009 198.269C118.977 198.32 118.932 198.393 118.881 198.481C118.779 198.657 118.647 198.903 118.532 199.171C118.419 199.434 118.31 199.747 118.275 200.052C118.242 200.346 118.266 200.746 118.564 201.044L119.271 200.336ZM121.673 200.786C121.698 200.749 121.714 200.753 121.669 200.772C121.627 200.79 121.555 200.81 121.448 200.823C121.233 200.85 120.948 200.842 120.637 200.798C120.328 200.755 120.019 200.681 119.761 200.589C119.487 200.492 119.329 200.394 119.271 200.336L118.564 201.044C118.783 201.262 119.112 201.419 119.425 201.531C119.754 201.648 120.131 201.737 120.498 201.789C120.863 201.839 121.242 201.856 121.571 201.816C121.735 201.795 121.904 201.758 122.058 201.693C122.21 201.629 122.379 201.524 122.499 201.349L121.673 200.786ZM123.384 198.83C122.946 198.59 122.946 198.59 122.946 198.59C122.946 198.59 122.946 198.59 122.946 198.59C122.946 198.59 122.946 198.59 122.946 198.59C122.945 198.59 122.945 198.59 122.945 198.591C122.945 198.592 122.944 198.593 122.943 198.594C122.941 198.597 122.939 198.602 122.936 198.608C122.929 198.621 122.919 198.639 122.906 198.662C122.88 198.709 122.843 198.776 122.797 198.859C122.705 199.025 122.579 199.251 122.441 199.495C122.161 199.99 121.847 200.53 121.673 200.786L122.499 201.349C122.701 201.052 123.037 200.473 123.312 199.987C123.451 199.741 123.579 199.511 123.672 199.344C123.718 199.26 123.756 199.192 123.782 199.144C123.795 199.12 123.805 199.102 123.812 199.089C123.816 199.083 123.818 199.078 123.82 199.075C123.821 199.073 123.822 199.072 123.822 199.071C123.823 199.07 123.823 199.07 123.823 199.07C123.823 199.07 123.823 199.07 123.823 199.07C123.823 199.07 123.823 199.07 123.823 199.07C123.823 199.07 123.823 199.07 123.384 198.83ZM143.729 182.637L123.081 198.432L123.688 199.227L144.337 183.431L143.729 182.637ZM181.327 188.305L144.11 182.54L143.957 183.528L181.174 189.293L181.327 188.305ZM182.319 189.442C181.758 189.28 181.707 189.087 181.705 189.078C181.698 189.056 181.699 189.036 181.702 189.018C181.704 189.01 181.706 189.005 181.706 189.004C181.706 189.004 181.705 189.006 181.704 189.009C181.703 189.011 181.702 189.013 181.701 189.015C181.701 189.017 181.7 189.018 181.699 189.02C181.699 189.021 181.698 189.021 181.698 189.022C181.698 189.023 181.697 189.023 181.697 189.024C181.697 189.024 181.697 189.024 181.697 189.024C181.697 189.025 181.696 189.025 181.25 188.799C180.804 188.573 180.804 188.574 180.804 188.574C180.804 188.574 180.804 188.575 180.803 188.575C180.803 188.575 180.803 188.576 180.803 188.576C180.802 188.577 180.802 188.579 180.801 188.58C180.8 188.582 180.799 188.585 180.797 188.587C180.795 188.593 180.792 188.599 180.789 188.606C180.782 188.621 180.775 188.638 180.767 188.66C180.752 188.701 180.735 188.757 180.721 188.825C180.695 188.959 180.683 189.149 180.746 189.361C180.881 189.819 181.296 190.187 182.042 190.403L182.319 189.442ZM183.148 189.699C182.812 189.592 182.522 189.501 182.319 189.442L182.042 190.403C182.23 190.457 182.504 190.544 182.847 190.652L183.148 189.699ZM188.383 190.955C188.397 190.871 188.461 190.838 188.448 190.844C188.415 190.859 188.326 190.883 188.149 190.888C187.804 190.898 187.303 190.829 186.707 190.702C185.527 190.45 184.12 190.006 183.148 189.699L182.847 190.652C183.808 190.956 185.262 191.417 186.499 191.68C187.111 191.81 187.708 191.901 188.177 191.888C188.409 191.882 188.656 191.849 188.868 191.751C189.1 191.643 189.316 191.44 189.37 191.119L188.383 190.955ZM187.273 188.549C187.835 188.678 188.132 189.01 188.29 189.435C188.459 189.886 188.467 190.448 188.383 190.955L189.37 191.119C189.47 190.511 189.478 189.757 189.227 189.085C188.967 188.386 188.426 187.788 187.496 187.575L187.273 188.549ZM143.75 176.369C151.93 178.672 185.945 188.245 187.273 188.549L187.496 187.575C186.201 187.277 152.231 177.717 144.021 175.406L143.75 176.369ZM143.857 174.135C143.857 174.683 143.71 175.195 143.453 175.635L144.317 176.139C144.661 175.55 144.857 174.865 144.857 174.135H143.857ZM143.857 167.482V174.135H144.857V167.482H143.857ZM145.08 166.515C144.82 166.718 144.515 166.887 144.18 167.015L144.535 167.949C144.956 167.79 145.35 167.573 145.695 167.303L145.08 166.515ZM146.005 164.802C146.005 165.414 145.695 166.035 145.08 166.515L145.695 167.303C146.512 166.665 147.005 165.77 147.005 164.802H146.005ZM146.005 151.108V164.802H147.005V151.108H146.005Z" fill="white"/>
<path d="M192.915 120.508C191.019 123.588 190.019 127.142 188.167 130.284C184.362 136.746 178.901 142.075 172.347 145.72C165.794 149.365 158.386 151.195 150.889 151.02C136.374 150.827 126.888 148.388 116.471 144.132C106.055 139.875 97.6739 135.014 94.1461 129.81C90.6184 124.606 77.9377 111.618 71.9879 104.694C66.0381 97.7704 66.5909 96.691 62.3348 95.1992C58.0787 93.7073 60.1058 88.8808 65.6871 84.9669C71.2683 81.053 77.7797 84.0367 80.7547 87.5995C83.7296 91.1624 92.2945 95.4185 103.826 101.737C115.357 108.055 129.503 109.556 138.428 106.765C147.352 103.975 150.336 94.8569 150.529 85.3705C150.722 75.8842 147.73 66.9419 138.989 55.2265C130.249 43.5112 122.807 36.6224 124.667 27.6977C126.528 18.7729 139.173 3.12614 144.57 4.62676C149.967 6.12738 157.593 18.9484 178.62 23.933C199.646 28.9175 216.012 27.8381 217.504 26.5656C218.996 25.2932 227.921 10.1992 233.502 7.5929C239.083 4.98656 244.849 10.0062 244.48 13.9201C244.111 17.8339 224.542 57.6223 221.971 64.5023C219.4 71.3823 195.916 115.672 195.916 115.672L192.915 120.508Z" fill="#181F23" stroke="white" stroke-linecap="round" stroke-linejoin="round"/>
<path d="M217.479 26.5481C217.479 26.5481 209.107 41.8088 208.703 43.2919L217.479 26.5481Z" fill="white"/>
<path d="M217.479 26.5481C217.479 26.5481 209.107 41.8088 208.703 43.2919" stroke="white" stroke-linecap="round" stroke-linejoin="round"/>
<path d="M111.988 60.5008C111.988 60.5008 110.961 60.5008 108.083 59.2985C105.205 58.0963 103.52 56.7799 101.063 56.6659C98.6054 56.5518 92.2256 61.8698 92.2256 64.7569C92.2256 67.6441 101.8 67.7318 105.064 67.8283C108.329 67.9249 112.041 68.1969 112.778 67.9249C113.515 67.6528 113.436 60.9044 112.874 60.6675C112.603 60.5218 112.294 60.4636 111.988 60.5008Z" fill="white" stroke="#181F23" stroke-linecap="round" stroke-linejoin="round"/>
<path d="M115.428 59.8425L111.242 60.2199C111.805 62.2468 112.057 64.3478 111.988 66.4505C111.972 68.997 111.627 71.5308 110.961 73.9887L116.542 73.8922C116.542 73.8922 119.175 67.3807 119.175 64.6779C119.175 61.975 115.428 59.8425 115.428 59.8425Z" fill="white" stroke="#181F23" stroke-linecap="round" stroke-linejoin="round"/>
<path d="M160.642 34.92C160.642 34.92 151.155 47.0127 147.9 51.1986C144.644 55.3846 138.036 57.9909 137.29 58.2717C136.544 58.5526 115.43 59.8513 115.43 59.8513C116.47 61.9538 116.858 64.319 116.545 66.6436C116.08 70.7418 115.149 75.0155 115.149 75.0155C115.149 75.0155 119.994 75.3928 127.988 73.7167C135.983 72.0406 140.546 73.4359 145.197 69.3289C149.848 65.222 158.501 43.9325 160.177 40.2117C161.853 36.4908 162.687 34.1829 160.642 34.92Z" fill="white" stroke="#181F23" stroke-linecap="round" stroke-linejoin="round"/>
<path d="M49.2876 158.831C49.2876 158.831 43.8907 163.482 38.3094 168.317C32.7282 173.152 21.1971 176.882 14.87 178.181C8.5428 179.48 1.47849 180.041 0.916855 181.156C0.355221 182.27 -0.197647 183.946 4.63768 185.254C9.96835 186.711 15.373 187.883 20.8286 188.764C25.8482 189.51 28.2702 189.141 30.6835 188.395C32.5129 187.883 34.3787 187.51 36.2647 187.281L35.7119 189.914C35.7119 189.914 38.3445 190.467 45.365 190.282C52.3854 190.098 54.2985 189.914 55.0181 188.79C55.4879 187.992 55.7419 187.084 55.7552 186.158C55.7552 186.158 59.1075 178.9 58.7389 175.548C58.5861 173.733 58.0793 171.965 57.2471 170.344L61.3803 163.482L49.2876 158.831Z" fill="white" stroke="#263238" stroke-linecap="round" stroke-linejoin="round"/>
<path d="M58.7476 175.574C58.5854 173.931 58.1587 172.325 57.4839 170.818C53.6003 171.607 49.6693 172.14 45.7159 172.415C45.7159 172.415 47.9537 168.905 46.4619 166.457C44.97 164.008 41.258 165.904 41.258 165.904H41.0298L38.2743 168.282C32.693 173.126 21.162 176.847 14.8348 178.146C8.50765 179.444 1.44333 180.006 0.881696 181.121C0.320061 182.235 -0.232794 183.911 4.60253 185.219C9.9332 186.676 15.3378 187.848 20.7934 188.729C25.813 189.475 28.2351 189.106 30.6483 188.36C32.4778 187.848 34.3436 187.475 36.2296 187.246L35.6767 189.879C35.6767 189.879 38.3094 190.431 45.3298 190.247C52.3503 190.063 54.2633 189.879 54.9829 188.755C55.4527 187.956 55.7068 187.049 55.7201 186.123C55.7201 186.123 59.1513 178.927 58.7476 175.574Z" fill="#181F23" stroke="white" stroke-linecap="round" stroke-linejoin="round"/>
<path d="M1.84668 182.463C8.61327 185.374 15.8773 186.953 23.2414 187.114C34.5882 187.114 33.4737 186.368 37.5719 186.368C41.6701 186.368 49.6646 187.483 54.1226 185.622" stroke="white" stroke-linecap="round" stroke-linejoin="round"/>
<path d="M80.7296 87.5732C80.7296 87.5732 78.5006 86.4587 76.4559 92.04C74.4112 97.6212 52.604 137.62 49.0938 143.386C46.1971 147.855 43.029 152.143 39.6074 156.224C39.6074 156.224 46.3032 161.806 51.3228 164.596C54.6202 166.391 58.0428 167.945 61.5638 169.247C61.5638 169.247 73.8496 146.922 79.7907 135.207C85.7317 123.492 96.9117 103.948 96.9117 103.948C96.9117 103.948 99.7024 98.1829 92.2607 92.6016C84.819 87.0204 80.7296 87.5732 80.7296 87.5732Z" fill="white" stroke="#263238" stroke-linecap="round" stroke-linejoin="round"/>
<path d="M146.968 100.596C146.968 100.596 139.526 99.4817 130.777 89.9953C122.027 80.5089 118.684 78.1834 118.684 78.1834C118.684 78.1834 111.242 68.7848 103.985 65.064C96.7275 61.3432 88.5487 61.896 83.8977 72.8742C79.2466 83.8524 67.3382 120.692 66.0307 127.765C64.7231 134.838 63.6174 139.296 64.1702 140.595C64.7231 141.894 71.805 143.947 76.8246 145.439C81.8442 146.931 81.8442 146.369 82.9675 144.509C84.0907 142.649 97.1049 109.345 97.1049 109.345C97.1049 109.345 106.407 124.044 121.106 127.019C135.805 129.994 143.8 127.765 152.364 124.044C160.929 120.324 169.477 114.391 167.283 107.854C165.089 101.316 146.968 100.596 146.968 100.596Z" fill="white" stroke="#181F23" stroke-linecap="round" stroke-linejoin="round"/>
<path d="M71.4287 129.064C71.4287 129.064 82.7755 105.993 85.5661 94.269" stroke="white" stroke-linecap="round" stroke-linejoin="round"/>
<path d="M97.1074 109.345C97.1074 109.345 105.664 80.8775 106.225 76.5951" stroke="white" stroke-linecap="round" stroke-linejoin="round"/>
<path d="M103.055 89.811C103.055 89.811 127.056 96.3225 141.193 100.78" stroke="white" stroke-linecap="round" stroke-linejoin="round"/>
<path d="M122.221 84.5105C122.221 84.5105 142.404 103.422 150.162 106.449" stroke="white" stroke-linecap="round" stroke-linejoin="round"/>
<path d="M190.505 39.299L189.952 39.2375C187.144 38.9216 174.42 37.4824 170.128 36.3153C165.293 35.0165 162.037 33.3404 160.642 34.92C159.247 36.4996 141.66 71.6719 141.573 73.4358C141.485 75.1997 146.039 82.0885 145.574 83.8524C145.109 85.6163 141.476 88.2402 141.187 89.7145C141.085 90.4157 140.899 91.1022 140.634 91.7592C140.537 92.04 140.353 92.8737 140.353 92.8737C140.353 92.8737 129.936 86.1779 124.908 82.5536C119.88 78.9293 118.309 77.9026 118.677 78.1659C119.046 78.4291 123.328 88.0208 132.078 93.8829C140.827 99.7449 144.635 101.886 150.769 104.414C156.904 106.941 172.261 112.873 174.121 113.189C175.982 113.505 180.071 115.049 185.099 110.776C190.128 106.502 223.519 59.8776 223.422 58.4033C223.326 56.929 206.678 45.0031 203.423 43.7043C200.167 42.4055 190.259 39.3165 190.259 39.3165" fill="white"/>
<path d="M190.505 39.299L189.952 39.2375C187.144 38.9216 174.42 37.4824 170.128 36.3153C165.293 35.0165 162.037 33.3404 160.642 34.92C159.247 36.4996 141.66 71.6719 141.573 73.4358C141.485 75.1997 146.039 82.0885 145.574 83.8524C145.109 85.6163 141.476 88.2402 141.187 89.7145C141.085 90.4157 140.899 91.1022 140.634 91.7592C140.537 92.04 140.353 92.8737 140.353 92.8737C140.353 92.8737 129.936 86.1779 124.908 82.5536C119.88 78.9293 118.309 77.9026 118.677 78.1659C119.046 78.4291 123.328 88.0208 132.078 93.8829C140.827 99.7449 144.635 101.886 150.769 104.414C156.904 106.941 172.261 112.873 174.121 113.189C175.982 113.505 180.071 115.049 185.099 110.776C190.128 106.502 223.519 59.8776 223.422 58.4033C223.326 56.929 206.678 45.0031 203.423 43.7043C200.167 42.4055 190.259 39.3165 190.259 39.3165" stroke="#181F23" stroke-linecap="round" stroke-linejoin="round"/>
<path d="M156.086 91.1098C156.198 91.5187 156.179 91.9524 156.031 92.3499C155.884 92.7474 155.616 93.0887 155.264 93.3257C154.913 93.5628 154.496 93.6837 154.072 93.6714C153.648 93.6591 153.239 93.5142 152.902 93.2572C152.565 93.0001 152.316 92.6439 152.192 92.2385C152.068 91.8331 152.074 91.399 152.21 90.9973C152.345 90.5956 152.603 90.2464 152.948 89.999C153.292 89.7516 153.705 89.6183 154.129 89.6179C154.586 89.5603 155.047 89.6844 155.413 89.9634C155.779 90.2425 156.02 90.6542 156.086 91.1098Z" fill="white" stroke="#263238" stroke-linecap="round" stroke-linejoin="round"/>
<path d="M151.987 95.1992C152.1 95.6071 152.083 96.0404 151.938 96.4382C151.793 96.836 151.527 97.1784 151.177 97.4172C150.827 97.656 150.412 97.7793 149.988 97.7697C149.565 97.7602 149.155 97.6183 148.817 97.364C148.478 97.1096 148.227 96.7556 148.1 96.3517C147.973 95.9477 147.976 95.5141 148.108 95.1117C148.24 94.7093 148.494 94.3583 148.836 94.108C149.177 93.8577 149.589 93.7206 150.012 93.7161C150.47 93.6533 150.935 93.7739 151.304 94.0516C151.674 94.3293 151.919 94.7417 151.987 95.1992Z" fill="white" stroke="#263238" stroke-linecap="round" stroke-linejoin="round"/>
<path d="M183.529 45.5296C183.529 45.5296 173.104 52.787 165.978 60.0356C158.852 67.2842 150.542 75.3928 150.349 77.1567C150.156 78.9206 154.07 82.9222 154.166 83.8524C154.602 85.5558 155.129 87.2344 155.746 88.8808L168.031 81.1583L203.388 44.5029C203.388 44.5029 194.077 44.0378 189.058 44.2221C184.038 44.4064 183.529 45.5296 183.529 45.5296Z" fill="#181F23" stroke="#181F23" stroke-linecap="round" stroke-linejoin="round"/>
<path d="M179.709 54.5772L179.428 57.9295C179.428 57.9295 166.037 69.3377 163.992 71.321C161.948 73.3042 158.314 76.4371 158.034 77.6481C157.753 78.8592 158.13 81.0882 157.103 83.0451C156.522 84.1695 155.871 85.2568 155.155 86.3008L155.708 88.9335L165.194 82.7906C165.194 82.7906 172.083 73.3043 175.339 68.6532C177.546 65.4079 179.534 62.0188 181.289 58.5087L187.054 56.1831L186.686 49.2066L179.709 54.5772Z" fill="white" stroke="#181F23" stroke-linecap="round" stroke-linejoin="round"/>
<path d="M184.238 52.5939L176.06 57.1572L181.544 45.749C181.544 45.749 185.73 42.3089 185.73 44.4502C185.73 46.5914 184.238 52.5939 184.238 52.5939Z" fill="#181F23" stroke="#181F23" stroke-linecap="round" stroke-linejoin="round"/>
<path d="M183.484 22.6694H184.906" stroke="#263238" stroke-linecap="round" stroke-linejoin="round"/>
<path d="M180.637 8.12817C180.637 8.12817 177.127 12.5949 176.917 13.7094C176.706 14.8239 177.943 17.2196 178.031 18.0972C178.119 18.9747 179.242 18.378 179.786 16.5088C180.33 14.6396 182.849 8.69858 182.849 8.69858C182.849 8.69858 182.217 6.36429 180.637 8.12817Z" fill="#181F23" stroke="white" stroke-linecap="round" stroke-linejoin="round"/>
<path d="M180.114 11.0856C180.114 11.0856 178.517 16.1491 177.719 19.8612C176.921 23.8514 176.784 27.9457 177.315 31.9802C177.85 35.5782 178.517 45.0294 178.912 46.1C179.307 47.1706 181.545 47.6972 182.773 47.8551C183.409 47.9572 184.062 47.8623 184.642 47.5831C184.642 47.5831 183.607 52.6115 184.265 52.6115C184.923 52.6115 200.061 43.8359 201.281 43.0637C202.501 42.2915 203.808 34.139 203.808 34.139L207.125 31.2343C207.854 30.7454 208.41 30.0391 208.714 29.2159C208.995 27.7592 209.855 25.0036 209.591 23.6961C209.512 23.1526 209.294 22.639 208.957 22.2053C208.62 21.7716 208.176 21.4326 207.669 21.2214C207.669 21.2214 210.723 11.2348 210.197 8.30377C210.197 8.30377 211.259 4.8462 203.799 2.58211C196.34 0.318021 185.432 0.449657 181.966 3.38069C178.5 6.31172 179.333 8.30376 179.965 8.97071L180.632 9.63764L180.114 11.0856Z" fill="white" stroke="#181F23" stroke-linecap="round" stroke-linejoin="round"/>
<path d="M203.809 2.56453C196.358 0.300443 185.442 0.432079 181.975 3.36311C178.509 6.29414 179.219 8.27743 179.851 8.94437L180.641 9.62008C182.742 11.3216 185.402 12.1762 188.101 12.0158C192.629 11.7525 199.017 8.95313 202.484 8.95313C205.95 8.95313 203.949 12.4634 201.413 14.2799C198.877 16.0964 199.816 16.9125 201.817 18.4044C203.818 19.8962 203.01 21.0371 202.484 22.6693C201.957 24.3016 204.239 24.8018 205.011 24.0032C205.578 23.3026 206.07 22.5436 206.477 21.7391C206.629 21.5717 206.815 21.4378 207.022 21.3457C207.229 21.2535 207.452 21.2052 207.679 21.2038C207.679 21.2038 210.565 12.0158 210.565 8.5056C210.565 8.5056 211.268 4.82862 203.809 2.56453Z" fill="#181F23" stroke="white" stroke-linecap="round" stroke-linejoin="round"/>
<path d="M184.633 35.8501L180.377 34.7883L183.878 26.9693V22.2568" stroke="#181F23" stroke-linecap="round" stroke-linejoin="round"/>
<path d="M181.439 39.7114L185.301 40.1151" stroke="#181F23" stroke-linecap="round" stroke-linejoin="round"/>
<path d="M184.643 47.5568C184.643 47.5568 197.806 41.7035 199.421 40.5363C201.035 39.3692 202.615 34.683 202.615 34.683" stroke="#181F23" stroke-linecap="round" stroke-linejoin="round"/>
<path d="M208.546 26.3638C208.546 26.3638 208.669 23.8101 207.545 23.5732C206.422 23.3362 204.527 26.3638 204.272 26.7148C204.018 27.0658 205.281 26.6007 205.404 27.645C205.527 28.6893 204.781 28.6893 204.527 29.1544" stroke="#181F23" stroke-linecap="round" stroke-linejoin="round"/>
<path d="M204.272 26.7148C204.272 26.7148 205.405 24.8544 206.659 26.2497C207.013 26.6399 207.229 27.1349 207.275 27.6593C207.321 28.1837 207.194 28.7088 206.914 29.1544" stroke="#181F23" stroke-linecap="round" stroke-linejoin="round"/>
<path d="M186.784 21.8972C186.784 21.8972 190.97 19.6682 193.295 19.7647C195.621 19.8612 196.174 21.0635 196.174 21.0635C196.174 21.0635 194.032 19.949 192.734 20.4141C191.435 20.8792 189.223 22.2745 187.898 22.3623C186.573 22.45 186.784 21.8972 186.784 21.8972Z" fill="#181F23" stroke="#181F23" stroke-linecap="round" stroke-linejoin="round"/>
<path d="M182.78 21.8093C181.916 21.4439 181.007 21.1931 180.077 21.0634C177.568 20.5018 177.102 20.6948 177.664 20.9669C179.062 21.4859 180.489 21.9225 181.938 22.2744C183.482 22.6693 182.78 21.8093 182.78 21.8093Z" fill="#181F23" stroke="#181F23" stroke-linecap="round" stroke-linejoin="round"/>
<path d="M185.617 52.0323L186.319 61.0624L204.265 43.9501L202.133 41.6245L185.617 52.0323Z" fill="#181F23" stroke="#181F23" stroke-linecap="round" stroke-linejoin="round"/>
<path d="M90.6854 60.0357C90.6854 60.0357 88.6407 61.624 88.553 62.5543C88.4652 63.4845 91.0628 67.9512 92.0632 68.6006C93.0636 69.25 92.8091 69.3465 93.1864 68.5041C93.5638 67.6616 91.5103 60.2287 91.326 59.7285C91.1417 59.2283 90.6854 60.0357 90.6854 60.0357Z" fill="white" stroke="#181F23" stroke-linecap="round" stroke-linejoin="round"/>
<path d="M93.8493 56.8763C93.8493 56.8763 91.3395 56.8763 90.5936 57.9031C89.8476 58.9298 90.4093 60.3163 90.9621 61.9925C91.515 63.6686 92.5417 67.5737 93.1999 68.5039C93.8581 69.4341 95.5254 69.7149 95.7097 68.2231C95.894 66.7312 95.0603 59.1053 94.8321 57.9031C94.604 56.7008 93.8493 56.8763 93.8493 56.8763Z" fill="white" stroke="#181F23" stroke-linecap="round" stroke-linejoin="round"/>
<path d="M100.449 56.3323C100.449 56.3323 96.1752 54.1999 95.245 54.1999C94.3148 54.1999 93.2881 55.4986 93.2881 57.2625C93.2881 59.0264 94.3148 65.1605 94.4026 66.4768C94.4904 67.7932 95.0607 69.1095 95.8944 68.8024C96.7281 68.4952 97.1932 68.2407 97.6495 66.3803C98.0432 63.8546 98.2922 61.3085 98.3955 58.7544" fill="white"/>
<path d="M100.449 56.3323C100.449 56.3323 96.1752 54.1999 95.245 54.1999C94.3148 54.1999 93.2881 55.4986 93.2881 57.2625C93.2881 59.0264 94.3148 65.1605 94.4026 66.4768C94.4904 67.7932 95.0607 69.1095 95.8944 68.8024C96.7281 68.4952 97.1932 68.2407 97.6495 66.3803C98.0432 63.8546 98.2922 61.3085 98.3955 58.7544" stroke="#181F23" stroke-linecap="round" stroke-linejoin="round"/>
<path d="M107.522 63.0193L102.625 70.1801C102.625 70.1801 103.09 72.0406 104.38 71.4789C105.67 70.9173 107.54 68.8463 108.935 67.3895C110.33 65.9328 111.173 65.8099 110.611 64.4146C110.119 63.4551 109.34 62.6729 108.382 62.1768C108.382 62.1768 106.144 58.2717 103.731 56.6921C101.318 55.1125 100.282 55.016 99.3433 56.5078C98.4043 57.9997 97.1143 66.6436 97.1143 68.3197C97.1143 69.9958 97.9918 70.9524 98.6938 70.461C99.3959 69.9695 100.554 68.0389 100.923 66.5558C101.291 65.0728 103.556 59.5354 103.556 59.5354" fill="white"/>
<path d="M107.522 63.0193L102.625 70.1801C102.625 70.1801 103.09 72.0406 104.38 71.4789C105.67 70.9173 107.54 68.8463 108.935 67.3895C110.33 65.9328 111.173 65.8099 110.611 64.4146C110.119 63.4551 109.34 62.6729 108.382 62.1768C108.382 62.1768 106.144 58.2717 103.731 56.6921C101.318 55.1125 100.282 55.016 99.3433 56.5078C98.4043 57.9997 97.1143 66.6436 97.1143 68.3197C97.1143 69.9958 97.9918 70.9524 98.6938 70.461C99.3959 69.9695 100.554 68.0389 100.923 66.5558C101.291 65.0728 103.556 59.5354 103.556 59.5354" stroke="#181F23" stroke-linecap="round" stroke-linejoin="round"/>
<path d="M64.1704 140.578L71.4278 129.046L79.7997 141.332C79.0226 143.266 78.4005 145.258 77.9393 147.291C77.5707 149.52 77.3864 153.802 76.6405 154.311C75.8946 154.82 69.5674 154.311 65.8466 152.635C62.1257 150.959 62.5031 148.177 62.8716 145.939C63.2402 143.702 64.1704 140.578 64.1704 140.578Z" fill="white" stroke="#263238" stroke-linecap="round" stroke-linejoin="round"/>
<path d="M74.5939 148.598C74.5939 148.598 75.3311 144.132 71.6102 143.201C67.8894 142.271 63.8 142.271 62.6855 143.947C61.571 145.624 58.7804 150.09 57.6571 150.275C56.5339 150.459 43.5197 146.922 40.3605 145.992C37.2013 145.062 37.1926 150.09 38.1228 153.249C39.053 156.409 46.1261 161.437 50.4085 162.903C54.691 164.368 58.9735 165.535 58.9735 165.535L58.5961 166.843C58.5961 166.843 72.3649 170.564 73.6725 170.564C74.98 170.564 75.3399 167.931 75.3399 167.931C75.3399 167.931 79.2537 166.255 79.2537 162.534C79.2537 158.813 79.438 151.74 79.438 151.74C79.438 151.74 77.1739 148.783 74.5939 148.598Z" fill="#181F23" stroke="white" stroke-linecap="round" stroke-linejoin="round"/>
<path d="M72.9222 166.088C71.3515 165.366 69.7365 164.745 68.0869 164.228C68.0869 164.228 66.2265 164.789 65.2963 164.974C64.3661 165.158 63.4359 164.974 59.1534 161.621C54.8709 158.269 43.8927 150.459 40.7248 148.783C38.8205 147.773 37.9956 149.335 37.6445 150.731C37.7239 151.583 37.8826 152.426 38.1184 153.249C39.0486 156.409 46.1217 161.437 50.4042 162.902C54.6866 164.368 58.9691 165.535 58.9691 165.535L58.5918 166.843C58.5918 166.843 72.3606 170.564 73.6681 170.564C74.9757 170.564 75.3355 167.931 75.3355 167.931C74.7048 167.117 73.8731 166.482 72.9222 166.088Z" fill="white" stroke="#263238" stroke-linecap="round" stroke-linejoin="round"/>
<path d="M65.4767 168.694L66.0295 165.526H58.9652L58.5879 166.834L65.4767 168.694Z" fill="#263238" stroke="#263238" stroke-linecap="round" stroke-linejoin="round"/>
<path d="M96.921 119.946C96.921 119.946 100.642 127.019 111.989 127.765C123.335 128.511 133.199 126.458 138.78 120.876C144.362 115.295 147.337 108.222 154.032 104.501C160.728 100.78 165.756 103.948 175.804 106.555C185.852 109.161 190.31 107.669 190.31 107.669C190.31 107.669 197.015 107.292 199.086 104.317C201.157 101.342 201.508 97.2527 203.553 99.2974C205.597 101.342 208.204 114.549 205.413 119.946C202.622 125.343 202.438 126.458 185.133 122.579C167.827 118.7 167.064 117.243 162.229 120.218C157.393 123.193 151.988 132.153 141.597 136.98C129.557 142.57 118.342 141.929 107.926 139.691C97.509 137.453 91.9189 127.23 91.9189 127.23" fill="#181F23"/>
<path d="M96.921 119.946C96.921 119.946 100.642 127.019 111.989 127.765C123.335 128.511 133.199 126.458 138.78 120.876C144.362 115.295 147.337 108.222 154.032 104.501C160.728 100.78 165.756 103.948 175.804 106.555C185.852 109.161 190.31 107.669 190.31 107.669C190.31 107.669 197.015 107.292 199.086 104.317C201.157 101.342 201.508 97.2527 203.553 99.2974C205.597 101.342 208.204 114.549 205.413 119.946C202.622 125.343 202.438 126.458 185.133 122.579C167.827 118.7 167.064 117.243 162.229 120.218C157.393 123.193 151.988 132.153 141.597 136.98C129.557 142.57 118.342 141.929 107.926 139.691C97.509 137.453 91.9189 127.23 91.9189 127.23" stroke="white" stroke-linecap="round" stroke-linejoin="round"/>
<path d="M168.092 72.0756C168.092 72.0756 165.301 69.3903 163.371 67.1438C161.721 65.3426 160.447 63.2303 159.623 60.9307C158.448 58.0347 157.157 55.7794 155.657 56.3147C154.156 56.8501 148.908 56.2094 148.259 57.28C147.61 58.3506 144.082 63.2825 143.766 64.3531C143.45 65.4238 145.583 66.9244 146.443 67.7844C147.303 68.6444 148.259 69.4956 149.014 69.4956C149.768 69.4956 150.62 68.1091 150.62 68.1091C151.498 69.1549 152.467 70.121 153.516 70.9962C154.511 71.5298 155.603 71.858 156.727 71.9615L162.87 78.6134L168.092 72.0756Z" fill="white" stroke="#181F23" stroke-linecap="round" stroke-linejoin="round"/>
<path d="M158.34 73.8921L164.334 68.3197L165.939 69.8203L159.832 75.2874L158.34 73.8921Z" fill="#181F23" stroke="#181F23" stroke-linecap="round" stroke-linejoin="round"/>
<path d="M150.621 68.1091L148.05 67.2491" stroke="#263238" stroke-linecap="round" stroke-linejoin="round"/>
<path d="M166.688 69.5571C166.698 70.0056 166.575 70.4471 166.333 70.825C166.091 71.203 165.742 71.5002 165.331 71.6788C164.919 71.8573 164.464 71.909 164.022 71.8274C163.581 71.7457 163.174 71.5342 162.854 71.2202C162.534 70.9061 162.314 70.5035 162.224 70.0641C162.134 69.6246 162.176 69.1682 162.347 68.7532C162.517 68.3381 162.807 67.9834 163.181 67.7342C163.554 67.485 163.993 67.3528 164.441 67.3544C164.734 67.351 165.024 67.4052 165.295 67.5142C165.566 67.6231 165.813 67.7845 166.022 67.9892C166.231 68.1938 166.397 68.4377 166.511 68.7067C166.625 68.9758 166.685 69.2648 166.688 69.5571Z" fill="white" stroke="#181F23" stroke-linecap="round" stroke-linejoin="round"/>
<path d="M216.708 53.1555C216.708 53.1555 220.613 55.016 222.289 56.6658C223.965 58.3156 225.08 59.4564 223.781 63.3615C222.482 67.2666 199.21 108.573 197.727 110.802C196.243 113.031 193.075 114.523 190.478 113.04C187.88 111.557 159.035 79.3593 159.035 79.3593L168.522 70.2503L187.749 87.0467L203.747 63.0456" fill="white"/>
<path d="M216.708 53.1555C216.708 53.1555 220.613 55.016 222.289 56.6658C223.965 58.3156 225.08 59.4564 223.781 63.3615C222.482 67.2666 199.21 108.573 197.727 110.802C196.243 113.031 193.075 114.523 190.478 113.04C187.88 111.557 159.035 79.3593 159.035 79.3593L168.522 70.2503L187.749 87.0467L203.747 63.0456" stroke="#181F23" stroke-linecap="round" stroke-linejoin="round"/>
<path d="M198.85 95.0062L187.714 87.0204L199.71 89.8637" stroke="#181F23" stroke-linecap="round" stroke-linejoin="round"/>
<ellipse cx="191.697" cy="25.6179" rx="1.31633" ry="1.75511" fill="#181F23"/>
<ellipse cx="180.289" cy="25.6179" rx="1.31633" ry="1.75511" fill="#181F23"/>
</svg>
