<svg width="36" height="29" viewBox="0 0 36 29" fill="none" xmlns="http://www.w3.org/2000/svg">
<path d="M10.5 0C7.03846 0 4.03846 2.79518 4.03846 6.63855C4.03846 8.96787 5.30768 11.0643 7.26922 11.996L0 29H5.53845L14.3077 12.2289C15.6923 9.66667 16.3846 8.15261 16.3846 6.05622C16.3846 2.56225 13.8462 0 10.5 0ZM30.1154 0C26.6538 0 23.6538 2.79518 23.6538 6.63855C23.6538 8.96787 24.9231 11.0643 26.8846 11.996L19.6154 29H25.1538L33.9231 12.2289C35.3077 9.66667 36 8.15261 36 6.05622C36 2.56225 33.4615 0 30.1154 0Z" fill="white"/>
</svg>
