<svg width="70" height="51" viewBox="0 0 70 51" fill="none" xmlns="http://www.w3.org/2000/svg">
<path d="M2.27639 30.1746C1.56791 30.6039 1.34164 31.5263 1.771 32.2348L8.76782 43.7801C9.19718 44.4886 10.1196 44.7149 10.8281 44.2855C11.5365 43.8561 11.7628 42.9337 11.3334 42.2253L5.11405 31.9628L15.3766 25.7434C16.085 25.314 16.3113 24.3916 15.8819 23.6831C15.4526 22.9746 14.5302 22.7484 13.8217 23.1777L2.27639 30.1746ZM69.0551 9.39227C69.4852 8.68425 69.2599 7.76161 68.5519 7.3315C67.8439 6.90139 66.9212 7.12668 66.4911 7.8347L69.0551 9.39227ZM2.69645 32.9142C10.2646 34.7707 22.5884 35.8165 35.1356 32.9644C47.712 30.1056 60.6042 23.3036 69.0551 9.39227L66.4911 7.8347C58.5651 20.8819 46.4723 27.3109 34.4707 30.039C22.4398 32.7737 10.5924 31.7622 3.41117 30.0006L2.69645 32.9142Z" fill="white"/>
</svg>
