<svg width="62" height="62" viewBox="0 0 62 62" fill="none" xmlns="http://www.w3.org/2000/svg">
<g clip-path="url(#clip0)">
<path fill-rule="evenodd" clip-rule="evenodd" d="M46.7583 58.3199C47.5767 58.8994 48.6315 59.0442 49.5719 58.6884C50.5123 58.33 51.2036 57.5269 51.4121 56.5534C53.6208 46.1732 58.9786 19.9 60.9891 10.4577C61.1416 9.74606 60.8874 9.00644 60.3282 8.53115C59.7691 8.05585 58.9939 7.9186 58.3025 8.17531C47.6453 12.12 14.8248 24.4344 1.40984 29.3982C0.558386 29.7134 0.00430288 30.5318 0.0322612 31.429C0.0627612 32.3288 0.667678 33.1091 1.53947 33.3709C7.55559 35.1704 15.4526 37.6739 15.4526 37.6739C15.4526 37.6739 19.1431 48.8191 21.0671 54.487C21.3086 55.1987 21.8652 55.7579 22.5997 55.951C23.3317 56.1417 24.1146 55.9409 24.661 55.4249C27.7517 52.5071 32.53 47.9956 32.53 47.9956C32.53 47.9956 41.6088 54.6522 46.7583 58.3199ZM18.7745 36.2658L23.042 50.3416L23.99 41.4279C23.99 41.4279 40.4778 26.5566 49.8769 18.0802C50.1514 17.8311 50.1895 17.4143 49.9608 17.122C49.7346 16.8297 49.3177 16.7611 49.0051 16.9593C38.1115 23.9159 18.7745 36.2658 18.7745 36.2658Z" fill="white"/>
</g>
<defs>
<clipPath id="clip0">
<rect width="61" height="61" fill="white" transform="translate(0.03125 0.422852)"/>
</clipPath>
</defs>
</svg>
