<svg width="300" height="203" viewBox="0 0 300 203" fill="none" xmlns="http://www.w3.org/2000/svg">
<mask id="path-1-inside-1" fill="white">
<path fill-rule="evenodd" clip-rule="evenodd" d="M0 166.909H296.5V171.862H284.176V189.823H296.5V194.776H0V189.823H5.86935L6.41151 171.862H0V166.909ZM278.75 189.823L279.292 171.862H268.723L268.181 189.823H278.75ZM11.2949 171.862L11.2949 189.823H24.5078V171.862H11.2949ZM235.156 171.862H245.726L245.184 189.823H234.614L235.156 171.862ZM250.609 189.823V171.862H263.277V189.823H250.609ZM229.711 189.823V171.862H216.826V189.823H229.711ZM211.401 189.823L211.943 171.862H200.449L199.907 189.823H211.401ZM195.004 189.823V171.862H182.715V189.823H195.004ZM177.289 189.823L177.831 171.862H167.262L166.72 189.823H177.289ZM143.506 189.823H132.013L132.555 171.862H144.048L143.506 189.823ZM148.932 189.823V171.862H161.816V189.823H148.932ZM108.799 189.823H97.3055L97.8477 171.862H109.341L108.799 189.823ZM114.225 189.823V171.862H127.109V189.823H114.225ZM29.411 189.823H40.9045L41.4467 171.862H29.9532L29.411 189.823ZM46.3301 171.862L46.3301 189.823H59.2148V171.862H46.3301ZM64.6602 171.862L64.118 189.823H74.6877L75.2299 171.862H64.6602ZM80.1133 171.862H92.4023V189.823H80.1133V171.862Z"/>
</mask>
<path d="M296.5 166.909H297.5V165.909H296.5V166.909ZM0 166.909V165.909H-1V166.909H0ZM296.5 171.862V172.862H297.5V171.862H296.5ZM284.176 171.862V170.862H283.176V171.862H284.176ZM284.176 189.823H283.176V190.823H284.176V189.823ZM296.5 189.823H297.5V188.823H296.5V189.823ZM296.5 194.776V195.776H297.5V194.776H296.5ZM0 194.776H-1V195.776H0V194.776ZM0 189.823V188.823H-1V189.823H0ZM5.86935 189.823V190.823H6.83962L6.86889 189.853L5.86935 189.823ZM6.41151 171.862L7.41106 171.892L7.44215 170.862H6.41151V171.862ZM0 171.862H-1V172.862H0V171.862ZM278.75 189.823V190.823H279.72L279.75 189.853L278.75 189.823ZM279.292 171.862L280.292 171.892L280.323 170.862H279.292V171.862ZM268.723 171.862V170.862H267.752L267.723 171.832L268.723 171.862ZM268.181 189.823L267.181 189.793L267.15 190.823H268.181V189.823ZM11.2949 189.823H10.2949V190.823H11.2949V189.823ZM11.2949 171.862V170.862H10.2949V171.862H11.2949ZM24.5078 189.823V190.823H25.5078V189.823H24.5078ZM24.5078 171.862H25.5078V170.862H24.5078V171.862ZM245.726 171.862L246.726 171.892L246.757 170.862H245.726V171.862ZM235.156 171.862V170.862H234.186L234.157 171.832L235.156 171.862ZM245.184 189.823V190.823H246.154L246.183 189.853L245.184 189.823ZM234.614 189.823L233.615 189.793L233.583 190.823H234.614V189.823ZM250.609 171.862V170.862H249.609V171.862H250.609ZM250.609 189.823H249.609V190.823H250.609V189.823ZM263.277 171.862H264.277V170.862H263.277V171.862ZM263.277 189.823V190.823H264.277V189.823H263.277ZM229.711 171.862H230.711V170.862H229.711V171.862ZM229.711 189.823V190.823H230.711V189.823H229.711ZM216.826 171.862V170.862H215.826V171.862H216.826ZM216.826 189.823H215.826V190.823H216.826V189.823ZM211.943 171.862L212.942 171.892L212.973 170.862H211.943V171.862ZM211.401 189.823V190.823H212.371L212.4 189.853L211.401 189.823ZM200.449 171.862V170.862H199.479L199.45 171.832L200.449 171.862ZM199.907 189.823L198.908 189.793L198.876 190.823H199.907V189.823ZM195.004 171.862H196.004V170.862H195.004V171.862ZM195.004 189.823V190.823H196.004V189.823H195.004ZM182.715 171.862V170.862H181.715V171.862H182.715ZM182.715 189.823H181.715V190.823H182.715V189.823ZM177.831 171.862L178.831 171.892L178.862 170.862H177.831V171.862ZM177.289 189.823V190.823H178.26L178.289 189.853L177.289 189.823ZM167.262 171.862V170.862H166.291L166.262 171.832L167.262 171.862ZM166.72 189.823L165.72 189.793L165.689 190.823H166.72V189.823ZM132.013 189.823L131.013 189.793L130.982 190.823H132.013V189.823ZM143.506 189.823V190.823H144.476L144.506 189.853L143.506 189.823ZM132.555 171.862V170.862H131.584L131.555 171.832L132.555 171.862ZM144.048 171.862L145.048 171.892L145.079 170.862H144.048V171.862ZM148.932 171.862V170.862H147.932V171.862H148.932ZM148.932 189.823H147.932V190.823H148.932V189.823ZM161.816 171.862H162.816V170.862H161.816V171.862ZM161.816 189.823V190.823H162.816V189.823H161.816ZM97.3055 189.823L96.306 189.793L96.2749 190.823H97.3055V189.823ZM108.799 189.823V190.823H109.769L109.799 189.853L108.799 189.823ZM97.8477 171.862V170.862H96.8774L96.8482 171.832L97.8477 171.862ZM109.341 171.862L110.341 171.892L110.372 170.862H109.341V171.862ZM114.225 171.862V170.862H113.225V171.862H114.225ZM114.225 189.823H113.225V190.823H114.225V189.823ZM127.109 171.862H128.109V170.862H127.109V171.862ZM127.109 189.823V190.823H128.109V189.823H127.109ZM40.9045 189.823V190.823H41.8748L41.904 189.853L40.9045 189.823ZM29.411 189.823L28.4115 189.793L28.3804 190.823H29.411V189.823ZM41.4467 171.862L42.4462 171.892L42.4773 170.862H41.4467V171.862ZM29.9532 171.862V170.862H28.9829L28.9536 171.832L29.9532 171.862ZM46.3301 189.823H45.3301V190.823H46.3301V189.823ZM46.3301 171.862V170.862H45.3301V171.862H46.3301ZM59.2148 189.823V190.823H60.2148V189.823H59.2148ZM59.2148 171.862H60.2148V170.862H59.2148V171.862ZM64.118 189.823L63.1185 189.793L63.0874 190.823H64.118V189.823ZM64.6602 171.862V170.862H63.6899L63.6607 171.832L64.6602 171.862ZM74.6877 189.823V190.823H75.658L75.6872 189.853L74.6877 189.823ZM75.2299 171.862L76.2294 171.892L76.2605 170.862H75.2299V171.862ZM92.4023 171.862H93.4023V170.862H92.4023V171.862ZM80.1133 171.862V170.862H79.1133V171.862H80.1133ZM92.4023 189.823V190.823H93.4023V189.823H92.4023ZM80.1133 189.823H79.1133V190.823H80.1133V189.823ZM296.5 165.909H0V167.909H296.5V165.909ZM297.5 171.862V166.909H295.5V171.862H297.5ZM284.176 172.862H296.5V170.862H284.176V172.862ZM283.176 171.862V189.823H285.176V171.862H283.176ZM296.5 188.823H284.176V190.823H296.5V188.823ZM297.5 194.776V189.823H295.5V194.776H297.5ZM0 195.776H296.5V193.776H0V195.776ZM-1 189.823V194.776H1V189.823H-1ZM5.86935 188.823H0V190.823H5.86935V188.823ZM5.41197 171.832L4.8698 189.793L6.86889 189.853L7.41106 171.892L5.41197 171.832ZM0 172.862H6.41151V170.862H0V172.862ZM-1 166.909V171.862H1V166.909H-1ZM279.75 189.853L280.292 171.892L278.293 171.832L277.751 189.793L279.75 189.853ZM268.723 172.862H279.292V170.862H268.723V172.862ZM269.18 189.853L269.722 171.892L267.723 171.832L267.181 189.793L269.18 189.853ZM278.75 188.823H268.181V190.823H278.75V188.823ZM12.2949 189.823L12.2949 171.862H10.2949L10.2949 189.823H12.2949ZM24.5078 188.823H11.2949V190.823H24.5078V188.823ZM23.5078 171.862V189.823H25.5078V171.862H23.5078ZM11.2949 172.862H24.5078V170.862H11.2949V172.862ZM245.726 170.862H235.156V172.862H245.726V170.862ZM246.183 189.853L246.726 171.892L244.726 171.832L244.184 189.793L246.183 189.853ZM234.614 190.823H245.184V188.823H234.614V190.823ZM234.157 171.832L233.615 189.793L235.614 189.853L236.156 171.892L234.157 171.832ZM249.609 171.862V189.823H251.609V171.862H249.609ZM263.277 170.862H250.609V172.862H263.277V170.862ZM264.277 189.823V171.862H262.277V189.823H264.277ZM250.609 190.823H263.277V188.823H250.609V190.823ZM228.711 171.862V189.823H230.711V171.862H228.711ZM216.826 172.862H229.711V170.862H216.826V172.862ZM217.826 189.823V171.862H215.826V189.823H217.826ZM229.711 188.823H216.826V190.823H229.711V188.823ZM210.943 171.832L210.401 189.793L212.4 189.853L212.942 171.892L210.943 171.832ZM200.449 172.862H211.943V170.862H200.449V172.862ZM200.907 189.853L201.449 171.892L199.45 171.832L198.908 189.793L200.907 189.853ZM211.401 188.823H199.907V190.823H211.401V188.823ZM194.004 171.862V189.823H196.004V171.862H194.004ZM182.715 172.862H195.004V170.862H182.715V172.862ZM183.715 189.823V171.862H181.715V189.823H183.715ZM195.004 188.823H182.715V190.823H195.004V188.823ZM176.832 171.832L176.29 189.793L178.289 189.853L178.831 171.892L176.832 171.832ZM167.262 172.862H177.831V170.862H167.262V172.862ZM167.719 189.853L168.261 171.892L166.262 171.832L165.72 189.793L167.719 189.853ZM177.289 188.823H166.72V190.823H177.289V188.823ZM132.013 190.823H143.506V188.823H132.013V190.823ZM131.555 171.832L131.013 189.793L133.012 189.853L133.554 171.892L131.555 171.832ZM144.048 170.862H132.555V172.862H144.048V170.862ZM144.506 189.853L145.048 171.892L143.049 171.832L142.507 189.793L144.506 189.853ZM147.932 171.862V189.823H149.932V171.862H147.932ZM161.816 170.862H148.932V172.862H161.816V170.862ZM162.816 189.823V171.862H160.816V189.823H162.816ZM148.932 190.823H161.816V188.823H148.932V190.823ZM97.3055 190.823H108.799V188.823H97.3055V190.823ZM96.8482 171.832L96.306 189.793L98.3051 189.853L98.8472 171.892L96.8482 171.832ZM109.341 170.862H97.8477V172.862H109.341V170.862ZM109.799 189.853L110.341 171.892L108.342 171.832L107.799 189.793L109.799 189.853ZM113.225 171.862V189.823H115.225V171.862H113.225ZM127.109 170.862H114.225V172.862H127.109V170.862ZM128.109 189.823V171.862H126.109V189.823H128.109ZM114.225 190.823H127.109V188.823H114.225V190.823ZM40.9045 188.823H29.411V190.823H40.9045V188.823ZM40.4471 171.832L39.905 189.793L41.904 189.853L42.4462 171.892L40.4471 171.832ZM29.9532 172.862H41.4467V170.862H29.9532V172.862ZM30.4106 189.853L30.9527 171.892L28.9536 171.832L28.4115 189.793L30.4106 189.853ZM47.3301 189.823L47.3301 171.862H45.3301L45.3301 189.823H47.3301ZM59.2148 188.823H46.3301V190.823H59.2148V188.823ZM58.2148 171.862V189.823H60.2148V171.862H58.2148ZM46.3301 172.862H59.2148V170.862H46.3301V172.862ZM65.1176 189.853L65.6597 171.892L63.6607 171.832L63.1185 189.793L65.1176 189.853ZM74.6877 188.823H64.118V190.823H74.6877V188.823ZM74.2303 171.832L73.6882 189.793L75.6872 189.853L76.2294 171.892L74.2303 171.832ZM64.6602 172.862H75.2299V170.862H64.6602V172.862ZM92.4023 170.862H80.1133V172.862H92.4023V170.862ZM93.4023 189.823V171.862H91.4023V189.823H93.4023ZM80.1133 190.823H92.4023V188.823H80.1133V190.823ZM79.1133 171.862V189.823H81.1133V171.862H79.1133Z" fill="white" mask="url(#path-1-inside-1)"/>
<path d="M222.5 105.058V92.7622L213.545 93.0236" fill="white"/>
<path d="M222.5 105.058V92.7622L213.545 93.0236" stroke="#263238" stroke-miterlimit="10" stroke-linecap="round"/>
<path d="M243.819 44.9994C243.819 44.9994 244.956 41.7721 243.126 42.4653C241.296 43.1585 241.046 48.2267 241.046 48.2267C241.046 48.2267 242.66 48.6927 243.126 47.9995C243.501 47.0382 243.734 46.0277 243.819 44.9994Z" fill="white" stroke="#263238" stroke-miterlimit="10" stroke-linecap="round"/>
<path d="M241.047 45.6923C241.047 45.6923 242.183 42.4649 240.354 43.1581C238.524 43.8513 238.274 48.9196 238.274 48.9196C238.274 48.9196 239.899 49.3855 240.354 48.6923C240.734 47.7328 240.968 46.7214 241.047 45.6923Z" fill="white" stroke="#263238" stroke-miterlimit="10" stroke-linecap="round"/>
<path d="M219.41 85.9208L230.412 53.9009L228.764 47.7814C235.747 37.5626 241.938 42.0661 240.767 47.5461L239.826 50.3705C239.12 51.0766 234.896 54.4208 234.592 54.5338L226.137 85.5572L225.262 106.808L216.591 109.637L219.41 85.9208Z" fill="white" stroke="#181F23" stroke-miterlimit="10" stroke-linecap="round"/>
<path d="M225.921 113.929L231.118 98.3462C228.434 97.3252 225.872 96.0558 223.472 94.5579C220.772 92.9957 217.779 91.8995 214.642 91.3242C214.642 91.3242 213.607 99.6962 213.021 102.354C212.435 105.012 212.826 112.066 214.286 116.744" fill="#181F23"/>
<path d="M225.921 113.929L231.118 98.3462C228.434 97.3252 225.872 96.0558 223.472 94.5579C220.772 92.9957 217.779 91.8995 214.642 91.3242C214.642 91.3242 213.607 99.6962 213.021 102.354C212.435 105.012 212.826 112.066 214.286 116.744" stroke="white" stroke-miterlimit="10" stroke-linecap="round" stroke-linejoin="round"/>
<path d="M216.594 95.8989C216.594 95.8989 219.196 98.7171 219.196 100.024C219.196 101.331 218.981 104.57 218.981 104.57L222.88 102.387L226.881 100.739C227.414 99.032 228.19 97.0704 228.958 95.4557C230.094 93.2852 232.208 92.2057 230.254 88.5124C228.299 84.8191 215.935 91.7738 216.594 95.8989Z" fill="white"/>
<path d="M218.297 73.7049L218.693 73.4005C218.693 73.4004 218.693 73.4003 218.693 73.4003C218.692 73.4011 218.673 73.4159 218.297 73.7049ZM218.297 73.7049L217.92 74.0341C218.098 74.2373 218.405 74.2627 218.614 74.0915C218.81 73.9306 218.853 73.6505 218.72 73.4396C218.712 73.411 218.692 73.318 218.702 73.13C218.723 72.7475 218.869 72.0141 219.436 70.7242C219.68 70.1699 220.209 69.5535 220.952 68.9728C221.688 68.3978 222.599 67.8849 223.557 67.5234C225.52 66.783 227.469 66.7452 228.597 67.7683C228.898 68.041 229.001 68.2337 229.031 68.3473C229.055 68.4368 229.044 68.5117 228.981 68.6097C228.907 68.7255 228.767 68.8577 228.552 69.0066C228.341 69.1528 228.092 69.2914 227.825 69.4352C227.791 69.4533 227.757 69.4716 227.723 69.4901C227.496 69.6122 227.256 69.7409 227.053 69.8706C226.833 70.0111 226.57 70.2031 226.423 70.4615C226.341 70.6044 226.288 70.7805 226.307 70.9789C226.326 71.1745 226.412 71.3423 226.522 71.4799C226.73 71.7376 227.078 71.9543 227.518 72.1585L227.537 72.1673C229.254 72.9627 232.374 74.4081 234.757 76.2852C235.955 77.228 236.927 78.2497 237.453 79.3157C237.968 80.3563 238.06 81.4372 237.511 82.5799C235.407 86.477 232.902 90.1433 230.037 93.5192C228.77 92.7197 227.546 91.8534 226.371 90.9238C225.358 89.8839 224.709 88.5439 224.522 87.1044C224.503 86.7256 224.409 86.4147 224.212 86.1638C224.021 85.9196 223.77 85.7869 223.579 85.6919C223.543 85.6742 223.507 85.6569 223.472 85.6396C223.128 85.4727 222.802 85.3137 222.47 84.8311C222.285 84.5622 222.121 84.1808 221.964 83.7185C221.84 83.3526 221.73 82.9634 221.617 82.5682C221.588 82.4667 221.559 82.3648 221.53 82.2628C221.39 81.7763 221.24 81.2829 221.061 80.8781C220.892 80.4975 220.647 80.0738 220.25 79.8725C220.078 79.7857 219.668 79.4969 219.137 79.0366C218.619 78.5866 218.016 78.0005 217.46 77.3459C216.903 76.6891 216.405 75.978 216.081 75.2781C215.756 74.5737 215.628 73.9267 215.741 73.3726C215.871 72.7309 216.068 72.6523 216.106 72.6414C216.191 72.6165 216.386 72.6426 216.711 72.8575C217.008 73.0545 217.304 73.3378 217.535 73.5851C217.648 73.7064 217.74 73.8143 217.805 73.8914C217.837 73.9298 217.861 73.9604 217.877 73.9808L217.895 74.0036L217.896 74.004C217.897 74.0063 217.899 74.0085 217.901 74.0107L217.911 74.023L217.916 74.0287L217.918 74.0315L217.919 74.0328C217.92 74.0335 217.92 74.0341 218.297 73.7049Z" fill="#181F23" stroke="white" stroke-linecap="round" stroke-linejoin="round"/>
<path d="M224.639 77.6368C224.639 77.6368 222.639 80.2392 223.503 81.7506C224.366 83.262 227.73 84.0233 227.457 84.9665C227.142 85.7208 226.921 86.5108 226.798 87.3189C226.662 88.5462 226.798 88.9894 227.446 88.7621C228.094 88.5348 229.719 85.8188 230.571 88.1598C230.947 89.1705 230.976 90.2777 230.653 91.3067C230.33 92.3356 229.673 93.2276 228.787 93.8417C228.349 94.1352 227.827 94.2765 227.301 94.2436C226.776 94.2108 226.275 94.0056 225.878 93.6599C225.878 93.6599 224.298 97.0691 222.469 97.5577C220.639 98.0464 213.252 97.2963 213.241 95.819C213.237 95.327 213.72 93.3537 214.445 90.8534C214.598 90.3248 214.941 89.0665 215.114 88.4998C215.37 87.6589 212.72 86.0526 213.702 84.4985C214.445 83.3217 216.997 86.1461 216.997 81.7506C217.232 79.0851 218.078 78.3154 218.88 77.4376C221.027 75.0853 224.639 77.6368 224.639 77.6368Z" fill="white"/>
<path d="M215.114 88.4998C215.37 87.6589 212.72 86.0526 213.702 84.4985C214.445 83.3217 216.997 86.1461 216.997 81.7506C217.232 79.0851 218.078 78.3154 218.88 77.4376C221.027 75.0853 224.639 77.6368 224.639 77.6368C224.639 77.6368 222.639 80.2392 223.503 81.7506C224.366 83.262 227.73 84.0233 227.457 84.9665C227.142 85.7208 226.921 86.5108 226.798 87.3189C226.662 88.5462 226.798 88.9894 227.446 88.7621C228.094 88.5348 229.719 85.8188 230.571 88.1598C230.947 89.1705 230.976 90.2777 230.653 91.3067C230.33 92.3356 229.673 93.2276 228.787 93.8417C228.349 94.1352 227.827 94.2765 227.301 94.2436C226.776 94.2108 226.275 94.0056 225.878 93.6599C225.878 93.6599 224.298 97.0691 222.469 97.5577C220.639 98.0464 213.252 97.2963 213.241 95.819C213.237 95.327 213.72 93.3537 214.445 90.8534M215.114 88.4998C214.941 89.0665 214.598 90.3248 214.445 90.8534M215.114 88.4998L214.445 90.8534" stroke="#181F23" stroke-miterlimit="10" stroke-linecap="round" stroke-linejoin="round"/>
<path d="M218.979 104.581C215.465 107.708 212.463 111.366 210.081 115.422C205.535 122.797 200.99 138.843 200.99 138.843H227.24C227.24 138.843 232.445 114.979 232.922 107.831C233.399 100.683 229.888 100.672 226.638 101.104C223.388 101.535 218.979 104.581 218.979 104.581Z" fill="#181F23" stroke="white" stroke-miterlimit="10" stroke-linecap="round"/>
<path d="M224.615 104.797L236.116 92.8644L260.902 50.7471L265.05 53.2358C264.402 54.6449 248.889 89.6372 247.411 93.0236C245.934 96.4101 229.411 116.888 229.411 116.888" fill="white"/>
<path d="M224.615 104.797L236.116 92.8644L260.902 50.7471L265.05 53.2358C264.402 54.6449 248.889 89.6372 247.411 93.0236C245.934 96.4101 229.411 116.888 229.411 116.888" stroke="#181F23" stroke-miterlimit="10" stroke-linecap="round"/>
<path d="M221.992 108.388C224.049 103.512 224.265 103.001 226.537 101.103C228.81 99.2055 235.276 92.7622 235.276 92.7622C237.285 95.1887 238.826 97.9668 239.822 100.956C240.656 103.714 241.772 106.38 243.151 108.91L228.56 118.888C228.56 118.888 222.083 122.149 221.901 108.399" fill="#181F23"/>
<path d="M221.992 108.388C224.049 103.512 224.265 103.001 226.537 101.103C228.81 99.2055 235.276 92.7622 235.276 92.7622C237.285 95.1887 238.826 97.9668 239.822 100.956C240.656 103.714 241.772 106.38 243.151 108.91L228.56 118.888C228.56 118.888 222.083 122.149 221.901 108.399" stroke="white" stroke-miterlimit="10" stroke-linecap="round" stroke-linejoin="round"/>
<path d="M184.003 136.07L199.515 109.967" stroke="white" stroke-miterlimit="10" stroke-linecap="round"/>
<path d="M243.828 183.264H248.066V197.196H243.828V183.264Z" fill="white"/>
<path d="M209.463 183.264H213.702V197.196H209.463V183.264Z" fill="white"/>
<path d="M176.807 183.264H181.046V197.196H176.807V183.264Z" fill="white"/>
<path d="M143.183 183.587H147.422V197.52H143.183V183.587Z" fill="white"/>
<path d="M240.673 194.776H251.674C253.155 194.776 254.355 195.977 254.355 197.458V199.367C254.355 200.848 253.155 202.049 251.674 202.049H240.673C239.192 202.049 237.991 200.848 237.991 199.367V197.458C237.991 195.977 239.192 194.776 240.673 194.776Z" fill="white"/>
<path d="M206.443 194.776H217.443C218.924 194.776 220.125 195.977 220.125 197.458V199.367C220.125 200.848 218.924 202.049 217.443 202.049H206.443C204.962 202.049 203.761 200.848 203.761 199.367V197.458C203.761 195.977 204.962 194.776 206.443 194.776Z" fill="white"/>
<path d="M173.422 194.776H184.423C185.904 194.776 187.104 195.977 187.104 197.458V199.367C187.104 200.848 185.904 202.049 184.423 202.049H173.422C171.941 202.049 170.74 200.848 170.74 199.367V197.458C170.74 195.977 171.941 194.776 173.422 194.776Z" fill="white"/>
<path d="M139.797 194.776H150.798C152.279 194.776 153.479 195.977 153.479 197.458V199.367C153.479 200.848 152.279 202.049 150.798 202.049H139.797C138.316 202.049 137.116 200.848 137.116 199.367V197.458C137.116 195.977 138.316 194.776 139.797 194.776Z" fill="white"/>
<path d="M178.945 125.067C181.453 124.199 184 126.117 184 128.772V181.526C184 183.735 182.209 185.526 180 185.526H139.307C137.254 185.526 135.561 183.989 135.586 181.936C135.716 171.115 139.508 138.717 178.945 125.067Z" fill="white" stroke="#263238" stroke-miterlimit="10" stroke-linecap="round"/>
<path d="M188.001 136.07H251.945C254.154 136.07 255.945 137.861 255.945 140.07V181.526C255.945 183.735 254.154 185.526 251.945 185.526H188.001C185.791 185.526 184.001 183.735 184.001 181.526V140.07C184.001 137.861 185.791 136.07 188.001 136.07Z" fill="white" stroke="#263238" stroke-miterlimit="10" stroke-linecap="round"/>
<path d="M260.698 136.911H283.426" stroke="white" stroke-miterlimit="10" stroke-linecap="round"/>
<path d="M267.823 146.001H296.301" stroke="white" stroke-miterlimit="10" stroke-linecap="round"/>
<path d="M259.186 146.001H263.277" stroke="white" stroke-miterlimit="10" stroke-linecap="round"/>
<path d="M293.89 70.2402H298.572" stroke="white" stroke-miterlimit="10" stroke-linecap="round"/>
<path d="M261.462 70.2388H289.349" stroke="white" stroke-miterlimit="10" stroke-linecap="round"/>
<circle cx="220.042" cy="161.615" r="2.76444" fill="#181F23"/>
<path d="M205.105 171.77C203.759 169.844 202.816 167.686 202.329 165.417" stroke="#181F23" stroke-linecap="round" stroke-linejoin="round"/>
<path d="M216.24 179.314C213.294 178.676 210.557 177.316 208.278 175.357L212.554 170.976C214.629 172.654 217.21 173.593 219.887 173.643C222.563 173.694 225.179 172.852 227.316 171.254" stroke="#181F23" stroke-linecap="round" stroke-linejoin="round"/>
<path d="M209.142 167.005C208.37 165.465 207.942 163.776 207.887 162.055C207.832 160.333 208.151 158.621 208.824 157.035C209.496 155.449 210.504 154.028 211.779 152.87C213.055 151.712 214.566 150.844 216.21 150.327" stroke="#181F23" stroke-linecap="round" stroke-linejoin="round"/>
<path d="M230.102 168.272C231.349 166.362 232.013 164.127 232.011 161.843H238.025C238.026 165.467 236.925 169.006 234.87 171.985C232.815 174.965 229.903 177.245 226.523 178.521" stroke="#181F23" stroke-linecap="round" stroke-linejoin="round"/>
<path d="M230.886 157.148C230.02 154.903 228.515 152.975 226.564 151.617C224.614 150.259 222.309 149.533 219.95 149.533V155.7C221.314 155.701 222.634 156.201 223.669 157.11C224.705 158.018 225.389 159.276 225.598 160.656C225.807 162.035 225.526 163.446 224.808 164.632C224.089 165.819 222.979 166.704 221.679 167.127C220.379 167.55 218.973 167.483 217.717 166.939C216.46 166.395 215.435 165.409 214.827 164.159C214.219 162.909 214.067 161.478 214.4 160.125C214.733 158.771 215.528 157.583 216.641 156.776" stroke="#181F23" stroke-linecap="round" stroke-linejoin="round"/>
<path d="M230.489 147.15C233.698 149.41 236.063 152.614 237.232 156.283" stroke="#181F23" stroke-linecap="round" stroke-linejoin="round"/>
<path d="M201.932 161.842C201.933 158.912 202.632 156.025 203.969 153.425C205.306 150.825 207.242 148.588 209.614 146.902C211.986 145.217 214.724 144.132 217.598 143.74C220.472 143.348 223.396 143.66 226.126 144.65" stroke="#181F23" stroke-linecap="round" stroke-linejoin="round"/>
<path d="M219.339 83.9962C219.077 84.6507 218.618 85.0877 218.311 84.9634C218.004 84.8392 217.935 84.1854 218.227 83.5562C218.519 82.927 218.943 82.4597 219.255 82.5779C219.567 82.6961 219.6 83.3306 219.339 83.9962Z" fill="#181F23"/>
<path d="M214.642 91.1415C214.642 91.1415 215.819 91.9873 217.433 90.5696" stroke="#181F23" stroke-miterlimit="10" stroke-linecap="round"/>
<path d="M231.128 86.1859C230.834 86.8237 230.355 87.2351 230.056 87.096C229.757 86.9569 229.722 86.3032 230.044 85.6921C230.366 85.081 230.811 84.6376 231.115 84.7709C231.42 84.9043 231.421 85.537 231.128 86.1859Z" fill="#181F23"/>
<path fill-rule="evenodd" clip-rule="evenodd" d="M206.641 0.943359H289.489V0.944768L286.61 4.90546L289.489 8.86615V8.86873L286.61 12.8294L289.489 16.7901V16.7927L286.61 20.7534L289.489 24.7141V24.7167L286.61 28.6774L289.489 32.6381V32.6407L286.61 36.6013L289.489 40.562V40.5643L285.724 44.5253L289.489 48.4863V48.4872H206.641L209.52 44.5252L206.641 40.5632L209.52 36.6012L206.641 32.6393L209.52 28.6773L206.641 24.7153L209.52 20.7533L206.641 16.7913L209.52 12.8293L206.641 8.86733L210.406 4.90535L206.641 0.943359Z" fill="white"/>
<path d="M218.881 0.943359V48.4872M277.487 0.943359V48.4872" stroke="black" stroke-linecap="round" stroke-dasharray="5 5"/>
<path d="M240.747 28.2886C240.747 25.3441 238.183 24.6027 235.832 24.0308V19.7518C236.955 19.8789 238.141 20.2391 239.264 20.8957L240.132 18.7563C238.988 18.0149 237.4 17.5488 235.832 17.4641V15.1128H234.095V17.5065C230.791 17.8242 229.223 19.7095 229.223 21.8701C229.223 24.8146 231.744 25.5771 234.095 26.1491V30.3857C232.485 30.2374 230.896 29.6231 229.859 28.7758L228.905 30.9152C230.007 31.8685 232.019 32.5463 234.095 32.6734V35.0247H235.832V32.6522C239.158 32.3133 240.747 30.4492 240.747 28.2886ZM231.956 21.743C231.956 20.811 232.591 20.0484 234.095 19.8154V23.586C232.866 23.2258 231.956 22.7598 231.956 21.743ZM235.832 30.3433V26.5939C237.103 26.954 238.035 27.4412 238.035 28.4792C238.035 29.3901 237.378 30.1103 235.832 30.3433Z" fill="#181F23"/>
<path d="M248.627 23.7766L252.228 19.4977V17.6547H242.124V19.9637H248.86L245.492 23.9672V25.8525H246.848C249.093 25.8525 250.067 26.721 250.067 28.0555C250.067 29.4324 248.902 30.3009 246.932 30.3009C245.259 30.3009 243.649 29.729 242.59 28.8393L241.404 30.9788C242.781 32.0591 244.878 32.6946 246.975 32.6946C250.957 32.6946 252.842 30.5339 252.842 28.0344C252.842 25.8102 251.423 24.1367 248.627 23.7766Z" fill="#181F23"/>
<path d="M260.829 32.6946C264.367 32.6946 267.036 29.9408 267.036 25.0688C267.036 20.1967 264.367 17.4429 260.829 17.4429C257.313 17.4429 254.644 20.1967 254.644 25.0688C254.644 29.9408 257.313 32.6946 260.829 32.6946ZM260.829 30.3009C258.817 30.3009 257.419 28.6487 257.419 25.0688C257.419 21.4888 258.817 19.8366 260.829 19.8366C262.863 19.8366 264.261 21.4888 264.261 25.0688C264.261 28.6487 262.863 30.3009 260.829 30.3009Z" fill="#181F23"/>
<path d="M234.647 54.6065L239.931 50.2001L241.002 46.6039C241.002 46.6039 242.725 44.0734 242.179 43.5443C241.633 43.0151 237.232 47.5857 237.232 47.5857C237.232 47.5857 234.52 47.0982 232.628 50.137" stroke="#181F23" stroke-linecap="round" stroke-linejoin="round"/>
<path d="M230.645 53.6652L228.998 48.7218L233.8 48.7219" stroke="#181F23" stroke-linecap="round" stroke-linejoin="round"/>
<path d="M262.331 55.9101L266.594 51.9374C266.594 51.9374 268.7 50.0388 269.316 49.2346C269.932 48.4303 269.945 47.9422 269.735 47.4554C268.639 46.9909 268.66 48.294 268.735 48.2125C268.735 48.2125 268.331 48.4197 267.972 48.2125C267.612 48.0053 268.405 45.1022 268.405 45.1022C268.405 45.1022 269.87 38.5002 269.377 38.297C268.884 38.0937 267.243 42.1525 267.243 42.1525C267.243 42.1525 268.235 37.6307 267.978 37.5657C267.721 37.5007 266.287 39.9106 266.287 39.9106C266.287 39.9106 266.572 38.0561 266.157 38.0618C265.741 38.0674 264.839 39.831 264.839 39.831C264.839 39.831 261.7 43.1754 261.139 43.9535C260.577 44.7316 260.091 50.7056 260.091 50.7056L258.041 56.1456C258.041 56.1456 260.113 53.9415 261.377 55.6922L262.331 55.9101Z" fill="white"/>
<path d="M266.382 44.7205C266.382 44.7205 268.863 38.3297 269.455 38.4038C270.046 38.478 268.739 43.2278 268.602 44.3822C268.466 45.5366 267.647 48.4448 267.772 48.7024L269.753 48.7025C269.753 48.7025 268.471 51.6216 264.711 53.9736" stroke="#181F23" stroke-linecap="round" stroke-linejoin="round"/>
<path d="M266.392 44.4708C266.392 44.4708 268.482 37.6305 267.969 37.5526C267.113 37.4206 265.473 41.9573 264.934 43.8424" stroke="#263238" stroke-linecap="round" stroke-linejoin="round"/>
<path d="M264.898 43.8805C264.898 43.8805 266.959 38.1246 266.157 38.05C265.355 37.9753 262.677 44.4486 262.677 44.4486" stroke="#263238" stroke-linecap="round" stroke-linejoin="round"/>
<path d="M257.893 55.8849L260.074 50.8283C260.074 50.8283 260.636 44.9881 260.963 44.2015C261.165 43.7161 262.268 41.903 263.082 40.5861C263.386 40.0949 264.133 40.2565 264.211 40.8287V40.8287" stroke="#181F23" stroke-linecap="round" stroke-linejoin="round"/>
</svg>
