<svg width="59" height="58" viewBox="0 0 59 58" fill="none" xmlns="http://www.w3.org/2000/svg">
<path d="M4.28455 57.8243C4.08931 58.0216 3.77276 58.0248 3.57752 57.8315L0.39591 54.6821C0.200671 54.4888 0.200671 54.1722 0.395909 53.9749C0.591151 53.7776 0.907694 53.7744 1.10293 53.9676L3.93104 56.7672L6.75914 53.9095C6.95438 53.7122 7.27093 53.709 7.46616 53.9023C7.6614 54.0955 7.6614 54.4121 7.46616 54.6094L4.28455 57.8243ZM57.6193 0.885956C57.6923 0.618892 57.9674 0.459416 58.2337 0.529756C58.5 0.600099 58.6566 0.873622 58.5835 1.14069L57.6193 0.885956ZM3.43109 57.4795C3.43109 46.0165 6.05728 39.4608 10.3094 35.4381C14.5352 31.4402 20.2852 30.0361 26.258 28.6659C32.2738 27.2859 38.559 25.9341 44.1261 22.1398C49.6686 18.3622 54.544 12.1265 57.6193 0.885956L58.5835 1.14069C55.4572 12.5681 50.4605 19.0269 44.6833 22.9644C38.9306 26.8853 32.4484 28.2696 26.472 29.6406C20.4527 31.0215 14.9856 32.3836 10.9925 36.1613C7.02569 39.9142 4.43098 46.1435 4.43098 57.4692L3.43109 57.4795Z" fill="white"/>
</svg>
