<svg width="55" height="56" viewBox="0 0 55 56" fill="none" xmlns="http://www.w3.org/2000/svg">
<path fill-rule="evenodd" clip-rule="evenodd" d="M27.4784 0.610352C20.2016 0.61882 13.2254 3.51189 8.07994 8.65492C2.93452 13.7979 0.0401031 20.7709 0.0316303 28.0443C0.0207386 33.3191 1.54457 38.4832 4.41756 42.9079L0.245054 52.0916C0.0567794 52.5061 -0.00910285 52.9658 0.0551758 53.4165C0.119454 53.8672 0.311214 54.2901 0.607876 54.6355C0.832467 54.8988 1.11134 55.1104 1.42539 55.2558C1.73944 55.4013 2.08123 55.4771 2.42734 55.4782C2.64215 55.4772 2.8558 55.4467 3.06229 55.3875L14.55 52.2409C18.5282 54.3645 22.9684 55.4763 27.4784 55.4782C34.7551 55.4697 41.7313 52.5766 46.8768 47.4336C52.0222 42.2906 54.9166 35.3176 54.9251 28.0443C54.9166 20.7709 52.0222 13.7979 46.8768 8.65492C41.7313 3.51189 34.7551 0.61882 27.4784 0.610352ZM27.4784 50.6837C23.47 50.6827 19.5335 49.619 16.0707 47.6011C15.7044 47.3884 15.2884 47.2762 14.8648 47.2758C14.6502 47.2749 14.4366 47.3036 14.2299 47.3611L6.72256 49.4197L9.33706 43.6598C9.51233 43.2763 9.58294 42.8532 9.5417 42.4336C9.50047 42.014 9.34886 41.6127 9.10228 41.2706C6.31482 37.4245 4.82025 32.7935 4.83374 28.0443C4.8408 22.0425 7.22847 16.2885 11.4733 12.0436C15.7182 7.79872 21.4738 5.40944 27.4784 5.39956C33.4848 5.40661 39.2431 7.79465 43.4903 12.0398C47.7374 16.285 50.1266 22.0407 50.1336 28.0443C50.1266 34.0474 47.7373 39.8025 43.4899 44.0468C39.2426 48.2912 33.4843 50.678 27.4784 50.6837Z" fill="white"/>
<path fill-rule="evenodd" clip-rule="evenodd" d="M38.0319 32.172C36.8794 31.4841 35.364 30.7161 34.0301 31.2707C32.9897 31.6974 32.328 33.3187 31.6557 34.1506C31.5122 34.3458 31.3022 34.4818 31.0653 34.5329C30.8285 34.5839 30.5811 34.5466 30.3698 34.428C26.5701 32.9388 23.3838 30.2124 21.3258 26.6895C21.1522 26.4663 21.0704 26.1852 21.0972 25.9036C21.1239 25.6221 21.2573 25.3614 21.4699 25.1749C22.1209 24.4122 22.9372 23.5429 23.108 22.5083C23.2787 21.4737 22.8038 20.2684 22.377 19.351C21.8434 18.1777 21.2245 16.5085 20.0453 15.8418C18.9782 15.2338 17.5429 15.5752 16.5771 16.3751C15.7805 17.0635 15.1481 17.9213 14.7262 18.8856C14.3043 19.8499 14.1035 20.8964 14.1387 21.9483C14.1444 22.5431 14.2178 23.1354 14.3575 23.7136C14.7301 25.0938 15.3016 26.4125 16.0542 27.6282C16.6011 28.5464 17.1941 29.4364 17.831 30.2947C19.9069 33.1457 22.5162 35.5672 25.5144 37.4252C27.0231 38.3646 28.6342 39.1286 30.3165 39.7025C32.1946 40.3211 33.87 40.9665 35.8976 40.5825C38.0319 40.1825 40.1128 38.8652 40.9558 36.8492C41.226 36.2476 41.3079 35.5783 41.1906 34.9293C40.8918 33.5747 39.099 32.7907 38.0319 32.172Z" fill="white"/>
</svg>
