<svg width="53" height="52" viewBox="0 0 53 52" fill="none" xmlns="http://www.w3.org/2000/svg">
<path d="M22.7545 0C18.2541 0 13.8548 1.33453 10.1128 3.83483C6.37084 6.33513 3.45433 9.8889 1.7321 14.0467C0.00985922 18.2046 -0.440756 22.7798 0.437232 27.1937C1.31522 31.6077 3.48238 35.6621 6.66466 38.8444C9.84694 42.0267 13.9014 44.1938 18.3154 45.0718C22.7293 45.9498 27.3045 45.4992 31.4623 43.777C35.6202 42.0547 39.1739 39.1382 41.6742 35.3963C44.1745 31.6543 45.5091 27.2549 45.5091 22.7545C45.5091 16.7197 43.1117 10.9319 38.8444 6.66465C34.5771 2.39735 28.7894 0 22.7545 0ZM22.7545 41.546C18.997 41.5458 15.3241 40.4293 12.2022 38.338C9.08034 36.2468 6.65015 33.2752 5.2201 29.8004C3.79006 26.3256 3.42464 22.5042 4.17024 18.8213C4.91583 15.1385 6.73882 11.7601 9.40782 9.11516C12.0768 6.47019 15.4715 4.67781 19.1609 3.96554C22.8504 3.25327 26.6683 3.65322 30.1301 5.11462C33.5918 6.57602 36.5413 9.03298 38.6042 12.1737C40.6672 15.3143 41.7505 18.9971 41.7166 22.7545C41.6716 27.754 39.654 32.5333 36.1028 36.0526C32.5516 39.5718 27.7542 41.5462 22.7545 41.546Z" fill="white"/>
<path d="M52.5441 48.7128L42.7407 38.9094C41.9328 39.9089 41.0518 40.8469 40.1049 41.7158L49.8704 51.4813C50.2332 51.7919 50.6998 51.9543 51.177 51.9358C51.6542 51.9174 52.1069 51.7196 52.4446 51.3819C52.7823 51.0442 52.9802 50.5915 52.9986 50.1142C53.017 49.637 52.8547 49.1704 52.5441 48.8076V48.7128Z" fill="white"/>
<path d="M32.2356 20.8583H24.6507V13.2734C24.6507 12.7705 24.451 12.2882 24.0953 11.9326C23.7397 11.577 23.2574 11.3772 22.7545 11.3772C22.2516 11.3772 21.7693 11.577 21.4137 11.9326C21.0581 12.2882 20.8583 12.7705 20.8583 13.2734V20.8583H13.2735C12.7706 20.8583 12.2883 21.058 11.9326 21.4136C11.577 21.7692 11.3773 22.2516 11.3773 22.7545C11.3773 23.2574 11.577 23.7397 11.9326 24.0953C12.2883 24.4509 12.7706 24.6507 13.2735 24.6507H20.8583V32.2355C20.8583 32.7384 21.0581 33.2207 21.4137 33.5763C21.7693 33.9319 22.2516 34.1317 22.7545 34.1317C23.2574 34.1317 23.7397 33.9319 24.0953 33.5763C24.451 33.2207 24.6507 32.7384 24.6507 32.2355V24.6507H32.2356C32.7385 24.6507 33.2208 24.4509 33.5764 24.0953C33.932 23.7397 34.1318 23.2574 34.1318 22.7545C34.1318 22.2516 33.932 21.7692 33.5764 21.4136C33.2208 21.058 32.7385 20.8583 32.2356 20.8583Z" fill="white"/>
</svg>
