<svg id="money_2_" data-name="money (2)" xmlns="http://www.w3.org/2000/svg" width="57.752" height="40.371" viewBox="0 0 57.752 40.371">
  <g id="Сгруппировать_3" data-name="Сгруппировать 3" transform="translate(0 0)">
    <g id="Сгруппировать_2" data-name="Сгруппировать 2">
      <path id="Контур_6" data-name="Контур 6" d="M57.591,97.579c-.3-1.414-1.828-2.552-4.6-3.391A32.4,32.4,0,0,0,44.533,93l-.31-13.082c-.425-1.287-1.954-2.334-4.541-3.115A34.139,34.139,0,0,0,30.175,75.6a33.223,33.223,0,0,0-9.415,1.207c-2.081.644-4.575,1.839-4.575,3.9a2.116,2.116,0,0,0,.034.379l.126,5.242a13.763,13.763,0,1,0,6.081,24.2,34.326,34.326,0,0,0,7.391.8c.586,3.184,7.495,4.644,13.932,4.644a33.394,33.394,0,0,0,9.426-1.219c2.1-.644,4.575-1.851,4.575-3.908ZM21.4,79.014A31.138,31.138,0,0,1,30.152,77.9,32.214,32.214,0,0,1,39,79.014c2.506.759,3.046,1.54,3.046,1.7s-.54.943-3.046,1.7a32.511,32.511,0,0,1-8.84,1.115A31.561,31.561,0,0,1,21.692,82.5c-2.471-.713-3.173-1.506-3.23-1.759,0-.011-.011-.023-.023-.035C18.438,80.462,19.209,79.692,21.4,79.014Zm20.829,4.541v2.874a1.165,1.165,0,0,0-.184.644c0,.149-.54.943-3.035,1.7a32.066,32.066,0,0,1-8.84,1.115,32.888,32.888,0,0,1-7.828-.862c-.034-.011-.069-.011-.092-.023a13.2,13.2,0,0,0-3.587-2.035l-.08-3.242a12.736,12.736,0,0,0,2.483.954A33.977,33.977,0,0,0,30.187,85.8a33.994,33.994,0,0,0,9.5-1.207A11.324,11.324,0,0,0,42.234,83.555ZM21.462,108.316a11.457,11.457,0,1,1-7.713-19.933,11.708,11.708,0,0,1,3.391.506,11.191,11.191,0,0,1,4.069,2.265,11.442,11.442,0,0,1,3.77,6.38,12.022,12.022,0,0,1,.23,2.311A11.371,11.371,0,0,1,21.462,108.316Zm2.92.253a13.88,13.88,0,0,0,2.207-3.782c.989.08,2.023.138,3.092.149a1.182,1.182,0,0,0,0,.4l.046,3.7A34.979,34.979,0,0,1,24.381,108.568Zm3.069-10.093c.678.046,1.379.069,2.1.08a1.837,1.837,0,0,0,.057.241l.046,3.828c-.828-.011-1.644-.046-2.414-.1a14.131,14.131,0,0,0,.264-2.69C27.508,99.384,27.485,98.935,27.451,98.476Zm2.8-2.207h-.092c-1.115,0-2.173-.046-3.161-.126a13.844,13.844,0,0,0-2.046-4.276,41.54,41.54,0,0,0,5.207.333,33.994,33.994,0,0,0,9.5-1.207,12.168,12.168,0,0,0,2.563-1.058V93A32.564,32.564,0,0,0,34.5,94.061,8.961,8.961,0,0,0,30.256,96.268Zm1.586,1.713c.2-.356,1.058-1.058,3.3-1.678a31.838,31.838,0,0,1,8.265-.977H43.5a32.07,32.07,0,0,1,8.84,1.092c2.414.736,3,1.471,3.035,1.667V98.1c-.012.172-.575.966-3.127,1.724A32.02,32.02,0,0,1,43.5,100.9a32.847,32.847,0,0,1-8.231-.954c-2.161-.586-3.092-1.264-3.368-1.655A.985.985,0,0,0,31.842,97.981Zm23.611,12.852c0,.161-.506.954-2.954,1.713a30.89,30.89,0,0,1-8.759,1.127,31.339,31.339,0,0,1-8.725-1.092c-2.2-.678-2.931-1.437-2.931-1.69v-.023l-.011-.7-.034-2.6A14.2,14.2,0,0,0,34.9,108.6a35.184,35.184,0,0,0,8.6.977,33.737,33.737,0,0,0,9.461-1.207,10.289,10.289,0,0,0,2.494-1.046Zm-.149-6.368c0,.161-.529.943-3,1.7a31.747,31.747,0,0,1-8.817,1.1c-6.253,0-10.507-1.391-11.5-2.494l-.046-3.633c2.713,1.414,7.277,2.058,11.553,2.058a34.32,34.32,0,0,0,9.38-1.173,12.572,12.572,0,0,0,2.586-1.046v2.874h0C55.453,104.028,55.3,104.235,55.3,104.465Z" transform="translate(0 -75.6)" fill="#fff"/>
    </g>
  </g>
  <g id="Сгруппировать_5" data-name="Сгруппировать 5" transform="translate(6.173 16.645)">
    <g id="Сгруппировать_4" data-name="Сгруппировать 4" transform="translate(0 0)">
      <path id="Контур_7" data-name="Контур 7" d="M61.287,220.4a7.587,7.587,0,1,0,7.587,7.587A7.587,7.587,0,0,0,61.287,220.4Zm0,12.886A5.288,5.288,0,1,1,66.575,228,5.289,5.289,0,0,1,61.287,233.286Z" transform="translate(-53.7 -220.4)" fill="#fff"/>
    </g>
  </g>
</svg>
