<svg xmlns="http://www.w3.org/2000/svg" width="17.577" height="21.633" viewBox="0 0 17.577 21.633">
  <g id="delete" transform="translate(-48)">
    <path id="Контур_16" data-name="Контур 16" d="M63.887,2.7H60.168V2.028A2.028,2.028,0,0,0,58.14,0h-2.7a2.028,2.028,0,0,0-2.028,2.028V2.7H49.69A1.69,1.69,0,0,0,48,4.394V5.746a.676.676,0,0,0,.676.676H64.9a.676.676,0,0,0,.676-.676V4.394A1.69,1.69,0,0,0,63.887,2.7ZM54.76,2.028a.677.677,0,0,1,.676-.676h2.7a.677.677,0,0,1,.676.676V2.7H54.76Z" transform="translate(0)" fill="#d20000"/>
    <path id="Контур_17" data-name="Контур 17" d="M73.575,184a.211.211,0,0,0-.211.221l.558,11.706a2.026,2.026,0,0,0,2.026,1.932H86.214a2.026,2.026,0,0,0,2.026-1.932l.558-11.706a.211.211,0,0,0-.211-.221Zm10.21,1.69a.676.676,0,1,1,1.352,0v8.788a.676.676,0,0,1-1.352,0Zm-3.38,0a.676.676,0,1,1,1.352,0v8.788a.676.676,0,0,1-1.352,0Zm-3.38,0a.676.676,0,1,1,1.352,0v8.788a.676.676,0,0,1-1.352,0Z" transform="translate(-24.293 -176.226)" fill="#d20000"/>
  </g>
</svg>
