<svg width="65" height="87" viewBox="0 0 65 87" fill="none" xmlns="http://www.w3.org/2000/svg">
<path d="M32.4148 39.4422C42.8286 39.4422 51.2707 31.0001 51.2707 20.5863C51.2707 10.1725 42.8286 1.73047 32.4148 1.73047C22.001 1.73047 13.559 10.1725 13.559 20.5863C13.559 31.0001 22.001 39.4422 32.4148 39.4422Z" fill="white" stroke="#282D26" stroke-width="2.5"/>
<path d="M41.9877 17.1039H35.8973V11.0137H28.932V17.1039H22.8416V24.0694H28.932V30.1596H35.8973V24.0694H41.9877V17.1039Z" fill="#C1CB8F" stroke="#282D26" stroke-width="1.9"/>
<path d="M20.0119 77.1781C13.7459 71.3945 10.5687 66.3015 10.5687 62.0405C10.5687 61.4919 10.5913 60.9412 10.6357 60.4037C10.6498 60.2649 10.6796 60.0592 10.714 59.8218C10.8127 59.1407 10.962 58.1114 10.9827 56.9773C10.9829 56.9699 10.9829 56.9624 10.9829 56.9549C10.9829 55.1186 10.5772 52.9377 10.1474 50.6286C9.51906 47.2524 8.78827 43.3246 9.15335 39.4212L11.6424 41.2722C11.8604 41.4343 12.1148 41.5124 12.367 41.5124C12.7384 41.5124 13.1049 41.3428 13.3435 41.022C13.7443 40.4832 13.6323 39.7216 13.0934 39.3208L9.59785 36.7216C9.84636 35.6972 10.1915 34.6839 10.6558 33.6922C10.9404 33.0842 10.6783 32.3604 10.0702 32.0755C9.46233 31.7909 8.73851 32.053 8.45352 32.6611C8.06624 33.4883 7.75126 34.3229 7.49869 35.1605L4.86328 33.2004V16.6516C6.2785 16.1497 7.29492 14.7976 7.29492 13.2123C7.29492 11.201 5.65875 9.5647 3.64746 9.5647C1.63617 9.5647 0 11.201 0 13.2123C0 14.7976 1.01643 16.1497 2.43164 16.6516V33.8114C2.43164 34.1959 2.61353 34.5576 2.92186 34.7871L6.90618 37.75C6.41353 40.8142 6.61244 43.8674 7.0148 46.7194C3.16989 47.2618 0.500107 50.1554 0.500107 53.9968C0.500107 58.0604 3.80617 61.3663 7.8696 61.3663C7.96233 61.3663 8.05489 61.3645 8.14729 61.3611C8.14048 61.5874 8.13708 61.814 8.13708 62.0403C8.13708 67.0078 11.5775 72.7021 18.3628 78.9649C18.5965 79.1806 18.8922 79.2873 19.1871 79.2873C19.5147 79.2873 19.8412 79.1557 20.0808 78.8961C20.5362 78.4027 20.5054 77.6335 20.0119 77.1781ZM3.64746 11.9963C4.31795 11.9963 4.86328 12.5418 4.86328 13.2123C4.86328 13.8828 4.31795 14.4283 3.64746 14.4283C2.97698 14.4283 2.43164 13.8828 2.43164 13.2123C2.43164 12.5418 2.97698 11.9963 3.64746 11.9963ZM2.93175 53.9968C2.93175 51.386 4.72662 49.4824 7.40046 49.1212C7.51798 49.7883 7.63924 50.4398 7.7571 51.0733C8.16464 53.2639 8.54981 55.3332 8.55159 56.9436C8.53765 57.6632 8.46341 58.3395 8.38738 58.9077C8.21603 58.9255 8.04322 58.9346 7.86976 58.9346C5.14681 58.9346 2.93175 56.7196 2.93175 53.9968Z" fill="#282D26"/>
<path d="M57.9772 46.7192C58.3844 43.8337 58.5831 40.7422 58.0681 37.6417L61.907 34.787C62.2155 34.5574 62.3972 34.1958 62.3972 33.8112V16.6516C63.8125 16.1497 64.8289 14.7976 64.8289 13.2123C64.8289 11.201 63.1927 9.5647 61.1814 9.5647C59.1701 9.5647 57.534 11.201 57.534 13.2123C57.534 14.7976 58.5504 16.1497 59.9656 16.6516V33.2004L57.4631 35.0613C57.2157 34.2567 56.9103 33.4554 56.5383 32.6606C56.2536 32.0525 55.53 31.7904 54.9216 32.075C54.3135 32.3599 54.0512 33.0837 54.336 33.6918C54.7847 34.6503 55.1223 35.6291 55.3688 36.6187L51.7353 39.3205C51.1965 39.7213 51.0844 40.4829 51.4852 41.0217C51.7238 41.3425 52.0903 41.5121 52.4617 41.5121C52.714 41.5121 52.9683 41.4339 53.1864 41.2718L55.8278 39.3077C56.218 43.2484 55.4789 47.2196 54.8446 50.6285C54.4148 52.9376 54.0091 55.1184 54.0091 56.9548C54.0091 56.9622 54.0091 56.9697 54.0092 56.9772C54.03 58.1114 54.1793 59.1407 54.278 59.8219C54.3124 60.0593 54.3422 60.2652 54.3563 60.404C54.4007 60.9407 54.4232 61.4913 54.4232 62.0403C54.4232 67.1661 49.8808 73.4337 40.9202 80.6707C38.5547 82.59 35.5775 83.6456 32.5273 83.6456C32.5159 83.6456 32.5044 83.6456 32.4931 83.6456C29.4359 83.6469 26.4464 82.5971 24.0722 80.6707C23.5508 80.2478 22.785 80.3274 22.3621 80.8489C21.939 81.3702 22.0187 82.1359 22.5402 82.559C25.3374 84.8287 28.8584 86.0773 32.4526 86.0773H32.5335C36.1336 86.0771 39.6549 84.8285 42.4502 82.5608C52.0085 74.841 56.855 67.937 56.855 62.0403C56.855 61.814 56.8516 61.5872 56.8448 61.3611C56.9372 61.3645 57.03 61.3663 57.1227 61.3663C61.1863 61.3663 64.4922 58.0604 64.4922 53.9968C64.492 50.1554 61.8222 47.2618 57.9772 46.7192ZM61.1814 11.9963C61.8519 11.9963 62.3972 12.5418 62.3972 13.2123C62.3972 13.8828 61.8519 14.4283 61.1814 14.4283C60.5109 14.4283 59.9656 13.8828 59.9656 13.2123C59.9656 12.5418 60.5111 11.9963 61.1814 11.9963ZM57.1225 58.9346C56.9491 58.9346 56.7763 58.9255 56.6049 58.9077C56.5289 58.3395 56.4546 57.6635 56.4407 56.9439C56.4425 55.3335 56.8275 53.264 57.2352 51.0733C57.353 50.4398 57.4743 49.7883 57.5918 49.1212C60.2657 49.4825 62.0604 51.3862 62.0604 53.9968C62.0604 56.7196 59.8453 58.9346 57.1225 58.9346Z" fill="#282D26"/>
<path d="M31.3509 64.773C31.3509 64.1865 31.8282 63.7092 32.4147 63.7092C33.0012 63.7092 33.4785 64.1863 33.4785 64.773C33.4785 65.4445 34.0228 65.9888 34.6943 65.9888C35.3657 65.9888 35.9101 65.4445 35.9101 64.773C35.9101 62.8457 34.342 61.2776 32.4147 61.2776C30.4874 61.2776 28.9193 62.8455 28.9193 64.773C28.9193 65.4445 29.4637 65.9888 30.1351 65.9888C30.8066 65.9888 31.3509 65.4445 31.3509 64.773Z" fill="#282D26"/>
<path d="M27.2198 56.6592C27.443 57.0559 27.8556 57.2789 28.2805 57.2789C28.4825 57.2789 28.6872 57.2285 28.8756 57.1225C29.4608 56.7931 29.6681 56.0519 29.3389 55.4667C28.1575 53.3674 25.928 52.0632 23.5205 52.0632C21.113 52.0632 18.8835 53.3672 17.702 55.4666C17.3728 56.0518 17.5801 56.7931 18.1652 57.1225C18.7502 57.4517 19.4917 57.2444 19.8211 56.6594C20.5725 55.3244 21.99 54.4949 23.5205 54.4949C25.0509 54.4949 26.4686 55.3241 27.2198 56.6592Z" fill="#282D26"/>
<path d="M45.008 56.6591C45.3374 57.2442 46.0787 57.4515 46.6639 57.1223C47.249 56.7928 47.4565 56.0515 47.1271 55.4663C45.9454 53.367 43.7159 52.063 41.3086 52.063C38.9013 52.063 36.6716 53.367 35.4902 55.4665C35.1609 56.0517 35.3683 56.793 35.9535 57.1223C36.142 57.2283 36.3466 57.2787 36.5486 57.2787C36.9735 57.2787 37.3861 57.0556 37.6093 56.6589C38.3607 55.324 39.778 54.4946 41.3085 54.4946C42.8389 54.4946 44.2567 55.3241 45.008 56.6591Z" fill="#282D26"/>
<path d="M26 75.0771H38" stroke="#282D26" stroke-width="2" stroke-linecap="round"/>
</svg>
