<svg width="65" height="86" viewBox="0 0 65 86" fill="none" xmlns="http://www.w3.org/2000/svg">
<path d="M20.0119 76.6261C13.7459 70.8425 10.5687 65.7495 10.5687 61.4885C10.5687 60.9399 10.5913 60.3892 10.6357 59.8517C10.6498 59.7129 10.6796 59.5072 10.714 59.2698C10.8127 58.5887 10.962 57.5594 10.9827 56.4253C10.9829 56.4179 10.9829 56.4104 10.9829 56.4029C10.9829 54.5666 10.5772 52.3857 10.1474 50.0766C9.51906 46.7004 8.78827 42.7726 9.15335 38.8692L11.6424 40.7202C11.8604 40.8823 12.1148 40.9604 12.367 40.9604C12.7384 40.9604 13.1049 40.7908 13.3435 40.47C13.7443 39.9312 13.6323 39.1696 13.0934 38.7688L9.59785 36.1696C9.84636 35.1452 10.1915 34.1319 10.6558 33.1402C10.9404 32.5322 10.6783 31.8084 10.0702 31.5235C9.46233 31.2389 8.73851 31.501 8.45352 32.1091C8.06624 32.9363 7.75126 33.7709 7.49869 34.6085L4.86328 32.6484V16.0996C6.2785 15.5977 7.29492 14.2456 7.29492 12.6603C7.29492 10.649 5.65875 9.0127 3.64746 9.0127C1.63617 9.0127 0 10.649 0 12.6603C0 14.2456 1.01643 15.5977 2.43164 16.0996V33.2594C2.43164 33.6439 2.61353 34.0056 2.92186 34.2351L6.90618 37.198C6.41353 40.2622 6.61244 43.3154 7.0148 46.1674C3.16989 46.7098 0.500107 49.6034 0.500107 53.4448C0.500107 57.5084 3.80617 60.8143 7.8696 60.8143C7.96233 60.8143 8.05489 60.8125 8.14729 60.8091C8.14048 61.0354 8.13708 61.262 8.13708 61.4883C8.13708 66.4558 11.5775 72.1501 18.3628 78.4129C18.5965 78.6286 18.8922 78.7353 19.1871 78.7353C19.5147 78.7353 19.8412 78.6037 20.0808 78.3441C20.5362 77.8507 20.5054 77.0815 20.0119 76.6261ZM3.64746 11.4443C4.31795 11.4443 4.86328 11.9898 4.86328 12.6603C4.86328 13.3308 4.31795 13.8763 3.64746 13.8763C2.97698 13.8763 2.43164 13.3308 2.43164 12.6603C2.43164 11.9898 2.97698 11.4443 3.64746 11.4443ZM2.93175 53.4448C2.93175 50.834 4.72662 48.9304 7.40046 48.5692C7.51798 49.2363 7.63924 49.8878 7.7571 50.5213C8.16464 52.7119 8.54981 54.7812 8.55159 56.3916C8.53765 57.1112 8.46341 57.7875 8.38738 58.3557C8.21603 58.3735 8.04322 58.3826 7.86976 58.3826C5.14681 58.3826 2.93175 56.1676 2.93175 53.4448Z" fill="#282D26"/>
<path d="M57.9772 46.1672C58.3844 43.2817 58.5832 40.1902 58.0681 37.0897L61.9071 34.235C62.2155 34.0054 62.3973 33.6438 62.3973 33.2592V16.0996C63.8125 15.5977 64.8289 14.2456 64.8289 12.6603C64.8289 10.649 63.1927 9.0127 61.1815 9.0127C59.1702 9.0127 57.534 10.649 57.534 12.6603C57.534 14.2456 58.5504 15.5977 59.9656 16.0996V32.6484L57.4632 34.5093C57.2158 33.7047 56.9104 32.9034 56.5383 32.1086C56.2537 31.5005 55.53 31.2384 54.9216 31.523C54.3135 31.8079 54.0512 32.5317 54.3361 33.1398C54.7848 34.0983 55.1223 35.0771 55.3689 36.0666L51.7353 38.7685C51.1965 39.1693 51.0845 39.9309 51.4852 40.4697C51.7238 40.7905 52.0904 40.9601 52.4618 40.9601C52.714 40.9601 52.9683 40.8819 53.1864 40.7198L55.8278 38.7557C56.218 42.6964 55.4789 46.6676 54.8446 50.0765C54.4148 52.3856 54.0091 54.5664 54.0091 56.4028C54.0091 56.4102 54.0091 56.4177 54.0092 56.4252C54.03 57.5594 54.1793 58.5887 54.278 59.2699C54.3124 59.5073 54.3422 59.7132 54.3563 59.852C54.4007 60.3887 54.4233 60.9393 54.4233 61.4883C54.4233 66.6141 49.8808 72.8817 40.9202 80.1187C38.5547 82.038 35.5776 83.0936 32.5273 83.0936C32.516 83.0936 32.5045 83.0936 32.4931 83.0936C29.4359 83.0949 26.4464 82.0451 24.0722 80.1187C23.5508 79.6958 22.785 79.7754 22.3621 80.2969C21.939 80.8182 22.0187 81.5839 22.5403 82.007C25.3375 84.2767 28.8585 85.5253 32.4526 85.5253H32.5335C36.1336 85.5251 39.655 84.2765 42.4502 82.0088C52.0085 74.289 56.8551 67.385 56.8551 61.4883C56.8551 61.262 56.8517 61.0352 56.8449 60.8091C56.9373 60.8125 57.03 60.8143 57.1227 60.8143C61.1863 60.8143 64.4922 57.5084 64.4922 53.4448C64.4921 49.6034 61.8223 46.7098 57.9772 46.1672ZM61.1815 11.4443C61.8519 11.4443 62.3973 11.9898 62.3973 12.6603C62.3973 13.3308 61.8519 13.8763 61.1815 13.8763C60.511 13.8763 59.9656 13.3308 59.9656 12.6603C59.9656 11.9898 60.5111 11.4443 61.1815 11.4443ZM57.1226 58.3826C56.9491 58.3826 56.7763 58.3735 56.6049 58.3557C56.5289 57.7875 56.4547 57.1115 56.4407 56.3919C56.4425 54.7815 56.8275 52.712 57.2352 50.5213C57.3531 49.8878 57.4743 49.2363 57.5919 48.5692C60.2657 48.9305 62.0604 50.8342 62.0604 53.4448C62.0604 56.1676 59.8453 58.3826 57.1226 58.3826Z" fill="#282D26"/>
<path d="M31.3509 64.221C31.3509 63.6345 31.8282 63.1572 32.4147 63.1572C33.0012 63.1572 33.4785 63.6343 33.4785 64.221C33.4785 64.8924 34.0228 65.4368 34.6943 65.4368C35.3657 65.4368 35.9101 64.8924 35.9101 64.221C35.9101 62.2937 34.342 60.7256 32.4147 60.7256C30.4874 60.7256 28.9193 62.2935 28.9193 64.221C28.9193 64.8924 29.4637 65.4368 30.1351 65.4368C30.8066 65.4368 31.3509 64.8924 31.3509 64.221Z" fill="#282D26"/>
<path d="M27.2198 56.1072C27.4431 56.5039 27.8556 56.7269 28.2805 56.7269C28.4825 56.7269 28.6873 56.6765 28.8756 56.5705C29.4608 56.2411 29.6682 55.4999 29.3389 54.9147C28.1575 52.8154 25.928 51.5112 23.5205 51.5112C21.113 51.5112 18.8835 52.8152 17.7021 54.9146C17.3728 55.4998 17.5802 56.2411 18.1652 56.5705C18.7503 56.8997 19.4918 56.6924 19.8212 56.1074C20.5725 54.7724 21.99 53.9429 23.5205 53.9429C25.051 53.9429 26.4686 54.7721 27.2198 56.1072Z" fill="#282D26"/>
<path d="M45.008 56.1071C45.3374 56.6922 46.0787 56.8995 46.6639 56.5703C47.249 56.2408 47.4565 55.4995 47.1271 54.9143C45.9454 52.815 43.7159 51.511 41.3086 51.511C38.9013 51.511 36.6716 52.815 35.4902 54.9145C35.1609 55.4997 35.3683 56.241 35.9535 56.5703C36.142 56.6763 36.3466 56.7267 36.5486 56.7267C36.9735 56.7267 37.3861 56.5036 37.6093 56.1069C38.3607 54.772 39.778 53.9426 41.3085 53.9426C42.8389 53.9426 44.2567 54.7721 45.008 56.1071Z" fill="#282D26"/>
<path d="M26 74.5251H38" stroke="#282D26" stroke-width="2" stroke-linecap="round"/>
<path d="M14.0928 5.47461C14.0928 3.26547 15.8836 1.47461 18.0928 1.47461H46.9235C49.1326 1.47461 50.9235 3.26547 50.9235 5.47461V29.8895C50.9235 32.0986 49.1326 33.8895 46.9235 33.8895H25.6293H20.3877H18.0928C15.8836 33.8895 14.0928 32.0986 14.0928 29.8895V5.47461Z" fill="white" stroke="#282D26" stroke-width="2"/>
<mask id="path-8-inside-1" fill="white">
<path d="M31.536 6.51152C32.6857 5.34645 34.6285 4.32153 36.3947 4.32153C39.8964 4.32153 42.7352 7.16019 42.7352 10.662C42.7352 11.0927 42.6922 11.5134 42.6104 11.92H42.7517C44.7274 11.92 46.3289 13.5216 46.3289 15.4973C46.3289 17.473 44.7272 19.0745 42.7517 19.0745H33.3317"/>
</mask>
<path d="M31.536 6.51152C32.6857 5.34645 34.6285 4.32153 36.3947 4.32153C39.8964 4.32153 42.7352 7.16019 42.7352 10.662C42.7352 11.0927 42.6922 11.5134 42.6104 11.92H42.7517C44.7274 11.92 46.3289 13.5216 46.3289 15.4973C46.3289 17.473 44.7272 19.0745 42.7517 19.0745H33.3317" fill="#C1CB8F"/>
<path d="M42.6104 11.92L40.7477 11.5453L40.2902 13.82H42.6104V11.92ZM32.8883 7.8461C33.7737 6.94899 35.255 6.22153 36.3947 6.22153V2.42153C34.002 2.42153 31.5978 3.74392 30.1836 5.17693L32.8883 7.8461ZM36.3947 6.22153C38.8471 6.22153 40.8352 8.20956 40.8352 10.662H44.6352C44.6352 6.11082 40.9457 2.42153 36.3947 2.42153V6.22153ZM40.8352 10.662C40.8352 10.966 40.8049 11.2611 40.7477 11.5453L44.4731 12.2946C44.5795 11.7656 44.6352 11.2195 44.6352 10.662H40.8352ZM42.6104 13.82H42.7517V10.0199H42.6104V13.82ZM42.7517 13.82C43.6779 13.82 44.4289 14.5708 44.4289 15.4973H48.2289C48.2289 12.4723 45.7768 10.0199 42.7517 10.0199V13.82ZM44.4289 15.4973C44.4289 16.4236 43.6779 17.1745 42.7517 17.1745V20.9745C45.7765 20.9745 48.2289 18.5224 48.2289 15.4973H44.4289ZM42.7517 17.1745H33.3317V20.9745H42.7517V17.1745Z" fill="#282D26" mask="url(#path-8-inside-1)"/>
<path d="M23.3144 11.8296H24.1648L24.2586 10.9844C24.522 8.6129 26.5345 6.76812 28.9767 6.76812C31.5986 6.76812 33.7241 8.89351 33.7241 11.5155C33.7241 11.839 33.6917 12.1543 33.6306 12.4585L33.4018 13.5958H34.5619H34.6889C35.9395 13.5958 36.9532 14.6096 36.9532 15.8602C36.9532 17.1108 35.9395 18.1246 34.6889 18.1246H22.785C21.0466 18.1246 19.6375 16.7154 19.6375 14.9771C19.6375 13.2387 21.0467 11.8296 22.7849 11.8296H23.3144Z" fill="#C1CB8F" stroke="#282D26" stroke-width="1.9"/>
<path d="M33.7136 27.6681C33.7136 28.4167 33.1068 29.0235 32.3582 29.0235C31.6096 29.0235 31.0028 28.4167 31.0028 27.6681C31.0028 27.5906 31.0537 27.3688 31.2536 26.9892C31.438 26.6391 31.6948 26.2549 31.9682 25.8869C32.1003 25.709 32.233 25.5393 32.3582 25.3843C32.4834 25.5393 32.6161 25.709 32.7482 25.8869C33.0216 26.2549 33.2784 26.6391 33.4628 26.9892C33.6627 27.3688 33.7136 27.5906 33.7136 27.6681Z" fill="#C1CB8F" stroke="#282D26" stroke-width="1.9"/>
<path d="M42.4323 28.944C42.4323 29.6926 41.8255 30.2994 41.0769 30.2994C40.3284 30.2994 39.7216 29.6926 39.7216 28.944C39.7216 28.8665 39.7724 28.6447 39.9723 28.2651C40.1568 27.9149 40.4136 27.5308 40.6869 27.1628C40.8191 26.9849 40.9517 26.8152 41.0769 26.6602C41.2022 26.8152 41.3348 26.9849 41.467 27.1628C41.7403 27.5308 41.9971 27.9149 42.1816 28.2651C42.3815 28.6447 42.4323 28.8665 42.4323 28.944Z" fill="#C1CB8F" stroke="#282D26" stroke-width="1.9"/>
<path d="M24.9938 28.944C24.9938 29.6926 24.387 30.2994 23.6385 30.2994C22.8899 30.2994 22.2831 29.6926 22.2831 28.944C22.2831 28.8665 22.3339 28.6447 22.5339 28.2651C22.7183 27.9149 22.9751 27.5308 23.2484 27.1628C23.3806 26.9849 23.5133 26.8152 23.6385 26.6602C23.7637 26.8152 23.8964 26.9849 24.0285 27.1628C24.3018 27.5308 24.5586 27.9149 24.7431 28.2651C24.943 28.6447 24.9938 28.8665 24.9938 28.944Z" fill="#C1CB8F" stroke="#282D26" stroke-width="1.9"/>
</svg>
