<svg width="65" height="86" viewBox="0 0 65 86" fill="none" xmlns="http://www.w3.org/2000/svg">
<path d="M20.0647 77.0775C13.7822 71.2787 10.5966 66.1723 10.5966 61.9C10.5966 61.3499 10.6192 60.7978 10.6638 60.2588C10.6779 60.1197 10.7078 59.9134 10.7423 59.6755C10.8412 58.9925 10.9909 57.9605 11.0117 56.8234C11.0119 56.816 11.0119 56.8085 11.0119 56.801C11.0119 54.9598 10.6051 52.7732 10.1742 50.458C9.54419 47.0728 8.81148 43.1347 9.17751 39.221L11.6731 41.0768C11.8917 41.2394 12.1467 41.3177 12.3996 41.3177C12.772 41.3177 13.1395 41.1477 13.3788 40.826C13.7806 40.2857 13.6683 39.5221 13.128 39.1204L9.62319 36.5142C9.87236 35.4872 10.2184 34.4711 10.6839 33.4769C10.9693 32.8672 10.7065 32.1415 10.0968 31.8559C9.48731 31.5705 8.76158 31.8333 8.47584 32.443C8.08753 33.2724 7.77172 34.1092 7.51849 34.949L4.87612 32.9838V16.3913C6.29507 15.8881 7.31418 14.5324 7.31418 12.9429C7.31418 10.9263 5.67369 9.28564 3.65709 9.28564C1.64049 9.28564 0 10.9263 0 12.9429C0 14.5324 1.01911 15.8881 2.43806 16.3913V33.5964C2.43806 33.9819 2.62043 34.3445 2.92957 34.5747L6.92442 37.5454C6.43047 40.6176 6.6299 43.6789 7.03332 46.5384C3.17826 47.0822 0.501428 49.9835 0.501428 53.835C0.501428 57.9093 3.81622 61.224 7.89038 61.224C7.98335 61.224 8.07616 61.2222 8.1688 61.2188C8.16198 61.4457 8.15856 61.6729 8.15856 61.8998C8.15856 66.8804 11.6081 72.5897 18.4113 78.869C18.6456 79.0854 18.9421 79.1923 19.2378 79.1923C19.5662 79.1923 19.8936 79.0603 20.1338 78.8001C20.5904 78.3053 20.5595 77.5341 20.0647 77.0775ZM3.65709 11.7237C4.32934 11.7237 4.87612 12.2706 4.87612 12.9429C4.87612 13.6152 4.32934 14.1621 3.65709 14.1621C2.98484 14.1621 2.43806 13.6152 2.43806 12.9429C2.43806 12.2706 2.98484 11.7237 3.65709 11.7237ZM2.93949 53.835C2.93949 51.2174 4.7391 49.3087 7.41999 48.9465C7.53783 49.6154 7.65941 50.2686 7.77758 50.9038C8.18619 53.1002 8.57238 55.175 8.57417 56.7896C8.56019 57.5111 8.48575 58.1892 8.40952 58.7589C8.23772 58.7768 8.06445 58.7859 7.89054 58.7859C5.1604 58.7859 2.93949 56.565 2.93949 53.835Z" fill="#282D26"/>
<path d="M58.1301 46.5382C58.5384 43.6451 58.7377 40.5455 58.2213 37.4368L62.0704 34.5745C62.3797 34.3444 62.5619 33.9817 62.5619 33.5962V16.3913C63.9808 15.8881 64.9999 14.5324 64.9999 12.9429C64.9999 10.9263 63.3595 9.28564 61.3429 9.28564C59.3263 9.28564 57.6858 10.9263 57.6858 12.9429C57.6858 14.5324 58.7049 15.8881 60.1238 16.3913V32.9838L57.6147 34.8495C57.3667 34.0429 57.0605 33.2394 56.6875 32.4425C56.4021 31.8328 55.6765 31.57 55.0665 31.8554C54.4568 32.141 54.1938 32.8667 54.4794 33.4764C54.9293 34.4375 55.2677 35.4189 55.5149 36.411L51.8718 39.12C51.3315 39.5218 51.2192 40.2854 51.621 40.8257C51.8603 41.1474 52.2278 41.3174 52.6001 41.3174C52.853 41.3174 53.1081 41.239 53.3267 41.0765L55.9751 39.1072C56.3663 43.0583 55.6253 47.04 54.9893 50.4578C54.5584 52.773 54.1516 54.9596 54.1516 56.8008C54.1516 56.8083 54.1516 56.8158 54.1517 56.8233C54.1725 57.9606 54.3222 58.9925 54.4212 59.6755C54.4557 59.9136 54.4856 60.12 54.4997 60.2592C54.5442 60.7973 54.5668 61.3493 54.5668 61.8998C54.5668 67.0391 50.0124 73.3233 41.0281 80.5794C38.6564 82.5037 35.6714 83.5621 32.6131 83.5621C32.6017 83.5621 32.5902 83.5621 32.5788 83.5621C29.5135 83.5634 26.5161 82.5108 24.1356 80.5794C23.6129 80.1554 22.8451 80.2352 22.421 80.758C21.9968 81.2808 22.0768 82.0484 22.5996 82.4727C25.4042 84.7483 28.9345 86.0002 32.5381 86.0002H32.6193C36.2289 86 39.7595 84.7482 42.5622 82.4744C52.1457 74.7343 57.0051 67.8121 57.0051 61.8998C57.0051 61.6729 57.0016 61.4455 56.9948 61.2188C57.0875 61.2222 57.1804 61.224 57.2734 61.224C61.3477 61.224 64.6624 57.9094 64.6624 53.835C64.6622 49.9835 61.9854 47.0823 58.1301 46.5382ZM61.3429 11.7237C62.0151 11.7237 62.5619 12.2706 62.5619 12.9429C62.5619 13.6152 62.0151 14.1621 61.3429 14.1621C60.6706 14.1621 60.1238 13.6152 60.1238 12.9429C60.1238 12.2706 60.6708 11.7237 61.3429 11.7237ZM57.2732 58.7859C57.0993 58.7859 56.9261 58.7768 56.7543 58.7589C56.678 58.1892 56.6036 57.5115 56.5896 56.79C56.5914 55.1753 56.9774 53.1004 57.3862 50.9038C57.5044 50.2686 57.626 49.6154 57.7438 48.9466C60.4247 49.3089 62.2241 51.2175 62.2241 53.835C62.2241 56.565 60.0032 58.7859 57.2732 58.7859Z" fill="#282D26"/>
<path d="M31.4337 64.6396C31.4337 64.0516 31.9122 63.5731 32.5002 63.5731C33.0883 63.5731 33.5668 64.0514 33.5668 64.6396C33.5668 65.3129 34.1126 65.8587 34.7858 65.8587C35.4591 65.8587 36.0049 65.3129 36.0049 64.6396C36.0049 62.7072 34.4326 61.135 32.5002 61.135C30.5678 61.135 28.9956 62.7071 28.9956 64.6396C28.9956 65.3129 29.5414 65.8587 30.2146 65.8587C30.8879 65.8587 31.4337 65.3129 31.4337 64.6396Z" fill="#282D26"/>
<path d="M27.2917 56.5043C27.5155 56.9021 27.9291 57.1257 28.3552 57.1257C28.5577 57.1257 28.763 57.0752 28.9518 56.9689C29.5386 56.6386 29.7465 55.8955 29.4164 55.3087C28.2318 53.2039 25.9964 51.8962 23.5826 51.8962C21.1687 51.8962 18.9334 53.2037 17.7488 55.3085C17.4187 55.8953 17.6266 56.6386 18.2131 56.9689C18.7997 57.299 19.5432 57.0911 19.8735 56.5045C20.6268 55.166 22.0481 54.3343 23.5826 54.3343C25.1171 54.3343 26.5385 55.1657 27.2917 56.5043Z" fill="#282D26"/>
<path d="M45.1268 56.5045C45.457 57.0911 46.2003 57.299 46.7871 56.9689C47.3737 56.6386 47.5817 55.8953 47.2514 55.3085C46.0667 53.2037 43.8313 51.8962 41.4177 51.8962C39.004 51.8962 36.7684 53.2037 35.5839 55.3087C35.2537 55.8955 35.4616 56.6387 36.0484 56.9689C36.2374 57.0752 36.4425 57.1257 36.6451 57.1257C37.0711 57.1257 37.4847 56.9021 37.7086 56.5043C38.4619 55.1658 39.883 54.3343 41.4175 54.3343C42.952 54.3343 44.3736 55.166 45.1268 56.5045Z" fill="#282D26"/>
<path d="M26.0687 74.9712H38.1004" stroke="#282D26" stroke-width="2" stroke-linecap="round"/>
<path d="M47.2633 16.5599C47.2633 21.8087 44.3848 26.3992 40.0873 28.9165C38.6927 29.7334 37.828 31.1927 37.828 32.7805H27.1721C27.1721 31.1863 26.2944 29.7286 24.8949 28.9054C20.6543 26.4134 17.8018 21.9007 17.74 16.7328C17.6523 9.46481 23.1948 3.31191 30.4017 2.29991C30.9706 2.2206 31.5525 2.17301 32.1409 2.15874C40.4579 1.96522 47.2633 8.48771 47.2633 16.5599Z" fill="#FFD469"/>
<path d="M47.2633 16.5594C47.2633 21.8082 44.3847 26.3987 40.0872 28.916C38.6927 29.7329 37.828 31.1922 37.828 32.78H33.6264C33.6264 31.1922 34.4911 29.7329 35.8856 28.916C40.1831 26.3987 43.06 21.8082 43.06 16.5594C43.06 9.30094 37.5581 3.29556 30.4016 2.29942C30.9705 2.22011 31.5524 2.17253 32.1408 2.15825C40.4578 1.96473 47.2633 8.48722 47.2633 16.5594Z" fill="#FFBA4C"/>
<path d="M25.3833 34.0425H38.4176L36.4123 43.0662H27.8899L25.3833 34.0425Z" fill="#C1CB8F"/>
<path d="M47.2633 16.5599C47.2633 21.8087 45.2216 25.0087 40.9241 27.526C40.4228 28.5287 39.4201 31.0353 38.7211 32.7805H25.2165C24.8818 31.0353 23.3779 27.526 23.3779 27.526C19.1373 25.0341 17.8018 21.9007 17.74 16.7328C17.6523 9.46481 23.1948 3.31191 30.4017 2.29991C30.9706 2.2206 31.5525 2.17301 32.1409 2.15874C40.4579 1.96522 47.2633 8.48771 47.2633 16.5599Z" fill="white"/>
<path fill-rule="evenodd" clip-rule="evenodd" d="M39.4856 5.46332C38.3245 4.76181 37.4839 4.35274 36.9043 4.13779L37.6838 2.03563C38.4455 2.31808 39.4196 2.80396 40.645 3.54431L39.4856 5.46332Z" fill="#282D26"/>
<path d="M23.8792 14.4911L24.8818 19.003V20.0056H27.8897L29.3937 23.5149L29.895 33.5413L33.9056 34.0426L34.4069 26.0215L34.9082 22.5122L36.9135 20.0056L39.4201 18.0004V13.9898L37.4148 12.9872L35.4095 10.4806H32.9029L29.3937 9.97925L26.3858 11.9845L23.8792 14.4911Z" fill="#C1CB8F"/>
<path d="M40.5393 3.45604L39.3038 5.36694C41.1403 6.52892 42.6715 8.10637 43.7714 9.96927C44.8712 11.8322 45.5081 13.9272 45.6296 16.0816C45.7511 18.2361 45.3537 20.3883 44.4701 22.3608C43.5866 24.3333 42.2422 26.0697 40.5478 27.4269C40.3843 27.5578 40.2604 27.7308 40.1897 27.9269L38.4593 32.7242H35.3381V23.9162L36.6858 21.2476C37.3441 21.434 38.0436 21.4215 38.6947 21.2116C39.3457 21.0018 39.9187 20.6041 40.3399 20.0698C40.7612 19.5354 41.0117 18.8886 41.0592 18.2123C41.1067 17.5361 40.9492 16.8612 40.6067 16.2742C40.9084 15.7568 41.0672 15.1699 41.0672 14.5725C41.0672 13.9751 40.9084 13.3882 40.6067 12.8708C40.305 12.3534 39.8711 11.9238 39.3486 11.625C38.826 11.3263 38.2332 11.169 37.6298 11.169C37.5648 11.169 37.5 11.1708 37.4355 11.1744C37.2479 10.6467 36.9319 10.1729 36.5154 9.79494C36.0989 9.41698 35.5947 9.14648 35.0474 9.00739C34.5002 8.8683 33.9267 8.86491 33.3778 8.9975C32.8289 9.1301 32.3215 9.3946 31.9004 9.76761C31.4794 9.3946 30.972 9.1301 30.423 8.9975C29.8741 8.86491 29.3007 8.8683 28.7534 9.00739C28.2062 9.14648 27.702 9.41698 27.2855 9.79494C26.8689 10.1729 26.5529 10.6467 26.3654 11.1744C26.3009 11.1708 26.2361 11.169 26.171 11.169C25.5676 11.169 24.9749 11.3263 24.4523 11.625C23.9298 11.9238 23.4958 12.3534 23.1941 12.8708C22.8925 13.3882 22.7336 13.9751 22.7336 14.5725C22.7337 15.1699 22.8925 15.7568 23.1942 16.2742C22.8512 16.8611 22.6932 17.5362 22.7405 18.2127C22.7877 18.8892 23.0382 19.5362 23.4596 20.0708C23.881 20.6053 24.4542 21.003 25.1056 21.2127C25.7569 21.4224 26.4567 21.4345 27.1151 21.2476L28.4628 23.9162V28.5282H30.7546V23.6483C30.7546 23.4722 30.7131 23.2985 30.6335 23.1409L29.171 20.2449H34.6299L33.1673 23.1409C33.0877 23.2985 33.0463 23.4722 33.0463 23.6483V32.7242H30.7546V28.5282H28.4628V32.7242H25.3416L23.611 27.9269C23.5403 27.7308 23.4164 27.5578 23.2529 27.4269C20.6821 25.3656 18.9477 22.4559 18.3679 19.2313C17.788 16.0068 18.4015 12.6833 20.0959 9.87018C21.7903 7.05709 24.452 4.94287 27.5931 3.91511C30.7342 2.88735 34.1442 3.01492 37.198 4.27443L38.0816 2.18073C34.5447 0.719502 30.5963 0.559984 26.9509 1.73104C23.3056 2.9021 20.204 5.32638 18.2074 8.56519C16.2108 11.804 15.4512 15.6434 16.0659 19.3887C16.6807 23.1339 18.6292 26.5376 21.5589 28.9838L25.0921 38.7781C25.1438 38.9217 25.2242 39.0534 25.3285 39.1655C25.4328 39.2775 25.5588 39.3677 25.6991 39.4305C25.7256 39.4424 25.7525 39.4532 25.7799 39.4631C25.7942 39.4679 25.8072 39.4726 25.8211 39.4773C25.9342 39.5131 26.0523 39.5313 26.171 39.5312V41.5165C26.1718 42.1932 26.4437 42.8421 26.9271 43.3206C27.4104 43.7991 28.0657 44.0683 28.7493 44.0691H35.0516C35.7351 44.0683 36.3905 43.7991 36.8738 43.3206C37.3571 42.8421 37.629 42.1932 37.6298 41.5165V39.5312C37.7486 39.5312 37.8667 39.5129 37.9799 39.477C37.9942 39.4726 38.0075 39.4679 38.0211 39.4628C38.0485 39.4529 38.0754 39.4421 38.1019 39.4302C38.2422 39.3674 38.3682 39.2773 38.4725 39.1652C38.5768 39.0531 38.6572 38.9214 38.709 38.7778L42.242 28.9838C44.1643 27.3787 45.6787 25.3486 46.6629 23.0575C47.647 20.7663 48.0735 18.2782 47.9078 15.7939C47.7421 13.3095 46.9889 10.8985 45.7089 8.75539C44.429 6.61225 42.6582 4.79698 40.5393 3.45604ZM28.1561 17.9759C27.9552 17.9759 27.7578 18.0283 27.5837 18.1277C27.4096 18.2271 27.265 18.3701 27.1644 18.5423C27.0812 18.6845 26.9678 18.8071 26.832 18.9016C26.6963 18.9962 26.5414 19.0604 26.3781 19.0898C26.2148 19.1193 26.047 19.1132 25.8863 19.0721C25.7255 19.031 25.5758 18.9559 25.4473 18.8518C25.3188 18.7478 25.2147 18.6173 25.1422 18.4695C25.0696 18.3217 25.0304 18.1601 25.0272 17.9958C25.0239 17.8315 25.0568 17.6684 25.1235 17.5179C25.1901 17.3675 25.289 17.2331 25.4133 17.1242C25.5353 17.0177 25.6329 16.8868 25.6998 16.7401C25.7667 16.5934 25.8013 16.4343 25.8013 16.2733C25.8013 16.1124 25.7667 15.9533 25.6998 15.8066C25.6329 15.6599 25.5353 15.5289 25.4133 15.4225C25.2391 15.27 25.1159 15.0686 25.06 14.8452C25.0041 14.6217 25.0182 14.3866 25.1004 14.1713C25.1826 13.9559 25.3291 13.7704 25.5203 13.6395C25.7115 13.5085 25.9385 13.4382 26.171 13.438C26.2334 13.438 26.2957 13.443 26.3573 13.4528C27.0018 15.4003 29.2424 16.8414 31.9004 16.8414V14.5724C30.1561 14.5724 28.6652 13.6619 28.4819 12.5366C28.48 12.5122 28.4774 12.4877 28.474 12.4632C28.4675 12.4174 28.4639 12.3713 28.4631 12.3252C28.4631 12.3179 28.4631 12.311 28.4631 12.3035C28.4629 12.0526 28.5468 11.8088 28.7015 11.6101C28.8562 11.4114 29.0731 11.2691 29.3182 11.2054C29.5633 11.1418 29.8228 11.1603 30.0561 11.2582C30.2894 11.3561 30.4833 11.5278 30.6076 11.7464C30.7199 11.9429 30.8888 12.1018 31.0928 12.2027C31.2968 12.3036 31.5265 12.3419 31.7526 12.3128C31.851 12.3005 31.9505 12.3005 32.0488 12.3128C32.275 12.3421 32.5048 12.3038 32.7088 12.2029C32.9128 12.102 33.0817 11.943 33.1938 11.7464C33.2841 11.5879 33.4116 11.4531 33.5655 11.3536C33.7195 11.254 33.8954 11.1926 34.0783 11.1746C34.2613 11.1565 34.4459 11.1823 34.6167 11.2497C34.7875 11.3172 34.9393 11.4243 35.0595 11.5621C33.8617 12.2648 33.0463 13.8369 33.0463 15.7069H35.3381C35.3381 14.7403 35.6687 14.0177 36.0272 13.6694C36.1913 13.736 36.3688 13.764 36.5457 13.7512C36.7227 13.7383 36.8942 13.685 37.0467 13.5954C37.2923 13.4513 37.5833 13.4032 37.8628 13.4604C38.1424 13.5177 38.3902 13.6761 38.558 13.9048C38.7257 14.1334 38.8012 14.4158 38.7697 14.6967C38.7381 14.9776 38.6019 15.2367 38.3875 15.4233C38.2656 15.5298 38.168 15.6607 38.1011 15.8074C38.0342 15.9541 37.9996 16.1132 37.9996 16.2742C37.9996 16.4351 38.0342 16.5942 38.1011 16.7409C38.168 16.8876 38.2656 17.0186 38.3875 17.125C38.5118 17.234 38.6107 17.3683 38.6774 17.5188C38.7441 17.6693 38.7769 17.8323 38.7737 17.9966C38.7705 18.1609 38.7312 18.3226 38.6587 18.4704C38.5862 18.6182 38.482 18.7486 38.3536 18.8527C38.2251 18.9567 38.0753 19.0319 37.9146 19.073C37.7539 19.1141 37.5861 19.1201 37.4228 19.0907C37.2595 19.0612 37.1046 18.997 36.9688 18.9025C36.8331 18.808 36.7197 18.6854 36.6365 18.5431C36.536 18.3708 36.3914 18.2276 36.2173 18.128C36.0432 18.0285 35.8458 17.976 35.6447 17.9759H28.1561ZM35.3381 41.5165C35.3381 41.5917 35.3079 41.6639 35.2542 41.7171C35.2004 41.7702 35.1276 41.8001 35.0516 41.8001H28.7493C28.6733 41.8001 28.6004 41.7702 28.5467 41.7171C28.493 41.6639 28.4628 41.5917 28.4628 41.5165V39.5312H35.3381V41.5165ZM36.8223 37.2622H26.9786L26.16 34.9932H37.6409L36.8223 37.2622Z" fill="#282D26"/>
</svg>
