<svg width="65" height="86" viewBox="0 0 65 86" fill="none" xmlns="http://www.w3.org/2000/svg">
<path d="M20.0119 77.1009C13.7459 71.3174 10.5687 66.2244 10.5687 61.9633C10.5687 61.4148 10.5913 60.8641 10.6357 60.3265C10.6498 60.1877 10.6796 59.982 10.714 59.7447C10.8127 59.0635 10.962 58.0343 10.9827 56.9002C10.9829 56.8927 10.9829 56.8853 10.9829 56.8778C10.9829 55.0414 10.5772 52.8606 10.1474 50.5515C9.51906 47.1752 8.78827 43.2475 9.15335 39.344L11.6424 41.195C11.8604 41.3571 12.1148 41.4353 12.367 41.4353C12.7384 41.4353 13.1049 41.2657 13.3435 40.9449C13.7443 40.406 13.6323 39.6444 13.0934 39.2437L9.59785 36.6444C9.84636 35.6201 10.1915 34.6067 10.6558 33.6151C10.9404 33.007 10.6783 32.2832 10.0702 31.9984C9.46233 31.7137 8.73851 31.9758 8.45352 32.5839C8.06624 33.4112 7.75126 34.2457 7.49869 35.0833L4.86328 33.1233V16.5745C6.2785 16.0726 7.29492 14.7204 7.29492 13.1352C7.29492 11.1239 5.65875 9.48755 3.64746 9.48755C1.63617 9.48755 0 11.1239 0 13.1352C0 14.7204 1.01643 16.0726 2.43164 16.5745V33.7343C2.43164 34.1188 2.61353 34.4804 2.92186 34.71L6.90618 37.6729C6.41353 40.7371 6.61244 43.7902 7.0148 46.6422C3.16989 47.1846 0.500107 50.0783 0.500107 53.9196C0.500107 57.9832 3.80617 61.2891 7.8696 61.2891C7.96233 61.2891 8.05489 61.2873 8.14729 61.2839C8.14048 61.5102 8.13708 61.7369 8.13708 61.9632C8.13708 66.9307 11.5775 72.6249 18.3628 78.8877C18.5965 79.1035 18.8922 79.2101 19.1871 79.2101C19.5147 79.2101 19.8412 79.0785 20.0808 78.819C20.5362 78.3255 20.5054 77.5563 20.0119 77.1009ZM3.64746 11.9192C4.31795 11.9192 4.86328 12.4647 4.86328 13.1352C4.86328 13.8057 4.31795 14.3512 3.64746 14.3512C2.97698 14.3512 2.43164 13.8057 2.43164 13.1352C2.43164 12.4647 2.97698 11.9192 3.64746 11.9192ZM2.93175 53.9196C2.93175 51.3088 4.72662 49.4052 7.40046 49.044C7.51798 49.7111 7.63924 50.3626 7.7571 50.9961C8.16464 53.1867 8.54981 55.2561 8.55159 56.8664C8.53765 57.5861 8.46341 58.2624 8.38738 58.8306C8.21603 58.8484 8.04322 58.8575 7.86976 58.8575C5.14681 58.8575 2.93175 56.6424 2.93175 53.9196Z" fill="#282D26"/>
<path d="M57.9772 46.6421C58.3844 43.7565 58.5831 40.6651 58.0681 37.5646L61.907 34.7098C62.2155 34.4803 62.3972 34.1186 62.3972 33.7341V16.5745C63.8125 16.0726 64.8289 14.7204 64.8289 13.1352C64.8289 11.1239 63.1927 9.48755 61.1814 9.48755C59.1701 9.48755 57.534 11.1239 57.534 13.1352C57.534 14.7204 58.5504 16.0726 59.9656 16.5745V33.1233L57.4631 34.9841C57.2157 34.1796 56.9103 33.3783 56.5383 32.5834C56.2536 31.9754 55.53 31.7132 54.9216 31.9979C54.3135 32.2827 54.0512 33.0065 54.336 33.6146C54.7847 34.5732 55.1223 35.552 55.3688 36.5415L51.7353 39.2434C51.1965 39.6441 51.0844 40.4057 51.4852 40.9446C51.7238 41.2654 52.0903 41.4349 52.4617 41.4349C52.714 41.4349 52.9683 41.3568 53.1864 41.1947L55.8278 39.2306C56.218 43.1713 55.4789 47.1425 54.8446 50.5513C54.4148 52.8604 54.0091 55.0413 54.0091 56.8776C54.0091 56.8851 54.0091 56.8926 54.0092 56.9C54.03 58.0343 54.1793 59.0635 54.278 59.7447C54.3124 59.9822 54.3422 60.1881 54.3563 60.3268C54.4007 60.8636 54.4232 61.4141 54.4232 61.9632C54.4232 67.0889 49.8808 73.3565 40.9202 80.5936C38.5547 82.5128 35.5775 83.5685 32.5273 83.5685C32.5159 83.5685 32.5044 83.5685 32.4931 83.5685C29.4359 83.5698 26.4464 82.5199 24.0722 80.5936C23.5508 80.1706 22.785 80.2502 22.3621 80.7718C21.939 81.2931 22.0187 82.0587 22.5402 82.4818C25.3374 84.7515 28.8584 86.0001 32.4526 86.0001H32.5335C36.1336 85.9999 39.6549 84.7514 42.4502 82.4836C52.0085 74.7638 56.855 67.8599 56.855 61.9632C56.855 61.7369 56.8516 61.5101 56.8448 61.2839C56.9372 61.2873 57.03 61.2891 57.1227 61.2891C61.1863 61.2891 64.4922 57.9832 64.4922 53.9196C64.492 50.0783 61.8222 47.1846 57.9772 46.6421ZM61.1814 11.9192C61.8519 11.9192 62.3972 12.4647 62.3972 13.1352C62.3972 13.8057 61.8519 14.3512 61.1814 14.3512C60.5109 14.3512 59.9656 13.8057 59.9656 13.1352C59.9656 12.4647 60.5111 11.9192 61.1814 11.9192ZM57.1225 58.8575C56.9491 58.8575 56.7763 58.8484 56.6049 58.8306C56.5289 58.2624 56.4546 57.5864 56.4407 56.8668C56.4425 55.2564 56.8275 53.1869 57.2352 50.9961C57.353 50.3626 57.4743 49.7111 57.5918 49.044C60.2657 49.4054 62.0604 51.309 62.0604 53.9196C62.0604 56.6424 59.8453 58.8575 57.1225 58.8575Z" fill="#282D26"/>
<path d="M31.3509 64.6958C31.3509 64.1093 31.8282 63.6321 32.4147 63.6321C33.0012 63.6321 33.4785 64.1092 33.4785 64.6958C33.4785 65.3673 34.0228 65.9117 34.6943 65.9117C35.3657 65.9117 35.9101 65.3673 35.9101 64.6958C35.9101 62.7685 34.342 61.2004 32.4147 61.2004C30.4874 61.2004 28.9193 62.7684 28.9193 64.6958C28.9193 65.3673 29.4637 65.9117 30.1351 65.9117C30.8066 65.9117 31.3509 65.3673 31.3509 64.6958Z" fill="#282D26"/>
<path d="M27.2198 56.582C27.443 56.9787 27.8556 57.2018 28.2805 57.2018C28.4825 57.2018 28.6872 57.1514 28.8756 57.0453C29.4608 56.7159 29.6681 55.9748 29.3389 55.3896C28.1575 53.2903 25.928 51.9861 23.5205 51.9861C21.113 51.9861 18.8835 53.2901 17.702 55.3894C17.3728 55.9746 17.5801 56.7159 18.1652 57.0453C18.7502 57.3746 19.4917 57.1673 19.8211 56.5822C20.5725 55.2472 21.99 54.4177 23.5205 54.4177C25.0509 54.4177 26.4686 55.2469 27.2198 56.582Z" fill="#282D26"/>
<path d="M45.008 56.582C45.3374 57.167 46.0787 57.3743 46.6639 57.0451C47.249 56.7157 47.4565 55.9744 47.1271 55.3892C45.9454 53.2898 43.7159 51.9858 41.3086 51.9858C38.9013 51.9858 36.6716 53.2898 35.4902 55.3893C35.1609 55.9745 35.3683 56.7159 35.9535 57.0451C36.142 57.1511 36.3466 57.2015 36.5486 57.2015C36.9735 57.2015 37.3861 56.9785 37.6093 56.5818C38.3607 55.2468 39.778 54.4175 41.3085 54.4175C42.8389 54.4175 44.2567 55.247 45.008 56.582Z" fill="#282D26"/>
<path d="M26 75H38" stroke="#282D26" stroke-width="2" stroke-linecap="round"/>
<path d="M13.0928 5.94946C13.0928 3.18804 15.3314 0.949463 18.0928 0.949463H46.9235C49.6849 0.949463 51.9235 3.18804 51.9235 5.94946V30.3643C51.9235 33.1257 49.6849 35.3643 46.9235 35.3643H28.0895C26.5382 35.3643 25.0748 36.0844 24.1282 37.3134L22.8569 38.9641L21.8113 37.4397C20.9203 36.1407 19.4462 35.3643 17.871 35.3643C15.2321 35.3643 13.0928 33.225 13.0928 30.5861V5.94946Z" fill="white"/>
<path d="M20.5 22V9.5V9H30L32.5 8H44.5L45.5 9.5C45.1667 10 44.4 11.1 44 11.5C43.6 11.9 44.8333 12.3333 45.5 12.5V14.5L46.5 16.5L45.5 18.5L47 20C46.6667 20.6667 45.9 22 45.5 22H43C42.6 22 41.1667 22.3333 40.5 22.5L41 25.5V28.5L40 30H38C37.2 30 37.3333 29 37.5 28.5C37.3333 28 36.7 26.9 35.5 26.5C34 26 32 24.5 31.5 24.5C31.1 24.5 30.6667 22.8333 30.5 22H20.5Z" fill="#C1CB8F"/>
<path d="M46.5849 0H18.4248C15.11 0 12.4131 2.69683 12.4131 6.01175V29.4938C12.4131 32.8087 15.1099 35.5056 18.4248 35.5056H19.0993L21.0083 38.6953C21.393 39.3379 22.0699 39.7216 22.8188 39.7216C23.5678 39.7216 24.2446 39.3378 24.6291 38.6952L26.5382 35.5056H29.4276C29.9621 35.5056 30.3952 35.0723 30.3952 34.538C30.3952 34.0036 29.9621 33.5704 29.4276 33.5704H26.2608C25.7552 33.5704 25.2798 33.8399 25.02 34.2739L22.9686 37.7016C22.9348 37.7579 22.8845 37.7865 22.8187 37.7865C22.7529 37.7865 22.7026 37.7578 22.6688 37.7014L20.6175 34.2738C20.3577 33.8399 19.8823 33.5704 19.3767 33.5704H18.425C18.2972 33.5704 18.1712 33.5637 18.0464 33.5522L27.6831 23.033H29.8094L30.2719 24.0067C30.7276 24.9661 31.5168 25.7231 32.4943 26.1384L32.9902 26.3492L36.027 28.1173L36.7951 29.9197C37.1785 30.8185 38.0574 31.3993 39.0389 31.3993C40.2998 31.3993 41.4247 30.6456 41.9042 29.4794C42.0799 29.0519 42.1691 28.6009 42.1691 28.1388V25.8246C42.1691 24.9701 41.989 24.1427 41.6342 23.3656L41.4822 23.033H44.9072C46.5858 23.033 47.9514 21.6674 47.9514 19.9887C47.9514 19.2443 47.6858 18.5481 47.2214 18.0074C47.4716 17.5729 47.6093 17.0752 47.6093 16.5618C47.6093 15.7773 47.2846 15.0374 46.7449 14.502C46.8848 14.1678 46.9592 13.8059 46.9592 13.4372C46.9592 12.6279 46.5985 11.8789 46.0182 11.3661C46.2876 10.9436 46.4423 10.4488 46.4514 9.93289C46.4646 9.19534 46.1842 8.49662 45.6624 7.96548C45.1364 7.43009 44.4039 7.12292 43.6529 7.12292H42.2588L46.9926 1.95567C49.0501 2.16066 50.6622 3.9014 50.6622 6.01188V29.4939C50.6622 31.7418 48.8333 33.5705 46.5855 33.5705H33.5512C33.0167 33.5705 32.5836 34.0037 32.5836 34.5381C32.5836 35.0725 33.0167 35.5057 33.5512 35.5057H46.5849C49.8999 35.5057 52.5968 32.8089 52.5968 29.4939V6.01175C52.5968 2.69683 49.9 0 46.5849 0ZM43.6525 9.05794C43.8877 9.05794 44.1171 9.15405 44.2816 9.32151C44.4367 9.47942 44.52 9.68429 44.5161 9.89844C44.511 10.1923 44.3469 10.4636 44.0879 10.6065C43.7387 10.7992 43.5217 11.1656 43.5217 11.5664C43.5217 12.0748 43.8817 12.5228 44.3771 12.6313C44.7517 12.7136 45.0237 13.0525 45.0237 13.4371C45.0237 13.6719 44.9279 13.8886 44.754 14.0472C44.5065 14.273 44.3934 14.6112 44.4554 14.9405C44.5172 15.27 44.7453 15.5439 45.058 15.6646C45.4263 15.8067 45.6737 16.1672 45.6737 16.5617C45.6737 16.8753 45.5268 17.1603 45.2706 17.3439C44.9949 17.5414 44.8428 17.8688 44.8695 18.2068C44.8962 18.5448 45.098 18.8443 45.4014 18.996C45.7804 19.1855 46.016 19.5658 46.016 19.9886C46.016 20.6002 45.5185 21.0977 44.9069 21.0977H40.6242C40.1509 21.0977 39.7157 21.3353 39.46 21.7335C39.2041 22.1316 39.1688 22.6262 39.3654 23.0566L39.8737 24.1694C40.1128 24.6924 40.2338 25.2492 40.2338 25.8244V28.1386C40.2338 28.347 40.1935 28.5504 40.1143 28.7432C39.9342 29.1811 39.5121 29.4639 39.0344 29.4639C38.834 29.4639 38.6539 29.3448 38.5752 29.1606L37.6812 27.063C37.5994 26.8713 37.4581 26.7111 37.2779 26.6062L33.9112 24.6462C33.8763 24.6259 33.84 24.6078 33.8029 24.5919L33.2511 24.3574C32.7095 24.1272 32.2722 23.7078 32.0197 23.1764L31.2948 21.6502C31.1345 21.3128 30.7943 21.0978 30.4209 21.0978H29.456L40.4857 9.05794H43.6525ZM37.6131 9.05794H37.8611L26.8314 21.0978H21.2179C20.6834 21.0978 20.2503 21.531 20.2503 22.0654C20.2503 22.5998 20.6834 23.033 21.2179 23.033H25.0585L16.0846 32.8287C15.0356 32.0904 14.3482 30.8713 14.3482 29.4938V6.01175C14.3482 3.76387 16.177 1.93515 18.4248 1.93515H44.3864L39.6339 7.12279H37.6131C37.0786 7.12279 36.6455 7.556 36.6455 8.09036C36.6455 8.62472 37.0787 9.05794 37.6131 9.05794Z" fill="#282D26"/>
<path d="M33.4901 7.12256H32.9375C32.2697 7.12256 31.6129 7.30201 31.0379 7.64131L30.1572 8.16122H21.2186C20.6841 8.16122 20.251 8.59444 20.251 9.1288C20.251 9.66316 20.6841 10.0964 21.2186 10.0964H30.4214C30.5944 10.0964 30.7642 10.0501 30.9133 9.96208L32.0217 9.30786C32.2989 9.14415 32.6157 9.05771 32.9376 9.05771H33.4903C34.0248 9.05771 34.4578 8.6245 34.4578 8.09014C34.4578 7.55578 34.0245 7.12256 33.4901 7.12256Z" fill="#282D26"/>
<path d="M33.4668 8.08643H37.7123" stroke="#282D26" stroke-width="1.9"/>
<path d="M21.207 9.05518L21.207 22.1602" stroke="#282D26" stroke-width="1.9"/>
<path d="M39.4912 34.5347L26.3862 34.5347" stroke="#282D26" stroke-width="1.9"/>
</svg>
