<?xml version="1.0" standalone="no"?>
<!DOCTYPE svg PUBLIC "-//W3C//DTD SVG 20010904//EN"
 "http://www.w3.org/TR/2001/REC-SVG-20010904/DTD/svg10.dtd">
<svg version="1.0" xmlns="http://www.w3.org/2000/svg"
 width="128.000000pt" height="128.000000pt" viewBox="0 0 128.000000 128.000000"
 preserveAspectRatio="xMidYMid meet">
<metadata>
Created by potrace 1.11, written by Peter Selinger 2001-2013
</metadata>
<g transform="translate(0.000000,128.000000) scale(0.100000,-0.100000)"
fill="#000000" stroke="none">
<path d="M509 1171 c-109 -30 -192 -76 -261 -145 -35 -34 -71 -73 -81 -87 -49
-66 -97 -210 -97 -289 0 -39 1 -41 27 -38 26 3 28 7 34 58 23 218 181 393 401
445 81 19 132 19 220 -1 59 -14 72 -14 79 -3 17 27 8 38 -43 54 -81 25 -201
28 -279 6z"/>
<path d="M942 1068 c-20 -20 -14 -36 26 -65 20 -15 43 -37 51 -47 8 -11 22
-27 32 -37 9 -9 31 -46 49 -83 33 -67 61 -85 74 -50 8 22 -43 129 -82 174 -17
19 -35 40 -40 45 -15 18 -85 75 -92 75 -3 0 -11 -5 -18 -12z"/>
<path d="M610 897 c0 -122 2 -127 52 -127 51 0 118 -76 118 -134 0 -106 -117
-177 -207 -126 -51 28 -76 70 -75 126 1 46 15 78 46 104 23 20 15 50 -13 50
-11 0 -26 -7 -33 -15 -7 -9 -18 -21 -23 -28 -61 -73 -38 -220 44 -274 116 -77
255 -35 303 92 39 100 -18 222 -118 255 -34 11 -34 12 -34 72 l0 60 38 -7 c81
-15 173 -85 213 -162 18 -36 27 -42 50 -36 27 7 24 29 -11 83 -66 104 -171
168 -286 178 l-64 5 0 -116z"/>
<path d="M463 966 c-51 -24 -143 -103 -143 -124 0 -7 -4 -12 -9 -12 -18 0 -54
-107 -59 -173 -5 -75 20 -192 43 -201 7 -2 21 1 31 8 16 12 16 15 0 56 -18 45
-23 126 -11 181 19 87 87 170 172 210 39 18 52 30 53 45 0 32 -22 35 -77 10z"/>
<path d="M583 730 c-50 -20 -68 -110 -33 -161 66 -91 214 -22 189 89 -15 68
-85 101 -156 72z"/>
<path d="M966 595 c-3 -30 -16 -75 -28 -99 -23 -48 -19 -76 10 -76 23 0 60 70
68 131 l6 44 64 1 64 0 -6 -35 c-14 -86 -51 -172 -103 -239 -33 -43 -144 -128
-187 -144 -25 -9 -34 -18 -34 -35 0 -37 24 -37 92 -1 81 42 194 155 232 232
34 69 63 176 62 231 l-1 40 -116 3 -116 3 -7 -56z"/>
<path d="M96 527 c-16 -12 -16 -16 7 -80 13 -37 36 -83 51 -102 23 -30 30 -33
47 -25 24 13 24 17 -1 58 -12 19 -32 63 -46 98 -15 35 -29 64 -33 64 -4 0 -15
-6 -25 -13z"/>
<path d="M333 316 c-40 -40 -73 -80 -73 -89 0 -19 95 -85 152 -106 18 -7 49
-20 70 -28 42 -18 58 -12 58 22 0 19 -9 26 -52 40 -59 20 -148 66 -148 78 0 4
17 24 38 45 l39 39 36 -19 c109 -55 241 -60 347 -12 68 30 83 44 74 68 -9 22
-26 20 -87 -10 -97 -50 -228 -43 -322 17 -25 16 -49 29 -53 29 -4 -1 -40 -34
-79 -74z"/>
</g>
</svg>
