<svg width="248" height="59" viewBox="0 0 248 59" fill="none" xmlns="http://www.w3.org/2000/svg">
<path d="M29.4971 58.9941C45.7878 58.9941 58.9941 45.7878 58.9941 29.4971C58.9941 13.2063 45.7878 0 29.4971 0C13.2063 0 0 13.2063 0 29.4971C0 45.7878 13.2063 58.9941 29.4971 58.9941Z" fill="#DB553F"/>
<path d="M29.1043 43.8177L17.1578 31.8653L12.8669 36.1562L29.1043 52.3936L29.4912 52.0126L33.3952 48.1086L35.4352 46.0686L35.4469 46.0862L39.7378 41.7953L39.7261 41.7777L41.8247 39.6792L45.7287 35.7693L46.1156 35.3883L29.8722 19.1449L25.5813 23.4359L37.5337 35.3883L35.5055 37.4165L21.5249 23.43L29.8957 15.0592L41.8422 27.0116L46.1331 22.7207L29.966 6.54773L29.5088 6.85841L25.6048 10.7683L17.1754 19.1977L13.2714 23.1017L12.8845 23.4828L31.2205 41.7015L29.1043 43.8177Z" fill="white"/>
<path d="M87.5814 37.0045H68V21.4455H72.0045V33.8909H75.7907V21.4455H79.7953V33.8909H83.5768V21.4455H87.5814V37.0045Z" fill="white"/>
<path d="M95.5858 33.7795C95.5115 34.8468 95.1724 35.6913 94.5638 36.3131C93.9552 36.921 93.2073 37.2227 92.3153 37.2227C91.4233 37.2227 90.5871 37.1484 89.802 36.9999V33.9976H90.8055C91.0888 33.9976 91.3165 33.9002 91.493 33.7099C91.6881 33.515 91.7903 33.2784 91.8043 32.9999L92.4732 21.4409H104.826V36.9999H100.821V24.5545H96.1433L95.5858 33.7795Z" fill="white"/>
<path d="M121.067 37.0045H117.063V27.4454L111.72 37.0045H107.493V21.4454H111.497V31.0045L116.84 21.4454H121.067V37.0045Z" fill="white"/>
<path d="M151.761 27.6682H144.662V30.7818H151.761V27.6682Z" fill="white"/>
<path d="M168.016 37.0045H164.011V24.5545H158.446V37.0045H154.441V21.4454H168.016V37.0045Z" fill="white"/>
<path d="M137.536 22.5545H134.865V21H130.86V22.5545H128.189C126.633 22.5545 125.494 22.9118 124.784 23.6218C124.087 24.3178 123.738 25.4454 123.738 27V31.4454C123.738 32.9999 124.087 34.1368 124.784 34.8468C125.494 35.5428 126.633 35.8908 128.189 35.8908H130.86V37.4454H134.865V35.8908H137.536C139.092 35.8908 140.221 35.5428 140.918 34.8468C141.629 34.1368 141.986 32.9999 141.986 31.4454V27C141.986 25.4454 141.629 24.3178 140.918 23.6218C140.221 22.9118 139.097 22.5545 137.536 22.5545ZM131.083 32.7818H129.081C128.189 32.7818 127.748 32.3363 127.748 31.45V27.0046C127.748 26.1137 128.194 25.6728 129.081 25.6728H131.083V32.7818ZM137.982 31.4454C137.982 32.3363 137.536 32.7772 136.649 32.7772H134.646V25.6682H136.649C137.541 25.6682 137.982 26.1137 137.982 27V31.4454Z" fill="white"/>
<path d="M180.044 21.4454H170.697V37.0045H174.701V32.559H180.044C181.6 32.559 182.729 32.211 183.426 31.515C184.136 30.805 184.494 29.6681 184.494 28.1136V25.8909C184.494 24.3364 184.136 23.2088 183.426 22.5127C182.729 21.7981 181.6 21.4454 180.044 21.4454ZM180.49 28.1136C180.49 29.0045 180.044 29.4454 179.156 29.4454H174.706V24.5545H179.156C180.048 24.5545 180.49 24.9999 180.49 25.8862V28.1136Z" fill="white"/>
<path d="M200.573 22.29C199.876 21.58 198.747 21.2227 197.191 21.2227H191.625C190.069 21.2227 188.931 21.58 188.22 22.29C187.523 22.986 187.175 24.1136 187.175 25.6682V32.7818C187.175 34.3363 187.523 35.4732 188.22 36.1832C188.931 36.8792 190.069 37.2272 191.625 37.2272H197.191C198.747 37.2272 199.876 36.8792 200.573 36.1832C201.283 35.4732 201.641 34.3363 201.641 32.7818V25.6682C201.641 24.1136 201.283 22.986 200.573 22.29ZM197.637 32.7818C197.637 33.6727 197.191 34.1136 196.303 34.1136H192.522C191.63 34.1136 191.188 33.6681 191.188 32.7818V25.6682C191.188 24.7772 191.634 24.3364 192.522 24.3364H196.303C197.195 24.3364 197.637 24.7819 197.637 25.6682V32.7818Z" fill="white"/>
<path d="M216.67 37.0045H204.322V21.4454H216.67V24.5545H208.326V27.5568H214.891V30.6704H208.326V33.8908H216.67V37.0045Z" fill="white"/>
<path d="M231.025 21.2227C231.396 21.2227 232.065 21.297 233.027 21.4455V24.4478H232.135C231.912 24.4478 231.712 24.522 231.536 24.6705C231.359 24.8051 231.225 24.9536 231.136 25.116L229.023 29.1159L233.362 37.0045H229.134L225.687 30.6704H223.685V37.0045H219.68V21.4455H223.685V27.5568H225.687L227.912 23.3341C228.237 22.7123 228.642 22.2065 229.115 21.8213C229.603 21.4223 230.24 21.2227 231.025 21.2227Z" fill="white"/>
<path d="M243.326 37.0045H239.322V24.5545H234.648V21.4454H248V24.5545H243.326V37.0045Z" fill="white"/>
</svg>
