<svg width="59" height="59" viewBox="0 0 59 59" fill="none" xmlns="http://www.w3.org/2000/svg">
<path d="M29.4971 58.9941C45.7878 58.9941 58.9941 45.7878 58.9941 29.4971C58.9941 13.2063 45.7878 0 29.4971 0C13.2063 0 0 13.2063 0 29.4971C0 45.7878 13.2063 58.9941 29.4971 58.9941Z" fill="#DB553F"/>
<path d="M29.1043 43.8177L17.1578 31.8653L12.8669 36.1562L29.1043 52.3936L29.4912 52.0126L33.3952 48.1086L35.4352 46.0686L35.4469 46.0862L39.7378 41.7953L39.7261 41.7777L41.8247 39.6792L45.7287 35.7693L46.1156 35.3883L29.8722 19.1449L25.5813 23.4359L37.5337 35.3883L35.5055 37.4165L21.5249 23.43L29.8957 15.0592L41.8422 27.0116L46.1331 22.7207L29.966 6.54773L29.5088 6.85841L25.6048 10.7683L17.1754 19.1977L13.2714 23.1017L12.8845 23.4828L31.2205 41.7015L29.1043 43.8177Z" fill="white"/>
</svg>
