<svg width="224" height="21" viewBox="0 0 224 21" fill="none" xmlns="http://www.w3.org/2000/svg">
<g clip-path="url(#clip0)">
<path d="M0.000105986 10.0693C0.0420614 14.6844 3.77609 18.3765 8.39119 18.3765C13.0063 18.3345 16.6984 14.6005 16.6984 9.9854C16.6564 5.3703 12.9224 1.67822 8.30728 1.67822C3.69218 1.67822 -0.0418494 5.45421 0.000105986 10.0693Z" fill="#505248"/>
<path d="M21.9009 9.94345C21.9428 14.5585 25.6769 18.2506 30.292 18.2506C34.9071 18.2087 38.5991 14.4746 38.5991 9.85954C38.5572 5.24444 34.8231 1.55237 30.2081 1.55237C25.593 1.59432 21.9009 5.32836 21.9009 9.94345Z" fill="#003A3A"/>
<path d="M43.8436 9.81757C43.8856 14.4327 47.6196 18.1247 52.2347 18.1247C56.8498 18.0828 60.5419 14.3488 60.5419 9.73366C60.4999 5.11856 56.7659 1.42648 52.1508 1.42648C47.4937 1.46844 43.8017 5.20247 43.8436 9.81757Z" fill="#00ADAC"/>
<path d="M65.7442 9.73367C65.7862 14.3488 69.5202 18.0408 74.1353 18.0408C78.7504 17.9989 82.4425 14.2649 82.4425 9.64976C82.4005 5.03467 78.6665 1.34259 74.0514 1.34259C69.4363 1.34259 65.7023 5.11858 65.7442 9.73367Z" fill="#0389AD"/>
<path d="M87.645 9.60779C87.687 14.2229 91.421 17.915 96.0361 17.915C100.651 17.873 104.385 14.139 104.343 9.52388C104.301 4.90878 100.567 1.21671 95.9522 1.21671C91.3371 1.25866 87.645 4.99269 87.645 9.60779Z" fill="#244770"/>
<path d="M121.923 12.8803H117.014L115.923 15.9011C115.755 16.3207 115.378 16.5724 114.958 16.5724C114.413 16.5724 113.951 16.1109 113.951 15.5235C113.951 15.3977 113.951 15.3137 113.993 15.1879L118.398 2.9369C118.566 2.51735 118.986 2.1817 119.489 2.1817C119.951 2.1817 120.412 2.51735 120.58 2.97885L124.985 15.2298C125.027 15.3137 125.027 15.4816 125.027 15.5655C125.027 16.1109 124.608 16.6144 123.979 16.6144C123.559 16.6144 123.181 16.3626 123.014 15.9431L121.923 12.8803ZM119.489 6.0416L117.769 10.8665H121.251L119.489 6.0416Z" fill="#3A352E"/>
<path d="M128.677 6.75484V15.5655C128.677 16.1529 128.216 16.6144 127.628 16.6144C127.041 16.6144 126.538 16.1529 126.538 15.5655V3.35645C126.538 2.72712 127.083 2.1817 127.712 2.1817C128.174 2.1817 128.551 2.39148 128.719 2.76908L133.964 12.0412V3.23059C133.964 2.64321 134.467 2.1817 135.055 2.1817C135.6 2.1817 136.103 2.64321 136.103 3.23059V15.4396C136.103 16.1109 135.558 16.6144 134.929 16.6144C134.509 16.6144 134.132 16.3626 133.922 16.027L128.677 6.75484Z" fill="#3A352E"/>
<path d="M140.173 9.48189C138.621 8.8106 137.824 7.5939 137.824 6.04155C137.824 3.65009 140.047 2.2236 142.313 2.2236C143.404 2.2236 144.579 2.43338 145.627 2.89489C146.047 3.06271 146.425 3.3564 146.425 3.90182C146.425 4.40528 146.005 4.86679 145.418 4.86679C145.292 4.86679 145.166 4.86679 145.04 4.78288C144.579 4.61506 143.865 4.19551 142.229 4.19551C141.264 4.19551 139.963 4.61506 139.963 5.95763C139.963 6.88065 140.425 7.30021 141.222 7.67781L143.488 8.68474C144.998 9.35602 146.425 10.279 146.425 12.4188C146.425 14.8522 144.704 16.6563 141.977 16.6563C140.803 16.6563 139.46 16.3206 138.411 15.9011C138.033 15.7332 137.782 15.3976 137.782 14.9781C137.782 14.4326 138.159 13.9711 138.747 13.9711C138.998 13.9711 139.208 14.0131 139.376 14.097C140.215 14.4746 141.054 14.7263 141.977 14.7263C143.404 14.7263 144.285 14.0131 144.285 12.7125C144.285 11.7055 143.446 11.0342 142.565 10.6147L140.173 9.48189Z" fill="#3A352E"/>
<path d="M157.753 11.7055C157.753 14.6424 155.781 16.6143 152.844 16.6143C149.907 16.6143 147.935 14.6424 147.935 11.7055V7.13239C147.935 4.19551 149.907 2.2236 152.844 2.2236C155.781 2.2236 157.753 4.19551 157.753 7.13239V11.7055ZM155.613 7.00652C155.613 5.24439 154.606 4.15355 152.844 4.15355C151.082 4.15355 150.033 5.20244 150.033 7.00652V11.8314C150.033 13.5935 151.04 14.6844 152.844 14.6844C154.606 14.6844 155.613 13.6355 155.613 11.8314V7.00652Z" fill="#3A352E"/>
<path d="M161.822 6.75484V15.5655C161.822 16.1529 161.361 16.6144 160.773 16.6144C160.186 16.6144 159.683 16.1529 159.683 15.5655V3.35645C159.683 2.72712 160.228 2.1817 160.857 2.1817C161.277 2.1817 161.696 2.39148 161.864 2.76908L167.109 12.0412V3.23059C167.109 2.64321 167.612 2.1817 168.2 2.1817C168.745 2.1817 169.248 2.64321 169.248 3.23059V15.4396C169.248 16.1109 168.703 16.6144 168.074 16.6144C167.654 16.6144 167.277 16.3626 167.067 16.027L161.822 6.75484Z" fill="#3A352E"/>
<path d="M175.416 0.377599C175.416 0.167822 175.584 0 175.794 0C176.003 0 176.213 0.167822 176.213 0.377599V19.5932C176.213 19.803 176.045 19.9708 175.794 19.9708C175.584 19.9708 175.416 19.803 175.416 19.5932V0.377599Z" fill="#3A352E"/>
<path d="M183.765 16.4045C183.052 16.4045 182.464 15.8172 182.464 15.1459V3.69204C182.464 2.9788 183.052 2.43338 183.765 2.43338H187.037C189.387 2.43338 190.981 3.98573 190.981 6.29328C190.981 7.34216 190.52 8.30714 189.639 9.06234C190.813 9.85949 191.359 11.0762 191.359 12.2509C191.359 14.7263 189.681 16.4045 187.205 16.4045H183.765ZM186.744 8.13932C187.961 8.13932 188.842 7.34216 188.842 6.29328C188.842 5.11853 188.254 4.44724 187.037 4.44724H184.604V8.13932H186.744ZM187.163 14.3907C188.506 14.3907 189.219 13.5935 189.219 12.2509C189.219 11.0762 188.212 10.1532 186.828 10.1532C186.828 10.1532 186.618 10.1532 184.562 10.1532V14.3907H187.163Z" fill="#3A352E"/>
<path d="M200.295 12.8803H195.386L194.254 15.943C194.086 16.3626 193.708 16.6143 193.289 16.6143C192.743 16.6143 192.282 16.1528 192.282 15.5654C192.282 15.4396 192.324 15.3556 192.324 15.2298L196.729 2.9788C196.897 2.55925 197.316 2.2236 197.82 2.2236C198.281 2.2236 198.743 2.55925 198.911 3.02076L203.316 15.2717C203.358 15.3556 203.358 15.5235 203.358 15.6074C203.358 16.1528 202.896 16.6563 202.309 16.6563C201.89 16.6563 201.512 16.4045 201.344 15.985L200.295 12.8803ZM197.82 6.04155L196.1 10.8664H199.582L197.82 6.04155Z" fill="#3A352E"/>
<path d="M206.169 16.4045C205.498 16.4045 204.869 15.8591 204.869 15.1459V3.69204C204.869 3.02076 205.456 2.43338 206.169 2.43338H211.959C212.546 2.43338 213.008 2.89489 213.008 3.48227C213.008 4.02769 212.546 4.44724 211.959 4.44724H207.008V8.13932H211.707C212.295 8.13932 212.756 8.55887 212.756 9.14625C212.756 9.69167 212.295 10.1532 211.707 10.1532H207.008V14.3907H212.127C212.672 14.3907 213.176 14.8102 213.176 15.3976C213.176 15.985 212.714 16.4045 212.127 16.4045H206.169Z" fill="#3A352E"/>
<path d="M218.714 10.5308H216.91V15.5654C216.91 16.1528 216.406 16.6143 215.861 16.6143C215.274 16.6143 214.812 16.1528 214.812 15.5654V3.69204C214.812 2.9788 215.399 2.43338 216.113 2.43338H219.805C220.979 2.43338 221.986 2.81098 222.742 3.56618C223.497 4.32137 223.916 5.37026 223.916 6.54501C223.916 7.76172 223.497 8.76865 222.784 9.48189C222.322 9.9434 221.735 10.2371 221.063 10.4049L223.832 15.062C223.916 15.2298 224 15.4396 224 15.6074C224 16.1108 223.539 16.6143 222.951 16.6143C222.574 16.6143 222.238 16.4465 222.07 16.1108L218.714 10.5308ZM219.847 8.51692C220.77 8.51692 221.819 8.13932 221.819 6.50306C221.819 5.28635 221.105 4.40529 219.847 4.40529H216.952V8.51692H219.847Z" fill="#3A352E"/>
</g>
<defs>
<clipPath id="clip0">
<rect width="224" height="20.0127" fill="white"/>
</clipPath>
</defs>
</svg>
