<svg width="33" height="33" viewBox="0 0 33 33" fill="none" xmlns="http://www.w3.org/2000/svg">
<path d="M21.5648 0H11.4352C2.19134 0 0 2.19134 0 11.4352V21.5648C0 30.8087 2.19134 33 11.4352 33H21.5648C30.8087 33 33 30.8087 33 21.5648V11.4352C33 2.19134 30.787 0 21.5648 0ZM26.6405 23.5406H24.245C23.3375 23.5406 23.058 22.8208 21.4256 21.1668C20.0077 19.7922 19.3797 19.6096 19.0301 19.6096C18.5361 19.6096 18.3959 19.7489 18.3959 20.4264V22.5909C18.3959 23.1715 18.2134 23.52 16.6769 23.52C14.1359 23.52 11.3166 21.9835 9.33974 19.1208C6.35849 14.9258 5.5428 11.7837 5.5428 11.1341C5.5428 10.7845 5.68201 10.4576 6.35333 10.4576H8.75401C9.3614 10.4576 9.59239 10.737 9.82854 11.3867C11.0155 14.8134 12.9923 17.8153 13.808 17.8153C14.1091 17.8153 14.2483 17.6761 14.2483 16.9078V13.3687C14.1566 11.7363 13.2976 11.596 13.2976 11.0165C13.2976 10.737 13.5285 10.4576 13.8988 10.4576H17.674C18.1845 10.4576 18.3722 10.737 18.3722 11.3382V16.1128C18.3722 16.6284 18.6032 16.8109 18.7424 16.8109C19.0435 16.8109 19.3013 16.6284 19.8592 16.0695C21.5834 14.1359 22.8188 11.1547 22.8188 11.1547C22.9797 10.8051 23.2591 10.4782 23.8665 10.4782H26.2672C26.987 10.4782 27.1478 10.8484 26.987 11.364C26.6859 12.7603 23.7479 16.9068 23.7479 16.9068C23.4953 17.3255 23.3983 17.508 23.7479 17.9752C24.0057 18.3247 24.8441 19.0497 25.402 19.6994C26.428 20.8646 27.2169 21.8422 27.4273 22.5187C27.6634 23.19 27.3149 23.5396 26.6374 23.5396L26.6405 23.5406Z" fill="#111213"/>
</svg>
