<svg width="66" height="86" viewBox="0 0 66 86" fill="none" xmlns="http://www.w3.org/2000/svg">
<path d="M20.1955 76.4237C13.9295 70.6401 10.7523 65.5471 10.7523 61.2861C10.7523 60.7375 10.7748 60.1868 10.8193 59.6493C10.8334 59.5105 10.8632 59.3048 10.8976 59.0675C10.9963 58.3863 11.1456 57.357 11.1663 56.2229C11.1665 56.2155 11.1665 56.208 11.1665 56.2006C11.1665 54.3642 10.7607 52.1833 10.331 49.8742C9.70266 46.498 8.97187 42.5702 9.33694 38.6668L11.826 40.5178C12.044 40.6799 12.2984 40.758 12.5506 40.758C12.922 40.758 13.2885 40.5884 13.5271 40.2676C13.9279 39.7288 13.8159 38.9672 13.277 38.5665L9.78144 35.9672C10.03 34.9428 10.3751 33.9295 10.8394 32.9379C11.124 32.3298 10.8619 31.606 10.2538 31.3211C9.64592 31.0365 8.9221 31.2986 8.63711 31.9067C8.24983 32.7339 7.93485 33.5685 7.68229 34.4061L5.04688 32.446V15.8972C6.46209 15.3953 7.47852 14.0432 7.47852 12.4579C7.47852 10.4466 5.84235 8.8103 3.83105 8.8103C1.81976 8.8103 0.183594 10.4466 0.183594 12.4579C0.183594 14.0432 1.20002 15.3953 2.61523 15.8972V33.057C2.61523 33.4415 2.79712 33.8032 3.10545 34.0327L7.08978 36.9956C6.59713 40.0598 6.79604 43.113 7.19839 45.965C3.35348 46.5074 0.683701 49.401 0.683701 53.2424C0.683701 57.306 3.98976 60.6119 8.05319 60.6119C8.14592 60.6119 8.23849 60.6101 8.33089 60.6067C8.32408 60.833 8.32067 61.0596 8.32067 61.2859C8.32067 66.2534 11.7611 71.9477 18.5464 78.2105C18.7801 78.4262 19.0758 78.5329 19.3707 78.5329C19.6983 78.5329 20.0248 78.4013 20.2644 78.1417C20.7198 77.6483 20.689 76.8791 20.1955 76.4237ZM3.83105 11.2419C4.50154 11.2419 5.04688 11.7874 5.04688 12.4579C5.04688 13.1284 4.50154 13.6739 3.83105 13.6739C3.16057 13.6739 2.61523 13.1284 2.61523 12.4579C2.61523 11.7874 3.16057 11.2419 3.83105 11.2419ZM3.11534 53.2424C3.11534 50.6316 4.91022 48.728 7.58405 48.3668C7.70158 49.0339 7.82284 49.6854 7.94069 50.3189C8.34823 52.5095 8.7334 54.5788 8.73519 56.1892C8.72125 56.9088 8.647 57.5851 8.57097 58.1533C8.39962 58.1712 8.22681 58.1802 8.05336 58.1802C5.3304 58.1802 3.11534 55.9652 3.11534 53.2424Z" fill="#282D26"/>
<path d="M58.1608 45.9648C58.568 43.0793 58.7667 39.9878 58.2517 36.8873L62.0906 34.0326C62.3991 33.803 62.5808 33.4414 62.5808 33.0568V15.8972C63.9961 15.3953 65.0125 14.0432 65.0125 12.4579C65.0125 10.4466 63.3763 8.8103 61.365 8.8103C59.3537 8.8103 57.7176 10.4466 57.7176 12.4579C57.7176 14.0432 58.734 15.3953 60.1492 15.8972V32.446L57.6467 34.3069C57.3993 33.5023 57.0939 32.701 56.7219 31.9062C56.4372 31.2981 55.7136 31.036 55.1052 31.3207C54.4971 31.6055 54.2348 32.3293 54.5196 32.9374C54.9683 33.8959 55.3059 34.8747 55.5524 35.8643L51.9189 38.5661C51.38 38.9669 51.268 39.7285 51.6688 40.2673C51.9074 40.5881 52.2739 40.7577 52.6453 40.7577C52.8976 40.7577 53.1519 40.6796 53.3699 40.5174L56.0114 38.5533C56.4015 42.494 55.6625 46.4652 55.0282 49.8741C54.5984 52.1832 54.1926 54.364 54.1926 56.2004C54.1926 56.2078 54.1926 56.2153 54.1928 56.2228C54.2136 57.357 54.3629 58.3863 54.4616 59.0675C54.496 59.305 54.5258 59.5108 54.5399 59.6496C54.5843 60.1863 54.6068 60.7369 54.6068 61.2859C54.6068 66.4117 50.0644 72.6793 41.1038 79.9163C38.7383 81.8356 35.7611 82.8912 32.7109 82.8912C32.6995 82.8912 32.688 82.8912 32.6767 82.8912C29.6195 82.8925 26.63 81.8427 24.2557 79.9163C23.7344 79.4934 22.9686 79.573 22.5457 80.0945C22.1226 80.6159 22.2023 81.3815 22.7238 81.8046C25.521 84.0743 29.042 85.3229 32.6362 85.3229H32.717C36.3172 85.3227 39.8385 84.0741 42.6338 81.8064C52.1921 74.0866 57.0386 67.1827 57.0386 61.2859C57.0386 61.0596 57.0352 60.8328 57.0284 60.6067C57.1208 60.6101 57.2136 60.6119 57.3063 60.6119C61.3699 60.6119 64.6758 57.306 64.6758 53.2424C64.6756 49.401 62.0058 46.5074 58.1608 45.9648ZM61.365 11.2419C62.0355 11.2419 62.5808 11.7874 62.5808 12.4579C62.5808 13.1284 62.0355 13.6739 61.365 13.6739C60.6945 13.6739 60.1492 13.1284 60.1492 12.4579C60.1492 11.7874 60.6947 11.2419 61.365 11.2419ZM57.3061 58.1802C57.1327 58.1802 56.9599 58.1712 56.7885 58.1533C56.7125 57.5851 56.6382 56.9091 56.6243 56.1895C56.6261 54.5791 57.0111 52.5096 57.4188 50.3189C57.5366 49.6854 57.6579 49.0339 57.7754 48.3668C60.4493 48.7281 62.244 50.6318 62.244 53.2424C62.244 55.9652 60.0289 58.1802 57.3061 58.1802Z" fill="#282D26"/>
<path d="M31.5345 64.0186C31.5345 63.4321 32.0118 62.9548 32.5983 62.9548C33.1848 62.9548 33.6621 63.4319 33.6621 64.0186C33.6621 64.6901 34.2064 65.2344 34.8779 65.2344C35.5493 65.2344 36.0937 64.6901 36.0937 64.0186C36.0937 62.0913 34.5256 60.5232 32.5983 60.5232C30.671 60.5232 29.1029 62.0911 29.1029 64.0186C29.1029 64.6901 29.6473 65.2344 30.3187 65.2344C30.9902 65.2344 31.5345 64.6901 31.5345 64.0186Z" fill="#282D26"/>
<path d="M27.4035 55.9048C27.6267 56.3015 28.0393 56.5245 28.4641 56.5245C28.6661 56.5245 28.8709 56.4741 29.0592 56.3681C29.6445 56.0387 29.8518 55.2975 29.5226 54.7123C28.3411 52.613 26.1116 51.3088 23.7041 51.3088C21.2966 51.3088 19.0672 52.6128 17.8857 54.7122C17.5565 55.2974 17.7638 56.0387 18.3488 56.3681C18.9339 56.6973 19.6754 56.49 20.0048 55.905C20.7562 54.57 22.1737 53.7405 23.7041 53.7405C25.2346 53.7405 26.6522 54.5697 27.4035 55.9048Z" fill="#282D26"/>
<path d="M45.1916 55.9047C45.521 56.4898 46.2623 56.6971 46.8475 56.3679C47.4326 56.0385 47.6401 55.2971 47.3106 54.7119C46.129 52.6126 43.8995 51.3086 41.4922 51.3086C39.0849 51.3086 36.8552 52.6126 35.6738 54.7121C35.3445 55.2973 35.5519 56.0386 36.1371 56.3679C36.3256 56.4739 36.5302 56.5243 36.7322 56.5243C37.1571 56.5243 37.5697 56.3012 37.7929 55.9045C38.5443 54.5696 39.9616 53.7402 41.4921 53.7402C43.0225 53.7402 44.4403 54.5697 45.1916 55.9047Z" fill="#282D26"/>
<path d="M26.1836 74.3228H38.1836" stroke="#282D26" stroke-width="2" stroke-linecap="round"/>
<path d="M26.3074 38.4018C27.3924 38.6731 29.6437 39.2155 29.9692 39.2155L33.2241 37.1812V4.22536L32.4104 2.59791L30.7829 1.78418H28.3418L25.4937 3.00477L23.8663 5.03908L21.4251 5.44594L18.5771 7.07339L16.9496 9.92143V12.7695L18.1702 14.8038L15.729 16.4312L14.1016 18.8724L14.5084 21.3136L15.729 24.5685L18.1702 26.1959L16.5427 30.2646L18.1702 33.5195L21.0182 35.1469L23.8663 35.5538L26.3074 38.4018Z" fill="white"/>
<path d="M38.107 4.22547C37.7815 4.55096 36.3439 5.17482 35.6658 5.44606L33.6315 7.88724L33.2246 37.9951L36.0726 36.3676L42.5825 33.1127L47.8717 29.0441L51.9403 25.3823L53.9746 21.7206L54.3815 17.6519V12.7696L52.754 8.2941L50.7197 5.44606L47.4648 3.81861C46.8138 3.49312 45.2949 3.1405 44.6168 3.00488C43.803 3.1405 42.0128 3.41175 41.3619 3.41175C40.5481 3.41175 38.5138 3.81861 38.107 4.22547Z" fill="#C1CB8F"/>
<path d="M51.9718 6.17639C49.7622 3.57633 46.5361 2.258 42.3834 2.258C40.5403 2.258 38.6423 2.73064 36.7422 3.6627C35.3874 4.32732 34.2281 5.325 33.3604 6.56482V4.40996C33.3988 2.63312 32.1174 1.07032 30.3756 0.772305C29.2497 0.579579 28.0259 0.681727 26.7386 1.07594C26.725 1.08007 26.7115 1.08453 26.6983 1.08941C25.1028 1.66907 23.7916 2.81006 23.0221 4.26757C22.8535 4.25558 22.6928 4.24963 22.538 4.24963C20.1348 4.24963 17.8895 5.39789 16.5323 7.32068C15.0215 9.45678 14.8618 12.2625 16.0536 14.5564C13.9923 15.8469 12.7451 18.0497 12.7451 20.4935C12.7451 23.0505 14.1457 25.3666 16.3831 26.6236C15.488 28.3592 15.3902 30.431 16.1591 32.231C16.1628 32.2398 16.1667 32.2484 16.1708 32.2571C17.4457 34.9766 19.907 36.4755 22.8335 36.3505C23.9735 38.7934 26.2091 40.2307 29.0563 40.3221C29.0652 40.3223 29.074 40.3225 29.0828 40.3225C29.5428 40.3225 30.1013 40.22 30.7903 40.0093C31.5359 39.7812 32.1662 39.3271 32.6165 38.7391C32.6808 38.7342 32.745 38.7216 32.8075 38.7013C33.1595 38.587 41.5186 35.8221 49.3048 28.6604C53.0691 25.198 55.0588 20.8627 55.0588 16.1233C55.0588 11.9925 53.9913 8.55291 51.9718 6.17639ZM30.3067 38.4288C29.6688 38.624 29.2969 38.668 29.0949 38.6697C26.7051 38.5882 24.9451 37.3529 24.1382 35.1902C24.0165 34.8641 23.7056 34.6526 23.3643 34.6526C23.3318 34.6526 23.2991 34.6545 23.2662 34.6584C20.7762 34.9548 18.7385 33.8287 17.6735 31.5686C17.119 30.2593 17.1783 28.7574 17.8026 27.4802C18.3187 27.7664 18.899 27.9257 19.5018 27.9394C19.53 27.94 19.558 27.9404 19.5861 27.9404C20.5279 27.9404 21.4044 27.5811 22.0619 26.9237C22.3846 26.6009 22.3846 26.0776 22.0619 25.7548C21.7392 25.4321 21.2159 25.4321 20.8931 25.7548C20.5383 26.1096 20.057 26.2986 19.5392 26.2869C19.0147 26.275 18.5206 26.0633 18.148 25.6905C18.1411 25.6837 18.1336 25.6778 18.1266 25.6712C18.1175 25.6628 18.1085 25.6543 18.099 25.6463C18.0846 25.634 18.0697 25.6225 18.0547 25.6114C18.0464 25.6053 18.0383 25.5989 18.0298 25.5931C18.0104 25.5799 17.9905 25.5677 17.9704 25.5563C17.9652 25.5534 17.9602 25.55 17.955 25.5472C17.9277 25.5325 17.8999 25.5193 17.8714 25.5079C15.7613 24.6579 14.398 22.6897 14.398 20.4935C14.398 18.743 15.2411 17.1528 16.652 16.1453C17.1881 17.4475 18.4551 18.3514 19.9346 18.3514C20.391 18.3514 20.761 17.9814 20.761 17.525C20.761 17.0685 20.391 16.6985 19.9346 16.6985C18.9093 16.6985 18.0739 15.8804 18.0328 14.8357C18.0326 14.8319 18.0319 14.8281 18.0318 14.8243C18.0311 14.8117 18.0296 14.7993 18.0284 14.7868C18.0267 14.7698 18.0249 14.7529 18.0223 14.7362C18.0205 14.7256 18.0183 14.715 18.0162 14.7044C18.0124 14.6858 18.0083 14.6675 18.0033 14.6493C18.0009 14.6405 17.9982 14.6317 17.9955 14.6229C17.9894 14.6033 17.9827 14.5839 17.9752 14.565C17.9722 14.5576 17.9692 14.5501 17.966 14.5427C17.9574 14.5225 17.9479 14.5029 17.9377 14.4836C17.9345 14.4774 17.9314 14.4712 17.9279 14.4651C17.9162 14.4441 17.9034 14.4239 17.89 14.404C17.8879 14.401 17.8862 14.3977 17.8841 14.3946C16.596 12.5537 16.595 10.0945 17.8822 8.27448C18.9306 6.7892 20.6711 5.90251 22.538 5.90251C22.6145 5.90251 22.6948 5.90516 22.777 5.90921C23.1301 7.50961 24.5759 8.71208 26.3015 8.71208C26.758 8.71208 27.128 8.34208 27.128 7.88564C27.128 7.42919 26.758 7.0592 26.3015 7.0592C25.2778 7.0592 24.436 6.28697 24.354 5.30805C24.9082 4.0741 25.9268 3.13402 27.2429 2.65022C28.2735 2.3375 29.2336 2.25386 30.0969 2.40163C31.0391 2.56287 31.7317 3.41344 31.7078 4.38021C31.7076 4.38707 31.7075 4.39385 31.7075 4.40062V20.5137L31.7075 36.5305C31.7192 37.3933 31.147 38.1717 30.3067 38.4288ZM48.1858 27.444C45.228 30.1646 41.7705 33.3042 33.3603 36.7355V36.6343C33.3615 36.5804 33.3617 36.5263 33.3604 36.4721V20.1244L33.3605 11.8188C33.3605 8.99034 34.9737 6.37135 37.4703 5.14657C39.1419 4.32657 40.7949 3.91079 42.3835 3.91079C51.974 3.91088 53.406 11.5624 53.406 16.1233C53.406 20.449 51.6496 24.2578 48.1858 27.444Z" fill="#282D26" stroke="#282D26" stroke-width="0.5"/>
</svg>
