<svg width="65" height="86" viewBox="0 0 65 86" fill="none" xmlns="http://www.w3.org/2000/svg">
<path d="M20.0119 76.4203C13.7459 70.6367 10.5687 65.5437 10.5687 61.2827C10.5687 60.7341 10.5913 60.1834 10.6357 59.6458C10.6498 59.5071 10.6796 59.3014 10.714 59.064C10.8127 58.3829 10.962 57.3536 10.9827 56.2195C10.9829 56.212 10.9829 56.2046 10.9829 56.1971C10.9829 54.3608 10.5772 52.1799 10.1474 49.8708C9.51906 46.4946 8.78827 42.5668 9.15335 38.6634L11.6424 40.5143C11.8604 40.6765 12.1148 40.7546 12.367 40.7546C12.7384 40.7546 13.1049 40.585 13.3435 40.2642C13.7443 39.7254 13.6323 38.9638 13.0934 38.563L9.59785 35.9638C9.84636 34.9394 10.1915 33.9261 10.6558 32.9344C10.9404 32.3264 10.6783 31.6025 10.0702 31.3177C9.46233 31.0331 8.73851 31.2952 8.45352 31.9033C8.06624 32.7305 7.75126 33.565 7.49869 34.4027L4.86328 32.4426V15.8938C6.2785 15.3919 7.29492 14.0398 7.29492 12.4545C7.29492 10.4432 5.65875 8.80688 3.64746 8.80688C1.63617 8.80688 0 10.4432 0 12.4545C0 14.0398 1.01643 15.3919 2.43164 15.8938V33.0536C2.43164 33.4381 2.61353 33.7998 2.92186 34.0293L6.90618 36.9922C6.41353 40.0564 6.61244 43.1096 7.0148 45.9615C3.16989 46.504 0.500107 49.3976 0.500107 53.239C0.500107 57.3026 3.80617 60.6085 7.8696 60.6085C7.96233 60.6085 8.05489 60.6067 8.14729 60.6033C8.14048 60.8296 8.13708 61.0562 8.13708 61.2825C8.13708 66.25 11.5775 71.9443 18.3628 78.207C18.5965 78.4228 18.8922 78.5295 19.1871 78.5295C19.5147 78.5295 19.8412 78.3979 20.0808 78.1383C20.5362 77.6449 20.5054 76.8756 20.0119 76.4203ZM3.64746 11.2385C4.31795 11.2385 4.86328 11.784 4.86328 12.4545C4.86328 13.125 4.31795 13.6705 3.64746 13.6705C2.97698 13.6705 2.43164 13.125 2.43164 12.4545C2.43164 11.784 2.97698 11.2385 3.64746 11.2385ZM2.93175 53.239C2.93175 50.6282 4.72662 48.7245 7.40046 48.3634C7.51798 49.0304 7.63924 49.682 7.7571 50.3155C8.16464 52.5061 8.54981 54.5754 8.55159 56.1858C8.53765 56.9054 8.46341 57.5817 8.38738 58.1499C8.21603 58.1677 8.04322 58.1768 7.86976 58.1768C5.14681 58.1768 2.93175 55.9617 2.93175 53.239Z" fill="#282D26"/>
<path d="M57.9772 45.9614C58.3844 43.0758 58.5832 39.9844 58.0681 36.8839L61.9071 34.0292C62.2155 33.7996 62.3973 33.438 62.3973 33.0534V15.8938C63.8125 15.3919 64.8289 14.0398 64.8289 12.4545C64.8289 10.4432 63.1927 8.80688 61.1815 8.80688C59.1702 8.80688 57.534 10.4432 57.534 12.4545C57.534 14.0398 58.5504 15.3919 59.9656 15.8938V32.4426L57.4632 34.3035C57.2158 33.4989 56.9104 32.6976 56.5383 31.9028C56.2537 31.2947 55.53 31.0326 54.9216 31.3172C54.3135 31.6021 54.0512 32.3259 54.3361 32.934C54.7848 33.8925 55.1223 34.8713 55.3689 35.8608L51.7353 38.5627C51.1965 38.9634 51.0845 39.725 51.4852 40.2639C51.7238 40.5847 52.0904 40.7543 52.4618 40.7543C52.714 40.7543 52.9683 40.6761 53.1864 40.514L55.8278 38.5499C56.218 42.4906 55.4789 46.4618 54.8446 49.8707C54.4148 52.1797 54.0091 54.3606 54.0091 56.197C54.0091 56.2044 54.0091 56.2119 54.0092 56.2193C54.03 57.3536 54.1793 58.3829 54.278 59.064C54.3124 59.3015 54.3422 59.5074 54.3563 59.6462C54.4007 60.1829 54.4233 60.7334 54.4233 61.2825C54.4233 66.4082 49.8808 72.6759 40.9202 79.9129C38.5547 81.8321 35.5776 82.8878 32.5273 82.8878C32.516 82.8878 32.5045 82.8878 32.4931 82.8878C29.4359 82.8891 26.4464 81.8393 24.0722 79.9129C23.5508 79.49 22.785 79.5696 22.3621 80.0911C21.939 80.6124 22.0187 81.3781 22.5403 81.8012C25.3375 84.0709 28.8585 85.3194 32.4526 85.3194H32.5335C36.1336 85.3193 39.655 84.0707 42.4502 81.803C52.0085 74.0832 56.8551 67.1792 56.8551 61.2825C56.8551 61.0562 56.8517 60.8294 56.8449 60.6033C56.9373 60.6067 57.03 60.6085 57.1227 60.6085C61.1863 60.6085 64.4922 57.3026 64.4922 53.239C64.4921 49.3976 61.8223 46.504 57.9772 45.9614ZM61.1815 11.2385C61.8519 11.2385 62.3973 11.784 62.3973 12.4545C62.3973 13.125 61.8519 13.6705 61.1815 13.6705C60.511 13.6705 59.9656 13.125 59.9656 12.4545C59.9656 11.784 60.5111 11.2385 61.1815 11.2385ZM57.1226 58.1768C56.9491 58.1768 56.7763 58.1677 56.6049 58.1499C56.5289 57.5817 56.4547 56.9057 56.4407 56.1861C56.4425 54.5757 56.8275 52.5062 57.2352 50.3155C57.3531 49.682 57.4743 49.0304 57.5919 48.3634C60.2657 48.7247 62.0604 50.6284 62.0604 53.239C62.0604 55.9618 59.8453 58.1768 57.1226 58.1768Z" fill="#282D26"/>
<path d="M31.3509 64.0152C31.3509 63.4287 31.8282 62.9514 32.4147 62.9514C33.0012 62.9514 33.4785 63.4285 33.4785 64.0152C33.4785 64.6866 34.0228 65.231 34.6943 65.231C35.3657 65.231 35.9101 64.6866 35.9101 64.0152C35.9101 62.0879 34.342 60.5198 32.4147 60.5198C30.4874 60.5198 28.9193 62.0877 28.9193 64.0152C28.9193 64.6866 29.4637 65.231 30.1351 65.231C30.8066 65.231 31.3509 64.6866 31.3509 64.0152Z" fill="#282D26"/>
<path d="M27.2198 55.9014C27.4431 56.2981 27.8556 56.5211 28.2805 56.5211C28.4825 56.5211 28.6873 56.4707 28.8756 56.3647C29.4608 56.0353 29.6682 55.2941 29.3389 54.7089C28.1575 52.6096 25.928 51.3054 23.5205 51.3054C21.113 51.3054 18.8835 52.6094 17.7021 54.7087C17.3728 55.294 17.5802 56.0353 18.1652 56.3647C18.7503 56.6939 19.4918 56.4866 19.8212 55.9015C20.5725 54.5666 21.99 53.7371 23.5205 53.7371C25.051 53.7371 26.4686 54.5662 27.2198 55.9014Z" fill="#282D26"/>
<path d="M45.008 55.9013C45.3374 56.4863 46.0787 56.6937 46.6639 56.3644C47.249 56.035 47.4565 55.2937 47.1271 54.7085C45.9454 52.6092 43.7159 51.3052 41.3086 51.3052C38.9013 51.3052 36.6716 52.6092 35.4902 54.7087C35.1609 55.2939 35.3683 56.0352 35.9535 56.3644C36.142 56.4705 36.3466 56.5209 36.5486 56.5209C36.9735 56.5209 37.3861 56.2978 37.6093 55.9011C38.3607 54.5662 39.778 53.7368 41.3085 53.7368C42.8389 53.7368 44.2567 54.5663 45.008 55.9013Z" fill="#282D26"/>
<path d="M26 74.3193H38" stroke="#282D26" stroke-width="2" stroke-linecap="round"/>
<path d="M13.999 5.48975C13.999 3.28061 15.7899 1.48975 17.999 1.48975H46.8297C49.0389 1.48975 50.8297 3.28061 50.8297 5.48975V29.9046C50.8297 32.1137 49.0389 33.9046 46.8297 33.9046H25.5356H20.294H17.999C15.7899 33.9046 13.999 32.1137 13.999 29.9046V5.48975Z" fill="white" stroke="#282D26" stroke-width="2"/>
<path d="M26.076 23.5317L25.7255 22.6487L24.8492 23.0156L19.9166 25.0809C18.9232 25.4969 18.44 26.6455 18.8374 27.6464L19.1683 28.4799C19.5656 29.4809 20.6931 29.9551 21.6865 29.5392L26.6191 27.4739L27.4954 27.107L27.1449 26.224L26.076 23.5317Z" fill="#C1CB8F" stroke="#282D26" stroke-width="1.9"/>
<path d="M24.8487 23.0145L23.9724 23.3814L24.3229 24.2644L25.3917 26.9567L25.7423 27.8397L26.6186 27.4728L42.4695 20.8359C43.4629 20.42 43.946 19.2714 43.5487 18.2704L43.2178 17.4369C42.8204 16.436 41.693 15.9617 40.6996 16.3776L24.8487 23.0145Z" fill="#C1CB8F" stroke="#282D26" stroke-width="1.9"/>
<path d="M42.5116 4.92383C42.0179 5.41739 41.3268 6.9643 42.5116 8.87349C43.6965 10.7827 42.6213 12.3844 41.9356 12.9878" stroke="#282D26" stroke-width="1.9" stroke-linecap="round"/>
<path d="M46.4276 8.52295C45.9339 9.01652 45.2428 10.5634 46.4277 12.4726C47.6125 14.3818 46.5373 15.9835 45.8516 16.5869" stroke="#282D26" stroke-width="1.9" stroke-linecap="round"/>
</svg>
