<svg xmlns="http://www.w3.org/2000/svg" width="21.438" height="21.438" viewBox="0 0 21.438 21.438">
  <path id="close_3_" data-name="close (3)" d="M10.081,7.58l4.69-4.69a1.326,1.326,0,0,0,0-1.876L14.146.389a1.326,1.326,0,0,0-1.876,0L7.58,5.079,2.891.389a1.326,1.326,0,0,0-1.876,0l-.626.625a1.326,1.326,0,0,0,0,1.876l4.69,4.69L.39,12.269a1.326,1.326,0,0,0,0,1.876l.625.625a1.326,1.326,0,0,0,1.876,0l4.69-4.69,4.689,4.69a1.326,1.326,0,0,0,1.876,0l.625-.625a1.326,1.326,0,0,0,0-1.876Zm0,0" transform="translate(10.719 0) rotate(45)" fill="#fff"/>
</svg>
