<svg width="81" height="81" viewBox="0 0 81 81" fill="none" xmlns="http://www.w3.org/2000/svg">
<circle r="39.5" transform="matrix(-1 0 0 1 40.5 40.5)" fill="white" stroke="url(#paint0_linear)" stroke-width="2"/>
<g filter="url(#filter0_d)">
<mask id="path-2-inside-1" fill="white">
<path fill-rule="evenodd" clip-rule="evenodd" d="M34.8589 26.8727C34.7529 26.9723 34.6689 27.0906 34.6115 27.2209C34.5541 27.3512 34.5246 27.4909 34.5246 27.6319C34.5246 27.773 34.5541 27.9126 34.6115 28.0429C34.6689 28.1732 34.7529 28.2916 34.8589 28.3912L47.7101 40.5005L34.8589 52.6099C34.7531 52.7096 34.6692 52.828 34.6119 52.9582C34.5547 53.0885 34.5252 53.2281 34.5252 53.3691C34.5252 53.5101 34.5547 53.6498 34.6119 53.78C34.6692 53.9103 34.7531 54.0287 34.8589 54.1284C34.9647 54.2281 35.0903 54.3072 35.2285 54.3611C35.3667 54.4151 35.5149 54.4429 35.6645 54.4429C35.8141 54.4429 35.9623 54.4151 36.1005 54.3611C36.2387 54.3072 36.3643 54.2281 36.4701 54.1284L50.1247 41.2598C50.2307 41.1602 50.3148 41.0418 50.3721 40.9115C50.4295 40.7812 50.459 40.6416 50.459 40.5005C50.459 40.3595 50.4295 40.2198 50.3721 40.0895C50.3148 39.9592 50.2307 39.8409 50.1247 39.7413L36.4701 26.8727C36.3644 26.7728 36.2389 26.6936 36.1006 26.6395C35.9624 26.5854 35.8142 26.5576 35.6645 26.5576C35.5148 26.5576 35.3666 26.5854 35.2284 26.6395C35.0902 26.6936 34.9646 26.7728 34.8589 26.8727Z"/>
</mask>
<path d="M34.8589 28.3912L38.2836 24.7481L38.2878 24.7522L34.8589 28.3912ZM47.7101 40.5005L51.1391 36.8615L55.001 40.5005L51.1391 44.1395L47.7101 40.5005ZM34.8589 52.6099L31.4296 48.9712L31.43 48.9709L34.8589 52.6099ZM35.6645 54.4429L35.6645 49.4429L35.6645 54.4429ZM50.1247 41.2598L46.6955 37.6211L46.7001 37.6167L50.1247 41.2598ZM50.1247 39.7413L46.7001 43.3843L46.6955 43.38L50.1247 39.7413ZM36.4701 26.8727L33.0409 30.5114L33.0363 30.507L36.4701 26.8727ZM38.2836 30.5157C38.656 30.1656 38.9684 29.7335 39.1876 29.2357L30.0354 25.2061C30.3693 24.4477 30.8499 23.7789 31.4342 23.2296L38.2836 30.5157ZM39.1876 29.2357C39.4071 28.7371 39.5246 28.1911 39.5246 27.6319L29.5246 27.6319C29.5246 26.7906 29.7011 25.9653 30.0354 25.2061L39.1876 29.2357ZM39.5246 27.6319C39.5246 27.0727 39.4071 26.5267 39.1876 26.0281L30.0354 30.0578C29.7011 29.2986 29.5246 28.4733 29.5246 27.6319L39.5246 27.6319ZM39.1876 26.0281C38.9684 25.5303 38.656 25.0982 38.2836 24.7481L31.4342 32.0342C30.8499 31.4849 30.3693 30.8161 30.0354 30.0578L39.1876 26.0281ZM38.2878 24.7522L51.1391 36.8615L44.2812 44.1395L31.43 32.0302L38.2878 24.7522ZM51.1391 44.1395L38.2878 56.2489L31.43 48.9709L44.2812 36.8615L51.1391 44.1395ZM38.2881 56.2486C38.6595 55.8987 38.9709 55.467 39.1893 54.97L30.0345 50.9464C30.3675 50.1889 30.8467 49.5205 31.4296 48.9712L38.2881 56.2486ZM39.1893 54.97C39.4081 54.4722 39.5252 53.9273 39.5252 53.3691L29.5252 53.3691C29.5252 52.529 29.7012 51.7048 30.0345 50.9464L39.1893 54.97ZM39.5252 53.3691C39.5252 52.811 39.4081 52.266 39.1893 51.7682L30.0345 55.7919C29.7012 55.0335 29.5252 54.2093 29.5252 53.3691L39.5252 53.3691ZM39.1893 51.7682C38.9709 51.2712 38.6595 50.8396 38.2881 50.4897L31.4296 57.7671C30.8467 57.2177 30.3675 56.5494 30.0345 55.7919L39.1893 51.7682ZM38.2881 50.4897C37.9175 50.1403 37.4932 49.8777 37.0467 49.7034L33.4103 59.0188C32.6873 58.7366 32.0119 58.3158 31.4296 57.7671L38.2881 50.4897ZM37.0467 49.7034C36.6005 49.5293 36.1317 49.4429 35.6645 49.4429L35.6645 59.4429C34.8981 59.4429 34.1329 59.3009 33.4103 59.0188L37.0467 49.7034ZM35.6645 49.4429C35.1973 49.4429 34.7285 49.5293 34.2823 49.7034L37.9187 59.0188C37.1961 59.3009 36.4309 59.4429 35.6645 59.4429L35.6645 49.4429ZM34.2823 49.7034C33.8358 49.8777 33.4116 50.1403 33.0409 50.4897L39.8994 57.7671C39.3171 58.3158 38.6417 58.7366 37.9187 59.0188L34.2823 49.7034ZM33.0409 50.4897L46.6955 37.6211L53.554 44.8985L39.8994 57.7671L33.0409 50.4897ZM46.7001 37.6167C46.3276 37.9668 46.0152 38.399 45.7961 38.8967L54.9482 42.9264C54.6143 43.6847 54.1337 44.3535 53.5494 44.9028L46.7001 37.6167ZM45.7961 38.8967C45.5765 39.3953 45.459 39.9413 45.459 40.5005L55.459 40.5005C55.459 41.3419 55.2825 42.1672 54.9482 42.9264L45.7961 38.8967ZM45.459 40.5005C45.459 41.0598 45.5765 41.6057 45.7961 42.1044L54.9482 38.0747C55.2825 38.8339 55.459 39.6592 55.459 40.5005L45.459 40.5005ZM45.7961 42.1044C46.0152 42.6021 46.3276 43.0342 46.7001 43.3843L53.5494 36.0982C54.1337 36.6476 54.6143 37.3164 54.9482 38.0747L45.7961 42.1044ZM46.6955 43.38L33.0409 30.5114L39.8994 23.234L53.554 36.1026L46.6955 43.38ZM33.0363 30.507C33.4074 30.8576 33.8323 31.1212 34.2796 31.2961L37.9217 21.9829C38.6455 22.266 39.3215 22.688 39.904 23.2383L33.0363 30.507ZM34.2796 31.2961C34.7266 31.4709 35.1964 31.5576 35.6645 31.5576L35.6645 21.5576C36.432 21.5576 37.1982 21.7 37.9217 21.9829L34.2796 31.2961ZM35.6645 31.5576C36.1326 31.5576 36.6025 31.4709 37.0494 31.2961L33.4074 21.9829C34.1308 21.7 34.897 21.5576 35.6645 21.5576L35.6645 31.5576ZM37.0494 31.2961C37.4968 31.1212 37.9217 30.8576 38.2927 30.507L31.425 23.2383C32.0075 22.688 32.6836 22.266 33.4074 21.9829L37.0494 31.2961Z" fill="url(#paint1_linear)" mask="url(#path-2-inside-1)"/>
</g>
<defs>
<filter id="filter0_d" x="30.5246" y="24.5576" width="23.9344" height="35.8852" filterUnits="userSpaceOnUse" color-interpolation-filters="sRGB">
<feFlood flood-opacity="0" result="BackgroundImageFix"/>
<feColorMatrix in="SourceAlpha" type="matrix" values="0 0 0 0 0 0 0 0 0 0 0 0 0 0 0 0 0 0 127 0"/>
<feOffset dy="2"/>
<feGaussianBlur stdDeviation="2"/>
<feColorMatrix type="matrix" values="0 0 0 0 0 0 0 0 0 0 0 0 0 0 0 0 0 0 0.25 0"/>
<feBlend mode="normal" in2="BackgroundImageFix" result="effect1_dropShadow"/>
<feBlend mode="normal" in="SourceGraphic" in2="effect1_dropShadow" result="shape"/>
</filter>
<linearGradient id="paint0_linear" x1="81" y1="41.0548" x2="-1.42908e-07" y2="41.0548" gradientUnits="userSpaceOnUse">
<stop stop-color="#FF9334"/>
<stop offset="1" stop-color="#FF5856"/>
</linearGradient>
<linearGradient id="paint1_linear" x1="42.6009" y1="54.4429" x2="42.6009" y2="26.5576" gradientUnits="userSpaceOnUse">
<stop stop-color="#FF9334"/>
<stop offset="1" stop-color="#FF5856"/>
</linearGradient>
</defs>
</svg>
