<svg width="81" height="81" viewBox="0 0 81 81" fill="none" xmlns="http://www.w3.org/2000/svg">
<circle cx="40.5" cy="40.5" r="39.5" fill="white" stroke="url(#paint0_linear)" stroke-width="2"/>
<g filter="url(#filter0_d)">
<mask id="path-2-inside-1" fill="white">
<path fill-rule="evenodd" clip-rule="evenodd" d="M46.1411 26.8727C46.2471 26.9723 46.3311 27.0906 46.3885 27.2209C46.4459 27.3512 46.4754 27.4909 46.4754 27.6319C46.4754 27.773 46.4459 27.9126 46.3885 28.0429C46.3311 28.1732 46.2471 28.2916 46.1411 28.3912L33.2899 40.5005L46.1411 52.6099C46.2469 52.7096 46.3308 52.828 46.3881 52.9582C46.4453 53.0885 46.4748 53.2281 46.4748 53.3691C46.4748 53.5101 46.4453 53.6498 46.3881 53.78C46.3308 53.9103 46.2469 54.0287 46.1411 54.1284C46.0353 54.2281 45.9097 54.3072 45.7715 54.3611C45.6333 54.4151 45.4851 54.4429 45.3355 54.4429C45.1859 54.4429 45.0377 54.4151 44.8995 54.3611C44.7613 54.3072 44.6357 54.2281 44.5299 54.1284L30.8753 41.2598C30.7693 41.1602 30.6852 41.0418 30.6279 40.9115C30.5705 40.7812 30.541 40.6416 30.541 40.5005C30.541 40.3595 30.5705 40.2198 30.6279 40.0895C30.6852 39.9592 30.7693 39.8409 30.8753 39.7413L44.5299 26.8727C44.6356 26.7728 44.7611 26.6936 44.8994 26.6395C45.0376 26.5854 45.1858 26.5576 45.3355 26.5576C45.4852 26.5576 45.6334 26.5854 45.7716 26.6395C45.9098 26.6936 46.0354 26.7728 46.1411 26.8727Z"/>
</mask>
<path d="M46.1411 28.3912L42.7164 24.7481L42.7122 24.7522L46.1411 28.3912ZM33.2899 40.5005L29.8609 36.8615L25.999 40.5005L29.8609 44.1395L33.2899 40.5005ZM46.1411 52.6099L49.5704 48.9712L49.57 48.9709L46.1411 52.6099ZM45.3355 54.4429L45.3355 49.4429L45.3355 54.4429ZM30.8753 41.2598L34.3045 37.6211L34.2999 37.6167L30.8753 41.2598ZM30.8753 39.7413L34.2999 43.3843L34.3045 43.38L30.8753 39.7413ZM44.5299 26.8727L47.9591 30.5114L47.9637 30.507L44.5299 26.8727ZM42.7164 30.5157C42.344 30.1656 42.0316 29.7335 41.8124 29.2357L50.9646 25.2061C50.6307 24.4477 50.1501 23.7789 49.5658 23.2296L42.7164 30.5157ZM41.8124 29.2357C41.5929 28.7371 41.4754 28.1911 41.4754 27.6319L51.4754 27.6319C51.4754 26.7906 51.2989 25.9653 50.9646 25.2061L41.8124 29.2357ZM41.4754 27.6319C41.4754 27.0727 41.5929 26.5267 41.8124 26.0281L50.9646 30.0578C51.2989 29.2986 51.4754 28.4733 51.4754 27.6319L41.4754 27.6319ZM41.8124 26.0281C42.0316 25.5303 42.344 25.0982 42.7164 24.7481L49.5658 32.0342C50.1501 31.4849 50.6307 30.8161 50.9646 30.0578L41.8124 26.0281ZM42.7122 24.7522L29.8609 36.8615L36.7188 44.1395L49.57 32.0302L42.7122 24.7522ZM29.8609 44.1395L42.7122 56.2489L49.57 48.9709L36.7188 36.8615L29.8609 44.1395ZM42.7119 56.2486C42.3405 55.8987 42.0291 55.467 41.8107 54.97L50.9655 50.9464C50.6325 50.1889 50.1533 49.5205 49.5704 48.9712L42.7119 56.2486ZM41.8107 54.97C41.5919 54.4722 41.4748 53.9273 41.4748 53.3691L51.4748 53.3691C51.4748 52.529 51.2988 51.7048 50.9655 50.9464L41.8107 54.97ZM41.4748 53.3691C41.4748 52.811 41.5919 52.266 41.8107 51.7682L50.9655 55.7919C51.2988 55.0335 51.4748 54.2093 51.4748 53.3691L41.4748 53.3691ZM41.8107 51.7682C42.0291 51.2712 42.3405 50.8396 42.7119 50.4897L49.5704 57.7671C50.1533 57.2177 50.6325 56.5494 50.9655 55.7919L41.8107 51.7682ZM42.7119 50.4897C43.0825 50.1403 43.5068 49.8777 43.9533 49.7034L47.5897 59.0188C48.3127 58.7366 48.9881 58.3158 49.5704 57.7671L42.7119 50.4897ZM43.9533 49.7034C44.3995 49.5293 44.8683 49.4429 45.3355 49.4429L45.3355 59.4429C46.1019 59.4429 46.8671 59.3009 47.5897 59.0188L43.9533 49.7034ZM45.3355 49.4429C45.8027 49.4429 46.2715 49.5293 46.7177 49.7034L43.0813 59.0188C43.8039 59.3009 44.5691 59.4429 45.3355 59.4429L45.3355 49.4429ZM46.7177 49.7034C47.1642 49.8777 47.5884 50.1403 47.9591 50.4897L41.1006 57.7671C41.6829 58.3158 42.3583 58.7366 43.0813 59.0188L46.7177 49.7034ZM47.9591 50.4897L34.3045 37.6211L27.446 44.8985L41.1006 57.7671L47.9591 50.4897ZM34.2999 37.6167C34.6724 37.9668 34.9848 38.399 35.2039 38.8967L26.0518 42.9264C26.3857 43.6847 26.8663 44.3535 27.4506 44.9028L34.2999 37.6167ZM35.2039 38.8967C35.4235 39.3953 35.541 39.9413 35.541 40.5005L25.541 40.5005C25.541 41.3419 25.7175 42.1672 26.0518 42.9264L35.2039 38.8967ZM35.541 40.5005C35.541 41.0598 35.4235 41.6057 35.2039 42.1044L26.0518 38.0747C25.7175 38.8339 25.541 39.6592 25.541 40.5005L35.541 40.5005ZM35.2039 42.1044C34.9848 42.6021 34.6724 43.0342 34.2999 43.3843L27.4506 36.0982C26.8663 36.6476 26.3857 37.3164 26.0518 38.0747L35.2039 42.1044ZM34.3045 43.38L47.9591 30.5114L41.1006 23.234L27.446 36.1026L34.3045 43.38ZM47.9637 30.507C47.5926 30.8576 47.1677 31.1212 46.7204 31.2961L43.0783 21.9829C42.3545 22.266 41.6785 22.688 41.096 23.2383L47.9637 30.507ZM46.7204 31.2961C46.2734 31.4709 45.8036 31.5576 45.3355 31.5576L45.3355 21.5576C44.568 21.5576 43.8018 21.7 43.0783 21.9829L46.7204 31.2961ZM45.3355 31.5576C44.8674 31.5576 44.3975 31.4709 43.9506 31.2961L47.5926 21.9829C46.8692 21.7 46.103 21.5576 45.3355 21.5576L45.3355 31.5576ZM43.9506 31.2961C43.5032 31.1212 43.0783 30.8576 42.7073 30.507L49.575 23.2383C48.9925 22.688 48.3164 22.266 47.5926 21.9829L43.9506 31.2961Z" fill="url(#paint1_linear)" mask="url(#path-2-inside-1)"/>
</g>
<defs>
<filter id="filter0_d" x="26.541" y="24.5576" width="23.9344" height="35.8852" filterUnits="userSpaceOnUse" color-interpolation-filters="sRGB">
<feFlood flood-opacity="0" result="BackgroundImageFix"/>
<feColorMatrix in="SourceAlpha" type="matrix" values="0 0 0 0 0 0 0 0 0 0 0 0 0 0 0 0 0 0 127 0"/>
<feOffset dy="2"/>
<feGaussianBlur stdDeviation="2"/>
<feColorMatrix type="matrix" values="0 0 0 0 0 0 0 0 0 0 0 0 0 0 0 0 0 0 0.25 0"/>
<feBlend mode="normal" in2="BackgroundImageFix" result="effect1_dropShadow"/>
<feBlend mode="normal" in="SourceGraphic" in2="effect1_dropShadow" result="shape"/>
</filter>
<linearGradient id="paint0_linear" x1="81" y1="41.0548" x2="-1.42908e-07" y2="41.0548" gradientUnits="userSpaceOnUse">
<stop stop-color="#FF9334"/>
<stop offset="1" stop-color="#FF5856"/>
</linearGradient>
<linearGradient id="paint1_linear" x1="38.3991" y1="54.4429" x2="38.3991" y2="26.5576" gradientUnits="userSpaceOnUse">
<stop stop-color="#FF9334"/>
<stop offset="1" stop-color="#FF5856"/>
</linearGradient>
</defs>
</svg>
