<svg width="204" height="74" viewBox="0 0 204 74" fill="none" xmlns="http://www.w3.org/2000/svg">
<rect width="204" height="73.115" rx="10" fill="black"/>
<rect x="0.5" y="0.5" width="203" height="72.115" rx="9.5" stroke="#A6A5B0" stroke-opacity="0.3"/>
<path d="M74.3146 23.0721C74.3146 24.1729 74.0391 25.1362 73.3504 25.8242C72.524 26.6498 71.5598 27.0627 70.3202 27.0627C69.0805 27.0627 68.1164 26.6498 67.2899 25.8242C66.4635 24.9986 66.0503 24.0353 66.0503 22.7968C66.0503 21.5584 66.4635 20.5951 67.2899 19.7695C68.1164 18.9439 69.0805 18.531 70.3202 18.531C70.8711 18.531 71.4221 18.6686 71.973 18.9439C72.524 19.2191 72.9372 19.4943 73.2127 19.9071L72.524 20.5951C71.973 19.9071 71.2843 19.6319 70.3202 19.6319C69.4938 19.6319 68.6673 19.9071 68.1164 20.5951C67.4277 21.1456 67.1522 21.9712 67.1522 22.9345C67.1522 23.8977 67.4277 24.7233 68.1164 25.2738C68.8051 25.8242 69.4938 26.237 70.3202 26.237C71.2843 26.237 71.973 25.9618 72.6617 25.2738C73.0749 24.8609 73.3504 24.3105 73.3504 23.6225H70.3202V22.5216H74.3146V23.0721ZM80.6506 19.6319H76.9316V22.2464H80.3751V23.2097H76.9316V25.8242H80.6506V26.925H75.8297V18.6686H80.6506V19.6319ZM85.1959 26.925H84.094V19.6319H81.7525V18.6686H87.5375V19.6319H85.1959V26.925ZM91.5319 26.925V18.6686H92.6338V26.925H91.5319ZM97.3169 26.925H96.215V19.6319H93.8734V18.6686H99.5207V19.6319H97.1792V26.925H97.3169ZM110.402 25.8242C109.576 26.6498 108.611 27.0627 107.372 27.0627C106.132 27.0627 105.168 26.6498 104.342 25.8242C103.515 24.9986 103.102 24.0353 103.102 22.7968C103.102 21.5584 103.515 20.5951 104.342 19.7695C105.168 18.9439 106.132 18.531 107.372 18.531C108.611 18.531 109.576 18.9439 110.402 19.7695C111.228 20.5951 111.642 21.5584 111.642 22.7968C111.642 24.0353 111.228 24.9986 110.402 25.8242ZM105.168 25.1362C105.719 25.6866 106.545 26.0994 107.372 26.0994C108.198 26.0994 109.025 25.8242 109.576 25.1362C110.127 24.5857 110.54 23.7601 110.54 22.7968C110.54 21.8336 110.264 21.008 109.576 20.4575C109.025 19.9071 108.198 19.4943 107.372 19.4943C106.545 19.4943 105.719 19.7695 105.168 20.4575C104.617 21.008 104.204 21.8336 104.204 22.7968C104.204 23.7601 104.479 24.5857 105.168 25.1362ZM113.157 26.925V18.6686H114.396L118.391 25.1362V18.6686H119.493V26.925H118.391L114.121 20.1823V26.925H113.157Z" fill="white"/>
<path d="M102.826 39.0344C99.5204 39.0344 96.9033 41.5114 96.9033 44.9515C96.9033 48.2541 99.5204 50.8686 102.826 50.8686C106.132 50.8686 108.749 48.3917 108.749 44.9515C108.749 41.3738 106.132 39.0344 102.826 39.0344ZM102.826 48.3917C101.035 48.3917 99.5204 46.878 99.5204 44.8139C99.5204 42.7498 101.035 41.2361 102.826 41.2361C104.617 41.2361 106.132 42.6122 106.132 44.8139C106.132 46.878 104.617 48.3917 102.826 48.3917ZM90.0164 39.0344C86.7107 39.0344 84.0937 41.5114 84.0937 44.9515C84.0937 48.2541 86.7107 50.8686 90.0164 50.8686C93.3221 50.8686 95.9392 48.3917 95.9392 44.9515C95.9392 41.3738 93.3221 39.0344 90.0164 39.0344ZM90.0164 48.3917C88.2258 48.3917 86.7107 46.878 86.7107 44.8139C86.7107 42.7498 88.2258 41.2361 90.0164 41.2361C91.807 41.2361 93.3221 42.6122 93.3221 44.8139C93.3221 46.878 91.807 48.3917 90.0164 48.3917ZM74.7275 40.8233V43.3002H80.6502C80.5125 44.6763 79.9615 45.7772 79.2728 46.4652C78.4464 47.2908 77.069 48.2541 74.7275 48.2541C71.0085 48.2541 68.2538 45.3643 68.2538 41.649C68.2538 37.9336 71.1463 35.0438 74.7275 35.0438C76.6558 35.0438 78.1709 35.8695 79.2728 36.8327L81.0634 35.0438C79.5483 33.6678 77.62 32.5669 74.8652 32.5669C69.9066 32.5669 65.6367 36.6951 65.6367 41.649C65.6367 46.6028 69.9066 50.731 74.8652 50.731C77.62 50.731 79.5483 49.9054 81.2012 48.1165C82.854 46.4652 83.405 44.1259 83.405 42.337C83.405 41.7866 83.405 41.2361 83.2672 40.8233H74.7275ZM137.261 42.7498C136.71 41.3738 135.332 39.0344 132.302 39.0344C129.272 39.0344 126.793 41.3738 126.793 44.9515C126.793 48.2541 129.272 50.8686 132.578 50.8686C135.195 50.8686 136.847 49.2173 137.398 48.2541L135.47 46.878C134.781 47.8413 133.955 48.5293 132.578 48.5293C131.2 48.5293 130.374 47.9789 129.685 46.7404L137.536 43.4379L137.261 42.7498ZM129.272 44.6763C129.272 42.4746 131.062 41.2361 132.302 41.2361C133.266 41.2361 134.23 41.7866 134.506 42.4746L129.272 44.6763ZM122.798 50.3182H125.415V33.1174H122.798V50.3182ZM118.666 40.2729C117.977 39.5849 116.875 38.8968 115.498 38.8968C112.606 38.8968 109.851 41.5114 109.851 44.8139C109.851 48.1165 112.468 50.5934 115.498 50.5934C116.875 50.5934 117.977 49.9054 118.528 49.2173H118.666V50.043C118.666 52.2447 117.426 53.4831 115.498 53.4831C113.983 53.4831 112.881 52.3823 112.606 51.419L110.402 52.3823C111.09 53.896 112.743 55.8225 115.636 55.8225C118.666 55.8225 121.145 54.0336 121.145 49.7678V39.3097H118.666V40.2729ZM115.636 48.3917C113.845 48.3917 112.33 46.878 112.33 44.8139C112.33 42.7498 113.845 41.2361 115.636 41.2361C117.426 41.2361 118.804 42.7498 118.804 44.8139C118.804 46.878 117.426 48.3917 115.636 48.3917ZM149.244 33.1174H143.046V50.3182H145.663V43.8507H149.244C152.136 43.8507 154.891 41.7866 154.891 38.484C154.891 35.1815 152.136 33.1174 149.244 33.1174ZM149.382 41.3738H145.663V35.4567H149.382C151.31 35.4567 152.412 37.1079 152.412 38.3464C152.274 39.8601 151.172 41.3738 149.382 41.3738ZM165.222 38.8968C163.293 38.8968 161.365 39.7225 160.676 41.5114L163.018 42.4746C163.569 41.5114 164.395 41.2361 165.359 41.2361C166.737 41.2361 167.976 42.0618 168.114 43.4379V43.5755C167.701 43.3002 166.599 42.8874 165.497 42.8874C163.018 42.8874 160.538 44.2635 160.538 46.7404C160.538 49.0797 162.605 50.5934 164.808 50.5934C166.599 50.5934 167.425 49.7678 168.114 48.9421H168.252V50.3182H170.731V43.7131C170.456 40.6857 168.114 38.8968 165.222 38.8968ZM164.946 48.3917C164.12 48.3917 162.88 47.9789 162.88 46.878C162.88 45.502 164.395 45.0891 165.635 45.0891C166.737 45.0891 167.288 45.3643 167.976 45.6396C167.701 47.2908 166.323 48.3917 164.946 48.3917ZM179.409 39.3097L176.516 46.7404H176.378L173.348 39.3097H170.593L175.139 49.7678L172.522 55.5472H175.139L182.163 39.3097H179.409ZM156.269 50.3182H158.886V33.1174H156.269V50.3182Z" fill="white"/>
<path d="M23.3512 19.3572C22.938 19.77 22.8003 20.458 22.8003 21.2837V51.6947C22.8003 52.5204 23.0758 53.2084 23.489 53.6212L23.6267 53.7588L40.7063 36.6956V36.4204L23.3512 19.3572Z" fill="url(#paint0_linear)"/>
<path d="M46.2156 42.4746L40.5684 36.8328V36.4199L46.2156 30.7781L46.3534 30.9157L53.1026 34.7687C55.0309 35.8695 55.0309 37.6584 53.1026 38.7593L46.2156 42.4746Z" fill="url(#paint1_linear)"/>
<path d="M46.3534 42.337L40.5684 36.5575L23.3511 53.7584C24.0398 54.4464 25.0039 54.4464 26.2436 53.896L46.3534 42.337Z" fill="url(#paint2_linear)"/>
<path d="M46.3534 30.7781L26.2436 19.3567C25.0039 18.6687 24.0398 18.8063 23.3511 19.4943L40.5684 36.5576L46.3534 30.7781Z" fill="url(#paint3_linear)"/>
<path opacity="0.2" d="M46.2157 42.1994L26.2436 53.4832C25.1417 54.1712 24.1775 54.0336 23.4888 53.4832L23.3511 53.6208L23.4888 53.7584C24.1775 54.3088 25.1417 54.4464 26.2436 53.7584L46.2157 42.1994Z" fill="black"/>
<path opacity="0.2" d="M23.3512 53.4832C22.938 53.0703 22.8003 52.3823 22.8003 51.5567V51.6943C22.8003 52.5199 23.0758 53.2079 23.489 53.6208V53.4832H23.3512ZM53.1028 38.3464L46.2158 42.1994L46.3536 42.337L53.1028 38.484C54.0669 37.9336 54.4801 37.2456 54.4801 36.5575C54.4801 37.2456 53.9292 37.796 53.1028 38.3464Z" fill="black"/>
<path opacity="0.2" d="M26.2438 19.4943L53.1028 34.7687C53.9292 35.3191 54.4801 35.8695 54.4801 36.5575C54.4801 35.8695 54.0669 35.1815 53.1028 34.6311L26.2438 19.3567C24.3154 18.2559 22.8003 19.0815 22.8003 21.2832V21.4208C22.8003 19.3567 24.3154 18.3935 26.2438 19.4943Z" fill="white"/>
<defs>
<linearGradient id="paint0_linear" x1="39.0534" y1="21.0222" x2="15.9589" y2="44.1375" gradientUnits="userSpaceOnUse">
<stop stop-color="#00A0FF"/>
<stop offset="0.007" stop-color="#00A1FF"/>
<stop offset="0.26" stop-color="#00BEFF"/>
<stop offset="0.512" stop-color="#00D2FF"/>
<stop offset="0.76" stop-color="#00DFFF"/>
<stop offset="1" stop-color="#00E3FF"/>
</linearGradient>
<linearGradient id="paint1_linear" x1="55.6287" y1="36.5589" x2="22.3001" y2="36.5589" gradientUnits="userSpaceOnUse">
<stop stop-color="#FFE000"/>
<stop offset="0.409" stop-color="#FFBD00"/>
<stop offset="0.775" stop-color="#FFA500"/>
<stop offset="1" stop-color="#FF9C00"/>
</linearGradient>
<linearGradient id="paint2_linear" x1="43.2226" y1="39.717" x2="11.9061" y2="71.0635" gradientUnits="userSpaceOnUse">
<stop stop-color="#FF3A44"/>
<stop offset="1" stop-color="#C31162"/>
</linearGradient>
<linearGradient id="paint3_linear" x1="19.0771" y1="9.27842" x2="33.062" y2="23.2768" gradientUnits="userSpaceOnUse">
<stop stop-color="#32A071"/>
<stop offset="0.069" stop-color="#2DA771"/>
<stop offset="0.476" stop-color="#15CF74"/>
<stop offset="0.801" stop-color="#06E775"/>
<stop offset="1" stop-color="#00F076"/>
</linearGradient>
</defs>
</svg>
