<svg width="146" height="36" viewBox="0 0 146 36" fill="none" xmlns="http://www.w3.org/2000/svg">
<path d="M1.39859 12.4693C0.623985 12.4693 0 13.1048 0 13.8937V19.7449C0 20.5338 0.623985 21.1693 1.39859 21.1693C2.17319 21.1693 2.79717 20.5338 2.79717 19.7449V13.8937C2.79717 13.1048 2.17319 12.4693 1.39859 12.4693Z" fill="#69C9D0"/>
<path d="M9.01547 6.24567C8.24087 6.24567 7.61688 6.88118 7.61688 7.6701V25.9906C7.61688 26.7795 8.24087 27.415 9.01547 27.415C9.79007 27.415 10.4141 26.7795 10.4141 25.9906V7.6701C10.4141 6.88118 9.79007 6.24567 9.01547 6.24567Z" fill="#69C9D0"/>
<path d="M16.6537 0C15.8791 0 15.2551 0.635518 15.2551 1.42444V32.2142C15.2551 33.0031 15.8791 33.6386 16.6537 33.6386C17.4283 33.6386 18.0523 33.0031 18.0523 32.2142V1.42444C18.0523 0.635518 17.4283 0 16.6537 0Z" fill="#69C9D0"/>
<path d="M31.9089 12.4693C31.1343 12.4693 30.5103 13.1048 30.5103 13.8937V19.7449C30.5103 20.5338 31.1343 21.1693 31.9089 21.1693C32.6835 21.1693 33.3075 20.5338 33.3075 19.7449V13.8937C33.3075 13.1048 32.6835 12.4693 31.9089 12.4693Z" fill="#69C9D0"/>
<path d="M24.2926 6.24567C23.518 6.24567 22.894 6.88118 22.894 7.6701V25.9906C22.894 26.7795 23.518 27.415 24.2926 27.415C25.0672 27.415 25.6912 26.7795 25.6912 25.9906V7.6701C25.6912 6.88118 25.0672 6.24567 24.2926 6.24567Z" fill="#69C9D0"/>
<path d="M3.65774 14.4196C2.88314 14.4196 2.25916 15.0551 2.25916 15.8441V21.6952C2.25916 22.4841 2.88314 23.1196 3.65774 23.1196C4.43234 23.1196 5.05633 22.4841 5.05633 21.6952V15.8441C5.05633 15.0551 4.43234 14.4196 3.65774 14.4196Z" fill="#EE1E52"/>
<path d="M11.2745 8.17401C10.4999 8.17401 9.87592 8.80953 9.87592 9.59845V27.9189C9.87592 28.7078 10.4999 29.3433 11.2745 29.3433C12.0491 29.3433 12.6731 28.7078 12.6731 27.9189V9.59845C12.6731 8.80953 12.0491 8.17401 11.2745 8.17401Z" fill="#EE1E52"/>
<path d="M18.9129 1.92841C18.1383 1.92841 17.5143 2.56392 17.5143 3.35284V34.1426C17.5143 34.9315 18.1383 35.567 18.9129 35.567C19.6875 35.567 20.3115 34.9315 20.3115 34.1426V3.35284C20.3115 2.56392 19.6875 1.92841 18.9129 1.92841Z" fill="#EE1E52"/>
<path d="M34.168 14.5073C33.3934 14.5073 32.7694 15.1428 32.7694 15.9318V21.6733C32.7694 22.4623 33.3934 23.0978 34.168 23.0978C34.9426 23.0978 35.5666 22.4623 35.5666 21.6733V15.9318C35.5666 15.1428 34.9426 14.5073 34.168 14.5073Z" fill="#EE1E52"/>
<path d="M26.5511 8.17401C25.7765 8.17401 25.1526 8.80953 25.1526 9.59845V27.9189C25.1526 28.7078 25.7765 29.3433 26.5511 29.3433C27.3257 29.3433 27.9497 28.7078 27.9497 27.9189V9.59845C27.9497 8.80953 27.3257 8.17401 26.5511 8.17401Z" fill="#EE1E52"/>
<path d="M17.7943 0.964172C17.0197 0.964172 16.3957 1.59969 16.3957 2.38861V33.1784C16.3957 33.9673 17.0197 34.6028 17.7943 34.6028C18.5689 34.6028 19.1929 33.9673 19.1929 33.1784V2.38861C19.1929 1.59969 18.5474 0.964172 17.7943 0.964172Z" fill="white"/>
<path d="M25.4111 7.20984C24.6365 7.20984 24.0125 7.84536 24.0125 8.63428V26.9547C24.0125 27.7437 24.6365 28.3792 25.4111 28.3792C26.1857 28.3792 26.8097 27.7437 26.8097 26.9547V8.63428C26.8097 7.84536 26.1857 7.20984 25.4111 7.20984Z" fill="white"/>
<path d="M10.156 7.20984C9.38143 7.20984 8.75745 7.84536 8.75745 8.63428V26.9547C8.75745 27.7437 9.38143 28.3792 10.156 28.3792C10.9306 28.3792 11.5546 27.7437 11.5546 26.9547V8.63428C11.5546 7.84536 10.9306 7.20984 10.156 7.20984Z" fill="white"/>
<path d="M33.0494 13.4335C32.2748 13.4335 31.6508 14.069 31.6508 14.8579V20.7091C31.6508 21.498 32.2748 22.1335 33.0494 22.1335C33.824 22.1335 34.448 21.498 34.448 20.7091V14.8579C34.448 14.0909 33.824 13.4335 33.0494 13.4335Z" fill="white"/>
<path d="M2.51712 13.4334C1.74251 13.4334 1.11853 14.0689 1.11853 14.8578V20.709C1.11853 21.4979 1.74251 22.1334 2.51712 22.1334C3.29172 22.1334 3.9157 21.4979 3.9157 20.709V14.8578C3.9157 14.0908 3.29172 13.4334 2.51712 13.4334Z" fill="white"/>
<path d="M50.3872 9.21423H62.8789V11.9111H58.0503V26.3529H55.2353V11.9013H50.3872V9.21423Z" fill="white"/>
<path d="M67.4341 11.784C67.1115 12.1064 66.7108 12.2726 66.2612 12.2726C65.8018 12.2726 65.401 12.1064 65.0589 11.784C64.7364 11.442 64.5702 11.0414 64.5702 10.5821C64.5702 10.1229 64.7364 9.73205 65.0589 9.4096C65.3815 9.0676 65.7822 8.89172 66.2612 8.89172C66.7303 8.89172 67.1311 9.0676 67.4634 9.4096C67.786 9.73205 67.9521 10.1327 67.9521 10.5821C67.9424 11.0414 67.7762 11.442 67.4341 11.784ZM67.5807 26.3431H64.9318V14.1095H67.5807V26.3431Z" fill="white"/>
<path d="M76.0256 20.0993L81.6068 26.3431H78.4496L73.4256 20.6856V26.3431H70.7767V9.21423H73.4256V19.5228L78.176 14.1096H81.4113L76.0256 20.0993Z" fill="white"/>
<path d="M97.1091 9.21423H100.12V26.3529H97.3045V14.1389L92.085 22.7571H91.7429L86.5234 14.1194V26.3627H83.7083V9.21423H86.7482L91.9188 17.7836L97.1091 9.21423Z" fill="white"/>
<path d="M111.77 20.666V14.1096H114.419V26.3528H111.77V24.7895C110.949 26.0499 109.688 26.6753 107.978 26.6753C106.56 26.6753 105.417 26.2258 104.566 25.3171C103.706 24.4084 103.276 23.187 103.276 21.6334V14.1096H105.925V21.3598C105.925 22.2783 106.169 22.972 106.658 23.4606C107.147 23.9491 107.821 24.1934 108.662 24.1934C109.629 24.1934 110.382 23.9003 110.939 23.3042C111.496 22.6984 111.77 21.8288 111.77 20.666Z" fill="white"/>
<path d="M119.951 17.4807C119.951 17.852 120.147 18.1647 120.538 18.3992C120.929 18.6337 121.505 18.8584 122.248 19.0734C122.815 19.2004 123.314 19.347 123.744 19.4935C124.164 19.6401 124.614 19.8551 125.093 20.1384C125.562 20.4218 125.933 20.8029 126.178 21.2621C126.432 21.7311 126.549 22.2686 126.53 22.8939C126.53 24.0665 126.07 24.9947 125.161 25.6592C124.242 26.3334 123.108 26.6656 121.76 26.6656C120.548 26.6656 119.512 26.4115 118.651 25.9034C117.781 25.3953 117.156 24.6918 116.765 23.8026L119.042 22.4835C119.453 23.6561 120.352 24.2423 121.76 24.2423C123.148 24.2423 123.842 23.7831 123.842 22.8744C123.842 22.2099 123.069 21.6823 121.515 21.311C120.929 21.1644 120.43 21.0178 120.03 20.8713C119.629 20.7247 119.189 20.5097 118.71 20.2361C118.231 19.9626 117.86 19.5912 117.605 19.132C117.351 18.6728 117.234 18.1451 117.254 17.5393C117.254 16.4156 117.674 15.5069 118.524 14.8229C119.394 14.1389 120.46 13.7969 121.73 13.7969C122.747 13.7969 123.646 14.0217 124.438 14.4711C125.23 14.9206 125.836 15.546 126.266 16.3472L124.037 17.5979C123.627 16.6697 122.864 16.2006 121.74 16.2006C121.222 16.2006 120.792 16.3179 120.45 16.5426C120.118 16.7576 119.951 17.0801 119.951 17.4807Z" fill="white"/>
<path d="M131.368 11.784C131.046 12.1064 130.645 12.2726 130.195 12.2726C129.736 12.2726 129.335 12.1064 128.993 11.784C128.67 11.442 128.504 11.0414 128.504 10.5821C128.504 10.1229 128.67 9.73205 128.993 9.4096C129.316 9.0676 129.716 8.89172 130.195 8.89172C130.664 8.89172 131.065 9.0676 131.397 9.4096C131.72 9.73205 131.886 10.1327 131.886 10.5821C131.876 11.0414 131.71 11.442 131.368 11.784ZM131.515 26.3431H128.866V14.1095H131.515V26.3431Z" fill="white"/>
<path d="M140.497 26.6656C138.65 26.6656 137.105 26.05 135.874 24.8091C134.642 23.5486 134.036 22.0243 134.036 20.2264C134.036 18.3992 134.652 16.8749 135.874 15.6535C137.115 14.4125 138.659 13.7969 140.497 13.7969C141.689 13.7969 142.774 14.0803 143.752 14.6568C144.729 15.2235 145.462 15.9955 145.951 16.953L143.674 18.2721C143.4 17.6859 142.98 17.2266 142.413 16.8846C141.846 16.5524 141.201 16.3863 140.468 16.3863C139.392 16.3863 138.483 16.7576 137.75 17.4904C137.027 18.2428 136.675 19.1515 136.675 20.2361C136.675 21.311 137.037 22.2295 137.75 22.9819C138.483 23.7147 139.392 24.086 140.468 24.086C141.181 24.086 141.836 23.9199 142.413 23.5877C142.989 23.2554 143.429 22.7962 143.723 22.2002L146 23.4997C145.482 24.4768 144.72 25.2585 143.732 25.8253C142.755 26.3822 141.67 26.6656 140.497 26.6656Z" fill="white"/>
</svg>
