<svg width="28" height="28" viewBox="0 0 28 28" fill="none" xmlns="http://www.w3.org/2000/svg">
<path d="M1.10103 9.81641C0.491229 9.81641 0 10.3167 0 10.9378V15.5441C0 16.1651 0.491229 16.6655 1.10103 16.6655C1.71083 16.6655 2.20206 16.1651 2.20206 15.5441V10.9378C2.20206 10.3167 1.71083 9.81641 1.10103 9.81641Z" fill="#69C9D0"/>
<path d="M7.09737 4.91687C6.48757 4.91687 5.99634 5.41718 5.99634 6.03825V20.4609C5.99634 21.082 6.48757 21.5823 7.09737 21.5823C7.70717 21.5823 8.1984 21.082 8.1984 20.4609V6.03825C8.1984 5.41718 7.70717 4.91687 7.09737 4.91687Z" fill="#69C9D0"/>
<path d="M13.1106 0C12.5008 0 12.0095 0.500309 12.0095 1.12138V25.3605C12.0095 25.9815 12.5008 26.4818 13.1106 26.4818C13.7204 26.4818 14.2116 25.9815 14.2116 25.3605V1.12138C14.2116 0.500309 13.7204 0 13.1106 0Z" fill="#69C9D0"/>
<path d="M25.1201 9.81641C24.5103 9.81641 24.019 10.3167 24.019 10.9378V15.5441C24.019 16.1651 24.5103 16.6655 25.1201 16.6655C25.7299 16.6655 26.2211 16.1651 26.2211 15.5441V10.9378C26.2211 10.3167 25.7299 9.81641 25.1201 9.81641Z" fill="#69C9D0"/>
<path d="M19.1242 4.91687C18.5144 4.91687 18.0232 5.41718 18.0232 6.03825V20.4609C18.0232 21.082 18.5144 21.5823 19.1242 21.5823C19.734 21.5823 20.2253 21.082 20.2253 20.4609V6.03825C20.2253 5.41718 19.734 4.91687 19.1242 4.91687Z" fill="#69C9D0"/>
<path d="M2.87959 11.3518C2.26979 11.3518 1.77856 11.8521 1.77856 12.4732V17.0794C1.77856 17.7005 2.26979 18.2008 2.87959 18.2008C3.4894 18.2008 3.98062 17.7005 3.98062 17.0794V12.4732C3.98062 11.8521 3.4894 11.3518 2.87959 11.3518Z" fill="#EE1E52"/>
<path d="M8.87569 6.43494C8.26589 6.43494 7.77466 6.93525 7.77466 7.55632V21.979C7.77466 22.6001 8.26589 23.1004 8.87569 23.1004C9.48549 23.1004 9.97672 22.6001 9.97672 21.979V7.55632C9.97672 6.93525 9.48549 6.43494 8.87569 6.43494Z" fill="#EE1E52"/>
<path d="M14.8891 1.51813C14.2793 1.51813 13.7881 2.01844 13.7881 2.63951V26.8786C13.7881 27.4997 14.2793 28 14.8891 28C15.4989 28 15.9901 27.4997 15.9901 26.8786V2.63951C15.9901 2.01844 15.4989 1.51813 14.8891 1.51813Z" fill="#EE1E52"/>
<path d="M26.8986 11.4208C26.2888 11.4208 25.7976 11.9211 25.7976 12.5422V17.0622C25.7976 17.6833 26.2888 18.1836 26.8986 18.1836C27.5084 18.1836 27.9997 17.6833 27.9997 17.0622V12.5422C27.9997 11.9211 27.5084 11.4208 26.8986 11.4208Z" fill="#EE1E52"/>
<path d="M20.9023 6.43494C20.2925 6.43494 19.8013 6.93525 19.8013 7.55632V21.979C19.8013 22.6001 20.2925 23.1004 20.9023 23.1004C21.5121 23.1004 22.0033 22.6001 22.0033 21.979V7.55632C22.0033 6.93525 21.5121 6.43494 20.9023 6.43494Z" fill="#EE1E52"/>
<path d="M14.0085 0.759033C13.3987 0.759033 12.9075 1.25934 12.9075 1.88041V26.1195C12.9075 26.7406 13.3987 27.2409 14.0085 27.2409C14.6183 27.2409 15.1095 26.7406 15.1095 26.1195V1.88041C15.1095 1.25934 14.6014 0.759033 14.0085 0.759033Z" fill="white"/>
<path d="M20.0048 5.6759C19.395 5.6759 18.9038 6.17621 18.9038 6.79728V21.22C18.9038 21.841 19.395 22.3414 20.0048 22.3414C20.6146 22.3414 21.1059 21.841 21.1059 21.22V6.79728C21.1059 6.17621 20.6146 5.6759 20.0048 5.6759Z" fill="white"/>
<path d="M7.99532 5.6759C7.38552 5.6759 6.89429 6.17621 6.89429 6.79728V21.22C6.89429 21.841 7.38552 22.3414 7.99532 22.3414C8.60512 22.3414 9.09635 21.841 9.09635 21.22V6.79728C9.09635 6.17621 8.60512 5.6759 7.99532 5.6759Z" fill="white"/>
<path d="M26.018 10.5754C25.4082 10.5754 24.917 11.0757 24.917 11.6968V16.3031C24.917 16.9242 25.4082 17.4245 26.018 17.4245C26.6278 17.4245 27.1191 16.9242 27.1191 16.3031V11.6968C27.1191 11.093 26.6278 10.5754 26.018 10.5754Z" fill="white"/>
<path d="M1.98164 10.5754C1.37184 10.5754 0.880615 11.0757 0.880615 11.6968V16.303C0.880615 16.9241 1.37184 17.4244 1.98164 17.4244C2.59145 17.4244 3.08267 16.9241 3.08267 16.303V11.6968C3.08267 11.0929 2.59145 10.5754 1.98164 10.5754Z" fill="white"/>
</svg>
