<svg width="431" height="431" viewBox="0 0 431 431" fill="none" xmlns="http://www.w3.org/2000/svg">
<path d="M215.5 15.1805C215.5 6.79655 208.695 -0.0556631 200.332 0.534419C166.934 2.89084 134.47 13.0038 105.555 30.1559C72.2788 49.8953 44.9302 78.2295 26.3809 112.184C7.83156 146.138 -1.23433 184.46 0.135007 223.127C1.50434 261.793 13.2584 299.378 34.1632 331.935C55.0679 364.493 84.3523 390.821 118.942 408.157C153.531 425.493 192.15 433.197 230.744 430.46C269.338 427.723 306.483 414.646 338.28 392.602C365.909 373.448 388.615 348.137 404.656 318.749C408.672 311.39 405.274 302.351 397.65 298.862C390.027 295.373 381.072 298.762 376.971 306.074C363.255 330.525 344.13 351.603 320.982 367.651C293.665 386.589 261.753 397.824 228.597 400.175C195.44 402.527 162.262 395.908 132.546 381.014C102.829 366.121 77.6706 343.501 59.711 315.531C41.7515 287.561 31.6534 255.271 30.477 222.052C29.3006 188.833 37.0892 155.91 53.0252 126.74C68.9612 97.5691 92.4567 73.2268 121.045 56.2684C145.27 41.8981 172.396 33.2791 200.336 30.983C208.692 30.2963 215.5 23.5645 215.5 15.1805Z" fill="url(#paint0_linear)"/>
<path d="M215.5 60.9098C215.5 55.9891 211.508 51.9747 206.594 52.2427C185.013 53.4199 163.848 58.8667 144.336 68.2998C122.146 79.0274 102.669 94.6329 87.3606 113.949C72.0524 133.266 61.3093 155.793 55.9347 179.846C50.5601 203.9 50.6932 228.858 56.3239 252.853C61.9546 276.847 72.9372 299.259 88.4505 318.411C103.964 337.563 123.606 352.96 145.909 363.45C168.212 373.941 192.598 379.253 217.243 378.991C238.914 378.76 260.293 374.223 280.146 365.677C284.665 363.732 286.455 358.361 284.266 353.953C282.077 349.546 276.739 347.775 272.207 349.691C254.771 357.059 236.038 360.97 217.053 361.172C195.094 361.406 173.366 356.673 153.494 347.326C133.622 337.978 116.12 324.26 102.297 307.195C88.4749 290.13 78.6893 270.161 73.6723 248.782C68.6552 227.402 68.5367 205.164 73.3255 183.732C78.1143 162.3 87.6866 142.228 101.326 125.017C114.966 107.806 132.321 93.9014 152.092 84.3429C169.185 76.0792 187.702 71.249 206.596 70.092C211.507 69.7912 215.5 65.8306 215.5 60.9098Z" fill="#56C85A"/>
<path d="M215.5 97.4534C215.5 92.7847 211.711 88.9706 207.053 89.2823C187.978 90.5589 169.401 96.1459 152.738 105.667C133.624 116.59 117.692 132.311 106.515 151.277C95.3386 170.244 89.3052 191.798 89.0113 213.811C88.7173 235.823 94.1731 257.532 104.839 276.79C115.505 296.048 131.012 312.189 149.828 323.618C168.643 335.046 190.116 341.367 212.122 341.955C234.129 342.543 255.908 337.377 275.307 326.969C292.217 317.896 306.809 305.113 318.01 289.621C320.746 285.837 319.523 280.602 315.565 278.125C311.608 275.648 306.418 276.872 303.643 280.627C294.029 293.638 281.631 304.39 267.313 312.071C250.507 321.088 231.639 325.563 212.574 325.054C193.508 324.545 174.906 319.069 158.605 309.168C142.304 299.266 128.87 285.282 119.629 268.598C110.388 251.914 105.662 233.107 105.917 214.037C106.171 194.966 111.398 176.292 121.081 159.861C130.764 143.429 144.567 129.809 161.126 120.347C175.233 112.285 190.925 107.479 207.055 106.233C211.71 105.873 215.5 102.122 215.5 97.4534Z" fill="#54B7CD"/>
<path d="M215.5 130.197C215.5 125.67 211.823 121.963 207.313 122.359C197.841 123.192 188.534 125.466 179.719 129.117C168.375 133.816 158.068 140.703 149.386 149.386C140.703 158.068 133.816 168.375 129.117 179.719C125.466 188.534 123.192 197.841 122.359 207.313C121.963 211.823 125.67 215.5 130.197 215.5C134.724 215.5 138.349 211.82 138.83 207.318C139.611 200 141.437 192.818 144.264 185.993C148.139 176.638 153.818 168.138 160.978 160.978C168.138 153.818 176.638 148.139 185.993 144.264C192.818 141.437 200 139.611 207.318 138.83C211.82 138.349 215.5 134.724 215.5 130.197Z" fill="#EBBC44"/>
<path d="M215.5 162.561C215.5 158.385 212.102 154.951 207.959 155.472C202.605 156.144 197.354 157.532 192.348 159.605C185.007 162.646 178.338 167.102 172.72 172.72C167.102 178.338 162.646 185.007 159.605 192.348C157.532 197.354 156.144 202.605 155.472 207.959C154.951 212.102 158.385 215.5 162.561 215.5C166.737 215.5 170.058 212.092 170.751 207.974C171.317 204.606 172.263 201.305 173.576 198.135C175.857 192.629 179.199 187.627 183.413 183.413C187.627 179.199 192.629 175.857 198.135 173.576C201.305 172.263 204.606 171.317 207.974 170.751C212.092 170.058 215.5 166.737 215.5 162.561Z" fill="#C4C4C4"/>
<defs>
<linearGradient id="paint0_linear" x1="431" y1="218.452" x2="-7.60413e-07" y2="218.452" gradientUnits="userSpaceOnUse">
<stop stop-color="#FF9334"/>
<stop offset="1" stop-color="#FF5856"/>
</linearGradient>
</defs>
</svg>
