<svg width="431" height="431" viewBox="0 0 431 431" fill="none" xmlns="http://www.w3.org/2000/svg">
<path d="M215.5 15.1805C215.5 6.79655 208.694 -0.0556925 200.331 0.534262C154.827 3.7442 111.366 21.3322 76.3367 50.9587C41.3074 80.5853 16.7504 120.525 6.03294 164.865C4.06318 173.014 9.69089 180.863 17.9586 182.254C26.2263 183.646 33.9947 178.049 36.0585 169.923C45.5224 132.659 66.3965 99.1297 95.9429 74.1403C125.489 49.151 162.018 34.1311 200.336 30.9828C208.691 30.2963 215.5 23.5645 215.5 15.1805Z" fill="url(#paint0_linear)"/>
<path d="M215.5 60.9098C215.5 55.9891 211.508 51.9747 206.594 52.2427C188.167 53.2479 170.021 57.367 152.931 64.4457C133.095 72.6623 115.07 84.7057 99.888 99.8881C84.7057 115.07 72.6623 133.095 64.4457 152.931C57.367 170.021 53.2479 188.167 52.2427 206.594C51.9747 211.508 55.9891 215.5 60.9098 215.5C65.8306 215.5 69.7912 211.507 70.092 206.596C71.077 190.51 74.7259 174.678 80.9089 159.751C88.23 142.076 98.9607 126.016 112.488 112.488C126.016 98.9608 142.076 88.23 159.751 80.9089C174.678 74.7259 190.51 71.077 206.596 70.092C211.507 69.7912 215.5 65.8306 215.5 60.9098Z" fill="#56C85A"/>
<path d="M215.5 97.4534C215.5 92.7847 211.711 88.9706 207.053 89.2822C180.235 91.0764 154.602 101.378 133.944 118.8C113.286 136.223 98.8084 159.751 92.516 185.882C91.423 190.421 94.5433 194.799 99.1451 195.587C103.747 196.374 108.083 193.27 109.223 188.743C114.812 166.544 127.237 146.574 144.844 131.724C162.451 116.874 184.23 107.996 207.054 106.233C211.709 105.873 215.5 102.122 215.5 97.4534Z" fill="#54B7CD"/>
<path d="M215.5 130.197C215.5 125.67 211.823 121.963 207.313 122.359C195.694 123.38 184.342 126.569 173.856 131.786C163.369 137.003 153.978 144.132 146.154 152.784C143.117 156.141 143.856 161.31 147.466 164.041C151.077 166.772 156.188 166.024 159.287 162.723C165.539 156.064 172.94 150.552 181.158 146.465C189.375 142.377 198.235 139.799 207.318 138.83C211.82 138.349 215.5 134.724 215.5 130.197Z" fill="#EBBC44"/>
<path d="M215.5 162.561C215.5 158.385 212.102 154.951 207.959 155.472C202.605 156.144 197.354 157.532 192.348 159.605C187.342 161.679 182.648 164.411 178.386 167.721C175.088 170.283 175.114 175.114 178.067 178.067C181.019 181.019 185.778 180.958 189.179 178.536C191.961 176.555 194.965 174.889 198.135 173.576C201.305 172.263 204.606 171.317 207.974 170.751C212.092 170.058 215.5 166.737 215.5 162.561Z" fill="#C4C4C4"/>
<defs>
<linearGradient id="paint0_linear" x1="431" y1="218.452" x2="-7.60413e-07" y2="218.452" gradientUnits="userSpaceOnUse">
<stop stop-color="#FF9334"/>
<stop offset="1" stop-color="#FF5856"/>
</linearGradient>
</defs>
</svg>
