<svg width="431" height="431" viewBox="0 0 431 431" fill="none" xmlns="http://www.w3.org/2000/svg">
<path d="M215.5 15.1805C215.5 6.79655 208.694 -0.0556704 200.331 0.534367C159.968 3.38205 121.108 17.5497 88.2832 41.5571C51.3627 68.5597 23.9918 106.61 10.1315 150.2C-3.72876 193.791 -3.35933 240.662 11.1863 284.029C25.732 327.396 53.6993 365.009 91.0409 391.427C128.383 417.844 173.161 431.694 218.897 430.973C264.633 430.252 308.953 414.997 345.443 387.416C381.933 359.835 408.701 321.358 421.872 277.554C433.583 238.609 434.006 197.249 423.254 158.241C421.026 150.158 412.299 146.022 404.393 148.813C396.488 151.604 392.406 160.265 394.541 168.373C403.202 201.278 402.651 236.04 392.797 268.812C381.482 306.444 358.485 339.5 327.136 363.195C295.786 386.891 257.71 399.997 218.418 400.616C179.126 401.235 140.656 389.336 108.576 366.641C76.4948 343.946 52.4677 311.631 39.9714 274.374C27.475 237.117 27.1576 196.85 39.0651 159.4C50.9727 121.951 74.4874 89.2616 106.206 66.0633C133.828 45.8613 166.424 33.7695 200.336 30.9829C208.692 30.2963 215.5 23.5645 215.5 15.1805Z" fill="url(#paint0_linear)"/>
<path d="M215.5 60.9098C215.5 55.9891 211.507 51.9747 206.594 52.2426C173.584 54.0429 141.816 65.8167 115.545 86.1122C86.9175 108.227 66.4328 139.212 57.2983 174.215C48.1639 209.217 50.8955 246.261 65.0654 279.544C79.2354 312.828 104.044 340.473 135.605 358.15C167.167 375.827 203.7 382.538 239.483 377.231C275.266 371.925 308.28 354.902 333.353 328.826C358.427 302.751 374.145 269.097 378.046 233.133C381.627 200.129 375.069 166.89 359.359 137.803C357.021 133.473 351.512 132.166 347.316 134.737C343.12 137.307 341.829 142.781 344.138 147.126C357.805 172.839 363.486 202.127 360.331 231.211C356.855 263.255 342.849 293.242 320.509 316.475C298.168 339.708 268.752 354.877 236.869 359.605C204.986 364.333 172.434 358.353 144.313 342.603C116.191 326.853 94.0867 302.221 81.4611 272.564C68.8355 242.908 66.4016 209.902 74.5405 178.714C82.6794 147.527 100.932 119.919 126.439 100.214C149.59 82.3292 177.531 71.8713 206.595 70.0919C211.507 69.7912 215.5 65.8306 215.5 60.9098Z" fill="#56C85A"/>
<path d="M215.5 97.4534C215.5 92.7847 211.711 88.9706 207.052 89.2823C185.005 90.7577 163.675 97.9883 145.22 110.319C124.418 124.219 108.204 143.976 98.6292 167.091C89.0548 190.205 86.5496 215.64 91.4307 240.179C96.3117 264.718 108.36 287.258 126.051 304.949C143.742 322.64 166.282 334.688 190.821 339.569C215.36 344.45 240.795 341.945 263.909 332.371C287.024 322.796 306.781 306.582 320.681 285.78C333.012 267.325 340.242 245.995 341.718 223.948C342.029 219.289 338.215 215.5 333.547 215.5C328.878 215.5 325.127 219.29 324.767 223.945C323.322 242.645 317.096 260.713 306.623 276.387C294.581 294.409 277.465 308.456 257.44 316.751C237.414 325.046 215.378 327.216 194.119 322.987C172.86 318.759 153.333 308.321 138.006 292.994C122.679 277.667 112.241 258.14 108.013 236.881C103.784 215.622 105.954 193.586 114.249 173.56C122.544 153.535 136.591 136.419 154.613 124.377C170.287 113.904 188.355 107.678 207.055 106.233C211.71 105.873 215.5 102.122 215.5 97.4534Z" fill="#54B7CD"/>
<path d="M215.5 130.197C215.5 125.67 211.823 121.963 207.313 122.359C187.81 124.073 169.259 131.877 154.345 144.773C139.431 157.668 129.03 174.898 124.518 193.948C123.474 198.354 126.612 202.528 131.091 203.182C135.571 203.835 139.689 200.717 140.815 196.332C144.704 181.176 153.135 167.493 165.068 157.174C177.002 146.856 191.759 140.49 207.318 138.83C211.819 138.349 215.5 134.724 215.5 130.197Z" fill="#EBBC44"/>
<path d="M215.5 162.561C215.5 158.385 212.102 154.951 207.958 155.472C198.144 156.705 188.741 160.332 180.598 166.082C172.456 171.833 165.893 179.482 161.45 188.319C159.573 192.05 161.673 196.401 165.609 197.797C169.544 199.194 173.814 197.092 175.844 193.443C179.138 187.52 183.734 182.381 189.322 178.434C194.91 174.488 201.29 171.875 207.974 170.751C212.092 170.058 215.5 166.737 215.5 162.561Z" fill="#C4C4C4"/>
<defs>
<linearGradient id="paint0_linear" x1="431" y1="218.452" x2="-7.60413e-07" y2="218.452" gradientUnits="userSpaceOnUse">
<stop stop-color="#FF9334"/>
<stop offset="1" stop-color="#FF5856"/>
</linearGradient>
</defs>
</svg>
