<svg width="79" height="79" viewBox="0 0 79 79" fill="none" xmlns="http://www.w3.org/2000/svg">
<path d="M69.125 64.1875H61.7188C61.0501 64.1875 60.4715 63.9432 59.9829 63.4546C59.4943 62.966 59.25 62.3874 59.25 61.7188V37.0312C59.25 36.3626 59.4943 35.784 59.9829 35.2954C60.4715 34.8068 61.0501 34.5625 61.7188 34.5625H64.1875C64.1875 26.9505 62.0659 20.9329 57.8228 16.5098C53.5796 12.0866 47.472 9.875 39.5 9.875C31.528 9.875 25.4204 12.0866 21.1772 16.5098C16.9341 20.9329 14.8125 26.9505 14.8125 34.5625H17.2812C17.9499 34.5625 18.5285 34.8068 19.0171 35.2954C19.5057 35.784 19.75 36.3626 19.75 37.0312V61.7188C19.75 62.3874 19.5057 62.966 19.0171 63.4546C18.5285 63.9432 17.9499 64.1875 17.2812 64.1875H14.8125C14.8125 66.9134 15.7769 69.2407 17.7056 71.1694C19.6343 73.0981 21.9616 74.0625 24.6875 74.0625H29.625C29.625 72.6738 30.1007 71.5037 31.0522 70.5522C32.0037 69.6007 33.1738 69.125 34.5625 69.125H39.5C40.8887 69.125 42.0588 69.6007 43.0103 70.5522C43.9618 71.5037 44.4375 72.661 44.4375 74.0239C44.4375 75.3869 43.9618 76.557 43.0103 77.5342C42.0588 78.5114 40.8887 79 39.5 79H24.6875C20.5729 79 17.0755 77.5599 14.1953 74.6797C11.3151 71.7995 9.875 68.3021 9.875 64.1875C7.14909 64.1875 4.82178 62.7474 2.89307 59.8672C0.964355 56.987 0 53.4896 0 49.375C0 46.7005 0.450033 44.2318 1.3501 41.9688C2.25016 39.7057 3.44596 37.9313 4.9375 36.6455V34.5625C4.9375 29.8822 5.85042 25.4076 7.67627 21.1387C9.50212 16.8698 11.958 13.1924 15.0439 10.1064C18.1299 7.02051 21.8073 4.56462 26.0762 2.73877C30.3451 0.912923 34.8197 0 39.5 0C44.1803 0 48.6549 0.912923 52.9238 2.73877C57.1927 4.56462 60.8701 7.02051 63.9561 10.1064C67.042 13.1924 69.4979 16.8698 71.3237 21.1387C73.1496 25.4076 74.0625 29.8822 74.0625 34.5625V36.6455C75.554 37.9313 76.7498 39.7057 77.6499 41.9688C78.55 44.2318 79 46.7005 79 49.375C79 53.4896 78.0356 56.987 76.1069 59.8672C74.1782 62.7474 71.8509 64.1875 69.125 64.1875Z" fill="white"/>
</svg>
