<svg width="36" height="8" viewBox="0 0 36 8" fill="none" xmlns="http://www.w3.org/2000/svg">
<path fill-rule="evenodd" clip-rule="evenodd" d="M32.0124 0.15051C31.9658 0.198099 31.9289 0.254634 31.9037 0.316874C31.8785 0.379115 31.8655 0.44584 31.8655 0.513226C31.8655 0.580613 31.8785 0.647338 31.9037 0.709578C31.9289 0.771819 31.9658 0.828353 32.0124 0.875942L34.6592 3.58709L32.0124 6.29824C31.9185 6.39444 31.8657 6.52491 31.8657 6.66096C31.8657 6.797 31.9185 6.92747 32.0124 7.02367C32.1062 7.11987 32.2336 7.17391 32.3663 7.17391C32.4991 7.17391 32.6264 7.11987 32.7203 7.02367L35.7201 3.9498C35.7666 3.90222 35.8036 3.84568 35.8288 3.78344C35.854 3.7212 35.8669 3.65447 35.8669 3.58709C35.8669 3.5197 35.854 3.45298 35.8288 3.39074C35.8036 3.3285 35.7666 3.27196 35.7201 3.22437L32.7203 0.15051C32.6739 0.1028 32.6187 0.0649475 32.558 0.0391205C32.4972 0.0132935 32.4321 -3.34832e-07 32.3663 -2.95971e-07C32.3006 -2.5711e-07 32.2355 0.0132936 32.1747 0.0391207C32.114 0.0649478 32.0588 0.1028 32.0124 0.15051Z" fill="white"/>
<path fill-rule="evenodd" clip-rule="evenodd" d="M7.81307e-06 3.58653C7.81351e-06 3.7224 0.0526822 3.85271 0.146443 3.94879C0.240204 4.04487 0.367371 4.09884 0.499968 4.09884L34.3663 4.09886C34.4989 4.09885 34.626 4.04488 34.7198 3.9488C34.8136 3.85273 34.8662 3.72242 34.8662 3.58654C34.8662 3.45067 34.8136 3.32036 34.7198 3.22428C34.626 3.12821 34.4989 3.07423 34.3663 3.07423L0.499968 3.07422C0.367371 3.07422 0.240204 3.12819 0.146443 3.22427C0.0526822 3.32035 7.81263e-06 3.45066 7.81307e-06 3.58653Z" fill="white"/>
</svg>
