<svg width="24" height="15" viewBox="0 0 24 15" fill="none" xmlns="http://www.w3.org/2000/svg">
<path fill-rule="evenodd" clip-rule="evenodd" d="M8.08918 0.314703C8.18654 0.414208 8.26377 0.532416 8.31647 0.662555C8.36917 0.792695 8.3963 0.93221 8.3963 1.07311C8.3963 1.21401 8.36917 1.35352 8.31647 1.48366C8.26377 1.6138 8.18654 1.73201 8.08918 1.83152L2.55499 7.50028L8.08918 13.169C8.28548 13.3702 8.39575 13.643 8.39575 13.9275C8.39575 14.2119 8.28548 14.4847 8.08918 14.6859C7.89289 14.887 7.62666 15 7.34906 15C7.07146 15 6.80523 14.887 6.60894 14.6859L0.336711 8.25868C0.239359 8.15918 0.162122 8.04097 0.109422 7.91083C0.0567217 7.78069 0.0295944 7.64118 0.0295944 7.50028C0.0295944 7.35938 0.0567217 7.21986 0.109422 7.08972C0.162122 6.95958 0.239359 6.84137 0.336711 6.74187L6.60894 0.314702C6.70604 0.214946 6.8214 0.135799 6.94841 0.0817974C7.07541 0.0277954 7.21156 -7.00157e-07 7.34906 -6.18896e-07C7.48656 -5.37635e-07 7.62271 0.0277957 7.74972 0.0817979C7.87672 0.1358 7.99208 0.214946 8.08918 0.314703Z" fill="black"/>
<path fill-rule="evenodd" clip-rule="evenodd" d="M23.0296 7.49991C23.0296 7.784 22.9195 8.05647 22.7234 8.25736C22.5274 8.45824 22.2615 8.5711 21.9842 8.5711L3.16755 8.57109C2.8903 8.57109 2.6244 8.45823 2.42836 8.25734C2.23231 8.05646 2.12218 7.78399 2.12218 7.49989C2.12218 7.2158 2.23231 6.94333 2.42836 6.74244C2.6244 6.54156 2.8903 6.4287 3.16755 6.4287L21.9842 6.42871C22.2615 6.42871 22.5274 6.54157 22.7234 6.74246C22.9195 6.94334 23.0296 7.21581 23.0296 7.49991Z" fill="black"/>
</svg>
