<svg width="23" height="15" viewBox="0 0 23 15" fill="none" xmlns="http://www.w3.org/2000/svg">
<path fill-rule="evenodd" clip-rule="evenodd" d="M14.9404 0.314703C14.8431 0.414208 14.7658 0.532416 14.7131 0.662555C14.6604 0.792695 14.6333 0.93221 14.6333 1.07311C14.6333 1.21401 14.6604 1.35352 14.7131 1.48366C14.7658 1.6138 14.8431 1.73201 14.9404 1.83152L20.4746 7.50028L14.9404 13.169C14.7441 13.3702 14.6338 13.643 14.6338 13.9275C14.6338 14.2119 14.7441 14.4847 14.9404 14.6859C15.1367 14.887 15.4029 15 15.6805 15C15.9581 15 16.2244 14.887 16.4207 14.6859L22.6929 8.25868C22.7902 8.15918 22.8675 8.04097 22.9202 7.91083C22.9729 7.78069 23 7.64118 23 7.50028C23 7.35938 22.9729 7.21986 22.9202 7.08972C22.8675 6.95958 22.7902 6.84137 22.6929 6.74187L16.4207 0.314702C16.3236 0.214946 16.2082 0.135799 16.0812 0.0817974C15.9542 0.0277954 15.818 -7.00204e-07 15.6805 -6.18938e-07C15.543 -5.37671e-07 15.4069 0.0277957 15.2799 0.0817979C15.1529 0.1358 15.0375 0.214946 14.9404 0.314703Z" fill="black"/>
<path fill-rule="evenodd" clip-rule="evenodd" d="M3.46236e-09 7.49991C4.38063e-09 7.784 0.110137 8.05647 0.306183 8.25736C0.502228 8.45824 0.768122 8.5711 1.04537 8.5711L19.8621 8.57109C20.1393 8.57109 20.4052 8.45823 20.6013 8.25734C20.7973 8.05646 20.9074 7.78399 20.9074 7.49989C20.9074 7.2158 20.7973 6.94333 20.6013 6.74244C20.4052 6.54156 20.1393 6.4287 19.8621 6.4287L1.04537 6.42871C0.768122 6.42871 0.502228 6.54157 0.306183 6.74246C0.110137 6.94334 2.54408e-09 7.21581 3.46236e-09 7.49991Z" fill="black"/>
</svg>
