<svg width="270" height="87" viewBox="0 0 270 87" fill="none" xmlns="http://www.w3.org/2000/svg">
<g clip-path="url(#clip0)">
<path fill-rule="evenodd" clip-rule="evenodd" d="M252.834 44.8594C268.98 56.0742 264.171 83.6016 243.902 86.6602C193.745 87 143.245 86.6602 93.4317 86.6602V79.1836H36.0605H20.6012H16.8223L0.332397 57.0938H10.9821L0.332397 43.8398H20.6012V0H181.721V8.49609H269.668L259.361 21.75H269.668L253.178 43.8398L252.834 44.8594Z" fill="white"/>
<path fill-rule="evenodd" clip-rule="evenodd" d="M228.786 49.2776C208.174 55.0549 215.732 87.0002 239.779 80.2033C259.705 74.7658 252.834 42.4807 228.786 49.2776ZM228.786 54.7151C227.069 58.1135 224.32 63.8908 227.069 69.3283C228.443 72.0471 233.939 76.8049 238.749 74.7658C243.215 72.7268 246.65 53.6955 228.786 54.7151Z" fill="#045038"/>
<path fill-rule="evenodd" clip-rule="evenodd" d="M96.5236 44.1797H107.173C107.517 41.4609 108.891 36.7031 110.265 34.6641H121.602C123.663 37.3828 124.35 41.8008 125.724 44.1797H136.718L120.571 6.45703L112.326 6.11719C109.578 12.9141 107.173 18.6914 104.769 25.1484L96.5236 44.1797ZM112.326 27.8672H115.762H119.541L116.105 18.0117L112.326 27.8672Z" fill="#E12025"/>
<path fill-rule="evenodd" clip-rule="evenodd" d="M174.163 38.7424C181.378 40.1018 224.664 39.0823 238.405 39.0823C244.246 39.0823 243.558 39.4221 245.963 36.0237C247.681 33.9846 249.742 32.6252 250.429 30.2463H174.163V38.7424Z" fill="#E12025"/>
<path fill-rule="evenodd" clip-rule="evenodd" d="M174.163 26.8474C181.378 28.2068 224.664 26.8474 238.405 27.1873C244.246 27.1873 243.215 27.5271 245.963 24.1287C248.025 21.7498 249.399 20.7302 250.429 18.0115L174.163 18.3513V26.8474Z" fill="#045038"/>
<path fill-rule="evenodd" clip-rule="evenodd" d="M23.6931 72.387L26.4414 72.7268H90.6833L93.0881 72.387L93.4317 63.8909L89.9963 63.551L27.1285 63.8909H16.8223L23.6931 72.387Z" fill="#E12025"/>
<path fill-rule="evenodd" clip-rule="evenodd" d="M62.1694 44.1797C83.4689 44.1797 83.1254 45.8789 85.5301 40.1016C86.2172 38.0625 86.9043 36.7031 87.2478 34.6641C82.7818 35.6836 79.0029 37.7227 73.5062 37.043V28.8867L80.7206 29.5664C81.7512 26.5078 83.8124 24.8086 84.4995 21.4102H73.5062V12.9141L81.7512 14.2734L85.5301 6.45703L62.1694 6.11719C63.2001 18.3516 63.8871 31.6055 62.1694 44.1797Z" fill="#E12025"/>
<path fill-rule="evenodd" clip-rule="evenodd" d="M23.6931 60.4924H93.0881L93.4317 51.9963L16.8223 51.6565C18.8836 55.0549 21.6319 57.7737 23.6931 60.4924Z" fill="#045038"/>
<path fill-rule="evenodd" clip-rule="evenodd" d="M181.721 80.5427H192.027C190.997 77.1443 190.997 73.0662 190.997 68.988C191.34 69.3279 191.34 69.3279 191.34 69.3279C191.684 69.6677 191.684 69.6677 192.027 69.6677C198.211 76.4646 195.806 81.9021 209.204 80.2029C206.8 77.824 200.616 70.3474 198.898 66.6091C207.83 61.8513 205.426 54.7146 202.334 51.656C197.868 47.5779 188.592 48.9373 181.721 48.5974C182.752 57.7732 183.439 71.7068 181.721 80.5427ZM190.997 62.8708C198.555 62.1912 198.898 54.7146 190.997 54.3748V62.8708Z" fill="#045038"/>
<path fill-rule="evenodd" clip-rule="evenodd" d="M170.728 63.8904H160.422L161.452 74.7654C156.986 74.7654 154.238 74.0857 152.177 71.0271C150.459 68.3083 150.116 63.8904 151.49 60.4919C154.582 51.9958 161.796 54.3747 168.323 57.4333C168.323 54.7146 168.667 51.656 167.98 49.6169C150.803 42.4802 135 60.4919 143.932 74.0857C149.085 81.5622 162.483 82.2419 169.01 79.863C171.759 78.8435 170.384 79.1833 170.041 76.4646C169.354 72.3865 169.697 67.6286 170.728 63.8904Z" fill="#045038"/>
<path fill-rule="evenodd" clip-rule="evenodd" d="M25.7543 44.1797H38.1217C37.0911 38.7422 36.7475 35.0039 37.0911 28.8867L43.9619 29.9063L48.4279 22.0898L37.0911 21.75V12.9141L46.3667 14.2734L49.8021 6.45703L26.0978 6.11719C26.0978 8.83594 26.7849 11.5547 26.7849 14.6133C27.1284 23.7891 27.1284 35.3438 25.7543 44.1797Z" fill="#E12025"/>
<path fill-rule="evenodd" clip-rule="evenodd" d="M143.588 14.2734L154.925 12.9141C154.925 24.1289 155.269 33.6445 153.895 44.1797H166.262C164.544 33.9844 165.231 24.1289 165.231 13.2539L174.163 14.2734C174.507 11.8945 175.881 9.17578 175.538 6.11719H146.337L143.588 14.2734Z" fill="#E12025"/>
<path fill-rule="evenodd" clip-rule="evenodd" d="M99.2718 80.5427H108.204L110.952 72.3865H121.258L124.007 80.5427H133.626L126.411 64.5701C124.35 59.4724 121.945 53.6951 119.884 48.5974H113.013C109.234 59.8123 103.394 70.6873 99.2718 80.5427ZM113.013 66.949H118.854C118.854 65.2498 118.51 64.5701 117.823 62.8708C117.823 62.531 117.479 61.5115 117.136 61.1716C117.136 60.8318 116.792 60.1521 116.792 60.1521C115.762 58.7927 116.792 59.8123 115.418 58.7927L113.013 66.949Z" fill="#045038"/>
<path fill-rule="evenodd" clip-rule="evenodd" d="M252.834 44.8594C268.98 56.0742 264.171 83.6016 243.902 86.6602C193.745 87 143.245 86.6602 93.4317 86.6602V79.1836H36.0605H20.6012H16.8223L0.332397 57.0938H10.9821L0.332397 43.8398H20.6012V0H181.721V8.49609H269.668L259.361 21.75H269.668L253.178 43.8398L252.834 44.8594Z" fill="white"/>
<path fill-rule="evenodd" clip-rule="evenodd" d="M228.786 49.2776C208.174 55.0549 215.732 87.0002 239.779 80.2033C259.705 74.7658 252.834 42.4807 228.786 49.2776ZM228.786 54.7151C227.069 58.1135 224.32 63.8908 227.069 69.3283C228.443 72.0471 233.939 76.8049 238.749 74.7658C243.215 72.7268 246.65 53.6955 228.786 54.7151Z" fill="#045038"/>
<path fill-rule="evenodd" clip-rule="evenodd" d="M96.5236 44.1797H107.173C107.517 41.4609 108.891 36.7031 110.265 34.6641H121.602C123.663 37.3828 124.35 41.8008 125.724 44.1797H136.718L120.571 6.45703L112.326 6.11719C109.578 12.9141 107.173 18.6914 104.769 25.1484L96.5236 44.1797ZM112.326 27.8672H115.762H119.541L116.105 18.0117L112.326 27.8672Z" fill="#E12025"/>
<path fill-rule="evenodd" clip-rule="evenodd" d="M174.163 38.7424C181.378 40.1018 224.664 39.0823 238.405 39.0823C244.246 39.0823 243.558 39.4221 245.963 36.0237C247.681 33.9846 249.742 32.6252 250.429 30.2463H174.163V38.7424Z" fill="#E12025"/>
<path fill-rule="evenodd" clip-rule="evenodd" d="M174.163 26.8474C181.378 28.2068 224.664 26.8474 238.405 27.1873C244.246 27.1873 243.215 27.5271 245.963 24.1287C248.025 21.7498 249.399 20.7302 250.429 18.0115L174.163 18.3513V26.8474Z" fill="#045038"/>
<path fill-rule="evenodd" clip-rule="evenodd" d="M23.6931 72.387L26.4414 72.7268H90.6833L93.0881 72.387L93.4317 63.8909L89.9963 63.551L27.1285 63.8909H16.8223L23.6931 72.387Z" fill="#E12025"/>
<path fill-rule="evenodd" clip-rule="evenodd" d="M62.1694 44.1797C83.4689 44.1797 83.1254 45.8789 85.5301 40.1016C86.2172 38.0625 86.9043 36.7031 87.2478 34.6641C82.7818 35.6836 79.0029 37.7227 73.5062 37.043V28.8867L80.7206 29.5664C81.7512 26.5078 83.8124 24.8086 84.4995 21.4102H73.5062V12.9141L81.7512 14.2734L85.5301 6.45703L62.1694 6.11719C63.2001 18.3516 63.8871 31.6055 62.1694 44.1797Z" fill="#E12025"/>
<path fill-rule="evenodd" clip-rule="evenodd" d="M23.6931 60.4924H93.0881L93.4317 51.9963L16.8223 51.6565C18.8836 55.0549 21.6319 57.7737 23.6931 60.4924Z" fill="#045038"/>
<path fill-rule="evenodd" clip-rule="evenodd" d="M181.721 80.5427H192.027C190.997 77.1443 190.997 73.0662 190.997 68.988C191.34 69.3279 191.34 69.3279 191.34 69.3279C191.684 69.6677 191.684 69.6677 192.027 69.6677C198.211 76.4646 195.806 81.9021 209.204 80.2029C206.8 77.824 200.616 70.3474 198.898 66.6091C207.83 61.8513 205.426 54.7146 202.334 51.656C197.868 47.5779 188.592 48.9373 181.721 48.5974C182.752 57.7732 183.439 71.7068 181.721 80.5427ZM190.997 62.8708C198.555 62.1912 198.898 54.7146 190.997 54.3748V62.8708Z" fill="#045038"/>
<path fill-rule="evenodd" clip-rule="evenodd" d="M170.728 63.8904H160.422L161.452 74.7654C156.986 74.7654 154.238 74.0857 152.177 71.0271C150.459 68.3083 150.116 63.8904 151.49 60.4919C154.582 51.9958 161.796 54.3747 168.323 57.4333C168.323 54.7146 168.667 51.656 167.98 49.6169C150.803 42.4802 135 60.4919 143.932 74.0857C149.085 81.5622 162.483 82.2419 169.01 79.863C171.759 78.8435 170.384 79.1833 170.041 76.4646C169.354 72.3865 169.697 67.6286 170.728 63.8904Z" fill="#045038"/>
<path fill-rule="evenodd" clip-rule="evenodd" d="M25.7543 44.1797H38.1217C37.0911 38.7422 36.7475 35.0039 37.0911 28.8867L43.9619 29.9063L48.4279 22.0898L37.0911 21.75V12.9141L46.3667 14.2734L49.8021 6.45703L26.0978 6.11719C26.0978 8.83594 26.7849 11.5547 26.7849 14.6133C27.1284 23.7891 27.1284 35.3438 25.7543 44.1797Z" fill="#E12025"/>
<path fill-rule="evenodd" clip-rule="evenodd" d="M143.588 14.2734L154.925 12.9141C154.925 24.1289 155.269 33.6445 153.895 44.1797H166.262C164.544 33.9844 165.231 24.1289 165.231 13.2539L174.163 14.2734C174.507 11.8945 175.881 9.17578 175.538 6.11719H146.337L143.588 14.2734Z" fill="#E12025"/>
<path fill-rule="evenodd" clip-rule="evenodd" d="M99.2718 80.5427H108.204L110.952 72.3865H121.258L124.007 80.5427H133.626L126.411 64.5701C124.35 59.4724 121.945 53.6951 119.884 48.5974H113.013C109.234 59.8123 103.394 70.6873 99.2718 80.5427ZM113.013 66.949H118.854C118.854 65.2498 118.51 64.5701 117.823 62.8708C117.823 62.531 117.479 61.5115 117.136 61.1716C117.136 60.8318 116.792 60.1521 116.792 60.1521C115.762 58.7927 116.792 59.8123 115.418 58.7927L113.013 66.949Z" fill="#045038"/>
</g>
<defs>
<clipPath id="clip0">
<rect width="270" height="87" fill="white"/>
</clipPath>
</defs>
</svg>
