<svg width="66" height="55" viewBox="0 0 66 55" fill="none" xmlns="http://www.w3.org/2000/svg">
<path d="M33 0C18 0 5.19 9.50278 0 22.9167C5.19 36.3306 18 45.8333 33 45.8333C34.08 45.8333 35.16 45.8333 36.24 45.6806C36.0856 44.7208 36.0054 43.7503 36 42.7778C36 41.6778 36.12 40.5778 36.3 39.4778C35.22 39.6 34.11 39.7222 33 39.7222C21.72 39.7222 11.49 33.1833 6.54 22.9167C8.96476 17.8741 12.7299 13.6255 17.4074 10.6539C22.085 7.6824 27.4872 6.10708 33 6.10708C38.5128 6.10708 43.915 7.6824 48.5926 10.6539C53.2701 13.6255 57.0352 17.8741 59.46 22.9167C59.1 23.65 58.68 24.2917 58.29 24.9944C60.27 25.4833 62.16 26.3083 63.87 27.5C64.68 25.9722 65.4 24.4444 66 22.9167C60.81 9.50278 48 0 33 0ZM33 13.75C30.6131 13.75 28.3239 14.7158 26.636 16.4349C24.9482 18.1539 24 20.4855 24 22.9167C24 25.3478 24.9482 27.6794 26.636 29.3985C28.3239 31.1176 30.6131 32.0833 33 32.0833C35.3869 32.0833 37.6761 31.1176 39.364 29.3985C41.0518 27.6794 42 25.3478 42 22.9167C42 20.4855 41.0518 18.1539 39.364 16.4349C37.6761 14.7158 35.3869 13.75 33 13.75ZM51 30.5556V39.7222H42V45.8333H51V55H57V45.8333H66V39.7222H57V30.5556H51Z" fill="white"/>
</svg>
