<svg width="1504" height="1091" viewBox="0 0 1504 1091" fill="none" xmlns="http://www.w3.org/2000/svg">
<path d="M22.9803 512.997C-55.3215 405.498 86.4801 232.999 149.785 141.904C315.181 94.6028 649.095 0 661.58 0C674.066 0 1129.6 14.4687 1355.81 21.703C1481.56 230.015 1613.46 670.959 1189.52 884.258C642.479 1159.49 207.98 1167.99 343.48 860.996C439.818 642.727 118.235 643.772 22.9803 512.997Z" fill="url(#paint0_linear)" fill-opacity="0.4"/>
<path d="M46.4697 513.083C-29.7344 408.463 97.5954 222.039 170.786 141.905C336.182 94.6032 670.095 0 682.581 0C695.066 0 1150.6 14.4687 1376.81 21.7031C1502.56 230.016 1645.36 694.165 1210.52 884.262C666.974 1121.88 252.681 1145.57 355.376 865.341C432.872 653.875 141.725 643.859 46.4697 513.083Z" fill="url(#paint1_linear)" fill-opacity="0.4"/>
<defs>
<linearGradient id="paint0_linear" x1="360.493" y1="97.1843" x2="1451.43" y2="223.138" gradientUnits="userSpaceOnUse">
<stop stop-color="#00CDAC"/>
<stop offset="1" stop-color="#02AAB0"/>
</linearGradient>
<linearGradient id="paint1_linear" x1="381.493" y1="97.1822" x2="1472.43" y2="223.135" gradientUnits="userSpaceOnUse">
<stop stop-color="#00CDAC"/>
<stop offset="1" stop-color="#02AAB0"/>
</linearGradient>
</defs>
</svg>
